G04 #@! TF.GenerationSoftware,KiCad,Pcbnew,(5.1.8)-1*
G04 #@! TF.CreationDate,2021-01-10T02:28:54-06:00*
G04 #@! TF.ProjectId,GBABreakout,47424142-7265-4616-9b6f-75742e6b6963,rev?*
G04 #@! TF.SameCoordinates,Original*
G04 #@! TF.FileFunction,Copper,L2,Bot*
G04 #@! TF.FilePolarity,Positive*
%FSLAX46Y46*%
G04 Gerber Fmt 4.6, Leading zero omitted, Abs format (unit mm)*
G04 Created by KiCad (PCBNEW (5.1.8)-1) date 2021-01-10 02:28:54*
%MOMM*%
%LPD*%
G01*
G04 APERTURE LIST*
G04 #@! TA.AperFunction,SMDPad,CuDef*
%ADD10R,1.600000X0.800000*%
G04 #@! TD*
G04 #@! TA.AperFunction,ViaPad*
%ADD11C,0.800000*%
G04 #@! TD*
G04 #@! TA.AperFunction,Conductor*
%ADD12C,0.200000*%
G04 #@! TD*
G04 #@! TA.AperFunction,Conductor*
%ADD13C,0.254000*%
G04 #@! TD*
G04 #@! TA.AperFunction,Conductor*
%ADD14C,0.100000*%
G04 #@! TD*
G04 APERTURE END LIST*
D10*
X188950000Y-59250000D03*
D11*
X174009998Y-65700000D03*
X177450000Y-66650000D03*
X180250000Y-59550000D03*
X184525004Y-60150000D03*
X183500000Y-61000000D03*
X183500000Y-64750000D03*
X186000000Y-61500000D03*
X186164999Y-60045144D03*
X177090012Y-64500024D03*
X174309988Y-59800000D03*
X179450000Y-65290010D03*
X174309982Y-61500000D03*
X182801451Y-61861449D03*
X187000000Y-62400000D03*
X179735808Y-61175943D03*
X187590002Y-65000000D03*
X184500000Y-66300000D03*
X182800000Y-66600006D03*
X174300000Y-62900000D03*
X178350000Y-65950000D03*
X178650000Y-64650000D03*
X174309988Y-57965052D03*
X178350000Y-61225000D03*
X179050000Y-59750000D03*
X187590002Y-66250000D03*
X181000000Y-62000000D03*
X180702746Y-61108236D03*
X185500000Y-63100000D03*
D12*
X174100000Y-65600000D02*
X175150000Y-66650000D01*
X175150000Y-66650000D02*
X177450000Y-66650000D01*
X180450000Y-64730852D02*
X179050000Y-63330852D01*
X180450000Y-65237212D02*
X180450000Y-64730852D01*
X179037212Y-66650000D02*
X180450000Y-65237212D01*
X177450000Y-66650000D02*
X179037212Y-66650000D01*
X179050000Y-60750000D02*
X180250000Y-59550000D01*
X179050000Y-63330852D02*
X179050000Y-60750000D01*
X180250000Y-59550000D02*
X183925004Y-59550000D01*
X183925004Y-59550000D02*
X184525004Y-60150000D01*
X182715698Y-61000000D02*
X183500000Y-61000000D01*
X182161450Y-61554248D02*
X182715698Y-61000000D01*
X182161450Y-63411450D02*
X182161450Y-61554248D01*
X183500000Y-64750000D02*
X182161450Y-63411450D01*
X186000000Y-61500000D02*
X186000000Y-60210143D01*
X186000000Y-60210143D02*
X186164999Y-60045144D01*
X177090012Y-64500024D02*
X177090012Y-62580024D01*
X177090012Y-62580024D02*
X174309988Y-59800000D01*
X176837212Y-65290010D02*
X174940001Y-63392799D01*
X179450000Y-65290010D02*
X176837212Y-65290010D01*
X174940001Y-63392799D02*
X174940001Y-62130019D01*
X174940001Y-62130019D02*
X174309982Y-61500000D01*
X186225683Y-63740002D02*
X187000000Y-62965685D01*
X182801451Y-61861449D02*
X184680004Y-63740002D01*
X187000000Y-62965685D02*
X187000000Y-62400000D01*
X184680004Y-63740002D02*
X186225683Y-63740002D01*
X187590002Y-65000000D02*
X185800000Y-65000000D01*
X185800000Y-65000000D02*
X184500000Y-66300000D01*
X179735808Y-61175943D02*
X179735808Y-63535814D01*
X179735808Y-63535814D02*
X182800000Y-66600006D01*
X174300000Y-62900000D02*
X174300000Y-63746511D01*
X174300000Y-63746511D02*
X176503489Y-65950000D01*
X176503489Y-65950000D02*
X178350000Y-65950000D01*
X174949990Y-59827047D02*
X174949990Y-58605054D01*
X178650000Y-63527057D02*
X174949990Y-59827047D01*
X178650000Y-64650000D02*
X178650000Y-63527057D01*
X174949990Y-58605054D02*
X174309988Y-57965052D01*
X178350000Y-61225000D02*
X178350000Y-60450000D01*
X178350000Y-60450000D02*
X179050000Y-59750000D01*
X186900000Y-66940002D02*
X187190003Y-66649999D01*
X181000000Y-62000000D02*
X181000000Y-63747204D01*
X181000000Y-63747204D02*
X184192798Y-66940002D01*
X184192798Y-66940002D02*
X186900000Y-66940002D01*
X187190003Y-66649999D02*
X187590002Y-66250000D01*
X181450983Y-60359999D02*
X183807201Y-60359999D01*
X180702746Y-61108236D02*
X181450983Y-60359999D01*
X185500000Y-62052798D02*
X185500000Y-63100000D01*
X183807201Y-60359999D02*
X185500000Y-62052798D01*
D13*
X173274988Y-58066991D02*
X173314762Y-58266950D01*
X173392783Y-58455308D01*
X173506051Y-58624826D01*
X173650214Y-58768989D01*
X173819732Y-58882257D01*
X173820381Y-58882526D01*
X173819732Y-58882795D01*
X173650214Y-58996063D01*
X173506051Y-59140226D01*
X173392783Y-59309744D01*
X173314762Y-59498102D01*
X173274988Y-59698061D01*
X173274988Y-59901939D01*
X173314762Y-60101898D01*
X173392783Y-60290256D01*
X173506051Y-60459774D01*
X173650214Y-60603937D01*
X173719149Y-60649998D01*
X173650208Y-60696063D01*
X173506045Y-60840226D01*
X173392777Y-61009744D01*
X173314756Y-61198102D01*
X173274982Y-61398061D01*
X173274982Y-61601939D01*
X173314756Y-61801898D01*
X173392777Y-61990256D01*
X173506045Y-62159774D01*
X173541280Y-62195009D01*
X173496063Y-62240226D01*
X173382795Y-62409744D01*
X173304774Y-62598102D01*
X173265000Y-62798061D01*
X173265000Y-63001939D01*
X173304774Y-63201898D01*
X173382795Y-63390256D01*
X173496063Y-63559774D01*
X173565000Y-63628711D01*
X173565000Y-63710406D01*
X173561444Y-63746511D01*
X173575635Y-63890596D01*
X173616570Y-64025537D01*
X173617664Y-64029144D01*
X173685914Y-64156831D01*
X173777763Y-64268749D01*
X173805808Y-64291765D01*
X175958235Y-66444193D01*
X175981251Y-66472238D01*
X176093169Y-66564087D01*
X176220856Y-66632337D01*
X176317375Y-66661616D01*
X176359403Y-66674365D01*
X176503488Y-66688556D01*
X176539593Y-66685000D01*
X177621289Y-66685000D01*
X177626289Y-66690000D01*
X171682279Y-66690000D01*
X171623422Y-66684229D01*
X171597857Y-66676511D01*
X171574276Y-66663972D01*
X171553580Y-66647093D01*
X171536558Y-66626516D01*
X171523856Y-66603026D01*
X171515960Y-66577516D01*
X171510000Y-66520815D01*
X171510000Y-58182279D01*
X171515771Y-58123421D01*
X171523489Y-58097857D01*
X171536026Y-58074279D01*
X171552907Y-58053581D01*
X171573486Y-58036557D01*
X171596972Y-58023857D01*
X171622488Y-58015959D01*
X171679185Y-58010000D01*
X173274988Y-58010000D01*
X173274988Y-58066991D01*
G04 #@! TA.AperFunction,Conductor*
D14*
G36*
X173274988Y-58066991D02*
G01*
X173314762Y-58266950D01*
X173392783Y-58455308D01*
X173506051Y-58624826D01*
X173650214Y-58768989D01*
X173819732Y-58882257D01*
X173820381Y-58882526D01*
X173819732Y-58882795D01*
X173650214Y-58996063D01*
X173506051Y-59140226D01*
X173392783Y-59309744D01*
X173314762Y-59498102D01*
X173274988Y-59698061D01*
X173274988Y-59901939D01*
X173314762Y-60101898D01*
X173392783Y-60290256D01*
X173506051Y-60459774D01*
X173650214Y-60603937D01*
X173719149Y-60649998D01*
X173650208Y-60696063D01*
X173506045Y-60840226D01*
X173392777Y-61009744D01*
X173314756Y-61198102D01*
X173274982Y-61398061D01*
X173274982Y-61601939D01*
X173314756Y-61801898D01*
X173392777Y-61990256D01*
X173506045Y-62159774D01*
X173541280Y-62195009D01*
X173496063Y-62240226D01*
X173382795Y-62409744D01*
X173304774Y-62598102D01*
X173265000Y-62798061D01*
X173265000Y-63001939D01*
X173304774Y-63201898D01*
X173382795Y-63390256D01*
X173496063Y-63559774D01*
X173565000Y-63628711D01*
X173565000Y-63710406D01*
X173561444Y-63746511D01*
X173575635Y-63890596D01*
X173616570Y-64025537D01*
X173617664Y-64029144D01*
X173685914Y-64156831D01*
X173777763Y-64268749D01*
X173805808Y-64291765D01*
X175958235Y-66444193D01*
X175981251Y-66472238D01*
X176093169Y-66564087D01*
X176220856Y-66632337D01*
X176317375Y-66661616D01*
X176359403Y-66674365D01*
X176503488Y-66688556D01*
X176539593Y-66685000D01*
X177621289Y-66685000D01*
X177626289Y-66690000D01*
X171682279Y-66690000D01*
X171623422Y-66684229D01*
X171597857Y-66676511D01*
X171574276Y-66663972D01*
X171553580Y-66647093D01*
X171536558Y-66626516D01*
X171523856Y-66603026D01*
X171515960Y-66577516D01*
X171510000Y-66520815D01*
X171510000Y-58182279D01*
X171515771Y-58123421D01*
X171523489Y-58097857D01*
X171536026Y-58074279D01*
X171552907Y-58053581D01*
X171573486Y-58036557D01*
X171596972Y-58023857D01*
X171622488Y-58015959D01*
X171679185Y-58010000D01*
X173274988Y-58010000D01*
X173274988Y-58066991D01*
G37*
G04 #@! TD.AperFunction*
D13*
X181765000Y-66604453D02*
X181765000Y-66690000D01*
X179073711Y-66690000D01*
X179153937Y-66609774D01*
X179267205Y-66440256D01*
X179317463Y-66318924D01*
X179348061Y-66325010D01*
X179551939Y-66325010D01*
X179751898Y-66285236D01*
X179940256Y-66207215D01*
X180109774Y-66093947D01*
X180253937Y-65949784D01*
X180367205Y-65780266D01*
X180445226Y-65591908D01*
X180485000Y-65391949D01*
X180485000Y-65324452D01*
X181765000Y-66604453D01*
G04 #@! TA.AperFunction,Conductor*
D14*
G36*
X181765000Y-66604453D02*
G01*
X181765000Y-66690000D01*
X179073711Y-66690000D01*
X179153937Y-66609774D01*
X179267205Y-66440256D01*
X179317463Y-66318924D01*
X179348061Y-66325010D01*
X179551939Y-66325010D01*
X179751898Y-66285236D01*
X179940256Y-66207215D01*
X180109774Y-66093947D01*
X180253937Y-65949784D01*
X180367205Y-65780266D01*
X180445226Y-65591908D01*
X180485000Y-65391949D01*
X180485000Y-65324452D01*
X181765000Y-66604453D01*
G37*
G04 #@! TD.AperFunction*
D13*
X190001579Y-58015771D02*
X190027143Y-58023489D01*
X190050721Y-58036026D01*
X190071419Y-58052907D01*
X190088443Y-58073486D01*
X190101143Y-58096972D01*
X190109041Y-58122488D01*
X190115001Y-58179194D01*
X190115001Y-58328086D01*
X190104494Y-58319463D01*
X189994180Y-58260498D01*
X189874482Y-58224188D01*
X189750000Y-58211928D01*
X188150000Y-58211928D01*
X188025518Y-58224188D01*
X187905820Y-58260498D01*
X187795506Y-58319463D01*
X187698815Y-58398815D01*
X187619463Y-58495506D01*
X187560498Y-58605820D01*
X187524188Y-58725518D01*
X187511928Y-58850000D01*
X187511928Y-59650000D01*
X187524188Y-59774482D01*
X187560498Y-59894180D01*
X187619463Y-60004494D01*
X187698815Y-60101185D01*
X187795506Y-60180537D01*
X187905820Y-60239502D01*
X188025518Y-60275812D01*
X188150000Y-60288072D01*
X189750000Y-60288072D01*
X189874482Y-60275812D01*
X189994180Y-60239502D01*
X190104494Y-60180537D01*
X190115001Y-60171914D01*
X190115000Y-66517721D01*
X190109229Y-66576578D01*
X190101511Y-66602143D01*
X190088972Y-66625724D01*
X190072093Y-66646420D01*
X190051516Y-66663442D01*
X190028026Y-66676144D01*
X190002516Y-66684040D01*
X189945815Y-66690000D01*
X188528024Y-66690000D01*
X188585228Y-66551898D01*
X188625002Y-66351939D01*
X188625002Y-66148061D01*
X188585228Y-65948102D01*
X188507207Y-65759744D01*
X188417174Y-65625000D01*
X188507207Y-65490256D01*
X188585228Y-65301898D01*
X188625002Y-65101939D01*
X188625002Y-64898061D01*
X188585228Y-64698102D01*
X188507207Y-64509744D01*
X188393939Y-64340226D01*
X188249776Y-64196063D01*
X188080258Y-64082795D01*
X187891900Y-64004774D01*
X187691941Y-63965000D01*
X187488063Y-63965000D01*
X187288104Y-64004774D01*
X187099746Y-64082795D01*
X186930228Y-64196063D01*
X186861291Y-64265000D01*
X186744558Y-64265000D01*
X186747921Y-64262240D01*
X186770941Y-64234190D01*
X187494197Y-63510935D01*
X187522237Y-63487923D01*
X187545250Y-63459882D01*
X187545253Y-63459879D01*
X187614087Y-63376005D01*
X187682337Y-63248319D01*
X187711487Y-63152224D01*
X187803937Y-63059774D01*
X187917205Y-62890256D01*
X187995226Y-62701898D01*
X188035000Y-62501939D01*
X188035000Y-62298061D01*
X187995226Y-62098102D01*
X187917205Y-61909744D01*
X187803937Y-61740226D01*
X187659774Y-61596063D01*
X187490256Y-61482795D01*
X187301898Y-61404774D01*
X187101939Y-61365000D01*
X187028424Y-61365000D01*
X186995226Y-61198102D01*
X186917205Y-61009744D01*
X186814459Y-60855973D01*
X186824773Y-60849081D01*
X186968936Y-60704918D01*
X187082204Y-60535400D01*
X187160225Y-60347042D01*
X187199999Y-60147083D01*
X187199999Y-59943205D01*
X187160225Y-59743246D01*
X187082204Y-59554888D01*
X186968936Y-59385370D01*
X186824773Y-59241207D01*
X186655255Y-59127939D01*
X186466897Y-59049918D01*
X186266938Y-59010144D01*
X186063060Y-59010144D01*
X185863101Y-59049918D01*
X185674743Y-59127939D01*
X185505225Y-59241207D01*
X185361062Y-59385370D01*
X185247794Y-59554888D01*
X185169773Y-59743246D01*
X185129999Y-59943205D01*
X185129999Y-60147083D01*
X185169773Y-60347042D01*
X185247794Y-60535400D01*
X185265001Y-60561152D01*
X185265001Y-60771288D01*
X185261469Y-60774820D01*
X184352459Y-59865811D01*
X184329439Y-59837761D01*
X184217521Y-59745912D01*
X184089834Y-59677662D01*
X183951286Y-59635634D01*
X183843306Y-59624999D01*
X183807201Y-59621443D01*
X183771096Y-59624999D01*
X181487088Y-59624999D01*
X181450983Y-59621443D01*
X181414878Y-59624999D01*
X181306898Y-59635634D01*
X181168350Y-59677662D01*
X181040663Y-59745912D01*
X180928745Y-59837761D01*
X180905729Y-59865806D01*
X180698299Y-60073236D01*
X180600807Y-60073236D01*
X180400848Y-60113010D01*
X180212490Y-60191031D01*
X180155132Y-60229357D01*
X180037706Y-60180717D01*
X179995356Y-60172293D01*
X180045226Y-60051898D01*
X180085000Y-59851939D01*
X180085000Y-59648061D01*
X180045226Y-59448102D01*
X179967205Y-59259744D01*
X179853937Y-59090226D01*
X179709774Y-58946063D01*
X179540256Y-58832795D01*
X179351898Y-58754774D01*
X179151939Y-58715000D01*
X178948061Y-58715000D01*
X178748102Y-58754774D01*
X178559744Y-58832795D01*
X178390226Y-58946063D01*
X178246063Y-59090226D01*
X178132795Y-59259744D01*
X178054774Y-59448102D01*
X178015000Y-59648061D01*
X178015000Y-59745554D01*
X177855808Y-59904746D01*
X177827763Y-59927762D01*
X177735914Y-60039680D01*
X177681788Y-60140943D01*
X177667664Y-60167367D01*
X177625635Y-60305915D01*
X177611444Y-60450000D01*
X177615000Y-60486105D01*
X177615000Y-60496289D01*
X177546063Y-60565226D01*
X177432795Y-60734744D01*
X177354774Y-60923102D01*
X177315000Y-61123061D01*
X177315000Y-61152611D01*
X175684990Y-59522601D01*
X175684990Y-58641159D01*
X175688546Y-58605054D01*
X175674355Y-58460969D01*
X175632327Y-58322420D01*
X175564077Y-58194734D01*
X175525522Y-58147755D01*
X175472228Y-58082816D01*
X175444183Y-58059800D01*
X175394383Y-58010000D01*
X189942721Y-58010000D01*
X190001579Y-58015771D01*
G04 #@! TA.AperFunction,Conductor*
D14*
G36*
X190001579Y-58015771D02*
G01*
X190027143Y-58023489D01*
X190050721Y-58036026D01*
X190071419Y-58052907D01*
X190088443Y-58073486D01*
X190101143Y-58096972D01*
X190109041Y-58122488D01*
X190115001Y-58179194D01*
X190115001Y-58328086D01*
X190104494Y-58319463D01*
X189994180Y-58260498D01*
X189874482Y-58224188D01*
X189750000Y-58211928D01*
X188150000Y-58211928D01*
X188025518Y-58224188D01*
X187905820Y-58260498D01*
X187795506Y-58319463D01*
X187698815Y-58398815D01*
X187619463Y-58495506D01*
X187560498Y-58605820D01*
X187524188Y-58725518D01*
X187511928Y-58850000D01*
X187511928Y-59650000D01*
X187524188Y-59774482D01*
X187560498Y-59894180D01*
X187619463Y-60004494D01*
X187698815Y-60101185D01*
X187795506Y-60180537D01*
X187905820Y-60239502D01*
X188025518Y-60275812D01*
X188150000Y-60288072D01*
X189750000Y-60288072D01*
X189874482Y-60275812D01*
X189994180Y-60239502D01*
X190104494Y-60180537D01*
X190115001Y-60171914D01*
X190115000Y-66517721D01*
X190109229Y-66576578D01*
X190101511Y-66602143D01*
X190088972Y-66625724D01*
X190072093Y-66646420D01*
X190051516Y-66663442D01*
X190028026Y-66676144D01*
X190002516Y-66684040D01*
X189945815Y-66690000D01*
X188528024Y-66690000D01*
X188585228Y-66551898D01*
X188625002Y-66351939D01*
X188625002Y-66148061D01*
X188585228Y-65948102D01*
X188507207Y-65759744D01*
X188417174Y-65625000D01*
X188507207Y-65490256D01*
X188585228Y-65301898D01*
X188625002Y-65101939D01*
X188625002Y-64898061D01*
X188585228Y-64698102D01*
X188507207Y-64509744D01*
X188393939Y-64340226D01*
X188249776Y-64196063D01*
X188080258Y-64082795D01*
X187891900Y-64004774D01*
X187691941Y-63965000D01*
X187488063Y-63965000D01*
X187288104Y-64004774D01*
X187099746Y-64082795D01*
X186930228Y-64196063D01*
X186861291Y-64265000D01*
X186744558Y-64265000D01*
X186747921Y-64262240D01*
X186770941Y-64234190D01*
X187494197Y-63510935D01*
X187522237Y-63487923D01*
X187545250Y-63459882D01*
X187545253Y-63459879D01*
X187614087Y-63376005D01*
X187682337Y-63248319D01*
X187711487Y-63152224D01*
X187803937Y-63059774D01*
X187917205Y-62890256D01*
X187995226Y-62701898D01*
X188035000Y-62501939D01*
X188035000Y-62298061D01*
X187995226Y-62098102D01*
X187917205Y-61909744D01*
X187803937Y-61740226D01*
X187659774Y-61596063D01*
X187490256Y-61482795D01*
X187301898Y-61404774D01*
X187101939Y-61365000D01*
X187028424Y-61365000D01*
X186995226Y-61198102D01*
X186917205Y-61009744D01*
X186814459Y-60855973D01*
X186824773Y-60849081D01*
X186968936Y-60704918D01*
X187082204Y-60535400D01*
X187160225Y-60347042D01*
X187199999Y-60147083D01*
X187199999Y-59943205D01*
X187160225Y-59743246D01*
X187082204Y-59554888D01*
X186968936Y-59385370D01*
X186824773Y-59241207D01*
X186655255Y-59127939D01*
X186466897Y-59049918D01*
X186266938Y-59010144D01*
X186063060Y-59010144D01*
X185863101Y-59049918D01*
X185674743Y-59127939D01*
X185505225Y-59241207D01*
X185361062Y-59385370D01*
X185247794Y-59554888D01*
X185169773Y-59743246D01*
X185129999Y-59943205D01*
X185129999Y-60147083D01*
X185169773Y-60347042D01*
X185247794Y-60535400D01*
X185265001Y-60561152D01*
X185265001Y-60771288D01*
X185261469Y-60774820D01*
X184352459Y-59865811D01*
X184329439Y-59837761D01*
X184217521Y-59745912D01*
X184089834Y-59677662D01*
X183951286Y-59635634D01*
X183843306Y-59624999D01*
X183807201Y-59621443D01*
X183771096Y-59624999D01*
X181487088Y-59624999D01*
X181450983Y-59621443D01*
X181414878Y-59624999D01*
X181306898Y-59635634D01*
X181168350Y-59677662D01*
X181040663Y-59745912D01*
X180928745Y-59837761D01*
X180905729Y-59865806D01*
X180698299Y-60073236D01*
X180600807Y-60073236D01*
X180400848Y-60113010D01*
X180212490Y-60191031D01*
X180155132Y-60229357D01*
X180037706Y-60180717D01*
X179995356Y-60172293D01*
X180045226Y-60051898D01*
X180085000Y-59851939D01*
X180085000Y-59648061D01*
X180045226Y-59448102D01*
X179967205Y-59259744D01*
X179853937Y-59090226D01*
X179709774Y-58946063D01*
X179540256Y-58832795D01*
X179351898Y-58754774D01*
X179151939Y-58715000D01*
X178948061Y-58715000D01*
X178748102Y-58754774D01*
X178559744Y-58832795D01*
X178390226Y-58946063D01*
X178246063Y-59090226D01*
X178132795Y-59259744D01*
X178054774Y-59448102D01*
X178015000Y-59648061D01*
X178015000Y-59745554D01*
X177855808Y-59904746D01*
X177827763Y-59927762D01*
X177735914Y-60039680D01*
X177681788Y-60140943D01*
X177667664Y-60167367D01*
X177625635Y-60305915D01*
X177611444Y-60450000D01*
X177615000Y-60486105D01*
X177615000Y-60496289D01*
X177546063Y-60565226D01*
X177432795Y-60734744D01*
X177354774Y-60923102D01*
X177315000Y-61123061D01*
X177315000Y-61152611D01*
X175684990Y-59522601D01*
X175684990Y-58641159D01*
X175688546Y-58605054D01*
X175674355Y-58460969D01*
X175632327Y-58322420D01*
X175564077Y-58194734D01*
X175525522Y-58147755D01*
X175472228Y-58082816D01*
X175444183Y-58059800D01*
X175394383Y-58010000D01*
X189942721Y-58010000D01*
X190001579Y-58015771D01*
G37*
G04 #@! TD.AperFunction*
M02*
