G04 #@! TF.GenerationSoftware,KiCad,Pcbnew,(5.1.8)-1*
G04 #@! TF.CreationDate,2021-01-10T02:28:54-06:00*
G04 #@! TF.ProjectId,GBABreakout,47424142-7265-4616-9b6f-75742e6b6963,rev?*
G04 #@! TF.SameCoordinates,Original*
G04 #@! TF.FileFunction,Soldermask,Top*
G04 #@! TF.FilePolarity,Negative*
%FSLAX46Y46*%
G04 Gerber Fmt 4.6, Leading zero omitted, Abs format (unit mm)*
G04 Created by KiCad (PCBNEW (5.1.8)-1) date 2021-01-10 02:28:54*
%MOMM*%
%LPD*%
G01*
G04 APERTURE LIST*
%ADD10C,0.100000*%
G04 APERTURE END LIST*
G36*
G01*
X173450000Y-66951000D02*
X171850000Y-66951000D01*
G75*
G02*
X171799000Y-66900000I0J51000D01*
G01*
X171799000Y-66100000D01*
G75*
G02*
X171850000Y-66049000I51000J0D01*
G01*
X173450000Y-66049000D01*
G75*
G02*
X173501000Y-66100000I0J-51000D01*
G01*
X173501000Y-66900000D01*
G75*
G02*
X173450000Y-66951000I-51000J0D01*
G01*
G37*
G36*
G01*
X188150000Y-58799000D02*
X189750000Y-58799000D01*
G75*
G02*
X189801000Y-58850000I0J-51000D01*
G01*
X189801000Y-59650000D01*
G75*
G02*
X189750000Y-59701000I-51000J0D01*
G01*
X188150000Y-59701000D01*
G75*
G02*
X188099000Y-59650000I0J51000D01*
G01*
X188099000Y-58850000D01*
G75*
G02*
X188150000Y-58799000I51000J0D01*
G01*
G37*
G36*
G01*
X176450000Y-58701000D02*
X174850000Y-58701000D01*
G75*
G02*
X174799000Y-58650000I0J51000D01*
G01*
X174799000Y-57850000D01*
G75*
G02*
X174850000Y-57799000I51000J0D01*
G01*
X176450000Y-57799000D01*
G75*
G02*
X176501000Y-57850000I0J-51000D01*
G01*
X176501000Y-58650000D01*
G75*
G02*
X176450000Y-58701000I-51000J0D01*
G01*
G37*
G36*
G01*
X188150000Y-60299000D02*
X189750000Y-60299000D01*
G75*
G02*
X189801000Y-60350000I0J-51000D01*
G01*
X189801000Y-61150000D01*
G75*
G02*
X189750000Y-61201000I-51000J0D01*
G01*
X188150000Y-61201000D01*
G75*
G02*
X188099000Y-61150000I0J51000D01*
G01*
X188099000Y-60350000D01*
G75*
G02*
X188150000Y-60299000I51000J0D01*
G01*
G37*
G36*
G01*
X188150000Y-61699000D02*
X189750000Y-61699000D01*
G75*
G02*
X189801000Y-61750000I0J-51000D01*
G01*
X189801000Y-62550000D01*
G75*
G02*
X189750000Y-62601000I-51000J0D01*
G01*
X188150000Y-62601000D01*
G75*
G02*
X188099000Y-62550000I0J51000D01*
G01*
X188099000Y-61750000D01*
G75*
G02*
X188150000Y-61699000I51000J0D01*
G01*
G37*
G36*
G01*
X173450000Y-63951000D02*
X171850000Y-63951000D01*
G75*
G02*
X171799000Y-63900000I0J51000D01*
G01*
X171799000Y-63100000D01*
G75*
G02*
X171850000Y-63049000I51000J0D01*
G01*
X173450000Y-63049000D01*
G75*
G02*
X173501000Y-63100000I0J-51000D01*
G01*
X173501000Y-63900000D01*
G75*
G02*
X173450000Y-63951000I-51000J0D01*
G01*
G37*
G36*
G01*
X173450000Y-62451000D02*
X171850000Y-62451000D01*
G75*
G02*
X171799000Y-62400000I0J51000D01*
G01*
X171799000Y-61600000D01*
G75*
G02*
X171850000Y-61549000I51000J0D01*
G01*
X173450000Y-61549000D01*
G75*
G02*
X173501000Y-61600000I0J-51000D01*
G01*
X173501000Y-62400000D01*
G75*
G02*
X173450000Y-62451000I-51000J0D01*
G01*
G37*
G36*
G01*
X188100000Y-65899000D02*
X189700000Y-65899000D01*
G75*
G02*
X189751000Y-65950000I0J-51000D01*
G01*
X189751000Y-66750000D01*
G75*
G02*
X189700000Y-66801000I-51000J0D01*
G01*
X188100000Y-66801000D01*
G75*
G02*
X188049000Y-66750000I0J51000D01*
G01*
X188049000Y-65950000D01*
G75*
G02*
X188100000Y-65899000I51000J0D01*
G01*
G37*
G36*
G01*
X173450000Y-59451000D02*
X171850000Y-59451000D01*
G75*
G02*
X171799000Y-59400000I0J51000D01*
G01*
X171799000Y-58600000D01*
G75*
G02*
X171850000Y-58549000I51000J0D01*
G01*
X173450000Y-58549000D01*
G75*
G02*
X173501000Y-58600000I0J-51000D01*
G01*
X173501000Y-59400000D01*
G75*
G02*
X173450000Y-59451000I-51000J0D01*
G01*
G37*
G36*
G01*
X188150000Y-63099000D02*
X189750000Y-63099000D01*
G75*
G02*
X189801000Y-63150000I0J-51000D01*
G01*
X189801000Y-63950000D01*
G75*
G02*
X189750000Y-64001000I-51000J0D01*
G01*
X188150000Y-64001000D01*
G75*
G02*
X188099000Y-63950000I0J51000D01*
G01*
X188099000Y-63150000D01*
G75*
G02*
X188150000Y-63099000I51000J0D01*
G01*
G37*
G36*
G01*
X188100000Y-64499000D02*
X189700000Y-64499000D01*
G75*
G02*
X189751000Y-64550000I0J-51000D01*
G01*
X189751000Y-65350000D01*
G75*
G02*
X189700000Y-65401000I-51000J0D01*
G01*
X188100000Y-65401000D01*
G75*
G02*
X188049000Y-65350000I0J51000D01*
G01*
X188049000Y-64550000D01*
G75*
G02*
X188100000Y-64499000I51000J0D01*
G01*
G37*
G36*
G01*
X176450000Y-61701000D02*
X174850000Y-61701000D01*
G75*
G02*
X174799000Y-61650000I0J51000D01*
G01*
X174799000Y-60850000D01*
G75*
G02*
X174850000Y-60799000I51000J0D01*
G01*
X176450000Y-60799000D01*
G75*
G02*
X176501000Y-60850000I0J-51000D01*
G01*
X176501000Y-61650000D01*
G75*
G02*
X176450000Y-61701000I-51000J0D01*
G01*
G37*
G36*
G01*
X176450000Y-60201000D02*
X174850000Y-60201000D01*
G75*
G02*
X174799000Y-60150000I0J51000D01*
G01*
X174799000Y-59350000D01*
G75*
G02*
X174850000Y-59299000I51000J0D01*
G01*
X176450000Y-59299000D01*
G75*
G02*
X176501000Y-59350000I0J-51000D01*
G01*
X176501000Y-60150000D01*
G75*
G02*
X176450000Y-60201000I-51000J0D01*
G01*
G37*
G36*
G01*
X176450000Y-63201000D02*
X174850000Y-63201000D01*
G75*
G02*
X174799000Y-63150000I0J51000D01*
G01*
X174799000Y-62350000D01*
G75*
G02*
X174850000Y-62299000I51000J0D01*
G01*
X176450000Y-62299000D01*
G75*
G02*
X176501000Y-62350000I0J-51000D01*
G01*
X176501000Y-63150000D01*
G75*
G02*
X176450000Y-63201000I-51000J0D01*
G01*
G37*
G36*
G01*
X173450000Y-60951000D02*
X171850000Y-60951000D01*
G75*
G02*
X171799000Y-60900000I0J51000D01*
G01*
X171799000Y-60100000D01*
G75*
G02*
X171850000Y-60049000I51000J0D01*
G01*
X173450000Y-60049000D01*
G75*
G02*
X173501000Y-60100000I0J-51000D01*
G01*
X173501000Y-60900000D01*
G75*
G02*
X173450000Y-60951000I-51000J0D01*
G01*
G37*
G36*
G01*
X173450000Y-65451000D02*
X171850000Y-65451000D01*
G75*
G02*
X171799000Y-65400000I0J51000D01*
G01*
X171799000Y-64600000D01*
G75*
G02*
X171850000Y-64549000I51000J0D01*
G01*
X173450000Y-64549000D01*
G75*
G02*
X173501000Y-64600000I0J-51000D01*
G01*
X173501000Y-65400000D01*
G75*
G02*
X173450000Y-65451000I-51000J0D01*
G01*
G37*
G36*
G01*
X182849000Y-63900000D02*
X182849000Y-62600000D01*
G75*
G02*
X182900000Y-62549000I51000J0D01*
G01*
X183200000Y-62549000D01*
G75*
G02*
X183251000Y-62600000I0J-51000D01*
G01*
X183251000Y-63900000D01*
G75*
G02*
X183200000Y-63951000I-51000J0D01*
G01*
X182900000Y-63951000D01*
G75*
G02*
X182849000Y-63900000I0J51000D01*
G01*
G37*
G36*
G01*
X177349000Y-63900000D02*
X177349000Y-62600000D01*
G75*
G02*
X177400000Y-62549000I51000J0D01*
G01*
X177700000Y-62549000D01*
G75*
G02*
X177751000Y-62600000I0J-51000D01*
G01*
X177751000Y-63900000D01*
G75*
G02*
X177700000Y-63951000I-51000J0D01*
G01*
X177400000Y-63951000D01*
G75*
G02*
X177349000Y-63900000I0J51000D01*
G01*
G37*
G36*
G01*
X183849000Y-63900000D02*
X183849000Y-62600000D01*
G75*
G02*
X183900000Y-62549000I51000J0D01*
G01*
X184200000Y-62549000D01*
G75*
G02*
X184251000Y-62600000I0J-51000D01*
G01*
X184251000Y-63900000D01*
G75*
G02*
X184200000Y-63951000I-51000J0D01*
G01*
X183900000Y-63951000D01*
G75*
G02*
X183849000Y-63900000I0J51000D01*
G01*
G37*
G36*
G01*
X181349000Y-63900000D02*
X181349000Y-62600000D01*
G75*
G02*
X181400000Y-62549000I51000J0D01*
G01*
X181700000Y-62549000D01*
G75*
G02*
X181751000Y-62600000I0J-51000D01*
G01*
X181751000Y-63900000D01*
G75*
G02*
X181700000Y-63951000I-51000J0D01*
G01*
X181400000Y-63951000D01*
G75*
G02*
X181349000Y-63900000I0J51000D01*
G01*
G37*
G36*
G01*
X177849000Y-63900000D02*
X177849000Y-62600000D01*
G75*
G02*
X177900000Y-62549000I51000J0D01*
G01*
X178200000Y-62549000D01*
G75*
G02*
X178251000Y-62600000I0J-51000D01*
G01*
X178251000Y-63900000D01*
G75*
G02*
X178200000Y-63951000I-51000J0D01*
G01*
X177900000Y-63951000D01*
G75*
G02*
X177849000Y-63900000I0J51000D01*
G01*
G37*
G36*
G01*
X182349000Y-63900000D02*
X182349000Y-62600000D01*
G75*
G02*
X182400000Y-62549000I51000J0D01*
G01*
X182700000Y-62549000D01*
G75*
G02*
X182751000Y-62600000I0J-51000D01*
G01*
X182751000Y-63900000D01*
G75*
G02*
X182700000Y-63951000I-51000J0D01*
G01*
X182400000Y-63951000D01*
G75*
G02*
X182349000Y-63900000I0J51000D01*
G01*
G37*
G36*
G01*
X179349000Y-63900000D02*
X179349000Y-62600000D01*
G75*
G02*
X179400000Y-62549000I51000J0D01*
G01*
X179700000Y-62549000D01*
G75*
G02*
X179751000Y-62600000I0J-51000D01*
G01*
X179751000Y-63900000D01*
G75*
G02*
X179700000Y-63951000I-51000J0D01*
G01*
X179400000Y-63951000D01*
G75*
G02*
X179349000Y-63900000I0J51000D01*
G01*
G37*
G36*
G01*
X181849000Y-63900000D02*
X181849000Y-62600000D01*
G75*
G02*
X181900000Y-62549000I51000J0D01*
G01*
X182200000Y-62549000D01*
G75*
G02*
X182251000Y-62600000I0J-51000D01*
G01*
X182251000Y-63900000D01*
G75*
G02*
X182200000Y-63951000I-51000J0D01*
G01*
X181900000Y-63951000D01*
G75*
G02*
X181849000Y-63900000I0J51000D01*
G01*
G37*
G36*
G01*
X184999000Y-67100000D02*
X184999000Y-64100000D01*
G75*
G02*
X185050000Y-64049000I51000J0D01*
G01*
X187050000Y-64049000D01*
G75*
G02*
X187101000Y-64100000I0J-51000D01*
G01*
X187101000Y-67100000D01*
G75*
G02*
X187050000Y-67151000I-51000J0D01*
G01*
X185050000Y-67151000D01*
G75*
G02*
X184999000Y-67100000I0J51000D01*
G01*
G37*
G36*
G01*
X184349000Y-63900000D02*
X184349000Y-62600000D01*
G75*
G02*
X184400000Y-62549000I51000J0D01*
G01*
X184700000Y-62549000D01*
G75*
G02*
X184751000Y-62600000I0J-51000D01*
G01*
X184751000Y-63900000D01*
G75*
G02*
X184700000Y-63951000I-51000J0D01*
G01*
X184400000Y-63951000D01*
G75*
G02*
X184349000Y-63900000I0J51000D01*
G01*
G37*
G36*
G01*
X180349000Y-63900000D02*
X180349000Y-62600000D01*
G75*
G02*
X180400000Y-62549000I51000J0D01*
G01*
X180700000Y-62549000D01*
G75*
G02*
X180751000Y-62600000I0J-51000D01*
G01*
X180751000Y-63900000D01*
G75*
G02*
X180700000Y-63951000I-51000J0D01*
G01*
X180400000Y-63951000D01*
G75*
G02*
X180349000Y-63900000I0J51000D01*
G01*
G37*
G36*
G01*
X183349000Y-63900000D02*
X183349000Y-62600000D01*
G75*
G02*
X183400000Y-62549000I51000J0D01*
G01*
X183700000Y-62549000D01*
G75*
G02*
X183751000Y-62600000I0J-51000D01*
G01*
X183751000Y-63900000D01*
G75*
G02*
X183700000Y-63951000I-51000J0D01*
G01*
X183400000Y-63951000D01*
G75*
G02*
X183349000Y-63900000I0J51000D01*
G01*
G37*
G36*
G01*
X178349000Y-63900000D02*
X178349000Y-62600000D01*
G75*
G02*
X178400000Y-62549000I51000J0D01*
G01*
X178700000Y-62549000D01*
G75*
G02*
X178751000Y-62600000I0J-51000D01*
G01*
X178751000Y-63900000D01*
G75*
G02*
X178700000Y-63951000I-51000J0D01*
G01*
X178400000Y-63951000D01*
G75*
G02*
X178349000Y-63900000I0J51000D01*
G01*
G37*
G36*
G01*
X176849000Y-63900000D02*
X176849000Y-62600000D01*
G75*
G02*
X176900000Y-62549000I51000J0D01*
G01*
X177200000Y-62549000D01*
G75*
G02*
X177251000Y-62600000I0J-51000D01*
G01*
X177251000Y-63900000D01*
G75*
G02*
X177200000Y-63951000I-51000J0D01*
G01*
X176900000Y-63951000D01*
G75*
G02*
X176849000Y-63900000I0J51000D01*
G01*
G37*
G36*
G01*
X178849000Y-63900000D02*
X178849000Y-62600000D01*
G75*
G02*
X178900000Y-62549000I51000J0D01*
G01*
X179200000Y-62549000D01*
G75*
G02*
X179251000Y-62600000I0J-51000D01*
G01*
X179251000Y-63900000D01*
G75*
G02*
X179200000Y-63951000I-51000J0D01*
G01*
X178900000Y-63951000D01*
G75*
G02*
X178849000Y-63900000I0J51000D01*
G01*
G37*
G36*
G01*
X174499000Y-67100000D02*
X174499000Y-64100000D01*
G75*
G02*
X174550000Y-64049000I51000J0D01*
G01*
X176550000Y-64049000D01*
G75*
G02*
X176601000Y-64100000I0J-51000D01*
G01*
X176601000Y-67100000D01*
G75*
G02*
X176550000Y-67151000I-51000J0D01*
G01*
X174550000Y-67151000D01*
G75*
G02*
X174499000Y-67100000I0J51000D01*
G01*
G37*
G36*
G01*
X180849000Y-63900000D02*
X180849000Y-62600000D01*
G75*
G02*
X180900000Y-62549000I51000J0D01*
G01*
X181200000Y-62549000D01*
G75*
G02*
X181251000Y-62600000I0J-51000D01*
G01*
X181251000Y-63900000D01*
G75*
G02*
X181200000Y-63951000I-51000J0D01*
G01*
X180900000Y-63951000D01*
G75*
G02*
X180849000Y-63900000I0J51000D01*
G01*
G37*
G36*
G01*
X179849000Y-63900000D02*
X179849000Y-62600000D01*
G75*
G02*
X179900000Y-62549000I51000J0D01*
G01*
X180200000Y-62549000D01*
G75*
G02*
X180251000Y-62600000I0J-51000D01*
G01*
X180251000Y-63900000D01*
G75*
G02*
X180200000Y-63951000I-51000J0D01*
G01*
X179900000Y-63951000D01*
G75*
G02*
X179849000Y-63900000I0J51000D01*
G01*
G37*
D10*
G36*
X184350732Y-62548000D02*
G01*
X184351000Y-62549000D01*
X184351000Y-63951000D01*
X184350000Y-63952732D01*
X184349000Y-63953000D01*
X184251000Y-63953000D01*
X184249268Y-63952000D01*
X184249000Y-63951000D01*
X184249000Y-62551000D01*
X183851000Y-62551000D01*
X183851000Y-63951000D01*
X183850000Y-63952732D01*
X183849000Y-63953000D01*
X183751000Y-63953000D01*
X183749268Y-63952000D01*
X183749000Y-63951000D01*
X183749000Y-62551000D01*
X183351000Y-62551000D01*
X183351000Y-63951000D01*
X183350000Y-63952732D01*
X183349000Y-63953000D01*
X183251000Y-63953000D01*
X183249268Y-63952000D01*
X183249000Y-63951000D01*
X183249000Y-62551000D01*
X182851000Y-62551000D01*
X182851000Y-63951000D01*
X182850000Y-63952732D01*
X182849000Y-63953000D01*
X182751000Y-63953000D01*
X182749268Y-63952000D01*
X182749000Y-63951000D01*
X182749000Y-62551000D01*
X182351000Y-62551000D01*
X182351000Y-63951000D01*
X182350000Y-63952732D01*
X182349000Y-63953000D01*
X182251000Y-63953000D01*
X182249268Y-63952000D01*
X182249000Y-63951000D01*
X182249000Y-62551000D01*
X181851000Y-62551000D01*
X181851000Y-63951000D01*
X181850000Y-63952732D01*
X181849000Y-63953000D01*
X181751000Y-63953000D01*
X181749268Y-63952000D01*
X181749000Y-63951000D01*
X181749000Y-62551000D01*
X181351000Y-62551000D01*
X181351000Y-63951000D01*
X181350000Y-63952732D01*
X181349000Y-63953000D01*
X181251000Y-63953000D01*
X181249268Y-63952000D01*
X181249000Y-63951000D01*
X181249000Y-62551000D01*
X180851000Y-62551000D01*
X180851000Y-63951000D01*
X180850000Y-63952732D01*
X180849000Y-63953000D01*
X180751000Y-63953000D01*
X180749268Y-63952000D01*
X180749000Y-63951000D01*
X180749000Y-62551000D01*
X180351000Y-62551000D01*
X180351000Y-63951000D01*
X180350000Y-63952732D01*
X180349000Y-63953000D01*
X180251000Y-63953000D01*
X180249268Y-63952000D01*
X180249000Y-63951000D01*
X180249000Y-62551000D01*
X179851000Y-62551000D01*
X179851000Y-63951000D01*
X179850000Y-63952732D01*
X179849000Y-63953000D01*
X179751000Y-63953000D01*
X179749268Y-63952000D01*
X179749000Y-63951000D01*
X179749000Y-62551000D01*
X179351000Y-62551000D01*
X179351000Y-63951000D01*
X179350000Y-63952732D01*
X179349000Y-63953000D01*
X179251000Y-63953000D01*
X179249268Y-63952000D01*
X179249000Y-63951000D01*
X179249000Y-62551000D01*
X178851000Y-62551000D01*
X178851000Y-63951000D01*
X178850000Y-63952732D01*
X178849000Y-63953000D01*
X178751000Y-63953000D01*
X178749268Y-63952000D01*
X178749000Y-63951000D01*
X178749000Y-62551000D01*
X178351000Y-62551000D01*
X178351000Y-63951000D01*
X178350000Y-63952732D01*
X178349000Y-63953000D01*
X178251000Y-63953000D01*
X178249268Y-63952000D01*
X178249000Y-63951000D01*
X178249000Y-62551000D01*
X177851000Y-62551000D01*
X177851000Y-63951000D01*
X177850000Y-63952732D01*
X177849000Y-63953000D01*
X177751000Y-63953000D01*
X177749268Y-63952000D01*
X177749000Y-63951000D01*
X177749000Y-62551000D01*
X177351000Y-62551000D01*
X177351000Y-63951000D01*
X177350000Y-63952732D01*
X177349000Y-63953000D01*
X177251000Y-63953000D01*
X177249268Y-63952000D01*
X177249000Y-63951000D01*
X177249000Y-62549000D01*
X177250000Y-62547268D01*
X177251000Y-62547000D01*
X184349000Y-62547000D01*
X184350732Y-62548000D01*
G37*
M02*
