M48
; DRILL file {KiCad (5.1.8)-1} date 01/10/21 02:28:53
; FORMAT={-:-/ absolute / inch / decimal}
; #@! TF.CreationDate,2021-01-10T02:28:53-06:00
; #@! TF.GenerationSoftware,Kicad,Pcbnew,(5.1.8)-1
; #@! TF.FileFunction,Plated,1,2,PTH
FMAT,2
INCH
T1C0.0157
%
G90
G05
T1
X6.8508Y-2.5866
X6.8622Y-2.4764
X6.8626Y-2.4213
X6.8626Y-2.2821
X6.8626Y-2.3543
X6.972Y-2.5394
X6.9862Y-2.624
X7.0217Y-2.4104
X7.0217Y-2.5965
X7.0335Y-2.5453
X7.0492Y-2.3524
X7.065Y-2.5705
X7.0762Y-2.4085
X7.0965Y-2.3445
X7.1143Y-2.4058
X7.126Y-2.4409
X7.1969Y-2.622
X7.1969Y-2.4355
X7.2244Y-2.4016
X7.2244Y-2.5492
X7.2638Y-2.6102
X7.2648Y-2.3681
X7.3031Y-2.4843
X7.3228Y-2.4213
X7.3293Y-2.364
X7.3622Y-2.4567
X7.3854Y-2.5591
X7.3854Y-2.6083
T0
M30
