G04 #@! TF.GenerationSoftware,KiCad,Pcbnew,(5.1.8)-1*
G04 #@! TF.CreationDate,2021-04-06T00:09:05+02:00*
G04 #@! TF.ProjectId,GBABreakout,47424142-7265-4616-9b6f-75742e6b6963,rev?*
G04 #@! TF.SameCoordinates,Original*
G04 #@! TF.FileFunction,Legend,Top*
G04 #@! TF.FilePolarity,Positive*
%FSLAX46Y46*%
G04 Gerber Fmt 4.6, Leading zero omitted, Abs format (unit mm)*
G04 Created by KiCad (PCBNEW (5.1.8)-1) date 2021-04-06 00:09:05*
%MOMM*%
%LPD*%
G01*
G04 APERTURE LIST*
%ADD10C,0.100000*%
%ADD11C,0.150000*%
G04 APERTURE END LIST*
D10*
X171146690Y-66624523D02*
X171146690Y-66338809D01*
X171646690Y-66481666D02*
X171146690Y-66481666D01*
X171646690Y-66172142D02*
X171146690Y-66172142D01*
X171146690Y-65981666D01*
X171170500Y-65934047D01*
X171194309Y-65910238D01*
X171241928Y-65886428D01*
X171313357Y-65886428D01*
X171360976Y-65910238D01*
X171384785Y-65934047D01*
X171408595Y-65981666D01*
X171408595Y-66172142D01*
X171646690Y-65648333D02*
X171646690Y-65553095D01*
X171622880Y-65505476D01*
X171599071Y-65481666D01*
X171527642Y-65434047D01*
X171432404Y-65410238D01*
X171241928Y-65410238D01*
X171194309Y-65434047D01*
X171170500Y-65457857D01*
X171146690Y-65505476D01*
X171146690Y-65600714D01*
X171170500Y-65648333D01*
X171194309Y-65672142D01*
X171241928Y-65695952D01*
X171360976Y-65695952D01*
X171408595Y-65672142D01*
X171432404Y-65648333D01*
X171456214Y-65600714D01*
X171456214Y-65505476D01*
X171432404Y-65457857D01*
X171408595Y-65434047D01*
X171360976Y-65410238D01*
X178375476Y-64626190D02*
X178661190Y-64626190D01*
X178518333Y-65126190D02*
X178518333Y-64626190D01*
X178827857Y-65126190D02*
X178827857Y-64626190D01*
X179018333Y-64626190D01*
X179065952Y-64650000D01*
X179089761Y-64673809D01*
X179113571Y-64721428D01*
X179113571Y-64792857D01*
X179089761Y-64840476D01*
X179065952Y-64864285D01*
X179018333Y-64888095D01*
X178827857Y-64888095D01*
X179304047Y-64673809D02*
X179327857Y-64650000D01*
X179375476Y-64626190D01*
X179494523Y-64626190D01*
X179542142Y-64650000D01*
X179565952Y-64673809D01*
X179589761Y-64721428D01*
X179589761Y-64769047D01*
X179565952Y-64840476D01*
X179280238Y-65126190D01*
X179589761Y-65126190D01*
D11*
X182516666Y-62716666D02*
X182516666Y-63216666D01*
X182483333Y-63316666D01*
X182416666Y-63383333D01*
X182316666Y-63416666D01*
X182250000Y-63416666D01*
X183216666Y-63416666D02*
X182816666Y-63416666D01*
X183016666Y-63416666D02*
X183016666Y-62716666D01*
X182950000Y-62816666D01*
X182883333Y-62883333D01*
X182816666Y-62916666D01*
D10*
X190000000Y-66457857D02*
X189976190Y-66505476D01*
X189976190Y-66576904D01*
X190000000Y-66648333D01*
X190047619Y-66695952D01*
X190095238Y-66719761D01*
X190190476Y-66743571D01*
X190261904Y-66743571D01*
X190357142Y-66719761D01*
X190404761Y-66695952D01*
X190452380Y-66648333D01*
X190476190Y-66576904D01*
X190476190Y-66529285D01*
X190452380Y-66457857D01*
X190428571Y-66434047D01*
X190261904Y-66434047D01*
X190261904Y-66529285D01*
X190476190Y-66219761D02*
X189976190Y-66219761D01*
X190476190Y-65934047D01*
X189976190Y-65934047D01*
X190476190Y-65695952D02*
X189976190Y-65695952D01*
X189976190Y-65576904D01*
X190000000Y-65505476D01*
X190047619Y-65457857D01*
X190095238Y-65434047D01*
X190190476Y-65410238D01*
X190261904Y-65410238D01*
X190357142Y-65434047D01*
X190404761Y-65457857D01*
X190452380Y-65505476D01*
X190476190Y-65576904D01*
X190476190Y-65695952D01*
X184964285Y-64315952D02*
X184964285Y-64149285D01*
X185226190Y-64077857D02*
X185226190Y-64315952D01*
X184726190Y-64315952D01*
X184726190Y-64077857D01*
X184726190Y-63911190D02*
X185226190Y-63577857D01*
X184726190Y-63577857D02*
X185226190Y-63911190D01*
X185226190Y-63125476D02*
X185226190Y-63411190D01*
X185226190Y-63268333D02*
X184726190Y-63268333D01*
X184797619Y-63315952D01*
X184845238Y-63363571D01*
X184869047Y-63411190D01*
X190428571Y-60280238D02*
X190452380Y-60304047D01*
X190476190Y-60375476D01*
X190476190Y-60423095D01*
X190452380Y-60494523D01*
X190404761Y-60542142D01*
X190357142Y-60565952D01*
X190261904Y-60589761D01*
X190190476Y-60589761D01*
X190095238Y-60565952D01*
X190047619Y-60542142D01*
X190000000Y-60494523D01*
X189976190Y-60423095D01*
X189976190Y-60375476D01*
X190000000Y-60304047D01*
X190023809Y-60280238D01*
X190476190Y-60065952D02*
X189976190Y-60065952D01*
X190476190Y-59780238D02*
X190190476Y-59994523D01*
X189976190Y-59780238D02*
X190261904Y-60065952D01*
X190476190Y-59304047D02*
X190476190Y-59589761D01*
X190476190Y-59446904D02*
X189976190Y-59446904D01*
X190047619Y-59494523D01*
X190095238Y-59542142D01*
X190119047Y-59589761D01*
X171556880Y-59148333D02*
X171580690Y-59076904D01*
X171580690Y-58957857D01*
X171556880Y-58910238D01*
X171533071Y-58886428D01*
X171485452Y-58862619D01*
X171437833Y-58862619D01*
X171390214Y-58886428D01*
X171366404Y-58910238D01*
X171342595Y-58957857D01*
X171318785Y-59053095D01*
X171294976Y-59100714D01*
X171271166Y-59124523D01*
X171223547Y-59148333D01*
X171175928Y-59148333D01*
X171128309Y-59124523D01*
X171104500Y-59100714D01*
X171080690Y-59053095D01*
X171080690Y-58934047D01*
X171104500Y-58862619D01*
X171080690Y-58553095D02*
X171080690Y-58505476D01*
X171104500Y-58457857D01*
X171128309Y-58434047D01*
X171175928Y-58410238D01*
X171271166Y-58386428D01*
X171390214Y-58386428D01*
X171485452Y-58410238D01*
X171533071Y-58434047D01*
X171556880Y-58457857D01*
X171580690Y-58505476D01*
X171580690Y-58553095D01*
X171556880Y-58600714D01*
X171533071Y-58624523D01*
X171485452Y-58648333D01*
X171390214Y-58672142D01*
X171271166Y-58672142D01*
X171175928Y-58648333D01*
X171128309Y-58624523D01*
X171104500Y-58600714D01*
X171080690Y-58553095D01*
X171580690Y-57910238D02*
X171580690Y-58195952D01*
X171580690Y-58053095D02*
X171080690Y-58053095D01*
X171152119Y-58100714D01*
X171199738Y-58148333D01*
X171223547Y-58195952D01*
X190452380Y-59064761D02*
X190476190Y-58993333D01*
X190476190Y-58874285D01*
X190452380Y-58826666D01*
X190428571Y-58802857D01*
X190380952Y-58779047D01*
X190333333Y-58779047D01*
X190285714Y-58802857D01*
X190261904Y-58826666D01*
X190238095Y-58874285D01*
X190214285Y-58969523D01*
X190190476Y-59017142D01*
X190166666Y-59040952D01*
X190119047Y-59064761D01*
X190071428Y-59064761D01*
X190023809Y-59040952D01*
X190000000Y-59017142D01*
X189976190Y-58969523D01*
X189976190Y-58850476D01*
X190000000Y-58779047D01*
X189976190Y-58469523D02*
X189976190Y-58421904D01*
X190000000Y-58374285D01*
X190023809Y-58350476D01*
X190071428Y-58326666D01*
X190166666Y-58302857D01*
X190285714Y-58302857D01*
X190380952Y-58326666D01*
X190428571Y-58350476D01*
X190452380Y-58374285D01*
X190476190Y-58421904D01*
X190476190Y-58469523D01*
X190452380Y-58517142D01*
X190428571Y-58540952D01*
X190380952Y-58564761D01*
X190285714Y-58588571D01*
X190166666Y-58588571D01*
X190071428Y-58564761D01*
X190023809Y-58540952D01*
X190000000Y-58517142D01*
X189976190Y-58469523D01*
X190023809Y-58112380D02*
X190000000Y-58088571D01*
X189976190Y-58040952D01*
X189976190Y-57921904D01*
X190000000Y-57874285D01*
X190023809Y-57850476D01*
X190071428Y-57826666D01*
X190119047Y-57826666D01*
X190190476Y-57850476D01*
X190476190Y-58136190D01*
X190476190Y-57826666D01*
X179850476Y-64626190D02*
X180136190Y-64626190D01*
X179993333Y-65126190D02*
X179993333Y-64626190D01*
X180302857Y-65126190D02*
X180302857Y-64626190D01*
X180493333Y-64626190D01*
X180540952Y-64650000D01*
X180564761Y-64673809D01*
X180588571Y-64721428D01*
X180588571Y-64792857D01*
X180564761Y-64840476D01*
X180540952Y-64864285D01*
X180493333Y-64888095D01*
X180302857Y-64888095D01*
X180755238Y-64626190D02*
X181064761Y-64626190D01*
X180898095Y-64816666D01*
X180969523Y-64816666D01*
X181017142Y-64840476D01*
X181040952Y-64864285D01*
X181064761Y-64911904D01*
X181064761Y-65030952D01*
X181040952Y-65078571D01*
X181017142Y-65102380D01*
X180969523Y-65126190D01*
X180826666Y-65126190D01*
X180779047Y-65102380D01*
X180755238Y-65078571D01*
X189976190Y-62062380D02*
X189976190Y-61776666D01*
X190476190Y-61919523D02*
X189976190Y-61919523D01*
X190476190Y-61610000D02*
X189976190Y-61610000D01*
X189976190Y-61419523D01*
X190000000Y-61371904D01*
X190023809Y-61348095D01*
X190071428Y-61324285D01*
X190142857Y-61324285D01*
X190190476Y-61348095D01*
X190214285Y-61371904D01*
X190238095Y-61419523D01*
X190238095Y-61610000D01*
X190190476Y-61038571D02*
X190166666Y-61086190D01*
X190142857Y-61110000D01*
X190095238Y-61133809D01*
X190071428Y-61133809D01*
X190023809Y-61110000D01*
X190000000Y-61086190D01*
X189976190Y-61038571D01*
X189976190Y-60943333D01*
X190000000Y-60895714D01*
X190023809Y-60871904D01*
X190071428Y-60848095D01*
X190095238Y-60848095D01*
X190142857Y-60871904D01*
X190166666Y-60895714D01*
X190190476Y-60943333D01*
X190190476Y-61038571D01*
X190214285Y-61086190D01*
X190238095Y-61110000D01*
X190285714Y-61133809D01*
X190380952Y-61133809D01*
X190428571Y-61110000D01*
X190452380Y-61086190D01*
X190476190Y-61038571D01*
X190476190Y-60943333D01*
X190452380Y-60895714D01*
X190428571Y-60871904D01*
X190380952Y-60848095D01*
X190285714Y-60848095D01*
X190238095Y-60871904D01*
X190214285Y-60895714D01*
X190190476Y-60943333D01*
X189976190Y-63562380D02*
X189976190Y-63276666D01*
X190476190Y-63419523D02*
X189976190Y-63419523D01*
X190476190Y-63110000D02*
X189976190Y-63110000D01*
X189976190Y-62919523D01*
X190000000Y-62871904D01*
X190023809Y-62848095D01*
X190071428Y-62824285D01*
X190142857Y-62824285D01*
X190190476Y-62848095D01*
X190214285Y-62871904D01*
X190238095Y-62919523D01*
X190238095Y-63110000D01*
X190476190Y-62348095D02*
X190476190Y-62633809D01*
X190476190Y-62490952D02*
X189976190Y-62490952D01*
X190047619Y-62538571D01*
X190095238Y-62586190D01*
X190119047Y-62633809D01*
X189976190Y-65062380D02*
X189976190Y-64776666D01*
X190476190Y-64919523D02*
X189976190Y-64919523D01*
X190476190Y-64610000D02*
X189976190Y-64610000D01*
X189976190Y-64419523D01*
X190000000Y-64371904D01*
X190023809Y-64348095D01*
X190071428Y-64324285D01*
X190142857Y-64324285D01*
X190190476Y-64348095D01*
X190214285Y-64371904D01*
X190238095Y-64419523D01*
X190238095Y-64610000D01*
X189976190Y-64014761D02*
X189976190Y-63967142D01*
X190000000Y-63919523D01*
X190023809Y-63895714D01*
X190071428Y-63871904D01*
X190166666Y-63848095D01*
X190285714Y-63848095D01*
X190380952Y-63871904D01*
X190428571Y-63895714D01*
X190452380Y-63919523D01*
X190476190Y-63967142D01*
X190476190Y-64014761D01*
X190452380Y-64062380D01*
X190428571Y-64086190D01*
X190380952Y-64110000D01*
X190285714Y-64133809D01*
X190166666Y-64133809D01*
X190071428Y-64110000D01*
X190023809Y-64086190D01*
X190000000Y-64062380D01*
X189976190Y-64014761D01*
X171146690Y-62124523D02*
X171146690Y-61838809D01*
X171646690Y-61981666D02*
X171146690Y-61981666D01*
X171646690Y-61672142D02*
X171146690Y-61672142D01*
X171146690Y-61481666D01*
X171170500Y-61434047D01*
X171194309Y-61410238D01*
X171241928Y-61386428D01*
X171313357Y-61386428D01*
X171360976Y-61410238D01*
X171384785Y-61434047D01*
X171408595Y-61481666D01*
X171408595Y-61672142D01*
X171313357Y-60957857D02*
X171646690Y-60957857D01*
X171122880Y-61076904D02*
X171480023Y-61195952D01*
X171480023Y-60886428D01*
X171146690Y-65124523D02*
X171146690Y-64838809D01*
X171646690Y-64981666D02*
X171146690Y-64981666D01*
X171646690Y-64672142D02*
X171146690Y-64672142D01*
X171146690Y-64481666D01*
X171170500Y-64434047D01*
X171194309Y-64410238D01*
X171241928Y-64386428D01*
X171313357Y-64386428D01*
X171360976Y-64410238D01*
X171384785Y-64434047D01*
X171408595Y-64481666D01*
X171408595Y-64672142D01*
X171146690Y-63934047D02*
X171146690Y-64172142D01*
X171384785Y-64195952D01*
X171360976Y-64172142D01*
X171337166Y-64124523D01*
X171337166Y-64005476D01*
X171360976Y-63957857D01*
X171384785Y-63934047D01*
X171432404Y-63910238D01*
X171551452Y-63910238D01*
X171599071Y-63934047D01*
X171622880Y-63957857D01*
X171646690Y-64005476D01*
X171646690Y-64124523D01*
X171622880Y-64172142D01*
X171599071Y-64195952D01*
X171112690Y-60624523D02*
X171112690Y-60338809D01*
X171612690Y-60481666D02*
X171112690Y-60481666D01*
X171612690Y-60172142D02*
X171112690Y-60172142D01*
X171112690Y-59981666D01*
X171136500Y-59934047D01*
X171160309Y-59910238D01*
X171207928Y-59886428D01*
X171279357Y-59886428D01*
X171326976Y-59910238D01*
X171350785Y-59934047D01*
X171374595Y-59981666D01*
X171374595Y-60172142D01*
X171112690Y-59719761D02*
X171112690Y-59386428D01*
X171612690Y-59600714D01*
X171126190Y-63624523D02*
X171126190Y-63338809D01*
X171626190Y-63481666D02*
X171126190Y-63481666D01*
X171626190Y-63172142D02*
X171126190Y-63172142D01*
X171126190Y-62981666D01*
X171150000Y-62934047D01*
X171173809Y-62910238D01*
X171221428Y-62886428D01*
X171292857Y-62886428D01*
X171340476Y-62910238D01*
X171364285Y-62934047D01*
X171388095Y-62981666D01*
X171388095Y-63172142D01*
X171126190Y-62457857D02*
X171126190Y-62553095D01*
X171150000Y-62600714D01*
X171173809Y-62624523D01*
X171245238Y-62672142D01*
X171340476Y-62695952D01*
X171530952Y-62695952D01*
X171578571Y-62672142D01*
X171602380Y-62648333D01*
X171626190Y-62600714D01*
X171626190Y-62505476D01*
X171602380Y-62457857D01*
X171578571Y-62434047D01*
X171530952Y-62410238D01*
X171411904Y-62410238D01*
X171364285Y-62434047D01*
X171340476Y-62457857D01*
X171316666Y-62505476D01*
X171316666Y-62600714D01*
X171340476Y-62648333D01*
X171364285Y-62672142D01*
X171411904Y-62695952D01*
X184726190Y-65970952D02*
X185226190Y-65804285D01*
X184726190Y-65637619D01*
X185178571Y-65185238D02*
X185202380Y-65209047D01*
X185226190Y-65280476D01*
X185226190Y-65328095D01*
X185202380Y-65399523D01*
X185154761Y-65447142D01*
X185107142Y-65470952D01*
X185011904Y-65494761D01*
X184940476Y-65494761D01*
X184845238Y-65470952D01*
X184797619Y-65447142D01*
X184750000Y-65399523D01*
X184726190Y-65328095D01*
X184726190Y-65280476D01*
X184750000Y-65209047D01*
X184773809Y-65185238D01*
X185178571Y-64685238D02*
X185202380Y-64709047D01*
X185226190Y-64780476D01*
X185226190Y-64828095D01*
X185202380Y-64899523D01*
X185154761Y-64947142D01*
X185107142Y-64970952D01*
X185011904Y-64994761D01*
X184940476Y-64994761D01*
X184845238Y-64970952D01*
X184797619Y-64947142D01*
X184750000Y-64899523D01*
X184726190Y-64828095D01*
X184726190Y-64780476D01*
X184750000Y-64709047D01*
X184773809Y-64685238D01*
M02*
