G04 #@! TF.GenerationSoftware,KiCad,Pcbnew,(5.1.8)-1*
G04 #@! TF.CreationDate,2021-04-16T14:06:30+02:00*
G04 #@! TF.ProjectId,GBABreakout,47424142-7265-4616-9b6f-75742e6b6963,rev?*
G04 #@! TF.SameCoordinates,Original*
G04 #@! TF.FileFunction,Copper,L2,Bot*
G04 #@! TF.FilePolarity,Positive*
%FSLAX46Y46*%
G04 Gerber Fmt 4.6, Leading zero omitted, Abs format (unit mm)*
G04 Created by KiCad (PCBNEW (5.1.8)-1) date 2021-04-16 14:06:30*
%MOMM*%
%LPD*%
G01*
G04 APERTURE LIST*
G04 #@! TA.AperFunction,ViaPad*
%ADD10C,0.600000*%
G04 #@! TD*
G04 #@! TA.AperFunction,Conductor*
%ADD11C,0.200000*%
G04 #@! TD*
G04 #@! TA.AperFunction,Conductor*
%ADD12C,0.254000*%
G04 #@! TD*
G04 #@! TA.AperFunction,Conductor*
%ADD13C,0.100000*%
G04 #@! TD*
G04 APERTURE END LIST*
D10*
X189250000Y-66000000D03*
X184023000Y-59182000D03*
X186000000Y-62250000D03*
X176750000Y-63250000D03*
X174879000Y-62357000D03*
X174000000Y-65250000D03*
X174000000Y-60750000D03*
X189250000Y-60000000D03*
X180000000Y-60000000D03*
X178000000Y-60000000D03*
X184474994Y-60000000D03*
X178000000Y-63750000D03*
X186750000Y-63750000D03*
X172250000Y-58500000D03*
X178500000Y-58500000D03*
X178000000Y-65959990D03*
X184000000Y-65279509D03*
X172250000Y-60000000D03*
X183500000Y-60540000D03*
X189250000Y-58500000D03*
X179500000Y-58500000D03*
X181340096Y-66675000D03*
X172250000Y-66000000D03*
X172250000Y-64500000D03*
X183459990Y-64500000D03*
X182790000Y-65250000D03*
X175750000Y-65250000D03*
X189250000Y-61500000D03*
X180750000Y-60540000D03*
X189250000Y-63000000D03*
X181499996Y-62959994D03*
D11*
X180000000Y-60000000D02*
X178000000Y-60000000D01*
X189250000Y-60000000D02*
X184474994Y-60000000D01*
X178000000Y-63750000D02*
X186750000Y-63750000D01*
X172250000Y-58500000D02*
X178500000Y-58500000D01*
X183790010Y-65959990D02*
X184000000Y-65750000D01*
X178000000Y-65959990D02*
X183790010Y-65959990D01*
X184000000Y-65750000D02*
X184000000Y-65279509D01*
X183500000Y-59750000D02*
X183500000Y-60540000D01*
X183209999Y-59459999D02*
X183500000Y-59750000D01*
X172790001Y-59459999D02*
X183209999Y-59459999D01*
X172250000Y-60000000D02*
X172790001Y-59459999D01*
X179749990Y-58500000D02*
X179500000Y-58500000D01*
X189250000Y-58500000D02*
X179749990Y-58500000D01*
X172250000Y-66000000D02*
X172925001Y-66675001D01*
X172925001Y-66675001D02*
X180915832Y-66675000D01*
X180915832Y-66675000D02*
X181340096Y-66675000D01*
X172250000Y-64500000D02*
X183459990Y-64500000D01*
X182790000Y-65250000D02*
X175750000Y-65250000D01*
X189250000Y-61500000D02*
X181000000Y-61500000D01*
X181000000Y-61500000D02*
X180750000Y-61250000D01*
X180750000Y-61250000D02*
X180750000Y-60540000D01*
X181540002Y-63000000D02*
X181499996Y-62959994D01*
X189250000Y-63000000D02*
X181540002Y-63000000D01*
D12*
X190051148Y-57765413D02*
X190124397Y-57787528D01*
X190191961Y-57823452D01*
X190251254Y-57871811D01*
X190300027Y-57930767D01*
X190336420Y-57998074D01*
X190359045Y-58071167D01*
X190369001Y-58165886D01*
X190369000Y-66530146D01*
X190359587Y-66626148D01*
X190337471Y-66699401D01*
X190301548Y-66766961D01*
X190253190Y-66826254D01*
X190194232Y-66875027D01*
X190126924Y-66911421D01*
X190053837Y-66934045D01*
X189959123Y-66944000D01*
X181965781Y-66944000D01*
X181994925Y-66873640D01*
X182021096Y-66742073D01*
X182021096Y-66607927D01*
X181994925Y-66476360D01*
X181980274Y-66440990D01*
X183766384Y-66440990D01*
X183790010Y-66443317D01*
X183813636Y-66440990D01*
X183884302Y-66434030D01*
X183974971Y-66406526D01*
X184058532Y-66361862D01*
X184131774Y-66301754D01*
X184146840Y-66283396D01*
X184323406Y-66106830D01*
X184341764Y-66091764D01*
X184401872Y-66018522D01*
X184433158Y-65959990D01*
X184446536Y-65934962D01*
X184474040Y-65844293D01*
X184482315Y-65760273D01*
X184528967Y-65713621D01*
X184603494Y-65602083D01*
X184654829Y-65478149D01*
X184681000Y-65346582D01*
X184681000Y-65212436D01*
X184654829Y-65080869D01*
X184603494Y-64956935D01*
X184528967Y-64845397D01*
X184434112Y-64750542D01*
X184322574Y-64676015D01*
X184198640Y-64624680D01*
X184132161Y-64611456D01*
X184140990Y-64567073D01*
X184140990Y-64432927D01*
X184114819Y-64301360D01*
X184085675Y-64231000D01*
X186267921Y-64231000D01*
X186315888Y-64278967D01*
X186427426Y-64353494D01*
X186551360Y-64404829D01*
X186682927Y-64431000D01*
X186817073Y-64431000D01*
X186948640Y-64404829D01*
X187072574Y-64353494D01*
X187184112Y-64278967D01*
X187278967Y-64184112D01*
X187353494Y-64072574D01*
X187404829Y-63948640D01*
X187431000Y-63817073D01*
X187431000Y-63682927D01*
X187404829Y-63551360D01*
X187375685Y-63481000D01*
X188767921Y-63481000D01*
X188815888Y-63528967D01*
X188927426Y-63603494D01*
X189051360Y-63654829D01*
X189182927Y-63681000D01*
X189317073Y-63681000D01*
X189448640Y-63654829D01*
X189572574Y-63603494D01*
X189684112Y-63528967D01*
X189778967Y-63434112D01*
X189853494Y-63322574D01*
X189904829Y-63198640D01*
X189931000Y-63067073D01*
X189931000Y-62932927D01*
X189904829Y-62801360D01*
X189853494Y-62677426D01*
X189778967Y-62565888D01*
X189684112Y-62471033D01*
X189572574Y-62396506D01*
X189448640Y-62345171D01*
X189317073Y-62319000D01*
X189182927Y-62319000D01*
X189051360Y-62345171D01*
X188927426Y-62396506D01*
X188815888Y-62471033D01*
X188767921Y-62519000D01*
X182022081Y-62519000D01*
X181934108Y-62431027D01*
X181822570Y-62356500D01*
X181698636Y-62305165D01*
X181567069Y-62278994D01*
X181432923Y-62278994D01*
X181301356Y-62305165D01*
X181177422Y-62356500D01*
X181065884Y-62431027D01*
X180971029Y-62525882D01*
X180896502Y-62637420D01*
X180845167Y-62761354D01*
X180818996Y-62892921D01*
X180818996Y-63027067D01*
X180845167Y-63158634D01*
X180890882Y-63269000D01*
X178482079Y-63269000D01*
X178434112Y-63221033D01*
X178322574Y-63146506D01*
X178198640Y-63095171D01*
X178067073Y-63069000D01*
X177932927Y-63069000D01*
X177801360Y-63095171D01*
X177677426Y-63146506D01*
X177565888Y-63221033D01*
X177471033Y-63315888D01*
X177396506Y-63427426D01*
X177345171Y-63551360D01*
X177319000Y-63682927D01*
X177319000Y-63817073D01*
X177345171Y-63948640D01*
X177374315Y-64019000D01*
X172732079Y-64019000D01*
X172684112Y-63971033D01*
X172572574Y-63896506D01*
X172448640Y-63845171D01*
X172317073Y-63819000D01*
X172182927Y-63819000D01*
X172051360Y-63845171D01*
X171927426Y-63896506D01*
X171815888Y-63971033D01*
X171721033Y-64065888D01*
X171646506Y-64177426D01*
X171595171Y-64301360D01*
X171569000Y-64432927D01*
X171569000Y-64567073D01*
X171595171Y-64698640D01*
X171646506Y-64822574D01*
X171721033Y-64934112D01*
X171815888Y-65028967D01*
X171927426Y-65103494D01*
X172051360Y-65154829D01*
X172182927Y-65181000D01*
X172317073Y-65181000D01*
X172448640Y-65154829D01*
X172572574Y-65103494D01*
X172684112Y-65028967D01*
X172732079Y-64981000D01*
X175124315Y-64981000D01*
X175095171Y-65051360D01*
X175069000Y-65182927D01*
X175069000Y-65317073D01*
X175095171Y-65448640D01*
X175146506Y-65572574D01*
X175221033Y-65684112D01*
X175315888Y-65778967D01*
X175427426Y-65853494D01*
X175551360Y-65904829D01*
X175682927Y-65931000D01*
X175817073Y-65931000D01*
X175948640Y-65904829D01*
X176072574Y-65853494D01*
X176184112Y-65778967D01*
X176232079Y-65731000D01*
X177357742Y-65731000D01*
X177345171Y-65761350D01*
X177319000Y-65892917D01*
X177319000Y-66027063D01*
X177345171Y-66158630D01*
X177359822Y-66194001D01*
X173124238Y-66194002D01*
X172931000Y-66000764D01*
X172931000Y-65932927D01*
X172904829Y-65801360D01*
X172853494Y-65677426D01*
X172778967Y-65565888D01*
X172684112Y-65471033D01*
X172572574Y-65396506D01*
X172448640Y-65345171D01*
X172317073Y-65319000D01*
X172182927Y-65319000D01*
X172051360Y-65345171D01*
X171927426Y-65396506D01*
X171815888Y-65471033D01*
X171721033Y-65565888D01*
X171646506Y-65677426D01*
X171595171Y-65801360D01*
X171569000Y-65932927D01*
X171569000Y-66067073D01*
X171595171Y-66198640D01*
X171646506Y-66322574D01*
X171721033Y-66434112D01*
X171815888Y-66528967D01*
X171927426Y-66603494D01*
X172051360Y-66654829D01*
X172182927Y-66681000D01*
X172250764Y-66681000D01*
X172513764Y-66944000D01*
X171669854Y-66944000D01*
X171573852Y-66934587D01*
X171500599Y-66912471D01*
X171433039Y-66876548D01*
X171373746Y-66828190D01*
X171324973Y-66769232D01*
X171288579Y-66701924D01*
X171265955Y-66628837D01*
X171256000Y-66534123D01*
X171256000Y-58432927D01*
X171569000Y-58432927D01*
X171569000Y-58567073D01*
X171595171Y-58698640D01*
X171646506Y-58822574D01*
X171721033Y-58934112D01*
X171815888Y-59028967D01*
X171927426Y-59103494D01*
X172051360Y-59154829D01*
X172182927Y-59181000D01*
X172317073Y-59181000D01*
X172406565Y-59163199D01*
X172250763Y-59319000D01*
X172182927Y-59319000D01*
X172051360Y-59345171D01*
X171927426Y-59396506D01*
X171815888Y-59471033D01*
X171721033Y-59565888D01*
X171646506Y-59677426D01*
X171595171Y-59801360D01*
X171569000Y-59932927D01*
X171569000Y-60067073D01*
X171595171Y-60198640D01*
X171646506Y-60322574D01*
X171721033Y-60434112D01*
X171815888Y-60528967D01*
X171927426Y-60603494D01*
X172051360Y-60654829D01*
X172182927Y-60681000D01*
X172317073Y-60681000D01*
X172448640Y-60654829D01*
X172572574Y-60603494D01*
X172684112Y-60528967D01*
X172778967Y-60434112D01*
X172853494Y-60322574D01*
X172904829Y-60198640D01*
X172931000Y-60067073D01*
X172931000Y-59999237D01*
X172989238Y-59940999D01*
X177319000Y-59940999D01*
X177319000Y-60067073D01*
X177345171Y-60198640D01*
X177396506Y-60322574D01*
X177471033Y-60434112D01*
X177565888Y-60528967D01*
X177677426Y-60603494D01*
X177801360Y-60654829D01*
X177932927Y-60681000D01*
X178067073Y-60681000D01*
X178198640Y-60654829D01*
X178322574Y-60603494D01*
X178434112Y-60528967D01*
X178482079Y-60481000D01*
X179517921Y-60481000D01*
X179565888Y-60528967D01*
X179677426Y-60603494D01*
X179801360Y-60654829D01*
X179932927Y-60681000D01*
X180067073Y-60681000D01*
X180083072Y-60677817D01*
X180095171Y-60738640D01*
X180146506Y-60862574D01*
X180221033Y-60974112D01*
X180269000Y-61022079D01*
X180269000Y-61226373D01*
X180266673Y-61250000D01*
X180269000Y-61273625D01*
X180275960Y-61344291D01*
X180303464Y-61434960D01*
X180348128Y-61518522D01*
X180408236Y-61591764D01*
X180426594Y-61606830D01*
X180643170Y-61823406D01*
X180658236Y-61841764D01*
X180731478Y-61901872D01*
X180815039Y-61946536D01*
X180905708Y-61974040D01*
X180976374Y-61981000D01*
X180976375Y-61981000D01*
X180999999Y-61983327D01*
X181023623Y-61981000D01*
X188767921Y-61981000D01*
X188815888Y-62028967D01*
X188927426Y-62103494D01*
X189051360Y-62154829D01*
X189182927Y-62181000D01*
X189317073Y-62181000D01*
X189448640Y-62154829D01*
X189572574Y-62103494D01*
X189684112Y-62028967D01*
X189778967Y-61934112D01*
X189853494Y-61822574D01*
X189904829Y-61698640D01*
X189931000Y-61567073D01*
X189931000Y-61432927D01*
X189904829Y-61301360D01*
X189853494Y-61177426D01*
X189778967Y-61065888D01*
X189684112Y-60971033D01*
X189572574Y-60896506D01*
X189448640Y-60845171D01*
X189317073Y-60819000D01*
X189182927Y-60819000D01*
X189051360Y-60845171D01*
X188927426Y-60896506D01*
X188815888Y-60971033D01*
X188767921Y-61019000D01*
X183984079Y-61019000D01*
X184028967Y-60974112D01*
X184103494Y-60862574D01*
X184154829Y-60738640D01*
X184179482Y-60614703D01*
X184276354Y-60654829D01*
X184407921Y-60681000D01*
X184542067Y-60681000D01*
X184673634Y-60654829D01*
X184797568Y-60603494D01*
X184909106Y-60528967D01*
X184957073Y-60481000D01*
X188767921Y-60481000D01*
X188815888Y-60528967D01*
X188927426Y-60603494D01*
X189051360Y-60654829D01*
X189182927Y-60681000D01*
X189317073Y-60681000D01*
X189448640Y-60654829D01*
X189572574Y-60603494D01*
X189684112Y-60528967D01*
X189778967Y-60434112D01*
X189853494Y-60322574D01*
X189904829Y-60198640D01*
X189931000Y-60067073D01*
X189931000Y-59932927D01*
X189904829Y-59801360D01*
X189853494Y-59677426D01*
X189778967Y-59565888D01*
X189684112Y-59471033D01*
X189572574Y-59396506D01*
X189448640Y-59345171D01*
X189317073Y-59319000D01*
X189182927Y-59319000D01*
X189051360Y-59345171D01*
X188927426Y-59396506D01*
X188815888Y-59471033D01*
X188767921Y-59519000D01*
X184957073Y-59519000D01*
X184909106Y-59471033D01*
X184797568Y-59396506D01*
X184673634Y-59345171D01*
X184542067Y-59319000D01*
X184407921Y-59319000D01*
X184276354Y-59345171D01*
X184152420Y-59396506D01*
X184040882Y-59471033D01*
X183946615Y-59565300D01*
X183946536Y-59565039D01*
X183901872Y-59481478D01*
X183841764Y-59408236D01*
X183823406Y-59393170D01*
X183566829Y-59136593D01*
X183551763Y-59118235D01*
X183478521Y-59058127D01*
X183394960Y-59013463D01*
X183304291Y-58985959D01*
X183253942Y-58981000D01*
X188767921Y-58981000D01*
X188815888Y-59028967D01*
X188927426Y-59103494D01*
X189051360Y-59154829D01*
X189182927Y-59181000D01*
X189317073Y-59181000D01*
X189448640Y-59154829D01*
X189572574Y-59103494D01*
X189684112Y-59028967D01*
X189778967Y-58934112D01*
X189853494Y-58822574D01*
X189904829Y-58698640D01*
X189931000Y-58567073D01*
X189931000Y-58432927D01*
X189904829Y-58301360D01*
X189853494Y-58177426D01*
X189778967Y-58065888D01*
X189684112Y-57971033D01*
X189572574Y-57896506D01*
X189448640Y-57845171D01*
X189317073Y-57819000D01*
X189182927Y-57819000D01*
X189051360Y-57845171D01*
X188927426Y-57896506D01*
X188815888Y-57971033D01*
X188767921Y-58019000D01*
X179982079Y-58019000D01*
X179934112Y-57971033D01*
X179822574Y-57896506D01*
X179698640Y-57845171D01*
X179567073Y-57819000D01*
X179432927Y-57819000D01*
X179301360Y-57845171D01*
X179177426Y-57896506D01*
X179065888Y-57971033D01*
X179000000Y-58036921D01*
X178934112Y-57971033D01*
X178822574Y-57896506D01*
X178698640Y-57845171D01*
X178567073Y-57819000D01*
X178432927Y-57819000D01*
X178301360Y-57845171D01*
X178177426Y-57896506D01*
X178065888Y-57971033D01*
X178017921Y-58019000D01*
X172732079Y-58019000D01*
X172684112Y-57971033D01*
X172572574Y-57896506D01*
X172448640Y-57845171D01*
X172317073Y-57819000D01*
X172182927Y-57819000D01*
X172051360Y-57845171D01*
X171927426Y-57896506D01*
X171815888Y-57971033D01*
X171721033Y-58065888D01*
X171646506Y-58177426D01*
X171595171Y-58301360D01*
X171569000Y-58432927D01*
X171256000Y-58432927D01*
X171256000Y-58169854D01*
X171265413Y-58073852D01*
X171287528Y-58000603D01*
X171323452Y-57933039D01*
X171371811Y-57873746D01*
X171430767Y-57824973D01*
X171498074Y-57788580D01*
X171571167Y-57765955D01*
X171665877Y-57756000D01*
X189955146Y-57756000D01*
X190051148Y-57765413D01*
G04 #@! TA.AperFunction,Conductor*
D13*
G36*
X190051148Y-57765413D02*
G01*
X190124397Y-57787528D01*
X190191961Y-57823452D01*
X190251254Y-57871811D01*
X190300027Y-57930767D01*
X190336420Y-57998074D01*
X190359045Y-58071167D01*
X190369001Y-58165886D01*
X190369000Y-66530146D01*
X190359587Y-66626148D01*
X190337471Y-66699401D01*
X190301548Y-66766961D01*
X190253190Y-66826254D01*
X190194232Y-66875027D01*
X190126924Y-66911421D01*
X190053837Y-66934045D01*
X189959123Y-66944000D01*
X181965781Y-66944000D01*
X181994925Y-66873640D01*
X182021096Y-66742073D01*
X182021096Y-66607927D01*
X181994925Y-66476360D01*
X181980274Y-66440990D01*
X183766384Y-66440990D01*
X183790010Y-66443317D01*
X183813636Y-66440990D01*
X183884302Y-66434030D01*
X183974971Y-66406526D01*
X184058532Y-66361862D01*
X184131774Y-66301754D01*
X184146840Y-66283396D01*
X184323406Y-66106830D01*
X184341764Y-66091764D01*
X184401872Y-66018522D01*
X184433158Y-65959990D01*
X184446536Y-65934962D01*
X184474040Y-65844293D01*
X184482315Y-65760273D01*
X184528967Y-65713621D01*
X184603494Y-65602083D01*
X184654829Y-65478149D01*
X184681000Y-65346582D01*
X184681000Y-65212436D01*
X184654829Y-65080869D01*
X184603494Y-64956935D01*
X184528967Y-64845397D01*
X184434112Y-64750542D01*
X184322574Y-64676015D01*
X184198640Y-64624680D01*
X184132161Y-64611456D01*
X184140990Y-64567073D01*
X184140990Y-64432927D01*
X184114819Y-64301360D01*
X184085675Y-64231000D01*
X186267921Y-64231000D01*
X186315888Y-64278967D01*
X186427426Y-64353494D01*
X186551360Y-64404829D01*
X186682927Y-64431000D01*
X186817073Y-64431000D01*
X186948640Y-64404829D01*
X187072574Y-64353494D01*
X187184112Y-64278967D01*
X187278967Y-64184112D01*
X187353494Y-64072574D01*
X187404829Y-63948640D01*
X187431000Y-63817073D01*
X187431000Y-63682927D01*
X187404829Y-63551360D01*
X187375685Y-63481000D01*
X188767921Y-63481000D01*
X188815888Y-63528967D01*
X188927426Y-63603494D01*
X189051360Y-63654829D01*
X189182927Y-63681000D01*
X189317073Y-63681000D01*
X189448640Y-63654829D01*
X189572574Y-63603494D01*
X189684112Y-63528967D01*
X189778967Y-63434112D01*
X189853494Y-63322574D01*
X189904829Y-63198640D01*
X189931000Y-63067073D01*
X189931000Y-62932927D01*
X189904829Y-62801360D01*
X189853494Y-62677426D01*
X189778967Y-62565888D01*
X189684112Y-62471033D01*
X189572574Y-62396506D01*
X189448640Y-62345171D01*
X189317073Y-62319000D01*
X189182927Y-62319000D01*
X189051360Y-62345171D01*
X188927426Y-62396506D01*
X188815888Y-62471033D01*
X188767921Y-62519000D01*
X182022081Y-62519000D01*
X181934108Y-62431027D01*
X181822570Y-62356500D01*
X181698636Y-62305165D01*
X181567069Y-62278994D01*
X181432923Y-62278994D01*
X181301356Y-62305165D01*
X181177422Y-62356500D01*
X181065884Y-62431027D01*
X180971029Y-62525882D01*
X180896502Y-62637420D01*
X180845167Y-62761354D01*
X180818996Y-62892921D01*
X180818996Y-63027067D01*
X180845167Y-63158634D01*
X180890882Y-63269000D01*
X178482079Y-63269000D01*
X178434112Y-63221033D01*
X178322574Y-63146506D01*
X178198640Y-63095171D01*
X178067073Y-63069000D01*
X177932927Y-63069000D01*
X177801360Y-63095171D01*
X177677426Y-63146506D01*
X177565888Y-63221033D01*
X177471033Y-63315888D01*
X177396506Y-63427426D01*
X177345171Y-63551360D01*
X177319000Y-63682927D01*
X177319000Y-63817073D01*
X177345171Y-63948640D01*
X177374315Y-64019000D01*
X172732079Y-64019000D01*
X172684112Y-63971033D01*
X172572574Y-63896506D01*
X172448640Y-63845171D01*
X172317073Y-63819000D01*
X172182927Y-63819000D01*
X172051360Y-63845171D01*
X171927426Y-63896506D01*
X171815888Y-63971033D01*
X171721033Y-64065888D01*
X171646506Y-64177426D01*
X171595171Y-64301360D01*
X171569000Y-64432927D01*
X171569000Y-64567073D01*
X171595171Y-64698640D01*
X171646506Y-64822574D01*
X171721033Y-64934112D01*
X171815888Y-65028967D01*
X171927426Y-65103494D01*
X172051360Y-65154829D01*
X172182927Y-65181000D01*
X172317073Y-65181000D01*
X172448640Y-65154829D01*
X172572574Y-65103494D01*
X172684112Y-65028967D01*
X172732079Y-64981000D01*
X175124315Y-64981000D01*
X175095171Y-65051360D01*
X175069000Y-65182927D01*
X175069000Y-65317073D01*
X175095171Y-65448640D01*
X175146506Y-65572574D01*
X175221033Y-65684112D01*
X175315888Y-65778967D01*
X175427426Y-65853494D01*
X175551360Y-65904829D01*
X175682927Y-65931000D01*
X175817073Y-65931000D01*
X175948640Y-65904829D01*
X176072574Y-65853494D01*
X176184112Y-65778967D01*
X176232079Y-65731000D01*
X177357742Y-65731000D01*
X177345171Y-65761350D01*
X177319000Y-65892917D01*
X177319000Y-66027063D01*
X177345171Y-66158630D01*
X177359822Y-66194001D01*
X173124238Y-66194002D01*
X172931000Y-66000764D01*
X172931000Y-65932927D01*
X172904829Y-65801360D01*
X172853494Y-65677426D01*
X172778967Y-65565888D01*
X172684112Y-65471033D01*
X172572574Y-65396506D01*
X172448640Y-65345171D01*
X172317073Y-65319000D01*
X172182927Y-65319000D01*
X172051360Y-65345171D01*
X171927426Y-65396506D01*
X171815888Y-65471033D01*
X171721033Y-65565888D01*
X171646506Y-65677426D01*
X171595171Y-65801360D01*
X171569000Y-65932927D01*
X171569000Y-66067073D01*
X171595171Y-66198640D01*
X171646506Y-66322574D01*
X171721033Y-66434112D01*
X171815888Y-66528967D01*
X171927426Y-66603494D01*
X172051360Y-66654829D01*
X172182927Y-66681000D01*
X172250764Y-66681000D01*
X172513764Y-66944000D01*
X171669854Y-66944000D01*
X171573852Y-66934587D01*
X171500599Y-66912471D01*
X171433039Y-66876548D01*
X171373746Y-66828190D01*
X171324973Y-66769232D01*
X171288579Y-66701924D01*
X171265955Y-66628837D01*
X171256000Y-66534123D01*
X171256000Y-58432927D01*
X171569000Y-58432927D01*
X171569000Y-58567073D01*
X171595171Y-58698640D01*
X171646506Y-58822574D01*
X171721033Y-58934112D01*
X171815888Y-59028967D01*
X171927426Y-59103494D01*
X172051360Y-59154829D01*
X172182927Y-59181000D01*
X172317073Y-59181000D01*
X172406565Y-59163199D01*
X172250763Y-59319000D01*
X172182927Y-59319000D01*
X172051360Y-59345171D01*
X171927426Y-59396506D01*
X171815888Y-59471033D01*
X171721033Y-59565888D01*
X171646506Y-59677426D01*
X171595171Y-59801360D01*
X171569000Y-59932927D01*
X171569000Y-60067073D01*
X171595171Y-60198640D01*
X171646506Y-60322574D01*
X171721033Y-60434112D01*
X171815888Y-60528967D01*
X171927426Y-60603494D01*
X172051360Y-60654829D01*
X172182927Y-60681000D01*
X172317073Y-60681000D01*
X172448640Y-60654829D01*
X172572574Y-60603494D01*
X172684112Y-60528967D01*
X172778967Y-60434112D01*
X172853494Y-60322574D01*
X172904829Y-60198640D01*
X172931000Y-60067073D01*
X172931000Y-59999237D01*
X172989238Y-59940999D01*
X177319000Y-59940999D01*
X177319000Y-60067073D01*
X177345171Y-60198640D01*
X177396506Y-60322574D01*
X177471033Y-60434112D01*
X177565888Y-60528967D01*
X177677426Y-60603494D01*
X177801360Y-60654829D01*
X177932927Y-60681000D01*
X178067073Y-60681000D01*
X178198640Y-60654829D01*
X178322574Y-60603494D01*
X178434112Y-60528967D01*
X178482079Y-60481000D01*
X179517921Y-60481000D01*
X179565888Y-60528967D01*
X179677426Y-60603494D01*
X179801360Y-60654829D01*
X179932927Y-60681000D01*
X180067073Y-60681000D01*
X180083072Y-60677817D01*
X180095171Y-60738640D01*
X180146506Y-60862574D01*
X180221033Y-60974112D01*
X180269000Y-61022079D01*
X180269000Y-61226373D01*
X180266673Y-61250000D01*
X180269000Y-61273625D01*
X180275960Y-61344291D01*
X180303464Y-61434960D01*
X180348128Y-61518522D01*
X180408236Y-61591764D01*
X180426594Y-61606830D01*
X180643170Y-61823406D01*
X180658236Y-61841764D01*
X180731478Y-61901872D01*
X180815039Y-61946536D01*
X180905708Y-61974040D01*
X180976374Y-61981000D01*
X180976375Y-61981000D01*
X180999999Y-61983327D01*
X181023623Y-61981000D01*
X188767921Y-61981000D01*
X188815888Y-62028967D01*
X188927426Y-62103494D01*
X189051360Y-62154829D01*
X189182927Y-62181000D01*
X189317073Y-62181000D01*
X189448640Y-62154829D01*
X189572574Y-62103494D01*
X189684112Y-62028967D01*
X189778967Y-61934112D01*
X189853494Y-61822574D01*
X189904829Y-61698640D01*
X189931000Y-61567073D01*
X189931000Y-61432927D01*
X189904829Y-61301360D01*
X189853494Y-61177426D01*
X189778967Y-61065888D01*
X189684112Y-60971033D01*
X189572574Y-60896506D01*
X189448640Y-60845171D01*
X189317073Y-60819000D01*
X189182927Y-60819000D01*
X189051360Y-60845171D01*
X188927426Y-60896506D01*
X188815888Y-60971033D01*
X188767921Y-61019000D01*
X183984079Y-61019000D01*
X184028967Y-60974112D01*
X184103494Y-60862574D01*
X184154829Y-60738640D01*
X184179482Y-60614703D01*
X184276354Y-60654829D01*
X184407921Y-60681000D01*
X184542067Y-60681000D01*
X184673634Y-60654829D01*
X184797568Y-60603494D01*
X184909106Y-60528967D01*
X184957073Y-60481000D01*
X188767921Y-60481000D01*
X188815888Y-60528967D01*
X188927426Y-60603494D01*
X189051360Y-60654829D01*
X189182927Y-60681000D01*
X189317073Y-60681000D01*
X189448640Y-60654829D01*
X189572574Y-60603494D01*
X189684112Y-60528967D01*
X189778967Y-60434112D01*
X189853494Y-60322574D01*
X189904829Y-60198640D01*
X189931000Y-60067073D01*
X189931000Y-59932927D01*
X189904829Y-59801360D01*
X189853494Y-59677426D01*
X189778967Y-59565888D01*
X189684112Y-59471033D01*
X189572574Y-59396506D01*
X189448640Y-59345171D01*
X189317073Y-59319000D01*
X189182927Y-59319000D01*
X189051360Y-59345171D01*
X188927426Y-59396506D01*
X188815888Y-59471033D01*
X188767921Y-59519000D01*
X184957073Y-59519000D01*
X184909106Y-59471033D01*
X184797568Y-59396506D01*
X184673634Y-59345171D01*
X184542067Y-59319000D01*
X184407921Y-59319000D01*
X184276354Y-59345171D01*
X184152420Y-59396506D01*
X184040882Y-59471033D01*
X183946615Y-59565300D01*
X183946536Y-59565039D01*
X183901872Y-59481478D01*
X183841764Y-59408236D01*
X183823406Y-59393170D01*
X183566829Y-59136593D01*
X183551763Y-59118235D01*
X183478521Y-59058127D01*
X183394960Y-59013463D01*
X183304291Y-58985959D01*
X183253942Y-58981000D01*
X188767921Y-58981000D01*
X188815888Y-59028967D01*
X188927426Y-59103494D01*
X189051360Y-59154829D01*
X189182927Y-59181000D01*
X189317073Y-59181000D01*
X189448640Y-59154829D01*
X189572574Y-59103494D01*
X189684112Y-59028967D01*
X189778967Y-58934112D01*
X189853494Y-58822574D01*
X189904829Y-58698640D01*
X189931000Y-58567073D01*
X189931000Y-58432927D01*
X189904829Y-58301360D01*
X189853494Y-58177426D01*
X189778967Y-58065888D01*
X189684112Y-57971033D01*
X189572574Y-57896506D01*
X189448640Y-57845171D01*
X189317073Y-57819000D01*
X189182927Y-57819000D01*
X189051360Y-57845171D01*
X188927426Y-57896506D01*
X188815888Y-57971033D01*
X188767921Y-58019000D01*
X179982079Y-58019000D01*
X179934112Y-57971033D01*
X179822574Y-57896506D01*
X179698640Y-57845171D01*
X179567073Y-57819000D01*
X179432927Y-57819000D01*
X179301360Y-57845171D01*
X179177426Y-57896506D01*
X179065888Y-57971033D01*
X179000000Y-58036921D01*
X178934112Y-57971033D01*
X178822574Y-57896506D01*
X178698640Y-57845171D01*
X178567073Y-57819000D01*
X178432927Y-57819000D01*
X178301360Y-57845171D01*
X178177426Y-57896506D01*
X178065888Y-57971033D01*
X178017921Y-58019000D01*
X172732079Y-58019000D01*
X172684112Y-57971033D01*
X172572574Y-57896506D01*
X172448640Y-57845171D01*
X172317073Y-57819000D01*
X172182927Y-57819000D01*
X172051360Y-57845171D01*
X171927426Y-57896506D01*
X171815888Y-57971033D01*
X171721033Y-58065888D01*
X171646506Y-58177426D01*
X171595171Y-58301360D01*
X171569000Y-58432927D01*
X171256000Y-58432927D01*
X171256000Y-58169854D01*
X171265413Y-58073852D01*
X171287528Y-58000603D01*
X171323452Y-57933039D01*
X171371811Y-57873746D01*
X171430767Y-57824973D01*
X171498074Y-57788580D01*
X171571167Y-57765955D01*
X171665877Y-57756000D01*
X189955146Y-57756000D01*
X190051148Y-57765413D01*
G37*
G04 #@! TD.AperFunction*
M02*
