M48
; DRILL file {KiCad (5.1.8)-1} date 04/16/21 14:06:28
; FORMAT={-:-/ absolute / inch / decimal}
; #@! TF.CreationDate,2021-04-16T14:06:28+02:00
; #@! TF.GenerationSoftware,Kicad,Pcbnew,(5.1.8)-1
; #@! TF.FileFunction,Plated,1,2,PTH
FMAT,2
INCH
T1C0.0118
%
G90
G05
T1
X6.7815Y-2.3031
X6.7815Y-2.3622
X6.7815Y-2.5394
X6.7815Y-2.5984
X6.8504Y-2.3917
X6.8504Y-2.5689
X6.885Y-2.455
X6.9193Y-2.5689
X6.9587Y-2.4902
X7.0079Y-2.3622
X7.0079Y-2.5098
X7.0079Y-2.5968
X7.0276Y-2.3031
X7.0669Y-2.3031
X7.0866Y-2.3622
X7.1161Y-2.3835
X7.1394Y-2.625
X7.1457Y-2.4787
X7.1965Y-2.5689
X7.2228Y-2.5394
X7.2244Y-2.3835
X7.2441Y-2.5701
X7.245Y-2.33
X7.2628Y-2.3622
X7.3228Y-2.4508
X7.3524Y-2.5098
X7.4508Y-2.3031
X7.4508Y-2.3622
X7.4508Y-2.4213
X7.4508Y-2.4803
X7.4508Y-2.5984
T0
M30
