G04 #@! TF.GenerationSoftware,KiCad,Pcbnew,(5.1.8)-1*
G04 #@! TF.CreationDate,2021-04-06T00:09:05+02:00*
G04 #@! TF.ProjectId,GBABreakout,47424142-7265-4616-9b6f-75742e6b6963,rev?*
G04 #@! TF.SameCoordinates,Original*
G04 #@! TF.FileFunction,Copper,L1,Top*
G04 #@! TF.FilePolarity,Positive*
%FSLAX46Y46*%
G04 Gerber Fmt 4.6, Leading zero omitted, Abs format (unit mm)*
G04 Created by KiCad (PCBNEW (5.1.8)-1) date 2021-04-06 00:09:05*
%MOMM*%
%LPD*%
G01*
G04 APERTURE LIST*
G04 #@! TA.AperFunction,SMDPad,CuDef*
%ADD10R,1.600000X0.800000*%
G04 #@! TD*
G04 #@! TA.AperFunction,SMDPad,CuDef*
%ADD11R,0.800000X1.600000*%
G04 #@! TD*
G04 #@! TA.AperFunction,SMDPad,CuDef*
%ADD12R,0.300000X1.300000*%
G04 #@! TD*
G04 #@! TA.AperFunction,SMDPad,CuDef*
%ADD13R,2.000000X3.000000*%
G04 #@! TD*
G04 #@! TA.AperFunction,ViaPad*
%ADD14C,0.600000*%
G04 #@! TD*
G04 #@! TA.AperFunction,Conductor*
%ADD15C,0.200000*%
G04 #@! TD*
G04 #@! TA.AperFunction,Conductor*
%ADD16C,0.250000*%
G04 #@! TD*
G04 #@! TA.AperFunction,Conductor*
%ADD17C,0.254000*%
G04 #@! TD*
G04 #@! TA.AperFunction,Conductor*
%ADD18C,0.100000*%
G04 #@! TD*
G04 APERTURE END LIST*
D10*
X172650000Y-66000000D03*
D11*
X179000000Y-66150000D03*
D12*
X178500000Y-61750000D03*
X184000000Y-61750000D03*
X177500000Y-61750000D03*
X180000000Y-61750000D03*
X183500000Y-61750000D03*
X179000000Y-61750000D03*
X182000000Y-61750000D03*
X179500000Y-61750000D03*
D13*
X175500000Y-59400000D03*
D12*
X177000000Y-61750000D03*
X181000000Y-61750000D03*
X178000000Y-61750000D03*
X183000000Y-61750000D03*
X184500000Y-61750000D03*
X182500000Y-61750000D03*
D13*
X186000000Y-59400000D03*
D12*
X180500000Y-61750000D03*
X181500000Y-61750000D03*
D10*
X188850000Y-66000000D03*
X186350000Y-63750000D03*
X188850000Y-60000000D03*
X172679500Y-58500000D03*
X188850000Y-58500000D03*
D11*
X180500000Y-66150000D03*
D10*
X188850000Y-61500000D03*
X188850000Y-63000000D03*
X188850000Y-64500000D03*
X172650000Y-61500000D03*
X172650000Y-64500000D03*
X172679500Y-60000000D03*
X172650000Y-63000000D03*
X186350000Y-65250000D03*
D14*
X189250000Y-66000000D03*
X184023000Y-59182000D03*
X186000000Y-62250000D03*
X176750000Y-63250000D03*
X174879000Y-62357000D03*
X174000000Y-65250000D03*
X174000000Y-60750000D03*
X189250000Y-60000000D03*
X180000000Y-60000000D03*
X178000000Y-60000000D03*
X184474994Y-60000000D03*
X178000000Y-63750000D03*
X186750000Y-63750000D03*
X172250000Y-58500000D03*
X178500000Y-58500000D03*
X178000000Y-65959990D03*
X184000000Y-65279509D03*
X172250000Y-60000000D03*
X183500000Y-60540000D03*
X189250000Y-58500000D03*
X179500000Y-58500000D03*
X181340096Y-66675000D03*
X172250000Y-66000000D03*
X172250000Y-64500000D03*
X183459990Y-64500000D03*
X182790000Y-65250000D03*
X175750000Y-65250000D03*
X189250000Y-61500000D03*
X180750000Y-60540000D03*
X189250000Y-63000000D03*
X181499996Y-62959994D03*
D15*
X177000000Y-61750000D02*
X177000000Y-60500000D01*
X177000000Y-61750000D02*
X177000000Y-63250000D01*
X178000000Y-61750000D02*
X178000000Y-60000000D01*
X180000000Y-60000000D02*
X184474994Y-60000000D01*
X177500000Y-63250000D02*
X178000000Y-63750000D01*
X177500000Y-61750000D02*
X177500000Y-63250000D01*
X172279500Y-58500000D02*
X172250000Y-58500000D01*
X178540001Y-58540001D02*
X178540001Y-61709999D01*
X178540001Y-61709999D02*
X178500000Y-61750000D01*
X178500000Y-58500000D02*
X178540001Y-58540001D01*
X175000000Y-65959990D02*
X178000000Y-65959990D01*
X174750000Y-65709990D02*
X175000000Y-65959990D01*
X174750000Y-63250000D02*
X174750000Y-65709990D01*
X174500000Y-63000000D02*
X174750000Y-63250000D01*
X172250000Y-63000000D02*
X174500000Y-63000000D01*
X184000000Y-61750000D02*
X184000000Y-65279509D01*
X180500000Y-65250000D02*
X180500000Y-65663000D01*
X180000000Y-64750000D02*
X180500000Y-65250000D01*
X180000000Y-61750000D02*
X180000000Y-64750000D01*
X172279500Y-60000000D02*
X172250000Y-60000000D01*
X183500000Y-61750000D02*
X183500000Y-60540000D01*
X179375000Y-58500000D02*
X179500000Y-58500000D01*
X179000000Y-58875000D02*
X179375000Y-58500000D01*
X179000000Y-61750000D02*
X179000000Y-58875000D01*
X182040004Y-65290004D02*
X182040004Y-61790004D01*
X187450001Y-64609999D02*
X187450001Y-65890001D01*
X182700001Y-65950001D02*
X182040004Y-65290004D01*
X187390001Y-65950001D02*
X182700001Y-65950001D01*
X182040004Y-61790004D02*
X182000000Y-61750000D01*
X187450001Y-65890001D02*
X187390001Y-65950001D01*
X187560000Y-64500000D02*
X187450001Y-64609999D01*
X189250000Y-64500000D02*
X187560000Y-64500000D01*
X179000000Y-65250000D02*
X179000000Y-65750000D01*
X179500000Y-64750000D02*
X179000000Y-65250000D01*
X179500000Y-61750000D02*
X179500000Y-64750000D01*
X180959995Y-61790005D02*
X181000000Y-61750000D01*
X180959995Y-64881995D02*
X180959995Y-61790005D01*
X181340096Y-65262096D02*
X180959995Y-64881995D01*
X181340096Y-66675000D02*
X181340096Y-65262096D01*
X183000000Y-61750000D02*
X183000000Y-64040010D01*
X183000000Y-64040010D02*
X183459990Y-64500000D01*
D16*
X184500000Y-61750000D02*
X184500000Y-64750000D01*
X184500000Y-64750000D02*
X185000000Y-65250000D01*
X185000000Y-65250000D02*
X186750000Y-65250000D01*
D15*
X175750000Y-65250000D02*
X175750000Y-61750000D01*
X175500000Y-61500000D02*
X172250000Y-61500000D01*
X175750000Y-61750000D02*
X175500000Y-61500000D01*
X182500000Y-61750000D02*
X182500000Y-62600000D01*
X182500000Y-62600000D02*
X182659989Y-62759989D01*
X182659989Y-65119989D02*
X182790000Y-65250000D01*
X182659989Y-62759989D02*
X182659989Y-65119989D01*
X180500000Y-60790000D02*
X180500000Y-61750000D01*
X180750000Y-60540000D02*
X180500000Y-60790000D01*
X181500000Y-61750000D02*
X181500000Y-62959990D01*
X181500000Y-62959990D02*
X181499996Y-62959994D01*
D17*
X171666804Y-57781678D02*
X171608789Y-57829289D01*
X171561178Y-57887304D01*
X171525799Y-57953492D01*
X171504013Y-58025311D01*
X171496657Y-58100000D01*
X171496657Y-58900000D01*
X171504013Y-58974689D01*
X171525799Y-59046508D01*
X171561178Y-59112696D01*
X171608789Y-59170711D01*
X171666804Y-59218322D01*
X171726068Y-59250000D01*
X171666804Y-59281678D01*
X171608789Y-59329289D01*
X171561178Y-59387304D01*
X171525799Y-59453492D01*
X171504013Y-59525311D01*
X171496657Y-59600000D01*
X171496657Y-60400000D01*
X171504013Y-60474689D01*
X171525799Y-60546508D01*
X171561178Y-60612696D01*
X171608789Y-60670711D01*
X171666804Y-60718322D01*
X171713477Y-60743270D01*
X171703492Y-60746299D01*
X171637304Y-60781678D01*
X171579289Y-60829289D01*
X171531678Y-60887304D01*
X171496299Y-60953492D01*
X171474513Y-61025311D01*
X171467157Y-61100000D01*
X171467157Y-61900000D01*
X171474513Y-61974689D01*
X171496299Y-62046508D01*
X171531678Y-62112696D01*
X171579289Y-62170711D01*
X171637304Y-62218322D01*
X171696568Y-62250000D01*
X171637304Y-62281678D01*
X171579289Y-62329289D01*
X171531678Y-62387304D01*
X171496299Y-62453492D01*
X171474513Y-62525311D01*
X171467157Y-62600000D01*
X171467157Y-63400000D01*
X171474513Y-63474689D01*
X171496299Y-63546508D01*
X171531678Y-63612696D01*
X171579289Y-63670711D01*
X171637304Y-63718322D01*
X171696568Y-63750000D01*
X171637304Y-63781678D01*
X171579289Y-63829289D01*
X171531678Y-63887304D01*
X171496299Y-63953492D01*
X171474513Y-64025311D01*
X171467157Y-64100000D01*
X171467157Y-64900000D01*
X171474513Y-64974689D01*
X171496299Y-65046508D01*
X171531678Y-65112696D01*
X171579289Y-65170711D01*
X171637304Y-65218322D01*
X171696568Y-65250000D01*
X171637304Y-65281678D01*
X171579289Y-65329289D01*
X171531678Y-65387304D01*
X171496299Y-65453492D01*
X171474513Y-65525311D01*
X171467157Y-65600000D01*
X171467157Y-66400000D01*
X171474513Y-66474689D01*
X171496299Y-66546508D01*
X171531678Y-66612696D01*
X171579289Y-66670711D01*
X171637304Y-66718322D01*
X171703492Y-66753701D01*
X171775311Y-66775487D01*
X171850000Y-66782843D01*
X173450000Y-66782843D01*
X173524689Y-66775487D01*
X173596508Y-66753701D01*
X173662696Y-66718322D01*
X173720711Y-66670711D01*
X173768322Y-66612696D01*
X173803701Y-66546508D01*
X173825487Y-66474689D01*
X173832843Y-66400000D01*
X173832843Y-65600000D01*
X173825487Y-65525311D01*
X173803701Y-65453492D01*
X173768322Y-65387304D01*
X173720711Y-65329289D01*
X173662696Y-65281678D01*
X173603432Y-65250000D01*
X173662696Y-65218322D01*
X173720711Y-65170711D01*
X173768322Y-65112696D01*
X173803701Y-65046508D01*
X173825487Y-64974689D01*
X173832843Y-64900000D01*
X173832843Y-64100000D01*
X173825487Y-64025311D01*
X173803701Y-63953492D01*
X173768322Y-63887304D01*
X173720711Y-63829289D01*
X173662696Y-63781678D01*
X173603432Y-63750000D01*
X173662696Y-63718322D01*
X173720711Y-63670711D01*
X173768322Y-63612696D01*
X173803701Y-63546508D01*
X173823573Y-63481000D01*
X174269000Y-63481000D01*
X174269001Y-65686354D01*
X174266673Y-65709990D01*
X174275960Y-65804282D01*
X174294591Y-65865697D01*
X174303465Y-65894951D01*
X174348129Y-65978512D01*
X174408237Y-66051754D01*
X174426589Y-66066815D01*
X174643170Y-66283396D01*
X174658236Y-66301754D01*
X174731478Y-66361862D01*
X174815039Y-66406526D01*
X174905708Y-66434030D01*
X174976374Y-66440990D01*
X174976375Y-66440990D01*
X174999999Y-66443317D01*
X175023623Y-66440990D01*
X177517921Y-66440990D01*
X177565888Y-66488957D01*
X177677426Y-66563484D01*
X177801360Y-66614819D01*
X177932927Y-66640990D01*
X178067073Y-66640990D01*
X178198640Y-66614819D01*
X178217157Y-66607149D01*
X178217157Y-66944000D01*
X171669854Y-66944000D01*
X171573852Y-66934587D01*
X171500599Y-66912471D01*
X171433039Y-66876548D01*
X171373746Y-66828190D01*
X171324973Y-66769232D01*
X171288579Y-66701924D01*
X171265955Y-66628837D01*
X171256000Y-66534123D01*
X171256000Y-58169854D01*
X171265413Y-58073852D01*
X171287528Y-58000603D01*
X171323452Y-57933039D01*
X171371811Y-57873746D01*
X171430767Y-57824973D01*
X171498074Y-57788580D01*
X171571167Y-57765955D01*
X171665877Y-57756000D01*
X171714843Y-57756000D01*
X171666804Y-57781678D01*
G04 #@! TA.AperFunction,Conductor*
D18*
G36*
X171666804Y-57781678D02*
G01*
X171608789Y-57829289D01*
X171561178Y-57887304D01*
X171525799Y-57953492D01*
X171504013Y-58025311D01*
X171496657Y-58100000D01*
X171496657Y-58900000D01*
X171504013Y-58974689D01*
X171525799Y-59046508D01*
X171561178Y-59112696D01*
X171608789Y-59170711D01*
X171666804Y-59218322D01*
X171726068Y-59250000D01*
X171666804Y-59281678D01*
X171608789Y-59329289D01*
X171561178Y-59387304D01*
X171525799Y-59453492D01*
X171504013Y-59525311D01*
X171496657Y-59600000D01*
X171496657Y-60400000D01*
X171504013Y-60474689D01*
X171525799Y-60546508D01*
X171561178Y-60612696D01*
X171608789Y-60670711D01*
X171666804Y-60718322D01*
X171713477Y-60743270D01*
X171703492Y-60746299D01*
X171637304Y-60781678D01*
X171579289Y-60829289D01*
X171531678Y-60887304D01*
X171496299Y-60953492D01*
X171474513Y-61025311D01*
X171467157Y-61100000D01*
X171467157Y-61900000D01*
X171474513Y-61974689D01*
X171496299Y-62046508D01*
X171531678Y-62112696D01*
X171579289Y-62170711D01*
X171637304Y-62218322D01*
X171696568Y-62250000D01*
X171637304Y-62281678D01*
X171579289Y-62329289D01*
X171531678Y-62387304D01*
X171496299Y-62453492D01*
X171474513Y-62525311D01*
X171467157Y-62600000D01*
X171467157Y-63400000D01*
X171474513Y-63474689D01*
X171496299Y-63546508D01*
X171531678Y-63612696D01*
X171579289Y-63670711D01*
X171637304Y-63718322D01*
X171696568Y-63750000D01*
X171637304Y-63781678D01*
X171579289Y-63829289D01*
X171531678Y-63887304D01*
X171496299Y-63953492D01*
X171474513Y-64025311D01*
X171467157Y-64100000D01*
X171467157Y-64900000D01*
X171474513Y-64974689D01*
X171496299Y-65046508D01*
X171531678Y-65112696D01*
X171579289Y-65170711D01*
X171637304Y-65218322D01*
X171696568Y-65250000D01*
X171637304Y-65281678D01*
X171579289Y-65329289D01*
X171531678Y-65387304D01*
X171496299Y-65453492D01*
X171474513Y-65525311D01*
X171467157Y-65600000D01*
X171467157Y-66400000D01*
X171474513Y-66474689D01*
X171496299Y-66546508D01*
X171531678Y-66612696D01*
X171579289Y-66670711D01*
X171637304Y-66718322D01*
X171703492Y-66753701D01*
X171775311Y-66775487D01*
X171850000Y-66782843D01*
X173450000Y-66782843D01*
X173524689Y-66775487D01*
X173596508Y-66753701D01*
X173662696Y-66718322D01*
X173720711Y-66670711D01*
X173768322Y-66612696D01*
X173803701Y-66546508D01*
X173825487Y-66474689D01*
X173832843Y-66400000D01*
X173832843Y-65600000D01*
X173825487Y-65525311D01*
X173803701Y-65453492D01*
X173768322Y-65387304D01*
X173720711Y-65329289D01*
X173662696Y-65281678D01*
X173603432Y-65250000D01*
X173662696Y-65218322D01*
X173720711Y-65170711D01*
X173768322Y-65112696D01*
X173803701Y-65046508D01*
X173825487Y-64974689D01*
X173832843Y-64900000D01*
X173832843Y-64100000D01*
X173825487Y-64025311D01*
X173803701Y-63953492D01*
X173768322Y-63887304D01*
X173720711Y-63829289D01*
X173662696Y-63781678D01*
X173603432Y-63750000D01*
X173662696Y-63718322D01*
X173720711Y-63670711D01*
X173768322Y-63612696D01*
X173803701Y-63546508D01*
X173823573Y-63481000D01*
X174269000Y-63481000D01*
X174269001Y-65686354D01*
X174266673Y-65709990D01*
X174275960Y-65804282D01*
X174294591Y-65865697D01*
X174303465Y-65894951D01*
X174348129Y-65978512D01*
X174408237Y-66051754D01*
X174426589Y-66066815D01*
X174643170Y-66283396D01*
X174658236Y-66301754D01*
X174731478Y-66361862D01*
X174815039Y-66406526D01*
X174905708Y-66434030D01*
X174976374Y-66440990D01*
X174976375Y-66440990D01*
X174999999Y-66443317D01*
X175023623Y-66440990D01*
X177517921Y-66440990D01*
X177565888Y-66488957D01*
X177677426Y-66563484D01*
X177801360Y-66614819D01*
X177932927Y-66640990D01*
X178067073Y-66640990D01*
X178198640Y-66614819D01*
X178217157Y-66607149D01*
X178217157Y-66944000D01*
X171669854Y-66944000D01*
X171573852Y-66934587D01*
X171500599Y-66912471D01*
X171433039Y-66876548D01*
X171373746Y-66828190D01*
X171324973Y-66769232D01*
X171288579Y-66701924D01*
X171265955Y-66628837D01*
X171256000Y-66534123D01*
X171256000Y-58169854D01*
X171265413Y-58073852D01*
X171287528Y-58000603D01*
X171323452Y-57933039D01*
X171371811Y-57873746D01*
X171430767Y-57824973D01*
X171498074Y-57788580D01*
X171571167Y-57765955D01*
X171665877Y-57756000D01*
X171714843Y-57756000D01*
X171666804Y-57781678D01*
G37*
G04 #@! TD.AperFunction*
D17*
X190051148Y-57765413D02*
X190124397Y-57787528D01*
X190191961Y-57823452D01*
X190251254Y-57871811D01*
X190300027Y-57930767D01*
X190336420Y-57998074D01*
X190359045Y-58071167D01*
X190369001Y-58165886D01*
X190369000Y-66530146D01*
X190359587Y-66626148D01*
X190337471Y-66699401D01*
X190301548Y-66766961D01*
X190253190Y-66826254D01*
X190194232Y-66875027D01*
X190126924Y-66911421D01*
X190053837Y-66934045D01*
X189959123Y-66944000D01*
X181965781Y-66944000D01*
X181994925Y-66873640D01*
X182021096Y-66742073D01*
X182021096Y-66607927D01*
X181994925Y-66476360D01*
X181943590Y-66352426D01*
X181869063Y-66240888D01*
X181821096Y-66192921D01*
X181821096Y-65751332D01*
X182343175Y-66273412D01*
X182358237Y-66291765D01*
X182431479Y-66351873D01*
X182451322Y-66362479D01*
X182515039Y-66396537D01*
X182605708Y-66424041D01*
X182700001Y-66433328D01*
X182723627Y-66431001D01*
X187366375Y-66431001D01*
X187390001Y-66433328D01*
X187413627Y-66431001D01*
X187484293Y-66424041D01*
X187574962Y-66396537D01*
X187658523Y-66351873D01*
X187667581Y-66344439D01*
X187667157Y-66400000D01*
X187674513Y-66474689D01*
X187696299Y-66546508D01*
X187731678Y-66612696D01*
X187779289Y-66670711D01*
X187837304Y-66718322D01*
X187903492Y-66753701D01*
X187975311Y-66775487D01*
X188050000Y-66782843D01*
X188691250Y-66781000D01*
X188786500Y-66685750D01*
X188786500Y-66063500D01*
X188913500Y-66063500D01*
X188913500Y-66685750D01*
X189008750Y-66781000D01*
X189650000Y-66782843D01*
X189724689Y-66775487D01*
X189796508Y-66753701D01*
X189862696Y-66718322D01*
X189920711Y-66670711D01*
X189968322Y-66612696D01*
X190003701Y-66546508D01*
X190025487Y-66474689D01*
X190032843Y-66400000D01*
X190031000Y-66158750D01*
X189935750Y-66063500D01*
X188913500Y-66063500D01*
X188786500Y-66063500D01*
X188766500Y-66063500D01*
X188766500Y-65936500D01*
X188786500Y-65936500D01*
X188786500Y-65916500D01*
X188913500Y-65916500D01*
X188913500Y-65936500D01*
X189935750Y-65936500D01*
X190031000Y-65841250D01*
X190032843Y-65600000D01*
X190025487Y-65525311D01*
X190003701Y-65453492D01*
X189968322Y-65387304D01*
X189920711Y-65329289D01*
X189862696Y-65281678D01*
X189803432Y-65250000D01*
X189862696Y-65218322D01*
X189920711Y-65170711D01*
X189968322Y-65112696D01*
X190003701Y-65046508D01*
X190025487Y-64974689D01*
X190032843Y-64900000D01*
X190032843Y-64100000D01*
X190025487Y-64025311D01*
X190003701Y-63953492D01*
X189968322Y-63887304D01*
X189920711Y-63829289D01*
X189862696Y-63781678D01*
X189803432Y-63750000D01*
X189862696Y-63718322D01*
X189920711Y-63670711D01*
X189968322Y-63612696D01*
X190003701Y-63546508D01*
X190025487Y-63474689D01*
X190032843Y-63400000D01*
X190032843Y-62600000D01*
X190025487Y-62525311D01*
X190003701Y-62453492D01*
X189968322Y-62387304D01*
X189920711Y-62329289D01*
X189862696Y-62281678D01*
X189803432Y-62250000D01*
X189862696Y-62218322D01*
X189920711Y-62170711D01*
X189968322Y-62112696D01*
X190003701Y-62046508D01*
X190025487Y-61974689D01*
X190032843Y-61900000D01*
X190032843Y-61100000D01*
X190025487Y-61025311D01*
X190003701Y-60953492D01*
X189968322Y-60887304D01*
X189920711Y-60829289D01*
X189862696Y-60781678D01*
X189803432Y-60750000D01*
X189862696Y-60718322D01*
X189920711Y-60670711D01*
X189968322Y-60612696D01*
X190003701Y-60546508D01*
X190025487Y-60474689D01*
X190032843Y-60400000D01*
X190032843Y-59600000D01*
X190025487Y-59525311D01*
X190003701Y-59453492D01*
X189968322Y-59387304D01*
X189920711Y-59329289D01*
X189862696Y-59281678D01*
X189803432Y-59250000D01*
X189862696Y-59218322D01*
X189920711Y-59170711D01*
X189968322Y-59112696D01*
X190003701Y-59046508D01*
X190025487Y-58974689D01*
X190032843Y-58900000D01*
X190032843Y-58100000D01*
X190025487Y-58025311D01*
X190003701Y-57953492D01*
X189968322Y-57887304D01*
X189920711Y-57829289D01*
X189862696Y-57781678D01*
X189814657Y-57756000D01*
X189955146Y-57756000D01*
X190051148Y-57765413D01*
G04 #@! TA.AperFunction,Conductor*
D18*
G36*
X190051148Y-57765413D02*
G01*
X190124397Y-57787528D01*
X190191961Y-57823452D01*
X190251254Y-57871811D01*
X190300027Y-57930767D01*
X190336420Y-57998074D01*
X190359045Y-58071167D01*
X190369001Y-58165886D01*
X190369000Y-66530146D01*
X190359587Y-66626148D01*
X190337471Y-66699401D01*
X190301548Y-66766961D01*
X190253190Y-66826254D01*
X190194232Y-66875027D01*
X190126924Y-66911421D01*
X190053837Y-66934045D01*
X189959123Y-66944000D01*
X181965781Y-66944000D01*
X181994925Y-66873640D01*
X182021096Y-66742073D01*
X182021096Y-66607927D01*
X181994925Y-66476360D01*
X181943590Y-66352426D01*
X181869063Y-66240888D01*
X181821096Y-66192921D01*
X181821096Y-65751332D01*
X182343175Y-66273412D01*
X182358237Y-66291765D01*
X182431479Y-66351873D01*
X182451322Y-66362479D01*
X182515039Y-66396537D01*
X182605708Y-66424041D01*
X182700001Y-66433328D01*
X182723627Y-66431001D01*
X187366375Y-66431001D01*
X187390001Y-66433328D01*
X187413627Y-66431001D01*
X187484293Y-66424041D01*
X187574962Y-66396537D01*
X187658523Y-66351873D01*
X187667581Y-66344439D01*
X187667157Y-66400000D01*
X187674513Y-66474689D01*
X187696299Y-66546508D01*
X187731678Y-66612696D01*
X187779289Y-66670711D01*
X187837304Y-66718322D01*
X187903492Y-66753701D01*
X187975311Y-66775487D01*
X188050000Y-66782843D01*
X188691250Y-66781000D01*
X188786500Y-66685750D01*
X188786500Y-66063500D01*
X188913500Y-66063500D01*
X188913500Y-66685750D01*
X189008750Y-66781000D01*
X189650000Y-66782843D01*
X189724689Y-66775487D01*
X189796508Y-66753701D01*
X189862696Y-66718322D01*
X189920711Y-66670711D01*
X189968322Y-66612696D01*
X190003701Y-66546508D01*
X190025487Y-66474689D01*
X190032843Y-66400000D01*
X190031000Y-66158750D01*
X189935750Y-66063500D01*
X188913500Y-66063500D01*
X188786500Y-66063500D01*
X188766500Y-66063500D01*
X188766500Y-65936500D01*
X188786500Y-65936500D01*
X188786500Y-65916500D01*
X188913500Y-65916500D01*
X188913500Y-65936500D01*
X189935750Y-65936500D01*
X190031000Y-65841250D01*
X190032843Y-65600000D01*
X190025487Y-65525311D01*
X190003701Y-65453492D01*
X189968322Y-65387304D01*
X189920711Y-65329289D01*
X189862696Y-65281678D01*
X189803432Y-65250000D01*
X189862696Y-65218322D01*
X189920711Y-65170711D01*
X189968322Y-65112696D01*
X190003701Y-65046508D01*
X190025487Y-64974689D01*
X190032843Y-64900000D01*
X190032843Y-64100000D01*
X190025487Y-64025311D01*
X190003701Y-63953492D01*
X189968322Y-63887304D01*
X189920711Y-63829289D01*
X189862696Y-63781678D01*
X189803432Y-63750000D01*
X189862696Y-63718322D01*
X189920711Y-63670711D01*
X189968322Y-63612696D01*
X190003701Y-63546508D01*
X190025487Y-63474689D01*
X190032843Y-63400000D01*
X190032843Y-62600000D01*
X190025487Y-62525311D01*
X190003701Y-62453492D01*
X189968322Y-62387304D01*
X189920711Y-62329289D01*
X189862696Y-62281678D01*
X189803432Y-62250000D01*
X189862696Y-62218322D01*
X189920711Y-62170711D01*
X189968322Y-62112696D01*
X190003701Y-62046508D01*
X190025487Y-61974689D01*
X190032843Y-61900000D01*
X190032843Y-61100000D01*
X190025487Y-61025311D01*
X190003701Y-60953492D01*
X189968322Y-60887304D01*
X189920711Y-60829289D01*
X189862696Y-60781678D01*
X189803432Y-60750000D01*
X189862696Y-60718322D01*
X189920711Y-60670711D01*
X189968322Y-60612696D01*
X190003701Y-60546508D01*
X190025487Y-60474689D01*
X190032843Y-60400000D01*
X190032843Y-59600000D01*
X190025487Y-59525311D01*
X190003701Y-59453492D01*
X189968322Y-59387304D01*
X189920711Y-59329289D01*
X189862696Y-59281678D01*
X189803432Y-59250000D01*
X189862696Y-59218322D01*
X189920711Y-59170711D01*
X189968322Y-59112696D01*
X190003701Y-59046508D01*
X190025487Y-58974689D01*
X190032843Y-58900000D01*
X190032843Y-58100000D01*
X190025487Y-58025311D01*
X190003701Y-57953492D01*
X189968322Y-57887304D01*
X189920711Y-57829289D01*
X189862696Y-57781678D01*
X189814657Y-57756000D01*
X189955146Y-57756000D01*
X190051148Y-57765413D01*
G37*
G04 #@! TD.AperFunction*
D17*
X176469000Y-61591250D02*
X176564250Y-61686500D01*
X176967157Y-61686500D01*
X176967157Y-61813500D01*
X176564250Y-61813500D01*
X176469000Y-61908750D01*
X176467157Y-62400000D01*
X176474513Y-62474689D01*
X176496299Y-62546508D01*
X176531678Y-62612696D01*
X176579289Y-62670711D01*
X176637304Y-62718322D01*
X176703492Y-62753701D01*
X176775311Y-62775487D01*
X176850000Y-62782843D01*
X176881750Y-62781000D01*
X176977000Y-62685750D01*
X176977000Y-62482888D01*
X176996299Y-62546508D01*
X177019001Y-62588979D01*
X177019001Y-63226364D01*
X177016673Y-63250000D01*
X177025960Y-63344292D01*
X177044839Y-63406526D01*
X177053465Y-63434961D01*
X177098129Y-63518522D01*
X177158237Y-63591764D01*
X177176588Y-63606824D01*
X177319000Y-63749236D01*
X177319000Y-63817073D01*
X177345171Y-63948640D01*
X177396506Y-64072574D01*
X177471033Y-64184112D01*
X177565888Y-64278967D01*
X177677426Y-64353494D01*
X177801360Y-64404829D01*
X177932927Y-64431000D01*
X178067073Y-64431000D01*
X178198640Y-64404829D01*
X178322574Y-64353494D01*
X178434112Y-64278967D01*
X178528967Y-64184112D01*
X178603494Y-64072574D01*
X178654829Y-63948640D01*
X178681000Y-63817073D01*
X178681000Y-63682927D01*
X178654829Y-63551360D01*
X178603494Y-63427426D01*
X178528967Y-63315888D01*
X178434112Y-63221033D01*
X178322574Y-63146506D01*
X178198640Y-63095171D01*
X178067073Y-63069000D01*
X177999236Y-63069000D01*
X177981000Y-63050764D01*
X177981000Y-62782843D01*
X178150000Y-62782843D01*
X178224689Y-62775487D01*
X178250000Y-62767809D01*
X178275311Y-62775487D01*
X178350000Y-62782843D01*
X178650000Y-62782843D01*
X178724689Y-62775487D01*
X178750000Y-62767809D01*
X178775311Y-62775487D01*
X178850000Y-62782843D01*
X179019000Y-62782843D01*
X179019001Y-64550762D01*
X178676594Y-64893170D01*
X178658236Y-64908236D01*
X178609881Y-64967157D01*
X178600000Y-64967157D01*
X178525311Y-64974513D01*
X178453492Y-64996299D01*
X178387304Y-65031678D01*
X178329289Y-65079289D01*
X178281678Y-65137304D01*
X178246299Y-65203492D01*
X178224513Y-65275311D01*
X178220674Y-65314288D01*
X178198640Y-65305161D01*
X178067073Y-65278990D01*
X177932927Y-65278990D01*
X177801360Y-65305161D01*
X177677426Y-65356496D01*
X177565888Y-65431023D01*
X177517921Y-65478990D01*
X176392258Y-65478990D01*
X176404829Y-65448640D01*
X176431000Y-65317073D01*
X176431000Y-65182927D01*
X176404829Y-65051360D01*
X176353494Y-64927426D01*
X176278967Y-64815888D01*
X176231000Y-64767921D01*
X176231000Y-61773623D01*
X176233327Y-61749999D01*
X176227980Y-61695712D01*
X176224040Y-61655708D01*
X176196536Y-61565039D01*
X176151872Y-61481478D01*
X176091764Y-61408236D01*
X176073406Y-61393170D01*
X175963079Y-61282843D01*
X176467843Y-61282843D01*
X176469000Y-61591250D01*
G04 #@! TA.AperFunction,Conductor*
D18*
G36*
X176469000Y-61591250D02*
G01*
X176564250Y-61686500D01*
X176967157Y-61686500D01*
X176967157Y-61813500D01*
X176564250Y-61813500D01*
X176469000Y-61908750D01*
X176467157Y-62400000D01*
X176474513Y-62474689D01*
X176496299Y-62546508D01*
X176531678Y-62612696D01*
X176579289Y-62670711D01*
X176637304Y-62718322D01*
X176703492Y-62753701D01*
X176775311Y-62775487D01*
X176850000Y-62782843D01*
X176881750Y-62781000D01*
X176977000Y-62685750D01*
X176977000Y-62482888D01*
X176996299Y-62546508D01*
X177019001Y-62588979D01*
X177019001Y-63226364D01*
X177016673Y-63250000D01*
X177025960Y-63344292D01*
X177044839Y-63406526D01*
X177053465Y-63434961D01*
X177098129Y-63518522D01*
X177158237Y-63591764D01*
X177176588Y-63606824D01*
X177319000Y-63749236D01*
X177319000Y-63817073D01*
X177345171Y-63948640D01*
X177396506Y-64072574D01*
X177471033Y-64184112D01*
X177565888Y-64278967D01*
X177677426Y-64353494D01*
X177801360Y-64404829D01*
X177932927Y-64431000D01*
X178067073Y-64431000D01*
X178198640Y-64404829D01*
X178322574Y-64353494D01*
X178434112Y-64278967D01*
X178528967Y-64184112D01*
X178603494Y-64072574D01*
X178654829Y-63948640D01*
X178681000Y-63817073D01*
X178681000Y-63682927D01*
X178654829Y-63551360D01*
X178603494Y-63427426D01*
X178528967Y-63315888D01*
X178434112Y-63221033D01*
X178322574Y-63146506D01*
X178198640Y-63095171D01*
X178067073Y-63069000D01*
X177999236Y-63069000D01*
X177981000Y-63050764D01*
X177981000Y-62782843D01*
X178150000Y-62782843D01*
X178224689Y-62775487D01*
X178250000Y-62767809D01*
X178275311Y-62775487D01*
X178350000Y-62782843D01*
X178650000Y-62782843D01*
X178724689Y-62775487D01*
X178750000Y-62767809D01*
X178775311Y-62775487D01*
X178850000Y-62782843D01*
X179019000Y-62782843D01*
X179019001Y-64550762D01*
X178676594Y-64893170D01*
X178658236Y-64908236D01*
X178609881Y-64967157D01*
X178600000Y-64967157D01*
X178525311Y-64974513D01*
X178453492Y-64996299D01*
X178387304Y-65031678D01*
X178329289Y-65079289D01*
X178281678Y-65137304D01*
X178246299Y-65203492D01*
X178224513Y-65275311D01*
X178220674Y-65314288D01*
X178198640Y-65305161D01*
X178067073Y-65278990D01*
X177932927Y-65278990D01*
X177801360Y-65305161D01*
X177677426Y-65356496D01*
X177565888Y-65431023D01*
X177517921Y-65478990D01*
X176392258Y-65478990D01*
X176404829Y-65448640D01*
X176431000Y-65317073D01*
X176431000Y-65182927D01*
X176404829Y-65051360D01*
X176353494Y-64927426D01*
X176278967Y-64815888D01*
X176231000Y-64767921D01*
X176231000Y-61773623D01*
X176233327Y-61749999D01*
X176227980Y-61695712D01*
X176224040Y-61655708D01*
X176196536Y-61565039D01*
X176151872Y-61481478D01*
X176091764Y-61408236D01*
X176073406Y-61393170D01*
X175963079Y-61282843D01*
X176467843Y-61282843D01*
X176469000Y-61591250D01*
G37*
G04 #@! TD.AperFunction*
D17*
X175269000Y-64767921D02*
X175231000Y-64805921D01*
X175231000Y-63273623D01*
X175233327Y-63249999D01*
X175226921Y-63184961D01*
X175224040Y-63155708D01*
X175196536Y-63065039D01*
X175151872Y-62981478D01*
X175091764Y-62908236D01*
X175073406Y-62893170D01*
X174856830Y-62676594D01*
X174841764Y-62658236D01*
X174768522Y-62598128D01*
X174684961Y-62553464D01*
X174594292Y-62525960D01*
X174523626Y-62519000D01*
X174500000Y-62516673D01*
X174476374Y-62519000D01*
X173823573Y-62519000D01*
X173803701Y-62453492D01*
X173768322Y-62387304D01*
X173720711Y-62329289D01*
X173662696Y-62281678D01*
X173603432Y-62250000D01*
X173662696Y-62218322D01*
X173720711Y-62170711D01*
X173768322Y-62112696D01*
X173803701Y-62046508D01*
X173823573Y-61981000D01*
X175269001Y-61981000D01*
X175269000Y-64767921D01*
G04 #@! TA.AperFunction,Conductor*
D18*
G36*
X175269000Y-64767921D02*
G01*
X175231000Y-64805921D01*
X175231000Y-63273623D01*
X175233327Y-63249999D01*
X175226921Y-63184961D01*
X175224040Y-63155708D01*
X175196536Y-63065039D01*
X175151872Y-62981478D01*
X175091764Y-62908236D01*
X175073406Y-62893170D01*
X174856830Y-62676594D01*
X174841764Y-62658236D01*
X174768522Y-62598128D01*
X174684961Y-62553464D01*
X174594292Y-62525960D01*
X174523626Y-62519000D01*
X174500000Y-62516673D01*
X174476374Y-62519000D01*
X173823573Y-62519000D01*
X173803701Y-62453492D01*
X173768322Y-62387304D01*
X173720711Y-62329289D01*
X173662696Y-62281678D01*
X173603432Y-62250000D01*
X173662696Y-62218322D01*
X173720711Y-62170711D01*
X173768322Y-62112696D01*
X173803701Y-62046508D01*
X173823573Y-61981000D01*
X175269001Y-61981000D01*
X175269000Y-64767921D01*
G37*
G04 #@! TD.AperFunction*
D17*
X187837304Y-57781678D02*
X187779289Y-57829289D01*
X187731678Y-57887304D01*
X187696299Y-57953492D01*
X187674513Y-58025311D01*
X187667157Y-58100000D01*
X187667157Y-58900000D01*
X187674513Y-58974689D01*
X187696299Y-59046508D01*
X187731678Y-59112696D01*
X187779289Y-59170711D01*
X187837304Y-59218322D01*
X187896568Y-59250000D01*
X187837304Y-59281678D01*
X187779289Y-59329289D01*
X187731678Y-59387304D01*
X187696299Y-59453492D01*
X187674513Y-59525311D01*
X187667157Y-59600000D01*
X187667157Y-60400000D01*
X187674513Y-60474689D01*
X187696299Y-60546508D01*
X187731678Y-60612696D01*
X187779289Y-60670711D01*
X187837304Y-60718322D01*
X187896568Y-60750000D01*
X187837304Y-60781678D01*
X187779289Y-60829289D01*
X187731678Y-60887304D01*
X187696299Y-60953492D01*
X187674513Y-61025311D01*
X187667157Y-61100000D01*
X187667157Y-61900000D01*
X187674513Y-61974689D01*
X187696299Y-62046508D01*
X187731678Y-62112696D01*
X187779289Y-62170711D01*
X187837304Y-62218322D01*
X187896568Y-62250000D01*
X187837304Y-62281678D01*
X187779289Y-62329289D01*
X187731678Y-62387304D01*
X187696299Y-62453492D01*
X187674513Y-62525311D01*
X187667157Y-62600000D01*
X187667157Y-63400000D01*
X187674513Y-63474689D01*
X187696299Y-63546508D01*
X187731678Y-63612696D01*
X187779289Y-63670711D01*
X187837304Y-63718322D01*
X187896568Y-63750000D01*
X187837304Y-63781678D01*
X187779289Y-63829289D01*
X187731678Y-63887304D01*
X187696299Y-63953492D01*
X187676427Y-64019000D01*
X187583626Y-64019000D01*
X187559999Y-64016673D01*
X187532843Y-64019348D01*
X187532843Y-63350000D01*
X187525487Y-63275311D01*
X187503701Y-63203492D01*
X187468322Y-63137304D01*
X187420711Y-63079289D01*
X187362696Y-63031678D01*
X187296508Y-62996299D01*
X187224689Y-62974513D01*
X187150000Y-62967157D01*
X185550000Y-62967157D01*
X185475311Y-62974513D01*
X185403492Y-62996299D01*
X185337304Y-63031678D01*
X185279289Y-63079289D01*
X185231678Y-63137304D01*
X185196299Y-63203492D01*
X185174513Y-63275311D01*
X185167157Y-63350000D01*
X185167157Y-64150000D01*
X185174513Y-64224689D01*
X185196299Y-64296508D01*
X185231678Y-64362696D01*
X185279289Y-64420711D01*
X185337304Y-64468322D01*
X185396568Y-64500000D01*
X185337304Y-64531678D01*
X185279289Y-64579289D01*
X185231678Y-64637304D01*
X185196299Y-64703492D01*
X185189965Y-64724373D01*
X185006000Y-64540409D01*
X185006000Y-62538929D01*
X185025487Y-62474689D01*
X185032843Y-62400000D01*
X185032843Y-61282843D01*
X187000000Y-61282843D01*
X187074689Y-61275487D01*
X187146508Y-61253701D01*
X187212696Y-61218322D01*
X187270711Y-61170711D01*
X187318322Y-61112696D01*
X187353701Y-61046508D01*
X187375487Y-60974689D01*
X187382843Y-60900000D01*
X187382843Y-57900000D01*
X187375487Y-57825311D01*
X187354462Y-57756000D01*
X187885343Y-57756000D01*
X187837304Y-57781678D01*
G04 #@! TA.AperFunction,Conductor*
D18*
G36*
X187837304Y-57781678D02*
G01*
X187779289Y-57829289D01*
X187731678Y-57887304D01*
X187696299Y-57953492D01*
X187674513Y-58025311D01*
X187667157Y-58100000D01*
X187667157Y-58900000D01*
X187674513Y-58974689D01*
X187696299Y-59046508D01*
X187731678Y-59112696D01*
X187779289Y-59170711D01*
X187837304Y-59218322D01*
X187896568Y-59250000D01*
X187837304Y-59281678D01*
X187779289Y-59329289D01*
X187731678Y-59387304D01*
X187696299Y-59453492D01*
X187674513Y-59525311D01*
X187667157Y-59600000D01*
X187667157Y-60400000D01*
X187674513Y-60474689D01*
X187696299Y-60546508D01*
X187731678Y-60612696D01*
X187779289Y-60670711D01*
X187837304Y-60718322D01*
X187896568Y-60750000D01*
X187837304Y-60781678D01*
X187779289Y-60829289D01*
X187731678Y-60887304D01*
X187696299Y-60953492D01*
X187674513Y-61025311D01*
X187667157Y-61100000D01*
X187667157Y-61900000D01*
X187674513Y-61974689D01*
X187696299Y-62046508D01*
X187731678Y-62112696D01*
X187779289Y-62170711D01*
X187837304Y-62218322D01*
X187896568Y-62250000D01*
X187837304Y-62281678D01*
X187779289Y-62329289D01*
X187731678Y-62387304D01*
X187696299Y-62453492D01*
X187674513Y-62525311D01*
X187667157Y-62600000D01*
X187667157Y-63400000D01*
X187674513Y-63474689D01*
X187696299Y-63546508D01*
X187731678Y-63612696D01*
X187779289Y-63670711D01*
X187837304Y-63718322D01*
X187896568Y-63750000D01*
X187837304Y-63781678D01*
X187779289Y-63829289D01*
X187731678Y-63887304D01*
X187696299Y-63953492D01*
X187676427Y-64019000D01*
X187583626Y-64019000D01*
X187559999Y-64016673D01*
X187532843Y-64019348D01*
X187532843Y-63350000D01*
X187525487Y-63275311D01*
X187503701Y-63203492D01*
X187468322Y-63137304D01*
X187420711Y-63079289D01*
X187362696Y-63031678D01*
X187296508Y-62996299D01*
X187224689Y-62974513D01*
X187150000Y-62967157D01*
X185550000Y-62967157D01*
X185475311Y-62974513D01*
X185403492Y-62996299D01*
X185337304Y-63031678D01*
X185279289Y-63079289D01*
X185231678Y-63137304D01*
X185196299Y-63203492D01*
X185174513Y-63275311D01*
X185167157Y-63350000D01*
X185167157Y-64150000D01*
X185174513Y-64224689D01*
X185196299Y-64296508D01*
X185231678Y-64362696D01*
X185279289Y-64420711D01*
X185337304Y-64468322D01*
X185396568Y-64500000D01*
X185337304Y-64531678D01*
X185279289Y-64579289D01*
X185231678Y-64637304D01*
X185196299Y-64703492D01*
X185189965Y-64724373D01*
X185006000Y-64540409D01*
X185006000Y-62538929D01*
X185025487Y-62474689D01*
X185032843Y-62400000D01*
X185032843Y-61282843D01*
X187000000Y-61282843D01*
X187074689Y-61275487D01*
X187146508Y-61253701D01*
X187212696Y-61218322D01*
X187270711Y-61170711D01*
X187318322Y-61112696D01*
X187353701Y-61046508D01*
X187375487Y-60974689D01*
X187382843Y-60900000D01*
X187382843Y-57900000D01*
X187375487Y-57825311D01*
X187354462Y-57756000D01*
X187885343Y-57756000D01*
X187837304Y-57781678D01*
G37*
G04 #@! TD.AperFunction*
D17*
X174124513Y-57825311D02*
X174117157Y-57900000D01*
X174117157Y-60900000D01*
X174124513Y-60974689D01*
X174137955Y-61019000D01*
X173823573Y-61019000D01*
X173803701Y-60953492D01*
X173768322Y-60887304D01*
X173720711Y-60829289D01*
X173662696Y-60781678D01*
X173616023Y-60756730D01*
X173626008Y-60753701D01*
X173692196Y-60718322D01*
X173750211Y-60670711D01*
X173797822Y-60612696D01*
X173833201Y-60546508D01*
X173854987Y-60474689D01*
X173862343Y-60400000D01*
X173862343Y-59600000D01*
X173854987Y-59525311D01*
X173833201Y-59453492D01*
X173797822Y-59387304D01*
X173750211Y-59329289D01*
X173692196Y-59281678D01*
X173632932Y-59250000D01*
X173692196Y-59218322D01*
X173750211Y-59170711D01*
X173797822Y-59112696D01*
X173833201Y-59046508D01*
X173854987Y-58974689D01*
X173862343Y-58900000D01*
X173862343Y-58100000D01*
X173854987Y-58025311D01*
X173833201Y-57953492D01*
X173797822Y-57887304D01*
X173750211Y-57829289D01*
X173692196Y-57781678D01*
X173644157Y-57756000D01*
X174145538Y-57756000D01*
X174124513Y-57825311D01*
G04 #@! TA.AperFunction,Conductor*
D18*
G36*
X174124513Y-57825311D02*
G01*
X174117157Y-57900000D01*
X174117157Y-60900000D01*
X174124513Y-60974689D01*
X174137955Y-61019000D01*
X173823573Y-61019000D01*
X173803701Y-60953492D01*
X173768322Y-60887304D01*
X173720711Y-60829289D01*
X173662696Y-60781678D01*
X173616023Y-60756730D01*
X173626008Y-60753701D01*
X173692196Y-60718322D01*
X173750211Y-60670711D01*
X173797822Y-60612696D01*
X173833201Y-60546508D01*
X173854987Y-60474689D01*
X173862343Y-60400000D01*
X173862343Y-59600000D01*
X173854987Y-59525311D01*
X173833201Y-59453492D01*
X173797822Y-59387304D01*
X173750211Y-59329289D01*
X173692196Y-59281678D01*
X173632932Y-59250000D01*
X173692196Y-59218322D01*
X173750211Y-59170711D01*
X173797822Y-59112696D01*
X173833201Y-59046508D01*
X173854987Y-58974689D01*
X173862343Y-58900000D01*
X173862343Y-58100000D01*
X173854987Y-58025311D01*
X173833201Y-57953492D01*
X173797822Y-57887304D01*
X173750211Y-57829289D01*
X173692196Y-57781678D01*
X173644157Y-57756000D01*
X174145538Y-57756000D01*
X174124513Y-57825311D01*
G37*
G04 #@! TD.AperFunction*
D17*
X184624513Y-57825311D02*
X184617157Y-57900000D01*
X184617157Y-59333937D01*
X184542067Y-59319000D01*
X184407921Y-59319000D01*
X184276354Y-59345171D01*
X184152420Y-59396506D01*
X184040882Y-59471033D01*
X183992915Y-59519000D01*
X180482079Y-59519000D01*
X180434112Y-59471033D01*
X180322574Y-59396506D01*
X180198640Y-59345171D01*
X180067073Y-59319000D01*
X179932927Y-59319000D01*
X179801360Y-59345171D01*
X179677426Y-59396506D01*
X179565888Y-59471033D01*
X179481000Y-59555921D01*
X179481000Y-59181000D01*
X179567073Y-59181000D01*
X179698640Y-59154829D01*
X179822574Y-59103494D01*
X179934112Y-59028967D01*
X180028967Y-58934112D01*
X180103494Y-58822574D01*
X180154829Y-58698640D01*
X180181000Y-58567073D01*
X180181000Y-58432927D01*
X180154829Y-58301360D01*
X180103494Y-58177426D01*
X180028967Y-58065888D01*
X179934112Y-57971033D01*
X179822574Y-57896506D01*
X179698640Y-57845171D01*
X179567073Y-57819000D01*
X179432927Y-57819000D01*
X179301360Y-57845171D01*
X179177426Y-57896506D01*
X179065888Y-57971033D01*
X179000000Y-58036921D01*
X178934112Y-57971033D01*
X178822574Y-57896506D01*
X178698640Y-57845171D01*
X178567073Y-57819000D01*
X178432927Y-57819000D01*
X178301360Y-57845171D01*
X178177426Y-57896506D01*
X178065888Y-57971033D01*
X177971033Y-58065888D01*
X177896506Y-58177426D01*
X177845171Y-58301360D01*
X177819000Y-58432927D01*
X177819000Y-58567073D01*
X177845171Y-58698640D01*
X177896506Y-58822574D01*
X177971033Y-58934112D01*
X178059001Y-59022080D01*
X178059001Y-59319000D01*
X177932927Y-59319000D01*
X177801360Y-59345171D01*
X177677426Y-59396506D01*
X177565888Y-59471033D01*
X177471033Y-59565888D01*
X177396506Y-59677426D01*
X177345171Y-59801360D01*
X177319000Y-59932927D01*
X177319000Y-60067073D01*
X177345171Y-60198640D01*
X177396506Y-60322574D01*
X177471033Y-60434112D01*
X177519001Y-60482080D01*
X177519001Y-60717157D01*
X177350000Y-60717157D01*
X177275311Y-60724513D01*
X177250000Y-60732191D01*
X177224689Y-60724513D01*
X177150000Y-60717157D01*
X177118250Y-60719000D01*
X177023000Y-60814250D01*
X177023000Y-60903539D01*
X176996299Y-60953492D01*
X176977000Y-61017112D01*
X176977000Y-60814250D01*
X176882843Y-60720093D01*
X176882843Y-57900000D01*
X176875487Y-57825311D01*
X176854462Y-57756000D01*
X184645538Y-57756000D01*
X184624513Y-57825311D01*
G04 #@! TA.AperFunction,Conductor*
D18*
G36*
X184624513Y-57825311D02*
G01*
X184617157Y-57900000D01*
X184617157Y-59333937D01*
X184542067Y-59319000D01*
X184407921Y-59319000D01*
X184276354Y-59345171D01*
X184152420Y-59396506D01*
X184040882Y-59471033D01*
X183992915Y-59519000D01*
X180482079Y-59519000D01*
X180434112Y-59471033D01*
X180322574Y-59396506D01*
X180198640Y-59345171D01*
X180067073Y-59319000D01*
X179932927Y-59319000D01*
X179801360Y-59345171D01*
X179677426Y-59396506D01*
X179565888Y-59471033D01*
X179481000Y-59555921D01*
X179481000Y-59181000D01*
X179567073Y-59181000D01*
X179698640Y-59154829D01*
X179822574Y-59103494D01*
X179934112Y-59028967D01*
X180028967Y-58934112D01*
X180103494Y-58822574D01*
X180154829Y-58698640D01*
X180181000Y-58567073D01*
X180181000Y-58432927D01*
X180154829Y-58301360D01*
X180103494Y-58177426D01*
X180028967Y-58065888D01*
X179934112Y-57971033D01*
X179822574Y-57896506D01*
X179698640Y-57845171D01*
X179567073Y-57819000D01*
X179432927Y-57819000D01*
X179301360Y-57845171D01*
X179177426Y-57896506D01*
X179065888Y-57971033D01*
X179000000Y-58036921D01*
X178934112Y-57971033D01*
X178822574Y-57896506D01*
X178698640Y-57845171D01*
X178567073Y-57819000D01*
X178432927Y-57819000D01*
X178301360Y-57845171D01*
X178177426Y-57896506D01*
X178065888Y-57971033D01*
X177971033Y-58065888D01*
X177896506Y-58177426D01*
X177845171Y-58301360D01*
X177819000Y-58432927D01*
X177819000Y-58567073D01*
X177845171Y-58698640D01*
X177896506Y-58822574D01*
X177971033Y-58934112D01*
X178059001Y-59022080D01*
X178059001Y-59319000D01*
X177932927Y-59319000D01*
X177801360Y-59345171D01*
X177677426Y-59396506D01*
X177565888Y-59471033D01*
X177471033Y-59565888D01*
X177396506Y-59677426D01*
X177345171Y-59801360D01*
X177319000Y-59932927D01*
X177319000Y-60067073D01*
X177345171Y-60198640D01*
X177396506Y-60322574D01*
X177471033Y-60434112D01*
X177519001Y-60482080D01*
X177519001Y-60717157D01*
X177350000Y-60717157D01*
X177275311Y-60724513D01*
X177250000Y-60732191D01*
X177224689Y-60724513D01*
X177150000Y-60717157D01*
X177118250Y-60719000D01*
X177023000Y-60814250D01*
X177023000Y-60903539D01*
X176996299Y-60953492D01*
X176977000Y-61017112D01*
X176977000Y-60814250D01*
X176882843Y-60720093D01*
X176882843Y-57900000D01*
X176875487Y-57825311D01*
X176854462Y-57756000D01*
X184645538Y-57756000D01*
X184624513Y-57825311D01*
G37*
G04 #@! TD.AperFunction*
M02*
