G04 #@! TF.GenerationSoftware,KiCad,Pcbnew,(5.1.8)-1*
G04 #@! TF.CreationDate,2021-04-16T14:06:30+02:00*
G04 #@! TF.ProjectId,GBABreakout,47424142-7265-4616-9b6f-75742e6b6963,rev?*
G04 #@! TF.SameCoordinates,Original*
G04 #@! TF.FileFunction,Soldermask,Top*
G04 #@! TF.FilePolarity,Negative*
%FSLAX46Y46*%
G04 Gerber Fmt 4.6, Leading zero omitted, Abs format (unit mm)*
G04 Created by KiCad (PCBNEW (5.1.8)-1) date 2021-04-16 14:06:30*
%MOMM*%
%LPD*%
G01*
G04 APERTURE LIST*
%ADD10C,0.100000*%
G04 APERTURE END LIST*
G36*
G01*
X173450000Y-66451000D02*
X171850000Y-66451000D01*
G75*
G02*
X171799000Y-66400000I0J51000D01*
G01*
X171799000Y-65600000D01*
G75*
G02*
X171850000Y-65549000I51000J0D01*
G01*
X173450000Y-65549000D01*
G75*
G02*
X173501000Y-65600000I0J-51000D01*
G01*
X173501000Y-66400000D01*
G75*
G02*
X173450000Y-66451000I-51000J0D01*
G01*
G37*
G36*
G01*
X178549000Y-66950000D02*
X178549000Y-65350000D01*
G75*
G02*
X178600000Y-65299000I51000J0D01*
G01*
X179400000Y-65299000D01*
G75*
G02*
X179451000Y-65350000I0J-51000D01*
G01*
X179451000Y-66950000D01*
G75*
G02*
X179400000Y-67001000I-51000J0D01*
G01*
X178600000Y-67001000D01*
G75*
G02*
X178549000Y-66950000I0J51000D01*
G01*
G37*
G36*
G01*
X178701000Y-61100000D02*
X178701000Y-62400000D01*
G75*
G02*
X178650000Y-62451000I-51000J0D01*
G01*
X178350000Y-62451000D01*
G75*
G02*
X178299000Y-62400000I0J51000D01*
G01*
X178299000Y-61100000D01*
G75*
G02*
X178350000Y-61049000I51000J0D01*
G01*
X178650000Y-61049000D01*
G75*
G02*
X178701000Y-61100000I0J-51000D01*
G01*
G37*
G36*
G01*
X184201000Y-61100000D02*
X184201000Y-62400000D01*
G75*
G02*
X184150000Y-62451000I-51000J0D01*
G01*
X183850000Y-62451000D01*
G75*
G02*
X183799000Y-62400000I0J51000D01*
G01*
X183799000Y-61100000D01*
G75*
G02*
X183850000Y-61049000I51000J0D01*
G01*
X184150000Y-61049000D01*
G75*
G02*
X184201000Y-61100000I0J-51000D01*
G01*
G37*
G36*
G01*
X177701000Y-61100000D02*
X177701000Y-62400000D01*
G75*
G02*
X177650000Y-62451000I-51000J0D01*
G01*
X177350000Y-62451000D01*
G75*
G02*
X177299000Y-62400000I0J51000D01*
G01*
X177299000Y-61100000D01*
G75*
G02*
X177350000Y-61049000I51000J0D01*
G01*
X177650000Y-61049000D01*
G75*
G02*
X177701000Y-61100000I0J-51000D01*
G01*
G37*
G36*
G01*
X180201000Y-61100000D02*
X180201000Y-62400000D01*
G75*
G02*
X180150000Y-62451000I-51000J0D01*
G01*
X179850000Y-62451000D01*
G75*
G02*
X179799000Y-62400000I0J51000D01*
G01*
X179799000Y-61100000D01*
G75*
G02*
X179850000Y-61049000I51000J0D01*
G01*
X180150000Y-61049000D01*
G75*
G02*
X180201000Y-61100000I0J-51000D01*
G01*
G37*
G36*
G01*
X183701000Y-61100000D02*
X183701000Y-62400000D01*
G75*
G02*
X183650000Y-62451000I-51000J0D01*
G01*
X183350000Y-62451000D01*
G75*
G02*
X183299000Y-62400000I0J51000D01*
G01*
X183299000Y-61100000D01*
G75*
G02*
X183350000Y-61049000I51000J0D01*
G01*
X183650000Y-61049000D01*
G75*
G02*
X183701000Y-61100000I0J-51000D01*
G01*
G37*
G36*
G01*
X179201000Y-61100000D02*
X179201000Y-62400000D01*
G75*
G02*
X179150000Y-62451000I-51000J0D01*
G01*
X178850000Y-62451000D01*
G75*
G02*
X178799000Y-62400000I0J51000D01*
G01*
X178799000Y-61100000D01*
G75*
G02*
X178850000Y-61049000I51000J0D01*
G01*
X179150000Y-61049000D01*
G75*
G02*
X179201000Y-61100000I0J-51000D01*
G01*
G37*
G36*
G01*
X182201000Y-61100000D02*
X182201000Y-62400000D01*
G75*
G02*
X182150000Y-62451000I-51000J0D01*
G01*
X181850000Y-62451000D01*
G75*
G02*
X181799000Y-62400000I0J51000D01*
G01*
X181799000Y-61100000D01*
G75*
G02*
X181850000Y-61049000I51000J0D01*
G01*
X182150000Y-61049000D01*
G75*
G02*
X182201000Y-61100000I0J-51000D01*
G01*
G37*
G36*
G01*
X179701000Y-61100000D02*
X179701000Y-62400000D01*
G75*
G02*
X179650000Y-62451000I-51000J0D01*
G01*
X179350000Y-62451000D01*
G75*
G02*
X179299000Y-62400000I0J51000D01*
G01*
X179299000Y-61100000D01*
G75*
G02*
X179350000Y-61049000I51000J0D01*
G01*
X179650000Y-61049000D01*
G75*
G02*
X179701000Y-61100000I0J-51000D01*
G01*
G37*
G36*
G01*
X176551000Y-57900000D02*
X176551000Y-60900000D01*
G75*
G02*
X176500000Y-60951000I-51000J0D01*
G01*
X174500000Y-60951000D01*
G75*
G02*
X174449000Y-60900000I0J51000D01*
G01*
X174449000Y-57900000D01*
G75*
G02*
X174500000Y-57849000I51000J0D01*
G01*
X176500000Y-57849000D01*
G75*
G02*
X176551000Y-57900000I0J-51000D01*
G01*
G37*
G36*
G01*
X177201000Y-61100000D02*
X177201000Y-62400000D01*
G75*
G02*
X177150000Y-62451000I-51000J0D01*
G01*
X176850000Y-62451000D01*
G75*
G02*
X176799000Y-62400000I0J51000D01*
G01*
X176799000Y-61100000D01*
G75*
G02*
X176850000Y-61049000I51000J0D01*
G01*
X177150000Y-61049000D01*
G75*
G02*
X177201000Y-61100000I0J-51000D01*
G01*
G37*
G36*
G01*
X181201000Y-61100000D02*
X181201000Y-62400000D01*
G75*
G02*
X181150000Y-62451000I-51000J0D01*
G01*
X180850000Y-62451000D01*
G75*
G02*
X180799000Y-62400000I0J51000D01*
G01*
X180799000Y-61100000D01*
G75*
G02*
X180850000Y-61049000I51000J0D01*
G01*
X181150000Y-61049000D01*
G75*
G02*
X181201000Y-61100000I0J-51000D01*
G01*
G37*
G36*
G01*
X178201000Y-61100000D02*
X178201000Y-62400000D01*
G75*
G02*
X178150000Y-62451000I-51000J0D01*
G01*
X177850000Y-62451000D01*
G75*
G02*
X177799000Y-62400000I0J51000D01*
G01*
X177799000Y-61100000D01*
G75*
G02*
X177850000Y-61049000I51000J0D01*
G01*
X178150000Y-61049000D01*
G75*
G02*
X178201000Y-61100000I0J-51000D01*
G01*
G37*
G36*
G01*
X183201000Y-61100000D02*
X183201000Y-62400000D01*
G75*
G02*
X183150000Y-62451000I-51000J0D01*
G01*
X182850000Y-62451000D01*
G75*
G02*
X182799000Y-62400000I0J51000D01*
G01*
X182799000Y-61100000D01*
G75*
G02*
X182850000Y-61049000I51000J0D01*
G01*
X183150000Y-61049000D01*
G75*
G02*
X183201000Y-61100000I0J-51000D01*
G01*
G37*
G36*
G01*
X184701000Y-61100000D02*
X184701000Y-62400000D01*
G75*
G02*
X184650000Y-62451000I-51000J0D01*
G01*
X184350000Y-62451000D01*
G75*
G02*
X184299000Y-62400000I0J51000D01*
G01*
X184299000Y-61100000D01*
G75*
G02*
X184350000Y-61049000I51000J0D01*
G01*
X184650000Y-61049000D01*
G75*
G02*
X184701000Y-61100000I0J-51000D01*
G01*
G37*
G36*
G01*
X182701000Y-61100000D02*
X182701000Y-62400000D01*
G75*
G02*
X182650000Y-62451000I-51000J0D01*
G01*
X182350000Y-62451000D01*
G75*
G02*
X182299000Y-62400000I0J51000D01*
G01*
X182299000Y-61100000D01*
G75*
G02*
X182350000Y-61049000I51000J0D01*
G01*
X182650000Y-61049000D01*
G75*
G02*
X182701000Y-61100000I0J-51000D01*
G01*
G37*
G36*
G01*
X187051000Y-57900000D02*
X187051000Y-60900000D01*
G75*
G02*
X187000000Y-60951000I-51000J0D01*
G01*
X185000000Y-60951000D01*
G75*
G02*
X184949000Y-60900000I0J51000D01*
G01*
X184949000Y-57900000D01*
G75*
G02*
X185000000Y-57849000I51000J0D01*
G01*
X187000000Y-57849000D01*
G75*
G02*
X187051000Y-57900000I0J-51000D01*
G01*
G37*
G36*
G01*
X180701000Y-61100000D02*
X180701000Y-62400000D01*
G75*
G02*
X180650000Y-62451000I-51000J0D01*
G01*
X180350000Y-62451000D01*
G75*
G02*
X180299000Y-62400000I0J51000D01*
G01*
X180299000Y-61100000D01*
G75*
G02*
X180350000Y-61049000I51000J0D01*
G01*
X180650000Y-61049000D01*
G75*
G02*
X180701000Y-61100000I0J-51000D01*
G01*
G37*
G36*
G01*
X181701000Y-61100000D02*
X181701000Y-62400000D01*
G75*
G02*
X181650000Y-62451000I-51000J0D01*
G01*
X181350000Y-62451000D01*
G75*
G02*
X181299000Y-62400000I0J51000D01*
G01*
X181299000Y-61100000D01*
G75*
G02*
X181350000Y-61049000I51000J0D01*
G01*
X181650000Y-61049000D01*
G75*
G02*
X181701000Y-61100000I0J-51000D01*
G01*
G37*
G36*
G01*
X188050000Y-65549000D02*
X189650000Y-65549000D01*
G75*
G02*
X189701000Y-65600000I0J-51000D01*
G01*
X189701000Y-66400000D01*
G75*
G02*
X189650000Y-66451000I-51000J0D01*
G01*
X188050000Y-66451000D01*
G75*
G02*
X187999000Y-66400000I0J51000D01*
G01*
X187999000Y-65600000D01*
G75*
G02*
X188050000Y-65549000I51000J0D01*
G01*
G37*
G36*
G01*
X185550000Y-63299000D02*
X187150000Y-63299000D01*
G75*
G02*
X187201000Y-63350000I0J-51000D01*
G01*
X187201000Y-64150000D01*
G75*
G02*
X187150000Y-64201000I-51000J0D01*
G01*
X185550000Y-64201000D01*
G75*
G02*
X185499000Y-64150000I0J51000D01*
G01*
X185499000Y-63350000D01*
G75*
G02*
X185550000Y-63299000I51000J0D01*
G01*
G37*
G36*
G01*
X188050000Y-59549000D02*
X189650000Y-59549000D01*
G75*
G02*
X189701000Y-59600000I0J-51000D01*
G01*
X189701000Y-60400000D01*
G75*
G02*
X189650000Y-60451000I-51000J0D01*
G01*
X188050000Y-60451000D01*
G75*
G02*
X187999000Y-60400000I0J51000D01*
G01*
X187999000Y-59600000D01*
G75*
G02*
X188050000Y-59549000I51000J0D01*
G01*
G37*
G36*
G01*
X173479500Y-58951000D02*
X171879500Y-58951000D01*
G75*
G02*
X171828500Y-58900000I0J51000D01*
G01*
X171828500Y-58100000D01*
G75*
G02*
X171879500Y-58049000I51000J0D01*
G01*
X173479500Y-58049000D01*
G75*
G02*
X173530500Y-58100000I0J-51000D01*
G01*
X173530500Y-58900000D01*
G75*
G02*
X173479500Y-58951000I-51000J0D01*
G01*
G37*
G36*
G01*
X188050000Y-58049000D02*
X189650000Y-58049000D01*
G75*
G02*
X189701000Y-58100000I0J-51000D01*
G01*
X189701000Y-58900000D01*
G75*
G02*
X189650000Y-58951000I-51000J0D01*
G01*
X188050000Y-58951000D01*
G75*
G02*
X187999000Y-58900000I0J51000D01*
G01*
X187999000Y-58100000D01*
G75*
G02*
X188050000Y-58049000I51000J0D01*
G01*
G37*
G36*
G01*
X180049000Y-66950000D02*
X180049000Y-65350000D01*
G75*
G02*
X180100000Y-65299000I51000J0D01*
G01*
X180900000Y-65299000D01*
G75*
G02*
X180951000Y-65350000I0J-51000D01*
G01*
X180951000Y-66950000D01*
G75*
G02*
X180900000Y-67001000I-51000J0D01*
G01*
X180100000Y-67001000D01*
G75*
G02*
X180049000Y-66950000I0J51000D01*
G01*
G37*
G36*
G01*
X188050000Y-61049000D02*
X189650000Y-61049000D01*
G75*
G02*
X189701000Y-61100000I0J-51000D01*
G01*
X189701000Y-61900000D01*
G75*
G02*
X189650000Y-61951000I-51000J0D01*
G01*
X188050000Y-61951000D01*
G75*
G02*
X187999000Y-61900000I0J51000D01*
G01*
X187999000Y-61100000D01*
G75*
G02*
X188050000Y-61049000I51000J0D01*
G01*
G37*
G36*
G01*
X188050000Y-62549000D02*
X189650000Y-62549000D01*
G75*
G02*
X189701000Y-62600000I0J-51000D01*
G01*
X189701000Y-63400000D01*
G75*
G02*
X189650000Y-63451000I-51000J0D01*
G01*
X188050000Y-63451000D01*
G75*
G02*
X187999000Y-63400000I0J51000D01*
G01*
X187999000Y-62600000D01*
G75*
G02*
X188050000Y-62549000I51000J0D01*
G01*
G37*
G36*
G01*
X188050000Y-64049000D02*
X189650000Y-64049000D01*
G75*
G02*
X189701000Y-64100000I0J-51000D01*
G01*
X189701000Y-64900000D01*
G75*
G02*
X189650000Y-64951000I-51000J0D01*
G01*
X188050000Y-64951000D01*
G75*
G02*
X187999000Y-64900000I0J51000D01*
G01*
X187999000Y-64100000D01*
G75*
G02*
X188050000Y-64049000I51000J0D01*
G01*
G37*
G36*
G01*
X173450000Y-61951000D02*
X171850000Y-61951000D01*
G75*
G02*
X171799000Y-61900000I0J51000D01*
G01*
X171799000Y-61100000D01*
G75*
G02*
X171850000Y-61049000I51000J0D01*
G01*
X173450000Y-61049000D01*
G75*
G02*
X173501000Y-61100000I0J-51000D01*
G01*
X173501000Y-61900000D01*
G75*
G02*
X173450000Y-61951000I-51000J0D01*
G01*
G37*
G36*
G01*
X173450000Y-64951000D02*
X171850000Y-64951000D01*
G75*
G02*
X171799000Y-64900000I0J51000D01*
G01*
X171799000Y-64100000D01*
G75*
G02*
X171850000Y-64049000I51000J0D01*
G01*
X173450000Y-64049000D01*
G75*
G02*
X173501000Y-64100000I0J-51000D01*
G01*
X173501000Y-64900000D01*
G75*
G02*
X173450000Y-64951000I-51000J0D01*
G01*
G37*
G36*
G01*
X173479500Y-60451000D02*
X171879500Y-60451000D01*
G75*
G02*
X171828500Y-60400000I0J51000D01*
G01*
X171828500Y-59600000D01*
G75*
G02*
X171879500Y-59549000I51000J0D01*
G01*
X173479500Y-59549000D01*
G75*
G02*
X173530500Y-59600000I0J-51000D01*
G01*
X173530500Y-60400000D01*
G75*
G02*
X173479500Y-60451000I-51000J0D01*
G01*
G37*
G36*
G01*
X173450000Y-63451000D02*
X171850000Y-63451000D01*
G75*
G02*
X171799000Y-63400000I0J51000D01*
G01*
X171799000Y-62600000D01*
G75*
G02*
X171850000Y-62549000I51000J0D01*
G01*
X173450000Y-62549000D01*
G75*
G02*
X173501000Y-62600000I0J-51000D01*
G01*
X173501000Y-63400000D01*
G75*
G02*
X173450000Y-63451000I-51000J0D01*
G01*
G37*
G36*
G01*
X185550000Y-64799000D02*
X187150000Y-64799000D01*
G75*
G02*
X187201000Y-64850000I0J-51000D01*
G01*
X187201000Y-65650000D01*
G75*
G02*
X187150000Y-65701000I-51000J0D01*
G01*
X185550000Y-65701000D01*
G75*
G02*
X185499000Y-65650000I0J51000D01*
G01*
X185499000Y-64850000D01*
G75*
G02*
X185550000Y-64799000I51000J0D01*
G01*
G37*
D10*
G36*
X177800732Y-61048000D02*
G01*
X177801000Y-61049000D01*
X177801000Y-62451000D01*
X177800000Y-62452732D01*
X177799000Y-62453000D01*
X177701000Y-62453000D01*
X177699268Y-62452000D01*
X177699000Y-62451000D01*
X177699000Y-61049000D01*
X177700000Y-61047268D01*
X177701000Y-61047000D01*
X177799000Y-61047000D01*
X177800732Y-61048000D01*
G37*
G36*
X178800732Y-61048000D02*
G01*
X178801000Y-61049000D01*
X178801000Y-62451000D01*
X178800000Y-62452732D01*
X178799000Y-62453000D01*
X178701000Y-62453000D01*
X178699268Y-62452000D01*
X178699000Y-62451000D01*
X178699000Y-61049000D01*
X178700000Y-61047268D01*
X178701000Y-61047000D01*
X178799000Y-61047000D01*
X178800732Y-61048000D01*
G37*
G36*
X179300732Y-61048000D02*
G01*
X179301000Y-61049000D01*
X179301000Y-62451000D01*
X179300000Y-62452732D01*
X179299000Y-62453000D01*
X179201000Y-62453000D01*
X179199268Y-62452000D01*
X179199000Y-62451000D01*
X179199000Y-61049000D01*
X179200000Y-61047268D01*
X179201000Y-61047000D01*
X179299000Y-61047000D01*
X179300732Y-61048000D01*
G37*
G36*
X179800732Y-61048000D02*
G01*
X179801000Y-61049000D01*
X179801000Y-62451000D01*
X179800000Y-62452732D01*
X179799000Y-62453000D01*
X179701000Y-62453000D01*
X179699268Y-62452000D01*
X179699000Y-62451000D01*
X179699000Y-61049000D01*
X179700000Y-61047268D01*
X179701000Y-61047000D01*
X179799000Y-61047000D01*
X179800732Y-61048000D01*
G37*
G36*
X180300732Y-61048000D02*
G01*
X180301000Y-61049000D01*
X180301000Y-62451000D01*
X180300000Y-62452732D01*
X180299000Y-62453000D01*
X180201000Y-62453000D01*
X180199268Y-62452000D01*
X180199000Y-62451000D01*
X180199000Y-61049000D01*
X180200000Y-61047268D01*
X180201000Y-61047000D01*
X180299000Y-61047000D01*
X180300732Y-61048000D01*
G37*
G36*
X180800732Y-61048000D02*
G01*
X180801000Y-61049000D01*
X180801000Y-62451000D01*
X180800000Y-62452732D01*
X180799000Y-62453000D01*
X180701000Y-62453000D01*
X180699268Y-62452000D01*
X180699000Y-62451000D01*
X180699000Y-61049000D01*
X180700000Y-61047268D01*
X180701000Y-61047000D01*
X180799000Y-61047000D01*
X180800732Y-61048000D01*
G37*
G36*
X181300732Y-61048000D02*
G01*
X181301000Y-61049000D01*
X181301000Y-62451000D01*
X181300000Y-62452732D01*
X181299000Y-62453000D01*
X181201000Y-62453000D01*
X181199268Y-62452000D01*
X181199000Y-62451000D01*
X181199000Y-61049000D01*
X181200000Y-61047268D01*
X181201000Y-61047000D01*
X181299000Y-61047000D01*
X181300732Y-61048000D01*
G37*
G36*
X181800732Y-61048000D02*
G01*
X181801000Y-61049000D01*
X181801000Y-62451000D01*
X181800000Y-62452732D01*
X181799000Y-62453000D01*
X181701000Y-62453000D01*
X181699268Y-62452000D01*
X181699000Y-62451000D01*
X181699000Y-61049000D01*
X181700000Y-61047268D01*
X181701000Y-61047000D01*
X181799000Y-61047000D01*
X181800732Y-61048000D01*
G37*
G36*
X182300732Y-61048000D02*
G01*
X182301000Y-61049000D01*
X182301000Y-62451000D01*
X182300000Y-62452732D01*
X182299000Y-62453000D01*
X182201000Y-62453000D01*
X182199268Y-62452000D01*
X182199000Y-62451000D01*
X182199000Y-61049000D01*
X182200000Y-61047268D01*
X182201000Y-61047000D01*
X182299000Y-61047000D01*
X182300732Y-61048000D01*
G37*
G36*
X182800732Y-61048000D02*
G01*
X182801000Y-61049000D01*
X182801000Y-62451000D01*
X182800000Y-62452732D01*
X182799000Y-62453000D01*
X182701000Y-62453000D01*
X182699268Y-62452000D01*
X182699000Y-62451000D01*
X182699000Y-61049000D01*
X182700000Y-61047268D01*
X182701000Y-61047000D01*
X182799000Y-61047000D01*
X182800732Y-61048000D01*
G37*
G36*
X183300732Y-61048000D02*
G01*
X183301000Y-61049000D01*
X183301000Y-62451000D01*
X183300000Y-62452732D01*
X183299000Y-62453000D01*
X183201000Y-62453000D01*
X183199268Y-62452000D01*
X183199000Y-62451000D01*
X183199000Y-61049000D01*
X183200000Y-61047268D01*
X183201000Y-61047000D01*
X183299000Y-61047000D01*
X183300732Y-61048000D01*
G37*
G36*
X183800732Y-61048000D02*
G01*
X183801000Y-61049000D01*
X183801000Y-62451000D01*
X183800000Y-62452732D01*
X183799000Y-62453000D01*
X183701000Y-62453000D01*
X183699268Y-62452000D01*
X183699000Y-62451000D01*
X183699000Y-61049000D01*
X183700000Y-61047268D01*
X183701000Y-61047000D01*
X183799000Y-61047000D01*
X183800732Y-61048000D01*
G37*
G36*
X184300732Y-61048000D02*
G01*
X184301000Y-61049000D01*
X184301000Y-62451000D01*
X184300000Y-62452732D01*
X184299000Y-62453000D01*
X184201000Y-62453000D01*
X184199268Y-62452000D01*
X184199000Y-62451000D01*
X184199000Y-61049000D01*
X184200000Y-61047268D01*
X184201000Y-61047000D01*
X184299000Y-61047000D01*
X184300732Y-61048000D01*
G37*
G36*
X178300732Y-61048000D02*
G01*
X178301000Y-61049000D01*
X178301000Y-62451000D01*
X178300000Y-62452732D01*
X178299000Y-62453000D01*
X178201000Y-62453000D01*
X178199268Y-62452000D01*
X178199000Y-62451000D01*
X178199000Y-61049000D01*
X178200000Y-61047268D01*
X178201000Y-61047000D01*
X178299000Y-61047000D01*
X178300732Y-61048000D01*
G37*
G36*
X177300732Y-61048000D02*
G01*
X177301000Y-61049000D01*
X177301000Y-62451000D01*
X177300000Y-62452732D01*
X177299000Y-62453000D01*
X177201000Y-62453000D01*
X177199268Y-62452000D01*
X177199000Y-62451000D01*
X177199000Y-61049000D01*
X177200000Y-61047268D01*
X177201000Y-61047000D01*
X177299000Y-61047000D01*
X177300732Y-61048000D01*
G37*
M02*
