%TF.GenerationSoftware,KiCad,Pcbnew,(6.0.0)*%
%TF.CreationDate,2022-03-16T08:28:38+01:00*%
%TF.ProjectId,GBAHD_Shield,47424148-445f-4536-9869-656c642e6b69,rev?*%
%TF.SameCoordinates,Original*%
%TF.FileFunction,Soldermask,Bot*%
%TF.FilePolarity,Negative*%
%FSLAX46Y46*%
G04 Gerber Fmt 4.6, Leading zero omitted, Abs format (unit mm)*
G04 Created by KiCad (PCBNEW (6.0.0)) date 2022-03-16 08:28:38*
%MOMM*%
%LPD*%
G01*
G04 APERTURE LIST*
G04 Aperture macros list*
%AMRoundRect*
0 Rectangle with rounded corners*
0 $1 Rounding radius*
0 $2 $3 $4 $5 $6 $7 $8 $9 X,Y pos of 4 corners*
0 Add a 4 corners polygon primitive as box body*
4,1,4,$2,$3,$4,$5,$6,$7,$8,$9,$2,$3,0*
0 Add four circle primitives for the rounded corners*
1,1,$1+$1,$2,$3*
1,1,$1+$1,$4,$5*
1,1,$1+$1,$6,$7*
1,1,$1+$1,$8,$9*
0 Add four rect primitives between the rounded corners*
20,1,$1+$1,$2,$3,$4,$5,0*
20,1,$1+$1,$4,$5,$6,$7,0*
20,1,$1+$1,$6,$7,$8,$9,0*
20,1,$1+$1,$8,$9,$2,$3,0*%
G04 Aperture macros list end*
%ADD10R,1.700000X1.700000*%
%ADD11O,1.700000X1.700000*%
%ADD12C,2.500000*%
%ADD13RoundRect,0.249999X-0.350001X-0.450001X0.350001X-0.450001X0.350001X0.450001X-0.350001X0.450001X0*%
%ADD14RoundRect,0.150000X-0.150000X0.825000X-0.150000X-0.825000X0.150000X-0.825000X0.150000X0.825000X0*%
%ADD15RoundRect,0.250000X-0.337500X-0.475000X0.337500X-0.475000X0.337500X0.475000X-0.337500X0.475000X0*%
%ADD16RoundRect,0.249999X-0.450001X0.350001X-0.450001X-0.350001X0.450001X-0.350001X0.450001X0.350001X0*%
%ADD17RoundRect,0.250000X-0.475000X0.337500X-0.475000X-0.337500X0.475000X-0.337500X0.475000X0.337500X0*%
%ADD18R,0.800000X0.900000*%
%ADD19RoundRect,0.250000X-0.450000X0.350000X-0.450000X-0.350000X0.450000X-0.350000X0.450000X0.350000X0*%
%ADD20RoundRect,0.250000X0.325000X0.450000X-0.325000X0.450000X-0.325000X-0.450000X0.325000X-0.450000X0*%
%ADD21RoundRect,0.250000X0.350000X0.450000X-0.350000X0.450000X-0.350000X-0.450000X0.350000X-0.450000X0*%
%ADD22RoundRect,0.249999X0.350001X0.450001X-0.350001X0.450001X-0.350001X-0.450001X0.350001X-0.450001X0*%
%ADD23C,1.500000*%
G04 APERTURE END LIST*
D10*
%TO.C,J11*%
X82804000Y-41529000D03*
D11*
X85344000Y-41529000D03*
X82804000Y-44069000D03*
X85344000Y-44069000D03*
X82804000Y-46609000D03*
X85344000Y-46609000D03*
%TD*%
D12*
%TO.C,U4*%
X90492000Y-61881000D03*
X90492000Y-57881000D03*
X90492000Y-53881000D03*
X90492000Y-49881000D03*
X90492000Y-43381000D03*
X90492000Y-39381000D03*
X90492000Y-35381000D03*
%TD*%
D13*
%TO.C,R3*%
X73930000Y-53086000D03*
X75930000Y-53086000D03*
%TD*%
D10*
%TO.C,J7*%
X72898000Y-76962000D03*
D11*
X70358000Y-76962000D03*
X67818000Y-76962000D03*
X65278000Y-76962000D03*
X62738000Y-76962000D03*
X60198000Y-76962000D03*
X57658000Y-76962000D03*
X55118000Y-76962000D03*
%TD*%
D10*
%TO.C,J8*%
X68834000Y-31250000D03*
D11*
X66294000Y-31250000D03*
X63754000Y-31250000D03*
X61214000Y-31250000D03*
X58674000Y-31250000D03*
X56134000Y-31250000D03*
X53594000Y-31250000D03*
X51054000Y-31250000D03*
X48514000Y-31250000D03*
X45974000Y-31250000D03*
%TD*%
D10*
%TO.C,J9*%
X90678000Y-28702000D03*
D11*
X88138000Y-28702000D03*
X85598000Y-28702000D03*
X83058000Y-28702000D03*
X80518000Y-28702000D03*
X77978000Y-28702000D03*
X75438000Y-28702000D03*
X72898000Y-28702000D03*
%TD*%
D10*
%TO.C,J10*%
X68834000Y-28702000D03*
D11*
X66294000Y-28702000D03*
X63754000Y-28702000D03*
X61214000Y-28702000D03*
X58674000Y-28702000D03*
X56134000Y-28702000D03*
X53594000Y-28702000D03*
X51054000Y-28702000D03*
X48514000Y-28702000D03*
X45974000Y-28702000D03*
%TD*%
D14*
%TO.C,U3*%
X79756000Y-65024000D03*
X81026000Y-65024000D03*
X82296000Y-65024000D03*
X83566000Y-65024000D03*
X84836000Y-65024000D03*
X86106000Y-65024000D03*
X87376000Y-65024000D03*
X88646000Y-65024000D03*
X88646000Y-69974000D03*
X87376000Y-69974000D03*
X86106000Y-69974000D03*
X84836000Y-69974000D03*
X83566000Y-69974000D03*
X82296000Y-69974000D03*
X81026000Y-69974000D03*
X79756000Y-69974000D03*
%TD*%
D15*
%TO.C,C3*%
X74760000Y-40132000D03*
X76835000Y-40132000D03*
%TD*%
D16*
%TO.C,R1*%
X80772000Y-56150000D03*
X80772000Y-58150000D03*
%TD*%
D13*
%TO.C,R2*%
X80899000Y-60071000D03*
X82899000Y-60071000D03*
%TD*%
D17*
%TO.C,C1*%
X84836000Y-56112500D03*
X84836000Y-58187500D03*
%TD*%
D10*
%TO.C,J6*%
X77978000Y-76962000D03*
D11*
X80518000Y-76962000D03*
X83058000Y-76962000D03*
X85598000Y-76962000D03*
X88138000Y-76962000D03*
X90678000Y-76962000D03*
%TD*%
D18*
%TO.C,Q3*%
X70978000Y-62962000D03*
X69078000Y-62962000D03*
X70028000Y-60962000D03*
%TD*%
D19*
%TO.C,R5*%
X77724000Y-55912000D03*
X77724000Y-57912000D03*
%TD*%
D18*
%TO.C,Q1*%
X73980000Y-54880000D03*
X75880000Y-54880000D03*
X74930000Y-56880000D03*
%TD*%
D17*
%TO.C,C2*%
X82804000Y-56112500D03*
X82804000Y-58187500D03*
%TD*%
D20*
%TO.C,D1*%
X76835000Y-48387000D03*
X74785000Y-48387000D03*
%TD*%
%TO.C,D2*%
X76844000Y-42291000D03*
X74794000Y-42291000D03*
%TD*%
D21*
%TO.C,R7*%
X76819000Y-44323000D03*
X74819000Y-44323000D03*
%TD*%
D22*
%TO.C,R4*%
X85090000Y-50546000D03*
X83090000Y-50546000D03*
%TD*%
D21*
%TO.C,R6*%
X76803000Y-46355000D03*
X74803000Y-46355000D03*
%TD*%
D18*
%TO.C,Q2*%
X73980000Y-58420000D03*
X75880000Y-58420000D03*
X74930000Y-60420000D03*
%TD*%
D19*
%TO.C,R8*%
X72136000Y-55896000D03*
X72136000Y-57896000D03*
%TD*%
D14*
%TO.C,U2*%
X69088000Y-65024000D03*
X70358000Y-65024000D03*
X71628000Y-65024000D03*
X72898000Y-65024000D03*
X74168000Y-65024000D03*
X75438000Y-65024000D03*
X76708000Y-65024000D03*
X77978000Y-65024000D03*
X77978000Y-69974000D03*
X76708000Y-69974000D03*
X75438000Y-69974000D03*
X74168000Y-69974000D03*
X72898000Y-69974000D03*
X71628000Y-69974000D03*
X70358000Y-69974000D03*
X69088000Y-69974000D03*
%TD*%
D23*
%TO.C,T3*%
X70739000Y-40005000D03*
%TD*%
%TO.C,T4*%
X68326000Y-41402000D03*
%TD*%
%TO.C,T6*%
X79248000Y-51054000D03*
%TD*%
%TO.C,T7*%
X79248000Y-40005000D03*
%TD*%
D15*
%TO.C,C4*%
X73892500Y-50962000D03*
X75967500Y-50962000D03*
%TD*%
M02*
