%TF.GenerationSoftware,KiCad,Pcbnew,(5.1.8)-1*%
%TF.CreationDate,2021-03-21T14:54:03+01:00*%
%TF.ProjectId,GBAHD_Shield,47424148-445f-4536-9869-656c642e6b69,rev?*%
%TF.SameCoordinates,Original*%
%TF.FileFunction,Copper,L2,Bot*%
%TF.FilePolarity,Positive*%
%FSLAX46Y46*%
G04 Gerber Fmt 4.6, Leading zero omitted, Abs format (unit mm)*
G04 Created by KiCad (PCBNEW (5.1.8)-1) date 2021-03-21 14:54:03*
%MOMM*%
%LPD*%
G01*
G04 APERTURE LIST*
%TA.AperFunction,ComponentPad*%
%ADD10C,2.500000*%
%TD*%
%TA.AperFunction,ComponentPad*%
%ADD11O,1.700000X1.700000*%
%TD*%
%TA.AperFunction,ComponentPad*%
%ADD12R,1.700000X1.700000*%
%TD*%
%TA.AperFunction,ViaPad*%
%ADD13C,0.400000*%
%TD*%
%TA.AperFunction,Conductor*%
%ADD14C,0.200000*%
%TD*%
%TA.AperFunction,Conductor*%
%ADD15C,0.400000*%
%TD*%
%TA.AperFunction,Conductor*%
%ADD16C,0.254000*%
%TD*%
%TA.AperFunction,Conductor*%
%ADD17C,0.100000*%
%TD*%
G04 APERTURE END LIST*
D10*
%TO.P,U4,1*%
%TO.N,VCC*%
X90492000Y-61881000D03*
%TO.P,U4,2*%
%TO.N,ICSP_SCK*%
X90492000Y-57881000D03*
%TO.P,U4,3*%
%TO.N,SNS_LATCH*%
X90492000Y-53881000D03*
%TO.P,U4,4*%
%TO.N,ICSP_MISO*%
X90492000Y-49881000D03*
%TO.P,U4,5*%
%TO.N,N/C*%
X90492000Y-43381000D03*
%TO.P,U4,6*%
X90492000Y-39381000D03*
%TO.P,U4,7*%
%TO.N,GND*%
X90492000Y-35381000D03*
%TD*%
D11*
%TO.P,J11,6*%
%TO.N,GND*%
X71374000Y-52197000D03*
%TO.P,J11,5*%
%TO.N,AT_RST*%
X68834000Y-52197000D03*
%TO.P,J11,4*%
%TO.N,ICSP_MOSI*%
X71374000Y-49657000D03*
%TO.P,J11,3*%
%TO.N,ICSP_SCK*%
X68834000Y-49657000D03*
%TO.P,J11,2*%
%TO.N,VCC*%
X71374000Y-47117000D03*
D12*
%TO.P,J11,1*%
%TO.N,ICSP_MISO*%
X68834000Y-47117000D03*
%TD*%
D11*
%TO.P,J8,10*%
%TO.N,GB_DCLK*%
X45974000Y-31250000D03*
%TO.P,J8,9*%
%TO.N,GBA_CLK*%
X48514000Y-31250000D03*
%TO.P,J8,8*%
%TO.N,GB_R3*%
X51054000Y-31250000D03*
%TO.P,J8,7*%
%TO.N,GB_R1*%
X53594000Y-31250000D03*
%TO.P,J8,6*%
%TO.N,GB_G4*%
X56134000Y-31250000D03*
%TO.P,J8,5*%
%TO.N,GB_G2*%
X58674000Y-31250000D03*
%TO.P,J8,4*%
%TO.N,GB_B5*%
X61214000Y-31250000D03*
%TO.P,J8,3*%
%TO.N,GB_B3*%
X63754000Y-31250000D03*
%TO.P,J8,2*%
%TO.N,GB_B1*%
X66294000Y-31250000D03*
D12*
%TO.P,J8,1*%
%TO.N,GB_SPS*%
X68834000Y-31250000D03*
%TD*%
D11*
%TO.P,J10,10*%
%TO.N,N/C*%
X45974000Y-28702000D03*
%TO.P,J10,9*%
X48514000Y-28702000D03*
%TO.P,J10,8*%
X51054000Y-28702000D03*
%TO.P,J10,7*%
%TO.N,GND*%
X53594000Y-28702000D03*
%TO.P,J10,6*%
%TO.N,GB_R5*%
X56134000Y-28702000D03*
%TO.P,J10,5*%
%TO.N,N/C*%
X58674000Y-28702000D03*
%TO.P,J10,4*%
%TO.N,GB_R4*%
X61214000Y-28702000D03*
%TO.P,J10,3*%
%TO.N,GB_R2*%
X63754000Y-28702000D03*
%TO.P,J10,2*%
%TO.N,GB_G5*%
X66294000Y-28702000D03*
D12*
%TO.P,J10,1*%
%TO.N,GB_G3*%
X68834000Y-28702000D03*
%TD*%
D11*
%TO.P,J9,8*%
%TO.N,GB_G1*%
X72898000Y-28702000D03*
%TO.P,J9,7*%
%TO.N,GB_B4*%
X75438000Y-28702000D03*
%TO.P,J9,6*%
%TO.N,GB_B2*%
X77978000Y-28702000D03*
%TO.P,J9,5*%
%TO.N,PIXEL_GRID*%
X80518000Y-28702000D03*
%TO.P,J9,4*%
%TO.N,GBA_AUD2*%
X83058000Y-28702000D03*
%TO.P,J9,3*%
%TO.N,GBA_AUD1*%
X85598000Y-28702000D03*
%TO.P,J9,2*%
%TO.N,SP_ARD1*%
X88138000Y-28702000D03*
D12*
%TO.P,J9,1*%
%TO.N,RX*%
X90678000Y-28702000D03*
%TD*%
D11*
%TO.P,J6,6*%
%TO.N,N/C*%
X90678000Y-76962000D03*
%TO.P,J6,5*%
X88138000Y-76962000D03*
%TO.P,J6,4*%
X85598000Y-76962000D03*
%TO.P,J6,3*%
X83058000Y-76962000D03*
%TO.P,J6,2*%
X80518000Y-76962000D03*
D12*
%TO.P,J6,1*%
X77978000Y-76962000D03*
%TD*%
D11*
%TO.P,J7,8*%
%TO.N,N/C*%
X55118000Y-76962000D03*
%TO.P,J7,7*%
X57658000Y-76962000D03*
%TO.P,J7,6*%
X60198000Y-76962000D03*
%TO.P,J7,5*%
%TO.N,+3V3*%
X62738000Y-76962000D03*
%TO.P,J7,4*%
%TO.N,+5V*%
X65278000Y-76962000D03*
%TO.P,J7,3*%
%TO.N,GND*%
X67818000Y-76962000D03*
%TO.P,J7,2*%
X70358000Y-76962000D03*
D12*
%TO.P,J7,1*%
%TO.N,N/C*%
X72898000Y-76962000D03*
%TD*%
D13*
%TO.N,*%
X77851000Y-45212000D03*
%TO.N,GND*%
X78613000Y-40640000D03*
%TO.N,ICSP_MISO*%
X84200000Y-53600000D03*
%TO.N,+5V*%
X66294000Y-41656000D03*
%TO.N,GND*%
X70739000Y-56007000D03*
X72898000Y-56007000D03*
X77724000Y-52451000D03*
X84201000Y-45974000D03*
X78613000Y-45974000D03*
X78486000Y-51689000D03*
X79248000Y-50038000D03*
X83566000Y-50038000D03*
X84328000Y-51689000D03*
X78613000Y-47625000D03*
X79375000Y-48387000D03*
X84201000Y-48387000D03*
X74676000Y-51435000D03*
X74168000Y-46355000D03*
X71374000Y-53721000D03*
X88646000Y-48895000D03*
X90424000Y-51943000D03*
X90424000Y-55880000D03*
X90424000Y-59944000D03*
X83820000Y-56134000D03*
X90424000Y-64008000D03*
X75438000Y-69596000D03*
X80518000Y-69596000D03*
X78105000Y-71882000D03*
X79756000Y-73533000D03*
X68072000Y-68707000D03*
X64516000Y-69596000D03*
X87884000Y-52324000D03*
X87884000Y-53594000D03*
X81407000Y-56642000D03*
X74422000Y-54102000D03*
X77724000Y-53721000D03*
X84328000Y-60579000D03*
X77216000Y-31877000D03*
X78740000Y-31877000D03*
X77216000Y-43942000D03*
X81788000Y-42291000D03*
X87503000Y-30861000D03*
X67945000Y-61087000D03*
X67818000Y-64516000D03*
X69088000Y-64516000D03*
X70358000Y-64516000D03*
X71628000Y-64516000D03*
X72898000Y-64516000D03*
X73914000Y-68072000D03*
X70358000Y-68072000D03*
X70866000Y-71882000D03*
X56769000Y-67310000D03*
X56769000Y-52959000D03*
X56769000Y-40640000D03*
X56769000Y-38354000D03*
X40386000Y-78740000D03*
X40386000Y-27178000D03*
X92202000Y-27178000D03*
X92202000Y-78740000D03*
%TO.N,GB_R5*%
X48500000Y-37719000D03*
%TO.N,GB_B2*%
X55500000Y-38500000D03*
%TO.N,GB_G1*%
X53000000Y-38500000D03*
%TO.N,GB_G5*%
X51000000Y-38500000D03*
%TO.N,GB_R2*%
X50000000Y-38500000D03*
%TO.N,GB_G3*%
X52000000Y-38500000D03*
%TO.N,GB_B4*%
X54500000Y-38500000D03*
%TO.N,GB_R4*%
X49000000Y-38500000D03*
%TO.N,GBA_AUD1*%
X80670000Y-67056000D03*
%TO.N,GBA_AUD2*%
X80170000Y-67564000D03*
%TO.N,Net-(J1-Pad1)*%
X81661000Y-73244000D03*
%TO.N,GBA_START*%
X79170000Y-67564000D03*
X79502000Y-57404000D03*
%TO.N,GBA_CLK*%
X81060997Y-72044000D03*
X47625000Y-74676000D03*
X81062417Y-73696417D03*
%TO.N,AT_RST*%
X81000000Y-43968000D03*
%TO.N,ICSP_MOSI*%
X83400000Y-53600000D03*
%TO.N,SNS_LATCH*%
X83312000Y-57404000D03*
X82600000Y-56134000D03*
%TO.N,GBA_POWER_SEL*%
X90170000Y-66929000D03*
X86098000Y-43053000D03*
X84455000Y-43053000D03*
X78613000Y-43180000D03*
%TO.N,VCC*%
X65532000Y-48514000D03*
X78232000Y-60741030D03*
X78232000Y-56769000D03*
X67183000Y-56769000D03*
X87249000Y-50800000D03*
%TO.N,Net-(J1-Pad1)*%
X81670000Y-71510000D03*
%TO.N,+3V3*%
X62738000Y-49784000D03*
%TD*%
D14*
%TO.N,GB_R5*%
X55118000Y-28702000D02*
X56134000Y-28702000D01*
X54610000Y-33020000D02*
X54864000Y-32766000D01*
X48895000Y-33020000D02*
X54610000Y-33020000D01*
X54864000Y-32766000D02*
X54864000Y-28956000D01*
X48500000Y-33415000D02*
X48895000Y-33020000D01*
X54864000Y-28956000D02*
X55118000Y-28702000D01*
X48500000Y-37719000D02*
X48500000Y-33415000D01*
%TO.N,GB_B2*%
X77978000Y-35560000D02*
X77978000Y-28702000D01*
X77717930Y-35820070D02*
X77978000Y-35560000D01*
X55753000Y-35820070D02*
X77717930Y-35820070D01*
X55500000Y-36073070D02*
X55753000Y-35820070D01*
X55500000Y-38500000D02*
X55500000Y-36073070D01*
%TO.N,GB_G1*%
X53000000Y-38500000D02*
X53000000Y-35233050D01*
X53000000Y-35233050D02*
X53213000Y-35020050D01*
X53213000Y-35020050D02*
X72675950Y-35020050D01*
X72898000Y-34798000D02*
X72898000Y-28702000D01*
X72675950Y-35020050D02*
X72898000Y-34798000D01*
%TO.N,GB_G5*%
X51000000Y-38500000D02*
X51000000Y-34401030D01*
X51000000Y-34401030D02*
X51181000Y-34220030D01*
X51181000Y-34220030D02*
X64839970Y-34220030D01*
X64839970Y-34220030D02*
X65024000Y-34036000D01*
X65024000Y-29972000D02*
X66294000Y-28702000D01*
X65024000Y-34036000D02*
X65024000Y-29972000D01*
%TO.N,GB_R2*%
X50000000Y-38500000D02*
X50000000Y-34112020D01*
X50000000Y-34112020D02*
X50292000Y-33820020D01*
X50292000Y-33820020D02*
X62191980Y-33820020D01*
X62191980Y-33820020D02*
X62484000Y-33528000D01*
X62484000Y-29972000D02*
X63754000Y-28702000D01*
X62484000Y-33528000D02*
X62484000Y-29972000D01*
%TO.N,GB_G3*%
X52000000Y-38500000D02*
X52000000Y-34817040D01*
X52000000Y-34817040D02*
X52197000Y-34620040D01*
X52197000Y-34620040D02*
X67360960Y-34620040D01*
X67360960Y-34620040D02*
X67564000Y-34417000D01*
X67564000Y-29972000D02*
X68834000Y-28702000D01*
X67564000Y-34417000D02*
X67564000Y-29972000D01*
%TO.N,GB_B4*%
X54500000Y-38500000D02*
X54500000Y-35657060D01*
X54500000Y-35657060D02*
X54737000Y-35420060D01*
X54737000Y-35420060D02*
X75196940Y-35420060D01*
X75438000Y-35179000D02*
X75438000Y-28702000D01*
X75196940Y-35420060D02*
X75438000Y-35179000D01*
%TO.N,GB_R4*%
X49000000Y-38500000D02*
X49000000Y-33696010D01*
X49000000Y-33696010D02*
X49276000Y-33420010D01*
X49276000Y-33420010D02*
X59797990Y-33420010D01*
X59797990Y-33420010D02*
X59944000Y-33274000D01*
X59944000Y-29972000D02*
X61214000Y-28702000D01*
X59944000Y-33274000D02*
X59944000Y-29972000D01*
%TO.N,GBA_AUD1*%
X85344000Y-67056000D02*
X80670000Y-67056000D01*
X85598000Y-66802000D02*
X85344000Y-67056000D01*
X85598000Y-28702000D02*
X85598000Y-66802000D01*
%TO.N,GBA_AUD2*%
X80391000Y-66167000D02*
X80170000Y-66388000D01*
X84836000Y-66167000D02*
X80391000Y-66167000D01*
X85090000Y-65913000D02*
X84836000Y-66167000D01*
X85090000Y-32004000D02*
X85090000Y-65913000D01*
X84836000Y-31750000D02*
X85090000Y-32004000D01*
X83058000Y-31496000D02*
X83312000Y-31750000D01*
X80170000Y-66388000D02*
X80170000Y-67564000D01*
X83312000Y-31750000D02*
X84836000Y-31750000D01*
X83058000Y-28702000D02*
X83058000Y-31496000D01*
%TO.N,GBA_START*%
X79170000Y-57736000D02*
X79502000Y-57404000D01*
X79170000Y-57736000D02*
X79170000Y-57785000D01*
X79170000Y-67564000D02*
X79170000Y-57785000D01*
%TO.N,GBA_CLK*%
X47625000Y-32139000D02*
X47625000Y-74676000D01*
X48514000Y-31250000D02*
X47625000Y-32139000D01*
X81060997Y-73694997D02*
X81062417Y-73696417D01*
X81060997Y-72044000D02*
X81060997Y-73694997D01*
%TO.N,AT_RST*%
X64643000Y-52197000D02*
X67310000Y-52197000D01*
X64262000Y-51816000D02*
X64643000Y-52197000D01*
X64262000Y-44958000D02*
X64262000Y-51816000D01*
X64516000Y-44704000D02*
X64262000Y-44958000D01*
X77470000Y-44704000D02*
X64516000Y-44704000D01*
X67310000Y-52197000D02*
X68834000Y-52197000D01*
X78206000Y-43968000D02*
X77470000Y-44704000D01*
X81000000Y-43968000D02*
X78206000Y-43968000D01*
%TO.N,ICSP_MOSI*%
X83400000Y-54610000D02*
X83400000Y-53600000D01*
X73406000Y-54864000D02*
X83146000Y-54864000D01*
X83146000Y-54864000D02*
X83400000Y-54610000D01*
X73152000Y-54610000D02*
X73406000Y-54864000D01*
X73152000Y-49784000D02*
X73152000Y-54610000D01*
X73025000Y-49657000D02*
X73152000Y-49784000D01*
X71374000Y-49657000D02*
X73025000Y-49657000D01*
%TO.N,ICSP_MISO*%
X84200000Y-55118000D02*
X84200000Y-53600000D01*
X83946000Y-55372000D02*
X84200000Y-55118000D01*
X70238001Y-55372000D02*
X83946000Y-55372000D01*
X69984001Y-55118000D02*
X70238001Y-55372000D01*
X69984001Y-47251001D02*
X69984001Y-55118000D01*
X69850000Y-47117000D02*
X69984001Y-47251001D01*
X68834000Y-47117000D02*
X69850000Y-47117000D01*
%TO.N,SNS_LATCH*%
X82804000Y-57404000D02*
X83312000Y-57404000D01*
X82600000Y-57200000D02*
X82804000Y-57404000D01*
X82600000Y-56134000D02*
X82600000Y-57200000D01*
%TO.N,GBA_POWER_SEL*%
X86700001Y-43655001D02*
X86098000Y-43053000D01*
X86700001Y-66761001D02*
X86700001Y-43655001D01*
X86868000Y-66929000D02*
X86700001Y-66761001D01*
X90170000Y-66929000D02*
X86868000Y-66929000D01*
X78740000Y-43053000D02*
X78613000Y-43180000D01*
X84455000Y-43053000D02*
X78740000Y-43053000D01*
D15*
%TO.N,+5V*%
X65278000Y-73406000D02*
X65278000Y-76962000D01*
X64008000Y-73152000D02*
X65024000Y-73152000D01*
X63761990Y-72905990D02*
X64008000Y-73152000D01*
X63761990Y-41902010D02*
X63761990Y-72905990D01*
X65024000Y-73152000D02*
X65278000Y-73406000D01*
X64008000Y-41656000D02*
X63761990Y-41902010D01*
X66294000Y-41656000D02*
X64008000Y-41656000D01*
%TO.N,VCC*%
X71374000Y-45720000D02*
X71374000Y-47117000D01*
X71120000Y-45466000D02*
X71374000Y-45720000D01*
X65786000Y-45466000D02*
X71120000Y-45466000D01*
X65532000Y-45720000D02*
X65786000Y-45466000D01*
X65532000Y-48514000D02*
X65532000Y-45720000D01*
X78232000Y-60741030D02*
X78232000Y-56769000D01*
X78232000Y-56769000D02*
X67183000Y-56769000D01*
X87249000Y-50800000D02*
X87249000Y-61468000D01*
X87662000Y-61881000D02*
X90492000Y-61881000D01*
X87249000Y-61468000D02*
X87662000Y-61881000D01*
D14*
%TO.N,Net-(J1-Pad1)*%
X81661000Y-73244000D02*
X81661000Y-71519000D01*
X81661000Y-71519000D02*
X81670000Y-71510000D01*
D15*
%TO.N,+3V3*%
X62738000Y-49784000D02*
X62738000Y-76962000D01*
%TD*%
D16*
%TO.N,GND*%
X92316439Y-26830461D02*
X92380348Y-26849756D01*
X92439289Y-26881096D01*
X92491021Y-26923287D01*
X92533573Y-26974723D01*
X92565326Y-27033451D01*
X92585066Y-27097219D01*
X92594000Y-27182217D01*
X92594001Y-78732135D01*
X92585538Y-78818440D01*
X92566244Y-78882346D01*
X92534905Y-78941287D01*
X92492713Y-78993021D01*
X92441272Y-79035576D01*
X92382550Y-79067326D01*
X92318781Y-79087066D01*
X92233773Y-79096001D01*
X40312970Y-79097397D01*
X40260179Y-79083043D01*
X40198273Y-79052298D01*
X40143520Y-79010116D01*
X40098004Y-78958103D01*
X40063456Y-78898237D01*
X40041195Y-78832804D01*
X40030110Y-78749606D01*
X40030000Y-78738042D01*
X40030000Y-76840757D01*
X53887000Y-76840757D01*
X53887000Y-77083243D01*
X53934307Y-77321069D01*
X54027102Y-77545097D01*
X54161820Y-77746717D01*
X54333283Y-77918180D01*
X54534903Y-78052898D01*
X54758931Y-78145693D01*
X54996757Y-78193000D01*
X55239243Y-78193000D01*
X55477069Y-78145693D01*
X55701097Y-78052898D01*
X55902717Y-77918180D01*
X56074180Y-77746717D01*
X56208898Y-77545097D01*
X56301693Y-77321069D01*
X56349000Y-77083243D01*
X56349000Y-76840757D01*
X56427000Y-76840757D01*
X56427000Y-77083243D01*
X56474307Y-77321069D01*
X56567102Y-77545097D01*
X56701820Y-77746717D01*
X56873283Y-77918180D01*
X57074903Y-78052898D01*
X57298931Y-78145693D01*
X57536757Y-78193000D01*
X57779243Y-78193000D01*
X58017069Y-78145693D01*
X58241097Y-78052898D01*
X58442717Y-77918180D01*
X58614180Y-77746717D01*
X58748898Y-77545097D01*
X58841693Y-77321069D01*
X58889000Y-77083243D01*
X58889000Y-76840757D01*
X58967000Y-76840757D01*
X58967000Y-77083243D01*
X59014307Y-77321069D01*
X59107102Y-77545097D01*
X59241820Y-77746717D01*
X59413283Y-77918180D01*
X59614903Y-78052898D01*
X59838931Y-78145693D01*
X60076757Y-78193000D01*
X60319243Y-78193000D01*
X60557069Y-78145693D01*
X60781097Y-78052898D01*
X60982717Y-77918180D01*
X61154180Y-77746717D01*
X61288898Y-77545097D01*
X61381693Y-77321069D01*
X61429000Y-77083243D01*
X61429000Y-76840757D01*
X61507000Y-76840757D01*
X61507000Y-77083243D01*
X61554307Y-77321069D01*
X61647102Y-77545097D01*
X61781820Y-77746717D01*
X61953283Y-77918180D01*
X62154903Y-78052898D01*
X62378931Y-78145693D01*
X62616757Y-78193000D01*
X62859243Y-78193000D01*
X63097069Y-78145693D01*
X63321097Y-78052898D01*
X63522717Y-77918180D01*
X63694180Y-77746717D01*
X63828898Y-77545097D01*
X63921693Y-77321069D01*
X63969000Y-77083243D01*
X63969000Y-76840757D01*
X63921693Y-76602931D01*
X63828898Y-76378903D01*
X63694180Y-76177283D01*
X63522717Y-76005820D01*
X63321097Y-75871102D01*
X63319000Y-75870233D01*
X63319000Y-73282040D01*
X63349174Y-73318807D01*
X63371346Y-73337003D01*
X63576983Y-73542640D01*
X63595183Y-73564817D01*
X63683652Y-73637421D01*
X63699463Y-73645872D01*
X63784585Y-73691371D01*
X63894104Y-73724593D01*
X64008000Y-73735811D01*
X64036540Y-73733000D01*
X64697000Y-73733000D01*
X64697001Y-75870233D01*
X64694903Y-75871102D01*
X64493283Y-76005820D01*
X64321820Y-76177283D01*
X64187102Y-76378903D01*
X64094307Y-76602931D01*
X64047000Y-76840757D01*
X64047000Y-77083243D01*
X64094307Y-77321069D01*
X64187102Y-77545097D01*
X64321820Y-77746717D01*
X64493283Y-77918180D01*
X64694903Y-78052898D01*
X64918931Y-78145693D01*
X65156757Y-78193000D01*
X65399243Y-78193000D01*
X65637069Y-78145693D01*
X65861097Y-78052898D01*
X66062717Y-77918180D01*
X66234180Y-77746717D01*
X66368898Y-77545097D01*
X66461693Y-77321069D01*
X66482387Y-77217033D01*
X66613705Y-77217033D01*
X66686600Y-77447079D01*
X66802974Y-77658484D01*
X66958355Y-77843123D01*
X67146771Y-77993901D01*
X67360982Y-78105024D01*
X67562967Y-78166292D01*
X67754500Y-78095973D01*
X67754500Y-77025500D01*
X67881500Y-77025500D01*
X67881500Y-78095973D01*
X68073033Y-78166292D01*
X68275018Y-78105024D01*
X68489229Y-77993901D01*
X68677645Y-77843123D01*
X68833026Y-77658484D01*
X68949400Y-77447079D01*
X69022295Y-77217033D01*
X69153705Y-77217033D01*
X69226600Y-77447079D01*
X69342974Y-77658484D01*
X69498355Y-77843123D01*
X69686771Y-77993901D01*
X69900982Y-78105024D01*
X70102967Y-78166292D01*
X70294500Y-78095973D01*
X70294500Y-77025500D01*
X70421500Y-77025500D01*
X70421500Y-78095973D01*
X70613033Y-78166292D01*
X70815018Y-78105024D01*
X71029229Y-77993901D01*
X71217645Y-77843123D01*
X71373026Y-77658484D01*
X71489400Y-77447079D01*
X71562295Y-77217033D01*
X71492114Y-77025500D01*
X70421500Y-77025500D01*
X70294500Y-77025500D01*
X69223886Y-77025500D01*
X69153705Y-77217033D01*
X69022295Y-77217033D01*
X68952114Y-77025500D01*
X67881500Y-77025500D01*
X67754500Y-77025500D01*
X66683886Y-77025500D01*
X66613705Y-77217033D01*
X66482387Y-77217033D01*
X66509000Y-77083243D01*
X66509000Y-76840757D01*
X66482388Y-76706967D01*
X66613705Y-76706967D01*
X66683886Y-76898500D01*
X67754500Y-76898500D01*
X67754500Y-75828027D01*
X67881500Y-75828027D01*
X67881500Y-76898500D01*
X68952114Y-76898500D01*
X69022295Y-76706967D01*
X69153705Y-76706967D01*
X69223886Y-76898500D01*
X70294500Y-76898500D01*
X70294500Y-75828027D01*
X70421500Y-75828027D01*
X70421500Y-76898500D01*
X71492114Y-76898500D01*
X71562295Y-76706967D01*
X71489400Y-76476921D01*
X71373026Y-76265516D01*
X71243837Y-76112000D01*
X71665157Y-76112000D01*
X71665157Y-77812000D01*
X71672513Y-77886689D01*
X71694299Y-77958508D01*
X71729678Y-78024696D01*
X71777289Y-78082711D01*
X71835304Y-78130322D01*
X71901492Y-78165701D01*
X71973311Y-78187487D01*
X72048000Y-78194843D01*
X73748000Y-78194843D01*
X73822689Y-78187487D01*
X73894508Y-78165701D01*
X73960696Y-78130322D01*
X74018711Y-78082711D01*
X74066322Y-78024696D01*
X74101701Y-77958508D01*
X74123487Y-77886689D01*
X74130843Y-77812000D01*
X74130843Y-76112000D01*
X76745157Y-76112000D01*
X76745157Y-77812000D01*
X76752513Y-77886689D01*
X76774299Y-77958508D01*
X76809678Y-78024696D01*
X76857289Y-78082711D01*
X76915304Y-78130322D01*
X76981492Y-78165701D01*
X77053311Y-78187487D01*
X77128000Y-78194843D01*
X78828000Y-78194843D01*
X78902689Y-78187487D01*
X78974508Y-78165701D01*
X79040696Y-78130322D01*
X79098711Y-78082711D01*
X79146322Y-78024696D01*
X79181701Y-77958508D01*
X79203487Y-77886689D01*
X79210843Y-77812000D01*
X79210843Y-76840757D01*
X79287000Y-76840757D01*
X79287000Y-77083243D01*
X79334307Y-77321069D01*
X79427102Y-77545097D01*
X79561820Y-77746717D01*
X79733283Y-77918180D01*
X79934903Y-78052898D01*
X80158931Y-78145693D01*
X80396757Y-78193000D01*
X80639243Y-78193000D01*
X80877069Y-78145693D01*
X81101097Y-78052898D01*
X81302717Y-77918180D01*
X81474180Y-77746717D01*
X81608898Y-77545097D01*
X81701693Y-77321069D01*
X81749000Y-77083243D01*
X81749000Y-76840757D01*
X81827000Y-76840757D01*
X81827000Y-77083243D01*
X81874307Y-77321069D01*
X81967102Y-77545097D01*
X82101820Y-77746717D01*
X82273283Y-77918180D01*
X82474903Y-78052898D01*
X82698931Y-78145693D01*
X82936757Y-78193000D01*
X83179243Y-78193000D01*
X83417069Y-78145693D01*
X83641097Y-78052898D01*
X83842717Y-77918180D01*
X84014180Y-77746717D01*
X84148898Y-77545097D01*
X84241693Y-77321069D01*
X84289000Y-77083243D01*
X84289000Y-76840757D01*
X84367000Y-76840757D01*
X84367000Y-77083243D01*
X84414307Y-77321069D01*
X84507102Y-77545097D01*
X84641820Y-77746717D01*
X84813283Y-77918180D01*
X85014903Y-78052898D01*
X85238931Y-78145693D01*
X85476757Y-78193000D01*
X85719243Y-78193000D01*
X85957069Y-78145693D01*
X86181097Y-78052898D01*
X86382717Y-77918180D01*
X86554180Y-77746717D01*
X86688898Y-77545097D01*
X86781693Y-77321069D01*
X86829000Y-77083243D01*
X86829000Y-76840757D01*
X86907000Y-76840757D01*
X86907000Y-77083243D01*
X86954307Y-77321069D01*
X87047102Y-77545097D01*
X87181820Y-77746717D01*
X87353283Y-77918180D01*
X87554903Y-78052898D01*
X87778931Y-78145693D01*
X88016757Y-78193000D01*
X88259243Y-78193000D01*
X88497069Y-78145693D01*
X88721097Y-78052898D01*
X88922717Y-77918180D01*
X89094180Y-77746717D01*
X89228898Y-77545097D01*
X89321693Y-77321069D01*
X89369000Y-77083243D01*
X89369000Y-76840757D01*
X89447000Y-76840757D01*
X89447000Y-77083243D01*
X89494307Y-77321069D01*
X89587102Y-77545097D01*
X89721820Y-77746717D01*
X89893283Y-77918180D01*
X90094903Y-78052898D01*
X90318931Y-78145693D01*
X90556757Y-78193000D01*
X90799243Y-78193000D01*
X91037069Y-78145693D01*
X91261097Y-78052898D01*
X91462717Y-77918180D01*
X91634180Y-77746717D01*
X91768898Y-77545097D01*
X91861693Y-77321069D01*
X91909000Y-77083243D01*
X91909000Y-76840757D01*
X91861693Y-76602931D01*
X91768898Y-76378903D01*
X91634180Y-76177283D01*
X91462717Y-76005820D01*
X91261097Y-75871102D01*
X91037069Y-75778307D01*
X90799243Y-75731000D01*
X90556757Y-75731000D01*
X90318931Y-75778307D01*
X90094903Y-75871102D01*
X89893283Y-76005820D01*
X89721820Y-76177283D01*
X89587102Y-76378903D01*
X89494307Y-76602931D01*
X89447000Y-76840757D01*
X89369000Y-76840757D01*
X89321693Y-76602931D01*
X89228898Y-76378903D01*
X89094180Y-76177283D01*
X88922717Y-76005820D01*
X88721097Y-75871102D01*
X88497069Y-75778307D01*
X88259243Y-75731000D01*
X88016757Y-75731000D01*
X87778931Y-75778307D01*
X87554903Y-75871102D01*
X87353283Y-76005820D01*
X87181820Y-76177283D01*
X87047102Y-76378903D01*
X86954307Y-76602931D01*
X86907000Y-76840757D01*
X86829000Y-76840757D01*
X86781693Y-76602931D01*
X86688898Y-76378903D01*
X86554180Y-76177283D01*
X86382717Y-76005820D01*
X86181097Y-75871102D01*
X85957069Y-75778307D01*
X85719243Y-75731000D01*
X85476757Y-75731000D01*
X85238931Y-75778307D01*
X85014903Y-75871102D01*
X84813283Y-76005820D01*
X84641820Y-76177283D01*
X84507102Y-76378903D01*
X84414307Y-76602931D01*
X84367000Y-76840757D01*
X84289000Y-76840757D01*
X84241693Y-76602931D01*
X84148898Y-76378903D01*
X84014180Y-76177283D01*
X83842717Y-76005820D01*
X83641097Y-75871102D01*
X83417069Y-75778307D01*
X83179243Y-75731000D01*
X82936757Y-75731000D01*
X82698931Y-75778307D01*
X82474903Y-75871102D01*
X82273283Y-76005820D01*
X82101820Y-76177283D01*
X81967102Y-76378903D01*
X81874307Y-76602931D01*
X81827000Y-76840757D01*
X81749000Y-76840757D01*
X81701693Y-76602931D01*
X81608898Y-76378903D01*
X81474180Y-76177283D01*
X81302717Y-76005820D01*
X81101097Y-75871102D01*
X80877069Y-75778307D01*
X80639243Y-75731000D01*
X80396757Y-75731000D01*
X80158931Y-75778307D01*
X79934903Y-75871102D01*
X79733283Y-76005820D01*
X79561820Y-76177283D01*
X79427102Y-76378903D01*
X79334307Y-76602931D01*
X79287000Y-76840757D01*
X79210843Y-76840757D01*
X79210843Y-76112000D01*
X79203487Y-76037311D01*
X79181701Y-75965492D01*
X79146322Y-75899304D01*
X79098711Y-75841289D01*
X79040696Y-75793678D01*
X78974508Y-75758299D01*
X78902689Y-75736513D01*
X78828000Y-75729157D01*
X77128000Y-75729157D01*
X77053311Y-75736513D01*
X76981492Y-75758299D01*
X76915304Y-75793678D01*
X76857289Y-75841289D01*
X76809678Y-75899304D01*
X76774299Y-75965492D01*
X76752513Y-76037311D01*
X76745157Y-76112000D01*
X74130843Y-76112000D01*
X74123487Y-76037311D01*
X74101701Y-75965492D01*
X74066322Y-75899304D01*
X74018711Y-75841289D01*
X73960696Y-75793678D01*
X73894508Y-75758299D01*
X73822689Y-75736513D01*
X73748000Y-75729157D01*
X72048000Y-75729157D01*
X71973311Y-75736513D01*
X71901492Y-75758299D01*
X71835304Y-75793678D01*
X71777289Y-75841289D01*
X71729678Y-75899304D01*
X71694299Y-75965492D01*
X71672513Y-76037311D01*
X71665157Y-76112000D01*
X71243837Y-76112000D01*
X71217645Y-76080877D01*
X71029229Y-75930099D01*
X70815018Y-75818976D01*
X70613033Y-75757708D01*
X70421500Y-75828027D01*
X70294500Y-75828027D01*
X70102967Y-75757708D01*
X69900982Y-75818976D01*
X69686771Y-75930099D01*
X69498355Y-76080877D01*
X69342974Y-76265516D01*
X69226600Y-76476921D01*
X69153705Y-76706967D01*
X69022295Y-76706967D01*
X68949400Y-76476921D01*
X68833026Y-76265516D01*
X68677645Y-76080877D01*
X68489229Y-75930099D01*
X68275018Y-75818976D01*
X68073033Y-75757708D01*
X67881500Y-75828027D01*
X67754500Y-75828027D01*
X67562967Y-75757708D01*
X67360982Y-75818976D01*
X67146771Y-75930099D01*
X66958355Y-76080877D01*
X66802974Y-76265516D01*
X66686600Y-76476921D01*
X66613705Y-76706967D01*
X66482388Y-76706967D01*
X66461693Y-76602931D01*
X66368898Y-76378903D01*
X66234180Y-76177283D01*
X66062717Y-76005820D01*
X65861097Y-75871102D01*
X65859000Y-75870233D01*
X65859000Y-73434536D01*
X65861811Y-73405999D01*
X65859000Y-73377460D01*
X65850593Y-73292104D01*
X65817371Y-73182585D01*
X65763421Y-73081652D01*
X65690817Y-72993183D01*
X65668641Y-72974984D01*
X65455017Y-72761360D01*
X65436817Y-72739183D01*
X65348348Y-72666579D01*
X65247415Y-72612629D01*
X65137896Y-72579407D01*
X65052540Y-72571000D01*
X65024000Y-72568189D01*
X64995460Y-72571000D01*
X64342990Y-72571000D01*
X64342990Y-71986777D01*
X80479997Y-71986777D01*
X80479997Y-72101223D01*
X80502325Y-72213471D01*
X80546122Y-72319207D01*
X80579997Y-72369905D01*
X80579998Y-73372636D01*
X80547542Y-73421210D01*
X80503745Y-73526946D01*
X80481417Y-73639194D01*
X80481417Y-73753640D01*
X80503745Y-73865888D01*
X80547542Y-73971624D01*
X80611125Y-74066783D01*
X80692051Y-74147709D01*
X80787210Y-74211292D01*
X80892946Y-74255089D01*
X81005194Y-74277417D01*
X81119640Y-74277417D01*
X81231888Y-74255089D01*
X81337624Y-74211292D01*
X81432783Y-74147709D01*
X81513709Y-74066783D01*
X81577292Y-73971624D01*
X81621089Y-73865888D01*
X81629222Y-73825000D01*
X81718223Y-73825000D01*
X81830471Y-73802672D01*
X81936207Y-73758875D01*
X82031366Y-73695292D01*
X82112292Y-73614366D01*
X82175875Y-73519207D01*
X82219672Y-73413471D01*
X82242000Y-73301223D01*
X82242000Y-73186777D01*
X82219672Y-73074529D01*
X82175875Y-72968793D01*
X82142000Y-72918095D01*
X82142000Y-71849374D01*
X82184875Y-71785207D01*
X82228672Y-71679471D01*
X82251000Y-71567223D01*
X82251000Y-71452777D01*
X82228672Y-71340529D01*
X82184875Y-71234793D01*
X82121292Y-71139634D01*
X82040366Y-71058708D01*
X81945207Y-70995125D01*
X81839471Y-70951328D01*
X81727223Y-70929000D01*
X81612777Y-70929000D01*
X81500529Y-70951328D01*
X81394793Y-70995125D01*
X81299634Y-71058708D01*
X81218708Y-71139634D01*
X81155125Y-71234793D01*
X81111328Y-71340529D01*
X81089000Y-71452777D01*
X81089000Y-71463000D01*
X81003774Y-71463000D01*
X80891526Y-71485328D01*
X80785790Y-71529125D01*
X80690631Y-71592708D01*
X80609705Y-71673634D01*
X80546122Y-71768793D01*
X80502325Y-71874529D01*
X80479997Y-71986777D01*
X64342990Y-71986777D01*
X64342990Y-52573031D01*
X64374478Y-52598872D01*
X64458039Y-52643536D01*
X64548708Y-52671040D01*
X64619374Y-52678000D01*
X64619375Y-52678000D01*
X64642999Y-52680327D01*
X64666623Y-52678000D01*
X67700812Y-52678000D01*
X67743102Y-52780097D01*
X67877820Y-52981717D01*
X68049283Y-53153180D01*
X68250903Y-53287898D01*
X68474931Y-53380693D01*
X68712757Y-53428000D01*
X68955243Y-53428000D01*
X69193069Y-53380693D01*
X69417097Y-53287898D01*
X69503002Y-53230498D01*
X69503002Y-55094364D01*
X69500674Y-55118000D01*
X69509961Y-55212292D01*
X69537466Y-55302960D01*
X69537466Y-55302961D01*
X69582130Y-55386522D01*
X69642238Y-55459764D01*
X69660590Y-55474825D01*
X69881171Y-55695406D01*
X69896237Y-55713764D01*
X69969479Y-55773872D01*
X70053040Y-55818536D01*
X70143709Y-55846040D01*
X70214375Y-55853000D01*
X70214376Y-55853000D01*
X70238000Y-55855327D01*
X70261624Y-55853000D01*
X82088996Y-55853000D01*
X82085125Y-55858793D01*
X82041328Y-55964529D01*
X82019000Y-56076777D01*
X82019000Y-56191223D01*
X82041328Y-56303471D01*
X82085125Y-56409207D01*
X82119000Y-56459905D01*
X82119001Y-57176364D01*
X82116673Y-57200000D01*
X82125960Y-57294292D01*
X82152909Y-57383128D01*
X82153465Y-57384961D01*
X82198129Y-57468522D01*
X82258237Y-57541764D01*
X82276590Y-57556826D01*
X82447166Y-57727401D01*
X82462236Y-57745764D01*
X82535478Y-57805872D01*
X82581165Y-57830292D01*
X82619038Y-57850536D01*
X82709707Y-57878040D01*
X82804000Y-57887327D01*
X82827626Y-57885000D01*
X82986095Y-57885000D01*
X83036793Y-57918875D01*
X83142529Y-57962672D01*
X83254777Y-57985000D01*
X83369223Y-57985000D01*
X83481471Y-57962672D01*
X83587207Y-57918875D01*
X83682366Y-57855292D01*
X83763292Y-57774366D01*
X83826875Y-57679207D01*
X83870672Y-57573471D01*
X83893000Y-57461223D01*
X83893000Y-57346777D01*
X83870672Y-57234529D01*
X83826875Y-57128793D01*
X83763292Y-57033634D01*
X83682366Y-56952708D01*
X83587207Y-56889125D01*
X83481471Y-56845328D01*
X83369223Y-56823000D01*
X83254777Y-56823000D01*
X83142529Y-56845328D01*
X83081000Y-56870814D01*
X83081000Y-56459905D01*
X83114875Y-56409207D01*
X83158672Y-56303471D01*
X83181000Y-56191223D01*
X83181000Y-56076777D01*
X83158672Y-55964529D01*
X83114875Y-55858793D01*
X83111004Y-55853000D01*
X83922374Y-55853000D01*
X83946000Y-55855327D01*
X83969626Y-55853000D01*
X84040292Y-55846040D01*
X84130961Y-55818536D01*
X84214522Y-55773872D01*
X84287764Y-55713764D01*
X84302830Y-55695406D01*
X84523406Y-55474830D01*
X84541764Y-55459764D01*
X84601872Y-55386522D01*
X84609001Y-55373185D01*
X84609001Y-65686000D01*
X80414626Y-65686000D01*
X80390999Y-65683673D01*
X80296707Y-65692960D01*
X80269203Y-65701304D01*
X80206039Y-65720464D01*
X80122478Y-65765128D01*
X80049236Y-65825236D01*
X80034170Y-65843594D01*
X79846594Y-66031170D01*
X79828236Y-66046236D01*
X79768128Y-66119478D01*
X79723464Y-66203040D01*
X79713341Y-66236412D01*
X79695960Y-66293708D01*
X79686673Y-66388000D01*
X79689000Y-66411627D01*
X79689001Y-67238094D01*
X79670000Y-67266531D01*
X79651000Y-67238095D01*
X79651000Y-57966744D01*
X79671471Y-57962672D01*
X79777207Y-57918875D01*
X79872366Y-57855292D01*
X79953292Y-57774366D01*
X80016875Y-57679207D01*
X80060672Y-57573471D01*
X80083000Y-57461223D01*
X80083000Y-57346777D01*
X80060672Y-57234529D01*
X80016875Y-57128793D01*
X79953292Y-57033634D01*
X79872366Y-56952708D01*
X79777207Y-56889125D01*
X79671471Y-56845328D01*
X79559223Y-56823000D01*
X79444777Y-56823000D01*
X79332529Y-56845328D01*
X79226793Y-56889125D01*
X79131634Y-56952708D01*
X79050708Y-57033634D01*
X78987125Y-57128793D01*
X78943328Y-57234529D01*
X78931432Y-57294331D01*
X78846593Y-57379171D01*
X78828236Y-57394236D01*
X78813000Y-57412801D01*
X78813000Y-56797540D01*
X78815811Y-56769000D01*
X78813000Y-56740460D01*
X78813000Y-56711777D01*
X78807404Y-56683645D01*
X78804593Y-56655104D01*
X78796267Y-56627657D01*
X78790672Y-56599529D01*
X78779698Y-56573034D01*
X78771371Y-56545585D01*
X78757850Y-56520289D01*
X78746875Y-56493793D01*
X78730941Y-56469946D01*
X78717421Y-56444652D01*
X78699227Y-56422482D01*
X78683292Y-56398634D01*
X78663013Y-56378355D01*
X78644817Y-56356183D01*
X78622645Y-56337987D01*
X78602366Y-56317708D01*
X78578518Y-56301773D01*
X78556348Y-56283579D01*
X78531054Y-56270059D01*
X78507207Y-56254125D01*
X78480711Y-56243150D01*
X78455415Y-56229629D01*
X78427966Y-56221302D01*
X78401471Y-56210328D01*
X78373343Y-56204733D01*
X78345896Y-56196407D01*
X78317355Y-56193596D01*
X78289223Y-56188000D01*
X78260540Y-56188000D01*
X78232000Y-56185189D01*
X78203460Y-56188000D01*
X67125777Y-56188000D01*
X67097645Y-56193596D01*
X67069104Y-56196407D01*
X67041657Y-56204733D01*
X67013529Y-56210328D01*
X66987034Y-56221302D01*
X66959585Y-56229629D01*
X66934289Y-56243150D01*
X66907793Y-56254125D01*
X66883946Y-56270059D01*
X66858652Y-56283579D01*
X66836482Y-56301773D01*
X66812634Y-56317708D01*
X66792355Y-56337987D01*
X66770183Y-56356183D01*
X66751987Y-56378355D01*
X66731708Y-56398634D01*
X66715773Y-56422482D01*
X66697579Y-56444652D01*
X66684059Y-56469946D01*
X66668125Y-56493793D01*
X66657150Y-56520289D01*
X66643629Y-56545585D01*
X66635302Y-56573034D01*
X66624328Y-56599529D01*
X66618733Y-56627657D01*
X66610407Y-56655104D01*
X66607596Y-56683645D01*
X66602000Y-56711777D01*
X66602000Y-56740460D01*
X66599189Y-56769000D01*
X66602000Y-56797540D01*
X66602000Y-56826223D01*
X66607596Y-56854355D01*
X66610407Y-56882896D01*
X66618733Y-56910343D01*
X66624328Y-56938471D01*
X66635302Y-56964966D01*
X66643629Y-56992415D01*
X66657150Y-57017711D01*
X66668125Y-57044207D01*
X66684059Y-57068054D01*
X66697579Y-57093348D01*
X66715773Y-57115518D01*
X66731708Y-57139366D01*
X66751987Y-57159645D01*
X66770183Y-57181817D01*
X66792355Y-57200013D01*
X66812634Y-57220292D01*
X66836482Y-57236227D01*
X66858652Y-57254421D01*
X66883946Y-57267941D01*
X66907793Y-57283875D01*
X66934289Y-57294850D01*
X66959585Y-57308371D01*
X66987034Y-57316698D01*
X67013529Y-57327672D01*
X67041657Y-57333267D01*
X67069104Y-57341593D01*
X67097645Y-57344404D01*
X67125777Y-57350000D01*
X77651001Y-57350000D01*
X77651000Y-60683807D01*
X77651000Y-60798253D01*
X77656596Y-60826386D01*
X77659407Y-60854925D01*
X77667732Y-60882370D01*
X77673328Y-60910501D01*
X77684304Y-60936999D01*
X77692629Y-60964444D01*
X77706148Y-60989737D01*
X77717125Y-61016237D01*
X77733062Y-61040088D01*
X77746579Y-61065377D01*
X77764771Y-61087544D01*
X77780708Y-61111396D01*
X77800989Y-61131677D01*
X77819183Y-61153847D01*
X77841355Y-61172043D01*
X77861634Y-61192322D01*
X77885482Y-61208257D01*
X77907652Y-61226451D01*
X77932946Y-61239971D01*
X77956793Y-61255905D01*
X77983289Y-61266880D01*
X78008585Y-61280401D01*
X78036034Y-61288728D01*
X78062529Y-61299702D01*
X78090657Y-61305297D01*
X78118104Y-61313623D01*
X78146645Y-61316434D01*
X78174777Y-61322030D01*
X78203460Y-61322030D01*
X78232000Y-61324841D01*
X78260540Y-61322030D01*
X78289223Y-61322030D01*
X78317356Y-61316434D01*
X78345895Y-61313623D01*
X78373340Y-61305298D01*
X78401471Y-61299702D01*
X78427969Y-61288726D01*
X78455414Y-61280401D01*
X78480707Y-61266882D01*
X78507207Y-61255905D01*
X78531058Y-61239968D01*
X78556347Y-61226451D01*
X78578514Y-61208259D01*
X78602366Y-61192322D01*
X78622647Y-61172041D01*
X78644817Y-61153847D01*
X78663013Y-61131675D01*
X78683292Y-61111396D01*
X78689001Y-61102852D01*
X78689000Y-67238095D01*
X78655125Y-67288793D01*
X78611328Y-67394529D01*
X78589000Y-67506777D01*
X78589000Y-67621223D01*
X78611328Y-67733471D01*
X78655125Y-67839207D01*
X78718708Y-67934366D01*
X78799634Y-68015292D01*
X78894793Y-68078875D01*
X79000529Y-68122672D01*
X79112777Y-68145000D01*
X79227223Y-68145000D01*
X79339471Y-68122672D01*
X79445207Y-68078875D01*
X79540366Y-68015292D01*
X79621292Y-67934366D01*
X79670000Y-67861469D01*
X79718708Y-67934366D01*
X79799634Y-68015292D01*
X79894793Y-68078875D01*
X80000529Y-68122672D01*
X80112777Y-68145000D01*
X80227223Y-68145000D01*
X80339471Y-68122672D01*
X80445207Y-68078875D01*
X80540366Y-68015292D01*
X80621292Y-67934366D01*
X80684875Y-67839207D01*
X80728672Y-67733471D01*
X80748712Y-67632725D01*
X80839471Y-67614672D01*
X80945207Y-67570875D01*
X80995905Y-67537000D01*
X85320374Y-67537000D01*
X85344000Y-67539327D01*
X85367626Y-67537000D01*
X85438292Y-67530040D01*
X85528961Y-67502536D01*
X85612522Y-67457872D01*
X85685764Y-67397764D01*
X85700830Y-67379406D01*
X85921406Y-67158830D01*
X85939764Y-67143764D01*
X85999872Y-67070522D01*
X86044536Y-66986961D01*
X86072040Y-66896292D01*
X86079000Y-66825626D01*
X86079000Y-66825625D01*
X86081327Y-66802001D01*
X86079000Y-66778377D01*
X86079000Y-43714237D01*
X86219002Y-43854239D01*
X86219001Y-66737375D01*
X86216674Y-66761001D01*
X86220712Y-66802001D01*
X86225961Y-66855292D01*
X86253465Y-66945961D01*
X86298129Y-67029523D01*
X86358237Y-67102765D01*
X86376595Y-67117831D01*
X86511170Y-67252406D01*
X86526236Y-67270764D01*
X86599478Y-67330872D01*
X86683039Y-67375536D01*
X86773708Y-67403040D01*
X86844374Y-67410000D01*
X86844383Y-67410000D01*
X86867999Y-67412326D01*
X86891615Y-67410000D01*
X89844095Y-67410000D01*
X89894793Y-67443875D01*
X90000529Y-67487672D01*
X90112777Y-67510000D01*
X90227223Y-67510000D01*
X90339471Y-67487672D01*
X90445207Y-67443875D01*
X90540366Y-67380292D01*
X90621292Y-67299366D01*
X90684875Y-67204207D01*
X90728672Y-67098471D01*
X90751000Y-66986223D01*
X90751000Y-66871777D01*
X90728672Y-66759529D01*
X90684875Y-66653793D01*
X90621292Y-66558634D01*
X90540366Y-66477708D01*
X90445207Y-66414125D01*
X90339471Y-66370328D01*
X90227223Y-66348000D01*
X90112777Y-66348000D01*
X90000529Y-66370328D01*
X89894793Y-66414125D01*
X89844095Y-66448000D01*
X87181001Y-66448000D01*
X87181001Y-62221659D01*
X87230987Y-62271645D01*
X87249183Y-62293817D01*
X87337652Y-62366421D01*
X87438585Y-62420371D01*
X87548104Y-62453593D01*
X87661999Y-62464811D01*
X87690539Y-62462000D01*
X88967276Y-62462000D01*
X89046626Y-62653568D01*
X89225119Y-62920702D01*
X89452298Y-63147881D01*
X89719432Y-63326374D01*
X90016255Y-63449322D01*
X90331360Y-63512000D01*
X90652640Y-63512000D01*
X90967745Y-63449322D01*
X91264568Y-63326374D01*
X91531702Y-63147881D01*
X91758881Y-62920702D01*
X91937374Y-62653568D01*
X92060322Y-62356745D01*
X92123000Y-62041640D01*
X92123000Y-61720360D01*
X92060322Y-61405255D01*
X91937374Y-61108432D01*
X91758881Y-60841298D01*
X91531702Y-60614119D01*
X91264568Y-60435626D01*
X90967745Y-60312678D01*
X90652640Y-60250000D01*
X90331360Y-60250000D01*
X90016255Y-60312678D01*
X89719432Y-60435626D01*
X89452298Y-60614119D01*
X89225119Y-60841298D01*
X89046626Y-61108432D01*
X88967276Y-61300000D01*
X87902658Y-61300000D01*
X87830000Y-61227343D01*
X87830000Y-57720360D01*
X88861000Y-57720360D01*
X88861000Y-58041640D01*
X88923678Y-58356745D01*
X89046626Y-58653568D01*
X89225119Y-58920702D01*
X89452298Y-59147881D01*
X89719432Y-59326374D01*
X90016255Y-59449322D01*
X90331360Y-59512000D01*
X90652640Y-59512000D01*
X90967745Y-59449322D01*
X91264568Y-59326374D01*
X91531702Y-59147881D01*
X91758881Y-58920702D01*
X91937374Y-58653568D01*
X92060322Y-58356745D01*
X92123000Y-58041640D01*
X92123000Y-57720360D01*
X92060322Y-57405255D01*
X91937374Y-57108432D01*
X91758881Y-56841298D01*
X91531702Y-56614119D01*
X91264568Y-56435626D01*
X90967745Y-56312678D01*
X90652640Y-56250000D01*
X90331360Y-56250000D01*
X90016255Y-56312678D01*
X89719432Y-56435626D01*
X89452298Y-56614119D01*
X89225119Y-56841298D01*
X89046626Y-57108432D01*
X88923678Y-57405255D01*
X88861000Y-57720360D01*
X87830000Y-57720360D01*
X87830000Y-53720360D01*
X88861000Y-53720360D01*
X88861000Y-54041640D01*
X88923678Y-54356745D01*
X89046626Y-54653568D01*
X89225119Y-54920702D01*
X89452298Y-55147881D01*
X89719432Y-55326374D01*
X90016255Y-55449322D01*
X90331360Y-55512000D01*
X90652640Y-55512000D01*
X90967745Y-55449322D01*
X91264568Y-55326374D01*
X91531702Y-55147881D01*
X91758881Y-54920702D01*
X91937374Y-54653568D01*
X92060322Y-54356745D01*
X92123000Y-54041640D01*
X92123000Y-53720360D01*
X92060322Y-53405255D01*
X91937374Y-53108432D01*
X91758881Y-52841298D01*
X91531702Y-52614119D01*
X91264568Y-52435626D01*
X90967745Y-52312678D01*
X90652640Y-52250000D01*
X90331360Y-52250000D01*
X90016255Y-52312678D01*
X89719432Y-52435626D01*
X89452298Y-52614119D01*
X89225119Y-52841298D01*
X89046626Y-53108432D01*
X88923678Y-53405255D01*
X88861000Y-53720360D01*
X87830000Y-53720360D01*
X87830000Y-50742777D01*
X87824404Y-50714645D01*
X87821593Y-50686104D01*
X87813267Y-50658657D01*
X87807672Y-50630529D01*
X87796698Y-50604034D01*
X87788371Y-50576585D01*
X87774850Y-50551289D01*
X87763875Y-50524793D01*
X87747941Y-50500946D01*
X87734421Y-50475652D01*
X87716227Y-50453482D01*
X87700292Y-50429634D01*
X87680013Y-50409355D01*
X87661817Y-50387183D01*
X87639647Y-50368989D01*
X87619366Y-50348708D01*
X87595514Y-50332771D01*
X87573347Y-50314579D01*
X87548058Y-50301062D01*
X87524207Y-50285125D01*
X87497707Y-50274148D01*
X87472414Y-50260629D01*
X87444969Y-50252304D01*
X87418471Y-50241328D01*
X87390340Y-50235732D01*
X87362895Y-50227407D01*
X87334356Y-50224596D01*
X87306223Y-50219000D01*
X87277540Y-50219000D01*
X87249000Y-50216189D01*
X87220460Y-50219000D01*
X87191777Y-50219000D01*
X87181001Y-50221144D01*
X87181001Y-49720360D01*
X88861000Y-49720360D01*
X88861000Y-50041640D01*
X88923678Y-50356745D01*
X89046626Y-50653568D01*
X89225119Y-50920702D01*
X89452298Y-51147881D01*
X89719432Y-51326374D01*
X90016255Y-51449322D01*
X90331360Y-51512000D01*
X90652640Y-51512000D01*
X90967745Y-51449322D01*
X91264568Y-51326374D01*
X91531702Y-51147881D01*
X91758881Y-50920702D01*
X91937374Y-50653568D01*
X92060322Y-50356745D01*
X92123000Y-50041640D01*
X92123000Y-49720360D01*
X92060322Y-49405255D01*
X91937374Y-49108432D01*
X91758881Y-48841298D01*
X91531702Y-48614119D01*
X91264568Y-48435626D01*
X90967745Y-48312678D01*
X90652640Y-48250000D01*
X90331360Y-48250000D01*
X90016255Y-48312678D01*
X89719432Y-48435626D01*
X89452298Y-48614119D01*
X89225119Y-48841298D01*
X89046626Y-49108432D01*
X88923678Y-49405255D01*
X88861000Y-49720360D01*
X87181001Y-49720360D01*
X87181001Y-43678627D01*
X87183328Y-43655001D01*
X87174041Y-43560708D01*
X87162227Y-43521763D01*
X87146537Y-43470040D01*
X87101873Y-43386479D01*
X87041765Y-43313237D01*
X87023412Y-43298175D01*
X86945597Y-43220360D01*
X88861000Y-43220360D01*
X88861000Y-43541640D01*
X88923678Y-43856745D01*
X89046626Y-44153568D01*
X89225119Y-44420702D01*
X89452298Y-44647881D01*
X89719432Y-44826374D01*
X90016255Y-44949322D01*
X90331360Y-45012000D01*
X90652640Y-45012000D01*
X90967745Y-44949322D01*
X91264568Y-44826374D01*
X91531702Y-44647881D01*
X91758881Y-44420702D01*
X91937374Y-44153568D01*
X92060322Y-43856745D01*
X92123000Y-43541640D01*
X92123000Y-43220360D01*
X92060322Y-42905255D01*
X91937374Y-42608432D01*
X91758881Y-42341298D01*
X91531702Y-42114119D01*
X91264568Y-41935626D01*
X90967745Y-41812678D01*
X90652640Y-41750000D01*
X90331360Y-41750000D01*
X90016255Y-41812678D01*
X89719432Y-41935626D01*
X89452298Y-42114119D01*
X89225119Y-42341298D01*
X89046626Y-42608432D01*
X88923678Y-42905255D01*
X88861000Y-43220360D01*
X86945597Y-43220360D01*
X86668568Y-42943331D01*
X86656672Y-42883529D01*
X86612875Y-42777793D01*
X86549292Y-42682634D01*
X86468366Y-42601708D01*
X86373207Y-42538125D01*
X86267471Y-42494328D01*
X86155223Y-42472000D01*
X86079000Y-42472000D01*
X86079000Y-39220360D01*
X88861000Y-39220360D01*
X88861000Y-39541640D01*
X88923678Y-39856745D01*
X89046626Y-40153568D01*
X89225119Y-40420702D01*
X89452298Y-40647881D01*
X89719432Y-40826374D01*
X90016255Y-40949322D01*
X90331360Y-41012000D01*
X90652640Y-41012000D01*
X90967745Y-40949322D01*
X91264568Y-40826374D01*
X91531702Y-40647881D01*
X91758881Y-40420702D01*
X91937374Y-40153568D01*
X92060322Y-39856745D01*
X92123000Y-39541640D01*
X92123000Y-39220360D01*
X92060322Y-38905255D01*
X91937374Y-38608432D01*
X91758881Y-38341298D01*
X91531702Y-38114119D01*
X91264568Y-37935626D01*
X90967745Y-37812678D01*
X90652640Y-37750000D01*
X90331360Y-37750000D01*
X90016255Y-37812678D01*
X89719432Y-37935626D01*
X89452298Y-38114119D01*
X89225119Y-38341298D01*
X89046626Y-38608432D01*
X88923678Y-38905255D01*
X88861000Y-39220360D01*
X86079000Y-39220360D01*
X86079000Y-36516497D01*
X89446306Y-36516497D01*
X89580780Y-36743220D01*
X89864045Y-36894816D01*
X90171442Y-36988237D01*
X90491158Y-37019892D01*
X90810906Y-36988566D01*
X91118399Y-36895462D01*
X91401819Y-36744157D01*
X91403220Y-36743220D01*
X91537694Y-36516497D01*
X90492000Y-35470803D01*
X89446306Y-36516497D01*
X86079000Y-36516497D01*
X86079000Y-35380158D01*
X88853108Y-35380158D01*
X88884434Y-35699906D01*
X88977538Y-36007399D01*
X89128843Y-36290819D01*
X89129780Y-36292220D01*
X89356503Y-36426694D01*
X90402197Y-35381000D01*
X90581803Y-35381000D01*
X91627497Y-36426694D01*
X91854220Y-36292220D01*
X92005816Y-36008955D01*
X92099237Y-35701558D01*
X92130892Y-35381842D01*
X92099566Y-35062094D01*
X92006462Y-34754601D01*
X91855157Y-34471181D01*
X91854220Y-34469780D01*
X91627497Y-34335306D01*
X90581803Y-35381000D01*
X90402197Y-35381000D01*
X89356503Y-34335306D01*
X89129780Y-34469780D01*
X88978184Y-34753045D01*
X88884763Y-35060442D01*
X88853108Y-35380158D01*
X86079000Y-35380158D01*
X86079000Y-34245503D01*
X89446306Y-34245503D01*
X90492000Y-35291197D01*
X91537694Y-34245503D01*
X91403220Y-34018780D01*
X91119955Y-33867184D01*
X90812558Y-33773763D01*
X90492842Y-33742108D01*
X90173094Y-33773434D01*
X89865601Y-33866538D01*
X89582181Y-34017843D01*
X89580780Y-34018780D01*
X89446306Y-34245503D01*
X86079000Y-34245503D01*
X86079000Y-29835188D01*
X86181097Y-29792898D01*
X86382717Y-29658180D01*
X86554180Y-29486717D01*
X86688898Y-29285097D01*
X86781693Y-29061069D01*
X86829000Y-28823243D01*
X86829000Y-28580757D01*
X86907000Y-28580757D01*
X86907000Y-28823243D01*
X86954307Y-29061069D01*
X87047102Y-29285097D01*
X87181820Y-29486717D01*
X87353283Y-29658180D01*
X87554903Y-29792898D01*
X87778931Y-29885693D01*
X88016757Y-29933000D01*
X88259243Y-29933000D01*
X88497069Y-29885693D01*
X88721097Y-29792898D01*
X88922717Y-29658180D01*
X89094180Y-29486717D01*
X89228898Y-29285097D01*
X89321693Y-29061069D01*
X89369000Y-28823243D01*
X89369000Y-28580757D01*
X89321693Y-28342931D01*
X89228898Y-28118903D01*
X89094180Y-27917283D01*
X89028897Y-27852000D01*
X89445157Y-27852000D01*
X89445157Y-29552000D01*
X89452513Y-29626689D01*
X89474299Y-29698508D01*
X89509678Y-29764696D01*
X89557289Y-29822711D01*
X89615304Y-29870322D01*
X89681492Y-29905701D01*
X89753311Y-29927487D01*
X89828000Y-29934843D01*
X91528000Y-29934843D01*
X91602689Y-29927487D01*
X91674508Y-29905701D01*
X91740696Y-29870322D01*
X91798711Y-29822711D01*
X91846322Y-29764696D01*
X91881701Y-29698508D01*
X91903487Y-29626689D01*
X91910843Y-29552000D01*
X91910843Y-27852000D01*
X91903487Y-27777311D01*
X91881701Y-27705492D01*
X91846322Y-27639304D01*
X91798711Y-27581289D01*
X91740696Y-27533678D01*
X91674508Y-27498299D01*
X91602689Y-27476513D01*
X91528000Y-27469157D01*
X89828000Y-27469157D01*
X89753311Y-27476513D01*
X89681492Y-27498299D01*
X89615304Y-27533678D01*
X89557289Y-27581289D01*
X89509678Y-27639304D01*
X89474299Y-27705492D01*
X89452513Y-27777311D01*
X89445157Y-27852000D01*
X89028897Y-27852000D01*
X88922717Y-27745820D01*
X88721097Y-27611102D01*
X88497069Y-27518307D01*
X88259243Y-27471000D01*
X88016757Y-27471000D01*
X87778931Y-27518307D01*
X87554903Y-27611102D01*
X87353283Y-27745820D01*
X87181820Y-27917283D01*
X87047102Y-28118903D01*
X86954307Y-28342931D01*
X86907000Y-28580757D01*
X86829000Y-28580757D01*
X86781693Y-28342931D01*
X86688898Y-28118903D01*
X86554180Y-27917283D01*
X86382717Y-27745820D01*
X86181097Y-27611102D01*
X85957069Y-27518307D01*
X85719243Y-27471000D01*
X85476757Y-27471000D01*
X85238931Y-27518307D01*
X85014903Y-27611102D01*
X84813283Y-27745820D01*
X84641820Y-27917283D01*
X84507102Y-28118903D01*
X84414307Y-28342931D01*
X84367000Y-28580757D01*
X84367000Y-28823243D01*
X84414307Y-29061069D01*
X84507102Y-29285097D01*
X84641820Y-29486717D01*
X84813283Y-29658180D01*
X85014903Y-29792898D01*
X85117000Y-29835188D01*
X85117000Y-31358368D01*
X85104522Y-31348128D01*
X85020961Y-31303464D01*
X84930292Y-31275960D01*
X84859626Y-31269000D01*
X84836000Y-31266673D01*
X84812374Y-31269000D01*
X83539000Y-31269000D01*
X83539000Y-29835188D01*
X83641097Y-29792898D01*
X83842717Y-29658180D01*
X84014180Y-29486717D01*
X84148898Y-29285097D01*
X84241693Y-29061069D01*
X84289000Y-28823243D01*
X84289000Y-28580757D01*
X84241693Y-28342931D01*
X84148898Y-28118903D01*
X84014180Y-27917283D01*
X83842717Y-27745820D01*
X83641097Y-27611102D01*
X83417069Y-27518307D01*
X83179243Y-27471000D01*
X82936757Y-27471000D01*
X82698931Y-27518307D01*
X82474903Y-27611102D01*
X82273283Y-27745820D01*
X82101820Y-27917283D01*
X81967102Y-28118903D01*
X81874307Y-28342931D01*
X81827000Y-28580757D01*
X81827000Y-28823243D01*
X81874307Y-29061069D01*
X81967102Y-29285097D01*
X82101820Y-29486717D01*
X82273283Y-29658180D01*
X82474903Y-29792898D01*
X82577000Y-29835188D01*
X82577001Y-31472364D01*
X82574673Y-31496000D01*
X82583960Y-31590292D01*
X82605785Y-31662236D01*
X82611465Y-31680961D01*
X82656129Y-31764522D01*
X82716237Y-31837764D01*
X82734589Y-31852825D01*
X82955170Y-32073406D01*
X82970236Y-32091764D01*
X83043478Y-32151872D01*
X83127039Y-32196536D01*
X83217708Y-32224040D01*
X83288374Y-32231000D01*
X83288375Y-32231000D01*
X83311999Y-32233327D01*
X83335623Y-32231000D01*
X84609000Y-32231000D01*
X84609000Y-42491251D01*
X84512223Y-42472000D01*
X84397777Y-42472000D01*
X84285529Y-42494328D01*
X84179793Y-42538125D01*
X84129095Y-42572000D01*
X78763626Y-42572000D01*
X78739999Y-42569673D01*
X78645707Y-42578960D01*
X78624605Y-42585362D01*
X78579645Y-42599000D01*
X78555777Y-42599000D01*
X78443529Y-42621328D01*
X78337793Y-42665125D01*
X78242634Y-42728708D01*
X78161708Y-42809634D01*
X78098125Y-42904793D01*
X78054328Y-43010529D01*
X78032000Y-43122777D01*
X78032000Y-43237223D01*
X78054328Y-43349471D01*
X78098125Y-43455207D01*
X78123259Y-43492822D01*
X78111707Y-43493960D01*
X78093326Y-43499536D01*
X78021039Y-43521464D01*
X77937478Y-43566128D01*
X77864236Y-43626236D01*
X77849174Y-43644589D01*
X77270764Y-44223000D01*
X64539623Y-44223000D01*
X64515999Y-44220673D01*
X64492375Y-44223000D01*
X64492374Y-44223000D01*
X64421708Y-44229960D01*
X64342990Y-44253839D01*
X64342990Y-42237000D01*
X66351223Y-42237000D01*
X66379355Y-42231404D01*
X66407896Y-42228593D01*
X66435343Y-42220267D01*
X66463471Y-42214672D01*
X66489966Y-42203698D01*
X66517415Y-42195371D01*
X66542711Y-42181850D01*
X66569207Y-42170875D01*
X66593054Y-42154941D01*
X66618348Y-42141421D01*
X66640518Y-42123227D01*
X66664366Y-42107292D01*
X66684645Y-42087013D01*
X66706817Y-42068817D01*
X66725013Y-42046645D01*
X66745292Y-42026366D01*
X66761227Y-42002518D01*
X66779421Y-41980348D01*
X66792941Y-41955054D01*
X66808875Y-41931207D01*
X66819850Y-41904711D01*
X66833371Y-41879415D01*
X66841698Y-41851966D01*
X66852672Y-41825471D01*
X66858267Y-41797343D01*
X66866593Y-41769896D01*
X66869404Y-41741355D01*
X66875000Y-41713223D01*
X66875000Y-41684540D01*
X66877811Y-41656000D01*
X66875000Y-41627460D01*
X66875000Y-41598777D01*
X66869404Y-41570645D01*
X66866593Y-41542104D01*
X66858267Y-41514657D01*
X66852672Y-41486529D01*
X66841698Y-41460034D01*
X66833371Y-41432585D01*
X66819850Y-41407289D01*
X66808875Y-41380793D01*
X66792941Y-41356946D01*
X66779421Y-41331652D01*
X66761227Y-41309482D01*
X66745292Y-41285634D01*
X66725013Y-41265355D01*
X66706817Y-41243183D01*
X66684645Y-41224987D01*
X66664366Y-41204708D01*
X66640518Y-41188773D01*
X66618348Y-41170579D01*
X66593054Y-41157059D01*
X66569207Y-41141125D01*
X66542711Y-41130150D01*
X66517415Y-41116629D01*
X66489966Y-41108302D01*
X66463471Y-41097328D01*
X66435343Y-41091733D01*
X66407896Y-41083407D01*
X66379355Y-41080596D01*
X66351223Y-41075000D01*
X64036540Y-41075000D01*
X64008000Y-41072189D01*
X63979460Y-41075000D01*
X63894104Y-41083407D01*
X63784585Y-41116629D01*
X63683652Y-41170579D01*
X63595183Y-41243183D01*
X63576983Y-41265360D01*
X63371350Y-41470993D01*
X63349173Y-41489193D01*
X63276570Y-41577662D01*
X63276569Y-41577663D01*
X63222619Y-41678596D01*
X63189397Y-41788115D01*
X63178179Y-41902010D01*
X63180990Y-41930550D01*
X63180990Y-49405332D01*
X63169013Y-49393355D01*
X63150817Y-49371183D01*
X63128647Y-49352989D01*
X63108366Y-49332708D01*
X63084514Y-49316771D01*
X63062347Y-49298579D01*
X63037058Y-49285062D01*
X63013207Y-49269125D01*
X62986707Y-49258148D01*
X62961414Y-49244629D01*
X62933969Y-49236304D01*
X62907471Y-49225328D01*
X62879340Y-49219732D01*
X62851895Y-49211407D01*
X62823356Y-49208596D01*
X62795223Y-49203000D01*
X62766540Y-49203000D01*
X62738000Y-49200189D01*
X62709460Y-49203000D01*
X62680777Y-49203000D01*
X62652645Y-49208596D01*
X62624104Y-49211407D01*
X62596657Y-49219733D01*
X62568529Y-49225328D01*
X62542034Y-49236302D01*
X62514585Y-49244629D01*
X62489289Y-49258150D01*
X62462793Y-49269125D01*
X62438946Y-49285059D01*
X62413652Y-49298579D01*
X62391482Y-49316773D01*
X62367634Y-49332708D01*
X62347355Y-49352987D01*
X62325183Y-49371183D01*
X62306989Y-49393353D01*
X62286708Y-49413634D01*
X62270771Y-49437486D01*
X62252579Y-49459653D01*
X62239062Y-49484942D01*
X62223125Y-49508793D01*
X62212148Y-49535293D01*
X62198629Y-49560586D01*
X62190304Y-49588031D01*
X62179328Y-49614529D01*
X62173732Y-49642660D01*
X62165407Y-49670105D01*
X62162596Y-49698644D01*
X62157000Y-49726777D01*
X62157000Y-49755461D01*
X62157001Y-75870233D01*
X62154903Y-75871102D01*
X61953283Y-76005820D01*
X61781820Y-76177283D01*
X61647102Y-76378903D01*
X61554307Y-76602931D01*
X61507000Y-76840757D01*
X61429000Y-76840757D01*
X61381693Y-76602931D01*
X61288898Y-76378903D01*
X61154180Y-76177283D01*
X60982717Y-76005820D01*
X60781097Y-75871102D01*
X60557069Y-75778307D01*
X60319243Y-75731000D01*
X60076757Y-75731000D01*
X59838931Y-75778307D01*
X59614903Y-75871102D01*
X59413283Y-76005820D01*
X59241820Y-76177283D01*
X59107102Y-76378903D01*
X59014307Y-76602931D01*
X58967000Y-76840757D01*
X58889000Y-76840757D01*
X58841693Y-76602931D01*
X58748898Y-76378903D01*
X58614180Y-76177283D01*
X58442717Y-76005820D01*
X58241097Y-75871102D01*
X58017069Y-75778307D01*
X57779243Y-75731000D01*
X57536757Y-75731000D01*
X57298931Y-75778307D01*
X57074903Y-75871102D01*
X56873283Y-76005820D01*
X56701820Y-76177283D01*
X56567102Y-76378903D01*
X56474307Y-76602931D01*
X56427000Y-76840757D01*
X56349000Y-76840757D01*
X56301693Y-76602931D01*
X56208898Y-76378903D01*
X56074180Y-76177283D01*
X55902717Y-76005820D01*
X55701097Y-75871102D01*
X55477069Y-75778307D01*
X55239243Y-75731000D01*
X54996757Y-75731000D01*
X54758931Y-75778307D01*
X54534903Y-75871102D01*
X54333283Y-76005820D01*
X54161820Y-76177283D01*
X54027102Y-76378903D01*
X53934307Y-76602931D01*
X53887000Y-76840757D01*
X40030000Y-76840757D01*
X40030000Y-74618777D01*
X47044000Y-74618777D01*
X47044000Y-74733223D01*
X47066328Y-74845471D01*
X47110125Y-74951207D01*
X47173708Y-75046366D01*
X47254634Y-75127292D01*
X47349793Y-75190875D01*
X47455529Y-75234672D01*
X47567777Y-75257000D01*
X47682223Y-75257000D01*
X47794471Y-75234672D01*
X47900207Y-75190875D01*
X47995366Y-75127292D01*
X48076292Y-75046366D01*
X48139875Y-74951207D01*
X48183672Y-74845471D01*
X48206000Y-74733223D01*
X48206000Y-74618777D01*
X48183672Y-74506529D01*
X48139875Y-74400793D01*
X48106000Y-74350095D01*
X48106000Y-38146658D01*
X48129634Y-38170292D01*
X48224793Y-38233875D01*
X48330529Y-38277672D01*
X48442777Y-38300000D01*
X48453973Y-38300000D01*
X48441328Y-38330529D01*
X48419000Y-38442777D01*
X48419000Y-38557223D01*
X48441328Y-38669471D01*
X48485125Y-38775207D01*
X48548708Y-38870366D01*
X48629634Y-38951292D01*
X48724793Y-39014875D01*
X48830529Y-39058672D01*
X48942777Y-39081000D01*
X49057223Y-39081000D01*
X49169471Y-39058672D01*
X49275207Y-39014875D01*
X49370366Y-38951292D01*
X49451292Y-38870366D01*
X49500000Y-38797469D01*
X49548708Y-38870366D01*
X49629634Y-38951292D01*
X49724793Y-39014875D01*
X49830529Y-39058672D01*
X49942777Y-39081000D01*
X50057223Y-39081000D01*
X50169471Y-39058672D01*
X50275207Y-39014875D01*
X50370366Y-38951292D01*
X50451292Y-38870366D01*
X50500000Y-38797469D01*
X50548708Y-38870366D01*
X50629634Y-38951292D01*
X50724793Y-39014875D01*
X50830529Y-39058672D01*
X50942777Y-39081000D01*
X51057223Y-39081000D01*
X51169471Y-39058672D01*
X51275207Y-39014875D01*
X51370366Y-38951292D01*
X51451292Y-38870366D01*
X51500000Y-38797469D01*
X51548708Y-38870366D01*
X51629634Y-38951292D01*
X51724793Y-39014875D01*
X51830529Y-39058672D01*
X51942777Y-39081000D01*
X52057223Y-39081000D01*
X52169471Y-39058672D01*
X52275207Y-39014875D01*
X52370366Y-38951292D01*
X52451292Y-38870366D01*
X52500000Y-38797469D01*
X52548708Y-38870366D01*
X52629634Y-38951292D01*
X52724793Y-39014875D01*
X52830529Y-39058672D01*
X52942777Y-39081000D01*
X53057223Y-39081000D01*
X53169471Y-39058672D01*
X53275207Y-39014875D01*
X53370366Y-38951292D01*
X53451292Y-38870366D01*
X53514875Y-38775207D01*
X53558672Y-38669471D01*
X53581000Y-38557223D01*
X53581000Y-38442777D01*
X53558672Y-38330529D01*
X53514875Y-38224793D01*
X53481000Y-38174095D01*
X53481000Y-35501050D01*
X54044683Y-35501050D01*
X54025960Y-35562768D01*
X54016673Y-35657060D01*
X54019001Y-35680696D01*
X54019000Y-38174095D01*
X53985125Y-38224793D01*
X53941328Y-38330529D01*
X53919000Y-38442777D01*
X53919000Y-38557223D01*
X53941328Y-38669471D01*
X53985125Y-38775207D01*
X54048708Y-38870366D01*
X54129634Y-38951292D01*
X54224793Y-39014875D01*
X54330529Y-39058672D01*
X54442777Y-39081000D01*
X54557223Y-39081000D01*
X54669471Y-39058672D01*
X54775207Y-39014875D01*
X54870366Y-38951292D01*
X54951292Y-38870366D01*
X55000000Y-38797469D01*
X55048708Y-38870366D01*
X55129634Y-38951292D01*
X55224793Y-39014875D01*
X55330529Y-39058672D01*
X55442777Y-39081000D01*
X55557223Y-39081000D01*
X55669471Y-39058672D01*
X55775207Y-39014875D01*
X55870366Y-38951292D01*
X55951292Y-38870366D01*
X56014875Y-38775207D01*
X56058672Y-38669471D01*
X56081000Y-38557223D01*
X56081000Y-38442777D01*
X56058672Y-38330529D01*
X56014875Y-38224793D01*
X55981000Y-38174095D01*
X55981000Y-36301070D01*
X77694304Y-36301070D01*
X77717930Y-36303397D01*
X77741556Y-36301070D01*
X77812222Y-36294110D01*
X77902891Y-36266606D01*
X77986452Y-36221942D01*
X78059694Y-36161834D01*
X78074760Y-36143475D01*
X78301401Y-35916834D01*
X78319764Y-35901764D01*
X78379872Y-35828522D01*
X78421120Y-35751352D01*
X78424536Y-35744962D01*
X78452040Y-35654293D01*
X78461327Y-35560000D01*
X78459000Y-35536373D01*
X78459000Y-29835188D01*
X78561097Y-29792898D01*
X78762717Y-29658180D01*
X78934180Y-29486717D01*
X79068898Y-29285097D01*
X79161693Y-29061069D01*
X79209000Y-28823243D01*
X79209000Y-28580757D01*
X79287000Y-28580757D01*
X79287000Y-28823243D01*
X79334307Y-29061069D01*
X79427102Y-29285097D01*
X79561820Y-29486717D01*
X79733283Y-29658180D01*
X79934903Y-29792898D01*
X80158931Y-29885693D01*
X80396757Y-29933000D01*
X80639243Y-29933000D01*
X80877069Y-29885693D01*
X81101097Y-29792898D01*
X81302717Y-29658180D01*
X81474180Y-29486717D01*
X81608898Y-29285097D01*
X81701693Y-29061069D01*
X81749000Y-28823243D01*
X81749000Y-28580757D01*
X81701693Y-28342931D01*
X81608898Y-28118903D01*
X81474180Y-27917283D01*
X81302717Y-27745820D01*
X81101097Y-27611102D01*
X80877069Y-27518307D01*
X80639243Y-27471000D01*
X80396757Y-27471000D01*
X80158931Y-27518307D01*
X79934903Y-27611102D01*
X79733283Y-27745820D01*
X79561820Y-27917283D01*
X79427102Y-28118903D01*
X79334307Y-28342931D01*
X79287000Y-28580757D01*
X79209000Y-28580757D01*
X79161693Y-28342931D01*
X79068898Y-28118903D01*
X78934180Y-27917283D01*
X78762717Y-27745820D01*
X78561097Y-27611102D01*
X78337069Y-27518307D01*
X78099243Y-27471000D01*
X77856757Y-27471000D01*
X77618931Y-27518307D01*
X77394903Y-27611102D01*
X77193283Y-27745820D01*
X77021820Y-27917283D01*
X76887102Y-28118903D01*
X76794307Y-28342931D01*
X76747000Y-28580757D01*
X76747000Y-28823243D01*
X76794307Y-29061069D01*
X76887102Y-29285097D01*
X77021820Y-29486717D01*
X77193283Y-29658180D01*
X77394903Y-29792898D01*
X77497001Y-29835188D01*
X77497000Y-35339070D01*
X75892087Y-35339070D01*
X75912040Y-35273292D01*
X75919000Y-35202626D01*
X75919000Y-35202625D01*
X75921327Y-35179001D01*
X75919000Y-35155377D01*
X75919000Y-29835188D01*
X76021097Y-29792898D01*
X76222717Y-29658180D01*
X76394180Y-29486717D01*
X76528898Y-29285097D01*
X76621693Y-29061069D01*
X76669000Y-28823243D01*
X76669000Y-28580757D01*
X76621693Y-28342931D01*
X76528898Y-28118903D01*
X76394180Y-27917283D01*
X76222717Y-27745820D01*
X76021097Y-27611102D01*
X75797069Y-27518307D01*
X75559243Y-27471000D01*
X75316757Y-27471000D01*
X75078931Y-27518307D01*
X74854903Y-27611102D01*
X74653283Y-27745820D01*
X74481820Y-27917283D01*
X74347102Y-28118903D01*
X74254307Y-28342931D01*
X74207000Y-28580757D01*
X74207000Y-28823243D01*
X74254307Y-29061069D01*
X74347102Y-29285097D01*
X74481820Y-29486717D01*
X74653283Y-29658180D01*
X74854903Y-29792898D01*
X74957001Y-29835188D01*
X74957000Y-34939060D01*
X73357853Y-34939060D01*
X73372040Y-34892292D01*
X73376445Y-34847565D01*
X73381327Y-34798001D01*
X73379000Y-34774374D01*
X73379000Y-29835188D01*
X73481097Y-29792898D01*
X73682717Y-29658180D01*
X73854180Y-29486717D01*
X73988898Y-29285097D01*
X74081693Y-29061069D01*
X74129000Y-28823243D01*
X74129000Y-28580757D01*
X74081693Y-28342931D01*
X73988898Y-28118903D01*
X73854180Y-27917283D01*
X73682717Y-27745820D01*
X73481097Y-27611102D01*
X73257069Y-27518307D01*
X73019243Y-27471000D01*
X72776757Y-27471000D01*
X72538931Y-27518307D01*
X72314903Y-27611102D01*
X72113283Y-27745820D01*
X71941820Y-27917283D01*
X71807102Y-28118903D01*
X71714307Y-28342931D01*
X71667000Y-28580757D01*
X71667000Y-28823243D01*
X71714307Y-29061069D01*
X71807102Y-29285097D01*
X71941820Y-29486717D01*
X72113283Y-29658180D01*
X72314903Y-29792898D01*
X72417001Y-29835188D01*
X72417000Y-34539050D01*
X68029620Y-34539050D01*
X68038040Y-34511292D01*
X68043463Y-34456237D01*
X68047327Y-34417000D01*
X68045000Y-34393374D01*
X68045000Y-32482843D01*
X69684000Y-32482843D01*
X69758689Y-32475487D01*
X69830508Y-32453701D01*
X69896696Y-32418322D01*
X69954711Y-32370711D01*
X70002322Y-32312696D01*
X70037701Y-32246508D01*
X70059487Y-32174689D01*
X70066843Y-32100000D01*
X70066843Y-30400000D01*
X70059487Y-30325311D01*
X70037701Y-30253492D01*
X70002322Y-30187304D01*
X69954711Y-30129289D01*
X69896696Y-30081678D01*
X69830508Y-30046299D01*
X69758689Y-30024513D01*
X69684000Y-30017157D01*
X68199079Y-30017157D01*
X68281393Y-29934843D01*
X69684000Y-29934843D01*
X69758689Y-29927487D01*
X69830508Y-29905701D01*
X69896696Y-29870322D01*
X69954711Y-29822711D01*
X70002322Y-29764696D01*
X70037701Y-29698508D01*
X70059487Y-29626689D01*
X70066843Y-29552000D01*
X70066843Y-27852000D01*
X70059487Y-27777311D01*
X70037701Y-27705492D01*
X70002322Y-27639304D01*
X69954711Y-27581289D01*
X69896696Y-27533678D01*
X69830508Y-27498299D01*
X69758689Y-27476513D01*
X69684000Y-27469157D01*
X67984000Y-27469157D01*
X67909311Y-27476513D01*
X67837492Y-27498299D01*
X67771304Y-27533678D01*
X67713289Y-27581289D01*
X67665678Y-27639304D01*
X67630299Y-27705492D01*
X67608513Y-27777311D01*
X67601157Y-27852000D01*
X67601157Y-29254607D01*
X67240589Y-29615175D01*
X67222237Y-29630236D01*
X67207176Y-29648588D01*
X67162129Y-29703478D01*
X67117465Y-29787039D01*
X67089960Y-29877708D01*
X67080673Y-29972000D01*
X67083001Y-29995636D01*
X67083001Y-30298104D01*
X67078717Y-30293820D01*
X66877097Y-30159102D01*
X66653069Y-30066307D01*
X66415243Y-30019000D01*
X66172757Y-30019000D01*
X65934931Y-30066307D01*
X65710903Y-30159102D01*
X65509283Y-30293820D01*
X65505000Y-30298103D01*
X65505000Y-30171236D01*
X65832833Y-29843403D01*
X65934931Y-29885693D01*
X66172757Y-29933000D01*
X66415243Y-29933000D01*
X66653069Y-29885693D01*
X66877097Y-29792898D01*
X67078717Y-29658180D01*
X67250180Y-29486717D01*
X67384898Y-29285097D01*
X67477693Y-29061069D01*
X67525000Y-28823243D01*
X67525000Y-28580757D01*
X67477693Y-28342931D01*
X67384898Y-28118903D01*
X67250180Y-27917283D01*
X67078717Y-27745820D01*
X66877097Y-27611102D01*
X66653069Y-27518307D01*
X66415243Y-27471000D01*
X66172757Y-27471000D01*
X65934931Y-27518307D01*
X65710903Y-27611102D01*
X65509283Y-27745820D01*
X65337820Y-27917283D01*
X65203102Y-28118903D01*
X65110307Y-28342931D01*
X65063000Y-28580757D01*
X65063000Y-28823243D01*
X65110307Y-29061069D01*
X65152597Y-29163167D01*
X64700589Y-29615175D01*
X64682237Y-29630236D01*
X64667176Y-29648588D01*
X64622129Y-29703478D01*
X64577465Y-29787039D01*
X64549960Y-29877708D01*
X64540673Y-29972000D01*
X64543001Y-29995636D01*
X64543001Y-30298104D01*
X64538717Y-30293820D01*
X64337097Y-30159102D01*
X64113069Y-30066307D01*
X63875243Y-30019000D01*
X63632757Y-30019000D01*
X63394931Y-30066307D01*
X63170903Y-30159102D01*
X62969283Y-30293820D01*
X62965000Y-30298103D01*
X62965000Y-30171236D01*
X63292833Y-29843403D01*
X63394931Y-29885693D01*
X63632757Y-29933000D01*
X63875243Y-29933000D01*
X64113069Y-29885693D01*
X64337097Y-29792898D01*
X64538717Y-29658180D01*
X64710180Y-29486717D01*
X64844898Y-29285097D01*
X64937693Y-29061069D01*
X64985000Y-28823243D01*
X64985000Y-28580757D01*
X64937693Y-28342931D01*
X64844898Y-28118903D01*
X64710180Y-27917283D01*
X64538717Y-27745820D01*
X64337097Y-27611102D01*
X64113069Y-27518307D01*
X63875243Y-27471000D01*
X63632757Y-27471000D01*
X63394931Y-27518307D01*
X63170903Y-27611102D01*
X62969283Y-27745820D01*
X62797820Y-27917283D01*
X62663102Y-28118903D01*
X62570307Y-28342931D01*
X62523000Y-28580757D01*
X62523000Y-28823243D01*
X62570307Y-29061069D01*
X62612597Y-29163167D01*
X62160589Y-29615175D01*
X62142237Y-29630236D01*
X62127176Y-29648588D01*
X62082129Y-29703478D01*
X62037465Y-29787039D01*
X62009960Y-29877708D01*
X62000673Y-29972000D01*
X62003001Y-29995636D01*
X62003001Y-30298104D01*
X61998717Y-30293820D01*
X61797097Y-30159102D01*
X61573069Y-30066307D01*
X61335243Y-30019000D01*
X61092757Y-30019000D01*
X60854931Y-30066307D01*
X60630903Y-30159102D01*
X60429283Y-30293820D01*
X60425000Y-30298103D01*
X60425000Y-30171236D01*
X60752833Y-29843403D01*
X60854931Y-29885693D01*
X61092757Y-29933000D01*
X61335243Y-29933000D01*
X61573069Y-29885693D01*
X61797097Y-29792898D01*
X61998717Y-29658180D01*
X62170180Y-29486717D01*
X62304898Y-29285097D01*
X62397693Y-29061069D01*
X62445000Y-28823243D01*
X62445000Y-28580757D01*
X62397693Y-28342931D01*
X62304898Y-28118903D01*
X62170180Y-27917283D01*
X61998717Y-27745820D01*
X61797097Y-27611102D01*
X61573069Y-27518307D01*
X61335243Y-27471000D01*
X61092757Y-27471000D01*
X60854931Y-27518307D01*
X60630903Y-27611102D01*
X60429283Y-27745820D01*
X60257820Y-27917283D01*
X60123102Y-28118903D01*
X60030307Y-28342931D01*
X59983000Y-28580757D01*
X59983000Y-28823243D01*
X60030307Y-29061069D01*
X60072597Y-29163167D01*
X59620589Y-29615175D01*
X59602237Y-29630236D01*
X59587176Y-29648588D01*
X59542129Y-29703478D01*
X59497465Y-29787039D01*
X59469960Y-29877708D01*
X59460673Y-29972000D01*
X59463001Y-29995636D01*
X59463001Y-30298104D01*
X59458717Y-30293820D01*
X59257097Y-30159102D01*
X59033069Y-30066307D01*
X58795243Y-30019000D01*
X58552757Y-30019000D01*
X58314931Y-30066307D01*
X58090903Y-30159102D01*
X57889283Y-30293820D01*
X57717820Y-30465283D01*
X57583102Y-30666903D01*
X57490307Y-30890931D01*
X57443000Y-31128757D01*
X57443000Y-31371243D01*
X57490307Y-31609069D01*
X57583102Y-31833097D01*
X57717820Y-32034717D01*
X57889283Y-32206180D01*
X58090903Y-32340898D01*
X58314931Y-32433693D01*
X58552757Y-32481000D01*
X58795243Y-32481000D01*
X59033069Y-32433693D01*
X59257097Y-32340898D01*
X59458717Y-32206180D01*
X59463000Y-32201897D01*
X59463000Y-32939010D01*
X55314161Y-32939010D01*
X55338040Y-32860292D01*
X55345000Y-32789626D01*
X55345000Y-32789625D01*
X55347327Y-32766001D01*
X55345000Y-32742377D01*
X55345000Y-32201897D01*
X55349283Y-32206180D01*
X55550903Y-32340898D01*
X55774931Y-32433693D01*
X56012757Y-32481000D01*
X56255243Y-32481000D01*
X56493069Y-32433693D01*
X56717097Y-32340898D01*
X56918717Y-32206180D01*
X57090180Y-32034717D01*
X57224898Y-31833097D01*
X57317693Y-31609069D01*
X57365000Y-31371243D01*
X57365000Y-31128757D01*
X57317693Y-30890931D01*
X57224898Y-30666903D01*
X57090180Y-30465283D01*
X56918717Y-30293820D01*
X56717097Y-30159102D01*
X56493069Y-30066307D01*
X56255243Y-30019000D01*
X56012757Y-30019000D01*
X55774931Y-30066307D01*
X55550903Y-30159102D01*
X55349283Y-30293820D01*
X55345000Y-30298103D01*
X55345000Y-29653897D01*
X55349283Y-29658180D01*
X55550903Y-29792898D01*
X55774931Y-29885693D01*
X56012757Y-29933000D01*
X56255243Y-29933000D01*
X56493069Y-29885693D01*
X56717097Y-29792898D01*
X56918717Y-29658180D01*
X57090180Y-29486717D01*
X57224898Y-29285097D01*
X57317693Y-29061069D01*
X57365000Y-28823243D01*
X57365000Y-28580757D01*
X57443000Y-28580757D01*
X57443000Y-28823243D01*
X57490307Y-29061069D01*
X57583102Y-29285097D01*
X57717820Y-29486717D01*
X57889283Y-29658180D01*
X58090903Y-29792898D01*
X58314931Y-29885693D01*
X58552757Y-29933000D01*
X58795243Y-29933000D01*
X59033069Y-29885693D01*
X59257097Y-29792898D01*
X59458717Y-29658180D01*
X59630180Y-29486717D01*
X59764898Y-29285097D01*
X59857693Y-29061069D01*
X59905000Y-28823243D01*
X59905000Y-28580757D01*
X59857693Y-28342931D01*
X59764898Y-28118903D01*
X59630180Y-27917283D01*
X59458717Y-27745820D01*
X59257097Y-27611102D01*
X59033069Y-27518307D01*
X58795243Y-27471000D01*
X58552757Y-27471000D01*
X58314931Y-27518307D01*
X58090903Y-27611102D01*
X57889283Y-27745820D01*
X57717820Y-27917283D01*
X57583102Y-28118903D01*
X57490307Y-28342931D01*
X57443000Y-28580757D01*
X57365000Y-28580757D01*
X57317693Y-28342931D01*
X57224898Y-28118903D01*
X57090180Y-27917283D01*
X56918717Y-27745820D01*
X56717097Y-27611102D01*
X56493069Y-27518307D01*
X56255243Y-27471000D01*
X56012757Y-27471000D01*
X55774931Y-27518307D01*
X55550903Y-27611102D01*
X55349283Y-27745820D01*
X55177820Y-27917283D01*
X55043102Y-28118903D01*
X54994225Y-28236904D01*
X54933039Y-28255464D01*
X54849478Y-28300128D01*
X54776236Y-28360236D01*
X54772323Y-28365004D01*
X54725400Y-28216921D01*
X54609026Y-28005516D01*
X54453645Y-27820877D01*
X54265229Y-27670099D01*
X54051018Y-27558976D01*
X53849033Y-27497708D01*
X53657500Y-27568027D01*
X53657500Y-28638500D01*
X53677500Y-28638500D01*
X53677500Y-28765500D01*
X53657500Y-28765500D01*
X53657500Y-29835973D01*
X53849033Y-29906292D01*
X54051018Y-29845024D01*
X54265229Y-29733901D01*
X54383001Y-29639655D01*
X54383001Y-30298104D01*
X54378717Y-30293820D01*
X54177097Y-30159102D01*
X53953069Y-30066307D01*
X53715243Y-30019000D01*
X53472757Y-30019000D01*
X53234931Y-30066307D01*
X53010903Y-30159102D01*
X52809283Y-30293820D01*
X52637820Y-30465283D01*
X52503102Y-30666903D01*
X52410307Y-30890931D01*
X52363000Y-31128757D01*
X52363000Y-31371243D01*
X52410307Y-31609069D01*
X52503102Y-31833097D01*
X52637820Y-32034717D01*
X52809283Y-32206180D01*
X53010903Y-32340898D01*
X53234931Y-32433693D01*
X53472757Y-32481000D01*
X53715243Y-32481000D01*
X53953069Y-32433693D01*
X54177097Y-32340898D01*
X54378717Y-32206180D01*
X54383000Y-32201897D01*
X54383000Y-32539000D01*
X48918623Y-32539000D01*
X48894999Y-32536673D01*
X48871375Y-32539000D01*
X48871374Y-32539000D01*
X48800708Y-32545960D01*
X48710039Y-32573464D01*
X48626478Y-32618128D01*
X48553236Y-32678236D01*
X48538175Y-32696588D01*
X48176589Y-33058175D01*
X48158237Y-33073236D01*
X48114829Y-33126129D01*
X48106000Y-33136887D01*
X48106000Y-32413425D01*
X48154931Y-32433693D01*
X48392757Y-32481000D01*
X48635243Y-32481000D01*
X48873069Y-32433693D01*
X49097097Y-32340898D01*
X49298717Y-32206180D01*
X49470180Y-32034717D01*
X49604898Y-31833097D01*
X49697693Y-31609069D01*
X49745000Y-31371243D01*
X49745000Y-31128757D01*
X49823000Y-31128757D01*
X49823000Y-31371243D01*
X49870307Y-31609069D01*
X49963102Y-31833097D01*
X50097820Y-32034717D01*
X50269283Y-32206180D01*
X50470903Y-32340898D01*
X50694931Y-32433693D01*
X50932757Y-32481000D01*
X51175243Y-32481000D01*
X51413069Y-32433693D01*
X51637097Y-32340898D01*
X51838717Y-32206180D01*
X52010180Y-32034717D01*
X52144898Y-31833097D01*
X52237693Y-31609069D01*
X52285000Y-31371243D01*
X52285000Y-31128757D01*
X52237693Y-30890931D01*
X52144898Y-30666903D01*
X52010180Y-30465283D01*
X51838717Y-30293820D01*
X51637097Y-30159102D01*
X51413069Y-30066307D01*
X51175243Y-30019000D01*
X50932757Y-30019000D01*
X50694931Y-30066307D01*
X50470903Y-30159102D01*
X50269283Y-30293820D01*
X50097820Y-30465283D01*
X49963102Y-30666903D01*
X49870307Y-30890931D01*
X49823000Y-31128757D01*
X49745000Y-31128757D01*
X49697693Y-30890931D01*
X49604898Y-30666903D01*
X49470180Y-30465283D01*
X49298717Y-30293820D01*
X49097097Y-30159102D01*
X48873069Y-30066307D01*
X48635243Y-30019000D01*
X48392757Y-30019000D01*
X48154931Y-30066307D01*
X47930903Y-30159102D01*
X47729283Y-30293820D01*
X47557820Y-30465283D01*
X47423102Y-30666903D01*
X47330307Y-30890931D01*
X47283000Y-31128757D01*
X47283000Y-31371243D01*
X47330307Y-31609069D01*
X47372597Y-31711167D01*
X47301594Y-31782170D01*
X47283236Y-31797236D01*
X47223128Y-31870478D01*
X47178464Y-31954040D01*
X47163309Y-32003999D01*
X47150960Y-32044708D01*
X47141673Y-32139000D01*
X47144000Y-32162626D01*
X47144001Y-74350094D01*
X47110125Y-74400793D01*
X47066328Y-74506529D01*
X47044000Y-74618777D01*
X40030000Y-74618777D01*
X40030000Y-31128757D01*
X44743000Y-31128757D01*
X44743000Y-31371243D01*
X44790307Y-31609069D01*
X44883102Y-31833097D01*
X45017820Y-32034717D01*
X45189283Y-32206180D01*
X45390903Y-32340898D01*
X45614931Y-32433693D01*
X45852757Y-32481000D01*
X46095243Y-32481000D01*
X46333069Y-32433693D01*
X46557097Y-32340898D01*
X46758717Y-32206180D01*
X46930180Y-32034717D01*
X47064898Y-31833097D01*
X47157693Y-31609069D01*
X47205000Y-31371243D01*
X47205000Y-31128757D01*
X47157693Y-30890931D01*
X47064898Y-30666903D01*
X46930180Y-30465283D01*
X46758717Y-30293820D01*
X46557097Y-30159102D01*
X46333069Y-30066307D01*
X46095243Y-30019000D01*
X45852757Y-30019000D01*
X45614931Y-30066307D01*
X45390903Y-30159102D01*
X45189283Y-30293820D01*
X45017820Y-30465283D01*
X44883102Y-30666903D01*
X44790307Y-30890931D01*
X44743000Y-31128757D01*
X40030000Y-31128757D01*
X40030000Y-28580757D01*
X44743000Y-28580757D01*
X44743000Y-28823243D01*
X44790307Y-29061069D01*
X44883102Y-29285097D01*
X45017820Y-29486717D01*
X45189283Y-29658180D01*
X45390903Y-29792898D01*
X45614931Y-29885693D01*
X45852757Y-29933000D01*
X46095243Y-29933000D01*
X46333069Y-29885693D01*
X46557097Y-29792898D01*
X46758717Y-29658180D01*
X46930180Y-29486717D01*
X47064898Y-29285097D01*
X47157693Y-29061069D01*
X47205000Y-28823243D01*
X47205000Y-28580757D01*
X47283000Y-28580757D01*
X47283000Y-28823243D01*
X47330307Y-29061069D01*
X47423102Y-29285097D01*
X47557820Y-29486717D01*
X47729283Y-29658180D01*
X47930903Y-29792898D01*
X48154931Y-29885693D01*
X48392757Y-29933000D01*
X48635243Y-29933000D01*
X48873069Y-29885693D01*
X49097097Y-29792898D01*
X49298717Y-29658180D01*
X49470180Y-29486717D01*
X49604898Y-29285097D01*
X49697693Y-29061069D01*
X49745000Y-28823243D01*
X49745000Y-28580757D01*
X49823000Y-28580757D01*
X49823000Y-28823243D01*
X49870307Y-29061069D01*
X49963102Y-29285097D01*
X50097820Y-29486717D01*
X50269283Y-29658180D01*
X50470903Y-29792898D01*
X50694931Y-29885693D01*
X50932757Y-29933000D01*
X51175243Y-29933000D01*
X51413069Y-29885693D01*
X51637097Y-29792898D01*
X51838717Y-29658180D01*
X52010180Y-29486717D01*
X52144898Y-29285097D01*
X52237693Y-29061069D01*
X52258387Y-28957033D01*
X52389705Y-28957033D01*
X52462600Y-29187079D01*
X52578974Y-29398484D01*
X52734355Y-29583123D01*
X52922771Y-29733901D01*
X53136982Y-29845024D01*
X53338967Y-29906292D01*
X53530500Y-29835973D01*
X53530500Y-28765500D01*
X52459886Y-28765500D01*
X52389705Y-28957033D01*
X52258387Y-28957033D01*
X52285000Y-28823243D01*
X52285000Y-28580757D01*
X52258388Y-28446967D01*
X52389705Y-28446967D01*
X52459886Y-28638500D01*
X53530500Y-28638500D01*
X53530500Y-27568027D01*
X53338967Y-27497708D01*
X53136982Y-27558976D01*
X52922771Y-27670099D01*
X52734355Y-27820877D01*
X52578974Y-28005516D01*
X52462600Y-28216921D01*
X52389705Y-28446967D01*
X52258388Y-28446967D01*
X52237693Y-28342931D01*
X52144898Y-28118903D01*
X52010180Y-27917283D01*
X51838717Y-27745820D01*
X51637097Y-27611102D01*
X51413069Y-27518307D01*
X51175243Y-27471000D01*
X50932757Y-27471000D01*
X50694931Y-27518307D01*
X50470903Y-27611102D01*
X50269283Y-27745820D01*
X50097820Y-27917283D01*
X49963102Y-28118903D01*
X49870307Y-28342931D01*
X49823000Y-28580757D01*
X49745000Y-28580757D01*
X49697693Y-28342931D01*
X49604898Y-28118903D01*
X49470180Y-27917283D01*
X49298717Y-27745820D01*
X49097097Y-27611102D01*
X48873069Y-27518307D01*
X48635243Y-27471000D01*
X48392757Y-27471000D01*
X48154931Y-27518307D01*
X47930903Y-27611102D01*
X47729283Y-27745820D01*
X47557820Y-27917283D01*
X47423102Y-28118903D01*
X47330307Y-28342931D01*
X47283000Y-28580757D01*
X47205000Y-28580757D01*
X47157693Y-28342931D01*
X47064898Y-28118903D01*
X46930180Y-27917283D01*
X46758717Y-27745820D01*
X46557097Y-27611102D01*
X46333069Y-27518307D01*
X46095243Y-27471000D01*
X45852757Y-27471000D01*
X45614931Y-27518307D01*
X45390903Y-27611102D01*
X45189283Y-27745820D01*
X45017820Y-27917283D01*
X44883102Y-28118903D01*
X44790307Y-28342931D01*
X44743000Y-28580757D01*
X40030000Y-28580757D01*
X40030000Y-27197855D01*
X40038461Y-27111561D01*
X40057756Y-27047652D01*
X40089096Y-26988711D01*
X40131287Y-26936979D01*
X40182723Y-26894427D01*
X40241451Y-26862674D01*
X40305219Y-26842934D01*
X40390259Y-26833996D01*
X92230188Y-26822004D01*
X92316439Y-26830461D01*
%TA.AperFunction,Conductor*%
D17*
G36*
X92316439Y-26830461D02*
G01*
X92380348Y-26849756D01*
X92439289Y-26881096D01*
X92491021Y-26923287D01*
X92533573Y-26974723D01*
X92565326Y-27033451D01*
X92585066Y-27097219D01*
X92594000Y-27182217D01*
X92594001Y-78732135D01*
X92585538Y-78818440D01*
X92566244Y-78882346D01*
X92534905Y-78941287D01*
X92492713Y-78993021D01*
X92441272Y-79035576D01*
X92382550Y-79067326D01*
X92318781Y-79087066D01*
X92233773Y-79096001D01*
X40312970Y-79097397D01*
X40260179Y-79083043D01*
X40198273Y-79052298D01*
X40143520Y-79010116D01*
X40098004Y-78958103D01*
X40063456Y-78898237D01*
X40041195Y-78832804D01*
X40030110Y-78749606D01*
X40030000Y-78738042D01*
X40030000Y-76840757D01*
X53887000Y-76840757D01*
X53887000Y-77083243D01*
X53934307Y-77321069D01*
X54027102Y-77545097D01*
X54161820Y-77746717D01*
X54333283Y-77918180D01*
X54534903Y-78052898D01*
X54758931Y-78145693D01*
X54996757Y-78193000D01*
X55239243Y-78193000D01*
X55477069Y-78145693D01*
X55701097Y-78052898D01*
X55902717Y-77918180D01*
X56074180Y-77746717D01*
X56208898Y-77545097D01*
X56301693Y-77321069D01*
X56349000Y-77083243D01*
X56349000Y-76840757D01*
X56427000Y-76840757D01*
X56427000Y-77083243D01*
X56474307Y-77321069D01*
X56567102Y-77545097D01*
X56701820Y-77746717D01*
X56873283Y-77918180D01*
X57074903Y-78052898D01*
X57298931Y-78145693D01*
X57536757Y-78193000D01*
X57779243Y-78193000D01*
X58017069Y-78145693D01*
X58241097Y-78052898D01*
X58442717Y-77918180D01*
X58614180Y-77746717D01*
X58748898Y-77545097D01*
X58841693Y-77321069D01*
X58889000Y-77083243D01*
X58889000Y-76840757D01*
X58967000Y-76840757D01*
X58967000Y-77083243D01*
X59014307Y-77321069D01*
X59107102Y-77545097D01*
X59241820Y-77746717D01*
X59413283Y-77918180D01*
X59614903Y-78052898D01*
X59838931Y-78145693D01*
X60076757Y-78193000D01*
X60319243Y-78193000D01*
X60557069Y-78145693D01*
X60781097Y-78052898D01*
X60982717Y-77918180D01*
X61154180Y-77746717D01*
X61288898Y-77545097D01*
X61381693Y-77321069D01*
X61429000Y-77083243D01*
X61429000Y-76840757D01*
X61507000Y-76840757D01*
X61507000Y-77083243D01*
X61554307Y-77321069D01*
X61647102Y-77545097D01*
X61781820Y-77746717D01*
X61953283Y-77918180D01*
X62154903Y-78052898D01*
X62378931Y-78145693D01*
X62616757Y-78193000D01*
X62859243Y-78193000D01*
X63097069Y-78145693D01*
X63321097Y-78052898D01*
X63522717Y-77918180D01*
X63694180Y-77746717D01*
X63828898Y-77545097D01*
X63921693Y-77321069D01*
X63969000Y-77083243D01*
X63969000Y-76840757D01*
X63921693Y-76602931D01*
X63828898Y-76378903D01*
X63694180Y-76177283D01*
X63522717Y-76005820D01*
X63321097Y-75871102D01*
X63319000Y-75870233D01*
X63319000Y-73282040D01*
X63349174Y-73318807D01*
X63371346Y-73337003D01*
X63576983Y-73542640D01*
X63595183Y-73564817D01*
X63683652Y-73637421D01*
X63699463Y-73645872D01*
X63784585Y-73691371D01*
X63894104Y-73724593D01*
X64008000Y-73735811D01*
X64036540Y-73733000D01*
X64697000Y-73733000D01*
X64697001Y-75870233D01*
X64694903Y-75871102D01*
X64493283Y-76005820D01*
X64321820Y-76177283D01*
X64187102Y-76378903D01*
X64094307Y-76602931D01*
X64047000Y-76840757D01*
X64047000Y-77083243D01*
X64094307Y-77321069D01*
X64187102Y-77545097D01*
X64321820Y-77746717D01*
X64493283Y-77918180D01*
X64694903Y-78052898D01*
X64918931Y-78145693D01*
X65156757Y-78193000D01*
X65399243Y-78193000D01*
X65637069Y-78145693D01*
X65861097Y-78052898D01*
X66062717Y-77918180D01*
X66234180Y-77746717D01*
X66368898Y-77545097D01*
X66461693Y-77321069D01*
X66482387Y-77217033D01*
X66613705Y-77217033D01*
X66686600Y-77447079D01*
X66802974Y-77658484D01*
X66958355Y-77843123D01*
X67146771Y-77993901D01*
X67360982Y-78105024D01*
X67562967Y-78166292D01*
X67754500Y-78095973D01*
X67754500Y-77025500D01*
X67881500Y-77025500D01*
X67881500Y-78095973D01*
X68073033Y-78166292D01*
X68275018Y-78105024D01*
X68489229Y-77993901D01*
X68677645Y-77843123D01*
X68833026Y-77658484D01*
X68949400Y-77447079D01*
X69022295Y-77217033D01*
X69153705Y-77217033D01*
X69226600Y-77447079D01*
X69342974Y-77658484D01*
X69498355Y-77843123D01*
X69686771Y-77993901D01*
X69900982Y-78105024D01*
X70102967Y-78166292D01*
X70294500Y-78095973D01*
X70294500Y-77025500D01*
X70421500Y-77025500D01*
X70421500Y-78095973D01*
X70613033Y-78166292D01*
X70815018Y-78105024D01*
X71029229Y-77993901D01*
X71217645Y-77843123D01*
X71373026Y-77658484D01*
X71489400Y-77447079D01*
X71562295Y-77217033D01*
X71492114Y-77025500D01*
X70421500Y-77025500D01*
X70294500Y-77025500D01*
X69223886Y-77025500D01*
X69153705Y-77217033D01*
X69022295Y-77217033D01*
X68952114Y-77025500D01*
X67881500Y-77025500D01*
X67754500Y-77025500D01*
X66683886Y-77025500D01*
X66613705Y-77217033D01*
X66482387Y-77217033D01*
X66509000Y-77083243D01*
X66509000Y-76840757D01*
X66482388Y-76706967D01*
X66613705Y-76706967D01*
X66683886Y-76898500D01*
X67754500Y-76898500D01*
X67754500Y-75828027D01*
X67881500Y-75828027D01*
X67881500Y-76898500D01*
X68952114Y-76898500D01*
X69022295Y-76706967D01*
X69153705Y-76706967D01*
X69223886Y-76898500D01*
X70294500Y-76898500D01*
X70294500Y-75828027D01*
X70421500Y-75828027D01*
X70421500Y-76898500D01*
X71492114Y-76898500D01*
X71562295Y-76706967D01*
X71489400Y-76476921D01*
X71373026Y-76265516D01*
X71243837Y-76112000D01*
X71665157Y-76112000D01*
X71665157Y-77812000D01*
X71672513Y-77886689D01*
X71694299Y-77958508D01*
X71729678Y-78024696D01*
X71777289Y-78082711D01*
X71835304Y-78130322D01*
X71901492Y-78165701D01*
X71973311Y-78187487D01*
X72048000Y-78194843D01*
X73748000Y-78194843D01*
X73822689Y-78187487D01*
X73894508Y-78165701D01*
X73960696Y-78130322D01*
X74018711Y-78082711D01*
X74066322Y-78024696D01*
X74101701Y-77958508D01*
X74123487Y-77886689D01*
X74130843Y-77812000D01*
X74130843Y-76112000D01*
X76745157Y-76112000D01*
X76745157Y-77812000D01*
X76752513Y-77886689D01*
X76774299Y-77958508D01*
X76809678Y-78024696D01*
X76857289Y-78082711D01*
X76915304Y-78130322D01*
X76981492Y-78165701D01*
X77053311Y-78187487D01*
X77128000Y-78194843D01*
X78828000Y-78194843D01*
X78902689Y-78187487D01*
X78974508Y-78165701D01*
X79040696Y-78130322D01*
X79098711Y-78082711D01*
X79146322Y-78024696D01*
X79181701Y-77958508D01*
X79203487Y-77886689D01*
X79210843Y-77812000D01*
X79210843Y-76840757D01*
X79287000Y-76840757D01*
X79287000Y-77083243D01*
X79334307Y-77321069D01*
X79427102Y-77545097D01*
X79561820Y-77746717D01*
X79733283Y-77918180D01*
X79934903Y-78052898D01*
X80158931Y-78145693D01*
X80396757Y-78193000D01*
X80639243Y-78193000D01*
X80877069Y-78145693D01*
X81101097Y-78052898D01*
X81302717Y-77918180D01*
X81474180Y-77746717D01*
X81608898Y-77545097D01*
X81701693Y-77321069D01*
X81749000Y-77083243D01*
X81749000Y-76840757D01*
X81827000Y-76840757D01*
X81827000Y-77083243D01*
X81874307Y-77321069D01*
X81967102Y-77545097D01*
X82101820Y-77746717D01*
X82273283Y-77918180D01*
X82474903Y-78052898D01*
X82698931Y-78145693D01*
X82936757Y-78193000D01*
X83179243Y-78193000D01*
X83417069Y-78145693D01*
X83641097Y-78052898D01*
X83842717Y-77918180D01*
X84014180Y-77746717D01*
X84148898Y-77545097D01*
X84241693Y-77321069D01*
X84289000Y-77083243D01*
X84289000Y-76840757D01*
X84367000Y-76840757D01*
X84367000Y-77083243D01*
X84414307Y-77321069D01*
X84507102Y-77545097D01*
X84641820Y-77746717D01*
X84813283Y-77918180D01*
X85014903Y-78052898D01*
X85238931Y-78145693D01*
X85476757Y-78193000D01*
X85719243Y-78193000D01*
X85957069Y-78145693D01*
X86181097Y-78052898D01*
X86382717Y-77918180D01*
X86554180Y-77746717D01*
X86688898Y-77545097D01*
X86781693Y-77321069D01*
X86829000Y-77083243D01*
X86829000Y-76840757D01*
X86907000Y-76840757D01*
X86907000Y-77083243D01*
X86954307Y-77321069D01*
X87047102Y-77545097D01*
X87181820Y-77746717D01*
X87353283Y-77918180D01*
X87554903Y-78052898D01*
X87778931Y-78145693D01*
X88016757Y-78193000D01*
X88259243Y-78193000D01*
X88497069Y-78145693D01*
X88721097Y-78052898D01*
X88922717Y-77918180D01*
X89094180Y-77746717D01*
X89228898Y-77545097D01*
X89321693Y-77321069D01*
X89369000Y-77083243D01*
X89369000Y-76840757D01*
X89447000Y-76840757D01*
X89447000Y-77083243D01*
X89494307Y-77321069D01*
X89587102Y-77545097D01*
X89721820Y-77746717D01*
X89893283Y-77918180D01*
X90094903Y-78052898D01*
X90318931Y-78145693D01*
X90556757Y-78193000D01*
X90799243Y-78193000D01*
X91037069Y-78145693D01*
X91261097Y-78052898D01*
X91462717Y-77918180D01*
X91634180Y-77746717D01*
X91768898Y-77545097D01*
X91861693Y-77321069D01*
X91909000Y-77083243D01*
X91909000Y-76840757D01*
X91861693Y-76602931D01*
X91768898Y-76378903D01*
X91634180Y-76177283D01*
X91462717Y-76005820D01*
X91261097Y-75871102D01*
X91037069Y-75778307D01*
X90799243Y-75731000D01*
X90556757Y-75731000D01*
X90318931Y-75778307D01*
X90094903Y-75871102D01*
X89893283Y-76005820D01*
X89721820Y-76177283D01*
X89587102Y-76378903D01*
X89494307Y-76602931D01*
X89447000Y-76840757D01*
X89369000Y-76840757D01*
X89321693Y-76602931D01*
X89228898Y-76378903D01*
X89094180Y-76177283D01*
X88922717Y-76005820D01*
X88721097Y-75871102D01*
X88497069Y-75778307D01*
X88259243Y-75731000D01*
X88016757Y-75731000D01*
X87778931Y-75778307D01*
X87554903Y-75871102D01*
X87353283Y-76005820D01*
X87181820Y-76177283D01*
X87047102Y-76378903D01*
X86954307Y-76602931D01*
X86907000Y-76840757D01*
X86829000Y-76840757D01*
X86781693Y-76602931D01*
X86688898Y-76378903D01*
X86554180Y-76177283D01*
X86382717Y-76005820D01*
X86181097Y-75871102D01*
X85957069Y-75778307D01*
X85719243Y-75731000D01*
X85476757Y-75731000D01*
X85238931Y-75778307D01*
X85014903Y-75871102D01*
X84813283Y-76005820D01*
X84641820Y-76177283D01*
X84507102Y-76378903D01*
X84414307Y-76602931D01*
X84367000Y-76840757D01*
X84289000Y-76840757D01*
X84241693Y-76602931D01*
X84148898Y-76378903D01*
X84014180Y-76177283D01*
X83842717Y-76005820D01*
X83641097Y-75871102D01*
X83417069Y-75778307D01*
X83179243Y-75731000D01*
X82936757Y-75731000D01*
X82698931Y-75778307D01*
X82474903Y-75871102D01*
X82273283Y-76005820D01*
X82101820Y-76177283D01*
X81967102Y-76378903D01*
X81874307Y-76602931D01*
X81827000Y-76840757D01*
X81749000Y-76840757D01*
X81701693Y-76602931D01*
X81608898Y-76378903D01*
X81474180Y-76177283D01*
X81302717Y-76005820D01*
X81101097Y-75871102D01*
X80877069Y-75778307D01*
X80639243Y-75731000D01*
X80396757Y-75731000D01*
X80158931Y-75778307D01*
X79934903Y-75871102D01*
X79733283Y-76005820D01*
X79561820Y-76177283D01*
X79427102Y-76378903D01*
X79334307Y-76602931D01*
X79287000Y-76840757D01*
X79210843Y-76840757D01*
X79210843Y-76112000D01*
X79203487Y-76037311D01*
X79181701Y-75965492D01*
X79146322Y-75899304D01*
X79098711Y-75841289D01*
X79040696Y-75793678D01*
X78974508Y-75758299D01*
X78902689Y-75736513D01*
X78828000Y-75729157D01*
X77128000Y-75729157D01*
X77053311Y-75736513D01*
X76981492Y-75758299D01*
X76915304Y-75793678D01*
X76857289Y-75841289D01*
X76809678Y-75899304D01*
X76774299Y-75965492D01*
X76752513Y-76037311D01*
X76745157Y-76112000D01*
X74130843Y-76112000D01*
X74123487Y-76037311D01*
X74101701Y-75965492D01*
X74066322Y-75899304D01*
X74018711Y-75841289D01*
X73960696Y-75793678D01*
X73894508Y-75758299D01*
X73822689Y-75736513D01*
X73748000Y-75729157D01*
X72048000Y-75729157D01*
X71973311Y-75736513D01*
X71901492Y-75758299D01*
X71835304Y-75793678D01*
X71777289Y-75841289D01*
X71729678Y-75899304D01*
X71694299Y-75965492D01*
X71672513Y-76037311D01*
X71665157Y-76112000D01*
X71243837Y-76112000D01*
X71217645Y-76080877D01*
X71029229Y-75930099D01*
X70815018Y-75818976D01*
X70613033Y-75757708D01*
X70421500Y-75828027D01*
X70294500Y-75828027D01*
X70102967Y-75757708D01*
X69900982Y-75818976D01*
X69686771Y-75930099D01*
X69498355Y-76080877D01*
X69342974Y-76265516D01*
X69226600Y-76476921D01*
X69153705Y-76706967D01*
X69022295Y-76706967D01*
X68949400Y-76476921D01*
X68833026Y-76265516D01*
X68677645Y-76080877D01*
X68489229Y-75930099D01*
X68275018Y-75818976D01*
X68073033Y-75757708D01*
X67881500Y-75828027D01*
X67754500Y-75828027D01*
X67562967Y-75757708D01*
X67360982Y-75818976D01*
X67146771Y-75930099D01*
X66958355Y-76080877D01*
X66802974Y-76265516D01*
X66686600Y-76476921D01*
X66613705Y-76706967D01*
X66482388Y-76706967D01*
X66461693Y-76602931D01*
X66368898Y-76378903D01*
X66234180Y-76177283D01*
X66062717Y-76005820D01*
X65861097Y-75871102D01*
X65859000Y-75870233D01*
X65859000Y-73434536D01*
X65861811Y-73405999D01*
X65859000Y-73377460D01*
X65850593Y-73292104D01*
X65817371Y-73182585D01*
X65763421Y-73081652D01*
X65690817Y-72993183D01*
X65668641Y-72974984D01*
X65455017Y-72761360D01*
X65436817Y-72739183D01*
X65348348Y-72666579D01*
X65247415Y-72612629D01*
X65137896Y-72579407D01*
X65052540Y-72571000D01*
X65024000Y-72568189D01*
X64995460Y-72571000D01*
X64342990Y-72571000D01*
X64342990Y-71986777D01*
X80479997Y-71986777D01*
X80479997Y-72101223D01*
X80502325Y-72213471D01*
X80546122Y-72319207D01*
X80579997Y-72369905D01*
X80579998Y-73372636D01*
X80547542Y-73421210D01*
X80503745Y-73526946D01*
X80481417Y-73639194D01*
X80481417Y-73753640D01*
X80503745Y-73865888D01*
X80547542Y-73971624D01*
X80611125Y-74066783D01*
X80692051Y-74147709D01*
X80787210Y-74211292D01*
X80892946Y-74255089D01*
X81005194Y-74277417D01*
X81119640Y-74277417D01*
X81231888Y-74255089D01*
X81337624Y-74211292D01*
X81432783Y-74147709D01*
X81513709Y-74066783D01*
X81577292Y-73971624D01*
X81621089Y-73865888D01*
X81629222Y-73825000D01*
X81718223Y-73825000D01*
X81830471Y-73802672D01*
X81936207Y-73758875D01*
X82031366Y-73695292D01*
X82112292Y-73614366D01*
X82175875Y-73519207D01*
X82219672Y-73413471D01*
X82242000Y-73301223D01*
X82242000Y-73186777D01*
X82219672Y-73074529D01*
X82175875Y-72968793D01*
X82142000Y-72918095D01*
X82142000Y-71849374D01*
X82184875Y-71785207D01*
X82228672Y-71679471D01*
X82251000Y-71567223D01*
X82251000Y-71452777D01*
X82228672Y-71340529D01*
X82184875Y-71234793D01*
X82121292Y-71139634D01*
X82040366Y-71058708D01*
X81945207Y-70995125D01*
X81839471Y-70951328D01*
X81727223Y-70929000D01*
X81612777Y-70929000D01*
X81500529Y-70951328D01*
X81394793Y-70995125D01*
X81299634Y-71058708D01*
X81218708Y-71139634D01*
X81155125Y-71234793D01*
X81111328Y-71340529D01*
X81089000Y-71452777D01*
X81089000Y-71463000D01*
X81003774Y-71463000D01*
X80891526Y-71485328D01*
X80785790Y-71529125D01*
X80690631Y-71592708D01*
X80609705Y-71673634D01*
X80546122Y-71768793D01*
X80502325Y-71874529D01*
X80479997Y-71986777D01*
X64342990Y-71986777D01*
X64342990Y-52573031D01*
X64374478Y-52598872D01*
X64458039Y-52643536D01*
X64548708Y-52671040D01*
X64619374Y-52678000D01*
X64619375Y-52678000D01*
X64642999Y-52680327D01*
X64666623Y-52678000D01*
X67700812Y-52678000D01*
X67743102Y-52780097D01*
X67877820Y-52981717D01*
X68049283Y-53153180D01*
X68250903Y-53287898D01*
X68474931Y-53380693D01*
X68712757Y-53428000D01*
X68955243Y-53428000D01*
X69193069Y-53380693D01*
X69417097Y-53287898D01*
X69503002Y-53230498D01*
X69503002Y-55094364D01*
X69500674Y-55118000D01*
X69509961Y-55212292D01*
X69537466Y-55302960D01*
X69537466Y-55302961D01*
X69582130Y-55386522D01*
X69642238Y-55459764D01*
X69660590Y-55474825D01*
X69881171Y-55695406D01*
X69896237Y-55713764D01*
X69969479Y-55773872D01*
X70053040Y-55818536D01*
X70143709Y-55846040D01*
X70214375Y-55853000D01*
X70214376Y-55853000D01*
X70238000Y-55855327D01*
X70261624Y-55853000D01*
X82088996Y-55853000D01*
X82085125Y-55858793D01*
X82041328Y-55964529D01*
X82019000Y-56076777D01*
X82019000Y-56191223D01*
X82041328Y-56303471D01*
X82085125Y-56409207D01*
X82119000Y-56459905D01*
X82119001Y-57176364D01*
X82116673Y-57200000D01*
X82125960Y-57294292D01*
X82152909Y-57383128D01*
X82153465Y-57384961D01*
X82198129Y-57468522D01*
X82258237Y-57541764D01*
X82276590Y-57556826D01*
X82447166Y-57727401D01*
X82462236Y-57745764D01*
X82535478Y-57805872D01*
X82581165Y-57830292D01*
X82619038Y-57850536D01*
X82709707Y-57878040D01*
X82804000Y-57887327D01*
X82827626Y-57885000D01*
X82986095Y-57885000D01*
X83036793Y-57918875D01*
X83142529Y-57962672D01*
X83254777Y-57985000D01*
X83369223Y-57985000D01*
X83481471Y-57962672D01*
X83587207Y-57918875D01*
X83682366Y-57855292D01*
X83763292Y-57774366D01*
X83826875Y-57679207D01*
X83870672Y-57573471D01*
X83893000Y-57461223D01*
X83893000Y-57346777D01*
X83870672Y-57234529D01*
X83826875Y-57128793D01*
X83763292Y-57033634D01*
X83682366Y-56952708D01*
X83587207Y-56889125D01*
X83481471Y-56845328D01*
X83369223Y-56823000D01*
X83254777Y-56823000D01*
X83142529Y-56845328D01*
X83081000Y-56870814D01*
X83081000Y-56459905D01*
X83114875Y-56409207D01*
X83158672Y-56303471D01*
X83181000Y-56191223D01*
X83181000Y-56076777D01*
X83158672Y-55964529D01*
X83114875Y-55858793D01*
X83111004Y-55853000D01*
X83922374Y-55853000D01*
X83946000Y-55855327D01*
X83969626Y-55853000D01*
X84040292Y-55846040D01*
X84130961Y-55818536D01*
X84214522Y-55773872D01*
X84287764Y-55713764D01*
X84302830Y-55695406D01*
X84523406Y-55474830D01*
X84541764Y-55459764D01*
X84601872Y-55386522D01*
X84609001Y-55373185D01*
X84609001Y-65686000D01*
X80414626Y-65686000D01*
X80390999Y-65683673D01*
X80296707Y-65692960D01*
X80269203Y-65701304D01*
X80206039Y-65720464D01*
X80122478Y-65765128D01*
X80049236Y-65825236D01*
X80034170Y-65843594D01*
X79846594Y-66031170D01*
X79828236Y-66046236D01*
X79768128Y-66119478D01*
X79723464Y-66203040D01*
X79713341Y-66236412D01*
X79695960Y-66293708D01*
X79686673Y-66388000D01*
X79689000Y-66411627D01*
X79689001Y-67238094D01*
X79670000Y-67266531D01*
X79651000Y-67238095D01*
X79651000Y-57966744D01*
X79671471Y-57962672D01*
X79777207Y-57918875D01*
X79872366Y-57855292D01*
X79953292Y-57774366D01*
X80016875Y-57679207D01*
X80060672Y-57573471D01*
X80083000Y-57461223D01*
X80083000Y-57346777D01*
X80060672Y-57234529D01*
X80016875Y-57128793D01*
X79953292Y-57033634D01*
X79872366Y-56952708D01*
X79777207Y-56889125D01*
X79671471Y-56845328D01*
X79559223Y-56823000D01*
X79444777Y-56823000D01*
X79332529Y-56845328D01*
X79226793Y-56889125D01*
X79131634Y-56952708D01*
X79050708Y-57033634D01*
X78987125Y-57128793D01*
X78943328Y-57234529D01*
X78931432Y-57294331D01*
X78846593Y-57379171D01*
X78828236Y-57394236D01*
X78813000Y-57412801D01*
X78813000Y-56797540D01*
X78815811Y-56769000D01*
X78813000Y-56740460D01*
X78813000Y-56711777D01*
X78807404Y-56683645D01*
X78804593Y-56655104D01*
X78796267Y-56627657D01*
X78790672Y-56599529D01*
X78779698Y-56573034D01*
X78771371Y-56545585D01*
X78757850Y-56520289D01*
X78746875Y-56493793D01*
X78730941Y-56469946D01*
X78717421Y-56444652D01*
X78699227Y-56422482D01*
X78683292Y-56398634D01*
X78663013Y-56378355D01*
X78644817Y-56356183D01*
X78622645Y-56337987D01*
X78602366Y-56317708D01*
X78578518Y-56301773D01*
X78556348Y-56283579D01*
X78531054Y-56270059D01*
X78507207Y-56254125D01*
X78480711Y-56243150D01*
X78455415Y-56229629D01*
X78427966Y-56221302D01*
X78401471Y-56210328D01*
X78373343Y-56204733D01*
X78345896Y-56196407D01*
X78317355Y-56193596D01*
X78289223Y-56188000D01*
X78260540Y-56188000D01*
X78232000Y-56185189D01*
X78203460Y-56188000D01*
X67125777Y-56188000D01*
X67097645Y-56193596D01*
X67069104Y-56196407D01*
X67041657Y-56204733D01*
X67013529Y-56210328D01*
X66987034Y-56221302D01*
X66959585Y-56229629D01*
X66934289Y-56243150D01*
X66907793Y-56254125D01*
X66883946Y-56270059D01*
X66858652Y-56283579D01*
X66836482Y-56301773D01*
X66812634Y-56317708D01*
X66792355Y-56337987D01*
X66770183Y-56356183D01*
X66751987Y-56378355D01*
X66731708Y-56398634D01*
X66715773Y-56422482D01*
X66697579Y-56444652D01*
X66684059Y-56469946D01*
X66668125Y-56493793D01*
X66657150Y-56520289D01*
X66643629Y-56545585D01*
X66635302Y-56573034D01*
X66624328Y-56599529D01*
X66618733Y-56627657D01*
X66610407Y-56655104D01*
X66607596Y-56683645D01*
X66602000Y-56711777D01*
X66602000Y-56740460D01*
X66599189Y-56769000D01*
X66602000Y-56797540D01*
X66602000Y-56826223D01*
X66607596Y-56854355D01*
X66610407Y-56882896D01*
X66618733Y-56910343D01*
X66624328Y-56938471D01*
X66635302Y-56964966D01*
X66643629Y-56992415D01*
X66657150Y-57017711D01*
X66668125Y-57044207D01*
X66684059Y-57068054D01*
X66697579Y-57093348D01*
X66715773Y-57115518D01*
X66731708Y-57139366D01*
X66751987Y-57159645D01*
X66770183Y-57181817D01*
X66792355Y-57200013D01*
X66812634Y-57220292D01*
X66836482Y-57236227D01*
X66858652Y-57254421D01*
X66883946Y-57267941D01*
X66907793Y-57283875D01*
X66934289Y-57294850D01*
X66959585Y-57308371D01*
X66987034Y-57316698D01*
X67013529Y-57327672D01*
X67041657Y-57333267D01*
X67069104Y-57341593D01*
X67097645Y-57344404D01*
X67125777Y-57350000D01*
X77651001Y-57350000D01*
X77651000Y-60683807D01*
X77651000Y-60798253D01*
X77656596Y-60826386D01*
X77659407Y-60854925D01*
X77667732Y-60882370D01*
X77673328Y-60910501D01*
X77684304Y-60936999D01*
X77692629Y-60964444D01*
X77706148Y-60989737D01*
X77717125Y-61016237D01*
X77733062Y-61040088D01*
X77746579Y-61065377D01*
X77764771Y-61087544D01*
X77780708Y-61111396D01*
X77800989Y-61131677D01*
X77819183Y-61153847D01*
X77841355Y-61172043D01*
X77861634Y-61192322D01*
X77885482Y-61208257D01*
X77907652Y-61226451D01*
X77932946Y-61239971D01*
X77956793Y-61255905D01*
X77983289Y-61266880D01*
X78008585Y-61280401D01*
X78036034Y-61288728D01*
X78062529Y-61299702D01*
X78090657Y-61305297D01*
X78118104Y-61313623D01*
X78146645Y-61316434D01*
X78174777Y-61322030D01*
X78203460Y-61322030D01*
X78232000Y-61324841D01*
X78260540Y-61322030D01*
X78289223Y-61322030D01*
X78317356Y-61316434D01*
X78345895Y-61313623D01*
X78373340Y-61305298D01*
X78401471Y-61299702D01*
X78427969Y-61288726D01*
X78455414Y-61280401D01*
X78480707Y-61266882D01*
X78507207Y-61255905D01*
X78531058Y-61239968D01*
X78556347Y-61226451D01*
X78578514Y-61208259D01*
X78602366Y-61192322D01*
X78622647Y-61172041D01*
X78644817Y-61153847D01*
X78663013Y-61131675D01*
X78683292Y-61111396D01*
X78689001Y-61102852D01*
X78689000Y-67238095D01*
X78655125Y-67288793D01*
X78611328Y-67394529D01*
X78589000Y-67506777D01*
X78589000Y-67621223D01*
X78611328Y-67733471D01*
X78655125Y-67839207D01*
X78718708Y-67934366D01*
X78799634Y-68015292D01*
X78894793Y-68078875D01*
X79000529Y-68122672D01*
X79112777Y-68145000D01*
X79227223Y-68145000D01*
X79339471Y-68122672D01*
X79445207Y-68078875D01*
X79540366Y-68015292D01*
X79621292Y-67934366D01*
X79670000Y-67861469D01*
X79718708Y-67934366D01*
X79799634Y-68015292D01*
X79894793Y-68078875D01*
X80000529Y-68122672D01*
X80112777Y-68145000D01*
X80227223Y-68145000D01*
X80339471Y-68122672D01*
X80445207Y-68078875D01*
X80540366Y-68015292D01*
X80621292Y-67934366D01*
X80684875Y-67839207D01*
X80728672Y-67733471D01*
X80748712Y-67632725D01*
X80839471Y-67614672D01*
X80945207Y-67570875D01*
X80995905Y-67537000D01*
X85320374Y-67537000D01*
X85344000Y-67539327D01*
X85367626Y-67537000D01*
X85438292Y-67530040D01*
X85528961Y-67502536D01*
X85612522Y-67457872D01*
X85685764Y-67397764D01*
X85700830Y-67379406D01*
X85921406Y-67158830D01*
X85939764Y-67143764D01*
X85999872Y-67070522D01*
X86044536Y-66986961D01*
X86072040Y-66896292D01*
X86079000Y-66825626D01*
X86079000Y-66825625D01*
X86081327Y-66802001D01*
X86079000Y-66778377D01*
X86079000Y-43714237D01*
X86219002Y-43854239D01*
X86219001Y-66737375D01*
X86216674Y-66761001D01*
X86220712Y-66802001D01*
X86225961Y-66855292D01*
X86253465Y-66945961D01*
X86298129Y-67029523D01*
X86358237Y-67102765D01*
X86376595Y-67117831D01*
X86511170Y-67252406D01*
X86526236Y-67270764D01*
X86599478Y-67330872D01*
X86683039Y-67375536D01*
X86773708Y-67403040D01*
X86844374Y-67410000D01*
X86844383Y-67410000D01*
X86867999Y-67412326D01*
X86891615Y-67410000D01*
X89844095Y-67410000D01*
X89894793Y-67443875D01*
X90000529Y-67487672D01*
X90112777Y-67510000D01*
X90227223Y-67510000D01*
X90339471Y-67487672D01*
X90445207Y-67443875D01*
X90540366Y-67380292D01*
X90621292Y-67299366D01*
X90684875Y-67204207D01*
X90728672Y-67098471D01*
X90751000Y-66986223D01*
X90751000Y-66871777D01*
X90728672Y-66759529D01*
X90684875Y-66653793D01*
X90621292Y-66558634D01*
X90540366Y-66477708D01*
X90445207Y-66414125D01*
X90339471Y-66370328D01*
X90227223Y-66348000D01*
X90112777Y-66348000D01*
X90000529Y-66370328D01*
X89894793Y-66414125D01*
X89844095Y-66448000D01*
X87181001Y-66448000D01*
X87181001Y-62221659D01*
X87230987Y-62271645D01*
X87249183Y-62293817D01*
X87337652Y-62366421D01*
X87438585Y-62420371D01*
X87548104Y-62453593D01*
X87661999Y-62464811D01*
X87690539Y-62462000D01*
X88967276Y-62462000D01*
X89046626Y-62653568D01*
X89225119Y-62920702D01*
X89452298Y-63147881D01*
X89719432Y-63326374D01*
X90016255Y-63449322D01*
X90331360Y-63512000D01*
X90652640Y-63512000D01*
X90967745Y-63449322D01*
X91264568Y-63326374D01*
X91531702Y-63147881D01*
X91758881Y-62920702D01*
X91937374Y-62653568D01*
X92060322Y-62356745D01*
X92123000Y-62041640D01*
X92123000Y-61720360D01*
X92060322Y-61405255D01*
X91937374Y-61108432D01*
X91758881Y-60841298D01*
X91531702Y-60614119D01*
X91264568Y-60435626D01*
X90967745Y-60312678D01*
X90652640Y-60250000D01*
X90331360Y-60250000D01*
X90016255Y-60312678D01*
X89719432Y-60435626D01*
X89452298Y-60614119D01*
X89225119Y-60841298D01*
X89046626Y-61108432D01*
X88967276Y-61300000D01*
X87902658Y-61300000D01*
X87830000Y-61227343D01*
X87830000Y-57720360D01*
X88861000Y-57720360D01*
X88861000Y-58041640D01*
X88923678Y-58356745D01*
X89046626Y-58653568D01*
X89225119Y-58920702D01*
X89452298Y-59147881D01*
X89719432Y-59326374D01*
X90016255Y-59449322D01*
X90331360Y-59512000D01*
X90652640Y-59512000D01*
X90967745Y-59449322D01*
X91264568Y-59326374D01*
X91531702Y-59147881D01*
X91758881Y-58920702D01*
X91937374Y-58653568D01*
X92060322Y-58356745D01*
X92123000Y-58041640D01*
X92123000Y-57720360D01*
X92060322Y-57405255D01*
X91937374Y-57108432D01*
X91758881Y-56841298D01*
X91531702Y-56614119D01*
X91264568Y-56435626D01*
X90967745Y-56312678D01*
X90652640Y-56250000D01*
X90331360Y-56250000D01*
X90016255Y-56312678D01*
X89719432Y-56435626D01*
X89452298Y-56614119D01*
X89225119Y-56841298D01*
X89046626Y-57108432D01*
X88923678Y-57405255D01*
X88861000Y-57720360D01*
X87830000Y-57720360D01*
X87830000Y-53720360D01*
X88861000Y-53720360D01*
X88861000Y-54041640D01*
X88923678Y-54356745D01*
X89046626Y-54653568D01*
X89225119Y-54920702D01*
X89452298Y-55147881D01*
X89719432Y-55326374D01*
X90016255Y-55449322D01*
X90331360Y-55512000D01*
X90652640Y-55512000D01*
X90967745Y-55449322D01*
X91264568Y-55326374D01*
X91531702Y-55147881D01*
X91758881Y-54920702D01*
X91937374Y-54653568D01*
X92060322Y-54356745D01*
X92123000Y-54041640D01*
X92123000Y-53720360D01*
X92060322Y-53405255D01*
X91937374Y-53108432D01*
X91758881Y-52841298D01*
X91531702Y-52614119D01*
X91264568Y-52435626D01*
X90967745Y-52312678D01*
X90652640Y-52250000D01*
X90331360Y-52250000D01*
X90016255Y-52312678D01*
X89719432Y-52435626D01*
X89452298Y-52614119D01*
X89225119Y-52841298D01*
X89046626Y-53108432D01*
X88923678Y-53405255D01*
X88861000Y-53720360D01*
X87830000Y-53720360D01*
X87830000Y-50742777D01*
X87824404Y-50714645D01*
X87821593Y-50686104D01*
X87813267Y-50658657D01*
X87807672Y-50630529D01*
X87796698Y-50604034D01*
X87788371Y-50576585D01*
X87774850Y-50551289D01*
X87763875Y-50524793D01*
X87747941Y-50500946D01*
X87734421Y-50475652D01*
X87716227Y-50453482D01*
X87700292Y-50429634D01*
X87680013Y-50409355D01*
X87661817Y-50387183D01*
X87639647Y-50368989D01*
X87619366Y-50348708D01*
X87595514Y-50332771D01*
X87573347Y-50314579D01*
X87548058Y-50301062D01*
X87524207Y-50285125D01*
X87497707Y-50274148D01*
X87472414Y-50260629D01*
X87444969Y-50252304D01*
X87418471Y-50241328D01*
X87390340Y-50235732D01*
X87362895Y-50227407D01*
X87334356Y-50224596D01*
X87306223Y-50219000D01*
X87277540Y-50219000D01*
X87249000Y-50216189D01*
X87220460Y-50219000D01*
X87191777Y-50219000D01*
X87181001Y-50221144D01*
X87181001Y-49720360D01*
X88861000Y-49720360D01*
X88861000Y-50041640D01*
X88923678Y-50356745D01*
X89046626Y-50653568D01*
X89225119Y-50920702D01*
X89452298Y-51147881D01*
X89719432Y-51326374D01*
X90016255Y-51449322D01*
X90331360Y-51512000D01*
X90652640Y-51512000D01*
X90967745Y-51449322D01*
X91264568Y-51326374D01*
X91531702Y-51147881D01*
X91758881Y-50920702D01*
X91937374Y-50653568D01*
X92060322Y-50356745D01*
X92123000Y-50041640D01*
X92123000Y-49720360D01*
X92060322Y-49405255D01*
X91937374Y-49108432D01*
X91758881Y-48841298D01*
X91531702Y-48614119D01*
X91264568Y-48435626D01*
X90967745Y-48312678D01*
X90652640Y-48250000D01*
X90331360Y-48250000D01*
X90016255Y-48312678D01*
X89719432Y-48435626D01*
X89452298Y-48614119D01*
X89225119Y-48841298D01*
X89046626Y-49108432D01*
X88923678Y-49405255D01*
X88861000Y-49720360D01*
X87181001Y-49720360D01*
X87181001Y-43678627D01*
X87183328Y-43655001D01*
X87174041Y-43560708D01*
X87162227Y-43521763D01*
X87146537Y-43470040D01*
X87101873Y-43386479D01*
X87041765Y-43313237D01*
X87023412Y-43298175D01*
X86945597Y-43220360D01*
X88861000Y-43220360D01*
X88861000Y-43541640D01*
X88923678Y-43856745D01*
X89046626Y-44153568D01*
X89225119Y-44420702D01*
X89452298Y-44647881D01*
X89719432Y-44826374D01*
X90016255Y-44949322D01*
X90331360Y-45012000D01*
X90652640Y-45012000D01*
X90967745Y-44949322D01*
X91264568Y-44826374D01*
X91531702Y-44647881D01*
X91758881Y-44420702D01*
X91937374Y-44153568D01*
X92060322Y-43856745D01*
X92123000Y-43541640D01*
X92123000Y-43220360D01*
X92060322Y-42905255D01*
X91937374Y-42608432D01*
X91758881Y-42341298D01*
X91531702Y-42114119D01*
X91264568Y-41935626D01*
X90967745Y-41812678D01*
X90652640Y-41750000D01*
X90331360Y-41750000D01*
X90016255Y-41812678D01*
X89719432Y-41935626D01*
X89452298Y-42114119D01*
X89225119Y-42341298D01*
X89046626Y-42608432D01*
X88923678Y-42905255D01*
X88861000Y-43220360D01*
X86945597Y-43220360D01*
X86668568Y-42943331D01*
X86656672Y-42883529D01*
X86612875Y-42777793D01*
X86549292Y-42682634D01*
X86468366Y-42601708D01*
X86373207Y-42538125D01*
X86267471Y-42494328D01*
X86155223Y-42472000D01*
X86079000Y-42472000D01*
X86079000Y-39220360D01*
X88861000Y-39220360D01*
X88861000Y-39541640D01*
X88923678Y-39856745D01*
X89046626Y-40153568D01*
X89225119Y-40420702D01*
X89452298Y-40647881D01*
X89719432Y-40826374D01*
X90016255Y-40949322D01*
X90331360Y-41012000D01*
X90652640Y-41012000D01*
X90967745Y-40949322D01*
X91264568Y-40826374D01*
X91531702Y-40647881D01*
X91758881Y-40420702D01*
X91937374Y-40153568D01*
X92060322Y-39856745D01*
X92123000Y-39541640D01*
X92123000Y-39220360D01*
X92060322Y-38905255D01*
X91937374Y-38608432D01*
X91758881Y-38341298D01*
X91531702Y-38114119D01*
X91264568Y-37935626D01*
X90967745Y-37812678D01*
X90652640Y-37750000D01*
X90331360Y-37750000D01*
X90016255Y-37812678D01*
X89719432Y-37935626D01*
X89452298Y-38114119D01*
X89225119Y-38341298D01*
X89046626Y-38608432D01*
X88923678Y-38905255D01*
X88861000Y-39220360D01*
X86079000Y-39220360D01*
X86079000Y-36516497D01*
X89446306Y-36516497D01*
X89580780Y-36743220D01*
X89864045Y-36894816D01*
X90171442Y-36988237D01*
X90491158Y-37019892D01*
X90810906Y-36988566D01*
X91118399Y-36895462D01*
X91401819Y-36744157D01*
X91403220Y-36743220D01*
X91537694Y-36516497D01*
X90492000Y-35470803D01*
X89446306Y-36516497D01*
X86079000Y-36516497D01*
X86079000Y-35380158D01*
X88853108Y-35380158D01*
X88884434Y-35699906D01*
X88977538Y-36007399D01*
X89128843Y-36290819D01*
X89129780Y-36292220D01*
X89356503Y-36426694D01*
X90402197Y-35381000D01*
X90581803Y-35381000D01*
X91627497Y-36426694D01*
X91854220Y-36292220D01*
X92005816Y-36008955D01*
X92099237Y-35701558D01*
X92130892Y-35381842D01*
X92099566Y-35062094D01*
X92006462Y-34754601D01*
X91855157Y-34471181D01*
X91854220Y-34469780D01*
X91627497Y-34335306D01*
X90581803Y-35381000D01*
X90402197Y-35381000D01*
X89356503Y-34335306D01*
X89129780Y-34469780D01*
X88978184Y-34753045D01*
X88884763Y-35060442D01*
X88853108Y-35380158D01*
X86079000Y-35380158D01*
X86079000Y-34245503D01*
X89446306Y-34245503D01*
X90492000Y-35291197D01*
X91537694Y-34245503D01*
X91403220Y-34018780D01*
X91119955Y-33867184D01*
X90812558Y-33773763D01*
X90492842Y-33742108D01*
X90173094Y-33773434D01*
X89865601Y-33866538D01*
X89582181Y-34017843D01*
X89580780Y-34018780D01*
X89446306Y-34245503D01*
X86079000Y-34245503D01*
X86079000Y-29835188D01*
X86181097Y-29792898D01*
X86382717Y-29658180D01*
X86554180Y-29486717D01*
X86688898Y-29285097D01*
X86781693Y-29061069D01*
X86829000Y-28823243D01*
X86829000Y-28580757D01*
X86907000Y-28580757D01*
X86907000Y-28823243D01*
X86954307Y-29061069D01*
X87047102Y-29285097D01*
X87181820Y-29486717D01*
X87353283Y-29658180D01*
X87554903Y-29792898D01*
X87778931Y-29885693D01*
X88016757Y-29933000D01*
X88259243Y-29933000D01*
X88497069Y-29885693D01*
X88721097Y-29792898D01*
X88922717Y-29658180D01*
X89094180Y-29486717D01*
X89228898Y-29285097D01*
X89321693Y-29061069D01*
X89369000Y-28823243D01*
X89369000Y-28580757D01*
X89321693Y-28342931D01*
X89228898Y-28118903D01*
X89094180Y-27917283D01*
X89028897Y-27852000D01*
X89445157Y-27852000D01*
X89445157Y-29552000D01*
X89452513Y-29626689D01*
X89474299Y-29698508D01*
X89509678Y-29764696D01*
X89557289Y-29822711D01*
X89615304Y-29870322D01*
X89681492Y-29905701D01*
X89753311Y-29927487D01*
X89828000Y-29934843D01*
X91528000Y-29934843D01*
X91602689Y-29927487D01*
X91674508Y-29905701D01*
X91740696Y-29870322D01*
X91798711Y-29822711D01*
X91846322Y-29764696D01*
X91881701Y-29698508D01*
X91903487Y-29626689D01*
X91910843Y-29552000D01*
X91910843Y-27852000D01*
X91903487Y-27777311D01*
X91881701Y-27705492D01*
X91846322Y-27639304D01*
X91798711Y-27581289D01*
X91740696Y-27533678D01*
X91674508Y-27498299D01*
X91602689Y-27476513D01*
X91528000Y-27469157D01*
X89828000Y-27469157D01*
X89753311Y-27476513D01*
X89681492Y-27498299D01*
X89615304Y-27533678D01*
X89557289Y-27581289D01*
X89509678Y-27639304D01*
X89474299Y-27705492D01*
X89452513Y-27777311D01*
X89445157Y-27852000D01*
X89028897Y-27852000D01*
X88922717Y-27745820D01*
X88721097Y-27611102D01*
X88497069Y-27518307D01*
X88259243Y-27471000D01*
X88016757Y-27471000D01*
X87778931Y-27518307D01*
X87554903Y-27611102D01*
X87353283Y-27745820D01*
X87181820Y-27917283D01*
X87047102Y-28118903D01*
X86954307Y-28342931D01*
X86907000Y-28580757D01*
X86829000Y-28580757D01*
X86781693Y-28342931D01*
X86688898Y-28118903D01*
X86554180Y-27917283D01*
X86382717Y-27745820D01*
X86181097Y-27611102D01*
X85957069Y-27518307D01*
X85719243Y-27471000D01*
X85476757Y-27471000D01*
X85238931Y-27518307D01*
X85014903Y-27611102D01*
X84813283Y-27745820D01*
X84641820Y-27917283D01*
X84507102Y-28118903D01*
X84414307Y-28342931D01*
X84367000Y-28580757D01*
X84367000Y-28823243D01*
X84414307Y-29061069D01*
X84507102Y-29285097D01*
X84641820Y-29486717D01*
X84813283Y-29658180D01*
X85014903Y-29792898D01*
X85117000Y-29835188D01*
X85117000Y-31358368D01*
X85104522Y-31348128D01*
X85020961Y-31303464D01*
X84930292Y-31275960D01*
X84859626Y-31269000D01*
X84836000Y-31266673D01*
X84812374Y-31269000D01*
X83539000Y-31269000D01*
X83539000Y-29835188D01*
X83641097Y-29792898D01*
X83842717Y-29658180D01*
X84014180Y-29486717D01*
X84148898Y-29285097D01*
X84241693Y-29061069D01*
X84289000Y-28823243D01*
X84289000Y-28580757D01*
X84241693Y-28342931D01*
X84148898Y-28118903D01*
X84014180Y-27917283D01*
X83842717Y-27745820D01*
X83641097Y-27611102D01*
X83417069Y-27518307D01*
X83179243Y-27471000D01*
X82936757Y-27471000D01*
X82698931Y-27518307D01*
X82474903Y-27611102D01*
X82273283Y-27745820D01*
X82101820Y-27917283D01*
X81967102Y-28118903D01*
X81874307Y-28342931D01*
X81827000Y-28580757D01*
X81827000Y-28823243D01*
X81874307Y-29061069D01*
X81967102Y-29285097D01*
X82101820Y-29486717D01*
X82273283Y-29658180D01*
X82474903Y-29792898D01*
X82577000Y-29835188D01*
X82577001Y-31472364D01*
X82574673Y-31496000D01*
X82583960Y-31590292D01*
X82605785Y-31662236D01*
X82611465Y-31680961D01*
X82656129Y-31764522D01*
X82716237Y-31837764D01*
X82734589Y-31852825D01*
X82955170Y-32073406D01*
X82970236Y-32091764D01*
X83043478Y-32151872D01*
X83127039Y-32196536D01*
X83217708Y-32224040D01*
X83288374Y-32231000D01*
X83288375Y-32231000D01*
X83311999Y-32233327D01*
X83335623Y-32231000D01*
X84609000Y-32231000D01*
X84609000Y-42491251D01*
X84512223Y-42472000D01*
X84397777Y-42472000D01*
X84285529Y-42494328D01*
X84179793Y-42538125D01*
X84129095Y-42572000D01*
X78763626Y-42572000D01*
X78739999Y-42569673D01*
X78645707Y-42578960D01*
X78624605Y-42585362D01*
X78579645Y-42599000D01*
X78555777Y-42599000D01*
X78443529Y-42621328D01*
X78337793Y-42665125D01*
X78242634Y-42728708D01*
X78161708Y-42809634D01*
X78098125Y-42904793D01*
X78054328Y-43010529D01*
X78032000Y-43122777D01*
X78032000Y-43237223D01*
X78054328Y-43349471D01*
X78098125Y-43455207D01*
X78123259Y-43492822D01*
X78111707Y-43493960D01*
X78093326Y-43499536D01*
X78021039Y-43521464D01*
X77937478Y-43566128D01*
X77864236Y-43626236D01*
X77849174Y-43644589D01*
X77270764Y-44223000D01*
X64539623Y-44223000D01*
X64515999Y-44220673D01*
X64492375Y-44223000D01*
X64492374Y-44223000D01*
X64421708Y-44229960D01*
X64342990Y-44253839D01*
X64342990Y-42237000D01*
X66351223Y-42237000D01*
X66379355Y-42231404D01*
X66407896Y-42228593D01*
X66435343Y-42220267D01*
X66463471Y-42214672D01*
X66489966Y-42203698D01*
X66517415Y-42195371D01*
X66542711Y-42181850D01*
X66569207Y-42170875D01*
X66593054Y-42154941D01*
X66618348Y-42141421D01*
X66640518Y-42123227D01*
X66664366Y-42107292D01*
X66684645Y-42087013D01*
X66706817Y-42068817D01*
X66725013Y-42046645D01*
X66745292Y-42026366D01*
X66761227Y-42002518D01*
X66779421Y-41980348D01*
X66792941Y-41955054D01*
X66808875Y-41931207D01*
X66819850Y-41904711D01*
X66833371Y-41879415D01*
X66841698Y-41851966D01*
X66852672Y-41825471D01*
X66858267Y-41797343D01*
X66866593Y-41769896D01*
X66869404Y-41741355D01*
X66875000Y-41713223D01*
X66875000Y-41684540D01*
X66877811Y-41656000D01*
X66875000Y-41627460D01*
X66875000Y-41598777D01*
X66869404Y-41570645D01*
X66866593Y-41542104D01*
X66858267Y-41514657D01*
X66852672Y-41486529D01*
X66841698Y-41460034D01*
X66833371Y-41432585D01*
X66819850Y-41407289D01*
X66808875Y-41380793D01*
X66792941Y-41356946D01*
X66779421Y-41331652D01*
X66761227Y-41309482D01*
X66745292Y-41285634D01*
X66725013Y-41265355D01*
X66706817Y-41243183D01*
X66684645Y-41224987D01*
X66664366Y-41204708D01*
X66640518Y-41188773D01*
X66618348Y-41170579D01*
X66593054Y-41157059D01*
X66569207Y-41141125D01*
X66542711Y-41130150D01*
X66517415Y-41116629D01*
X66489966Y-41108302D01*
X66463471Y-41097328D01*
X66435343Y-41091733D01*
X66407896Y-41083407D01*
X66379355Y-41080596D01*
X66351223Y-41075000D01*
X64036540Y-41075000D01*
X64008000Y-41072189D01*
X63979460Y-41075000D01*
X63894104Y-41083407D01*
X63784585Y-41116629D01*
X63683652Y-41170579D01*
X63595183Y-41243183D01*
X63576983Y-41265360D01*
X63371350Y-41470993D01*
X63349173Y-41489193D01*
X63276570Y-41577662D01*
X63276569Y-41577663D01*
X63222619Y-41678596D01*
X63189397Y-41788115D01*
X63178179Y-41902010D01*
X63180990Y-41930550D01*
X63180990Y-49405332D01*
X63169013Y-49393355D01*
X63150817Y-49371183D01*
X63128647Y-49352989D01*
X63108366Y-49332708D01*
X63084514Y-49316771D01*
X63062347Y-49298579D01*
X63037058Y-49285062D01*
X63013207Y-49269125D01*
X62986707Y-49258148D01*
X62961414Y-49244629D01*
X62933969Y-49236304D01*
X62907471Y-49225328D01*
X62879340Y-49219732D01*
X62851895Y-49211407D01*
X62823356Y-49208596D01*
X62795223Y-49203000D01*
X62766540Y-49203000D01*
X62738000Y-49200189D01*
X62709460Y-49203000D01*
X62680777Y-49203000D01*
X62652645Y-49208596D01*
X62624104Y-49211407D01*
X62596657Y-49219733D01*
X62568529Y-49225328D01*
X62542034Y-49236302D01*
X62514585Y-49244629D01*
X62489289Y-49258150D01*
X62462793Y-49269125D01*
X62438946Y-49285059D01*
X62413652Y-49298579D01*
X62391482Y-49316773D01*
X62367634Y-49332708D01*
X62347355Y-49352987D01*
X62325183Y-49371183D01*
X62306989Y-49393353D01*
X62286708Y-49413634D01*
X62270771Y-49437486D01*
X62252579Y-49459653D01*
X62239062Y-49484942D01*
X62223125Y-49508793D01*
X62212148Y-49535293D01*
X62198629Y-49560586D01*
X62190304Y-49588031D01*
X62179328Y-49614529D01*
X62173732Y-49642660D01*
X62165407Y-49670105D01*
X62162596Y-49698644D01*
X62157000Y-49726777D01*
X62157000Y-49755461D01*
X62157001Y-75870233D01*
X62154903Y-75871102D01*
X61953283Y-76005820D01*
X61781820Y-76177283D01*
X61647102Y-76378903D01*
X61554307Y-76602931D01*
X61507000Y-76840757D01*
X61429000Y-76840757D01*
X61381693Y-76602931D01*
X61288898Y-76378903D01*
X61154180Y-76177283D01*
X60982717Y-76005820D01*
X60781097Y-75871102D01*
X60557069Y-75778307D01*
X60319243Y-75731000D01*
X60076757Y-75731000D01*
X59838931Y-75778307D01*
X59614903Y-75871102D01*
X59413283Y-76005820D01*
X59241820Y-76177283D01*
X59107102Y-76378903D01*
X59014307Y-76602931D01*
X58967000Y-76840757D01*
X58889000Y-76840757D01*
X58841693Y-76602931D01*
X58748898Y-76378903D01*
X58614180Y-76177283D01*
X58442717Y-76005820D01*
X58241097Y-75871102D01*
X58017069Y-75778307D01*
X57779243Y-75731000D01*
X57536757Y-75731000D01*
X57298931Y-75778307D01*
X57074903Y-75871102D01*
X56873283Y-76005820D01*
X56701820Y-76177283D01*
X56567102Y-76378903D01*
X56474307Y-76602931D01*
X56427000Y-76840757D01*
X56349000Y-76840757D01*
X56301693Y-76602931D01*
X56208898Y-76378903D01*
X56074180Y-76177283D01*
X55902717Y-76005820D01*
X55701097Y-75871102D01*
X55477069Y-75778307D01*
X55239243Y-75731000D01*
X54996757Y-75731000D01*
X54758931Y-75778307D01*
X54534903Y-75871102D01*
X54333283Y-76005820D01*
X54161820Y-76177283D01*
X54027102Y-76378903D01*
X53934307Y-76602931D01*
X53887000Y-76840757D01*
X40030000Y-76840757D01*
X40030000Y-74618777D01*
X47044000Y-74618777D01*
X47044000Y-74733223D01*
X47066328Y-74845471D01*
X47110125Y-74951207D01*
X47173708Y-75046366D01*
X47254634Y-75127292D01*
X47349793Y-75190875D01*
X47455529Y-75234672D01*
X47567777Y-75257000D01*
X47682223Y-75257000D01*
X47794471Y-75234672D01*
X47900207Y-75190875D01*
X47995366Y-75127292D01*
X48076292Y-75046366D01*
X48139875Y-74951207D01*
X48183672Y-74845471D01*
X48206000Y-74733223D01*
X48206000Y-74618777D01*
X48183672Y-74506529D01*
X48139875Y-74400793D01*
X48106000Y-74350095D01*
X48106000Y-38146658D01*
X48129634Y-38170292D01*
X48224793Y-38233875D01*
X48330529Y-38277672D01*
X48442777Y-38300000D01*
X48453973Y-38300000D01*
X48441328Y-38330529D01*
X48419000Y-38442777D01*
X48419000Y-38557223D01*
X48441328Y-38669471D01*
X48485125Y-38775207D01*
X48548708Y-38870366D01*
X48629634Y-38951292D01*
X48724793Y-39014875D01*
X48830529Y-39058672D01*
X48942777Y-39081000D01*
X49057223Y-39081000D01*
X49169471Y-39058672D01*
X49275207Y-39014875D01*
X49370366Y-38951292D01*
X49451292Y-38870366D01*
X49500000Y-38797469D01*
X49548708Y-38870366D01*
X49629634Y-38951292D01*
X49724793Y-39014875D01*
X49830529Y-39058672D01*
X49942777Y-39081000D01*
X50057223Y-39081000D01*
X50169471Y-39058672D01*
X50275207Y-39014875D01*
X50370366Y-38951292D01*
X50451292Y-38870366D01*
X50500000Y-38797469D01*
X50548708Y-38870366D01*
X50629634Y-38951292D01*
X50724793Y-39014875D01*
X50830529Y-39058672D01*
X50942777Y-39081000D01*
X51057223Y-39081000D01*
X51169471Y-39058672D01*
X51275207Y-39014875D01*
X51370366Y-38951292D01*
X51451292Y-38870366D01*
X51500000Y-38797469D01*
X51548708Y-38870366D01*
X51629634Y-38951292D01*
X51724793Y-39014875D01*
X51830529Y-39058672D01*
X51942777Y-39081000D01*
X52057223Y-39081000D01*
X52169471Y-39058672D01*
X52275207Y-39014875D01*
X52370366Y-38951292D01*
X52451292Y-38870366D01*
X52500000Y-38797469D01*
X52548708Y-38870366D01*
X52629634Y-38951292D01*
X52724793Y-39014875D01*
X52830529Y-39058672D01*
X52942777Y-39081000D01*
X53057223Y-39081000D01*
X53169471Y-39058672D01*
X53275207Y-39014875D01*
X53370366Y-38951292D01*
X53451292Y-38870366D01*
X53514875Y-38775207D01*
X53558672Y-38669471D01*
X53581000Y-38557223D01*
X53581000Y-38442777D01*
X53558672Y-38330529D01*
X53514875Y-38224793D01*
X53481000Y-38174095D01*
X53481000Y-35501050D01*
X54044683Y-35501050D01*
X54025960Y-35562768D01*
X54016673Y-35657060D01*
X54019001Y-35680696D01*
X54019000Y-38174095D01*
X53985125Y-38224793D01*
X53941328Y-38330529D01*
X53919000Y-38442777D01*
X53919000Y-38557223D01*
X53941328Y-38669471D01*
X53985125Y-38775207D01*
X54048708Y-38870366D01*
X54129634Y-38951292D01*
X54224793Y-39014875D01*
X54330529Y-39058672D01*
X54442777Y-39081000D01*
X54557223Y-39081000D01*
X54669471Y-39058672D01*
X54775207Y-39014875D01*
X54870366Y-38951292D01*
X54951292Y-38870366D01*
X55000000Y-38797469D01*
X55048708Y-38870366D01*
X55129634Y-38951292D01*
X55224793Y-39014875D01*
X55330529Y-39058672D01*
X55442777Y-39081000D01*
X55557223Y-39081000D01*
X55669471Y-39058672D01*
X55775207Y-39014875D01*
X55870366Y-38951292D01*
X55951292Y-38870366D01*
X56014875Y-38775207D01*
X56058672Y-38669471D01*
X56081000Y-38557223D01*
X56081000Y-38442777D01*
X56058672Y-38330529D01*
X56014875Y-38224793D01*
X55981000Y-38174095D01*
X55981000Y-36301070D01*
X77694304Y-36301070D01*
X77717930Y-36303397D01*
X77741556Y-36301070D01*
X77812222Y-36294110D01*
X77902891Y-36266606D01*
X77986452Y-36221942D01*
X78059694Y-36161834D01*
X78074760Y-36143475D01*
X78301401Y-35916834D01*
X78319764Y-35901764D01*
X78379872Y-35828522D01*
X78421120Y-35751352D01*
X78424536Y-35744962D01*
X78452040Y-35654293D01*
X78461327Y-35560000D01*
X78459000Y-35536373D01*
X78459000Y-29835188D01*
X78561097Y-29792898D01*
X78762717Y-29658180D01*
X78934180Y-29486717D01*
X79068898Y-29285097D01*
X79161693Y-29061069D01*
X79209000Y-28823243D01*
X79209000Y-28580757D01*
X79287000Y-28580757D01*
X79287000Y-28823243D01*
X79334307Y-29061069D01*
X79427102Y-29285097D01*
X79561820Y-29486717D01*
X79733283Y-29658180D01*
X79934903Y-29792898D01*
X80158931Y-29885693D01*
X80396757Y-29933000D01*
X80639243Y-29933000D01*
X80877069Y-29885693D01*
X81101097Y-29792898D01*
X81302717Y-29658180D01*
X81474180Y-29486717D01*
X81608898Y-29285097D01*
X81701693Y-29061069D01*
X81749000Y-28823243D01*
X81749000Y-28580757D01*
X81701693Y-28342931D01*
X81608898Y-28118903D01*
X81474180Y-27917283D01*
X81302717Y-27745820D01*
X81101097Y-27611102D01*
X80877069Y-27518307D01*
X80639243Y-27471000D01*
X80396757Y-27471000D01*
X80158931Y-27518307D01*
X79934903Y-27611102D01*
X79733283Y-27745820D01*
X79561820Y-27917283D01*
X79427102Y-28118903D01*
X79334307Y-28342931D01*
X79287000Y-28580757D01*
X79209000Y-28580757D01*
X79161693Y-28342931D01*
X79068898Y-28118903D01*
X78934180Y-27917283D01*
X78762717Y-27745820D01*
X78561097Y-27611102D01*
X78337069Y-27518307D01*
X78099243Y-27471000D01*
X77856757Y-27471000D01*
X77618931Y-27518307D01*
X77394903Y-27611102D01*
X77193283Y-27745820D01*
X77021820Y-27917283D01*
X76887102Y-28118903D01*
X76794307Y-28342931D01*
X76747000Y-28580757D01*
X76747000Y-28823243D01*
X76794307Y-29061069D01*
X76887102Y-29285097D01*
X77021820Y-29486717D01*
X77193283Y-29658180D01*
X77394903Y-29792898D01*
X77497001Y-29835188D01*
X77497000Y-35339070D01*
X75892087Y-35339070D01*
X75912040Y-35273292D01*
X75919000Y-35202626D01*
X75919000Y-35202625D01*
X75921327Y-35179001D01*
X75919000Y-35155377D01*
X75919000Y-29835188D01*
X76021097Y-29792898D01*
X76222717Y-29658180D01*
X76394180Y-29486717D01*
X76528898Y-29285097D01*
X76621693Y-29061069D01*
X76669000Y-28823243D01*
X76669000Y-28580757D01*
X76621693Y-28342931D01*
X76528898Y-28118903D01*
X76394180Y-27917283D01*
X76222717Y-27745820D01*
X76021097Y-27611102D01*
X75797069Y-27518307D01*
X75559243Y-27471000D01*
X75316757Y-27471000D01*
X75078931Y-27518307D01*
X74854903Y-27611102D01*
X74653283Y-27745820D01*
X74481820Y-27917283D01*
X74347102Y-28118903D01*
X74254307Y-28342931D01*
X74207000Y-28580757D01*
X74207000Y-28823243D01*
X74254307Y-29061069D01*
X74347102Y-29285097D01*
X74481820Y-29486717D01*
X74653283Y-29658180D01*
X74854903Y-29792898D01*
X74957001Y-29835188D01*
X74957000Y-34939060D01*
X73357853Y-34939060D01*
X73372040Y-34892292D01*
X73376445Y-34847565D01*
X73381327Y-34798001D01*
X73379000Y-34774374D01*
X73379000Y-29835188D01*
X73481097Y-29792898D01*
X73682717Y-29658180D01*
X73854180Y-29486717D01*
X73988898Y-29285097D01*
X74081693Y-29061069D01*
X74129000Y-28823243D01*
X74129000Y-28580757D01*
X74081693Y-28342931D01*
X73988898Y-28118903D01*
X73854180Y-27917283D01*
X73682717Y-27745820D01*
X73481097Y-27611102D01*
X73257069Y-27518307D01*
X73019243Y-27471000D01*
X72776757Y-27471000D01*
X72538931Y-27518307D01*
X72314903Y-27611102D01*
X72113283Y-27745820D01*
X71941820Y-27917283D01*
X71807102Y-28118903D01*
X71714307Y-28342931D01*
X71667000Y-28580757D01*
X71667000Y-28823243D01*
X71714307Y-29061069D01*
X71807102Y-29285097D01*
X71941820Y-29486717D01*
X72113283Y-29658180D01*
X72314903Y-29792898D01*
X72417001Y-29835188D01*
X72417000Y-34539050D01*
X68029620Y-34539050D01*
X68038040Y-34511292D01*
X68043463Y-34456237D01*
X68047327Y-34417000D01*
X68045000Y-34393374D01*
X68045000Y-32482843D01*
X69684000Y-32482843D01*
X69758689Y-32475487D01*
X69830508Y-32453701D01*
X69896696Y-32418322D01*
X69954711Y-32370711D01*
X70002322Y-32312696D01*
X70037701Y-32246508D01*
X70059487Y-32174689D01*
X70066843Y-32100000D01*
X70066843Y-30400000D01*
X70059487Y-30325311D01*
X70037701Y-30253492D01*
X70002322Y-30187304D01*
X69954711Y-30129289D01*
X69896696Y-30081678D01*
X69830508Y-30046299D01*
X69758689Y-30024513D01*
X69684000Y-30017157D01*
X68199079Y-30017157D01*
X68281393Y-29934843D01*
X69684000Y-29934843D01*
X69758689Y-29927487D01*
X69830508Y-29905701D01*
X69896696Y-29870322D01*
X69954711Y-29822711D01*
X70002322Y-29764696D01*
X70037701Y-29698508D01*
X70059487Y-29626689D01*
X70066843Y-29552000D01*
X70066843Y-27852000D01*
X70059487Y-27777311D01*
X70037701Y-27705492D01*
X70002322Y-27639304D01*
X69954711Y-27581289D01*
X69896696Y-27533678D01*
X69830508Y-27498299D01*
X69758689Y-27476513D01*
X69684000Y-27469157D01*
X67984000Y-27469157D01*
X67909311Y-27476513D01*
X67837492Y-27498299D01*
X67771304Y-27533678D01*
X67713289Y-27581289D01*
X67665678Y-27639304D01*
X67630299Y-27705492D01*
X67608513Y-27777311D01*
X67601157Y-27852000D01*
X67601157Y-29254607D01*
X67240589Y-29615175D01*
X67222237Y-29630236D01*
X67207176Y-29648588D01*
X67162129Y-29703478D01*
X67117465Y-29787039D01*
X67089960Y-29877708D01*
X67080673Y-29972000D01*
X67083001Y-29995636D01*
X67083001Y-30298104D01*
X67078717Y-30293820D01*
X66877097Y-30159102D01*
X66653069Y-30066307D01*
X66415243Y-30019000D01*
X66172757Y-30019000D01*
X65934931Y-30066307D01*
X65710903Y-30159102D01*
X65509283Y-30293820D01*
X65505000Y-30298103D01*
X65505000Y-30171236D01*
X65832833Y-29843403D01*
X65934931Y-29885693D01*
X66172757Y-29933000D01*
X66415243Y-29933000D01*
X66653069Y-29885693D01*
X66877097Y-29792898D01*
X67078717Y-29658180D01*
X67250180Y-29486717D01*
X67384898Y-29285097D01*
X67477693Y-29061069D01*
X67525000Y-28823243D01*
X67525000Y-28580757D01*
X67477693Y-28342931D01*
X67384898Y-28118903D01*
X67250180Y-27917283D01*
X67078717Y-27745820D01*
X66877097Y-27611102D01*
X66653069Y-27518307D01*
X66415243Y-27471000D01*
X66172757Y-27471000D01*
X65934931Y-27518307D01*
X65710903Y-27611102D01*
X65509283Y-27745820D01*
X65337820Y-27917283D01*
X65203102Y-28118903D01*
X65110307Y-28342931D01*
X65063000Y-28580757D01*
X65063000Y-28823243D01*
X65110307Y-29061069D01*
X65152597Y-29163167D01*
X64700589Y-29615175D01*
X64682237Y-29630236D01*
X64667176Y-29648588D01*
X64622129Y-29703478D01*
X64577465Y-29787039D01*
X64549960Y-29877708D01*
X64540673Y-29972000D01*
X64543001Y-29995636D01*
X64543001Y-30298104D01*
X64538717Y-30293820D01*
X64337097Y-30159102D01*
X64113069Y-30066307D01*
X63875243Y-30019000D01*
X63632757Y-30019000D01*
X63394931Y-30066307D01*
X63170903Y-30159102D01*
X62969283Y-30293820D01*
X62965000Y-30298103D01*
X62965000Y-30171236D01*
X63292833Y-29843403D01*
X63394931Y-29885693D01*
X63632757Y-29933000D01*
X63875243Y-29933000D01*
X64113069Y-29885693D01*
X64337097Y-29792898D01*
X64538717Y-29658180D01*
X64710180Y-29486717D01*
X64844898Y-29285097D01*
X64937693Y-29061069D01*
X64985000Y-28823243D01*
X64985000Y-28580757D01*
X64937693Y-28342931D01*
X64844898Y-28118903D01*
X64710180Y-27917283D01*
X64538717Y-27745820D01*
X64337097Y-27611102D01*
X64113069Y-27518307D01*
X63875243Y-27471000D01*
X63632757Y-27471000D01*
X63394931Y-27518307D01*
X63170903Y-27611102D01*
X62969283Y-27745820D01*
X62797820Y-27917283D01*
X62663102Y-28118903D01*
X62570307Y-28342931D01*
X62523000Y-28580757D01*
X62523000Y-28823243D01*
X62570307Y-29061069D01*
X62612597Y-29163167D01*
X62160589Y-29615175D01*
X62142237Y-29630236D01*
X62127176Y-29648588D01*
X62082129Y-29703478D01*
X62037465Y-29787039D01*
X62009960Y-29877708D01*
X62000673Y-29972000D01*
X62003001Y-29995636D01*
X62003001Y-30298104D01*
X61998717Y-30293820D01*
X61797097Y-30159102D01*
X61573069Y-30066307D01*
X61335243Y-30019000D01*
X61092757Y-30019000D01*
X60854931Y-30066307D01*
X60630903Y-30159102D01*
X60429283Y-30293820D01*
X60425000Y-30298103D01*
X60425000Y-30171236D01*
X60752833Y-29843403D01*
X60854931Y-29885693D01*
X61092757Y-29933000D01*
X61335243Y-29933000D01*
X61573069Y-29885693D01*
X61797097Y-29792898D01*
X61998717Y-29658180D01*
X62170180Y-29486717D01*
X62304898Y-29285097D01*
X62397693Y-29061069D01*
X62445000Y-28823243D01*
X62445000Y-28580757D01*
X62397693Y-28342931D01*
X62304898Y-28118903D01*
X62170180Y-27917283D01*
X61998717Y-27745820D01*
X61797097Y-27611102D01*
X61573069Y-27518307D01*
X61335243Y-27471000D01*
X61092757Y-27471000D01*
X60854931Y-27518307D01*
X60630903Y-27611102D01*
X60429283Y-27745820D01*
X60257820Y-27917283D01*
X60123102Y-28118903D01*
X60030307Y-28342931D01*
X59983000Y-28580757D01*
X59983000Y-28823243D01*
X60030307Y-29061069D01*
X60072597Y-29163167D01*
X59620589Y-29615175D01*
X59602237Y-29630236D01*
X59587176Y-29648588D01*
X59542129Y-29703478D01*
X59497465Y-29787039D01*
X59469960Y-29877708D01*
X59460673Y-29972000D01*
X59463001Y-29995636D01*
X59463001Y-30298104D01*
X59458717Y-30293820D01*
X59257097Y-30159102D01*
X59033069Y-30066307D01*
X58795243Y-30019000D01*
X58552757Y-30019000D01*
X58314931Y-30066307D01*
X58090903Y-30159102D01*
X57889283Y-30293820D01*
X57717820Y-30465283D01*
X57583102Y-30666903D01*
X57490307Y-30890931D01*
X57443000Y-31128757D01*
X57443000Y-31371243D01*
X57490307Y-31609069D01*
X57583102Y-31833097D01*
X57717820Y-32034717D01*
X57889283Y-32206180D01*
X58090903Y-32340898D01*
X58314931Y-32433693D01*
X58552757Y-32481000D01*
X58795243Y-32481000D01*
X59033069Y-32433693D01*
X59257097Y-32340898D01*
X59458717Y-32206180D01*
X59463000Y-32201897D01*
X59463000Y-32939010D01*
X55314161Y-32939010D01*
X55338040Y-32860292D01*
X55345000Y-32789626D01*
X55345000Y-32789625D01*
X55347327Y-32766001D01*
X55345000Y-32742377D01*
X55345000Y-32201897D01*
X55349283Y-32206180D01*
X55550903Y-32340898D01*
X55774931Y-32433693D01*
X56012757Y-32481000D01*
X56255243Y-32481000D01*
X56493069Y-32433693D01*
X56717097Y-32340898D01*
X56918717Y-32206180D01*
X57090180Y-32034717D01*
X57224898Y-31833097D01*
X57317693Y-31609069D01*
X57365000Y-31371243D01*
X57365000Y-31128757D01*
X57317693Y-30890931D01*
X57224898Y-30666903D01*
X57090180Y-30465283D01*
X56918717Y-30293820D01*
X56717097Y-30159102D01*
X56493069Y-30066307D01*
X56255243Y-30019000D01*
X56012757Y-30019000D01*
X55774931Y-30066307D01*
X55550903Y-30159102D01*
X55349283Y-30293820D01*
X55345000Y-30298103D01*
X55345000Y-29653897D01*
X55349283Y-29658180D01*
X55550903Y-29792898D01*
X55774931Y-29885693D01*
X56012757Y-29933000D01*
X56255243Y-29933000D01*
X56493069Y-29885693D01*
X56717097Y-29792898D01*
X56918717Y-29658180D01*
X57090180Y-29486717D01*
X57224898Y-29285097D01*
X57317693Y-29061069D01*
X57365000Y-28823243D01*
X57365000Y-28580757D01*
X57443000Y-28580757D01*
X57443000Y-28823243D01*
X57490307Y-29061069D01*
X57583102Y-29285097D01*
X57717820Y-29486717D01*
X57889283Y-29658180D01*
X58090903Y-29792898D01*
X58314931Y-29885693D01*
X58552757Y-29933000D01*
X58795243Y-29933000D01*
X59033069Y-29885693D01*
X59257097Y-29792898D01*
X59458717Y-29658180D01*
X59630180Y-29486717D01*
X59764898Y-29285097D01*
X59857693Y-29061069D01*
X59905000Y-28823243D01*
X59905000Y-28580757D01*
X59857693Y-28342931D01*
X59764898Y-28118903D01*
X59630180Y-27917283D01*
X59458717Y-27745820D01*
X59257097Y-27611102D01*
X59033069Y-27518307D01*
X58795243Y-27471000D01*
X58552757Y-27471000D01*
X58314931Y-27518307D01*
X58090903Y-27611102D01*
X57889283Y-27745820D01*
X57717820Y-27917283D01*
X57583102Y-28118903D01*
X57490307Y-28342931D01*
X57443000Y-28580757D01*
X57365000Y-28580757D01*
X57317693Y-28342931D01*
X57224898Y-28118903D01*
X57090180Y-27917283D01*
X56918717Y-27745820D01*
X56717097Y-27611102D01*
X56493069Y-27518307D01*
X56255243Y-27471000D01*
X56012757Y-27471000D01*
X55774931Y-27518307D01*
X55550903Y-27611102D01*
X55349283Y-27745820D01*
X55177820Y-27917283D01*
X55043102Y-28118903D01*
X54994225Y-28236904D01*
X54933039Y-28255464D01*
X54849478Y-28300128D01*
X54776236Y-28360236D01*
X54772323Y-28365004D01*
X54725400Y-28216921D01*
X54609026Y-28005516D01*
X54453645Y-27820877D01*
X54265229Y-27670099D01*
X54051018Y-27558976D01*
X53849033Y-27497708D01*
X53657500Y-27568027D01*
X53657500Y-28638500D01*
X53677500Y-28638500D01*
X53677500Y-28765500D01*
X53657500Y-28765500D01*
X53657500Y-29835973D01*
X53849033Y-29906292D01*
X54051018Y-29845024D01*
X54265229Y-29733901D01*
X54383001Y-29639655D01*
X54383001Y-30298104D01*
X54378717Y-30293820D01*
X54177097Y-30159102D01*
X53953069Y-30066307D01*
X53715243Y-30019000D01*
X53472757Y-30019000D01*
X53234931Y-30066307D01*
X53010903Y-30159102D01*
X52809283Y-30293820D01*
X52637820Y-30465283D01*
X52503102Y-30666903D01*
X52410307Y-30890931D01*
X52363000Y-31128757D01*
X52363000Y-31371243D01*
X52410307Y-31609069D01*
X52503102Y-31833097D01*
X52637820Y-32034717D01*
X52809283Y-32206180D01*
X53010903Y-32340898D01*
X53234931Y-32433693D01*
X53472757Y-32481000D01*
X53715243Y-32481000D01*
X53953069Y-32433693D01*
X54177097Y-32340898D01*
X54378717Y-32206180D01*
X54383000Y-32201897D01*
X54383000Y-32539000D01*
X48918623Y-32539000D01*
X48894999Y-32536673D01*
X48871375Y-32539000D01*
X48871374Y-32539000D01*
X48800708Y-32545960D01*
X48710039Y-32573464D01*
X48626478Y-32618128D01*
X48553236Y-32678236D01*
X48538175Y-32696588D01*
X48176589Y-33058175D01*
X48158237Y-33073236D01*
X48114829Y-33126129D01*
X48106000Y-33136887D01*
X48106000Y-32413425D01*
X48154931Y-32433693D01*
X48392757Y-32481000D01*
X48635243Y-32481000D01*
X48873069Y-32433693D01*
X49097097Y-32340898D01*
X49298717Y-32206180D01*
X49470180Y-32034717D01*
X49604898Y-31833097D01*
X49697693Y-31609069D01*
X49745000Y-31371243D01*
X49745000Y-31128757D01*
X49823000Y-31128757D01*
X49823000Y-31371243D01*
X49870307Y-31609069D01*
X49963102Y-31833097D01*
X50097820Y-32034717D01*
X50269283Y-32206180D01*
X50470903Y-32340898D01*
X50694931Y-32433693D01*
X50932757Y-32481000D01*
X51175243Y-32481000D01*
X51413069Y-32433693D01*
X51637097Y-32340898D01*
X51838717Y-32206180D01*
X52010180Y-32034717D01*
X52144898Y-31833097D01*
X52237693Y-31609069D01*
X52285000Y-31371243D01*
X52285000Y-31128757D01*
X52237693Y-30890931D01*
X52144898Y-30666903D01*
X52010180Y-30465283D01*
X51838717Y-30293820D01*
X51637097Y-30159102D01*
X51413069Y-30066307D01*
X51175243Y-30019000D01*
X50932757Y-30019000D01*
X50694931Y-30066307D01*
X50470903Y-30159102D01*
X50269283Y-30293820D01*
X50097820Y-30465283D01*
X49963102Y-30666903D01*
X49870307Y-30890931D01*
X49823000Y-31128757D01*
X49745000Y-31128757D01*
X49697693Y-30890931D01*
X49604898Y-30666903D01*
X49470180Y-30465283D01*
X49298717Y-30293820D01*
X49097097Y-30159102D01*
X48873069Y-30066307D01*
X48635243Y-30019000D01*
X48392757Y-30019000D01*
X48154931Y-30066307D01*
X47930903Y-30159102D01*
X47729283Y-30293820D01*
X47557820Y-30465283D01*
X47423102Y-30666903D01*
X47330307Y-30890931D01*
X47283000Y-31128757D01*
X47283000Y-31371243D01*
X47330307Y-31609069D01*
X47372597Y-31711167D01*
X47301594Y-31782170D01*
X47283236Y-31797236D01*
X47223128Y-31870478D01*
X47178464Y-31954040D01*
X47163309Y-32003999D01*
X47150960Y-32044708D01*
X47141673Y-32139000D01*
X47144000Y-32162626D01*
X47144001Y-74350094D01*
X47110125Y-74400793D01*
X47066328Y-74506529D01*
X47044000Y-74618777D01*
X40030000Y-74618777D01*
X40030000Y-31128757D01*
X44743000Y-31128757D01*
X44743000Y-31371243D01*
X44790307Y-31609069D01*
X44883102Y-31833097D01*
X45017820Y-32034717D01*
X45189283Y-32206180D01*
X45390903Y-32340898D01*
X45614931Y-32433693D01*
X45852757Y-32481000D01*
X46095243Y-32481000D01*
X46333069Y-32433693D01*
X46557097Y-32340898D01*
X46758717Y-32206180D01*
X46930180Y-32034717D01*
X47064898Y-31833097D01*
X47157693Y-31609069D01*
X47205000Y-31371243D01*
X47205000Y-31128757D01*
X47157693Y-30890931D01*
X47064898Y-30666903D01*
X46930180Y-30465283D01*
X46758717Y-30293820D01*
X46557097Y-30159102D01*
X46333069Y-30066307D01*
X46095243Y-30019000D01*
X45852757Y-30019000D01*
X45614931Y-30066307D01*
X45390903Y-30159102D01*
X45189283Y-30293820D01*
X45017820Y-30465283D01*
X44883102Y-30666903D01*
X44790307Y-30890931D01*
X44743000Y-31128757D01*
X40030000Y-31128757D01*
X40030000Y-28580757D01*
X44743000Y-28580757D01*
X44743000Y-28823243D01*
X44790307Y-29061069D01*
X44883102Y-29285097D01*
X45017820Y-29486717D01*
X45189283Y-29658180D01*
X45390903Y-29792898D01*
X45614931Y-29885693D01*
X45852757Y-29933000D01*
X46095243Y-29933000D01*
X46333069Y-29885693D01*
X46557097Y-29792898D01*
X46758717Y-29658180D01*
X46930180Y-29486717D01*
X47064898Y-29285097D01*
X47157693Y-29061069D01*
X47205000Y-28823243D01*
X47205000Y-28580757D01*
X47283000Y-28580757D01*
X47283000Y-28823243D01*
X47330307Y-29061069D01*
X47423102Y-29285097D01*
X47557820Y-29486717D01*
X47729283Y-29658180D01*
X47930903Y-29792898D01*
X48154931Y-29885693D01*
X48392757Y-29933000D01*
X48635243Y-29933000D01*
X48873069Y-29885693D01*
X49097097Y-29792898D01*
X49298717Y-29658180D01*
X49470180Y-29486717D01*
X49604898Y-29285097D01*
X49697693Y-29061069D01*
X49745000Y-28823243D01*
X49745000Y-28580757D01*
X49823000Y-28580757D01*
X49823000Y-28823243D01*
X49870307Y-29061069D01*
X49963102Y-29285097D01*
X50097820Y-29486717D01*
X50269283Y-29658180D01*
X50470903Y-29792898D01*
X50694931Y-29885693D01*
X50932757Y-29933000D01*
X51175243Y-29933000D01*
X51413069Y-29885693D01*
X51637097Y-29792898D01*
X51838717Y-29658180D01*
X52010180Y-29486717D01*
X52144898Y-29285097D01*
X52237693Y-29061069D01*
X52258387Y-28957033D01*
X52389705Y-28957033D01*
X52462600Y-29187079D01*
X52578974Y-29398484D01*
X52734355Y-29583123D01*
X52922771Y-29733901D01*
X53136982Y-29845024D01*
X53338967Y-29906292D01*
X53530500Y-29835973D01*
X53530500Y-28765500D01*
X52459886Y-28765500D01*
X52389705Y-28957033D01*
X52258387Y-28957033D01*
X52285000Y-28823243D01*
X52285000Y-28580757D01*
X52258388Y-28446967D01*
X52389705Y-28446967D01*
X52459886Y-28638500D01*
X53530500Y-28638500D01*
X53530500Y-27568027D01*
X53338967Y-27497708D01*
X53136982Y-27558976D01*
X52922771Y-27670099D01*
X52734355Y-27820877D01*
X52578974Y-28005516D01*
X52462600Y-28216921D01*
X52389705Y-28446967D01*
X52258388Y-28446967D01*
X52237693Y-28342931D01*
X52144898Y-28118903D01*
X52010180Y-27917283D01*
X51838717Y-27745820D01*
X51637097Y-27611102D01*
X51413069Y-27518307D01*
X51175243Y-27471000D01*
X50932757Y-27471000D01*
X50694931Y-27518307D01*
X50470903Y-27611102D01*
X50269283Y-27745820D01*
X50097820Y-27917283D01*
X49963102Y-28118903D01*
X49870307Y-28342931D01*
X49823000Y-28580757D01*
X49745000Y-28580757D01*
X49697693Y-28342931D01*
X49604898Y-28118903D01*
X49470180Y-27917283D01*
X49298717Y-27745820D01*
X49097097Y-27611102D01*
X48873069Y-27518307D01*
X48635243Y-27471000D01*
X48392757Y-27471000D01*
X48154931Y-27518307D01*
X47930903Y-27611102D01*
X47729283Y-27745820D01*
X47557820Y-27917283D01*
X47423102Y-28118903D01*
X47330307Y-28342931D01*
X47283000Y-28580757D01*
X47205000Y-28580757D01*
X47157693Y-28342931D01*
X47064898Y-28118903D01*
X46930180Y-27917283D01*
X46758717Y-27745820D01*
X46557097Y-27611102D01*
X46333069Y-27518307D01*
X46095243Y-27471000D01*
X45852757Y-27471000D01*
X45614931Y-27518307D01*
X45390903Y-27611102D01*
X45189283Y-27745820D01*
X45017820Y-27917283D01*
X44883102Y-28118903D01*
X44790307Y-28342931D01*
X44743000Y-28580757D01*
X40030000Y-28580757D01*
X40030000Y-27197855D01*
X40038461Y-27111561D01*
X40057756Y-27047652D01*
X40089096Y-26988711D01*
X40131287Y-26936979D01*
X40182723Y-26894427D01*
X40241451Y-26862674D01*
X40305219Y-26842934D01*
X40390259Y-26833996D01*
X92230188Y-26822004D01*
X92316439Y-26830461D01*
G37*
%TD.AperFunction*%
D16*
X72671001Y-54586364D02*
X72668673Y-54610000D01*
X72677960Y-54704292D01*
X72699785Y-54776237D01*
X72705465Y-54794961D01*
X72750129Y-54878522D01*
X72760369Y-54891000D01*
X70465001Y-54891000D01*
X70465001Y-53021810D01*
X70492877Y-53056645D01*
X70677516Y-53212026D01*
X70888921Y-53328400D01*
X71118967Y-53401295D01*
X71310500Y-53331114D01*
X71310500Y-52260500D01*
X71437500Y-52260500D01*
X71437500Y-53331114D01*
X71629033Y-53401295D01*
X71859079Y-53328400D01*
X72070484Y-53212026D01*
X72255123Y-53056645D01*
X72405901Y-52868229D01*
X72517024Y-52654018D01*
X72578292Y-52452033D01*
X72507973Y-52260500D01*
X71437500Y-52260500D01*
X71310500Y-52260500D01*
X71290500Y-52260500D01*
X71290500Y-52133500D01*
X71310500Y-52133500D01*
X71310500Y-51062886D01*
X71437500Y-51062886D01*
X71437500Y-52133500D01*
X72507973Y-52133500D01*
X72578292Y-51941967D01*
X72517024Y-51739982D01*
X72405901Y-51525771D01*
X72255123Y-51337355D01*
X72070484Y-51181974D01*
X71859079Y-51065600D01*
X71629033Y-50992705D01*
X71437500Y-51062886D01*
X71310500Y-51062886D01*
X71118967Y-50992705D01*
X70888921Y-51065600D01*
X70677516Y-51181974D01*
X70492877Y-51337355D01*
X70465001Y-51372190D01*
X70465001Y-50488898D01*
X70589283Y-50613180D01*
X70790903Y-50747898D01*
X71014931Y-50840693D01*
X71252757Y-50888000D01*
X71495243Y-50888000D01*
X71733069Y-50840693D01*
X71957097Y-50747898D01*
X72158717Y-50613180D01*
X72330180Y-50441717D01*
X72464898Y-50240097D01*
X72507188Y-50138000D01*
X72671000Y-50138000D01*
X72671001Y-54586364D01*
%TA.AperFunction,Conductor*%
D17*
G36*
X72671001Y-54586364D02*
G01*
X72668673Y-54610000D01*
X72677960Y-54704292D01*
X72699785Y-54776237D01*
X72705465Y-54794961D01*
X72750129Y-54878522D01*
X72760369Y-54891000D01*
X70465001Y-54891000D01*
X70465001Y-53021810D01*
X70492877Y-53056645D01*
X70677516Y-53212026D01*
X70888921Y-53328400D01*
X71118967Y-53401295D01*
X71310500Y-53331114D01*
X71310500Y-52260500D01*
X71437500Y-52260500D01*
X71437500Y-53331114D01*
X71629033Y-53401295D01*
X71859079Y-53328400D01*
X72070484Y-53212026D01*
X72255123Y-53056645D01*
X72405901Y-52868229D01*
X72517024Y-52654018D01*
X72578292Y-52452033D01*
X72507973Y-52260500D01*
X71437500Y-52260500D01*
X71310500Y-52260500D01*
X71290500Y-52260500D01*
X71290500Y-52133500D01*
X71310500Y-52133500D01*
X71310500Y-51062886D01*
X71437500Y-51062886D01*
X71437500Y-52133500D01*
X72507973Y-52133500D01*
X72578292Y-51941967D01*
X72517024Y-51739982D01*
X72405901Y-51525771D01*
X72255123Y-51337355D01*
X72070484Y-51181974D01*
X71859079Y-51065600D01*
X71629033Y-50992705D01*
X71437500Y-51062886D01*
X71310500Y-51062886D01*
X71118967Y-50992705D01*
X70888921Y-51065600D01*
X70677516Y-51181974D01*
X70492877Y-51337355D01*
X70465001Y-51372190D01*
X70465001Y-50488898D01*
X70589283Y-50613180D01*
X70790903Y-50747898D01*
X71014931Y-50840693D01*
X71252757Y-50888000D01*
X71495243Y-50888000D01*
X71733069Y-50840693D01*
X71957097Y-50747898D01*
X72158717Y-50613180D01*
X72330180Y-50441717D01*
X72464898Y-50240097D01*
X72507188Y-50138000D01*
X72671000Y-50138000D01*
X72671001Y-54586364D01*
G37*
%TD.AperFunction*%
D16*
X84179793Y-43567875D02*
X84285529Y-43611672D01*
X84397777Y-43634000D01*
X84512223Y-43634000D01*
X84609000Y-43614749D01*
X84609001Y-53187343D01*
X84570366Y-53148708D01*
X84475207Y-53085125D01*
X84369471Y-53041328D01*
X84257223Y-53019000D01*
X84142777Y-53019000D01*
X84030529Y-53041328D01*
X83924793Y-53085125D01*
X83829634Y-53148708D01*
X83800000Y-53178342D01*
X83770366Y-53148708D01*
X83675207Y-53085125D01*
X83569471Y-53041328D01*
X83457223Y-53019000D01*
X83342777Y-53019000D01*
X83230529Y-53041328D01*
X83124793Y-53085125D01*
X83029634Y-53148708D01*
X82948708Y-53229634D01*
X82885125Y-53324793D01*
X82841328Y-53430529D01*
X82819000Y-53542777D01*
X82819000Y-53657223D01*
X82841328Y-53769471D01*
X82885125Y-53875207D01*
X82919001Y-53925906D01*
X82919000Y-54383000D01*
X73633000Y-54383000D01*
X73633000Y-49807626D01*
X73635327Y-49783999D01*
X73626040Y-49689707D01*
X73616118Y-49657000D01*
X73598536Y-49599039D01*
X73553872Y-49515478D01*
X73493764Y-49442236D01*
X73475406Y-49427170D01*
X73381830Y-49333594D01*
X73366764Y-49315236D01*
X73293522Y-49255128D01*
X73209961Y-49210464D01*
X73119292Y-49182960D01*
X73048626Y-49176000D01*
X73025000Y-49173673D01*
X73001374Y-49176000D01*
X72507188Y-49176000D01*
X72464898Y-49073903D01*
X72330180Y-48872283D01*
X72158717Y-48700820D01*
X71957097Y-48566102D01*
X71733069Y-48473307D01*
X71495243Y-48426000D01*
X71252757Y-48426000D01*
X71014931Y-48473307D01*
X70790903Y-48566102D01*
X70589283Y-48700820D01*
X70465001Y-48825102D01*
X70465001Y-47948898D01*
X70589283Y-48073180D01*
X70790903Y-48207898D01*
X71014931Y-48300693D01*
X71252757Y-48348000D01*
X71495243Y-48348000D01*
X71733069Y-48300693D01*
X71957097Y-48207898D01*
X72158717Y-48073180D01*
X72330180Y-47901717D01*
X72464898Y-47700097D01*
X72557693Y-47476069D01*
X72605000Y-47238243D01*
X72605000Y-46995757D01*
X72557693Y-46757931D01*
X72464898Y-46533903D01*
X72330180Y-46332283D01*
X72158717Y-46160820D01*
X71957097Y-46026102D01*
X71955000Y-46025233D01*
X71955000Y-45748536D01*
X71957811Y-45719999D01*
X71955000Y-45691460D01*
X71946593Y-45606104D01*
X71913371Y-45496585D01*
X71859421Y-45395652D01*
X71786817Y-45307183D01*
X71764641Y-45288984D01*
X71660657Y-45185000D01*
X77270000Y-45185000D01*
X77270000Y-45269223D01*
X77292328Y-45381471D01*
X77336125Y-45487207D01*
X77399708Y-45582366D01*
X77480634Y-45663292D01*
X77575793Y-45726875D01*
X77681529Y-45770672D01*
X77793777Y-45793000D01*
X77908223Y-45793000D01*
X78020471Y-45770672D01*
X78126207Y-45726875D01*
X78221366Y-45663292D01*
X78302292Y-45582366D01*
X78365875Y-45487207D01*
X78409672Y-45381471D01*
X78432000Y-45269223D01*
X78432000Y-45154777D01*
X78409672Y-45042529D01*
X78365875Y-44936793D01*
X78302292Y-44841634D01*
X78221366Y-44760708D01*
X78144733Y-44709504D01*
X78405237Y-44449000D01*
X80674095Y-44449000D01*
X80724793Y-44482875D01*
X80830529Y-44526672D01*
X80942777Y-44549000D01*
X81057223Y-44549000D01*
X81169471Y-44526672D01*
X81275207Y-44482875D01*
X81370366Y-44419292D01*
X81451292Y-44338366D01*
X81514875Y-44243207D01*
X81558672Y-44137471D01*
X81581000Y-44025223D01*
X81581000Y-43910777D01*
X81558672Y-43798529D01*
X81514875Y-43692793D01*
X81451292Y-43597634D01*
X81387658Y-43534000D01*
X84129095Y-43534000D01*
X84179793Y-43567875D01*
%TA.AperFunction,Conductor*%
D17*
G36*
X84179793Y-43567875D02*
G01*
X84285529Y-43611672D01*
X84397777Y-43634000D01*
X84512223Y-43634000D01*
X84609000Y-43614749D01*
X84609001Y-53187343D01*
X84570366Y-53148708D01*
X84475207Y-53085125D01*
X84369471Y-53041328D01*
X84257223Y-53019000D01*
X84142777Y-53019000D01*
X84030529Y-53041328D01*
X83924793Y-53085125D01*
X83829634Y-53148708D01*
X83800000Y-53178342D01*
X83770366Y-53148708D01*
X83675207Y-53085125D01*
X83569471Y-53041328D01*
X83457223Y-53019000D01*
X83342777Y-53019000D01*
X83230529Y-53041328D01*
X83124793Y-53085125D01*
X83029634Y-53148708D01*
X82948708Y-53229634D01*
X82885125Y-53324793D01*
X82841328Y-53430529D01*
X82819000Y-53542777D01*
X82819000Y-53657223D01*
X82841328Y-53769471D01*
X82885125Y-53875207D01*
X82919001Y-53925906D01*
X82919000Y-54383000D01*
X73633000Y-54383000D01*
X73633000Y-49807626D01*
X73635327Y-49783999D01*
X73626040Y-49689707D01*
X73616118Y-49657000D01*
X73598536Y-49599039D01*
X73553872Y-49515478D01*
X73493764Y-49442236D01*
X73475406Y-49427170D01*
X73381830Y-49333594D01*
X73366764Y-49315236D01*
X73293522Y-49255128D01*
X73209961Y-49210464D01*
X73119292Y-49182960D01*
X73048626Y-49176000D01*
X73025000Y-49173673D01*
X73001374Y-49176000D01*
X72507188Y-49176000D01*
X72464898Y-49073903D01*
X72330180Y-48872283D01*
X72158717Y-48700820D01*
X71957097Y-48566102D01*
X71733069Y-48473307D01*
X71495243Y-48426000D01*
X71252757Y-48426000D01*
X71014931Y-48473307D01*
X70790903Y-48566102D01*
X70589283Y-48700820D01*
X70465001Y-48825102D01*
X70465001Y-47948898D01*
X70589283Y-48073180D01*
X70790903Y-48207898D01*
X71014931Y-48300693D01*
X71252757Y-48348000D01*
X71495243Y-48348000D01*
X71733069Y-48300693D01*
X71957097Y-48207898D01*
X72158717Y-48073180D01*
X72330180Y-47901717D01*
X72464898Y-47700097D01*
X72557693Y-47476069D01*
X72605000Y-47238243D01*
X72605000Y-46995757D01*
X72557693Y-46757931D01*
X72464898Y-46533903D01*
X72330180Y-46332283D01*
X72158717Y-46160820D01*
X71957097Y-46026102D01*
X71955000Y-46025233D01*
X71955000Y-45748536D01*
X71957811Y-45719999D01*
X71955000Y-45691460D01*
X71946593Y-45606104D01*
X71913371Y-45496585D01*
X71859421Y-45395652D01*
X71786817Y-45307183D01*
X71764641Y-45288984D01*
X71660657Y-45185000D01*
X77270000Y-45185000D01*
X77270000Y-45269223D01*
X77292328Y-45381471D01*
X77336125Y-45487207D01*
X77399708Y-45582366D01*
X77480634Y-45663292D01*
X77575793Y-45726875D01*
X77681529Y-45770672D01*
X77793777Y-45793000D01*
X77908223Y-45793000D01*
X78020471Y-45770672D01*
X78126207Y-45726875D01*
X78221366Y-45663292D01*
X78302292Y-45582366D01*
X78365875Y-45487207D01*
X78409672Y-45381471D01*
X78432000Y-45269223D01*
X78432000Y-45154777D01*
X78409672Y-45042529D01*
X78365875Y-44936793D01*
X78302292Y-44841634D01*
X78221366Y-44760708D01*
X78144733Y-44709504D01*
X78405237Y-44449000D01*
X80674095Y-44449000D01*
X80724793Y-44482875D01*
X80830529Y-44526672D01*
X80942777Y-44549000D01*
X81057223Y-44549000D01*
X81169471Y-44526672D01*
X81275207Y-44482875D01*
X81370366Y-44419292D01*
X81451292Y-44338366D01*
X81514875Y-44243207D01*
X81558672Y-44137471D01*
X81581000Y-44025223D01*
X81581000Y-43910777D01*
X81558672Y-43798529D01*
X81514875Y-43692793D01*
X81451292Y-43597634D01*
X81387658Y-43534000D01*
X84129095Y-43534000D01*
X84179793Y-43567875D01*
G37*
%TD.AperFunction*%
%TD*%
M02*
