%TF.GenerationSoftware,KiCad,Pcbnew,(5.1.8)-1*%
%TF.CreationDate,2021-01-10T00:46:59-06:00*%
%TF.ProjectId,GBAHD_Shield,47424148-445f-4536-9869-656c642e6b69,rev?*%
%TF.SameCoordinates,Original*%
%TF.FileFunction,Legend,Bot*%
%TF.FilePolarity,Positive*%
%FSLAX46Y46*%
G04 Gerber Fmt 4.6, Leading zero omitted, Abs format (unit mm)*
G04 Created by KiCad (PCBNEW (5.1.8)-1) date 2021-01-10 00:46:59*
%MOMM*%
%LPD*%
G01*
G04 APERTURE LIST*
%ADD10C,0.150000*%
%ADD11C,0.250000*%
G04 APERTURE END LIST*
D10*
X57812023Y-58811904D02*
X57812023Y-58011904D01*
X57621547Y-58011904D01*
X57507261Y-58050000D01*
X57431071Y-58126190D01*
X57392976Y-58202380D01*
X57354880Y-58354761D01*
X57354880Y-58469047D01*
X57392976Y-58621428D01*
X57431071Y-58697619D01*
X57507261Y-58773809D01*
X57621547Y-58811904D01*
X57812023Y-58811904D01*
X56707261Y-58773809D02*
X56783452Y-58811904D01*
X56935833Y-58811904D01*
X57012023Y-58773809D01*
X57050119Y-58697619D01*
X57050119Y-58392857D01*
X57012023Y-58316666D01*
X56935833Y-58278571D01*
X56783452Y-58278571D01*
X56707261Y-58316666D01*
X56669166Y-58392857D01*
X56669166Y-58469047D01*
X57050119Y-58545238D01*
X56364404Y-58773809D02*
X56288214Y-58811904D01*
X56135833Y-58811904D01*
X56059642Y-58773809D01*
X56021547Y-58697619D01*
X56021547Y-58659523D01*
X56059642Y-58583333D01*
X56135833Y-58545238D01*
X56250119Y-58545238D01*
X56326309Y-58507142D01*
X56364404Y-58430952D01*
X56364404Y-58392857D01*
X56326309Y-58316666D01*
X56250119Y-58278571D01*
X56135833Y-58278571D01*
X56059642Y-58316666D01*
X55678690Y-58811904D02*
X55678690Y-58278571D01*
X55678690Y-58011904D02*
X55716785Y-58050000D01*
X55678690Y-58088095D01*
X55640595Y-58050000D01*
X55678690Y-58011904D01*
X55678690Y-58088095D01*
X54954880Y-58278571D02*
X54954880Y-58926190D01*
X54992976Y-59002380D01*
X55031071Y-59040476D01*
X55107261Y-59078571D01*
X55221547Y-59078571D01*
X55297738Y-59040476D01*
X54954880Y-58773809D02*
X55031071Y-58811904D01*
X55183452Y-58811904D01*
X55259642Y-58773809D01*
X55297738Y-58735714D01*
X55335833Y-58659523D01*
X55335833Y-58430952D01*
X55297738Y-58354761D01*
X55259642Y-58316666D01*
X55183452Y-58278571D01*
X55031071Y-58278571D01*
X54954880Y-58316666D01*
X54573928Y-58278571D02*
X54573928Y-58811904D01*
X54573928Y-58354761D02*
X54535833Y-58316666D01*
X54459642Y-58278571D01*
X54345357Y-58278571D01*
X54269166Y-58316666D01*
X54231071Y-58392857D01*
X54231071Y-58811904D01*
X53545357Y-58773809D02*
X53621547Y-58811904D01*
X53773928Y-58811904D01*
X53850119Y-58773809D01*
X53888214Y-58697619D01*
X53888214Y-58392857D01*
X53850119Y-58316666D01*
X53773928Y-58278571D01*
X53621547Y-58278571D01*
X53545357Y-58316666D01*
X53507261Y-58392857D01*
X53507261Y-58469047D01*
X53888214Y-58545238D01*
X52821547Y-58811904D02*
X52821547Y-58011904D01*
X52821547Y-58773809D02*
X52897738Y-58811904D01*
X53050119Y-58811904D01*
X53126309Y-58773809D01*
X53164404Y-58735714D01*
X53202500Y-58659523D01*
X53202500Y-58430952D01*
X53164404Y-58354761D01*
X53126309Y-58316666D01*
X53050119Y-58278571D01*
X52897738Y-58278571D01*
X52821547Y-58316666D01*
X51831071Y-58811904D02*
X51831071Y-58278571D01*
X51831071Y-58011904D02*
X51869166Y-58050000D01*
X51831071Y-58088095D01*
X51792976Y-58050000D01*
X51831071Y-58011904D01*
X51831071Y-58088095D01*
X51450119Y-58278571D02*
X51450119Y-58811904D01*
X51450119Y-58354761D02*
X51412023Y-58316666D01*
X51335833Y-58278571D01*
X51221547Y-58278571D01*
X51145357Y-58316666D01*
X51107261Y-58392857D01*
X51107261Y-58811904D01*
X50116785Y-58811904D02*
X50116785Y-58011904D01*
X49850119Y-58583333D01*
X49583452Y-58011904D01*
X49583452Y-58811904D01*
X48897738Y-58773809D02*
X48973928Y-58811904D01*
X49126309Y-58811904D01*
X49202500Y-58773809D01*
X49240595Y-58697619D01*
X49240595Y-58392857D01*
X49202500Y-58316666D01*
X49126309Y-58278571D01*
X48973928Y-58278571D01*
X48897738Y-58316666D01*
X48859642Y-58392857D01*
X48859642Y-58469047D01*
X49240595Y-58545238D01*
X48973928Y-57973809D02*
X49088214Y-58088095D01*
X48592976Y-58811904D02*
X48173928Y-58278571D01*
X48592976Y-58278571D02*
X48173928Y-58811904D01*
X47869166Y-58811904D02*
X47869166Y-58278571D01*
X47869166Y-58011904D02*
X47907261Y-58050000D01*
X47869166Y-58088095D01*
X47831071Y-58050000D01*
X47869166Y-58011904D01*
X47869166Y-58088095D01*
X47145357Y-58773809D02*
X47221547Y-58811904D01*
X47373928Y-58811904D01*
X47450119Y-58773809D01*
X47488214Y-58735714D01*
X47526309Y-58659523D01*
X47526309Y-58430952D01*
X47488214Y-58354761D01*
X47450119Y-58316666D01*
X47373928Y-58278571D01*
X47221547Y-58278571D01*
X47145357Y-58316666D01*
X46688214Y-58811904D02*
X46764404Y-58773809D01*
X46802500Y-58735714D01*
X46840595Y-58659523D01*
X46840595Y-58430952D01*
X46802500Y-58354761D01*
X46764404Y-58316666D01*
X46688214Y-58278571D01*
X46573928Y-58278571D01*
X46497738Y-58316666D01*
X46459642Y-58354761D01*
X46421547Y-58430952D01*
X46421547Y-58659523D01*
X46459642Y-58735714D01*
X46497738Y-58773809D01*
X46573928Y-58811904D01*
X46688214Y-58811904D01*
X57346547Y-57611904D02*
X57613214Y-57230952D01*
X57803690Y-57611904D02*
X57803690Y-56811904D01*
X57498928Y-56811904D01*
X57422738Y-56850000D01*
X57384643Y-56888095D01*
X57346547Y-56964285D01*
X57346547Y-57078571D01*
X57384643Y-57154761D01*
X57422738Y-57192857D01*
X57498928Y-57230952D01*
X57803690Y-57230952D01*
X56660833Y-57611904D02*
X56660833Y-57192857D01*
X56698928Y-57116666D01*
X56775119Y-57078571D01*
X56927500Y-57078571D01*
X57003690Y-57116666D01*
X56660833Y-57573809D02*
X56737024Y-57611904D01*
X56927500Y-57611904D01*
X57003690Y-57573809D01*
X57041786Y-57497619D01*
X57041786Y-57421428D01*
X57003690Y-57345238D01*
X56927500Y-57307142D01*
X56737024Y-57307142D01*
X56660833Y-57269047D01*
X56279881Y-57611904D02*
X56279881Y-57078571D01*
X56279881Y-56811904D02*
X56317976Y-56850000D01*
X56279881Y-56888095D01*
X56241786Y-56850000D01*
X56279881Y-56811904D01*
X56279881Y-56888095D01*
X55975119Y-57078571D02*
X55556071Y-57078571D01*
X55975119Y-57611904D01*
X55556071Y-57611904D01*
X54908452Y-57078571D02*
X54908452Y-57611904D01*
X55251309Y-57078571D02*
X55251309Y-57497619D01*
X55213214Y-57573809D01*
X55137024Y-57611904D01*
X55022738Y-57611904D01*
X54946547Y-57573809D01*
X54908452Y-57535714D01*
X53956071Y-56888095D02*
X53917976Y-56850000D01*
X53841786Y-56811904D01*
X53651309Y-56811904D01*
X53575119Y-56850000D01*
X53537024Y-56888095D01*
X53498928Y-56964285D01*
X53498928Y-57040476D01*
X53537024Y-57154761D01*
X53994167Y-57611904D01*
X53498928Y-57611904D01*
X53003690Y-56811904D02*
X52927500Y-56811904D01*
X52851309Y-56850000D01*
X52813214Y-56888095D01*
X52775119Y-56964285D01*
X52737024Y-57116666D01*
X52737024Y-57307142D01*
X52775119Y-57459523D01*
X52813214Y-57535714D01*
X52851309Y-57573809D01*
X52927500Y-57611904D01*
X53003690Y-57611904D01*
X53079881Y-57573809D01*
X53117976Y-57535714D01*
X53156071Y-57459523D01*
X53194167Y-57307142D01*
X53194167Y-57116666D01*
X53156071Y-56964285D01*
X53117976Y-56888095D01*
X53079881Y-56850000D01*
X53003690Y-56811904D01*
X52432262Y-56888095D02*
X52394167Y-56850000D01*
X52317976Y-56811904D01*
X52127500Y-56811904D01*
X52051309Y-56850000D01*
X52013214Y-56888095D01*
X51975119Y-56964285D01*
X51975119Y-57040476D01*
X52013214Y-57154761D01*
X52470357Y-57611904D01*
X51975119Y-57611904D01*
X51479881Y-56811904D02*
X51403690Y-56811904D01*
X51327500Y-56850000D01*
X51289405Y-56888095D01*
X51251309Y-56964285D01*
X51213214Y-57116666D01*
X51213214Y-57307142D01*
X51251309Y-57459523D01*
X51289405Y-57535714D01*
X51327500Y-57573809D01*
X51403690Y-57611904D01*
X51479881Y-57611904D01*
X51556071Y-57573809D01*
X51594167Y-57535714D01*
X51632262Y-57459523D01*
X51670357Y-57307142D01*
X51670357Y-57116666D01*
X51632262Y-56964285D01*
X51594167Y-56888095D01*
X51556071Y-56850000D01*
X51479881Y-56811904D01*
D11*
X57377976Y-55435714D02*
X57377976Y-56245238D01*
X57425595Y-56340476D01*
X57473214Y-56388095D01*
X57568452Y-56435714D01*
X57711309Y-56435714D01*
X57806547Y-56388095D01*
X57377976Y-56054761D02*
X57473214Y-56102380D01*
X57663690Y-56102380D01*
X57758928Y-56054761D01*
X57806547Y-56007142D01*
X57854166Y-55911904D01*
X57854166Y-55626190D01*
X57806547Y-55530952D01*
X57758928Y-55483333D01*
X57663690Y-55435714D01*
X57473214Y-55435714D01*
X57377976Y-55483333D01*
X56901785Y-56102380D02*
X56901785Y-55102380D01*
X56901785Y-55483333D02*
X56806547Y-55435714D01*
X56616071Y-55435714D01*
X56520833Y-55483333D01*
X56473214Y-55530952D01*
X56425595Y-55626190D01*
X56425595Y-55911904D01*
X56473214Y-56007142D01*
X56520833Y-56054761D01*
X56616071Y-56102380D01*
X56806547Y-56102380D01*
X56901785Y-56054761D01*
X55568452Y-56102380D02*
X55568452Y-55578571D01*
X55616071Y-55483333D01*
X55711309Y-55435714D01*
X55901785Y-55435714D01*
X55997023Y-55483333D01*
X55568452Y-56054761D02*
X55663690Y-56102380D01*
X55901785Y-56102380D01*
X55997023Y-56054761D01*
X56044643Y-55959523D01*
X56044643Y-55864285D01*
X55997023Y-55769047D01*
X55901785Y-55721428D01*
X55663690Y-55721428D01*
X55568452Y-55673809D01*
X55092262Y-56102380D02*
X55092262Y-55102380D01*
X55092262Y-55578571D02*
X54520833Y-55578571D01*
X54520833Y-56102380D02*
X54520833Y-55102380D01*
X54044643Y-56102380D02*
X54044643Y-55102380D01*
X53806547Y-55102380D01*
X53663690Y-55150000D01*
X53568452Y-55245238D01*
X53520833Y-55340476D01*
X53473214Y-55530952D01*
X53473214Y-55673809D01*
X53520833Y-55864285D01*
X53568452Y-55959523D01*
X53663690Y-56054761D01*
X53806547Y-56102380D01*
X54044643Y-56102380D01*
X52330357Y-56054761D02*
X52187500Y-56102380D01*
X51949404Y-56102380D01*
X51854166Y-56054761D01*
X51806547Y-56007142D01*
X51758928Y-55911904D01*
X51758928Y-55816666D01*
X51806547Y-55721428D01*
X51854166Y-55673809D01*
X51949404Y-55626190D01*
X52139881Y-55578571D01*
X52235119Y-55530952D01*
X52282738Y-55483333D01*
X52330357Y-55388095D01*
X52330357Y-55292857D01*
X52282738Y-55197619D01*
X52235119Y-55150000D01*
X52139881Y-55102380D01*
X51901785Y-55102380D01*
X51758928Y-55150000D01*
X51330357Y-56102380D02*
X51330357Y-55102380D01*
X50901785Y-56102380D02*
X50901785Y-55578571D01*
X50949404Y-55483333D01*
X51044643Y-55435714D01*
X51187500Y-55435714D01*
X51282738Y-55483333D01*
X51330357Y-55530952D01*
X50425595Y-56102380D02*
X50425595Y-55435714D01*
X50425595Y-55102380D02*
X50473214Y-55150000D01*
X50425595Y-55197619D01*
X50377976Y-55150000D01*
X50425595Y-55102380D01*
X50425595Y-55197619D01*
X49568452Y-56054761D02*
X49663690Y-56102380D01*
X49854166Y-56102380D01*
X49949404Y-56054761D01*
X49997023Y-55959523D01*
X49997023Y-55578571D01*
X49949404Y-55483333D01*
X49854166Y-55435714D01*
X49663690Y-55435714D01*
X49568452Y-55483333D01*
X49520833Y-55578571D01*
X49520833Y-55673809D01*
X49997023Y-55769047D01*
X48949404Y-56102380D02*
X49044643Y-56054761D01*
X49092262Y-55959523D01*
X49092262Y-55102380D01*
X48139881Y-56102380D02*
X48139881Y-55102380D01*
X48139881Y-56054761D02*
X48235119Y-56102380D01*
X48425595Y-56102380D01*
X48520833Y-56054761D01*
X48568452Y-56007142D01*
X48616071Y-55911904D01*
X48616071Y-55626190D01*
X48568452Y-55530952D01*
X48520833Y-55483333D01*
X48425595Y-55435714D01*
X48235119Y-55435714D01*
X48139881Y-55483333D01*
%TO.C,U1*%
D10*
X87539619Y-48761904D02*
X86730095Y-48761904D01*
X86634857Y-48714285D01*
X86587238Y-48666666D01*
X86539619Y-48571428D01*
X86539619Y-48380952D01*
X86587238Y-48285714D01*
X86634857Y-48238095D01*
X86730095Y-48190476D01*
X87539619Y-48190476D01*
X86539619Y-47190476D02*
X86539619Y-47761904D01*
X86539619Y-47476190D02*
X87539619Y-47476190D01*
X87396761Y-47571428D01*
X87301523Y-47666666D01*
X87253904Y-47761904D01*
%TD*%
M02*
