M48
; DRILL file {KiCad (5.1.8)-1} date 03/21/21 14:54:16
; FORMAT={-:-/ absolute / inch / decimal}
; #@! TF.CreationDate,2021-03-21T14:54:16+01:00
; #@! TF.GenerationSoftware,Kicad,Pcbnew,(5.1.8)-1
; #@! TF.FileFunction,Plated,1,2,PTH
FMAT,2
INCH
T1C0.0079
T2C0.0394
T3C0.0492
%
G90
G05
T1
X1.59Y-1.07
X1.59Y-3.1
X1.875Y-2.94
X1.9094Y-1.485
X1.9291Y-1.5157
X1.9685Y-1.5157
X2.0079Y-1.5157
X2.0472Y-1.5157
X2.0866Y-1.5157
X2.1457Y-1.5157
X2.185Y-1.5157
X2.235Y-1.51
X2.235Y-1.6
X2.235Y-2.085
X2.235Y-2.65
X2.47Y-1.96
X2.54Y-2.74
X2.58Y-1.91
X2.61Y-1.64
X2.645Y-2.235
X2.67Y-2.54
X2.675Y-2.405
X2.68Y-2.705
X2.72Y-2.54
X2.77Y-2.54
X2.77Y-2.68
X2.785Y-2.205
X2.79Y-2.83
X2.81Y-2.115
X2.82Y-2.54
X2.87Y-2.205
X2.87Y-2.54
X2.91Y-2.68
X2.92Y-1.825
X2.93Y-2.13
X2.94Y-2.025
X2.97Y-2.74
X3.04Y-1.255
X3.04Y-1.73
X3.06Y-2.065
X3.06Y-2.115
X3.065Y-1.78
X3.075Y-2.83
X3.08Y-2.235
X3.08Y-2.3914
X3.09Y-2.035
X3.095Y-1.6
X3.095Y-1.7
X3.095Y-1.81
X3.095Y-1.875
X3.1Y-1.255
X3.1169Y-2.66
X3.12Y-1.97
X3.125Y-1.905
X3.13Y-2.26
X3.14Y-2.895
X3.1563Y-2.66
X3.17Y-2.74
X3.176Y-2.64
X3.189Y-1.731
X3.1914Y-2.8364
X3.1914Y-2.9014
X3.205Y-2.23
X3.215Y-2.8836
X3.2154Y-2.8154
X3.22Y-1.665
X3.252Y-2.21
X3.28Y-2.26
X3.2835Y-2.1102
X3.29Y-1.97
X3.3Y-2.21
X3.315Y-2.1102
X3.315Y-1.81
X3.315Y-1.905
X3.32Y-2.035
X3.32Y-2.385
X3.325Y-1.695
X3.3897Y-1.695
X3.435Y-2.0
X3.445Y-1.215
X3.46Y-2.06
X3.46Y-2.11
X3.49Y-1.925
X3.55Y-2.635
X3.56Y-2.045
X3.56Y-2.2
X3.56Y-2.36
X3.56Y-2.52
X3.63Y-1.07
X3.63Y-3.1
T2
X2.71Y-1.855
X2.71Y-1.955
X2.71Y-2.055
X2.81Y-1.855
X2.81Y-1.955
X2.81Y-2.055
X2.87Y-1.13
X2.97Y-1.13
X3.07Y-1.13
X3.17Y-1.13
X3.27Y-1.13
X3.37Y-1.13
X3.47Y-1.13
X3.57Y-1.13
X1.81Y-1.2303
X1.91Y-1.2303
X2.01Y-1.2303
X2.11Y-1.2303
X2.21Y-1.2303
X2.31Y-1.2303
X2.41Y-1.2303
X2.51Y-1.2303
X2.61Y-1.2303
X2.71Y-1.2303
X3.07Y-3.03
X3.17Y-3.03
X3.27Y-3.03
X3.37Y-3.03
X3.47Y-3.03
X3.57Y-3.03
X1.81Y-1.13
X1.91Y-1.13
X2.01Y-1.13
X2.11Y-1.13
X2.21Y-1.13
X2.31Y-1.13
X2.41Y-1.13
X2.51Y-1.13
X2.61Y-1.13
X2.71Y-1.13
X2.17Y-3.03
X2.27Y-3.03
X2.37Y-3.03
X2.47Y-3.03
X2.57Y-3.03
X2.67Y-3.03
X2.77Y-3.03
X2.87Y-3.03
T3
X3.5627Y-1.393
X3.5627Y-1.5504
X3.5627Y-1.7079
X3.5627Y-1.9638
X3.5627Y-2.1213
X3.5627Y-2.2788
X3.5627Y-2.4363
T0
M30
