%TF.GenerationSoftware,KiCad,Pcbnew,(6.0.0)*%
%TF.CreationDate,2022-03-16T08:28:38+01:00*%
%TF.ProjectId,GBAHD_Shield,47424148-445f-4536-9869-656c642e6b69,rev?*%
%TF.SameCoordinates,Original*%
%TF.FileFunction,Soldermask,Top*%
%TF.FilePolarity,Negative*%
%FSLAX46Y46*%
G04 Gerber Fmt 4.6, Leading zero omitted, Abs format (unit mm)*
G04 Created by KiCad (PCBNEW (6.0.0)) date 2022-03-16 08:28:38*
%MOMM*%
%LPD*%
G01*
G04 APERTURE LIST*
G04 Aperture macros list*
%AMFreePoly0*
4,1,9,3.862500,-0.866500,0.737500,-0.866500,0.737500,-0.450000,-0.737500,-0.450000,-0.737500,0.450000,0.737500,0.450000,0.737500,0.866500,3.862500,0.866500,3.862500,-0.866500,3.862500,-0.866500,$1*%
G04 Aperture macros list end*
%ADD10R,0.300000X1.100000*%
%ADD11R,2.300000X3.100000*%
%ADD12R,1.000000X1.500000*%
%ADD13R,0.900000X1.300000*%
%ADD14FreePoly0,90.000000*%
%ADD15R,1.700000X1.700000*%
%ADD16O,1.700000X1.700000*%
%ADD17R,0.900000X1.000000*%
%ADD18R,0.550000X1.600000*%
%ADD19R,1.600000X0.550000*%
%ADD20R,1.500000X1.500000*%
%ADD21C,1.500000*%
%ADD22C,2.500000*%
G04 APERTURE END LIST*
D10*
%TO.C,J5*%
X47644000Y-68500000D03*
X48144000Y-68500000D03*
X48644000Y-68500000D03*
X49144000Y-68500000D03*
X49644000Y-68500000D03*
X50144000Y-68500000D03*
X50644000Y-68500000D03*
X51144000Y-68500000D03*
X51644000Y-68500000D03*
X52144000Y-68500000D03*
X52644000Y-68500000D03*
X53144000Y-68500000D03*
X53644000Y-68500000D03*
X54144000Y-68500000D03*
X54644000Y-68500000D03*
X55144000Y-68500000D03*
X55644000Y-68500000D03*
X56144000Y-68500000D03*
X56644000Y-68500000D03*
X57144000Y-68500000D03*
X57644000Y-68500000D03*
X58144000Y-68500000D03*
X58644000Y-68500000D03*
X59144000Y-68500000D03*
X59644000Y-68500000D03*
X60144000Y-68500000D03*
X60644000Y-68500000D03*
X61144000Y-68500000D03*
X61644000Y-68500000D03*
X62144000Y-68500000D03*
X62644000Y-68500000D03*
X63144000Y-68500000D03*
X63644000Y-68500000D03*
X64144000Y-68500000D03*
X64644000Y-68500000D03*
X65144000Y-68500000D03*
X65644000Y-68500000D03*
X66144000Y-68500000D03*
X66644000Y-68500000D03*
X67144000Y-68500000D03*
D11*
X45974000Y-70200000D03*
X68814000Y-70200000D03*
%TD*%
D10*
%TO.C,J4*%
X74670000Y-68500000D03*
X75170000Y-68500000D03*
X75670000Y-68500000D03*
X76170000Y-68500000D03*
X76670000Y-68500000D03*
X77170000Y-68500000D03*
X77670000Y-68500000D03*
X78170000Y-68500000D03*
X78670000Y-68500000D03*
X79170000Y-68500000D03*
X79670000Y-68500000D03*
X80170000Y-68500000D03*
X80670000Y-68500000D03*
X81170000Y-68500000D03*
X81670000Y-68500000D03*
X82170000Y-68500000D03*
D11*
X83840000Y-70200000D03*
X73000000Y-70200000D03*
%TD*%
D10*
%TO.C,J2*%
X48130000Y-39500000D03*
X48630000Y-39500000D03*
X49130000Y-39500000D03*
X49630000Y-39500000D03*
X50130000Y-39500000D03*
X50630000Y-39500000D03*
X51130000Y-39500000D03*
X51630000Y-39500000D03*
X52130000Y-39500000D03*
X52630000Y-39500000D03*
X53130000Y-39500000D03*
X53630000Y-39500000D03*
X54130000Y-39500000D03*
X54630000Y-39500000D03*
X55130000Y-39500000D03*
X55630000Y-39500000D03*
X56130000Y-39500000D03*
X56630000Y-39500000D03*
X57130000Y-39500000D03*
X57630000Y-39500000D03*
X58130000Y-39500000D03*
X58630000Y-39500000D03*
X59130000Y-39500000D03*
X59630000Y-39500000D03*
X60130000Y-39500000D03*
X60630000Y-39500000D03*
X61130000Y-39500000D03*
X61630000Y-39500000D03*
X62130000Y-39500000D03*
X62630000Y-39500000D03*
X63130000Y-39500000D03*
X63630000Y-39500000D03*
D11*
X65300000Y-41200000D03*
X46460000Y-41200000D03*
%TD*%
D12*
%TO.C,JP1*%
X73787000Y-59944000D03*
X75087000Y-59944000D03*
X76387000Y-59944000D03*
%TD*%
D10*
%TO.C,J3*%
X48152000Y-54000000D03*
X48652000Y-54000000D03*
X49152000Y-54000000D03*
X49652000Y-54000000D03*
X50152000Y-54000000D03*
X50652000Y-54000000D03*
X51152000Y-54000000D03*
X51652000Y-54000000D03*
X52152000Y-54000000D03*
X52652000Y-54000000D03*
X53152000Y-54000000D03*
X53652000Y-54000000D03*
X54152000Y-54000000D03*
X54652000Y-54000000D03*
X55152000Y-54000000D03*
X55652000Y-54000000D03*
X56152000Y-54000000D03*
X56652000Y-54000000D03*
X57152000Y-54000000D03*
X57652000Y-54000000D03*
X58152000Y-54000000D03*
X58652000Y-54000000D03*
X59152000Y-54000000D03*
X59652000Y-54000000D03*
X60152000Y-54000000D03*
X60652000Y-54000000D03*
X61152000Y-54000000D03*
X61652000Y-54000000D03*
X62152000Y-54000000D03*
X62652000Y-54000000D03*
X63152000Y-54000000D03*
X63652000Y-54000000D03*
X64152000Y-54000000D03*
X64652000Y-54000000D03*
D11*
X66322000Y-55700000D03*
X46482000Y-55700000D03*
%TD*%
D13*
%TO.C,U1*%
X81431000Y-59689000D03*
D14*
X82931000Y-59601500D03*
D13*
X84431000Y-59689000D03*
%TD*%
D15*
%TO.C,J11*%
X82804000Y-41529000D03*
D16*
X85344000Y-41529000D03*
X82804000Y-44069000D03*
X85344000Y-44069000D03*
X82804000Y-46609000D03*
X85344000Y-46609000D03*
%TD*%
D17*
%TO.C,SW1*%
X86269000Y-50470000D03*
X82169000Y-50470000D03*
X86269000Y-52070000D03*
X82169000Y-52070000D03*
%TD*%
D18*
%TO.C,U5*%
X72198000Y-48757000D03*
X72998000Y-48757000D03*
X73798000Y-48757000D03*
X74598000Y-48757000D03*
X75398000Y-48757000D03*
X76198000Y-48757000D03*
X76998000Y-48757000D03*
X77798000Y-48757000D03*
D19*
X79248000Y-47307000D03*
X79248000Y-46507000D03*
X79248000Y-45707000D03*
X79248000Y-44907000D03*
X79248000Y-44107000D03*
X79248000Y-43307000D03*
X79248000Y-42507000D03*
X79248000Y-41707000D03*
D18*
X77798000Y-40257000D03*
X76998000Y-40257000D03*
X76198000Y-40257000D03*
X75398000Y-40257000D03*
X74598000Y-40257000D03*
X73798000Y-40257000D03*
X72998000Y-40257000D03*
X72198000Y-40257000D03*
D19*
X70748000Y-41707000D03*
X70748000Y-42507000D03*
X70748000Y-43307000D03*
X70748000Y-44107000D03*
X70748000Y-44907000D03*
X70748000Y-45707000D03*
X70748000Y-46507000D03*
X70748000Y-47307000D03*
%TD*%
D20*
%TO.C,J1*%
X90678000Y-74422000D03*
%TD*%
D21*
%TO.C,T2*%
X71247000Y-38100000D03*
%TD*%
%TO.C,T5*%
X72136000Y-51054000D03*
%TD*%
%TO.C,T1*%
X73914000Y-38100000D03*
%TD*%
D20*
%TO.C,VCC1*%
X50028000Y-76962000D03*
%TD*%
%TO.C,GND1*%
X46228000Y-76962000D03*
%TD*%
D22*
%TO.C,U4*%
X90492000Y-61881000D03*
X90492000Y-57881000D03*
X90492000Y-53881000D03*
X90492000Y-49881000D03*
X90492000Y-43381000D03*
X90492000Y-39381000D03*
X90492000Y-35381000D03*
%TD*%
D15*
%TO.C,J7*%
X72898000Y-76962000D03*
D16*
X70358000Y-76962000D03*
X67818000Y-76962000D03*
X65278000Y-76962000D03*
X62738000Y-76962000D03*
X60198000Y-76962000D03*
X57658000Y-76962000D03*
X55118000Y-76962000D03*
%TD*%
D15*
%TO.C,J8*%
X68834000Y-31250000D03*
D16*
X66294000Y-31250000D03*
X63754000Y-31250000D03*
X61214000Y-31250000D03*
X58674000Y-31250000D03*
X56134000Y-31250000D03*
X53594000Y-31250000D03*
X51054000Y-31250000D03*
X48514000Y-31250000D03*
X45974000Y-31250000D03*
%TD*%
D15*
%TO.C,J9*%
X90678000Y-28702000D03*
D16*
X88138000Y-28702000D03*
X85598000Y-28702000D03*
X83058000Y-28702000D03*
X80518000Y-28702000D03*
X77978000Y-28702000D03*
X75438000Y-28702000D03*
X72898000Y-28702000D03*
%TD*%
D15*
%TO.C,J10*%
X68834000Y-28702000D03*
D16*
X66294000Y-28702000D03*
X63754000Y-28702000D03*
X61214000Y-28702000D03*
X58674000Y-28702000D03*
X56134000Y-28702000D03*
X53594000Y-28702000D03*
X51054000Y-28702000D03*
X48514000Y-28702000D03*
X45974000Y-28702000D03*
%TD*%
D15*
%TO.C,J6*%
X77978000Y-76962000D03*
D16*
X80518000Y-76962000D03*
X83058000Y-76962000D03*
X85598000Y-76962000D03*
X88138000Y-76962000D03*
X90678000Y-76962000D03*
%TD*%
M02*
