%TF.GenerationSoftware,KiCad,Pcbnew,(5.1.8)-1*%
%TF.CreationDate,2021-01-10T00:46:59-06:00*%
%TF.ProjectId,GBAHD_Shield,47424148-445f-4536-9869-656c642e6b69,rev?*%
%TF.SameCoordinates,Original*%
%TF.FileFunction,Paste,Top*%
%TF.FilePolarity,Positive*%
%FSLAX46Y46*%
G04 Gerber Fmt 4.6, Leading zero omitted, Abs format (unit mm)*
G04 Created by KiCad (PCBNEW (5.1.8)-1) date 2021-01-10 00:46:59*
%MOMM*%
%LPD*%
G01*
G04 APERTURE LIST*
%ADD10C,0.100000*%
%ADD11R,2.000000X2.000000*%
%ADD12R,0.600000X0.420000*%
%ADD13R,2.500000X1.800000*%
%ADD14R,0.300000X1.300000*%
%ADD15R,2.000000X3.000000*%
%ADD16R,1.600000X0.550000*%
%ADD17R,0.550000X1.600000*%
%ADD18R,1.250000X0.900000*%
G04 APERTURE END LIST*
D10*
%TO.C,X1*%
G36*
X81868016Y-54281569D02*
G01*
X81019488Y-55130097D01*
X80029538Y-54140147D01*
X80878066Y-53291619D01*
X81868016Y-54281569D01*
G37*
G36*
X80312381Y-52725934D02*
G01*
X79463853Y-53574462D01*
X78473903Y-52584512D01*
X79322431Y-51735984D01*
X80312381Y-52725934D01*
G37*
G36*
X81514462Y-51523853D02*
G01*
X80665934Y-52372381D01*
X79675984Y-51382431D01*
X80524512Y-50533903D01*
X81514462Y-51523853D01*
G37*
G36*
X83070097Y-53079488D02*
G01*
X82221569Y-53928016D01*
X81231619Y-52938066D01*
X82080147Y-52089538D01*
X83070097Y-53079488D01*
G37*
%TD*%
D11*
%TO.C,J7*%
X87122000Y-62380000D03*
%TD*%
D12*
%TO.C,U3*%
X64800000Y-48400000D03*
X64800000Y-47750000D03*
X64800000Y-47100000D03*
X66700000Y-48400000D03*
X66700000Y-47750000D03*
X66700000Y-47100000D03*
%TD*%
D13*
%TO.C,J5*%
X85300000Y-50860000D03*
X85300000Y-48320000D03*
X85300000Y-40700000D03*
X85300000Y-45780000D03*
X85300000Y-43240000D03*
%TD*%
D14*
%TO.C,J1*%
X52750000Y-60500000D03*
X51250000Y-60500000D03*
X55250000Y-60500000D03*
X53250000Y-60500000D03*
X58250000Y-60500000D03*
D15*
X69750000Y-62850000D03*
D14*
X50250000Y-60500000D03*
X57750000Y-60500000D03*
X57250000Y-60500000D03*
X55750000Y-60500000D03*
X53750000Y-60500000D03*
X48750000Y-60500000D03*
X54250000Y-60500000D03*
X61750000Y-60500000D03*
X49750000Y-60500000D03*
X50750000Y-60500000D03*
X54750000Y-60500000D03*
X51750000Y-60500000D03*
X49250000Y-60500000D03*
X67750000Y-60500000D03*
X58750000Y-60500000D03*
X56750000Y-60500000D03*
X63750000Y-60500000D03*
X63250000Y-60500000D03*
X59750000Y-60500000D03*
X62750000Y-60500000D03*
X64250000Y-60500000D03*
X62250000Y-60500000D03*
X60250000Y-60500000D03*
X64750000Y-60500000D03*
X65250000Y-60500000D03*
X65750000Y-60500000D03*
X66250000Y-60500000D03*
X67250000Y-60500000D03*
X59250000Y-60500000D03*
X66750000Y-60500000D03*
X56250000Y-60500000D03*
X52250000Y-60500000D03*
D15*
X47250000Y-62850000D03*
D14*
X68250000Y-60500000D03*
X60750000Y-60500000D03*
X61250000Y-60500000D03*
%TD*%
D16*
%TO.C,U2*%
X73250000Y-46550000D03*
X73250000Y-45750000D03*
X73250000Y-44950000D03*
X73250000Y-44150000D03*
X73250000Y-43350000D03*
X73250000Y-42550000D03*
X73250000Y-41750000D03*
X73250000Y-40950000D03*
D17*
X74700000Y-39500000D03*
X75500000Y-39500000D03*
X76300000Y-39500000D03*
X77100000Y-39500000D03*
X77900000Y-39500000D03*
X78700000Y-39500000D03*
X79500000Y-39500000D03*
X80300000Y-39500000D03*
D16*
X81750000Y-40950000D03*
X81750000Y-41750000D03*
X81750000Y-42550000D03*
X81750000Y-43350000D03*
X81750000Y-44150000D03*
X81750000Y-44950000D03*
X81750000Y-45750000D03*
X81750000Y-46550000D03*
D17*
X80300000Y-48000000D03*
X79500000Y-48000000D03*
X78700000Y-48000000D03*
X77900000Y-48000000D03*
X77100000Y-48000000D03*
X76300000Y-48000000D03*
X75500000Y-48000000D03*
X74700000Y-48000000D03*
%TD*%
D18*
%TO.C,SW1*%
X80425000Y-37000000D03*
X80425000Y-35500000D03*
X76575000Y-37000000D03*
X76575000Y-35500000D03*
%TD*%
%TO.C,R1*%
G36*
G01*
X74049999Y-36400000D02*
X74950001Y-36400000D01*
G75*
G02*
X75200000Y-36649999I0J-249999D01*
G01*
X75200000Y-37350001D01*
G75*
G02*
X74950001Y-37600000I-249999J0D01*
G01*
X74049999Y-37600000D01*
G75*
G02*
X73800000Y-37350001I0J249999D01*
G01*
X73800000Y-36649999D01*
G75*
G02*
X74049999Y-36400000I249999J0D01*
G01*
G37*
G36*
G01*
X74049999Y-34400000D02*
X74950001Y-34400000D01*
G75*
G02*
X75200000Y-34649999I0J-249999D01*
G01*
X75200000Y-35350001D01*
G75*
G02*
X74950001Y-35600000I-249999J0D01*
G01*
X74049999Y-35600000D01*
G75*
G02*
X73800000Y-35350001I0J249999D01*
G01*
X73800000Y-34649999D01*
G75*
G02*
X74049999Y-34400000I249999J0D01*
G01*
G37*
%TD*%
D14*
%TO.C,J3*%
X77750000Y-60500000D03*
X78750000Y-60500000D03*
D15*
X73250000Y-62850000D03*
D14*
X76750000Y-60500000D03*
X74750000Y-60500000D03*
X76250000Y-60500000D03*
X81250000Y-60500000D03*
X78250000Y-60500000D03*
X82250000Y-60500000D03*
D15*
X83750000Y-62850000D03*
D14*
X79750000Y-60500000D03*
X77250000Y-60500000D03*
X80250000Y-60500000D03*
X75750000Y-60500000D03*
X79250000Y-60500000D03*
X81750000Y-60500000D03*
X75250000Y-60500000D03*
X80750000Y-60500000D03*
%TD*%
%TO.C,C3*%
G36*
G01*
X82025000Y-36450000D02*
X82975000Y-36450000D01*
G75*
G02*
X83225000Y-36700000I0J-250000D01*
G01*
X83225000Y-37375000D01*
G75*
G02*
X82975000Y-37625000I-250000J0D01*
G01*
X82025000Y-37625000D01*
G75*
G02*
X81775000Y-37375000I0J250000D01*
G01*
X81775000Y-36700000D01*
G75*
G02*
X82025000Y-36450000I250000J0D01*
G01*
G37*
G36*
G01*
X82025000Y-34375000D02*
X82975000Y-34375000D01*
G75*
G02*
X83225000Y-34625000I0J-250000D01*
G01*
X83225000Y-35300000D01*
G75*
G02*
X82975000Y-35550000I-250000J0D01*
G01*
X82025000Y-35550000D01*
G75*
G02*
X81775000Y-35300000I0J250000D01*
G01*
X81775000Y-34625000D01*
G75*
G02*
X82025000Y-34375000I250000J0D01*
G01*
G37*
%TD*%
%TO.C,C2*%
G36*
G01*
X84982073Y-54881678D02*
X84310322Y-54209927D01*
G75*
G02*
X84310322Y-53856373I176777J176777D01*
G01*
X84787619Y-53379076D01*
G75*
G02*
X85141173Y-53379076I176777J-176777D01*
G01*
X85812924Y-54050827D01*
G75*
G02*
X85812924Y-54404381I-176777J-176777D01*
G01*
X85335627Y-54881678D01*
G75*
G02*
X84982073Y-54881678I-176777J176777D01*
G01*
G37*
G36*
G01*
X83514827Y-56348924D02*
X82843076Y-55677173D01*
G75*
G02*
X82843076Y-55323619I176777J176777D01*
G01*
X83320373Y-54846322D01*
G75*
G02*
X83673927Y-54846322I176777J-176777D01*
G01*
X84345678Y-55518073D01*
G75*
G02*
X84345678Y-55871627I-176777J-176777D01*
G01*
X83868381Y-56348924D01*
G75*
G02*
X83514827Y-56348924I-176777J176777D01*
G01*
G37*
%TD*%
%TO.C,C1*%
G36*
G01*
X78700924Y-55677173D02*
X78029173Y-56348924D01*
G75*
G02*
X77675619Y-56348924I-176777J176777D01*
G01*
X77198322Y-55871627D01*
G75*
G02*
X77198322Y-55518073I176777J176777D01*
G01*
X77870073Y-54846322D01*
G75*
G02*
X78223627Y-54846322I176777J-176777D01*
G01*
X78700924Y-55323619D01*
G75*
G02*
X78700924Y-55677173I-176777J-176777D01*
G01*
G37*
G36*
G01*
X77233678Y-54209927D02*
X76561927Y-54881678D01*
G75*
G02*
X76208373Y-54881678I-176777J176777D01*
G01*
X75731076Y-54404381D01*
G75*
G02*
X75731076Y-54050827I176777J176777D01*
G01*
X76402827Y-53379076D01*
G75*
G02*
X76756381Y-53379076I176777J-176777D01*
G01*
X77233678Y-53856373D01*
G75*
G02*
X77233678Y-54209927I-176777J-176777D01*
G01*
G37*
%TD*%
M02*
