%TF.GenerationSoftware,KiCad,Pcbnew,(5.1.8)-1*%
%TF.CreationDate,2021-04-16T15:21:13+02:00*%
%TF.ProjectId,GBAHD_Shield,47424148-445f-4536-9869-656c642e6b69,rev?*%
%TF.SameCoordinates,Original*%
%TF.FileFunction,Legend,Top*%
%TF.FilePolarity,Positive*%
%FSLAX46Y46*%
G04 Gerber Fmt 4.6, Leading zero omitted, Abs format (unit mm)*
G04 Created by KiCad (PCBNEW (5.1.8)-1) date 2021-04-16 15:21:13*
%MOMM*%
%LPD*%
G01*
G04 APERTURE LIST*
%ADD10C,0.120000*%
%ADD11C,0.150000*%
%ADD12C,0.125000*%
G04 APERTURE END LIST*
D10*
X86487000Y-74168000D02*
X88138000Y-74168000D01*
X86487000Y-73914000D02*
X86487000Y-74168000D01*
X86487000Y-71628000D02*
X87630000Y-71628000D01*
X86487000Y-71882000D02*
X86487000Y-71628000D01*
D11*
X85826000Y-73874190D02*
X85826000Y-72921809D01*
X87145761Y-73683714D02*
X87193380Y-73540857D01*
X87193380Y-73302761D01*
X87145761Y-73207523D01*
X87098142Y-73159904D01*
X87002904Y-73112285D01*
X86907666Y-73112285D01*
X86812428Y-73159904D01*
X86764809Y-73207523D01*
X86717190Y-73302761D01*
X86669571Y-73493238D01*
X86621952Y-73588476D01*
X86574333Y-73636095D01*
X86479095Y-73683714D01*
X86383857Y-73683714D01*
X86288619Y-73636095D01*
X86241000Y-73588476D01*
X86193380Y-73493238D01*
X86193380Y-73255142D01*
X86241000Y-73112285D01*
X85826000Y-72921809D02*
X85826000Y-71921809D01*
X87193380Y-72683714D02*
X86193380Y-72683714D01*
X86193380Y-72302761D01*
X86241000Y-72207523D01*
X86288619Y-72159904D01*
X86383857Y-72112285D01*
X86526714Y-72112285D01*
X86621952Y-72159904D01*
X86669571Y-72207523D01*
X86717190Y-72302761D01*
X86717190Y-72683714D01*
D10*
X62357000Y-51562000D02*
X58547000Y-51562000D01*
X62357000Y-45466000D02*
X62357000Y-51562000D01*
X58547000Y-45466000D02*
X62357000Y-45466000D01*
X58547000Y-51562000D02*
X58547000Y-45466000D01*
D11*
X58966000Y-51228285D02*
X58966000Y-50275904D01*
X60333380Y-50466380D02*
X60333380Y-51037809D01*
X60333380Y-50752095D02*
X59333380Y-50752095D01*
X59476238Y-50847333D01*
X59571476Y-50942571D01*
X59619095Y-51037809D01*
X58966000Y-50275904D02*
X58966000Y-49323523D01*
X59428619Y-50085428D02*
X59381000Y-50037809D01*
X59333380Y-49942571D01*
X59333380Y-49704476D01*
X59381000Y-49609238D01*
X59428619Y-49561619D01*
X59523857Y-49514000D01*
X59619095Y-49514000D01*
X59761952Y-49561619D01*
X60333380Y-50133047D01*
X60333380Y-49514000D01*
X59333380Y-48418761D02*
X59333380Y-47799714D01*
X59714333Y-48133047D01*
X59714333Y-47990190D01*
X59761952Y-47894952D01*
X59809571Y-47847333D01*
X59904809Y-47799714D01*
X60142904Y-47799714D01*
X60238142Y-47847333D01*
X60285761Y-47894952D01*
X60333380Y-47990190D01*
X60333380Y-48275904D01*
X60285761Y-48371142D01*
X60238142Y-48418761D01*
X59333380Y-47514000D02*
X60333380Y-47180666D01*
X59333380Y-46847333D01*
X59333380Y-46609238D02*
X59333380Y-45990190D01*
X59714333Y-46323523D01*
X59714333Y-46180666D01*
X59761952Y-46085428D01*
X59809571Y-46037809D01*
X59904809Y-45990190D01*
X60142904Y-45990190D01*
X60238142Y-46037809D01*
X60285761Y-46085428D01*
X60333380Y-46180666D01*
X60333380Y-46466380D01*
X60285761Y-46561619D01*
X60238142Y-46609238D01*
X60616000Y-51228285D02*
X60616000Y-50275904D01*
X61078619Y-51037809D02*
X61031000Y-50990190D01*
X60983380Y-50894952D01*
X60983380Y-50656857D01*
X61031000Y-50561619D01*
X61078619Y-50514000D01*
X61173857Y-50466380D01*
X61269095Y-50466380D01*
X61411952Y-50514000D01*
X61983380Y-51085428D01*
X61983380Y-50466380D01*
X60616000Y-50275904D02*
X60616000Y-49323523D01*
X60983380Y-50133047D02*
X60983380Y-49514000D01*
X61364333Y-49847333D01*
X61364333Y-49704476D01*
X61411952Y-49609238D01*
X61459571Y-49561619D01*
X61554809Y-49514000D01*
X61792904Y-49514000D01*
X61888142Y-49561619D01*
X61935761Y-49609238D01*
X61983380Y-49704476D01*
X61983380Y-49990190D01*
X61935761Y-50085428D01*
X61888142Y-50133047D01*
X61316714Y-47894952D02*
X61983380Y-47894952D01*
X60935761Y-48133047D02*
X61650047Y-48371142D01*
X61650047Y-47752095D01*
X60983380Y-47514000D02*
X61983380Y-47180666D01*
X60983380Y-46847333D01*
X60983380Y-46323523D02*
X60983380Y-46228285D01*
X61031000Y-46133047D01*
X61078619Y-46085428D01*
X61173857Y-46037809D01*
X61364333Y-45990190D01*
X61602428Y-45990190D01*
X61792904Y-46037809D01*
X61888142Y-46085428D01*
X61935761Y-46133047D01*
X61983380Y-46228285D01*
X61983380Y-46323523D01*
X61935761Y-46418761D01*
X61888142Y-46466380D01*
X61792904Y-46514000D01*
X61602428Y-46561619D01*
X61364333Y-46561619D01*
X61173857Y-46514000D01*
X61078619Y-46466380D01*
X61031000Y-46418761D01*
X60983380Y-46323523D01*
D10*
X81915000Y-55626000D02*
X81915000Y-55372000D01*
X81661000Y-55372000D02*
X81915000Y-55626000D01*
X81915000Y-55118000D02*
X81661000Y-55372000D01*
X81915000Y-55372000D02*
X81915000Y-55118000D01*
X82169000Y-55372000D02*
X81915000Y-55372000D01*
X84455000Y-56261000D02*
X84455000Y-54610000D01*
X86741000Y-54610000D02*
X82169000Y-54610000D01*
X86741000Y-56261000D02*
X86741000Y-54610000D01*
X82169000Y-56261000D02*
X86741000Y-56261000D01*
X82169000Y-54610000D02*
X82169000Y-56261000D01*
D12*
X88618190Y-54609904D02*
X88618190Y-54848000D01*
X88118190Y-54848000D01*
X88475333Y-54467047D02*
X88475333Y-54228952D01*
X88618190Y-54514666D02*
X88118190Y-54348000D01*
X88618190Y-54181333D01*
X88118190Y-54086095D02*
X88118190Y-53800380D01*
X88618190Y-53943238D02*
X88118190Y-53943238D01*
X88570571Y-53348000D02*
X88594380Y-53371809D01*
X88618190Y-53443238D01*
X88618190Y-53490857D01*
X88594380Y-53562285D01*
X88546761Y-53609904D01*
X88499142Y-53633714D01*
X88403904Y-53657523D01*
X88332476Y-53657523D01*
X88237238Y-53633714D01*
X88189619Y-53609904D01*
X88142000Y-53562285D01*
X88118190Y-53490857D01*
X88118190Y-53443238D01*
X88142000Y-53371809D01*
X88165809Y-53348000D01*
X88618190Y-53133714D02*
X88118190Y-53133714D01*
X88356285Y-53133714D02*
X88356285Y-52848000D01*
X88618190Y-52848000D02*
X88118190Y-52848000D01*
D10*
X79093553Y-46228000D02*
G75*
G03*
X79093553Y-46228000I-353553J0D01*
G01*
D12*
X88570571Y-58209619D02*
X88594380Y-58233428D01*
X88618190Y-58304857D01*
X88618190Y-58352476D01*
X88594380Y-58423904D01*
X88546761Y-58471523D01*
X88499142Y-58495333D01*
X88403904Y-58519142D01*
X88332476Y-58519142D01*
X88237238Y-58495333D01*
X88189619Y-58471523D01*
X88142000Y-58423904D01*
X88118190Y-58352476D01*
X88118190Y-58304857D01*
X88142000Y-58233428D01*
X88165809Y-58209619D01*
X88618190Y-57757238D02*
X88618190Y-57995333D01*
X88118190Y-57995333D01*
X88618190Y-57590571D02*
X88118190Y-57590571D01*
X88618190Y-57304857D02*
X88332476Y-57519142D01*
X88118190Y-57304857D02*
X88403904Y-57590571D01*
X88118190Y-62134666D02*
X88618190Y-61968000D01*
X88118190Y-61801333D01*
X88570571Y-61348952D02*
X88594380Y-61372761D01*
X88618190Y-61444190D01*
X88618190Y-61491809D01*
X88594380Y-61563238D01*
X88546761Y-61610857D01*
X88499142Y-61634666D01*
X88403904Y-61658476D01*
X88332476Y-61658476D01*
X88237238Y-61634666D01*
X88189619Y-61610857D01*
X88142000Y-61563238D01*
X88118190Y-61491809D01*
X88118190Y-61444190D01*
X88142000Y-61372761D01*
X88165809Y-61348952D01*
X88570571Y-60848952D02*
X88594380Y-60872761D01*
X88618190Y-60944190D01*
X88618190Y-60991809D01*
X88594380Y-61063238D01*
X88546761Y-61110857D01*
X88499142Y-61134666D01*
X88403904Y-61158476D01*
X88332476Y-61158476D01*
X88237238Y-61134666D01*
X88189619Y-61110857D01*
X88142000Y-61063238D01*
X88118190Y-60991809D01*
X88118190Y-60944190D01*
X88142000Y-60872761D01*
X88165809Y-60848952D01*
X88142000Y-35686952D02*
X88118190Y-35734571D01*
X88118190Y-35806000D01*
X88142000Y-35877428D01*
X88189619Y-35925047D01*
X88237238Y-35948857D01*
X88332476Y-35972666D01*
X88403904Y-35972666D01*
X88499142Y-35948857D01*
X88546761Y-35925047D01*
X88594380Y-35877428D01*
X88618190Y-35806000D01*
X88618190Y-35758380D01*
X88594380Y-35686952D01*
X88570571Y-35663142D01*
X88403904Y-35663142D01*
X88403904Y-35758380D01*
X88618190Y-35448857D02*
X88118190Y-35448857D01*
X88618190Y-35163142D01*
X88118190Y-35163142D01*
X88618190Y-34925047D02*
X88118190Y-34925047D01*
X88118190Y-34806000D01*
X88142000Y-34734571D01*
X88189619Y-34686952D01*
X88237238Y-34663142D01*
X88332476Y-34639333D01*
X88403904Y-34639333D01*
X88499142Y-34663142D01*
X88546761Y-34686952D01*
X88594380Y-34734571D01*
X88618190Y-34806000D01*
X88618190Y-34925047D01*
X88618190Y-50788000D02*
X88118190Y-50788000D01*
X88118190Y-50668952D01*
X88142000Y-50597523D01*
X88189619Y-50549904D01*
X88237238Y-50526095D01*
X88332476Y-50502285D01*
X88403904Y-50502285D01*
X88499142Y-50526095D01*
X88546761Y-50549904D01*
X88594380Y-50597523D01*
X88618190Y-50668952D01*
X88618190Y-50788000D01*
X88475333Y-50311809D02*
X88475333Y-50073714D01*
X88618190Y-50359428D02*
X88118190Y-50192761D01*
X88618190Y-50026095D01*
X88118190Y-49930857D02*
X88118190Y-49645142D01*
X88618190Y-49788000D02*
X88118190Y-49788000D01*
X88475333Y-49502285D02*
X88475333Y-49264190D01*
X88618190Y-49549904D02*
X88118190Y-49383238D01*
X88618190Y-49216571D01*
D10*
%TO.C,J12*%
X90109000Y-72959000D02*
X90109000Y-71059000D01*
X92009000Y-72959000D02*
X90109000Y-72959000D01*
X92009000Y-71059000D02*
X92009000Y-72959000D01*
X90109000Y-71059000D02*
X92009000Y-71059000D01*
D11*
%TO.C,U5*%
X77775000Y-45175000D02*
X77775000Y-45400000D01*
X85025000Y-45175000D02*
X85025000Y-45500000D01*
X85025000Y-52425000D02*
X85025000Y-52100000D01*
X77775000Y-52425000D02*
X77775000Y-52100000D01*
X77775000Y-45175000D02*
X78100000Y-45175000D01*
X77775000Y-52425000D02*
X78100000Y-52425000D01*
X85025000Y-52425000D02*
X84700000Y-52425000D01*
X85025000Y-45175000D02*
X84700000Y-45175000D01*
X77775000Y-45400000D02*
X76350000Y-45400000D01*
D10*
%TO.C,GND*%
X40579000Y-76520000D02*
X42479000Y-76520000D01*
X42479000Y-76520000D02*
X42479000Y-78420000D01*
X42479000Y-78420000D02*
X40579000Y-78420000D01*
X40579000Y-78420000D02*
X40579000Y-76520000D01*
%TO.C,VCC*%
X44135000Y-76520000D02*
X46035000Y-76520000D01*
X46035000Y-76520000D02*
X46035000Y-78420000D01*
X46035000Y-78420000D02*
X44135000Y-78420000D01*
X44135000Y-78420000D02*
X44135000Y-76520000D01*
%TO.C,SW1*%
X81575000Y-38723000D02*
X81575000Y-38823000D01*
X77175000Y-40323000D02*
X81575000Y-40323000D01*
X81575000Y-37223000D02*
X77175000Y-37223000D01*
X77175000Y-38723000D02*
X77175000Y-38823000D01*
%TO.C,R4*%
X76210936Y-41048000D02*
X76665064Y-41048000D01*
X76210936Y-42518000D02*
X76665064Y-42518000D01*
%TO.C,U1*%
X68800000Y-43316000D02*
X67490000Y-43316000D01*
X67490000Y-43316000D02*
X67490000Y-40596000D01*
X71980000Y-39456000D02*
X71980000Y-40596000D01*
X72210000Y-43316000D02*
X70900000Y-43316000D01*
X72210000Y-40596000D02*
X72210000Y-43316000D01*
X72210000Y-40596000D02*
X71980000Y-40596000D01*
X67490000Y-40596000D02*
X67720000Y-40596000D01*
%TO.C,R1*%
X72703000Y-39073064D02*
X72703000Y-38618936D01*
X74173000Y-39073064D02*
X74173000Y-38618936D01*
%TO.C,C1*%
X65559000Y-42911752D02*
X65559000Y-42389248D01*
X67029000Y-42911752D02*
X67029000Y-42389248D01*
%TO.C,JP1*%
X66532000Y-50534000D02*
X64532000Y-50534000D01*
X66532000Y-46434000D02*
X66532000Y-50534000D01*
X64532000Y-46434000D02*
X66532000Y-46434000D01*
X64532000Y-50534000D02*
X64532000Y-46434000D01*
%TO.C,R2*%
X70569064Y-38581000D02*
X70114936Y-38581000D01*
X70569064Y-37111000D02*
X70114936Y-37111000D01*
%TO.C,SJ1*%
X68596000Y-68719000D02*
X70596000Y-68719000D01*
X68596000Y-71519000D02*
X68596000Y-68719000D01*
X70596000Y-71519000D02*
X68596000Y-71519000D01*
X70596000Y-68719000D02*
X70596000Y-71519000D01*
%TO.C,J4*%
X71705000Y-71890000D02*
X71595000Y-71890000D01*
X71595000Y-71890000D02*
X71595000Y-72490000D01*
X85135000Y-71890000D02*
X85245000Y-71890000D01*
X85245000Y-71890000D02*
X85245000Y-72490000D01*
X74470000Y-69300000D02*
X74670000Y-69700000D01*
X74670000Y-69700000D02*
X74870000Y-69300000D01*
X74870000Y-69300000D02*
X74470000Y-69300000D01*
%TO.C,T3*%
X84902000Y-35753000D02*
X86802000Y-35753000D01*
X86802000Y-35753000D02*
X86802000Y-37653000D01*
X86802000Y-37653000D02*
X84902000Y-37653000D01*
X84902000Y-37653000D02*
X84902000Y-35753000D01*
%TO.C,T1*%
X84902000Y-40325000D02*
X86802000Y-40325000D01*
X86802000Y-40325000D02*
X86802000Y-42225000D01*
X86802000Y-42225000D02*
X84902000Y-42225000D01*
X84902000Y-42225000D02*
X84902000Y-40325000D01*
%TO.C,T2*%
X84902000Y-38039000D02*
X86802000Y-38039000D01*
X86802000Y-38039000D02*
X86802000Y-39939000D01*
X86802000Y-39939000D02*
X84902000Y-39939000D01*
X84902000Y-39939000D02*
X84902000Y-38039000D01*
%TO.C,T4*%
X84902000Y-33467000D02*
X86802000Y-33467000D01*
X86802000Y-33467000D02*
X86802000Y-35367000D01*
X86802000Y-35367000D02*
X84902000Y-35367000D01*
X84902000Y-35367000D02*
X84902000Y-33467000D01*
%TO.C,T8*%
X79695000Y-54422000D02*
X81595000Y-54422000D01*
X81595000Y-54422000D02*
X81595000Y-56322000D01*
X81595000Y-56322000D02*
X79695000Y-56322000D01*
X79695000Y-56322000D02*
X79695000Y-54422000D01*
%TO.C,T7*%
X77409000Y-54422000D02*
X79309000Y-54422000D01*
X79309000Y-54422000D02*
X79309000Y-56322000D01*
X79309000Y-56322000D02*
X77409000Y-56322000D01*
X77409000Y-56322000D02*
X77409000Y-54422000D01*
%TO.C,T6*%
X75123000Y-54422000D02*
X77023000Y-54422000D01*
X77023000Y-54422000D02*
X77023000Y-56322000D01*
X77023000Y-56322000D02*
X75123000Y-56322000D01*
X75123000Y-56322000D02*
X75123000Y-54422000D01*
%TO.C,T5*%
X75123000Y-52263000D02*
X77023000Y-52263000D01*
X77023000Y-52263000D02*
X77023000Y-54163000D01*
X77023000Y-54163000D02*
X75123000Y-54163000D01*
X75123000Y-54163000D02*
X75123000Y-52263000D01*
%TO.C,J5*%
X42035000Y-71890000D02*
X41925000Y-71890000D01*
X41925000Y-71890000D02*
X41925000Y-72490000D01*
X67465000Y-71890000D02*
X67575000Y-71890000D01*
X67575000Y-71890000D02*
X67575000Y-72490000D01*
X44800000Y-69300000D02*
X45000000Y-69700000D01*
X45000000Y-69700000D02*
X45200000Y-69300000D01*
X45200000Y-69300000D02*
X44800000Y-69300000D01*
%TO.C,C3*%
X73941000Y-49304752D02*
X73941000Y-48782248D01*
X75411000Y-49304752D02*
X75411000Y-48782248D01*
%TO.C,Q1*%
X87574000Y-70483000D02*
X88504000Y-70483000D01*
X90734000Y-70483000D02*
X89804000Y-70483000D01*
X90734000Y-70483000D02*
X90734000Y-68323000D01*
X87574000Y-70483000D02*
X87574000Y-69023000D01*
%TO.C,R3*%
X89397064Y-67664000D02*
X88942936Y-67664000D01*
X89397064Y-66194000D02*
X88942936Y-66194000D01*
%TO.C,J3*%
X42535000Y-57390000D02*
X42425000Y-57390000D01*
X42425000Y-57390000D02*
X42425000Y-57990000D01*
X64965000Y-57390000D02*
X65075000Y-57390000D01*
X65075000Y-57390000D02*
X65075000Y-57990000D01*
X45300000Y-54800000D02*
X45500000Y-55200000D01*
X45500000Y-55200000D02*
X45700000Y-54800000D01*
X45700000Y-54800000D02*
X45300000Y-54800000D01*
%TO.C,J1*%
X92009000Y-74864000D02*
X90109000Y-74864000D01*
X90109000Y-74864000D02*
X90109000Y-72964000D01*
X90109000Y-72964000D02*
X92009000Y-72964000D01*
X92009000Y-72964000D02*
X92009000Y-74864000D01*
%TO.C,J11*%
X67504000Y-53527000D02*
X72704000Y-53527000D01*
X67504000Y-48387000D02*
X67504000Y-53527000D01*
X72704000Y-45787000D02*
X72704000Y-53527000D01*
X67504000Y-48387000D02*
X70104000Y-48387000D01*
X70104000Y-48387000D02*
X70104000Y-45787000D01*
X70104000Y-45787000D02*
X72704000Y-45787000D01*
X67504000Y-47117000D02*
X67504000Y-45787000D01*
X67504000Y-45787000D02*
X68834000Y-45787000D01*
%TO.C,C2*%
X72671000Y-42954752D02*
X72671000Y-42432248D01*
X74141000Y-42954752D02*
X74141000Y-42432248D01*
%TO.C,J2*%
X42535000Y-42890000D02*
X42425000Y-42890000D01*
X42425000Y-42890000D02*
X42425000Y-43490000D01*
X63965000Y-42890000D02*
X64075000Y-42890000D01*
X64075000Y-42890000D02*
X64075000Y-43490000D01*
X45300000Y-40300000D02*
X45500000Y-40700000D01*
X45500000Y-40700000D02*
X45700000Y-40300000D01*
X45700000Y-40300000D02*
X45300000Y-40300000D01*
%TO.C,U2*%
X76688000Y-60641000D02*
X76688000Y-58691000D01*
X76688000Y-60641000D02*
X76688000Y-62591000D01*
X66568000Y-60641000D02*
X66568000Y-58691000D01*
X66568000Y-60641000D02*
X66568000Y-64091000D01*
%TO.C,U3*%
X87737000Y-60641000D02*
X87737000Y-58691000D01*
X87737000Y-60641000D02*
X87737000Y-62591000D01*
X77617000Y-60641000D02*
X77617000Y-58691000D01*
X77617000Y-60641000D02*
X77617000Y-64091000D01*
%TO.C,J12*%
D11*
X87836476Y-71461380D02*
X87836476Y-72175666D01*
X87788857Y-72318523D01*
X87693619Y-72413761D01*
X87550761Y-72461380D01*
X87455523Y-72461380D01*
X88836476Y-72461380D02*
X88265047Y-72461380D01*
X88550761Y-72461380D02*
X88550761Y-71461380D01*
X88455523Y-71604238D01*
X88360285Y-71699476D01*
X88265047Y-71747095D01*
X89217428Y-71556619D02*
X89265047Y-71509000D01*
X89360285Y-71461380D01*
X89598380Y-71461380D01*
X89693619Y-71509000D01*
X89741238Y-71556619D01*
X89788857Y-71651857D01*
X89788857Y-71747095D01*
X89741238Y-71889952D01*
X89169809Y-72461380D01*
X89788857Y-72461380D01*
%TO.C,U5*%
X85369476Y-44138904D02*
X85369476Y-44786523D01*
X85407571Y-44862714D01*
X85445666Y-44900809D01*
X85521857Y-44938904D01*
X85674238Y-44938904D01*
X85750428Y-44900809D01*
X85788523Y-44862714D01*
X85826619Y-44786523D01*
X85826619Y-44138904D01*
X86588523Y-44138904D02*
X86207571Y-44138904D01*
X86169476Y-44519857D01*
X86207571Y-44481761D01*
X86283761Y-44443666D01*
X86474238Y-44443666D01*
X86550428Y-44481761D01*
X86588523Y-44519857D01*
X86626619Y-44596047D01*
X86626619Y-44786523D01*
X86588523Y-44862714D01*
X86550428Y-44900809D01*
X86474238Y-44938904D01*
X86283761Y-44938904D01*
X86207571Y-44900809D01*
X86169476Y-44862714D01*
%TO.C,GND*%
X41029000Y-75564904D02*
X40981380Y-75660142D01*
X40981380Y-75803000D01*
X41029000Y-75945857D01*
X41124238Y-76041095D01*
X41219476Y-76088714D01*
X41409952Y-76136333D01*
X41552809Y-76136333D01*
X41743285Y-76088714D01*
X41838523Y-76041095D01*
X41933761Y-75945857D01*
X41981380Y-75803000D01*
X41981380Y-75707761D01*
X41933761Y-75564904D01*
X41886142Y-75517285D01*
X41552809Y-75517285D01*
X41552809Y-75707761D01*
X41981380Y-75088714D02*
X40981380Y-75088714D01*
X41981380Y-74517285D01*
X40981380Y-74517285D01*
X41981380Y-74041095D02*
X40981380Y-74041095D01*
X40981380Y-73803000D01*
X41029000Y-73660142D01*
X41124238Y-73564904D01*
X41219476Y-73517285D01*
X41409952Y-73469666D01*
X41552809Y-73469666D01*
X41743285Y-73517285D01*
X41838523Y-73564904D01*
X41933761Y-73660142D01*
X41981380Y-73803000D01*
X41981380Y-74041095D01*
%TO.C,VCC*%
X44537380Y-76136333D02*
X45537380Y-75803000D01*
X44537380Y-75469666D01*
X45442142Y-74564904D02*
X45489761Y-74612523D01*
X45537380Y-74755380D01*
X45537380Y-74850619D01*
X45489761Y-74993476D01*
X45394523Y-75088714D01*
X45299285Y-75136333D01*
X45108809Y-75183952D01*
X44965952Y-75183952D01*
X44775476Y-75136333D01*
X44680238Y-75088714D01*
X44585000Y-74993476D01*
X44537380Y-74850619D01*
X44537380Y-74755380D01*
X44585000Y-74612523D01*
X44632619Y-74564904D01*
X45442142Y-73564904D02*
X45489761Y-73612523D01*
X45537380Y-73755380D01*
X45537380Y-73850619D01*
X45489761Y-73993476D01*
X45394523Y-74088714D01*
X45299285Y-74136333D01*
X45108809Y-74183952D01*
X44965952Y-74183952D01*
X44775476Y-74136333D01*
X44680238Y-74088714D01*
X44585000Y-73993476D01*
X44537380Y-73850619D01*
X44537380Y-73755380D01*
X44585000Y-73612523D01*
X44632619Y-73564904D01*
%TO.C,SW1*%
X78168666Y-36853761D02*
X78311523Y-36901380D01*
X78549619Y-36901380D01*
X78644857Y-36853761D01*
X78692476Y-36806142D01*
X78740095Y-36710904D01*
X78740095Y-36615666D01*
X78692476Y-36520428D01*
X78644857Y-36472809D01*
X78549619Y-36425190D01*
X78359142Y-36377571D01*
X78263904Y-36329952D01*
X78216285Y-36282333D01*
X78168666Y-36187095D01*
X78168666Y-36091857D01*
X78216285Y-35996619D01*
X78263904Y-35949000D01*
X78359142Y-35901380D01*
X78597238Y-35901380D01*
X78740095Y-35949000D01*
X79073428Y-35901380D02*
X79311523Y-36901380D01*
X79502000Y-36187095D01*
X79692476Y-36901380D01*
X79930571Y-35901380D01*
X80835333Y-36901380D02*
X80263904Y-36901380D01*
X80549619Y-36901380D02*
X80549619Y-35901380D01*
X80454380Y-36044238D01*
X80359142Y-36139476D01*
X80263904Y-36187095D01*
%TO.C,R4*%
X76320666Y-43668904D02*
X76054000Y-43287952D01*
X75863523Y-43668904D02*
X75863523Y-42868904D01*
X76168285Y-42868904D01*
X76244476Y-42907000D01*
X76282571Y-42945095D01*
X76320666Y-43021285D01*
X76320666Y-43135571D01*
X76282571Y-43211761D01*
X76244476Y-43249857D01*
X76168285Y-43287952D01*
X75863523Y-43287952D01*
X77006380Y-43135571D02*
X77006380Y-43668904D01*
X76815904Y-42830809D02*
X76625428Y-43402238D01*
X77120666Y-43402238D01*
%TO.C,U1*%
X70485095Y-44410380D02*
X70485095Y-45219904D01*
X70532714Y-45315142D01*
X70580333Y-45362761D01*
X70675571Y-45410380D01*
X70866047Y-45410380D01*
X70961285Y-45362761D01*
X71008904Y-45315142D01*
X71056523Y-45219904D01*
X71056523Y-44410380D01*
X72056523Y-45410380D02*
X71485095Y-45410380D01*
X71770809Y-45410380D02*
X71770809Y-44410380D01*
X71675571Y-44553238D01*
X71580333Y-44648476D01*
X71485095Y-44696095D01*
%TO.C,R1*%
X75636380Y-38901666D02*
X75160190Y-39235000D01*
X75636380Y-39473095D02*
X74636380Y-39473095D01*
X74636380Y-39092142D01*
X74684000Y-38996904D01*
X74731619Y-38949285D01*
X74826857Y-38901666D01*
X74969714Y-38901666D01*
X75064952Y-38949285D01*
X75112571Y-38996904D01*
X75160190Y-39092142D01*
X75160190Y-39473095D01*
X75636380Y-37949285D02*
X75636380Y-38520714D01*
X75636380Y-38235000D02*
X74636380Y-38235000D01*
X74779238Y-38330238D01*
X74874476Y-38425476D01*
X74922095Y-38520714D01*
%TO.C,C1*%
X66651142Y-40001666D02*
X66698761Y-40049285D01*
X66746380Y-40192142D01*
X66746380Y-40287380D01*
X66698761Y-40430238D01*
X66603523Y-40525476D01*
X66508285Y-40573095D01*
X66317809Y-40620714D01*
X66174952Y-40620714D01*
X65984476Y-40573095D01*
X65889238Y-40525476D01*
X65794000Y-40430238D01*
X65746380Y-40287380D01*
X65746380Y-40192142D01*
X65794000Y-40049285D01*
X65841619Y-40001666D01*
X66746380Y-39049285D02*
X66746380Y-39620714D01*
X66746380Y-39335000D02*
X65746380Y-39335000D01*
X65889238Y-39430238D01*
X65984476Y-39525476D01*
X66032095Y-39620714D01*
%TO.C,JP1*%
X63333380Y-49347333D02*
X64047666Y-49347333D01*
X64190523Y-49394952D01*
X64285761Y-49490190D01*
X64333380Y-49633047D01*
X64333380Y-49728285D01*
X64333380Y-48871142D02*
X63333380Y-48871142D01*
X63333380Y-48490190D01*
X63381000Y-48394952D01*
X63428619Y-48347333D01*
X63523857Y-48299714D01*
X63666714Y-48299714D01*
X63761952Y-48347333D01*
X63809571Y-48394952D01*
X63857190Y-48490190D01*
X63857190Y-48871142D01*
X64333380Y-47347333D02*
X64333380Y-47918761D01*
X64333380Y-47633047D02*
X63333380Y-47633047D01*
X63476238Y-47728285D01*
X63571476Y-47823523D01*
X63619095Y-47918761D01*
X65984380Y-50798285D02*
X65984380Y-51369714D01*
X65984380Y-51084000D02*
X64984380Y-51084000D01*
X65127238Y-51179238D01*
X65222476Y-51274476D01*
X65270095Y-51369714D01*
X64984380Y-46217333D02*
X64984380Y-45598285D01*
X65365333Y-45931619D01*
X65365333Y-45788761D01*
X65412952Y-45693523D01*
X65460571Y-45645904D01*
X65555809Y-45598285D01*
X65793904Y-45598285D01*
X65889142Y-45645904D01*
X65936761Y-45693523D01*
X65984380Y-45788761D01*
X65984380Y-46074476D01*
X65936761Y-46169714D01*
X65889142Y-46217333D01*
%TO.C,R2*%
X70191333Y-36647380D02*
X69858000Y-36171190D01*
X69619904Y-36647380D02*
X69619904Y-35647380D01*
X70000857Y-35647380D01*
X70096095Y-35695000D01*
X70143714Y-35742619D01*
X70191333Y-35837857D01*
X70191333Y-35980714D01*
X70143714Y-36075952D01*
X70096095Y-36123571D01*
X70000857Y-36171190D01*
X69619904Y-36171190D01*
X70572285Y-35742619D02*
X70619904Y-35695000D01*
X70715142Y-35647380D01*
X70953238Y-35647380D01*
X71048476Y-35695000D01*
X71096095Y-35742619D01*
X71143714Y-35837857D01*
X71143714Y-35933095D01*
X71096095Y-36075952D01*
X70524666Y-36647380D01*
X71143714Y-36647380D01*
%TO.C,SJ1*%
X68453142Y-73302761D02*
X68596000Y-73350380D01*
X68834095Y-73350380D01*
X68929333Y-73302761D01*
X68976952Y-73255142D01*
X69024571Y-73159904D01*
X69024571Y-73064666D01*
X68976952Y-72969428D01*
X68929333Y-72921809D01*
X68834095Y-72874190D01*
X68643619Y-72826571D01*
X68548380Y-72778952D01*
X68500761Y-72731333D01*
X68453142Y-72636095D01*
X68453142Y-72540857D01*
X68500761Y-72445619D01*
X68548380Y-72398000D01*
X68643619Y-72350380D01*
X68881714Y-72350380D01*
X69024571Y-72398000D01*
X69738857Y-72350380D02*
X69738857Y-73064666D01*
X69691238Y-73207523D01*
X69596000Y-73302761D01*
X69453142Y-73350380D01*
X69357904Y-73350380D01*
X70738857Y-73350380D02*
X70167428Y-73350380D01*
X70453142Y-73350380D02*
X70453142Y-72350380D01*
X70357904Y-72493238D01*
X70262666Y-72588476D01*
X70167428Y-72636095D01*
%TO.C,J4*%
X83406666Y-67190380D02*
X83406666Y-67904666D01*
X83359047Y-68047523D01*
X83263809Y-68142761D01*
X83120952Y-68190380D01*
X83025714Y-68190380D01*
X84311428Y-67523714D02*
X84311428Y-68190380D01*
X84073333Y-67142761D02*
X83835238Y-67857047D01*
X84454285Y-67857047D01*
%TO.C,T3*%
X82550095Y-36155380D02*
X83121523Y-36155380D01*
X82835809Y-37155380D02*
X82835809Y-36155380D01*
X83359619Y-36155380D02*
X83978666Y-36155380D01*
X83645333Y-36536333D01*
X83788190Y-36536333D01*
X83883428Y-36583952D01*
X83931047Y-36631571D01*
X83978666Y-36726809D01*
X83978666Y-36964904D01*
X83931047Y-37060142D01*
X83883428Y-37107761D01*
X83788190Y-37155380D01*
X83502476Y-37155380D01*
X83407238Y-37107761D01*
X83359619Y-37060142D01*
%TO.C,T1*%
X82550095Y-40727380D02*
X83121523Y-40727380D01*
X82835809Y-41727380D02*
X82835809Y-40727380D01*
X83978666Y-41727380D02*
X83407238Y-41727380D01*
X83692952Y-41727380D02*
X83692952Y-40727380D01*
X83597714Y-40870238D01*
X83502476Y-40965476D01*
X83407238Y-41013095D01*
%TO.C,T2*%
X82550095Y-38441380D02*
X83121523Y-38441380D01*
X82835809Y-39441380D02*
X82835809Y-38441380D01*
X83407238Y-38536619D02*
X83454857Y-38489000D01*
X83550095Y-38441380D01*
X83788190Y-38441380D01*
X83883428Y-38489000D01*
X83931047Y-38536619D01*
X83978666Y-38631857D01*
X83978666Y-38727095D01*
X83931047Y-38869952D01*
X83359619Y-39441380D01*
X83978666Y-39441380D01*
%TO.C,T4*%
X82550095Y-33869380D02*
X83121523Y-33869380D01*
X82835809Y-34869380D02*
X82835809Y-33869380D01*
X83883428Y-34202714D02*
X83883428Y-34869380D01*
X83645333Y-33821761D02*
X83407238Y-34536047D01*
X84026285Y-34536047D01*
%TO.C,T8*%
X84836095Y-54951380D02*
X85407523Y-54951380D01*
X85121809Y-55951380D02*
X85121809Y-54951380D01*
X85883714Y-55379952D02*
X85788476Y-55332333D01*
X85740857Y-55284714D01*
X85693238Y-55189476D01*
X85693238Y-55141857D01*
X85740857Y-55046619D01*
X85788476Y-54999000D01*
X85883714Y-54951380D01*
X86074190Y-54951380D01*
X86169428Y-54999000D01*
X86217047Y-55046619D01*
X86264666Y-55141857D01*
X86264666Y-55189476D01*
X86217047Y-55284714D01*
X86169428Y-55332333D01*
X86074190Y-55379952D01*
X85883714Y-55379952D01*
X85788476Y-55427571D01*
X85740857Y-55475190D01*
X85693238Y-55570428D01*
X85693238Y-55760904D01*
X85740857Y-55856142D01*
X85788476Y-55903761D01*
X85883714Y-55951380D01*
X86074190Y-55951380D01*
X86169428Y-55903761D01*
X86217047Y-55856142D01*
X86264666Y-55760904D01*
X86264666Y-55570428D01*
X86217047Y-55475190D01*
X86169428Y-55427571D01*
X86074190Y-55379952D01*
%TO.C,T7*%
X82550095Y-54951380D02*
X83121523Y-54951380D01*
X82835809Y-55951380D02*
X82835809Y-54951380D01*
X83359619Y-54951380D02*
X84026285Y-54951380D01*
X83597714Y-55951380D01*
%TO.C,T6*%
X73279095Y-54824380D02*
X73850523Y-54824380D01*
X73564809Y-55824380D02*
X73564809Y-54824380D01*
X74612428Y-54824380D02*
X74421952Y-54824380D01*
X74326714Y-54872000D01*
X74279095Y-54919619D01*
X74183857Y-55062476D01*
X74136238Y-55252952D01*
X74136238Y-55633904D01*
X74183857Y-55729142D01*
X74231476Y-55776761D01*
X74326714Y-55824380D01*
X74517190Y-55824380D01*
X74612428Y-55776761D01*
X74660047Y-55729142D01*
X74707666Y-55633904D01*
X74707666Y-55395809D01*
X74660047Y-55300571D01*
X74612428Y-55252952D01*
X74517190Y-55205333D01*
X74326714Y-55205333D01*
X74231476Y-55252952D01*
X74183857Y-55300571D01*
X74136238Y-55395809D01*
%TO.C,T5*%
X73279095Y-52665380D02*
X73850523Y-52665380D01*
X73564809Y-53665380D02*
X73564809Y-52665380D01*
X74660047Y-52665380D02*
X74183857Y-52665380D01*
X74136238Y-53141571D01*
X74183857Y-53093952D01*
X74279095Y-53046333D01*
X74517190Y-53046333D01*
X74612428Y-53093952D01*
X74660047Y-53141571D01*
X74707666Y-53236809D01*
X74707666Y-53474904D01*
X74660047Y-53570142D01*
X74612428Y-53617761D01*
X74517190Y-53665380D01*
X74279095Y-53665380D01*
X74183857Y-53617761D01*
X74136238Y-53570142D01*
%TO.C,J5*%
X65732666Y-67190380D02*
X65732666Y-67904666D01*
X65685047Y-68047523D01*
X65589809Y-68142761D01*
X65446952Y-68190380D01*
X65351714Y-68190380D01*
X66685047Y-67190380D02*
X66208857Y-67190380D01*
X66161238Y-67666571D01*
X66208857Y-67618952D01*
X66304095Y-67571333D01*
X66542190Y-67571333D01*
X66637428Y-67618952D01*
X66685047Y-67666571D01*
X66732666Y-67761809D01*
X66732666Y-67999904D01*
X66685047Y-68095142D01*
X66637428Y-68142761D01*
X66542190Y-68190380D01*
X66304095Y-68190380D01*
X66208857Y-68142761D01*
X66161238Y-68095142D01*
%TO.C,C3*%
X74542666Y-51847714D02*
X74504571Y-51885809D01*
X74390285Y-51923904D01*
X74314095Y-51923904D01*
X74199809Y-51885809D01*
X74123619Y-51809619D01*
X74085523Y-51733428D01*
X74047428Y-51581047D01*
X74047428Y-51466761D01*
X74085523Y-51314380D01*
X74123619Y-51238190D01*
X74199809Y-51162000D01*
X74314095Y-51123904D01*
X74390285Y-51123904D01*
X74504571Y-51162000D01*
X74542666Y-51200095D01*
X74809333Y-51123904D02*
X75304571Y-51123904D01*
X75037904Y-51428666D01*
X75152190Y-51428666D01*
X75228380Y-51466761D01*
X75266476Y-51504857D01*
X75304571Y-51581047D01*
X75304571Y-51771523D01*
X75266476Y-51847714D01*
X75228380Y-51885809D01*
X75152190Y-51923904D01*
X74923619Y-51923904D01*
X74847428Y-51885809D01*
X74809333Y-51847714D01*
%TO.C,Q1*%
X87288619Y-69818238D02*
X87241000Y-69913476D01*
X87145761Y-70008714D01*
X87002904Y-70151571D01*
X86955285Y-70246809D01*
X86955285Y-70342047D01*
X87193380Y-70294428D02*
X87145761Y-70389666D01*
X87050523Y-70484904D01*
X86860047Y-70532523D01*
X86526714Y-70532523D01*
X86336238Y-70484904D01*
X86241000Y-70389666D01*
X86193380Y-70294428D01*
X86193380Y-70103952D01*
X86241000Y-70008714D01*
X86336238Y-69913476D01*
X86526714Y-69865857D01*
X86860047Y-69865857D01*
X87050523Y-69913476D01*
X87145761Y-70008714D01*
X87193380Y-70103952D01*
X87193380Y-70294428D01*
X87193380Y-68913476D02*
X87193380Y-69484904D01*
X87193380Y-69199190D02*
X86193380Y-69199190D01*
X86336238Y-69294428D01*
X86431476Y-69389666D01*
X86479095Y-69484904D01*
%TO.C,R3*%
X88987333Y-65730380D02*
X88654000Y-65254190D01*
X88415904Y-65730380D02*
X88415904Y-64730380D01*
X88796857Y-64730380D01*
X88892095Y-64778000D01*
X88939714Y-64825619D01*
X88987333Y-64920857D01*
X88987333Y-65063714D01*
X88939714Y-65158952D01*
X88892095Y-65206571D01*
X88796857Y-65254190D01*
X88415904Y-65254190D01*
X89320666Y-64730380D02*
X89939714Y-64730380D01*
X89606380Y-65111333D01*
X89749238Y-65111333D01*
X89844476Y-65158952D01*
X89892095Y-65206571D01*
X89939714Y-65301809D01*
X89939714Y-65539904D01*
X89892095Y-65635142D01*
X89844476Y-65682761D01*
X89749238Y-65730380D01*
X89463523Y-65730380D01*
X89368285Y-65682761D01*
X89320666Y-65635142D01*
%TO.C,J3*%
X63446666Y-52690380D02*
X63446666Y-53404666D01*
X63399047Y-53547523D01*
X63303809Y-53642761D01*
X63160952Y-53690380D01*
X63065714Y-53690380D01*
X63827619Y-52690380D02*
X64446666Y-52690380D01*
X64113333Y-53071333D01*
X64256190Y-53071333D01*
X64351428Y-53118952D01*
X64399047Y-53166571D01*
X64446666Y-53261809D01*
X64446666Y-53499904D01*
X64399047Y-53595142D01*
X64351428Y-53642761D01*
X64256190Y-53690380D01*
X63970476Y-53690380D01*
X63875238Y-53642761D01*
X63827619Y-53595142D01*
%TO.C,J1*%
X88693666Y-73366380D02*
X88693666Y-74080666D01*
X88646047Y-74223523D01*
X88550809Y-74318761D01*
X88407952Y-74366380D01*
X88312714Y-74366380D01*
X89693666Y-74366380D02*
X89122238Y-74366380D01*
X89407952Y-74366380D02*
X89407952Y-73366380D01*
X89312714Y-73509238D01*
X89217476Y-73604476D01*
X89122238Y-73652095D01*
%TO.C,J11*%
X67516476Y-53808380D02*
X67516476Y-54522666D01*
X67468857Y-54665523D01*
X67373619Y-54760761D01*
X67230761Y-54808380D01*
X67135523Y-54808380D01*
X68516476Y-54808380D02*
X67945047Y-54808380D01*
X68230761Y-54808380D02*
X68230761Y-53808380D01*
X68135523Y-53951238D01*
X68040285Y-54046476D01*
X67945047Y-54094095D01*
X69468857Y-54808380D02*
X68897428Y-54808380D01*
X69183142Y-54808380D02*
X69183142Y-53808380D01*
X69087904Y-53951238D01*
X68992666Y-54046476D01*
X68897428Y-54094095D01*
%TO.C,C2*%
X73239333Y-45569142D02*
X73191714Y-45616761D01*
X73048857Y-45664380D01*
X72953619Y-45664380D01*
X72810761Y-45616761D01*
X72715523Y-45521523D01*
X72667904Y-45426285D01*
X72620285Y-45235809D01*
X72620285Y-45092952D01*
X72667904Y-44902476D01*
X72715523Y-44807238D01*
X72810761Y-44712000D01*
X72953619Y-44664380D01*
X73048857Y-44664380D01*
X73191714Y-44712000D01*
X73239333Y-44759619D01*
X73620285Y-44759619D02*
X73667904Y-44712000D01*
X73763142Y-44664380D01*
X74001238Y-44664380D01*
X74096476Y-44712000D01*
X74144095Y-44759619D01*
X74191714Y-44854857D01*
X74191714Y-44950095D01*
X74144095Y-45092952D01*
X73572666Y-45664380D01*
X74191714Y-45664380D01*
%TO.C,J2*%
X62404666Y-38187380D02*
X62404666Y-38901666D01*
X62357047Y-39044523D01*
X62261809Y-39139761D01*
X62118952Y-39187380D01*
X62023714Y-39187380D01*
X62833238Y-38282619D02*
X62880857Y-38235000D01*
X62976095Y-38187380D01*
X63214190Y-38187380D01*
X63309428Y-38235000D01*
X63357047Y-38282619D01*
X63404666Y-38377857D01*
X63404666Y-38473095D01*
X63357047Y-38615952D01*
X62785619Y-39187380D01*
X63404666Y-39187380D01*
%TO.C,U2*%
X65180380Y-61402904D02*
X65989904Y-61402904D01*
X66085142Y-61355285D01*
X66132761Y-61307666D01*
X66180380Y-61212428D01*
X66180380Y-61021952D01*
X66132761Y-60926714D01*
X66085142Y-60879095D01*
X65989904Y-60831476D01*
X65180380Y-60831476D01*
X65275619Y-60402904D02*
X65228000Y-60355285D01*
X65180380Y-60260047D01*
X65180380Y-60021952D01*
X65228000Y-59926714D01*
X65275619Y-59879095D01*
X65370857Y-59831476D01*
X65466095Y-59831476D01*
X65608952Y-59879095D01*
X66180380Y-60450523D01*
X66180380Y-59831476D01*
%TO.C,U3*%
X84709095Y-64730380D02*
X84709095Y-65539904D01*
X84756714Y-65635142D01*
X84804333Y-65682761D01*
X84899571Y-65730380D01*
X85090047Y-65730380D01*
X85185285Y-65682761D01*
X85232904Y-65635142D01*
X85280523Y-65539904D01*
X85280523Y-64730380D01*
X85661476Y-64730380D02*
X86280523Y-64730380D01*
X85947190Y-65111333D01*
X86090047Y-65111333D01*
X86185285Y-65158952D01*
X86232904Y-65206571D01*
X86280523Y-65301809D01*
X86280523Y-65539904D01*
X86232904Y-65635142D01*
X86185285Y-65682761D01*
X86090047Y-65730380D01*
X85804333Y-65730380D01*
X85709095Y-65682761D01*
X85661476Y-65635142D01*
%TD*%
M02*
