%TF.GenerationSoftware,KiCad,Pcbnew,(5.1.8)-1*%
%TF.CreationDate,2021-01-10T00:46:59-06:00*%
%TF.ProjectId,GBAHD_Shield,47424148-445f-4536-9869-656c642e6b69,rev?*%
%TF.SameCoordinates,Original*%
%TF.FileFunction,Copper,L1,Top*%
%TF.FilePolarity,Positive*%
%FSLAX46Y46*%
G04 Gerber Fmt 4.6, Leading zero omitted, Abs format (unit mm)*
G04 Created by KiCad (PCBNEW (5.1.8)-1) date 2021-01-10 00:46:59*
%MOMM*%
%LPD*%
G01*
G04 APERTURE LIST*
%TA.AperFunction,EtchedComponent*%
%ADD10C,0.010000*%
%TD*%
%TA.AperFunction,SMDPad,CuDef*%
%ADD11C,0.100000*%
%TD*%
%TA.AperFunction,ComponentPad*%
%ADD12C,2.500000*%
%TD*%
%TA.AperFunction,SMDPad,CuDef*%
%ADD13R,2.000000X2.000000*%
%TD*%
%TA.AperFunction,SMDPad,CuDef*%
%ADD14R,0.600000X0.420000*%
%TD*%
%TA.AperFunction,SMDPad,CuDef*%
%ADD15R,2.500000X1.800000*%
%TD*%
%TA.AperFunction,SMDPad,CuDef*%
%ADD16R,0.300000X1.300000*%
%TD*%
%TA.AperFunction,SMDPad,CuDef*%
%ADD17R,2.000000X3.000000*%
%TD*%
%TA.AperFunction,SMDPad,CuDef*%
%ADD18R,1.600000X0.550000*%
%TD*%
%TA.AperFunction,SMDPad,CuDef*%
%ADD19R,0.550000X1.600000*%
%TD*%
%TA.AperFunction,SMDPad,CuDef*%
%ADD20R,1.250000X0.900000*%
%TD*%
%TA.AperFunction,ComponentPad*%
%ADD21O,1.700000X1.700000*%
%TD*%
%TA.AperFunction,ComponentPad*%
%ADD22R,1.700000X1.700000*%
%TD*%
%TA.AperFunction,ViaPad*%
%ADD23C,0.800000*%
%TD*%
%TA.AperFunction,Conductor*%
%ADD24C,0.200000*%
%TD*%
%TA.AperFunction,Conductor*%
%ADD25C,0.250000*%
%TD*%
%TA.AperFunction,Conductor*%
%ADD26C,0.254000*%
%TD*%
%TA.AperFunction,Conductor*%
%ADD27C,0.100000*%
%TD*%
G04 APERTURE END LIST*
D10*
%TO.C,G\u002A\u002A\u002A*%
G36*
X46441456Y-54671483D02*
G01*
X46446855Y-54604682D01*
X46458998Y-54550902D01*
X46480239Y-54497145D01*
X46494082Y-54468094D01*
X46577384Y-54340971D01*
X46692006Y-54235483D01*
X46838331Y-54151440D01*
X47016745Y-54088654D01*
X47227633Y-54046934D01*
X47383238Y-54030958D01*
X47582769Y-54016812D01*
X47582769Y-55506769D01*
X47448559Y-55506769D01*
X47307939Y-55499364D01*
X47159193Y-55478904D01*
X47015943Y-55448027D01*
X46891806Y-55409368D01*
X46845713Y-55390090D01*
X46720569Y-55317053D01*
X46610609Y-55224429D01*
X46524828Y-55120687D01*
X46486512Y-55051792D01*
X46463228Y-54991253D01*
X46449181Y-54929318D01*
X46442277Y-54852911D01*
X46440449Y-54764308D01*
X46441456Y-54671483D01*
G37*
X46441456Y-54671483D02*
X46446855Y-54604682D01*
X46458998Y-54550902D01*
X46480239Y-54497145D01*
X46494082Y-54468094D01*
X46577384Y-54340971D01*
X46692006Y-54235483D01*
X46838331Y-54151440D01*
X47016745Y-54088654D01*
X47227633Y-54046934D01*
X47383238Y-54030958D01*
X47582769Y-54016812D01*
X47582769Y-55506769D01*
X47448559Y-55506769D01*
X47307939Y-55499364D01*
X47159193Y-55478904D01*
X47015943Y-55448027D01*
X46891806Y-55409368D01*
X46845713Y-55390090D01*
X46720569Y-55317053D01*
X46610609Y-55224429D01*
X46524828Y-55120687D01*
X46486512Y-55051792D01*
X46463228Y-54991253D01*
X46449181Y-54929318D01*
X46442277Y-54852911D01*
X46440449Y-54764308D01*
X46441456Y-54671483D01*
G36*
X47582769Y-38586462D02*
G01*
X47582769Y-40325385D01*
X49302154Y-40325385D01*
X49302154Y-41028769D01*
X47582769Y-41028769D01*
X47582769Y-42533231D01*
X47817231Y-42533231D01*
X47817231Y-43881385D01*
X48755077Y-43881385D01*
X48755077Y-42298769D01*
X49302154Y-42298769D01*
X49302154Y-44584769D01*
X47582769Y-44584769D01*
X47582769Y-45546026D01*
X47669440Y-45431744D01*
X47791212Y-45294429D01*
X47923555Y-45192152D01*
X48070770Y-45122956D01*
X48237158Y-45084886D01*
X48427019Y-45075984D01*
X48449878Y-45076715D01*
X48609439Y-45092542D01*
X48744566Y-45128901D01*
X48866180Y-45189679D01*
X48961489Y-45258831D01*
X49075004Y-45375905D01*
X49169038Y-45521974D01*
X49243007Y-45691829D01*
X49296330Y-45880264D01*
X49328424Y-46082071D01*
X49338706Y-46292042D01*
X49326594Y-46504968D01*
X49291506Y-46715643D01*
X49232858Y-46918859D01*
X49165136Y-47079630D01*
X49056386Y-47261301D01*
X48924338Y-47412410D01*
X48770491Y-47531869D01*
X48596338Y-47618587D01*
X48403378Y-47671475D01*
X48339438Y-47680895D01*
X48226646Y-47694308D01*
X48231977Y-47336269D01*
X48237308Y-46978231D01*
X48336433Y-46966131D01*
X48467815Y-46935147D01*
X48575634Y-46875571D01*
X48647603Y-46806872D01*
X48705790Y-46725996D01*
X48746166Y-46636415D01*
X48771015Y-46529896D01*
X48782616Y-46398204D01*
X48784176Y-46313923D01*
X48783410Y-46215717D01*
X48779646Y-46145488D01*
X48771023Y-46092153D01*
X48755678Y-46044628D01*
X48731751Y-45991831D01*
X48729204Y-45986628D01*
X48662182Y-45884081D01*
X48577960Y-45816237D01*
X48474544Y-45781796D01*
X48405925Y-45776615D01*
X48319366Y-45782661D01*
X48244052Y-45803029D01*
X48177266Y-45841066D01*
X48116289Y-45900119D01*
X48058405Y-45983535D01*
X48000897Y-46094661D01*
X47941046Y-46236844D01*
X47876135Y-46413431D01*
X47866547Y-46440923D01*
X47823538Y-46558813D01*
X47774118Y-46684716D01*
X47724397Y-46803548D01*
X47680557Y-46900077D01*
X47586082Y-47095462D01*
X47583449Y-46323692D01*
X47580816Y-45551923D01*
X47503053Y-45704039D01*
X47469081Y-45777105D01*
X47427567Y-45876516D01*
X47382826Y-45991381D01*
X47339174Y-46110811D01*
X47320610Y-46164395D01*
X47255936Y-46346765D01*
X47196868Y-46494751D01*
X47141193Y-46612255D01*
X47086698Y-46703178D01*
X47031170Y-46771424D01*
X46972397Y-46820895D01*
X46936070Y-46842460D01*
X46854287Y-46866125D01*
X46756502Y-46866244D01*
X46657522Y-46843309D01*
X46630514Y-46832328D01*
X46547020Y-46774101D01*
X46480835Y-46687597D01*
X46432657Y-46579909D01*
X46403182Y-46458129D01*
X46393107Y-46329351D01*
X46403130Y-46200666D01*
X46433946Y-46079169D01*
X46486253Y-45971951D01*
X46539476Y-45905704D01*
X46624269Y-45840773D01*
X46723085Y-45795548D01*
X46820102Y-45777142D01*
X46825654Y-45777045D01*
X46898923Y-45776615D01*
X46898923Y-45073231D01*
X46796346Y-45073643D01*
X46692187Y-45085753D01*
X46573520Y-45117890D01*
X46455695Y-45164870D01*
X46354061Y-45221510D01*
X46349764Y-45224445D01*
X46199377Y-45351550D01*
X46071354Y-45508319D01*
X45968478Y-45690596D01*
X45893531Y-45894229D01*
X45888271Y-45913385D01*
X45882923Y-45942204D01*
X45882923Y-44584769D01*
X47582769Y-44584769D01*
X47582769Y-42533231D01*
X47270154Y-42533231D01*
X47270154Y-43881385D01*
X46449539Y-43881385D01*
X46449539Y-42298769D01*
X45882923Y-42298769D01*
X45882923Y-42064308D01*
X46449539Y-42064308D01*
X46449539Y-41028769D01*
X47582769Y-41028769D01*
X47582769Y-40325385D01*
X46449539Y-40325385D01*
X46449539Y-39289846D01*
X45882923Y-39289846D01*
X45882923Y-42064308D01*
X45882923Y-42298769D01*
X45882923Y-44584769D01*
X45882923Y-45942204D01*
X45869128Y-46016545D01*
X45857503Y-46146714D01*
X45853267Y-46292580D01*
X45856294Y-46442830D01*
X45866454Y-46586151D01*
X45883620Y-46711231D01*
X45898017Y-46775727D01*
X45971070Y-46985180D01*
X46067351Y-47165295D01*
X46186025Y-47314938D01*
X46326253Y-47432975D01*
X46425966Y-47490936D01*
X46491280Y-47522495D01*
X46542350Y-47543367D01*
X46590350Y-47555712D01*
X46646453Y-47561689D01*
X46721830Y-47563461D01*
X46800285Y-47563317D01*
X46905429Y-47561660D01*
X46981836Y-47556890D01*
X47039810Y-47547570D01*
X47089654Y-47532259D01*
X47122945Y-47518244D01*
X47279994Y-47426777D01*
X47420903Y-47304374D01*
X47496542Y-47215641D01*
X47582769Y-47101359D01*
X47582769Y-48121231D01*
X47875846Y-48121231D01*
X47875846Y-49469385D01*
X49302154Y-49469385D01*
X49302154Y-50172769D01*
X47582769Y-50172769D01*
X47582769Y-50758923D01*
X47875846Y-50758923D01*
X47875846Y-52107077D01*
X49302154Y-52107077D01*
X49302154Y-52810462D01*
X47582769Y-52810462D01*
X47582769Y-53313011D01*
X47362962Y-53323658D01*
X47095591Y-53351725D01*
X46852813Y-53409293D01*
X46632718Y-53497141D01*
X46433400Y-53616052D01*
X46252952Y-53766804D01*
X46233755Y-53785783D01*
X46090333Y-53954333D01*
X45981088Y-54138358D01*
X45904887Y-54340512D01*
X45882923Y-54451079D01*
X45882923Y-52810462D01*
X47582769Y-52810462D01*
X47582769Y-50758923D01*
X47328769Y-50758923D01*
X47328769Y-52107077D01*
X46449539Y-52107077D01*
X46449539Y-50583077D01*
X45882923Y-50583077D01*
X45882923Y-50172769D01*
X47582769Y-50172769D01*
X47582769Y-48121231D01*
X47328769Y-48121231D01*
X47328769Y-49469385D01*
X46449539Y-49469385D01*
X46449539Y-47945385D01*
X45882923Y-47945385D01*
X45882923Y-50172769D01*
X45882923Y-50583077D01*
X45882923Y-52810462D01*
X45882923Y-54451079D01*
X45860601Y-54563449D01*
X45849931Y-54686154D01*
X45854515Y-54931243D01*
X45894309Y-55160583D01*
X45968029Y-55372404D01*
X46074394Y-55564935D01*
X46212122Y-55736406D01*
X46379930Y-55885046D01*
X46576538Y-56009084D01*
X46800662Y-56106752D01*
X46902306Y-56139371D01*
X47015116Y-56167034D01*
X47148789Y-56192110D01*
X47288295Y-56212379D01*
X47418603Y-56225619D01*
X47513615Y-56229692D01*
X47582769Y-56229692D01*
X47582769Y-55512576D01*
X47802577Y-55500913D01*
X48029123Y-55476549D01*
X48226543Y-55429320D01*
X48394063Y-55359677D01*
X48530908Y-55268071D01*
X48636302Y-55154955D01*
X48709470Y-55020779D01*
X48729727Y-54960658D01*
X48748251Y-54846914D01*
X48747691Y-54717560D01*
X48729432Y-54588933D01*
X48694858Y-54477370D01*
X48687370Y-54461098D01*
X48604955Y-54336056D01*
X48490306Y-54232149D01*
X48343226Y-54149283D01*
X48163521Y-54087364D01*
X47950996Y-54046299D01*
X47790611Y-54030436D01*
X47582769Y-54016513D01*
X47582769Y-53318462D01*
X47746287Y-53318462D01*
X47981509Y-53333899D01*
X48217338Y-53378336D01*
X48442524Y-53448956D01*
X48645817Y-53542947D01*
X48647615Y-53543948D01*
X48835477Y-53670323D01*
X48998177Y-53824541D01*
X49132608Y-54002643D01*
X49235659Y-54200668D01*
X49291542Y-54363769D01*
X49305120Y-54433474D01*
X49316922Y-54529674D01*
X49326266Y-54640830D01*
X49332468Y-54755407D01*
X49334844Y-54861868D01*
X49332710Y-54948674D01*
X49328596Y-54989000D01*
X49272797Y-55222319D01*
X49184353Y-55434942D01*
X49064285Y-55625436D01*
X48913614Y-55792367D01*
X48733364Y-55934302D01*
X48597805Y-56014051D01*
X48400411Y-56100488D01*
X48183175Y-56163649D01*
X47940203Y-56205104D01*
X47841654Y-56215338D01*
X47582769Y-56238072D01*
X47582769Y-56913538D01*
X45687539Y-56913538D01*
X45687539Y-38586462D01*
X47582769Y-38586462D01*
G37*
X47582769Y-38586462D02*
X47582769Y-40325385D01*
X49302154Y-40325385D01*
X49302154Y-41028769D01*
X47582769Y-41028769D01*
X47582769Y-42533231D01*
X47817231Y-42533231D01*
X47817231Y-43881385D01*
X48755077Y-43881385D01*
X48755077Y-42298769D01*
X49302154Y-42298769D01*
X49302154Y-44584769D01*
X47582769Y-44584769D01*
X47582769Y-45546026D01*
X47669440Y-45431744D01*
X47791212Y-45294429D01*
X47923555Y-45192152D01*
X48070770Y-45122956D01*
X48237158Y-45084886D01*
X48427019Y-45075984D01*
X48449878Y-45076715D01*
X48609439Y-45092542D01*
X48744566Y-45128901D01*
X48866180Y-45189679D01*
X48961489Y-45258831D01*
X49075004Y-45375905D01*
X49169038Y-45521974D01*
X49243007Y-45691829D01*
X49296330Y-45880264D01*
X49328424Y-46082071D01*
X49338706Y-46292042D01*
X49326594Y-46504968D01*
X49291506Y-46715643D01*
X49232858Y-46918859D01*
X49165136Y-47079630D01*
X49056386Y-47261301D01*
X48924338Y-47412410D01*
X48770491Y-47531869D01*
X48596338Y-47618587D01*
X48403378Y-47671475D01*
X48339438Y-47680895D01*
X48226646Y-47694308D01*
X48231977Y-47336269D01*
X48237308Y-46978231D01*
X48336433Y-46966131D01*
X48467815Y-46935147D01*
X48575634Y-46875571D01*
X48647603Y-46806872D01*
X48705790Y-46725996D01*
X48746166Y-46636415D01*
X48771015Y-46529896D01*
X48782616Y-46398204D01*
X48784176Y-46313923D01*
X48783410Y-46215717D01*
X48779646Y-46145488D01*
X48771023Y-46092153D01*
X48755678Y-46044628D01*
X48731751Y-45991831D01*
X48729204Y-45986628D01*
X48662182Y-45884081D01*
X48577960Y-45816237D01*
X48474544Y-45781796D01*
X48405925Y-45776615D01*
X48319366Y-45782661D01*
X48244052Y-45803029D01*
X48177266Y-45841066D01*
X48116289Y-45900119D01*
X48058405Y-45983535D01*
X48000897Y-46094661D01*
X47941046Y-46236844D01*
X47876135Y-46413431D01*
X47866547Y-46440923D01*
X47823538Y-46558813D01*
X47774118Y-46684716D01*
X47724397Y-46803548D01*
X47680557Y-46900077D01*
X47586082Y-47095462D01*
X47583449Y-46323692D01*
X47580816Y-45551923D01*
X47503053Y-45704039D01*
X47469081Y-45777105D01*
X47427567Y-45876516D01*
X47382826Y-45991381D01*
X47339174Y-46110811D01*
X47320610Y-46164395D01*
X47255936Y-46346765D01*
X47196868Y-46494751D01*
X47141193Y-46612255D01*
X47086698Y-46703178D01*
X47031170Y-46771424D01*
X46972397Y-46820895D01*
X46936070Y-46842460D01*
X46854287Y-46866125D01*
X46756502Y-46866244D01*
X46657522Y-46843309D01*
X46630514Y-46832328D01*
X46547020Y-46774101D01*
X46480835Y-46687597D01*
X46432657Y-46579909D01*
X46403182Y-46458129D01*
X46393107Y-46329351D01*
X46403130Y-46200666D01*
X46433946Y-46079169D01*
X46486253Y-45971951D01*
X46539476Y-45905704D01*
X46624269Y-45840773D01*
X46723085Y-45795548D01*
X46820102Y-45777142D01*
X46825654Y-45777045D01*
X46898923Y-45776615D01*
X46898923Y-45073231D01*
X46796346Y-45073643D01*
X46692187Y-45085753D01*
X46573520Y-45117890D01*
X46455695Y-45164870D01*
X46354061Y-45221510D01*
X46349764Y-45224445D01*
X46199377Y-45351550D01*
X46071354Y-45508319D01*
X45968478Y-45690596D01*
X45893531Y-45894229D01*
X45888271Y-45913385D01*
X45882923Y-45942204D01*
X45882923Y-44584769D01*
X47582769Y-44584769D01*
X47582769Y-42533231D01*
X47270154Y-42533231D01*
X47270154Y-43881385D01*
X46449539Y-43881385D01*
X46449539Y-42298769D01*
X45882923Y-42298769D01*
X45882923Y-42064308D01*
X46449539Y-42064308D01*
X46449539Y-41028769D01*
X47582769Y-41028769D01*
X47582769Y-40325385D01*
X46449539Y-40325385D01*
X46449539Y-39289846D01*
X45882923Y-39289846D01*
X45882923Y-42064308D01*
X45882923Y-42298769D01*
X45882923Y-44584769D01*
X45882923Y-45942204D01*
X45869128Y-46016545D01*
X45857503Y-46146714D01*
X45853267Y-46292580D01*
X45856294Y-46442830D01*
X45866454Y-46586151D01*
X45883620Y-46711231D01*
X45898017Y-46775727D01*
X45971070Y-46985180D01*
X46067351Y-47165295D01*
X46186025Y-47314938D01*
X46326253Y-47432975D01*
X46425966Y-47490936D01*
X46491280Y-47522495D01*
X46542350Y-47543367D01*
X46590350Y-47555712D01*
X46646453Y-47561689D01*
X46721830Y-47563461D01*
X46800285Y-47563317D01*
X46905429Y-47561660D01*
X46981836Y-47556890D01*
X47039810Y-47547570D01*
X47089654Y-47532259D01*
X47122945Y-47518244D01*
X47279994Y-47426777D01*
X47420903Y-47304374D01*
X47496542Y-47215641D01*
X47582769Y-47101359D01*
X47582769Y-48121231D01*
X47875846Y-48121231D01*
X47875846Y-49469385D01*
X49302154Y-49469385D01*
X49302154Y-50172769D01*
X47582769Y-50172769D01*
X47582769Y-50758923D01*
X47875846Y-50758923D01*
X47875846Y-52107077D01*
X49302154Y-52107077D01*
X49302154Y-52810462D01*
X47582769Y-52810462D01*
X47582769Y-53313011D01*
X47362962Y-53323658D01*
X47095591Y-53351725D01*
X46852813Y-53409293D01*
X46632718Y-53497141D01*
X46433400Y-53616052D01*
X46252952Y-53766804D01*
X46233755Y-53785783D01*
X46090333Y-53954333D01*
X45981088Y-54138358D01*
X45904887Y-54340512D01*
X45882923Y-54451079D01*
X45882923Y-52810462D01*
X47582769Y-52810462D01*
X47582769Y-50758923D01*
X47328769Y-50758923D01*
X47328769Y-52107077D01*
X46449539Y-52107077D01*
X46449539Y-50583077D01*
X45882923Y-50583077D01*
X45882923Y-50172769D01*
X47582769Y-50172769D01*
X47582769Y-48121231D01*
X47328769Y-48121231D01*
X47328769Y-49469385D01*
X46449539Y-49469385D01*
X46449539Y-47945385D01*
X45882923Y-47945385D01*
X45882923Y-50172769D01*
X45882923Y-50583077D01*
X45882923Y-52810462D01*
X45882923Y-54451079D01*
X45860601Y-54563449D01*
X45849931Y-54686154D01*
X45854515Y-54931243D01*
X45894309Y-55160583D01*
X45968029Y-55372404D01*
X46074394Y-55564935D01*
X46212122Y-55736406D01*
X46379930Y-55885046D01*
X46576538Y-56009084D01*
X46800662Y-56106752D01*
X46902306Y-56139371D01*
X47015116Y-56167034D01*
X47148789Y-56192110D01*
X47288295Y-56212379D01*
X47418603Y-56225619D01*
X47513615Y-56229692D01*
X47582769Y-56229692D01*
X47582769Y-55512576D01*
X47802577Y-55500913D01*
X48029123Y-55476549D01*
X48226543Y-55429320D01*
X48394063Y-55359677D01*
X48530908Y-55268071D01*
X48636302Y-55154955D01*
X48709470Y-55020779D01*
X48729727Y-54960658D01*
X48748251Y-54846914D01*
X48747691Y-54717560D01*
X48729432Y-54588933D01*
X48694858Y-54477370D01*
X48687370Y-54461098D01*
X48604955Y-54336056D01*
X48490306Y-54232149D01*
X48343226Y-54149283D01*
X48163521Y-54087364D01*
X47950996Y-54046299D01*
X47790611Y-54030436D01*
X47582769Y-54016513D01*
X47582769Y-53318462D01*
X47746287Y-53318462D01*
X47981509Y-53333899D01*
X48217338Y-53378336D01*
X48442524Y-53448956D01*
X48645817Y-53542947D01*
X48647615Y-53543948D01*
X48835477Y-53670323D01*
X48998177Y-53824541D01*
X49132608Y-54002643D01*
X49235659Y-54200668D01*
X49291542Y-54363769D01*
X49305120Y-54433474D01*
X49316922Y-54529674D01*
X49326266Y-54640830D01*
X49332468Y-54755407D01*
X49334844Y-54861868D01*
X49332710Y-54948674D01*
X49328596Y-54989000D01*
X49272797Y-55222319D01*
X49184353Y-55434942D01*
X49064285Y-55625436D01*
X48913614Y-55792367D01*
X48733364Y-55934302D01*
X48597805Y-56014051D01*
X48400411Y-56100488D01*
X48183175Y-56163649D01*
X47940203Y-56205104D01*
X47841654Y-56215338D01*
X47582769Y-56238072D01*
X47582769Y-56913538D01*
X45687539Y-56913538D01*
X45687539Y-38586462D01*
X47582769Y-38586462D01*
%TD*%
%TA.AperFunction,SMDPad,CuDef*%
D11*
%TO.P,X1,4*%
%TO.N,GND*%
G36*
X81868016Y-54281569D02*
G01*
X81019488Y-55130097D01*
X80029538Y-54140147D01*
X80878066Y-53291619D01*
X81868016Y-54281569D01*
G37*
%TD.AperFunction*%
%TA.AperFunction,SMDPad,CuDef*%
%TO.P,X1,3*%
%TO.N,Net-(C1-Pad2)*%
G36*
X80312381Y-52725934D02*
G01*
X79463853Y-53574462D01*
X78473903Y-52584512D01*
X79322431Y-51735984D01*
X80312381Y-52725934D01*
G37*
%TD.AperFunction*%
%TA.AperFunction,SMDPad,CuDef*%
%TO.P,X1,2*%
%TO.N,GND*%
G36*
X81514462Y-51523853D02*
G01*
X80665934Y-52372381D01*
X79675984Y-51382431D01*
X80524512Y-50533903D01*
X81514462Y-51523853D01*
G37*
%TD.AperFunction*%
%TA.AperFunction,SMDPad,CuDef*%
%TO.P,X1,1*%
%TO.N,Net-(C2-Pad2)*%
G36*
X83070097Y-53079488D02*
G01*
X82221569Y-53928016D01*
X81231619Y-52938066D01*
X82080147Y-52089538D01*
X83070097Y-53079488D01*
G37*
%TD.AperFunction*%
%TD*%
D12*
%TO.P,U1,1*%
%TO.N,SP_3V3*%
X90492000Y-61881000D03*
%TO.P,U1,2*%
%TO.N,SNS_CLK*%
X90492000Y-57881000D03*
%TO.P,U1,3*%
%TO.N,SNS_LATCH*%
X90492000Y-53881000D03*
%TO.P,U1,4*%
%TO.N,SNS_DATA*%
X90492000Y-49881000D03*
%TO.P,U1,5*%
%TO.N,N/C*%
X90492000Y-43381000D03*
%TO.P,U1,6*%
X90492000Y-39381000D03*
%TO.P,U1,7*%
%TO.N,GND*%
X90492000Y-35381000D03*
%TD*%
D13*
%TO.P,J7,1*%
%TO.N,Net-(J3-Pad15)*%
X87122000Y-62380000D03*
%TD*%
D14*
%TO.P,U3,3*%
%TO.N,Net-(U3-Pad3)*%
X64800000Y-48400000D03*
%TO.P,U3,2*%
%TO.N,GND*%
X64800000Y-47750000D03*
%TO.P,U3,1*%
%TO.N,SP_3V3*%
X64800000Y-47100000D03*
%TO.P,U3,4*%
%TO.N,GBA_VCC*%
X66700000Y-48400000D03*
%TO.P,U3,5*%
%TO.N,SP_3V3*%
X66700000Y-47750000D03*
%TO.P,U3,6*%
%TO.N,GBA_POWER_SEL*%
X66700000Y-47100000D03*
%TD*%
%TA.AperFunction,SMDPad,CuDef*%
D11*
%TO.P,SJ1,1*%
%TO.N,GBA_VCC*%
G36*
X71100000Y-59750000D02*
G01*
X70600000Y-59750000D01*
X70600000Y-59749398D01*
X70575466Y-59749398D01*
X70526635Y-59744588D01*
X70478510Y-59735016D01*
X70431555Y-59720772D01*
X70386222Y-59701995D01*
X70342949Y-59678864D01*
X70302150Y-59651604D01*
X70264221Y-59620476D01*
X70229524Y-59585779D01*
X70198396Y-59547850D01*
X70171136Y-59507051D01*
X70148005Y-59463778D01*
X70129228Y-59418445D01*
X70114984Y-59371490D01*
X70105412Y-59323365D01*
X70100602Y-59274534D01*
X70100602Y-59250000D01*
X70100000Y-59250000D01*
X70100000Y-58750000D01*
X70100602Y-58750000D01*
X70100602Y-58725466D01*
X70105412Y-58676635D01*
X70114984Y-58628510D01*
X70129228Y-58581555D01*
X70148005Y-58536222D01*
X70171136Y-58492949D01*
X70198396Y-58452150D01*
X70229524Y-58414221D01*
X70264221Y-58379524D01*
X70302150Y-58348396D01*
X70342949Y-58321136D01*
X70386222Y-58298005D01*
X70431555Y-58279228D01*
X70478510Y-58264984D01*
X70526635Y-58255412D01*
X70575466Y-58250602D01*
X70600000Y-58250602D01*
X70600000Y-58250000D01*
X71100000Y-58250000D01*
X71100000Y-59750000D01*
G37*
%TD.AperFunction*%
%TA.AperFunction,SMDPad,CuDef*%
%TO.P,SJ1,2*%
%TO.N,SP_3V3*%
G36*
X71900000Y-58250602D02*
G01*
X71924534Y-58250602D01*
X71973365Y-58255412D01*
X72021490Y-58264984D01*
X72068445Y-58279228D01*
X72113778Y-58298005D01*
X72157051Y-58321136D01*
X72197850Y-58348396D01*
X72235779Y-58379524D01*
X72270476Y-58414221D01*
X72301604Y-58452150D01*
X72328864Y-58492949D01*
X72351995Y-58536222D01*
X72370772Y-58581555D01*
X72385016Y-58628510D01*
X72394588Y-58676635D01*
X72399398Y-58725466D01*
X72399398Y-58750000D01*
X72400000Y-58750000D01*
X72400000Y-59250000D01*
X72399398Y-59250000D01*
X72399398Y-59274534D01*
X72394588Y-59323365D01*
X72385016Y-59371490D01*
X72370772Y-59418445D01*
X72351995Y-59463778D01*
X72328864Y-59507051D01*
X72301604Y-59547850D01*
X72270476Y-59585779D01*
X72235779Y-59620476D01*
X72197850Y-59651604D01*
X72157051Y-59678864D01*
X72113778Y-59701995D01*
X72068445Y-59720772D01*
X72021490Y-59735016D01*
X71973365Y-59744588D01*
X71924534Y-59749398D01*
X71900000Y-59749398D01*
X71900000Y-59750000D01*
X71400000Y-59750000D01*
X71400000Y-58250000D01*
X71900000Y-58250000D01*
X71900000Y-58250602D01*
G37*
%TD.AperFunction*%
%TD*%
D15*
%TO.P,J5,5*%
%TO.N,SP_3V3*%
X85300000Y-50860000D03*
%TO.P,J5,4*%
%TO.N,SNS_CLK*%
X85300000Y-48320000D03*
%TO.P,J5,1*%
%TO.N,GND*%
X85300000Y-40700000D03*
%TO.P,J5,3*%
%TO.N,SNS_LATCH*%
X85300000Y-45780000D03*
%TO.P,J5,2*%
%TO.N,SNS_DATA*%
X85300000Y-43240000D03*
%TD*%
D16*
%TO.P,J1,9*%
%TO.N,GB_R4*%
X52750000Y-60500000D03*
%TO.P,J1,6*%
%TO.N,Net-(J1-Pad6)*%
X51250000Y-60500000D03*
%TO.P,J1,14*%
%TO.N,GB_G4*%
X55250000Y-60500000D03*
%TO.P,J1,10*%
%TO.N,GB_R3*%
X53250000Y-60500000D03*
%TO.P,J1,20*%
%TO.N,GB_B4*%
X58250000Y-60500000D03*
D17*
%TO.P,J1,*%
%TO.N,*%
X69750000Y-62850000D03*
D16*
%TO.P,J1,4*%
%TO.N,Net-(J1-Pad4)*%
X50250000Y-60500000D03*
%TO.P,J1,19*%
%TO.N,GB_B5*%
X57750000Y-60500000D03*
%TO.P,J1,18*%
%TO.N,Net-(J1-Pad18)*%
X57250000Y-60500000D03*
%TO.P,J1,15*%
%TO.N,GB_G3*%
X55750000Y-60500000D03*
%TO.P,J1,11*%
%TO.N,GB_R2*%
X53750000Y-60500000D03*
%TO.P,J1,1*%
%TO.N,Net-(J1-Pad1)*%
X48750000Y-60500000D03*
%TO.P,J1,12*%
%TO.N,GB_R1*%
X54250000Y-60500000D03*
%TO.P,J1,27*%
%TO.N,Net-(J1-Pad27)*%
X61750000Y-60500000D03*
%TO.P,J1,3*%
%TO.N,GB_DCLK*%
X49750000Y-60500000D03*
%TO.P,J1,5*%
%TO.N,Net-(J1-Pad5)*%
X50750000Y-60500000D03*
%TO.P,J1,13*%
%TO.N,GB_G5*%
X54750000Y-60500000D03*
%TO.P,J1,7*%
%TO.N,Net-(J1-Pad7)*%
X51750000Y-60500000D03*
%TO.P,J1,2*%
%TO.N,Net-(J1-Pad2)*%
X49250000Y-60500000D03*
%TO.P,J1,39*%
%TO.N,Net-(J1-Pad39)*%
X67750000Y-60500000D03*
%TO.P,J1,21*%
%TO.N,GB_B3*%
X58750000Y-60500000D03*
%TO.P,J1,17*%
%TO.N,GB_G1*%
X56750000Y-60500000D03*
%TO.P,J1,31*%
%TO.N,Net-(J1-Pad31)*%
X63750000Y-60500000D03*
%TO.P,J1,30*%
%TO.N,Net-(J1-Pad30)*%
X63250000Y-60500000D03*
%TO.P,J1,23*%
%TO.N,GB_B1*%
X59750000Y-60500000D03*
%TO.P,J1,29*%
%TO.N,Net-(J1-Pad29)*%
X62750000Y-60500000D03*
%TO.P,J1,32*%
%TO.N,Net-(J1-Pad32)*%
X64250000Y-60500000D03*
%TO.P,J1,28*%
%TO.N,Net-(J1-Pad28)*%
X62250000Y-60500000D03*
%TO.P,J1,24*%
%TO.N,Net-(J1-Pad24)*%
X60250000Y-60500000D03*
%TO.P,J1,33*%
%TO.N,Net-(J1-Pad33)*%
X64750000Y-60500000D03*
%TO.P,J1,34*%
%TO.N,Net-(J1-Pad34)*%
X65250000Y-60500000D03*
%TO.P,J1,35*%
%TO.N,Net-(J1-Pad35)*%
X65750000Y-60500000D03*
%TO.P,J1,36*%
%TO.N,Net-(J1-Pad36)*%
X66250000Y-60500000D03*
%TO.P,J1,38*%
%TO.N,Net-(J1-Pad38)*%
X67250000Y-60500000D03*
%TO.P,J1,22*%
%TO.N,GB_B2*%
X59250000Y-60500000D03*
%TO.P,J1,37*%
%TO.N,Net-(J1-Pad37)*%
X66750000Y-60500000D03*
%TO.P,J1,16*%
%TO.N,GB_G2*%
X56250000Y-60500000D03*
%TO.P,J1,8*%
%TO.N,GB_R5*%
X52250000Y-60500000D03*
D17*
%TO.P,J1,*%
%TO.N,*%
X47250000Y-62850000D03*
D16*
%TO.P,J1,40*%
%TO.N,Net-(J1-Pad40)*%
X68250000Y-60500000D03*
%TO.P,J1,25*%
%TO.N,Net-(J1-Pad25)*%
X60750000Y-60500000D03*
%TO.P,J1,26*%
%TO.N,GB_SPS*%
X61250000Y-60500000D03*
%TD*%
D18*
%TO.P,U2,32*%
%TO.N,GBA_START*%
X73250000Y-46550000D03*
%TO.P,U2,31*%
%TO.N,GBA_R*%
X73250000Y-45750000D03*
%TO.P,U2,30*%
%TO.N,GBA_L*%
X73250000Y-44950000D03*
%TO.P,U2,29*%
%TO.N,AT_RST*%
X73250000Y-44150000D03*
%TO.P,U2,28*%
%TO.N,GBA_B*%
X73250000Y-43350000D03*
%TO.P,U2,27*%
%TO.N,GBA_A*%
X73250000Y-42550000D03*
%TO.P,U2,26*%
%TO.N,GBA_RGHT*%
X73250000Y-41750000D03*
%TO.P,U2,25*%
%TO.N,GBA_LEFT*%
X73250000Y-40950000D03*
D19*
%TO.P,U2,24*%
%TO.N,GBA_DOWN*%
X74700000Y-39500000D03*
%TO.P,U2,23*%
%TO.N,GBA_UP*%
X75500000Y-39500000D03*
%TO.P,U2,22*%
%TO.N,Net-(U2-Pad22)*%
X76300000Y-39500000D03*
%TO.P,U2,21*%
%TO.N,GND*%
X77100000Y-39500000D03*
%TO.P,U2,20*%
%TO.N,SP_3V3*%
X77900000Y-39500000D03*
%TO.P,U2,19*%
%TO.N,Net-(U2-Pad19)*%
X78700000Y-39500000D03*
%TO.P,U2,18*%
%TO.N,SP_3V3*%
X79500000Y-39500000D03*
%TO.P,U2,17*%
%TO.N,ICSP_SCK*%
X80300000Y-39500000D03*
D18*
%TO.P,U2,16*%
%TO.N,ICSP_MISO*%
X81750000Y-40950000D03*
%TO.P,U2,15*%
%TO.N,ICSP_MOSI*%
X81750000Y-41750000D03*
%TO.P,U2,14*%
%TO.N,Net-(U2-Pad14)*%
X81750000Y-42550000D03*
%TO.P,U2,13*%
%TO.N,Net-(U2-Pad13)*%
X81750000Y-43350000D03*
%TO.P,U2,12*%
%TO.N,Net-(U2-Pad12)*%
X81750000Y-44150000D03*
%TO.P,U2,11*%
%TO.N,GBA_POWER_SEL*%
X81750000Y-44950000D03*
%TO.P,U2,10*%
%TO.N,SNS_LATCH*%
X81750000Y-45750000D03*
%TO.P,U2,9*%
%TO.N,SNS_CLK*%
X81750000Y-46550000D03*
D19*
%TO.P,U2,8*%
%TO.N,Net-(C2-Pad2)*%
X80300000Y-48000000D03*
%TO.P,U2,7*%
%TO.N,Net-(C1-Pad2)*%
X79500000Y-48000000D03*
%TO.P,U2,6*%
%TO.N,SP_3V3*%
X78700000Y-48000000D03*
%TO.P,U2,5*%
%TO.N,GND*%
X77900000Y-48000000D03*
%TO.P,U2,4*%
%TO.N,SP_3V3*%
X77100000Y-48000000D03*
%TO.P,U2,3*%
%TO.N,GND*%
X76300000Y-48000000D03*
%TO.P,U2,2*%
%TO.N,SNS_DATA*%
X75500000Y-48000000D03*
%TO.P,U2,1*%
%TO.N,GBA_SELECT*%
X74700000Y-48000000D03*
%TD*%
D20*
%TO.P,SW1,2*%
%TO.N,GND*%
X80425000Y-37000000D03*
X80425000Y-35500000D03*
%TO.P,SW1,1*%
%TO.N,AT_RST*%
X76575000Y-37000000D03*
X76575000Y-35500000D03*
%TD*%
%TO.P,R1,2*%
%TO.N,AT_RST*%
%TA.AperFunction,SMDPad,CuDef*%
G36*
G01*
X74049999Y-36400000D02*
X74950001Y-36400000D01*
G75*
G02*
X75200000Y-36649999I0J-249999D01*
G01*
X75200000Y-37350001D01*
G75*
G02*
X74950001Y-37600000I-249999J0D01*
G01*
X74049999Y-37600000D01*
G75*
G02*
X73800000Y-37350001I0J249999D01*
G01*
X73800000Y-36649999D01*
G75*
G02*
X74049999Y-36400000I249999J0D01*
G01*
G37*
%TD.AperFunction*%
%TO.P,R1,1*%
%TO.N,SP_3V3*%
%TA.AperFunction,SMDPad,CuDef*%
G36*
G01*
X74049999Y-34400000D02*
X74950001Y-34400000D01*
G75*
G02*
X75200000Y-34649999I0J-249999D01*
G01*
X75200000Y-35350001D01*
G75*
G02*
X74950001Y-35600000I-249999J0D01*
G01*
X74049999Y-35600000D01*
G75*
G02*
X73800000Y-35350001I0J249999D01*
G01*
X73800000Y-34649999D01*
G75*
G02*
X74049999Y-34400000I249999J0D01*
G01*
G37*
%TD.AperFunction*%
%TD*%
D21*
%TO.P,J6,6*%
%TO.N,GND*%
X66790000Y-57830000D03*
%TO.P,J6,5*%
%TO.N,AT_RST*%
X64250000Y-57830000D03*
%TO.P,J6,4*%
%TO.N,ICSP_MOSI*%
X66790000Y-55290000D03*
%TO.P,J6,3*%
%TO.N,ICSP_SCK*%
X64250000Y-55290000D03*
%TO.P,J6,2*%
%TO.N,SP_3V3*%
X66790000Y-52750000D03*
D22*
%TO.P,J6,1*%
%TO.N,ICSP_MISO*%
X64250000Y-52750000D03*
%TD*%
D21*
%TO.P,J4,20*%
%TO.N,GB_G3*%
X68860000Y-28710000D03*
%TO.P,J4,19*%
%TO.N,GB_SPS*%
X68860000Y-31250000D03*
%TO.P,J4,18*%
%TO.N,GB_G5*%
X66320000Y-28710000D03*
%TO.P,J4,17*%
%TO.N,GB_B1*%
X66320000Y-31250000D03*
%TO.P,J4,16*%
%TO.N,GB_R2*%
X63780000Y-28710000D03*
%TO.P,J4,15*%
%TO.N,GB_B3*%
X63780000Y-31250000D03*
%TO.P,J4,14*%
%TO.N,GB_R4*%
X61240000Y-28710000D03*
%TO.P,J4,13*%
%TO.N,GB_B5*%
X61240000Y-31250000D03*
%TO.P,J4,12*%
%TO.N,SP_ARD12*%
X58700000Y-28710000D03*
%TO.P,J4,11*%
%TO.N,GB_G2*%
X58700000Y-31250000D03*
%TO.P,J4,10*%
%TO.N,GB_R5*%
X56160000Y-28710000D03*
%TO.P,J4,9*%
%TO.N,GB_G4*%
X56160000Y-31250000D03*
%TO.P,J4,8*%
%TO.N,SP_ARD14*%
X53620000Y-28710000D03*
%TO.P,J4,7*%
%TO.N,GB_R1*%
X53620000Y-31250000D03*
%TO.P,J4,6*%
%TO.N,SP_ARD15*%
X51080000Y-28710000D03*
%TO.P,J4,5*%
%TO.N,GB_R3*%
X51080000Y-31250000D03*
%TO.P,J4,4*%
%TO.N,SP_ARD16*%
X48540000Y-28710000D03*
%TO.P,J4,3*%
%TO.N,GBA_CLK*%
X48540000Y-31250000D03*
%TO.P,J4,2*%
%TO.N,SP_ARD17*%
X46000000Y-28710000D03*
D22*
%TO.P,J4,1*%
%TO.N,GB_DCLK*%
X46000000Y-31250000D03*
%TD*%
D16*
%TO.P,J3,7*%
%TO.N,GBA_B*%
X77750000Y-60500000D03*
%TO.P,J3,9*%
%TO.N,GBA_R*%
X78750000Y-60500000D03*
D17*
%TO.P,J3,*%
%TO.N,*%
X73250000Y-62850000D03*
D16*
%TO.P,J3,5*%
%TO.N,GBA_RGHT*%
X76750000Y-60500000D03*
%TO.P,J3,1*%
%TO.N,GBA_VCC*%
X74750000Y-60500000D03*
%TO.P,J3,4*%
%TO.N,GBA_LEFT*%
X76250000Y-60500000D03*
%TO.P,J3,14*%
%TO.N,GBA_CLK*%
X81250000Y-60500000D03*
%TO.P,J3,8*%
%TO.N,GBA_L*%
X78250000Y-60500000D03*
%TO.P,J3,16*%
%TO.N,GND*%
X82250000Y-60500000D03*
D17*
%TO.P,J3,*%
%TO.N,*%
X83750000Y-62850000D03*
D16*
%TO.P,J3,11*%
%TO.N,GBA_SELECT*%
X79750000Y-60500000D03*
%TO.P,J3,6*%
%TO.N,GBA_A*%
X77250000Y-60500000D03*
%TO.P,J3,12*%
%TO.N,GBA_AUD2*%
X80250000Y-60500000D03*
%TO.P,J3,3*%
%TO.N,GBA_DOWN*%
X75750000Y-60500000D03*
%TO.P,J3,10*%
%TO.N,GBA_START*%
X79250000Y-60500000D03*
%TO.P,J3,15*%
%TO.N,Net-(J3-Pad15)*%
X81750000Y-60500000D03*
%TO.P,J3,2*%
%TO.N,GBA_UP*%
X75250000Y-60500000D03*
%TO.P,J3,13*%
%TO.N,GBA_AUD1*%
X80750000Y-60500000D03*
%TD*%
D21*
%TO.P,J2,16*%
%TO.N,SP_ARD0*%
X90704000Y-28710000D03*
%TO.P,J2,15*%
%TO.N,Net-(J2-Pad15)*%
X90704000Y-31250000D03*
%TO.P,J2,14*%
%TO.N,SP_ARD1*%
X88164000Y-28710000D03*
%TO.P,J2,13*%
%TO.N,Net-(J2-Pad13)*%
X88164000Y-31250000D03*
%TO.P,J2,12*%
%TO.N,GBA_AUD1*%
X85624000Y-28710000D03*
%TO.P,J2,11*%
%TO.N,Net-(J2-Pad11)*%
X85624000Y-31250000D03*
%TO.P,J2,10*%
%TO.N,GBA_AUD2*%
X83084000Y-28710000D03*
%TO.P,J2,9*%
%TO.N,Net-(J2-Pad9)*%
X83084000Y-31250000D03*
%TO.P,J2,8*%
%TO.N,SP_ARD4*%
X80544000Y-28710000D03*
%TO.P,J2,7*%
%TO.N,Net-(J2-Pad7)*%
X80544000Y-31250000D03*
%TO.P,J2,6*%
%TO.N,GB_B2*%
X78004000Y-28710000D03*
%TO.P,J2,5*%
%TO.N,Net-(J2-Pad5)*%
X78004000Y-31250000D03*
%TO.P,J2,4*%
%TO.N,GB_B4*%
X75464000Y-28710000D03*
%TO.P,J2,3*%
%TO.N,GND*%
X75464000Y-31250000D03*
%TO.P,J2,2*%
%TO.N,GB_G1*%
X72924000Y-28710000D03*
D22*
%TO.P,J2,1*%
%TO.N,SP_3V3*%
X72924000Y-31250000D03*
%TD*%
%TO.P,C3,2*%
%TO.N,SP_3V3*%
%TA.AperFunction,SMDPad,CuDef*%
G36*
G01*
X82025000Y-36450000D02*
X82975000Y-36450000D01*
G75*
G02*
X83225000Y-36700000I0J-250000D01*
G01*
X83225000Y-37375000D01*
G75*
G02*
X82975000Y-37625000I-250000J0D01*
G01*
X82025000Y-37625000D01*
G75*
G02*
X81775000Y-37375000I0J250000D01*
G01*
X81775000Y-36700000D01*
G75*
G02*
X82025000Y-36450000I250000J0D01*
G01*
G37*
%TD.AperFunction*%
%TO.P,C3,1*%
%TO.N,GND*%
%TA.AperFunction,SMDPad,CuDef*%
G36*
G01*
X82025000Y-34375000D02*
X82975000Y-34375000D01*
G75*
G02*
X83225000Y-34625000I0J-250000D01*
G01*
X83225000Y-35300000D01*
G75*
G02*
X82975000Y-35550000I-250000J0D01*
G01*
X82025000Y-35550000D01*
G75*
G02*
X81775000Y-35300000I0J250000D01*
G01*
X81775000Y-34625000D01*
G75*
G02*
X82025000Y-34375000I250000J0D01*
G01*
G37*
%TD.AperFunction*%
%TD*%
%TO.P,C2,2*%
%TO.N,Net-(C2-Pad2)*%
%TA.AperFunction,SMDPad,CuDef*%
G36*
G01*
X84982073Y-54881678D02*
X84310322Y-54209927D01*
G75*
G02*
X84310322Y-53856373I176777J176777D01*
G01*
X84787619Y-53379076D01*
G75*
G02*
X85141173Y-53379076I176777J-176777D01*
G01*
X85812924Y-54050827D01*
G75*
G02*
X85812924Y-54404381I-176777J-176777D01*
G01*
X85335627Y-54881678D01*
G75*
G02*
X84982073Y-54881678I-176777J176777D01*
G01*
G37*
%TD.AperFunction*%
%TO.P,C2,1*%
%TO.N,GND*%
%TA.AperFunction,SMDPad,CuDef*%
G36*
G01*
X83514827Y-56348924D02*
X82843076Y-55677173D01*
G75*
G02*
X82843076Y-55323619I176777J176777D01*
G01*
X83320373Y-54846322D01*
G75*
G02*
X83673927Y-54846322I176777J-176777D01*
G01*
X84345678Y-55518073D01*
G75*
G02*
X84345678Y-55871627I-176777J-176777D01*
G01*
X83868381Y-56348924D01*
G75*
G02*
X83514827Y-56348924I-176777J176777D01*
G01*
G37*
%TD.AperFunction*%
%TD*%
%TO.P,C1,1*%
%TO.N,GND*%
%TA.AperFunction,SMDPad,CuDef*%
G36*
G01*
X78700924Y-55677173D02*
X78029173Y-56348924D01*
G75*
G02*
X77675619Y-56348924I-176777J176777D01*
G01*
X77198322Y-55871627D01*
G75*
G02*
X77198322Y-55518073I176777J176777D01*
G01*
X77870073Y-54846322D01*
G75*
G02*
X78223627Y-54846322I176777J-176777D01*
G01*
X78700924Y-55323619D01*
G75*
G02*
X78700924Y-55677173I-176777J-176777D01*
G01*
G37*
%TD.AperFunction*%
%TO.P,C1,2*%
%TO.N,Net-(C1-Pad2)*%
%TA.AperFunction,SMDPad,CuDef*%
G36*
G01*
X77233678Y-54209927D02*
X76561927Y-54881678D01*
G75*
G02*
X76208373Y-54881678I-176777J176777D01*
G01*
X75731076Y-54404381D01*
G75*
G02*
X75731076Y-54050827I176777J176777D01*
G01*
X76402827Y-53379076D01*
G75*
G02*
X76756381Y-53379076I176777J-176777D01*
G01*
X77233678Y-53856373D01*
G75*
G02*
X77233678Y-54209927I-176777J-176777D01*
G01*
G37*
%TD.AperFunction*%
%TD*%
D23*
%TO.N,GND*%
X67000000Y-62000000D03*
X46750000Y-60250000D03*
X77975000Y-46500000D03*
X77000000Y-38050002D03*
X82500000Y-33750000D03*
X63250000Y-49500000D03*
X83565994Y-59690000D03*
%TO.N,GB_B2*%
X59250000Y-61750000D03*
%TO.N,GB_G1*%
X56750000Y-61750000D03*
%TO.N,GB_G5*%
X54750000Y-61750000D03*
%TO.N,GB_R2*%
X53750000Y-61750000D03*
%TO.N,GB_G3*%
X55750000Y-61750000D03*
%TO.N,GB_B4*%
X58250000Y-61750000D03*
%TO.N,GB_R4*%
X52750000Y-61750000D03*
%TO.N,GBA_AUD1*%
X81534000Y-58310805D03*
%TO.N,GBA_AUD2*%
X80518000Y-58310805D03*
%TO.N,GBA_UP*%
X76311275Y-41250000D03*
X73794953Y-57705046D03*
%TO.N,Net-(J3-Pad15)*%
X86106000Y-64262000D03*
X82042000Y-62230000D03*
%TO.N,GBA_START*%
X74500000Y-51000000D03*
X78630025Y-57119975D03*
%TO.N,GBA_SELECT*%
X75453773Y-43308455D03*
X79750000Y-57250000D03*
X75250000Y-50250000D03*
%TO.N,GBA_CLK*%
X81250000Y-64000000D03*
%TO.N,GBA_RGHT*%
X74561971Y-41537871D03*
%TO.N,AT_RST*%
X75611275Y-37822965D03*
X74753773Y-42519306D03*
X71666623Y-39000000D03*
X73116623Y-37500000D03*
X66999932Y-50000000D03*
%TO.N,ICSP_MOSI*%
X73094953Y-51500000D03*
X75950000Y-51750000D03*
X80250000Y-41500000D03*
%TO.N,ICSP_SCK*%
X69000000Y-53250000D03*
X81050000Y-38500001D03*
%TO.N,ICSP_MISO*%
X81750000Y-39750000D03*
X67699932Y-50750000D03*
%TO.N,SNS_DATA*%
X75600000Y-46000000D03*
X83250000Y-43750000D03*
%TO.N,SP_3V3*%
X68985965Y-54590000D03*
X73500000Y-59750000D03*
X81750000Y-48000000D03*
X78700000Y-45200000D03*
%TO.N,GBA_POWER_SEL*%
X82970024Y-44970024D03*
X71000000Y-29000000D03*
X66750000Y-43750000D03*
X66750000Y-40500000D03*
%TD*%
D24*
%TO.N,Net-(C1-Pad2)*%
X77957531Y-52655223D02*
X76482377Y-54130377D01*
X79393142Y-52655223D02*
X77957531Y-52655223D01*
X79500000Y-48000000D02*
X79500000Y-49786000D01*
X78898167Y-52160248D02*
X79393142Y-52655223D01*
X78898167Y-50387833D02*
X78898167Y-52160248D01*
X79500000Y-49786000D02*
X78898167Y-50387833D01*
D25*
%TO.N,GND*%
X80425000Y-35500000D02*
X80425000Y-37000000D01*
D24*
X77100000Y-41497277D02*
X77100000Y-39500000D01*
X76300000Y-42297277D02*
X77100000Y-41497277D01*
X76300000Y-48000000D02*
X76300000Y-42297277D01*
X76300000Y-48000000D02*
X76300000Y-49550000D01*
X76300000Y-49550000D02*
X76500000Y-49750000D01*
X76500000Y-49750000D02*
X77750000Y-49750000D01*
X77900000Y-49600000D02*
X77900000Y-48000000D01*
X77750000Y-49750000D02*
X77900000Y-49600000D01*
X77900000Y-46575000D02*
X77975000Y-46500000D01*
X77900000Y-48000000D02*
X77900000Y-46575000D01*
X77100000Y-38150002D02*
X77000000Y-38050002D01*
X77100000Y-39500000D02*
X77100000Y-38150002D01*
X82500000Y-33750000D02*
X82500000Y-34962500D01*
X63250000Y-48800000D02*
X63250000Y-49500000D01*
X64300000Y-47750000D02*
X63250000Y-48800000D01*
X64800000Y-47750000D02*
X64300000Y-47750000D01*
X79714000Y-35500000D02*
X80425000Y-35500000D01*
X75464000Y-31250000D02*
X79714000Y-35500000D01*
X85300000Y-41240000D02*
X85740000Y-41240000D01*
X85300000Y-40573000D02*
X90492000Y-35381000D01*
X85300000Y-40700000D02*
X85300000Y-40573000D01*
X82250000Y-60500000D02*
X82755994Y-60500000D01*
X82755994Y-60500000D02*
X83565994Y-59690000D01*
X80931609Y-54193690D02*
X80948777Y-54210858D01*
X80931609Y-51789528D02*
X80931609Y-54193690D01*
X80595223Y-51453142D02*
X80931609Y-51789528D01*
%TO.N,Net-(C2-Pad2)*%
X83940023Y-53008777D02*
X85061623Y-54130377D01*
X82150858Y-53008777D02*
X83940023Y-53008777D01*
X80300000Y-48000000D02*
X80300000Y-48804000D01*
X82150858Y-50654858D02*
X82150858Y-53008777D01*
X80300000Y-48804000D02*
X82150858Y-50654858D01*
%TO.N,GB_SPS*%
X68860000Y-31250000D02*
X66360000Y-33750000D01*
X66360000Y-33750000D02*
X63250000Y-33750000D01*
X63250000Y-33750000D02*
X61000000Y-36000000D01*
X60750000Y-36250000D02*
X63250000Y-33750000D01*
X61250000Y-59000000D02*
X60750000Y-58500000D01*
X60750000Y-58500000D02*
X60750000Y-36250000D01*
X61250000Y-60500000D02*
X61250000Y-59000000D01*
%TO.N,GB_R5*%
X52250000Y-35500000D02*
X49929999Y-33179999D01*
X52250000Y-60500000D02*
X52250000Y-35500000D01*
X49929999Y-30697999D02*
X50627998Y-30000000D01*
X49929999Y-33179999D02*
X49929999Y-30697999D01*
X54870000Y-30000000D02*
X56160000Y-28710000D01*
X50627998Y-30000000D02*
X54870000Y-30000000D01*
%TO.N,GB_G2*%
X58700000Y-32800000D02*
X58700000Y-31250000D01*
X56250000Y-35250000D02*
X58700000Y-32800000D01*
X56250000Y-60500000D02*
X56250000Y-35250000D01*
%TO.N,GB_B2*%
X59250000Y-60500000D02*
X59250000Y-61750000D01*
%TO.N,GB_B1*%
X59750000Y-60500000D02*
X59750000Y-36000000D01*
X59750000Y-36000000D02*
X63000000Y-32750000D01*
X64820000Y-32750000D02*
X66320000Y-31250000D01*
X63000000Y-32750000D02*
X64820000Y-32750000D01*
%TO.N,GB_G1*%
X56750000Y-60500000D02*
X56750000Y-61750000D01*
%TO.N,GB_B3*%
X58750000Y-60500000D02*
X58750000Y-35500000D01*
X63000000Y-31250000D02*
X63780000Y-31250000D01*
X58750000Y-35500000D02*
X63000000Y-31250000D01*
%TO.N,GB_G5*%
X54750000Y-60500000D02*
X54750000Y-61750000D01*
%TO.N,GB_DCLK*%
X49750000Y-59650000D02*
X49750000Y-60500000D01*
X51250000Y-58150000D02*
X49750000Y-59650000D01*
X51250000Y-36750000D02*
X51250000Y-58150000D01*
X46000000Y-31500000D02*
X51250000Y-36750000D01*
X46000000Y-31250000D02*
X46000000Y-31500000D01*
%TO.N,GB_R1*%
X54250000Y-31880000D02*
X53620000Y-31250000D01*
X54250000Y-60500000D02*
X54250000Y-31880000D01*
%TO.N,GB_R2*%
X53750000Y-60500000D02*
X53750000Y-61750000D01*
%TO.N,GB_G3*%
X55750000Y-60500000D02*
X55750000Y-61750000D01*
%TO.N,GB_B5*%
X57750000Y-60500000D02*
X57750000Y-35250000D01*
X61240000Y-31760000D02*
X61240000Y-31250000D01*
X57750000Y-35250000D02*
X61240000Y-31760000D01*
%TO.N,GB_B4*%
X58250000Y-60500000D02*
X58250000Y-61750000D01*
%TO.N,GB_R3*%
X51080000Y-32830000D02*
X51080000Y-31250000D01*
X53250000Y-35000000D02*
X51080000Y-32830000D01*
X53250000Y-60500000D02*
X53250000Y-35000000D01*
%TO.N,GB_G4*%
X55250000Y-32160000D02*
X56160000Y-31250000D01*
X55250000Y-60500000D02*
X55250000Y-32160000D01*
%TO.N,GB_R4*%
X52750000Y-60500000D02*
X52750000Y-61750000D01*
%TO.N,GBA_AUD1*%
X80750000Y-60500000D02*
X80750000Y-59281659D01*
X80750000Y-59094805D02*
X81534000Y-58310805D01*
X80750000Y-59281659D02*
X80750000Y-59094805D01*
%TO.N,GBA_AUD2*%
X80250000Y-60500000D02*
X80250000Y-59215961D01*
X80250000Y-58578805D02*
X80518000Y-58310805D01*
X80250000Y-59215961D02*
X80250000Y-58578805D01*
%TO.N,GBA_UP*%
X76250000Y-41250000D02*
X76311275Y-41250000D01*
X75500000Y-40500000D02*
X76250000Y-41250000D01*
X75500000Y-39500000D02*
X75500000Y-40500000D01*
X75250000Y-59160093D02*
X73794953Y-57705046D01*
X75250000Y-60500000D02*
X75250000Y-59160093D01*
%TO.N,Net-(J3-Pad15)*%
X87122000Y-63246000D02*
X86106000Y-64262000D01*
X87122000Y-61980000D02*
X87122000Y-63246000D01*
X81750000Y-61938000D02*
X81750000Y-60500000D01*
X82042000Y-62230000D02*
X81750000Y-61938000D01*
%TO.N,GBA_START*%
X73250000Y-49750000D02*
X74500000Y-51000000D01*
X73250000Y-46550000D02*
X73250000Y-49750000D01*
X79299999Y-60450001D02*
X79250000Y-60500000D01*
X79299999Y-57789949D02*
X79299999Y-60450001D01*
X78630025Y-57119975D02*
X79299999Y-57789949D01*
%TO.N,GBA_DOWN*%
X73134301Y-39500000D02*
X74700000Y-39500000D01*
X68849942Y-43784359D02*
X73134301Y-39500000D01*
X68849942Y-51770085D02*
X68849942Y-43784359D01*
X75750000Y-58670141D02*
X68849942Y-51770085D01*
X75750000Y-60500000D02*
X75750000Y-58670141D01*
%TO.N,GBA_A*%
X70049972Y-44750028D02*
X70049972Y-51273018D01*
X72250000Y-42550000D02*
X70049972Y-44750028D01*
X73250000Y-42550000D02*
X72250000Y-42550000D01*
X77250000Y-58473046D02*
X77250000Y-60500000D01*
X70049972Y-51273018D02*
X77250000Y-58473046D01*
%TO.N,GBA_SELECT*%
X75453773Y-43511925D02*
X75453773Y-43308455D01*
X74700000Y-44265698D02*
X75453773Y-43511925D01*
X74700000Y-48000000D02*
X74700000Y-44265698D01*
X79750000Y-60500000D02*
X79750000Y-57250000D01*
X74700000Y-49700000D02*
X74700000Y-48000000D01*
X75250000Y-50250000D02*
X74700000Y-49700000D01*
%TO.N,GBA_L*%
X70849990Y-46350010D02*
X70849990Y-50941640D01*
X72250000Y-44950000D02*
X70849990Y-46350010D01*
X73250000Y-44950000D02*
X72250000Y-44950000D01*
X78250000Y-58341650D02*
X78250000Y-60500000D01*
X70849990Y-50941640D02*
X78250000Y-58341650D01*
%TO.N,GBA_CLK*%
X81250000Y-64000000D02*
X81250000Y-60500000D01*
%TO.N,GBA_LEFT*%
X76250000Y-58604442D02*
X76250000Y-60500000D01*
X69249952Y-51604396D02*
X76250000Y-58604442D01*
X69249952Y-43950048D02*
X69249952Y-51604396D01*
X72250000Y-40950000D02*
X69249952Y-43950048D01*
X73250000Y-40950000D02*
X72250000Y-40950000D01*
%TO.N,GBA_VCC*%
X71352408Y-60500000D02*
X74750000Y-60500000D01*
X70600000Y-59747592D02*
X71352408Y-60500000D01*
X70600000Y-59000000D02*
X70600000Y-59747592D01*
X63717998Y-59000000D02*
X62500000Y-57782002D01*
X70600000Y-59000000D02*
X63717998Y-59000000D01*
X62500000Y-57782002D02*
X62500000Y-52000000D01*
X62500000Y-52000000D02*
X64500000Y-50000000D01*
X66700000Y-48400000D02*
X66700000Y-49300000D01*
X66000000Y-50000000D02*
X64500000Y-50000000D01*
X66700000Y-49300000D02*
X66000000Y-50000000D01*
%TO.N,GBA_RGHT*%
X74349842Y-41750000D02*
X74561971Y-41537871D01*
X73250000Y-41750000D02*
X74349842Y-41750000D01*
X76750000Y-60500000D02*
X76750000Y-58538744D01*
X72484301Y-41750000D02*
X73250000Y-41750000D01*
X69649962Y-44584339D02*
X72484301Y-41750000D01*
X69649962Y-51438707D02*
X69649962Y-44584339D01*
X76750000Y-58538744D02*
X69649962Y-51438707D01*
%TO.N,GBA_R*%
X78750000Y-58275952D02*
X71250000Y-50775952D01*
X78750000Y-60500000D02*
X78750000Y-58275952D01*
X72250000Y-45750000D02*
X73250000Y-45750000D01*
X71250000Y-46750000D02*
X72250000Y-45750000D01*
X71250000Y-50775952D02*
X71250000Y-46750000D01*
%TO.N,GBA_B*%
X72250000Y-43350000D02*
X73250000Y-43350000D01*
X70449982Y-45150018D02*
X72250000Y-43350000D01*
X70449982Y-51107330D02*
X70449982Y-45150018D01*
X77750000Y-58407348D02*
X70449982Y-51107330D01*
X77750000Y-60500000D02*
X77750000Y-58407348D01*
%TO.N,AT_RST*%
X74788310Y-37000000D02*
X75611275Y-37822965D01*
X74500000Y-37000000D02*
X74788310Y-37000000D01*
X74250000Y-44150000D02*
X73250000Y-44150000D01*
X74753773Y-43646227D02*
X74250000Y-44150000D01*
X74753773Y-42519306D02*
X74753773Y-43646227D01*
X76434240Y-37000000D02*
X75611275Y-37822965D01*
X76575000Y-37000000D02*
X76434240Y-37000000D01*
X76575000Y-35500000D02*
X76575000Y-37000000D01*
X71666623Y-39765570D02*
X71666623Y-39000000D01*
X73616623Y-37000000D02*
X73116623Y-37500000D01*
X74500000Y-37000000D02*
X73616623Y-37000000D01*
X66999932Y-50000000D02*
X67999922Y-49000010D01*
X67999922Y-49000010D02*
X67999922Y-47500000D01*
X67999922Y-47500000D02*
X67999922Y-45250000D01*
X67999922Y-43432271D02*
X67999924Y-43432269D01*
X67999922Y-45250000D02*
X67999922Y-43432271D01*
X67999922Y-43432271D02*
X71666623Y-39765570D01*
%TO.N,ICSP_MOSI*%
X75800001Y-51899999D02*
X75950000Y-51750000D01*
X73494952Y-51899999D02*
X75800001Y-51899999D01*
X73094953Y-51500000D02*
X73494952Y-51899999D01*
X80500000Y-41750000D02*
X81750000Y-41750000D01*
X80250000Y-41500000D02*
X80500000Y-41750000D01*
%TO.N,ICSP_SCK*%
X68110001Y-54139999D02*
X69000000Y-53250000D01*
X65400001Y-54139999D02*
X68110001Y-54139999D01*
X64250000Y-55290000D02*
X65400001Y-54139999D01*
X81050000Y-38750000D02*
X80300000Y-39500000D01*
X81050000Y-38500001D02*
X81050000Y-38750000D01*
%TO.N,ICSP_MISO*%
X81750000Y-39750000D02*
X81750000Y-40950000D01*
X66250000Y-50750000D02*
X67699932Y-50750000D01*
X64250000Y-52750000D02*
X66250000Y-50750000D01*
%TO.N,SNS_DATA*%
X75500000Y-46100000D02*
X75600000Y-46000000D01*
X75500000Y-48000000D02*
X75500000Y-46100000D01*
X84790000Y-43750000D02*
X85300000Y-43240000D01*
X83250000Y-43750000D02*
X84790000Y-43750000D01*
X85618766Y-43240000D02*
X85300000Y-43240000D01*
X90492000Y-48113234D02*
X85618766Y-43240000D01*
X90492000Y-49881000D02*
X90492000Y-48113234D01*
%TO.N,SNS_LATCH*%
X85300000Y-46320000D02*
X85070000Y-46550000D01*
X81780000Y-45780000D02*
X81750000Y-45750000D01*
X85300000Y-45780000D02*
X81780000Y-45780000D01*
X90492000Y-53881000D02*
X88150010Y-51539010D01*
X86750000Y-45780000D02*
X85300000Y-45780000D01*
X88150010Y-47180010D02*
X86750000Y-45780000D01*
X88150010Y-51539010D02*
X88150010Y-47180010D01*
%TO.N,SNS_CLK*%
X83520000Y-48320000D02*
X85300000Y-48320000D01*
X81750000Y-46550000D02*
X83520000Y-48320000D01*
X85650000Y-48320000D02*
X87750000Y-50420000D01*
X85300000Y-48320000D02*
X85650000Y-48320000D01*
X87750000Y-55139000D02*
X90492000Y-57881000D01*
X87750000Y-50420000D02*
X87750000Y-55139000D01*
D25*
%TO.N,SP_3V3*%
X79500000Y-39500000D02*
X79500000Y-42000000D01*
X77100000Y-44400000D02*
X77100000Y-48000000D01*
X79500000Y-42000000D02*
X77100000Y-44400000D01*
X78700000Y-42800000D02*
X79500000Y-42000000D01*
X77900000Y-43600000D02*
X77100000Y-44400000D01*
X77900000Y-39500000D02*
X77900000Y-43600000D01*
X77900000Y-35164998D02*
X76985002Y-34250000D01*
X77900000Y-39500000D02*
X77900000Y-35164998D01*
X75250000Y-34250000D02*
X74500000Y-35000000D01*
X76985002Y-34250000D02*
X75250000Y-34250000D01*
X79500000Y-38450000D02*
X79500000Y-39500000D01*
X80174999Y-37775001D02*
X79500000Y-38450000D01*
X81762499Y-37775001D02*
X80174999Y-37775001D01*
X82500000Y-37037500D02*
X81762499Y-37775001D01*
X68424932Y-51115068D02*
X66790000Y-52750000D01*
X68424932Y-43608315D02*
X68424932Y-51115068D01*
X72391623Y-39641624D02*
X68424932Y-43608315D01*
X72391623Y-37108377D02*
X72391623Y-39641624D01*
X74500000Y-35000000D02*
X72391623Y-37108377D01*
D24*
X67200000Y-47750000D02*
X66700000Y-47750000D01*
X67599912Y-47350088D02*
X67200000Y-47750000D01*
X67599912Y-43266582D02*
X67599912Y-47350088D01*
X70966622Y-39899873D02*
X67599912Y-43266582D01*
X70966622Y-38533378D02*
X70966622Y-39899873D01*
X72391623Y-37108377D02*
X70966622Y-38533378D01*
X66299998Y-47750000D02*
X66700000Y-47750000D01*
X65649998Y-47100000D02*
X66299998Y-47750000D01*
X64800000Y-47100000D02*
X65649998Y-47100000D01*
X71900000Y-57504035D02*
X71900000Y-59000000D01*
X68985965Y-54590000D02*
X71900000Y-57504035D01*
X72750000Y-59000000D02*
X73500000Y-59750000D01*
X71900000Y-59000000D02*
X72750000Y-59000000D01*
X75135003Y-32400001D02*
X77900000Y-35164998D01*
X74074001Y-32400001D02*
X75135003Y-32400001D01*
X72924000Y-31250000D02*
X74074001Y-32400001D01*
X84610000Y-50860000D02*
X81750000Y-48000000D01*
X85300000Y-50860000D02*
X84610000Y-50860000D01*
D25*
X78700000Y-45200000D02*
X78700000Y-42800000D01*
X78700000Y-48000000D02*
X78700000Y-45200000D01*
D24*
%TO.N,GBA_POWER_SEL*%
X82950000Y-44950000D02*
X82970024Y-44970024D01*
X81750000Y-44950000D02*
X82950000Y-44950000D01*
X71000000Y-29000000D02*
X71000000Y-30812002D01*
X66700000Y-43800000D02*
X66750000Y-43750000D01*
X66700000Y-47100000D02*
X66700000Y-43800000D01*
X71000000Y-36250000D02*
X71000000Y-29000000D01*
X66750000Y-40500000D02*
X71000000Y-36250000D01*
%TD*%
D26*
%TO.N,GND*%
X44698815Y-32551185D02*
X44795506Y-32630537D01*
X44905820Y-32689502D01*
X45025518Y-32725812D01*
X45150000Y-32738072D01*
X46198626Y-32738072D01*
X50515000Y-37054447D01*
X50515001Y-57845552D01*
X49255808Y-59104746D01*
X49227762Y-59127763D01*
X49158689Y-59211928D01*
X49100000Y-59211928D01*
X49000000Y-59221777D01*
X48900000Y-59211928D01*
X48600000Y-59211928D01*
X48475518Y-59224188D01*
X48355820Y-59260498D01*
X48245506Y-59319463D01*
X48148815Y-59398815D01*
X48069463Y-59495506D01*
X48010498Y-59605820D01*
X47974188Y-59725518D01*
X47961928Y-59850000D01*
X47961928Y-60711928D01*
X46250000Y-60711928D01*
X46125518Y-60724188D01*
X46005820Y-60760498D01*
X45895506Y-60819463D01*
X45798815Y-60898815D01*
X45719463Y-60995506D01*
X45660498Y-61105820D01*
X45624188Y-61225518D01*
X45611928Y-61350000D01*
X45611928Y-64350000D01*
X45624188Y-64474482D01*
X45660498Y-64594180D01*
X45719463Y-64704494D01*
X45798815Y-64801185D01*
X45846111Y-64840000D01*
X44782281Y-64840000D01*
X44733132Y-64835181D01*
X44716909Y-64830283D01*
X44701945Y-64822326D01*
X44688812Y-64811615D01*
X44678011Y-64798559D01*
X44669951Y-64783652D01*
X44664938Y-64767459D01*
X44660000Y-64720475D01*
X44660000Y-38586462D01*
X45047539Y-38586462D01*
X45047539Y-56913538D01*
X45053416Y-56973476D01*
X45058875Y-57033462D01*
X45059509Y-57035617D01*
X45059728Y-57037848D01*
X45077113Y-57095429D01*
X45094141Y-57153286D01*
X45095182Y-57155278D01*
X45095830Y-57157423D01*
X45124115Y-57210620D01*
X45152010Y-57263978D01*
X45153413Y-57265723D01*
X45154469Y-57267709D01*
X45192544Y-57314392D01*
X45230276Y-57361323D01*
X45231998Y-57362768D01*
X45233414Y-57364504D01*
X45279743Y-57402831D01*
X45325960Y-57441611D01*
X45327930Y-57442694D01*
X45329656Y-57444122D01*
X45382548Y-57472721D01*
X45435416Y-57501785D01*
X45437559Y-57502465D01*
X45439529Y-57503530D01*
X45497044Y-57521334D01*
X45554476Y-57539552D01*
X45556704Y-57539802D01*
X45558849Y-57540466D01*
X45618716Y-57546758D01*
X45678603Y-57553476D01*
X45682918Y-57553506D01*
X45683071Y-57553522D01*
X45683224Y-57553508D01*
X45687539Y-57553538D01*
X47582769Y-57553538D01*
X47642707Y-57547661D01*
X47702693Y-57542202D01*
X47704848Y-57541568D01*
X47707079Y-57541349D01*
X47764660Y-57523964D01*
X47822517Y-57506936D01*
X47824509Y-57505895D01*
X47826654Y-57505247D01*
X47879851Y-57476962D01*
X47933209Y-57449067D01*
X47934954Y-57447664D01*
X47936940Y-57446608D01*
X47983623Y-57408533D01*
X48030554Y-57370801D01*
X48031999Y-57369079D01*
X48033735Y-57367663D01*
X48072062Y-57321334D01*
X48110842Y-57275117D01*
X48111925Y-57273147D01*
X48113353Y-57271421D01*
X48141952Y-57218529D01*
X48171016Y-57165661D01*
X48171696Y-57163518D01*
X48172761Y-57161548D01*
X48190565Y-57104033D01*
X48208783Y-57046601D01*
X48209033Y-57044373D01*
X48209697Y-57042228D01*
X48215989Y-56982361D01*
X48222707Y-56922474D01*
X48222737Y-56918159D01*
X48222753Y-56918006D01*
X48222739Y-56917853D01*
X48222769Y-56913538D01*
X48222769Y-56806142D01*
X48290814Y-56794532D01*
X48321697Y-56786094D01*
X48353257Y-56780636D01*
X48361855Y-56778200D01*
X48579091Y-56715039D01*
X48613505Y-56701266D01*
X48648917Y-56690272D01*
X48657127Y-56686745D01*
X48854522Y-56600307D01*
X48883869Y-56583873D01*
X48914590Y-56570152D01*
X48922323Y-56565674D01*
X49057882Y-56485925D01*
X49089260Y-56463070D01*
X49122245Y-56442605D01*
X49129304Y-56437125D01*
X49309555Y-56295190D01*
X49345441Y-56260754D01*
X49382675Y-56227777D01*
X49388709Y-56221185D01*
X49539380Y-56054254D01*
X49569391Y-56013650D01*
X49600893Y-55974222D01*
X49605711Y-55966696D01*
X49725779Y-55776202D01*
X49747877Y-55732117D01*
X49771780Y-55688970D01*
X49775269Y-55680743D01*
X49863713Y-55468120D01*
X49877303Y-55423629D01*
X49893106Y-55379856D01*
X49895244Y-55371179D01*
X49951043Y-55137861D01*
X49956248Y-55100104D01*
X49964323Y-55062838D01*
X49965291Y-55053955D01*
X49969405Y-55013629D01*
X49969485Y-54993391D01*
X49972235Y-54973334D01*
X49972517Y-54964403D01*
X49974651Y-54877597D01*
X49973878Y-54867054D01*
X49974822Y-54856524D01*
X49974685Y-54847589D01*
X49972309Y-54741127D01*
X49971624Y-54735453D01*
X49971954Y-54729741D01*
X49971532Y-54720815D01*
X49965330Y-54606238D01*
X49964561Y-54601214D01*
X49964703Y-54596129D01*
X49964017Y-54587219D01*
X49954673Y-54476063D01*
X49953267Y-54468405D01*
X49953186Y-54460619D01*
X49952159Y-54451742D01*
X49940357Y-54355542D01*
X49936418Y-54337911D01*
X49934961Y-54319890D01*
X49933313Y-54311107D01*
X49919735Y-54241402D01*
X49908408Y-54203463D01*
X49899828Y-54164799D01*
X49896990Y-54156326D01*
X49841107Y-53993224D01*
X49823086Y-53953704D01*
X49807456Y-53913182D01*
X49803386Y-53905226D01*
X49700335Y-53707201D01*
X49673666Y-53666278D01*
X49648763Y-53624246D01*
X49643429Y-53617076D01*
X49508998Y-53438974D01*
X49490572Y-53418967D01*
X49541902Y-53403860D01*
X49543894Y-53402819D01*
X49546039Y-53402171D01*
X49599236Y-53373886D01*
X49652594Y-53345991D01*
X49654339Y-53344588D01*
X49656325Y-53343532D01*
X49703030Y-53305440D01*
X49749939Y-53267725D01*
X49751384Y-53266003D01*
X49753120Y-53264587D01*
X49791447Y-53218258D01*
X49830227Y-53172041D01*
X49831310Y-53170071D01*
X49832738Y-53168345D01*
X49861337Y-53115453D01*
X49890401Y-53062585D01*
X49891081Y-53060442D01*
X49892146Y-53058472D01*
X49909950Y-53000957D01*
X49928168Y-52943525D01*
X49928418Y-52941297D01*
X49929082Y-52939152D01*
X49935374Y-52879285D01*
X49942092Y-52819398D01*
X49942122Y-52815083D01*
X49942138Y-52814930D01*
X49942124Y-52814777D01*
X49942154Y-52810462D01*
X49942154Y-52107077D01*
X49936277Y-52047139D01*
X49930818Y-51987153D01*
X49930184Y-51984998D01*
X49929965Y-51982767D01*
X49912580Y-51925186D01*
X49895552Y-51867329D01*
X49894511Y-51865337D01*
X49893863Y-51863192D01*
X49865578Y-51809995D01*
X49837683Y-51756637D01*
X49836280Y-51754892D01*
X49835224Y-51752906D01*
X49797149Y-51706223D01*
X49759417Y-51659292D01*
X49757695Y-51657847D01*
X49756279Y-51656111D01*
X49709950Y-51617784D01*
X49663733Y-51579004D01*
X49661763Y-51577921D01*
X49660037Y-51576493D01*
X49607145Y-51547894D01*
X49554277Y-51518830D01*
X49552134Y-51518150D01*
X49550164Y-51517085D01*
X49492649Y-51499281D01*
X49435217Y-51481063D01*
X49432989Y-51480813D01*
X49430844Y-51480149D01*
X49370977Y-51473857D01*
X49311090Y-51467139D01*
X49306775Y-51467109D01*
X49306622Y-51467093D01*
X49306469Y-51467107D01*
X49302154Y-51467077D01*
X48515846Y-51467077D01*
X48515846Y-50812769D01*
X49302154Y-50812769D01*
X49362092Y-50806892D01*
X49422078Y-50801433D01*
X49424233Y-50800799D01*
X49426464Y-50800580D01*
X49484045Y-50783195D01*
X49541902Y-50766167D01*
X49543894Y-50765126D01*
X49546039Y-50764478D01*
X49599236Y-50736193D01*
X49652594Y-50708298D01*
X49654339Y-50706895D01*
X49656325Y-50705839D01*
X49703008Y-50667764D01*
X49749939Y-50630032D01*
X49751384Y-50628310D01*
X49753120Y-50626894D01*
X49791447Y-50580565D01*
X49830227Y-50534348D01*
X49831310Y-50532378D01*
X49832738Y-50530652D01*
X49861337Y-50477760D01*
X49890401Y-50424892D01*
X49891081Y-50422749D01*
X49892146Y-50420779D01*
X49909950Y-50363264D01*
X49928168Y-50305832D01*
X49928418Y-50303604D01*
X49929082Y-50301459D01*
X49935374Y-50241592D01*
X49942092Y-50181705D01*
X49942122Y-50177390D01*
X49942138Y-50177237D01*
X49942124Y-50177084D01*
X49942154Y-50172769D01*
X49942154Y-49469385D01*
X49936277Y-49409447D01*
X49930818Y-49349461D01*
X49930184Y-49347306D01*
X49929965Y-49345075D01*
X49912580Y-49287494D01*
X49895552Y-49229637D01*
X49894511Y-49227645D01*
X49893863Y-49225500D01*
X49865578Y-49172303D01*
X49837683Y-49118945D01*
X49836280Y-49117200D01*
X49835224Y-49115214D01*
X49797149Y-49068531D01*
X49759417Y-49021600D01*
X49757695Y-49020155D01*
X49756279Y-49018419D01*
X49709950Y-48980092D01*
X49663733Y-48941312D01*
X49661763Y-48940229D01*
X49660037Y-48938801D01*
X49607145Y-48910202D01*
X49554277Y-48881138D01*
X49552134Y-48880458D01*
X49550164Y-48879393D01*
X49492649Y-48861589D01*
X49435217Y-48843371D01*
X49432989Y-48843121D01*
X49430844Y-48842457D01*
X49370977Y-48836165D01*
X49311090Y-48829447D01*
X49306775Y-48829417D01*
X49306622Y-48829401D01*
X49306469Y-48829415D01*
X49302154Y-48829385D01*
X48515846Y-48829385D01*
X48515846Y-48299864D01*
X48529994Y-48296341D01*
X48563920Y-48291012D01*
X48572555Y-48288710D01*
X48765515Y-48235822D01*
X48819391Y-48215219D01*
X48873584Y-48195419D01*
X48881611Y-48191491D01*
X49055764Y-48104773D01*
X49105632Y-48073527D01*
X49155908Y-48042804D01*
X49161522Y-48038507D01*
X49161609Y-48038452D01*
X49161678Y-48038387D01*
X49163004Y-48037372D01*
X49316851Y-47917914D01*
X49358262Y-47878714D01*
X49400333Y-47840230D01*
X49406259Y-47833542D01*
X49538307Y-47682433D01*
X49568937Y-47639568D01*
X49600875Y-47597652D01*
X49605518Y-47590017D01*
X49714268Y-47408346D01*
X49731600Y-47371687D01*
X49751419Y-47336288D01*
X49754945Y-47328077D01*
X49822667Y-47167306D01*
X49832514Y-47135577D01*
X49845225Y-47104888D01*
X49847763Y-47096320D01*
X49906411Y-46893104D01*
X49912360Y-46860997D01*
X49921281Y-46829591D01*
X49922810Y-46820787D01*
X49957898Y-46610112D01*
X49959927Y-46579999D01*
X49964992Y-46550233D01*
X49965561Y-46541315D01*
X49977673Y-46328389D01*
X49976470Y-46299013D01*
X49978315Y-46269668D01*
X49977940Y-46260740D01*
X49967658Y-46050769D01*
X49963220Y-46020724D01*
X49961823Y-45990388D01*
X49960481Y-45981553D01*
X49928387Y-45779746D01*
X49919966Y-45747502D01*
X49914522Y-45714616D01*
X49912148Y-45706000D01*
X49858825Y-45517566D01*
X49844699Y-45481522D01*
X49833292Y-45444516D01*
X49829781Y-45436298D01*
X49755812Y-45266444D01*
X49732885Y-45225307D01*
X49711955Y-45183091D01*
X49707170Y-45175544D01*
X49665306Y-45110514D01*
X49703008Y-45079764D01*
X49749939Y-45042032D01*
X49751384Y-45040310D01*
X49753120Y-45038894D01*
X49791447Y-44992565D01*
X49830227Y-44946348D01*
X49831310Y-44944378D01*
X49832738Y-44942652D01*
X49861337Y-44889760D01*
X49890401Y-44836892D01*
X49891081Y-44834749D01*
X49892146Y-44832779D01*
X49909950Y-44775264D01*
X49928168Y-44717832D01*
X49928418Y-44715604D01*
X49929082Y-44713459D01*
X49935378Y-44653558D01*
X49942092Y-44593705D01*
X49942122Y-44589390D01*
X49942138Y-44589237D01*
X49942124Y-44589084D01*
X49942154Y-44584769D01*
X49942154Y-42298769D01*
X49936277Y-42238831D01*
X49930818Y-42178845D01*
X49930184Y-42176690D01*
X49929965Y-42174459D01*
X49912580Y-42116878D01*
X49895552Y-42059021D01*
X49894511Y-42057029D01*
X49893863Y-42054884D01*
X49865578Y-42001687D01*
X49837683Y-41948329D01*
X49836280Y-41946584D01*
X49835224Y-41944598D01*
X49797149Y-41897915D01*
X49759417Y-41850984D01*
X49757695Y-41849539D01*
X49756279Y-41847803D01*
X49709934Y-41809463D01*
X49663733Y-41770696D01*
X49661763Y-41769613D01*
X49660037Y-41768185D01*
X49607145Y-41739586D01*
X49554277Y-41710522D01*
X49552134Y-41709842D01*
X49550164Y-41708777D01*
X49492649Y-41690973D01*
X49435217Y-41672755D01*
X49432989Y-41672505D01*
X49430844Y-41671841D01*
X49370977Y-41665549D01*
X49354194Y-41663666D01*
X49362092Y-41662892D01*
X49422078Y-41657433D01*
X49424233Y-41656799D01*
X49426464Y-41656580D01*
X49484045Y-41639195D01*
X49541902Y-41622167D01*
X49543894Y-41621126D01*
X49546039Y-41620478D01*
X49599236Y-41592193D01*
X49652594Y-41564298D01*
X49654339Y-41562895D01*
X49656325Y-41561839D01*
X49703008Y-41523764D01*
X49749939Y-41486032D01*
X49751384Y-41484310D01*
X49753120Y-41482894D01*
X49791447Y-41436565D01*
X49830227Y-41390348D01*
X49831310Y-41388378D01*
X49832738Y-41386652D01*
X49861337Y-41333760D01*
X49890401Y-41280892D01*
X49891081Y-41278749D01*
X49892146Y-41276779D01*
X49909950Y-41219264D01*
X49928168Y-41161832D01*
X49928418Y-41159604D01*
X49929082Y-41157459D01*
X49935374Y-41097592D01*
X49942092Y-41037705D01*
X49942122Y-41033390D01*
X49942138Y-41033237D01*
X49942124Y-41033084D01*
X49942154Y-41028769D01*
X49942154Y-40325385D01*
X49936277Y-40265447D01*
X49930818Y-40205461D01*
X49930184Y-40203306D01*
X49929965Y-40201075D01*
X49912580Y-40143494D01*
X49895552Y-40085637D01*
X49894511Y-40083645D01*
X49893863Y-40081500D01*
X49865578Y-40028303D01*
X49837683Y-39974945D01*
X49836280Y-39973200D01*
X49835224Y-39971214D01*
X49797149Y-39924531D01*
X49759417Y-39877600D01*
X49757695Y-39876155D01*
X49756279Y-39874419D01*
X49709950Y-39836092D01*
X49663733Y-39797312D01*
X49661763Y-39796229D01*
X49660037Y-39794801D01*
X49607145Y-39766202D01*
X49554277Y-39737138D01*
X49552134Y-39736458D01*
X49550164Y-39735393D01*
X49492649Y-39717589D01*
X49435217Y-39699371D01*
X49432989Y-39699121D01*
X49430844Y-39698457D01*
X49370977Y-39692165D01*
X49311090Y-39685447D01*
X49306775Y-39685417D01*
X49306622Y-39685401D01*
X49306469Y-39685415D01*
X49302154Y-39685385D01*
X48222769Y-39685385D01*
X48222769Y-38586462D01*
X48216892Y-38526524D01*
X48211433Y-38466538D01*
X48210799Y-38464383D01*
X48210580Y-38462152D01*
X48193195Y-38404571D01*
X48176167Y-38346714D01*
X48175126Y-38344722D01*
X48174478Y-38342577D01*
X48146193Y-38289380D01*
X48118298Y-38236022D01*
X48116895Y-38234277D01*
X48115839Y-38232291D01*
X48077764Y-38185608D01*
X48040032Y-38138677D01*
X48038310Y-38137232D01*
X48036894Y-38135496D01*
X47990565Y-38097169D01*
X47944348Y-38058389D01*
X47942378Y-38057306D01*
X47940652Y-38055878D01*
X47887760Y-38027279D01*
X47834892Y-37998215D01*
X47832749Y-37997535D01*
X47830779Y-37996470D01*
X47773264Y-37978666D01*
X47715832Y-37960448D01*
X47713604Y-37960198D01*
X47711459Y-37959534D01*
X47651592Y-37953242D01*
X47591705Y-37946524D01*
X47587390Y-37946494D01*
X47587237Y-37946478D01*
X47587084Y-37946492D01*
X47582769Y-37946462D01*
X45687539Y-37946462D01*
X45627601Y-37952339D01*
X45567615Y-37957798D01*
X45565460Y-37958432D01*
X45563229Y-37958651D01*
X45505648Y-37976036D01*
X45447791Y-37993064D01*
X45445799Y-37994105D01*
X45443654Y-37994753D01*
X45390457Y-38023038D01*
X45337099Y-38050933D01*
X45335354Y-38052336D01*
X45333368Y-38053392D01*
X45286685Y-38091467D01*
X45239754Y-38129199D01*
X45238309Y-38130921D01*
X45236573Y-38132337D01*
X45198246Y-38178666D01*
X45159466Y-38224883D01*
X45158383Y-38226853D01*
X45156955Y-38228579D01*
X45128356Y-38281471D01*
X45099292Y-38334339D01*
X45098612Y-38336482D01*
X45097547Y-38338452D01*
X45079743Y-38395967D01*
X45061525Y-38453399D01*
X45061275Y-38455627D01*
X45060611Y-38457772D01*
X45054319Y-38517639D01*
X45047601Y-38577526D01*
X45047571Y-38581841D01*
X45047555Y-38581994D01*
X45047569Y-38582147D01*
X45047539Y-38586462D01*
X44660000Y-38586462D01*
X44660000Y-32503889D01*
X44698815Y-32551185D01*
%TA.AperFunction,Conductor*%
D27*
G36*
X44698815Y-32551185D02*
G01*
X44795506Y-32630537D01*
X44905820Y-32689502D01*
X45025518Y-32725812D01*
X45150000Y-32738072D01*
X46198626Y-32738072D01*
X50515000Y-37054447D01*
X50515001Y-57845552D01*
X49255808Y-59104746D01*
X49227762Y-59127763D01*
X49158689Y-59211928D01*
X49100000Y-59211928D01*
X49000000Y-59221777D01*
X48900000Y-59211928D01*
X48600000Y-59211928D01*
X48475518Y-59224188D01*
X48355820Y-59260498D01*
X48245506Y-59319463D01*
X48148815Y-59398815D01*
X48069463Y-59495506D01*
X48010498Y-59605820D01*
X47974188Y-59725518D01*
X47961928Y-59850000D01*
X47961928Y-60711928D01*
X46250000Y-60711928D01*
X46125518Y-60724188D01*
X46005820Y-60760498D01*
X45895506Y-60819463D01*
X45798815Y-60898815D01*
X45719463Y-60995506D01*
X45660498Y-61105820D01*
X45624188Y-61225518D01*
X45611928Y-61350000D01*
X45611928Y-64350000D01*
X45624188Y-64474482D01*
X45660498Y-64594180D01*
X45719463Y-64704494D01*
X45798815Y-64801185D01*
X45846111Y-64840000D01*
X44782281Y-64840000D01*
X44733132Y-64835181D01*
X44716909Y-64830283D01*
X44701945Y-64822326D01*
X44688812Y-64811615D01*
X44678011Y-64798559D01*
X44669951Y-64783652D01*
X44664938Y-64767459D01*
X44660000Y-64720475D01*
X44660000Y-38586462D01*
X45047539Y-38586462D01*
X45047539Y-56913538D01*
X45053416Y-56973476D01*
X45058875Y-57033462D01*
X45059509Y-57035617D01*
X45059728Y-57037848D01*
X45077113Y-57095429D01*
X45094141Y-57153286D01*
X45095182Y-57155278D01*
X45095830Y-57157423D01*
X45124115Y-57210620D01*
X45152010Y-57263978D01*
X45153413Y-57265723D01*
X45154469Y-57267709D01*
X45192544Y-57314392D01*
X45230276Y-57361323D01*
X45231998Y-57362768D01*
X45233414Y-57364504D01*
X45279743Y-57402831D01*
X45325960Y-57441611D01*
X45327930Y-57442694D01*
X45329656Y-57444122D01*
X45382548Y-57472721D01*
X45435416Y-57501785D01*
X45437559Y-57502465D01*
X45439529Y-57503530D01*
X45497044Y-57521334D01*
X45554476Y-57539552D01*
X45556704Y-57539802D01*
X45558849Y-57540466D01*
X45618716Y-57546758D01*
X45678603Y-57553476D01*
X45682918Y-57553506D01*
X45683071Y-57553522D01*
X45683224Y-57553508D01*
X45687539Y-57553538D01*
X47582769Y-57553538D01*
X47642707Y-57547661D01*
X47702693Y-57542202D01*
X47704848Y-57541568D01*
X47707079Y-57541349D01*
X47764660Y-57523964D01*
X47822517Y-57506936D01*
X47824509Y-57505895D01*
X47826654Y-57505247D01*
X47879851Y-57476962D01*
X47933209Y-57449067D01*
X47934954Y-57447664D01*
X47936940Y-57446608D01*
X47983623Y-57408533D01*
X48030554Y-57370801D01*
X48031999Y-57369079D01*
X48033735Y-57367663D01*
X48072062Y-57321334D01*
X48110842Y-57275117D01*
X48111925Y-57273147D01*
X48113353Y-57271421D01*
X48141952Y-57218529D01*
X48171016Y-57165661D01*
X48171696Y-57163518D01*
X48172761Y-57161548D01*
X48190565Y-57104033D01*
X48208783Y-57046601D01*
X48209033Y-57044373D01*
X48209697Y-57042228D01*
X48215989Y-56982361D01*
X48222707Y-56922474D01*
X48222737Y-56918159D01*
X48222753Y-56918006D01*
X48222739Y-56917853D01*
X48222769Y-56913538D01*
X48222769Y-56806142D01*
X48290814Y-56794532D01*
X48321697Y-56786094D01*
X48353257Y-56780636D01*
X48361855Y-56778200D01*
X48579091Y-56715039D01*
X48613505Y-56701266D01*
X48648917Y-56690272D01*
X48657127Y-56686745D01*
X48854522Y-56600307D01*
X48883869Y-56583873D01*
X48914590Y-56570152D01*
X48922323Y-56565674D01*
X49057882Y-56485925D01*
X49089260Y-56463070D01*
X49122245Y-56442605D01*
X49129304Y-56437125D01*
X49309555Y-56295190D01*
X49345441Y-56260754D01*
X49382675Y-56227777D01*
X49388709Y-56221185D01*
X49539380Y-56054254D01*
X49569391Y-56013650D01*
X49600893Y-55974222D01*
X49605711Y-55966696D01*
X49725779Y-55776202D01*
X49747877Y-55732117D01*
X49771780Y-55688970D01*
X49775269Y-55680743D01*
X49863713Y-55468120D01*
X49877303Y-55423629D01*
X49893106Y-55379856D01*
X49895244Y-55371179D01*
X49951043Y-55137861D01*
X49956248Y-55100104D01*
X49964323Y-55062838D01*
X49965291Y-55053955D01*
X49969405Y-55013629D01*
X49969485Y-54993391D01*
X49972235Y-54973334D01*
X49972517Y-54964403D01*
X49974651Y-54877597D01*
X49973878Y-54867054D01*
X49974822Y-54856524D01*
X49974685Y-54847589D01*
X49972309Y-54741127D01*
X49971624Y-54735453D01*
X49971954Y-54729741D01*
X49971532Y-54720815D01*
X49965330Y-54606238D01*
X49964561Y-54601214D01*
X49964703Y-54596129D01*
X49964017Y-54587219D01*
X49954673Y-54476063D01*
X49953267Y-54468405D01*
X49953186Y-54460619D01*
X49952159Y-54451742D01*
X49940357Y-54355542D01*
X49936418Y-54337911D01*
X49934961Y-54319890D01*
X49933313Y-54311107D01*
X49919735Y-54241402D01*
X49908408Y-54203463D01*
X49899828Y-54164799D01*
X49896990Y-54156326D01*
X49841107Y-53993224D01*
X49823086Y-53953704D01*
X49807456Y-53913182D01*
X49803386Y-53905226D01*
X49700335Y-53707201D01*
X49673666Y-53666278D01*
X49648763Y-53624246D01*
X49643429Y-53617076D01*
X49508998Y-53438974D01*
X49490572Y-53418967D01*
X49541902Y-53403860D01*
X49543894Y-53402819D01*
X49546039Y-53402171D01*
X49599236Y-53373886D01*
X49652594Y-53345991D01*
X49654339Y-53344588D01*
X49656325Y-53343532D01*
X49703030Y-53305440D01*
X49749939Y-53267725D01*
X49751384Y-53266003D01*
X49753120Y-53264587D01*
X49791447Y-53218258D01*
X49830227Y-53172041D01*
X49831310Y-53170071D01*
X49832738Y-53168345D01*
X49861337Y-53115453D01*
X49890401Y-53062585D01*
X49891081Y-53060442D01*
X49892146Y-53058472D01*
X49909950Y-53000957D01*
X49928168Y-52943525D01*
X49928418Y-52941297D01*
X49929082Y-52939152D01*
X49935374Y-52879285D01*
X49942092Y-52819398D01*
X49942122Y-52815083D01*
X49942138Y-52814930D01*
X49942124Y-52814777D01*
X49942154Y-52810462D01*
X49942154Y-52107077D01*
X49936277Y-52047139D01*
X49930818Y-51987153D01*
X49930184Y-51984998D01*
X49929965Y-51982767D01*
X49912580Y-51925186D01*
X49895552Y-51867329D01*
X49894511Y-51865337D01*
X49893863Y-51863192D01*
X49865578Y-51809995D01*
X49837683Y-51756637D01*
X49836280Y-51754892D01*
X49835224Y-51752906D01*
X49797149Y-51706223D01*
X49759417Y-51659292D01*
X49757695Y-51657847D01*
X49756279Y-51656111D01*
X49709950Y-51617784D01*
X49663733Y-51579004D01*
X49661763Y-51577921D01*
X49660037Y-51576493D01*
X49607145Y-51547894D01*
X49554277Y-51518830D01*
X49552134Y-51518150D01*
X49550164Y-51517085D01*
X49492649Y-51499281D01*
X49435217Y-51481063D01*
X49432989Y-51480813D01*
X49430844Y-51480149D01*
X49370977Y-51473857D01*
X49311090Y-51467139D01*
X49306775Y-51467109D01*
X49306622Y-51467093D01*
X49306469Y-51467107D01*
X49302154Y-51467077D01*
X48515846Y-51467077D01*
X48515846Y-50812769D01*
X49302154Y-50812769D01*
X49362092Y-50806892D01*
X49422078Y-50801433D01*
X49424233Y-50800799D01*
X49426464Y-50800580D01*
X49484045Y-50783195D01*
X49541902Y-50766167D01*
X49543894Y-50765126D01*
X49546039Y-50764478D01*
X49599236Y-50736193D01*
X49652594Y-50708298D01*
X49654339Y-50706895D01*
X49656325Y-50705839D01*
X49703008Y-50667764D01*
X49749939Y-50630032D01*
X49751384Y-50628310D01*
X49753120Y-50626894D01*
X49791447Y-50580565D01*
X49830227Y-50534348D01*
X49831310Y-50532378D01*
X49832738Y-50530652D01*
X49861337Y-50477760D01*
X49890401Y-50424892D01*
X49891081Y-50422749D01*
X49892146Y-50420779D01*
X49909950Y-50363264D01*
X49928168Y-50305832D01*
X49928418Y-50303604D01*
X49929082Y-50301459D01*
X49935374Y-50241592D01*
X49942092Y-50181705D01*
X49942122Y-50177390D01*
X49942138Y-50177237D01*
X49942124Y-50177084D01*
X49942154Y-50172769D01*
X49942154Y-49469385D01*
X49936277Y-49409447D01*
X49930818Y-49349461D01*
X49930184Y-49347306D01*
X49929965Y-49345075D01*
X49912580Y-49287494D01*
X49895552Y-49229637D01*
X49894511Y-49227645D01*
X49893863Y-49225500D01*
X49865578Y-49172303D01*
X49837683Y-49118945D01*
X49836280Y-49117200D01*
X49835224Y-49115214D01*
X49797149Y-49068531D01*
X49759417Y-49021600D01*
X49757695Y-49020155D01*
X49756279Y-49018419D01*
X49709950Y-48980092D01*
X49663733Y-48941312D01*
X49661763Y-48940229D01*
X49660037Y-48938801D01*
X49607145Y-48910202D01*
X49554277Y-48881138D01*
X49552134Y-48880458D01*
X49550164Y-48879393D01*
X49492649Y-48861589D01*
X49435217Y-48843371D01*
X49432989Y-48843121D01*
X49430844Y-48842457D01*
X49370977Y-48836165D01*
X49311090Y-48829447D01*
X49306775Y-48829417D01*
X49306622Y-48829401D01*
X49306469Y-48829415D01*
X49302154Y-48829385D01*
X48515846Y-48829385D01*
X48515846Y-48299864D01*
X48529994Y-48296341D01*
X48563920Y-48291012D01*
X48572555Y-48288710D01*
X48765515Y-48235822D01*
X48819391Y-48215219D01*
X48873584Y-48195419D01*
X48881611Y-48191491D01*
X49055764Y-48104773D01*
X49105632Y-48073527D01*
X49155908Y-48042804D01*
X49161522Y-48038507D01*
X49161609Y-48038452D01*
X49161678Y-48038387D01*
X49163004Y-48037372D01*
X49316851Y-47917914D01*
X49358262Y-47878714D01*
X49400333Y-47840230D01*
X49406259Y-47833542D01*
X49538307Y-47682433D01*
X49568937Y-47639568D01*
X49600875Y-47597652D01*
X49605518Y-47590017D01*
X49714268Y-47408346D01*
X49731600Y-47371687D01*
X49751419Y-47336288D01*
X49754945Y-47328077D01*
X49822667Y-47167306D01*
X49832514Y-47135577D01*
X49845225Y-47104888D01*
X49847763Y-47096320D01*
X49906411Y-46893104D01*
X49912360Y-46860997D01*
X49921281Y-46829591D01*
X49922810Y-46820787D01*
X49957898Y-46610112D01*
X49959927Y-46579999D01*
X49964992Y-46550233D01*
X49965561Y-46541315D01*
X49977673Y-46328389D01*
X49976470Y-46299013D01*
X49978315Y-46269668D01*
X49977940Y-46260740D01*
X49967658Y-46050769D01*
X49963220Y-46020724D01*
X49961823Y-45990388D01*
X49960481Y-45981553D01*
X49928387Y-45779746D01*
X49919966Y-45747502D01*
X49914522Y-45714616D01*
X49912148Y-45706000D01*
X49858825Y-45517566D01*
X49844699Y-45481522D01*
X49833292Y-45444516D01*
X49829781Y-45436298D01*
X49755812Y-45266444D01*
X49732885Y-45225307D01*
X49711955Y-45183091D01*
X49707170Y-45175544D01*
X49665306Y-45110514D01*
X49703008Y-45079764D01*
X49749939Y-45042032D01*
X49751384Y-45040310D01*
X49753120Y-45038894D01*
X49791447Y-44992565D01*
X49830227Y-44946348D01*
X49831310Y-44944378D01*
X49832738Y-44942652D01*
X49861337Y-44889760D01*
X49890401Y-44836892D01*
X49891081Y-44834749D01*
X49892146Y-44832779D01*
X49909950Y-44775264D01*
X49928168Y-44717832D01*
X49928418Y-44715604D01*
X49929082Y-44713459D01*
X49935378Y-44653558D01*
X49942092Y-44593705D01*
X49942122Y-44589390D01*
X49942138Y-44589237D01*
X49942124Y-44589084D01*
X49942154Y-44584769D01*
X49942154Y-42298769D01*
X49936277Y-42238831D01*
X49930818Y-42178845D01*
X49930184Y-42176690D01*
X49929965Y-42174459D01*
X49912580Y-42116878D01*
X49895552Y-42059021D01*
X49894511Y-42057029D01*
X49893863Y-42054884D01*
X49865578Y-42001687D01*
X49837683Y-41948329D01*
X49836280Y-41946584D01*
X49835224Y-41944598D01*
X49797149Y-41897915D01*
X49759417Y-41850984D01*
X49757695Y-41849539D01*
X49756279Y-41847803D01*
X49709934Y-41809463D01*
X49663733Y-41770696D01*
X49661763Y-41769613D01*
X49660037Y-41768185D01*
X49607145Y-41739586D01*
X49554277Y-41710522D01*
X49552134Y-41709842D01*
X49550164Y-41708777D01*
X49492649Y-41690973D01*
X49435217Y-41672755D01*
X49432989Y-41672505D01*
X49430844Y-41671841D01*
X49370977Y-41665549D01*
X49354194Y-41663666D01*
X49362092Y-41662892D01*
X49422078Y-41657433D01*
X49424233Y-41656799D01*
X49426464Y-41656580D01*
X49484045Y-41639195D01*
X49541902Y-41622167D01*
X49543894Y-41621126D01*
X49546039Y-41620478D01*
X49599236Y-41592193D01*
X49652594Y-41564298D01*
X49654339Y-41562895D01*
X49656325Y-41561839D01*
X49703008Y-41523764D01*
X49749939Y-41486032D01*
X49751384Y-41484310D01*
X49753120Y-41482894D01*
X49791447Y-41436565D01*
X49830227Y-41390348D01*
X49831310Y-41388378D01*
X49832738Y-41386652D01*
X49861337Y-41333760D01*
X49890401Y-41280892D01*
X49891081Y-41278749D01*
X49892146Y-41276779D01*
X49909950Y-41219264D01*
X49928168Y-41161832D01*
X49928418Y-41159604D01*
X49929082Y-41157459D01*
X49935374Y-41097592D01*
X49942092Y-41037705D01*
X49942122Y-41033390D01*
X49942138Y-41033237D01*
X49942124Y-41033084D01*
X49942154Y-41028769D01*
X49942154Y-40325385D01*
X49936277Y-40265447D01*
X49930818Y-40205461D01*
X49930184Y-40203306D01*
X49929965Y-40201075D01*
X49912580Y-40143494D01*
X49895552Y-40085637D01*
X49894511Y-40083645D01*
X49893863Y-40081500D01*
X49865578Y-40028303D01*
X49837683Y-39974945D01*
X49836280Y-39973200D01*
X49835224Y-39971214D01*
X49797149Y-39924531D01*
X49759417Y-39877600D01*
X49757695Y-39876155D01*
X49756279Y-39874419D01*
X49709950Y-39836092D01*
X49663733Y-39797312D01*
X49661763Y-39796229D01*
X49660037Y-39794801D01*
X49607145Y-39766202D01*
X49554277Y-39737138D01*
X49552134Y-39736458D01*
X49550164Y-39735393D01*
X49492649Y-39717589D01*
X49435217Y-39699371D01*
X49432989Y-39699121D01*
X49430844Y-39698457D01*
X49370977Y-39692165D01*
X49311090Y-39685447D01*
X49306775Y-39685417D01*
X49306622Y-39685401D01*
X49306469Y-39685415D01*
X49302154Y-39685385D01*
X48222769Y-39685385D01*
X48222769Y-38586462D01*
X48216892Y-38526524D01*
X48211433Y-38466538D01*
X48210799Y-38464383D01*
X48210580Y-38462152D01*
X48193195Y-38404571D01*
X48176167Y-38346714D01*
X48175126Y-38344722D01*
X48174478Y-38342577D01*
X48146193Y-38289380D01*
X48118298Y-38236022D01*
X48116895Y-38234277D01*
X48115839Y-38232291D01*
X48077764Y-38185608D01*
X48040032Y-38138677D01*
X48038310Y-38137232D01*
X48036894Y-38135496D01*
X47990565Y-38097169D01*
X47944348Y-38058389D01*
X47942378Y-38057306D01*
X47940652Y-38055878D01*
X47887760Y-38027279D01*
X47834892Y-37998215D01*
X47832749Y-37997535D01*
X47830779Y-37996470D01*
X47773264Y-37978666D01*
X47715832Y-37960448D01*
X47713604Y-37960198D01*
X47711459Y-37959534D01*
X47651592Y-37953242D01*
X47591705Y-37946524D01*
X47587390Y-37946494D01*
X47587237Y-37946478D01*
X47587084Y-37946492D01*
X47582769Y-37946462D01*
X45687539Y-37946462D01*
X45627601Y-37952339D01*
X45567615Y-37957798D01*
X45565460Y-37958432D01*
X45563229Y-37958651D01*
X45505648Y-37976036D01*
X45447791Y-37993064D01*
X45445799Y-37994105D01*
X45443654Y-37994753D01*
X45390457Y-38023038D01*
X45337099Y-38050933D01*
X45335354Y-38052336D01*
X45333368Y-38053392D01*
X45286685Y-38091467D01*
X45239754Y-38129199D01*
X45238309Y-38130921D01*
X45236573Y-38132337D01*
X45198246Y-38178666D01*
X45159466Y-38224883D01*
X45158383Y-38226853D01*
X45156955Y-38228579D01*
X45128356Y-38281471D01*
X45099292Y-38334339D01*
X45098612Y-38336482D01*
X45097547Y-38338452D01*
X45079743Y-38395967D01*
X45061525Y-38453399D01*
X45061275Y-38455627D01*
X45060611Y-38457772D01*
X45054319Y-38517639D01*
X45047601Y-38577526D01*
X45047571Y-38581841D01*
X45047555Y-38581994D01*
X45047569Y-38582147D01*
X45047539Y-38586462D01*
X44660000Y-38586462D01*
X44660000Y-32503889D01*
X44698815Y-32551185D01*
G37*
%TD.AperFunction*%
D26*
X68100000Y-61788072D02*
X68111928Y-61788072D01*
X68111928Y-64350000D01*
X68124188Y-64474482D01*
X68160498Y-64594180D01*
X68219463Y-64704494D01*
X68298815Y-64801185D01*
X68346111Y-64840000D01*
X48653889Y-64840000D01*
X48701185Y-64801185D01*
X48780537Y-64704494D01*
X48839502Y-64594180D01*
X48875812Y-64474482D01*
X48888072Y-64350000D01*
X48888072Y-61788072D01*
X48900000Y-61788072D01*
X49000000Y-61778223D01*
X49100000Y-61788072D01*
X49400000Y-61788072D01*
X49500000Y-61778223D01*
X49600000Y-61788072D01*
X49900000Y-61788072D01*
X50000000Y-61778223D01*
X50100000Y-61788072D01*
X50400000Y-61788072D01*
X50500000Y-61778223D01*
X50600000Y-61788072D01*
X50900000Y-61788072D01*
X51000000Y-61778223D01*
X51100000Y-61788072D01*
X51400000Y-61788072D01*
X51500000Y-61778223D01*
X51600000Y-61788072D01*
X51715000Y-61788072D01*
X51715000Y-61851939D01*
X51754774Y-62051898D01*
X51832795Y-62240256D01*
X51946063Y-62409774D01*
X52090226Y-62553937D01*
X52259744Y-62667205D01*
X52448102Y-62745226D01*
X52648061Y-62785000D01*
X52851939Y-62785000D01*
X53051898Y-62745226D01*
X53240256Y-62667205D01*
X53250000Y-62660694D01*
X53259744Y-62667205D01*
X53448102Y-62745226D01*
X53648061Y-62785000D01*
X53851939Y-62785000D01*
X54051898Y-62745226D01*
X54240256Y-62667205D01*
X54250000Y-62660694D01*
X54259744Y-62667205D01*
X54448102Y-62745226D01*
X54648061Y-62785000D01*
X54851939Y-62785000D01*
X55051898Y-62745226D01*
X55240256Y-62667205D01*
X55250000Y-62660694D01*
X55259744Y-62667205D01*
X55448102Y-62745226D01*
X55648061Y-62785000D01*
X55851939Y-62785000D01*
X56051898Y-62745226D01*
X56240256Y-62667205D01*
X56250000Y-62660694D01*
X56259744Y-62667205D01*
X56448102Y-62745226D01*
X56648061Y-62785000D01*
X56851939Y-62785000D01*
X57051898Y-62745226D01*
X57240256Y-62667205D01*
X57409774Y-62553937D01*
X57500000Y-62463711D01*
X57590226Y-62553937D01*
X57759744Y-62667205D01*
X57948102Y-62745226D01*
X58148061Y-62785000D01*
X58351939Y-62785000D01*
X58551898Y-62745226D01*
X58740256Y-62667205D01*
X58750000Y-62660694D01*
X58759744Y-62667205D01*
X58948102Y-62745226D01*
X59148061Y-62785000D01*
X59351939Y-62785000D01*
X59551898Y-62745226D01*
X59740256Y-62667205D01*
X59909774Y-62553937D01*
X60053937Y-62409774D01*
X60167205Y-62240256D01*
X60245226Y-62051898D01*
X60285000Y-61851939D01*
X60285000Y-61788072D01*
X60400000Y-61788072D01*
X60500000Y-61778223D01*
X60600000Y-61788072D01*
X60900000Y-61788072D01*
X61000000Y-61778223D01*
X61100000Y-61788072D01*
X61400000Y-61788072D01*
X61500000Y-61778223D01*
X61600000Y-61788072D01*
X61900000Y-61788072D01*
X62000000Y-61778223D01*
X62100000Y-61788072D01*
X62400000Y-61788072D01*
X62500000Y-61778223D01*
X62600000Y-61788072D01*
X62900000Y-61788072D01*
X63000000Y-61778223D01*
X63100000Y-61788072D01*
X63400000Y-61788072D01*
X63500000Y-61778223D01*
X63600000Y-61788072D01*
X63900000Y-61788072D01*
X64000000Y-61778223D01*
X64100000Y-61788072D01*
X64400000Y-61788072D01*
X64500000Y-61778223D01*
X64600000Y-61788072D01*
X64900000Y-61788072D01*
X65000000Y-61778223D01*
X65100000Y-61788072D01*
X65400000Y-61788072D01*
X65500000Y-61778223D01*
X65600000Y-61788072D01*
X65900000Y-61788072D01*
X66000000Y-61778223D01*
X66100000Y-61788072D01*
X66400000Y-61788072D01*
X66500000Y-61778223D01*
X66600000Y-61788072D01*
X66900000Y-61788072D01*
X67000000Y-61778223D01*
X67100000Y-61788072D01*
X67400000Y-61788072D01*
X67500000Y-61778223D01*
X67600000Y-61788072D01*
X67900000Y-61788072D01*
X68000000Y-61778223D01*
X68100000Y-61788072D01*
%TA.AperFunction,Conductor*%
D27*
G36*
X68100000Y-61788072D02*
G01*
X68111928Y-61788072D01*
X68111928Y-64350000D01*
X68124188Y-64474482D01*
X68160498Y-64594180D01*
X68219463Y-64704494D01*
X68298815Y-64801185D01*
X68346111Y-64840000D01*
X48653889Y-64840000D01*
X48701185Y-64801185D01*
X48780537Y-64704494D01*
X48839502Y-64594180D01*
X48875812Y-64474482D01*
X48888072Y-64350000D01*
X48888072Y-61788072D01*
X48900000Y-61788072D01*
X49000000Y-61778223D01*
X49100000Y-61788072D01*
X49400000Y-61788072D01*
X49500000Y-61778223D01*
X49600000Y-61788072D01*
X49900000Y-61788072D01*
X50000000Y-61778223D01*
X50100000Y-61788072D01*
X50400000Y-61788072D01*
X50500000Y-61778223D01*
X50600000Y-61788072D01*
X50900000Y-61788072D01*
X51000000Y-61778223D01*
X51100000Y-61788072D01*
X51400000Y-61788072D01*
X51500000Y-61778223D01*
X51600000Y-61788072D01*
X51715000Y-61788072D01*
X51715000Y-61851939D01*
X51754774Y-62051898D01*
X51832795Y-62240256D01*
X51946063Y-62409774D01*
X52090226Y-62553937D01*
X52259744Y-62667205D01*
X52448102Y-62745226D01*
X52648061Y-62785000D01*
X52851939Y-62785000D01*
X53051898Y-62745226D01*
X53240256Y-62667205D01*
X53250000Y-62660694D01*
X53259744Y-62667205D01*
X53448102Y-62745226D01*
X53648061Y-62785000D01*
X53851939Y-62785000D01*
X54051898Y-62745226D01*
X54240256Y-62667205D01*
X54250000Y-62660694D01*
X54259744Y-62667205D01*
X54448102Y-62745226D01*
X54648061Y-62785000D01*
X54851939Y-62785000D01*
X55051898Y-62745226D01*
X55240256Y-62667205D01*
X55250000Y-62660694D01*
X55259744Y-62667205D01*
X55448102Y-62745226D01*
X55648061Y-62785000D01*
X55851939Y-62785000D01*
X56051898Y-62745226D01*
X56240256Y-62667205D01*
X56250000Y-62660694D01*
X56259744Y-62667205D01*
X56448102Y-62745226D01*
X56648061Y-62785000D01*
X56851939Y-62785000D01*
X57051898Y-62745226D01*
X57240256Y-62667205D01*
X57409774Y-62553937D01*
X57500000Y-62463711D01*
X57590226Y-62553937D01*
X57759744Y-62667205D01*
X57948102Y-62745226D01*
X58148061Y-62785000D01*
X58351939Y-62785000D01*
X58551898Y-62745226D01*
X58740256Y-62667205D01*
X58750000Y-62660694D01*
X58759744Y-62667205D01*
X58948102Y-62745226D01*
X59148061Y-62785000D01*
X59351939Y-62785000D01*
X59551898Y-62745226D01*
X59740256Y-62667205D01*
X59909774Y-62553937D01*
X60053937Y-62409774D01*
X60167205Y-62240256D01*
X60245226Y-62051898D01*
X60285000Y-61851939D01*
X60285000Y-61788072D01*
X60400000Y-61788072D01*
X60500000Y-61778223D01*
X60600000Y-61788072D01*
X60900000Y-61788072D01*
X61000000Y-61778223D01*
X61100000Y-61788072D01*
X61400000Y-61788072D01*
X61500000Y-61778223D01*
X61600000Y-61788072D01*
X61900000Y-61788072D01*
X62000000Y-61778223D01*
X62100000Y-61788072D01*
X62400000Y-61788072D01*
X62500000Y-61778223D01*
X62600000Y-61788072D01*
X62900000Y-61788072D01*
X63000000Y-61778223D01*
X63100000Y-61788072D01*
X63400000Y-61788072D01*
X63500000Y-61778223D01*
X63600000Y-61788072D01*
X63900000Y-61788072D01*
X64000000Y-61778223D01*
X64100000Y-61788072D01*
X64400000Y-61788072D01*
X64500000Y-61778223D01*
X64600000Y-61788072D01*
X64900000Y-61788072D01*
X65000000Y-61778223D01*
X65100000Y-61788072D01*
X65400000Y-61788072D01*
X65500000Y-61778223D01*
X65600000Y-61788072D01*
X65900000Y-61788072D01*
X66000000Y-61778223D01*
X66100000Y-61788072D01*
X66400000Y-61788072D01*
X66500000Y-61778223D01*
X66600000Y-61788072D01*
X66900000Y-61788072D01*
X67000000Y-61778223D01*
X67100000Y-61788072D01*
X67400000Y-61788072D01*
X67500000Y-61778223D01*
X67600000Y-61788072D01*
X67900000Y-61788072D01*
X68000000Y-61778223D01*
X68100000Y-61788072D01*
G37*
%TD.AperFunction*%
D26*
X87015001Y-55102885D02*
X87011444Y-55139000D01*
X87025635Y-55283085D01*
X87062911Y-55405964D01*
X87067664Y-55421633D01*
X87135914Y-55549320D01*
X87227763Y-55661238D01*
X87255808Y-55684254D01*
X88744836Y-57173283D01*
X88679439Y-57331166D01*
X88607000Y-57695344D01*
X88607000Y-58066656D01*
X88679439Y-58430834D01*
X88821534Y-58773882D01*
X89027825Y-59082618D01*
X89290382Y-59345175D01*
X89599118Y-59551466D01*
X89942166Y-59693561D01*
X90306344Y-59766000D01*
X90677656Y-59766000D01*
X91041834Y-59693561D01*
X91384882Y-59551466D01*
X91693618Y-59345175D01*
X91956175Y-59082618D01*
X92162466Y-58773882D01*
X92304561Y-58430834D01*
X92340001Y-58252665D01*
X92340001Y-61509336D01*
X92304561Y-61331166D01*
X92162466Y-60988118D01*
X91956175Y-60679382D01*
X91693618Y-60416825D01*
X91384882Y-60210534D01*
X91041834Y-60068439D01*
X90677656Y-59996000D01*
X90306344Y-59996000D01*
X89942166Y-60068439D01*
X89599118Y-60210534D01*
X89290382Y-60416825D01*
X89027825Y-60679382D01*
X88821534Y-60988118D01*
X88732154Y-61203901D01*
X88711502Y-61135820D01*
X88652537Y-61025506D01*
X88573185Y-60928815D01*
X88476494Y-60849463D01*
X88366180Y-60790498D01*
X88246482Y-60754188D01*
X88122000Y-60741928D01*
X86122000Y-60741928D01*
X85997518Y-60754188D01*
X85877820Y-60790498D01*
X85767506Y-60849463D01*
X85670815Y-60928815D01*
X85591463Y-61025506D01*
X85532498Y-61135820D01*
X85496188Y-61255518D01*
X85483928Y-61380000D01*
X85483928Y-63380000D01*
X85488814Y-63429607D01*
X85446226Y-63458063D01*
X85388072Y-63516217D01*
X85388072Y-61350000D01*
X85375812Y-61225518D01*
X85339502Y-61105820D01*
X85280537Y-60995506D01*
X85201185Y-60898815D01*
X85104494Y-60819463D01*
X84994180Y-60760498D01*
X84874482Y-60724188D01*
X84750000Y-60711928D01*
X82961178Y-60711928D01*
X82876250Y-60627000D01*
X82538072Y-60627000D01*
X82538072Y-60373000D01*
X82876250Y-60373000D01*
X83035000Y-60214250D01*
X83037986Y-59860468D01*
X83027770Y-59735802D01*
X82993428Y-59615525D01*
X82936282Y-59504258D01*
X82858526Y-59406278D01*
X82763150Y-59325350D01*
X82653818Y-59264584D01*
X82534732Y-59226315D01*
X82431750Y-59215000D01*
X82294475Y-59352275D01*
X82254494Y-59319463D01*
X82144180Y-59260498D01*
X82100497Y-59247247D01*
X82068250Y-59215000D01*
X82038901Y-59218225D01*
X82193774Y-59114742D01*
X82337937Y-58970579D01*
X82451205Y-58801061D01*
X82529226Y-58612703D01*
X82569000Y-58412744D01*
X82569000Y-58208866D01*
X82529226Y-58008907D01*
X82451205Y-57820549D01*
X82337937Y-57651031D01*
X82193774Y-57506868D01*
X82024256Y-57393600D01*
X81835898Y-57315579D01*
X81635939Y-57275805D01*
X81432061Y-57275805D01*
X81232102Y-57315579D01*
X81043744Y-57393600D01*
X81026000Y-57405456D01*
X81008256Y-57393600D01*
X80819898Y-57315579D01*
X80785000Y-57308637D01*
X80785000Y-57148061D01*
X80745226Y-56948102D01*
X80667205Y-56759744D01*
X80553937Y-56590226D01*
X80409774Y-56446063D01*
X80400117Y-56439610D01*
X82931995Y-56439610D01*
X82931995Y-56664117D01*
X83240419Y-56976886D01*
X83337110Y-57056239D01*
X83447425Y-57115203D01*
X83567123Y-57151512D01*
X83691604Y-57163773D01*
X83816085Y-57151512D01*
X83935784Y-57115203D01*
X84046098Y-57056239D01*
X84142789Y-56976886D01*
X84353986Y-56761344D01*
X84353986Y-56536838D01*
X83594377Y-55777228D01*
X82931995Y-56439610D01*
X80400117Y-56439610D01*
X80240256Y-56332795D01*
X80051898Y-56254774D01*
X79851939Y-56215000D01*
X79648061Y-56215000D01*
X79448102Y-56254774D01*
X79292845Y-56319084D01*
X79289799Y-56316038D01*
X79120281Y-56202770D01*
X79087801Y-56189316D01*
X79328886Y-55951581D01*
X79408239Y-55854890D01*
X79467203Y-55744575D01*
X79503512Y-55624877D01*
X79515773Y-55500396D01*
X79503512Y-55375915D01*
X79467203Y-55256216D01*
X79408239Y-55145902D01*
X79339123Y-55061684D01*
X80277556Y-55061684D01*
X80277556Y-55286191D01*
X80568303Y-55581282D01*
X80664994Y-55660635D01*
X80775308Y-55719599D01*
X80895006Y-55755908D01*
X81019488Y-55768169D01*
X81143969Y-55755908D01*
X81263667Y-55719599D01*
X81373982Y-55660635D01*
X81470673Y-55581282D01*
X81549992Y-55500396D01*
X82028227Y-55500396D01*
X82040488Y-55624877D01*
X82076797Y-55744575D01*
X82135761Y-55854890D01*
X82215114Y-55951581D01*
X82527883Y-56260005D01*
X82752390Y-56260005D01*
X83414772Y-55597623D01*
X82655162Y-54838014D01*
X82430656Y-54838014D01*
X82215114Y-55049211D01*
X82135761Y-55145902D01*
X82076797Y-55256216D01*
X82040488Y-55375915D01*
X82028227Y-55500396D01*
X81549992Y-55500396D01*
X81690709Y-55356901D01*
X81690709Y-55132395D01*
X80948777Y-54390463D01*
X80277556Y-55061684D01*
X79339123Y-55061684D01*
X79328886Y-55049211D01*
X79113344Y-54838014D01*
X78888838Y-54838014D01*
X78129228Y-55597623D01*
X78143371Y-55611766D01*
X77963766Y-55791371D01*
X77949623Y-55777228D01*
X77935481Y-55791371D01*
X77755876Y-55611766D01*
X77770018Y-55597623D01*
X77755876Y-55583481D01*
X77935481Y-55403876D01*
X77949623Y-55418018D01*
X78709232Y-54658408D01*
X78709232Y-54433902D01*
X78498035Y-54218360D01*
X78401344Y-54139007D01*
X78291030Y-54080043D01*
X78171331Y-54043734D01*
X78046850Y-54031473D01*
X77944142Y-54041589D01*
X77944973Y-54033150D01*
X77927909Y-53859896D01*
X77896348Y-53755853D01*
X78261978Y-53390223D01*
X78377244Y-53390223D01*
X79012668Y-54025647D01*
X79109359Y-54104999D01*
X79219673Y-54163964D01*
X79339371Y-54200274D01*
X79397957Y-54206044D01*
X79403727Y-54264629D01*
X79440036Y-54384327D01*
X79499000Y-54494641D01*
X79578353Y-54591332D01*
X79873444Y-54882079D01*
X80097951Y-54882079D01*
X80769172Y-54210858D01*
X80755030Y-54196716D01*
X80934635Y-54017111D01*
X80948777Y-54031253D01*
X80962920Y-54017111D01*
X81142525Y-54196716D01*
X81128382Y-54210858D01*
X81870314Y-54952790D01*
X82094820Y-54952790D01*
X82319201Y-54732754D01*
X82398554Y-54636063D01*
X82457518Y-54525748D01*
X82459433Y-54519434D01*
X82465749Y-54517518D01*
X82576063Y-54458553D01*
X82672754Y-54379201D01*
X83308178Y-53743777D01*
X83635577Y-53743777D01*
X83647652Y-53755852D01*
X83616091Y-53859896D01*
X83599027Y-54033150D01*
X83599858Y-54041589D01*
X83497150Y-54031473D01*
X83372669Y-54043734D01*
X83252970Y-54080043D01*
X83142656Y-54139007D01*
X83045965Y-54218360D01*
X82834768Y-54433902D01*
X82834768Y-54658408D01*
X83594377Y-55418018D01*
X83608520Y-55403876D01*
X83788125Y-55583481D01*
X83773982Y-55597623D01*
X84533592Y-56357232D01*
X84758098Y-56357232D01*
X84973640Y-56146035D01*
X85052993Y-56049344D01*
X85111957Y-55939030D01*
X85148266Y-55819331D01*
X85160527Y-55694850D01*
X85150411Y-55592142D01*
X85158850Y-55592973D01*
X85332104Y-55575909D01*
X85498700Y-55525373D01*
X85652236Y-55443306D01*
X85786812Y-55332863D01*
X86264109Y-54855566D01*
X86374552Y-54720990D01*
X86456619Y-54567454D01*
X86507155Y-54400858D01*
X86524219Y-54227604D01*
X86507155Y-54054350D01*
X86456619Y-53887754D01*
X86374552Y-53734218D01*
X86264109Y-53599642D01*
X85592358Y-52927891D01*
X85457782Y-52817448D01*
X85304246Y-52735381D01*
X85137650Y-52684845D01*
X84964396Y-52667781D01*
X84791142Y-52684845D01*
X84687098Y-52716406D01*
X84485281Y-52514589D01*
X84462261Y-52486539D01*
X84354464Y-52398072D01*
X86550000Y-52398072D01*
X86674482Y-52385812D01*
X86794180Y-52349502D01*
X86904494Y-52290537D01*
X87001185Y-52211185D01*
X87015000Y-52194351D01*
X87015001Y-55102885D01*
%TA.AperFunction,Conductor*%
D27*
G36*
X87015001Y-55102885D02*
G01*
X87011444Y-55139000D01*
X87025635Y-55283085D01*
X87062911Y-55405964D01*
X87067664Y-55421633D01*
X87135914Y-55549320D01*
X87227763Y-55661238D01*
X87255808Y-55684254D01*
X88744836Y-57173283D01*
X88679439Y-57331166D01*
X88607000Y-57695344D01*
X88607000Y-58066656D01*
X88679439Y-58430834D01*
X88821534Y-58773882D01*
X89027825Y-59082618D01*
X89290382Y-59345175D01*
X89599118Y-59551466D01*
X89942166Y-59693561D01*
X90306344Y-59766000D01*
X90677656Y-59766000D01*
X91041834Y-59693561D01*
X91384882Y-59551466D01*
X91693618Y-59345175D01*
X91956175Y-59082618D01*
X92162466Y-58773882D01*
X92304561Y-58430834D01*
X92340001Y-58252665D01*
X92340001Y-61509336D01*
X92304561Y-61331166D01*
X92162466Y-60988118D01*
X91956175Y-60679382D01*
X91693618Y-60416825D01*
X91384882Y-60210534D01*
X91041834Y-60068439D01*
X90677656Y-59996000D01*
X90306344Y-59996000D01*
X89942166Y-60068439D01*
X89599118Y-60210534D01*
X89290382Y-60416825D01*
X89027825Y-60679382D01*
X88821534Y-60988118D01*
X88732154Y-61203901D01*
X88711502Y-61135820D01*
X88652537Y-61025506D01*
X88573185Y-60928815D01*
X88476494Y-60849463D01*
X88366180Y-60790498D01*
X88246482Y-60754188D01*
X88122000Y-60741928D01*
X86122000Y-60741928D01*
X85997518Y-60754188D01*
X85877820Y-60790498D01*
X85767506Y-60849463D01*
X85670815Y-60928815D01*
X85591463Y-61025506D01*
X85532498Y-61135820D01*
X85496188Y-61255518D01*
X85483928Y-61380000D01*
X85483928Y-63380000D01*
X85488814Y-63429607D01*
X85446226Y-63458063D01*
X85388072Y-63516217D01*
X85388072Y-61350000D01*
X85375812Y-61225518D01*
X85339502Y-61105820D01*
X85280537Y-60995506D01*
X85201185Y-60898815D01*
X85104494Y-60819463D01*
X84994180Y-60760498D01*
X84874482Y-60724188D01*
X84750000Y-60711928D01*
X82961178Y-60711928D01*
X82876250Y-60627000D01*
X82538072Y-60627000D01*
X82538072Y-60373000D01*
X82876250Y-60373000D01*
X83035000Y-60214250D01*
X83037986Y-59860468D01*
X83027770Y-59735802D01*
X82993428Y-59615525D01*
X82936282Y-59504258D01*
X82858526Y-59406278D01*
X82763150Y-59325350D01*
X82653818Y-59264584D01*
X82534732Y-59226315D01*
X82431750Y-59215000D01*
X82294475Y-59352275D01*
X82254494Y-59319463D01*
X82144180Y-59260498D01*
X82100497Y-59247247D01*
X82068250Y-59215000D01*
X82038901Y-59218225D01*
X82193774Y-59114742D01*
X82337937Y-58970579D01*
X82451205Y-58801061D01*
X82529226Y-58612703D01*
X82569000Y-58412744D01*
X82569000Y-58208866D01*
X82529226Y-58008907D01*
X82451205Y-57820549D01*
X82337937Y-57651031D01*
X82193774Y-57506868D01*
X82024256Y-57393600D01*
X81835898Y-57315579D01*
X81635939Y-57275805D01*
X81432061Y-57275805D01*
X81232102Y-57315579D01*
X81043744Y-57393600D01*
X81026000Y-57405456D01*
X81008256Y-57393600D01*
X80819898Y-57315579D01*
X80785000Y-57308637D01*
X80785000Y-57148061D01*
X80745226Y-56948102D01*
X80667205Y-56759744D01*
X80553937Y-56590226D01*
X80409774Y-56446063D01*
X80400117Y-56439610D01*
X82931995Y-56439610D01*
X82931995Y-56664117D01*
X83240419Y-56976886D01*
X83337110Y-57056239D01*
X83447425Y-57115203D01*
X83567123Y-57151512D01*
X83691604Y-57163773D01*
X83816085Y-57151512D01*
X83935784Y-57115203D01*
X84046098Y-57056239D01*
X84142789Y-56976886D01*
X84353986Y-56761344D01*
X84353986Y-56536838D01*
X83594377Y-55777228D01*
X82931995Y-56439610D01*
X80400117Y-56439610D01*
X80240256Y-56332795D01*
X80051898Y-56254774D01*
X79851939Y-56215000D01*
X79648061Y-56215000D01*
X79448102Y-56254774D01*
X79292845Y-56319084D01*
X79289799Y-56316038D01*
X79120281Y-56202770D01*
X79087801Y-56189316D01*
X79328886Y-55951581D01*
X79408239Y-55854890D01*
X79467203Y-55744575D01*
X79503512Y-55624877D01*
X79515773Y-55500396D01*
X79503512Y-55375915D01*
X79467203Y-55256216D01*
X79408239Y-55145902D01*
X79339123Y-55061684D01*
X80277556Y-55061684D01*
X80277556Y-55286191D01*
X80568303Y-55581282D01*
X80664994Y-55660635D01*
X80775308Y-55719599D01*
X80895006Y-55755908D01*
X81019488Y-55768169D01*
X81143969Y-55755908D01*
X81263667Y-55719599D01*
X81373982Y-55660635D01*
X81470673Y-55581282D01*
X81549992Y-55500396D01*
X82028227Y-55500396D01*
X82040488Y-55624877D01*
X82076797Y-55744575D01*
X82135761Y-55854890D01*
X82215114Y-55951581D01*
X82527883Y-56260005D01*
X82752390Y-56260005D01*
X83414772Y-55597623D01*
X82655162Y-54838014D01*
X82430656Y-54838014D01*
X82215114Y-55049211D01*
X82135761Y-55145902D01*
X82076797Y-55256216D01*
X82040488Y-55375915D01*
X82028227Y-55500396D01*
X81549992Y-55500396D01*
X81690709Y-55356901D01*
X81690709Y-55132395D01*
X80948777Y-54390463D01*
X80277556Y-55061684D01*
X79339123Y-55061684D01*
X79328886Y-55049211D01*
X79113344Y-54838014D01*
X78888838Y-54838014D01*
X78129228Y-55597623D01*
X78143371Y-55611766D01*
X77963766Y-55791371D01*
X77949623Y-55777228D01*
X77935481Y-55791371D01*
X77755876Y-55611766D01*
X77770018Y-55597623D01*
X77755876Y-55583481D01*
X77935481Y-55403876D01*
X77949623Y-55418018D01*
X78709232Y-54658408D01*
X78709232Y-54433902D01*
X78498035Y-54218360D01*
X78401344Y-54139007D01*
X78291030Y-54080043D01*
X78171331Y-54043734D01*
X78046850Y-54031473D01*
X77944142Y-54041589D01*
X77944973Y-54033150D01*
X77927909Y-53859896D01*
X77896348Y-53755853D01*
X78261978Y-53390223D01*
X78377244Y-53390223D01*
X79012668Y-54025647D01*
X79109359Y-54104999D01*
X79219673Y-54163964D01*
X79339371Y-54200274D01*
X79397957Y-54206044D01*
X79403727Y-54264629D01*
X79440036Y-54384327D01*
X79499000Y-54494641D01*
X79578353Y-54591332D01*
X79873444Y-54882079D01*
X80097951Y-54882079D01*
X80769172Y-54210858D01*
X80755030Y-54196716D01*
X80934635Y-54017111D01*
X80948777Y-54031253D01*
X80962920Y-54017111D01*
X81142525Y-54196716D01*
X81128382Y-54210858D01*
X81870314Y-54952790D01*
X82094820Y-54952790D01*
X82319201Y-54732754D01*
X82398554Y-54636063D01*
X82457518Y-54525748D01*
X82459433Y-54519434D01*
X82465749Y-54517518D01*
X82576063Y-54458553D01*
X82672754Y-54379201D01*
X83308178Y-53743777D01*
X83635577Y-53743777D01*
X83647652Y-53755852D01*
X83616091Y-53859896D01*
X83599027Y-54033150D01*
X83599858Y-54041589D01*
X83497150Y-54031473D01*
X83372669Y-54043734D01*
X83252970Y-54080043D01*
X83142656Y-54139007D01*
X83045965Y-54218360D01*
X82834768Y-54433902D01*
X82834768Y-54658408D01*
X83594377Y-55418018D01*
X83608520Y-55403876D01*
X83788125Y-55583481D01*
X83773982Y-55597623D01*
X84533592Y-56357232D01*
X84758098Y-56357232D01*
X84973640Y-56146035D01*
X85052993Y-56049344D01*
X85111957Y-55939030D01*
X85148266Y-55819331D01*
X85160527Y-55694850D01*
X85150411Y-55592142D01*
X85158850Y-55592973D01*
X85332104Y-55575909D01*
X85498700Y-55525373D01*
X85652236Y-55443306D01*
X85786812Y-55332863D01*
X86264109Y-54855566D01*
X86374552Y-54720990D01*
X86456619Y-54567454D01*
X86507155Y-54400858D01*
X86524219Y-54227604D01*
X86507155Y-54054350D01*
X86456619Y-53887754D01*
X86374552Y-53734218D01*
X86264109Y-53599642D01*
X85592358Y-52927891D01*
X85457782Y-52817448D01*
X85304246Y-52735381D01*
X85137650Y-52684845D01*
X84964396Y-52667781D01*
X84791142Y-52684845D01*
X84687098Y-52716406D01*
X84485281Y-52514589D01*
X84462261Y-52486539D01*
X84354464Y-52398072D01*
X86550000Y-52398072D01*
X86674482Y-52385812D01*
X86794180Y-52349502D01*
X86904494Y-52290537D01*
X87001185Y-52211185D01*
X87015000Y-52194351D01*
X87015001Y-55102885D01*
G37*
%TD.AperFunction*%
D26*
X70265000Y-35945553D02*
X66745554Y-39465000D01*
X66648061Y-39465000D01*
X66448102Y-39504774D01*
X66259744Y-39582795D01*
X66090226Y-39696063D01*
X65946063Y-39840226D01*
X65832795Y-40009744D01*
X65754774Y-40198102D01*
X65715000Y-40398061D01*
X65715000Y-40601939D01*
X65754774Y-40801898D01*
X65832795Y-40990256D01*
X65946063Y-41159774D01*
X66090226Y-41303937D01*
X66259744Y-41417205D01*
X66448102Y-41495226D01*
X66648061Y-41535000D01*
X66851939Y-41535000D01*
X67051898Y-41495226D01*
X67240256Y-41417205D01*
X67409774Y-41303937D01*
X67553937Y-41159774D01*
X67667205Y-40990256D01*
X67745226Y-40801898D01*
X67785000Y-40601939D01*
X67785000Y-40504446D01*
X71494197Y-36795250D01*
X71522237Y-36772238D01*
X71545250Y-36744197D01*
X71545253Y-36744194D01*
X71614087Y-36660320D01*
X71682337Y-36532634D01*
X71724365Y-36394085D01*
X71738556Y-36250000D01*
X71735000Y-36213895D01*
X71735000Y-32638819D01*
X71829820Y-32689502D01*
X71949518Y-32725812D01*
X72074000Y-32738072D01*
X73372625Y-32738072D01*
X73528747Y-32894194D01*
X73551763Y-32922239D01*
X73663681Y-33014088D01*
X73791368Y-33082338D01*
X73887887Y-33111617D01*
X73929915Y-33124366D01*
X74074000Y-33138557D01*
X74110105Y-33135001D01*
X74830557Y-33135001D01*
X75187987Y-33492431D01*
X75101014Y-33500997D01*
X74957753Y-33544454D01*
X74825724Y-33615026D01*
X74709999Y-33709999D01*
X74686201Y-33738998D01*
X74663270Y-33761928D01*
X74049999Y-33761928D01*
X73876745Y-33778992D01*
X73710149Y-33829528D01*
X73556613Y-33911595D01*
X73422038Y-34022038D01*
X73311595Y-34156613D01*
X73229528Y-34310149D01*
X73178992Y-34476745D01*
X73161928Y-34649999D01*
X73161928Y-35263270D01*
X71880626Y-36544573D01*
X71851622Y-36568376D01*
X71814817Y-36613224D01*
X71756649Y-36684101D01*
X71733909Y-36726644D01*
X70472430Y-37988124D01*
X70444384Y-38011141D01*
X70352535Y-38123059D01*
X70284285Y-38250746D01*
X70264793Y-38315002D01*
X70242257Y-38389293D01*
X70228066Y-38533378D01*
X70231622Y-38569484D01*
X70231623Y-39595425D01*
X67105720Y-42721328D01*
X67077674Y-42744345D01*
X67064747Y-42760096D01*
X67051898Y-42754774D01*
X66851939Y-42715000D01*
X66648061Y-42715000D01*
X66448102Y-42754774D01*
X66259744Y-42832795D01*
X66090226Y-42946063D01*
X65946063Y-43090226D01*
X65832795Y-43259744D01*
X65754774Y-43448102D01*
X65715000Y-43648061D01*
X65715000Y-43851939D01*
X65754774Y-44051898D01*
X65832795Y-44240256D01*
X65946063Y-44409774D01*
X65965001Y-44428712D01*
X65965000Y-46425532D01*
X65958040Y-46431244D01*
X65932631Y-46417663D01*
X65794083Y-46375635D01*
X65686103Y-46365000D01*
X65649998Y-46361444D01*
X65613893Y-46365000D01*
X65461241Y-46365000D01*
X65454494Y-46359463D01*
X65344180Y-46300498D01*
X65224482Y-46264188D01*
X65100000Y-46251928D01*
X64500000Y-46251928D01*
X64375518Y-46264188D01*
X64255820Y-46300498D01*
X64145506Y-46359463D01*
X64048815Y-46438815D01*
X63969463Y-46535506D01*
X63910498Y-46645820D01*
X63874188Y-46765518D01*
X63861928Y-46890000D01*
X63861928Y-47310000D01*
X63873891Y-47431462D01*
X63865000Y-47508250D01*
X63910310Y-47553560D01*
X63910498Y-47554180D01*
X63969463Y-47664494D01*
X64039636Y-47750000D01*
X63969463Y-47835506D01*
X63910498Y-47945820D01*
X63910310Y-47946440D01*
X63865000Y-47991750D01*
X63873891Y-48068538D01*
X63861928Y-48190000D01*
X63861928Y-48610000D01*
X63874188Y-48734482D01*
X63910498Y-48854180D01*
X63969463Y-48964494D01*
X64048815Y-49061185D01*
X64145506Y-49140537D01*
X64255820Y-49199502D01*
X64375518Y-49235812D01*
X64500000Y-49248072D01*
X65100000Y-49248072D01*
X65224482Y-49235812D01*
X65344180Y-49199502D01*
X65454494Y-49140537D01*
X65551185Y-49061185D01*
X65630537Y-48964494D01*
X65689502Y-48854180D01*
X65725812Y-48734482D01*
X65738072Y-48610000D01*
X65738072Y-48227521D01*
X65754744Y-48244193D01*
X65761928Y-48252947D01*
X65761928Y-48610000D01*
X65774188Y-48734482D01*
X65810498Y-48854180D01*
X65869463Y-48964494D01*
X65926527Y-49034027D01*
X65695554Y-49265000D01*
X64536096Y-49265000D01*
X64499999Y-49261445D01*
X64463902Y-49265000D01*
X64463895Y-49265000D01*
X64370132Y-49274235D01*
X64355914Y-49275635D01*
X64332809Y-49282644D01*
X64217367Y-49317663D01*
X64089680Y-49385913D01*
X63977762Y-49477762D01*
X63954746Y-49505807D01*
X62005808Y-51454746D01*
X61977763Y-51477762D01*
X61885914Y-51589680D01*
X61835853Y-51683338D01*
X61817664Y-51717367D01*
X61775635Y-51855915D01*
X61761444Y-52000000D01*
X61765001Y-52036115D01*
X61765000Y-57745897D01*
X61761444Y-57782002D01*
X61775635Y-57926087D01*
X61781608Y-57945776D01*
X61817663Y-58064634D01*
X61885913Y-58192321D01*
X61977762Y-58304239D01*
X62005808Y-58327256D01*
X62890479Y-59211928D01*
X62600000Y-59211928D01*
X62500000Y-59221777D01*
X62400000Y-59211928D01*
X62100000Y-59211928D01*
X62000000Y-59221777D01*
X61985000Y-59220299D01*
X61985000Y-59036105D01*
X61988556Y-59000000D01*
X61974365Y-58855915D01*
X61963836Y-58821205D01*
X61932337Y-58717367D01*
X61864087Y-58589680D01*
X61772238Y-58477762D01*
X61744192Y-58454746D01*
X61485000Y-58195554D01*
X61485000Y-36554446D01*
X63554447Y-34485000D01*
X66323895Y-34485000D01*
X66360000Y-34488556D01*
X66396105Y-34485000D01*
X66504085Y-34474365D01*
X66642633Y-34432337D01*
X66770320Y-34364087D01*
X66882238Y-34272238D01*
X66905259Y-34244188D01*
X68464103Y-32685344D01*
X68713740Y-32735000D01*
X69006260Y-32735000D01*
X69293158Y-32677932D01*
X69563411Y-32565990D01*
X69806632Y-32403475D01*
X70013475Y-32196632D01*
X70175990Y-31953411D01*
X70265001Y-31738519D01*
X70265000Y-35945553D01*
%TA.AperFunction,Conductor*%
D27*
G36*
X70265000Y-35945553D02*
G01*
X66745554Y-39465000D01*
X66648061Y-39465000D01*
X66448102Y-39504774D01*
X66259744Y-39582795D01*
X66090226Y-39696063D01*
X65946063Y-39840226D01*
X65832795Y-40009744D01*
X65754774Y-40198102D01*
X65715000Y-40398061D01*
X65715000Y-40601939D01*
X65754774Y-40801898D01*
X65832795Y-40990256D01*
X65946063Y-41159774D01*
X66090226Y-41303937D01*
X66259744Y-41417205D01*
X66448102Y-41495226D01*
X66648061Y-41535000D01*
X66851939Y-41535000D01*
X67051898Y-41495226D01*
X67240256Y-41417205D01*
X67409774Y-41303937D01*
X67553937Y-41159774D01*
X67667205Y-40990256D01*
X67745226Y-40801898D01*
X67785000Y-40601939D01*
X67785000Y-40504446D01*
X71494197Y-36795250D01*
X71522237Y-36772238D01*
X71545250Y-36744197D01*
X71545253Y-36744194D01*
X71614087Y-36660320D01*
X71682337Y-36532634D01*
X71724365Y-36394085D01*
X71738556Y-36250000D01*
X71735000Y-36213895D01*
X71735000Y-32638819D01*
X71829820Y-32689502D01*
X71949518Y-32725812D01*
X72074000Y-32738072D01*
X73372625Y-32738072D01*
X73528747Y-32894194D01*
X73551763Y-32922239D01*
X73663681Y-33014088D01*
X73791368Y-33082338D01*
X73887887Y-33111617D01*
X73929915Y-33124366D01*
X74074000Y-33138557D01*
X74110105Y-33135001D01*
X74830557Y-33135001D01*
X75187987Y-33492431D01*
X75101014Y-33500997D01*
X74957753Y-33544454D01*
X74825724Y-33615026D01*
X74709999Y-33709999D01*
X74686201Y-33738998D01*
X74663270Y-33761928D01*
X74049999Y-33761928D01*
X73876745Y-33778992D01*
X73710149Y-33829528D01*
X73556613Y-33911595D01*
X73422038Y-34022038D01*
X73311595Y-34156613D01*
X73229528Y-34310149D01*
X73178992Y-34476745D01*
X73161928Y-34649999D01*
X73161928Y-35263270D01*
X71880626Y-36544573D01*
X71851622Y-36568376D01*
X71814817Y-36613224D01*
X71756649Y-36684101D01*
X71733909Y-36726644D01*
X70472430Y-37988124D01*
X70444384Y-38011141D01*
X70352535Y-38123059D01*
X70284285Y-38250746D01*
X70264793Y-38315002D01*
X70242257Y-38389293D01*
X70228066Y-38533378D01*
X70231622Y-38569484D01*
X70231623Y-39595425D01*
X67105720Y-42721328D01*
X67077674Y-42744345D01*
X67064747Y-42760096D01*
X67051898Y-42754774D01*
X66851939Y-42715000D01*
X66648061Y-42715000D01*
X66448102Y-42754774D01*
X66259744Y-42832795D01*
X66090226Y-42946063D01*
X65946063Y-43090226D01*
X65832795Y-43259744D01*
X65754774Y-43448102D01*
X65715000Y-43648061D01*
X65715000Y-43851939D01*
X65754774Y-44051898D01*
X65832795Y-44240256D01*
X65946063Y-44409774D01*
X65965001Y-44428712D01*
X65965000Y-46425532D01*
X65958040Y-46431244D01*
X65932631Y-46417663D01*
X65794083Y-46375635D01*
X65686103Y-46365000D01*
X65649998Y-46361444D01*
X65613893Y-46365000D01*
X65461241Y-46365000D01*
X65454494Y-46359463D01*
X65344180Y-46300498D01*
X65224482Y-46264188D01*
X65100000Y-46251928D01*
X64500000Y-46251928D01*
X64375518Y-46264188D01*
X64255820Y-46300498D01*
X64145506Y-46359463D01*
X64048815Y-46438815D01*
X63969463Y-46535506D01*
X63910498Y-46645820D01*
X63874188Y-46765518D01*
X63861928Y-46890000D01*
X63861928Y-47310000D01*
X63873891Y-47431462D01*
X63865000Y-47508250D01*
X63910310Y-47553560D01*
X63910498Y-47554180D01*
X63969463Y-47664494D01*
X64039636Y-47750000D01*
X63969463Y-47835506D01*
X63910498Y-47945820D01*
X63910310Y-47946440D01*
X63865000Y-47991750D01*
X63873891Y-48068538D01*
X63861928Y-48190000D01*
X63861928Y-48610000D01*
X63874188Y-48734482D01*
X63910498Y-48854180D01*
X63969463Y-48964494D01*
X64048815Y-49061185D01*
X64145506Y-49140537D01*
X64255820Y-49199502D01*
X64375518Y-49235812D01*
X64500000Y-49248072D01*
X65100000Y-49248072D01*
X65224482Y-49235812D01*
X65344180Y-49199502D01*
X65454494Y-49140537D01*
X65551185Y-49061185D01*
X65630537Y-48964494D01*
X65689502Y-48854180D01*
X65725812Y-48734482D01*
X65738072Y-48610000D01*
X65738072Y-48227521D01*
X65754744Y-48244193D01*
X65761928Y-48252947D01*
X65761928Y-48610000D01*
X65774188Y-48734482D01*
X65810498Y-48854180D01*
X65869463Y-48964494D01*
X65926527Y-49034027D01*
X65695554Y-49265000D01*
X64536096Y-49265000D01*
X64499999Y-49261445D01*
X64463902Y-49265000D01*
X64463895Y-49265000D01*
X64370132Y-49274235D01*
X64355914Y-49275635D01*
X64332809Y-49282644D01*
X64217367Y-49317663D01*
X64089680Y-49385913D01*
X63977762Y-49477762D01*
X63954746Y-49505807D01*
X62005808Y-51454746D01*
X61977763Y-51477762D01*
X61885914Y-51589680D01*
X61835853Y-51683338D01*
X61817664Y-51717367D01*
X61775635Y-51855915D01*
X61761444Y-52000000D01*
X61765001Y-52036115D01*
X61765000Y-57745897D01*
X61761444Y-57782002D01*
X61775635Y-57926087D01*
X61781608Y-57945776D01*
X61817663Y-58064634D01*
X61885913Y-58192321D01*
X61977762Y-58304239D01*
X62005808Y-58327256D01*
X62890479Y-59211928D01*
X62600000Y-59211928D01*
X62500000Y-59221777D01*
X62400000Y-59211928D01*
X62100000Y-59211928D01*
X62000000Y-59221777D01*
X61985000Y-59220299D01*
X61985000Y-59036105D01*
X61988556Y-59000000D01*
X61974365Y-58855915D01*
X61963836Y-58821205D01*
X61932337Y-58717367D01*
X61864087Y-58589680D01*
X61772238Y-58477762D01*
X61744192Y-58454746D01*
X61485000Y-58195554D01*
X61485000Y-36554446D01*
X63554447Y-34485000D01*
X66323895Y-34485000D01*
X66360000Y-34488556D01*
X66396105Y-34485000D01*
X66504085Y-34474365D01*
X66642633Y-34432337D01*
X66770320Y-34364087D01*
X66882238Y-34272238D01*
X66905259Y-34244188D01*
X68464103Y-32685344D01*
X68713740Y-32735000D01*
X69006260Y-32735000D01*
X69293158Y-32677932D01*
X69563411Y-32565990D01*
X69806632Y-32403475D01*
X70013475Y-32196632D01*
X70175990Y-31953411D01*
X70265001Y-31738519D01*
X70265000Y-35945553D01*
G37*
%TD.AperFunction*%
D26*
X68326191Y-55393937D02*
X68495709Y-55507205D01*
X68684067Y-55585226D01*
X68884026Y-55625000D01*
X68981519Y-55625000D01*
X70968446Y-57611928D01*
X70600000Y-57611928D01*
X70575550Y-57614336D01*
X70550991Y-57614336D01*
X70426510Y-57626596D01*
X70330377Y-57645718D01*
X70210681Y-57682027D01*
X70120125Y-57719536D01*
X70009808Y-57778502D01*
X69928309Y-57832958D01*
X69831618Y-57912310D01*
X69762310Y-57981618D01*
X69682958Y-58078309D01*
X69628502Y-58159808D01*
X69572275Y-58265000D01*
X68207784Y-58265000D01*
X68231476Y-58186890D01*
X68110155Y-57957000D01*
X66917000Y-57957000D01*
X66917000Y-57977000D01*
X66663000Y-57977000D01*
X66663000Y-57957000D01*
X66643000Y-57957000D01*
X66643000Y-57703000D01*
X66663000Y-57703000D01*
X66663000Y-57683000D01*
X66917000Y-57683000D01*
X66917000Y-57703000D01*
X68110155Y-57703000D01*
X68231476Y-57473110D01*
X68186825Y-57325901D01*
X68061641Y-57063080D01*
X67887588Y-56829731D01*
X67671355Y-56634822D01*
X67554466Y-56565195D01*
X67736632Y-56443475D01*
X67943475Y-56236632D01*
X68105990Y-55993411D01*
X68217932Y-55723158D01*
X68275000Y-55436260D01*
X68275000Y-55342746D01*
X68326191Y-55393937D01*
%TA.AperFunction,Conductor*%
D27*
G36*
X68326191Y-55393937D02*
G01*
X68495709Y-55507205D01*
X68684067Y-55585226D01*
X68884026Y-55625000D01*
X68981519Y-55625000D01*
X70968446Y-57611928D01*
X70600000Y-57611928D01*
X70575550Y-57614336D01*
X70550991Y-57614336D01*
X70426510Y-57626596D01*
X70330377Y-57645718D01*
X70210681Y-57682027D01*
X70120125Y-57719536D01*
X70009808Y-57778502D01*
X69928309Y-57832958D01*
X69831618Y-57912310D01*
X69762310Y-57981618D01*
X69682958Y-58078309D01*
X69628502Y-58159808D01*
X69572275Y-58265000D01*
X68207784Y-58265000D01*
X68231476Y-58186890D01*
X68110155Y-57957000D01*
X66917000Y-57957000D01*
X66917000Y-57977000D01*
X66663000Y-57977000D01*
X66663000Y-57957000D01*
X66643000Y-57957000D01*
X66643000Y-57703000D01*
X66663000Y-57703000D01*
X66663000Y-57683000D01*
X66917000Y-57683000D01*
X66917000Y-57703000D01*
X68110155Y-57703000D01*
X68231476Y-57473110D01*
X68186825Y-57325901D01*
X68061641Y-57063080D01*
X67887588Y-56829731D01*
X67671355Y-56634822D01*
X67554466Y-56565195D01*
X67736632Y-56443475D01*
X67943475Y-56236632D01*
X68105990Y-55993411D01*
X68217932Y-55723158D01*
X68275000Y-55436260D01*
X68275000Y-55342746D01*
X68326191Y-55393937D01*
G37*
%TD.AperFunction*%
D26*
X77973815Y-49251185D02*
X78070506Y-49330537D01*
X78093667Y-49342917D01*
X78185750Y-49435000D01*
X78299380Y-49425467D01*
X78300518Y-49425812D01*
X78425000Y-49438072D01*
X78765001Y-49438072D01*
X78765001Y-49481553D01*
X78403975Y-49842579D01*
X78375929Y-49865596D01*
X78284080Y-49977514D01*
X78215830Y-50105201D01*
X78195334Y-50172769D01*
X78173802Y-50243748D01*
X78159611Y-50387833D01*
X78163167Y-50423938D01*
X78163168Y-51920223D01*
X77993636Y-51920223D01*
X77957531Y-51916667D01*
X77921426Y-51920223D01*
X77813446Y-51930858D01*
X77674898Y-51972886D01*
X77547211Y-52041136D01*
X77435293Y-52132985D01*
X77412278Y-52161029D01*
X76856901Y-52716406D01*
X76752858Y-52684845D01*
X76579604Y-52667781D01*
X76406350Y-52684845D01*
X76373920Y-52694682D01*
X76440256Y-52667205D01*
X76609774Y-52553937D01*
X76753937Y-52409774D01*
X76867205Y-52240256D01*
X76945226Y-52051898D01*
X76985000Y-51851939D01*
X76985000Y-51648061D01*
X76945226Y-51448102D01*
X76867205Y-51259744D01*
X76753937Y-51090226D01*
X76609774Y-50946063D01*
X76440256Y-50832795D01*
X76251898Y-50754774D01*
X76168096Y-50738105D01*
X76245226Y-50551898D01*
X76285000Y-50351939D01*
X76285000Y-50148061D01*
X76245226Y-49948102D01*
X76167205Y-49759744D01*
X76053937Y-49590226D01*
X75909774Y-49446063D01*
X75882037Y-49427530D01*
X75899482Y-49425812D01*
X75900620Y-49425467D01*
X76014250Y-49435000D01*
X76106333Y-49342917D01*
X76129494Y-49330537D01*
X76226185Y-49251185D01*
X76300000Y-49161241D01*
X76373815Y-49251185D01*
X76470506Y-49330537D01*
X76493667Y-49342917D01*
X76585750Y-49435000D01*
X76699380Y-49425467D01*
X76700518Y-49425812D01*
X76825000Y-49438072D01*
X77375000Y-49438072D01*
X77499482Y-49425812D01*
X77500620Y-49425467D01*
X77614250Y-49435000D01*
X77706333Y-49342917D01*
X77729494Y-49330537D01*
X77826185Y-49251185D01*
X77900000Y-49161241D01*
X77973815Y-49251185D01*
%TA.AperFunction,Conductor*%
D27*
G36*
X77973815Y-49251185D02*
G01*
X78070506Y-49330537D01*
X78093667Y-49342917D01*
X78185750Y-49435000D01*
X78299380Y-49425467D01*
X78300518Y-49425812D01*
X78425000Y-49438072D01*
X78765001Y-49438072D01*
X78765001Y-49481553D01*
X78403975Y-49842579D01*
X78375929Y-49865596D01*
X78284080Y-49977514D01*
X78215830Y-50105201D01*
X78195334Y-50172769D01*
X78173802Y-50243748D01*
X78159611Y-50387833D01*
X78163167Y-50423938D01*
X78163168Y-51920223D01*
X77993636Y-51920223D01*
X77957531Y-51916667D01*
X77921426Y-51920223D01*
X77813446Y-51930858D01*
X77674898Y-51972886D01*
X77547211Y-52041136D01*
X77435293Y-52132985D01*
X77412278Y-52161029D01*
X76856901Y-52716406D01*
X76752858Y-52684845D01*
X76579604Y-52667781D01*
X76406350Y-52684845D01*
X76373920Y-52694682D01*
X76440256Y-52667205D01*
X76609774Y-52553937D01*
X76753937Y-52409774D01*
X76867205Y-52240256D01*
X76945226Y-52051898D01*
X76985000Y-51851939D01*
X76985000Y-51648061D01*
X76945226Y-51448102D01*
X76867205Y-51259744D01*
X76753937Y-51090226D01*
X76609774Y-50946063D01*
X76440256Y-50832795D01*
X76251898Y-50754774D01*
X76168096Y-50738105D01*
X76245226Y-50551898D01*
X76285000Y-50351939D01*
X76285000Y-50148061D01*
X76245226Y-49948102D01*
X76167205Y-49759744D01*
X76053937Y-49590226D01*
X75909774Y-49446063D01*
X75882037Y-49427530D01*
X75899482Y-49425812D01*
X75900620Y-49425467D01*
X76014250Y-49435000D01*
X76106333Y-49342917D01*
X76129494Y-49330537D01*
X76226185Y-49251185D01*
X76300000Y-49161241D01*
X76373815Y-49251185D01*
X76470506Y-49330537D01*
X76493667Y-49342917D01*
X76585750Y-49435000D01*
X76699380Y-49425467D01*
X76700518Y-49425812D01*
X76825000Y-49438072D01*
X77375000Y-49438072D01*
X77499482Y-49425812D01*
X77500620Y-49425467D01*
X77614250Y-49435000D01*
X77706333Y-49342917D01*
X77729494Y-49330537D01*
X77826185Y-49251185D01*
X77900000Y-49161241D01*
X77973815Y-49251185D01*
G37*
%TD.AperFunction*%
D26*
X80788971Y-51439000D02*
X80774828Y-51453142D01*
X80788971Y-51467285D01*
X80609366Y-51646890D01*
X80595223Y-51632747D01*
X80581081Y-51646890D01*
X80401476Y-51467285D01*
X80415618Y-51453142D01*
X80401476Y-51439000D01*
X80581081Y-51259395D01*
X80595223Y-51273537D01*
X80609366Y-51259395D01*
X80788971Y-51439000D01*
%TA.AperFunction,Conductor*%
D27*
G36*
X80788971Y-51439000D02*
G01*
X80774828Y-51453142D01*
X80788971Y-51467285D01*
X80609366Y-51646890D01*
X80595223Y-51632747D01*
X80581081Y-51646890D01*
X80401476Y-51467285D01*
X80415618Y-51453142D01*
X80401476Y-51439000D01*
X80581081Y-51259395D01*
X80595223Y-51273537D01*
X80609366Y-51259395D01*
X80788971Y-51439000D01*
G37*
%TD.AperFunction*%
D26*
X92266867Y-27164819D02*
X92283092Y-27169718D01*
X92298053Y-27177672D01*
X92311189Y-27188386D01*
X92321988Y-27201441D01*
X92330049Y-27216349D01*
X92335062Y-27232541D01*
X92340000Y-27279525D01*
X92340000Y-34969992D01*
X92338725Y-34959925D01*
X92221094Y-34607738D01*
X92095577Y-34372914D01*
X91805605Y-34247000D01*
X90671605Y-35381000D01*
X91805605Y-36515000D01*
X92095577Y-36389086D01*
X92261433Y-36056874D01*
X92340000Y-35769294D01*
X92340000Y-39009333D01*
X92304561Y-38831166D01*
X92162466Y-38488118D01*
X91956175Y-38179382D01*
X91693618Y-37916825D01*
X91384882Y-37710534D01*
X91041834Y-37568439D01*
X90677656Y-37496000D01*
X90306344Y-37496000D01*
X89942166Y-37568439D01*
X89599118Y-37710534D01*
X89290382Y-37916825D01*
X89027825Y-38179382D01*
X88821534Y-38488118D01*
X88679439Y-38831166D01*
X88607000Y-39195344D01*
X88607000Y-39566656D01*
X88679439Y-39930834D01*
X88821534Y-40273882D01*
X89027825Y-40582618D01*
X89290382Y-40845175D01*
X89599118Y-41051466D01*
X89942166Y-41193561D01*
X90306344Y-41266000D01*
X90677656Y-41266000D01*
X91041834Y-41193561D01*
X91384882Y-41051466D01*
X91693618Y-40845175D01*
X91956175Y-40582618D01*
X92162466Y-40273882D01*
X92304561Y-39930834D01*
X92340000Y-39752667D01*
X92340000Y-43009333D01*
X92304561Y-42831166D01*
X92162466Y-42488118D01*
X91956175Y-42179382D01*
X91693618Y-41916825D01*
X91384882Y-41710534D01*
X91041834Y-41568439D01*
X90677656Y-41496000D01*
X90306344Y-41496000D01*
X89942166Y-41568439D01*
X89599118Y-41710534D01*
X89290382Y-41916825D01*
X89027825Y-42179382D01*
X88821534Y-42488118D01*
X88679439Y-42831166D01*
X88607000Y-43195344D01*
X88607000Y-43566656D01*
X88679439Y-43930834D01*
X88821534Y-44273882D01*
X89027825Y-44582618D01*
X89290382Y-44845175D01*
X89599118Y-45051466D01*
X89942166Y-45193561D01*
X90306344Y-45266000D01*
X90677656Y-45266000D01*
X91041834Y-45193561D01*
X91384882Y-45051466D01*
X91693618Y-44845175D01*
X91956175Y-44582618D01*
X92162466Y-44273882D01*
X92304561Y-43930834D01*
X92340000Y-43752667D01*
X92340001Y-49509334D01*
X92304561Y-49331166D01*
X92162466Y-48988118D01*
X91956175Y-48679382D01*
X91693618Y-48416825D01*
X91384882Y-48210534D01*
X91227398Y-48145302D01*
X91230556Y-48113234D01*
X91216365Y-47969149D01*
X91174337Y-47830600D01*
X91106087Y-47702914D01*
X91078813Y-47669681D01*
X91014238Y-47590996D01*
X90986193Y-47567980D01*
X87188072Y-43769860D01*
X87188072Y-42340000D01*
X87175812Y-42215518D01*
X87139502Y-42095820D01*
X87080537Y-41985506D01*
X87067812Y-41970000D01*
X87080537Y-41954494D01*
X87139502Y-41844180D01*
X87175812Y-41724482D01*
X87188072Y-41600000D01*
X87185000Y-40985750D01*
X87026250Y-40827000D01*
X85427000Y-40827000D01*
X85427000Y-40847000D01*
X85173000Y-40847000D01*
X85173000Y-40827000D01*
X83573750Y-40827000D01*
X83415000Y-40985750D01*
X83411928Y-41600000D01*
X83424188Y-41724482D01*
X83460498Y-41844180D01*
X83519463Y-41954494D01*
X83532188Y-41970000D01*
X83519463Y-41985506D01*
X83460498Y-42095820D01*
X83424188Y-42215518D01*
X83411928Y-42340000D01*
X83411928Y-42726932D01*
X83351939Y-42715000D01*
X83188072Y-42715000D01*
X83188072Y-42275000D01*
X83175812Y-42150518D01*
X83175655Y-42150000D01*
X83175812Y-42149482D01*
X83188072Y-42025000D01*
X83188072Y-41475000D01*
X83175812Y-41350518D01*
X83175655Y-41350000D01*
X83175812Y-41349482D01*
X83188072Y-41225000D01*
X83188072Y-40675000D01*
X83175812Y-40550518D01*
X83139502Y-40430820D01*
X83080537Y-40320506D01*
X83001185Y-40223815D01*
X82904494Y-40144463D01*
X82794180Y-40085498D01*
X82738326Y-40068555D01*
X82745226Y-40051898D01*
X82785000Y-39851939D01*
X82785000Y-39800000D01*
X83411928Y-39800000D01*
X83415000Y-40414250D01*
X83573750Y-40573000D01*
X85173000Y-40573000D01*
X85173000Y-39323750D01*
X85427000Y-39323750D01*
X85427000Y-40573000D01*
X87026250Y-40573000D01*
X87185000Y-40414250D01*
X87188072Y-39800000D01*
X87175812Y-39675518D01*
X87139502Y-39555820D01*
X87080537Y-39445506D01*
X87001185Y-39348815D01*
X86904494Y-39269463D01*
X86794180Y-39210498D01*
X86674482Y-39174188D01*
X86550000Y-39161928D01*
X85585750Y-39165000D01*
X85427000Y-39323750D01*
X85173000Y-39323750D01*
X85014250Y-39165000D01*
X84050000Y-39161928D01*
X83925518Y-39174188D01*
X83805820Y-39210498D01*
X83695506Y-39269463D01*
X83598815Y-39348815D01*
X83519463Y-39445506D01*
X83460498Y-39555820D01*
X83424188Y-39675518D01*
X83411928Y-39800000D01*
X82785000Y-39800000D01*
X82785000Y-39648061D01*
X82745226Y-39448102D01*
X82667205Y-39259744D01*
X82553937Y-39090226D01*
X82409774Y-38946063D01*
X82240256Y-38832795D01*
X82054394Y-38755808D01*
X82085000Y-38601940D01*
X82085000Y-38464376D01*
X82186775Y-38409975D01*
X82302500Y-38315002D01*
X82326302Y-38285999D01*
X82349229Y-38263072D01*
X82975000Y-38263072D01*
X83148254Y-38246008D01*
X83314850Y-38195472D01*
X83468386Y-38113405D01*
X83602962Y-38002962D01*
X83713405Y-37868386D01*
X83795472Y-37714850D01*
X83846008Y-37548254D01*
X83863072Y-37375000D01*
X83863072Y-36700000D01*
X83862541Y-36694605D01*
X89358000Y-36694605D01*
X89483914Y-36984577D01*
X89816126Y-37150433D01*
X90174312Y-37248290D01*
X90544706Y-37274389D01*
X90913075Y-37227725D01*
X91265262Y-37110094D01*
X91500086Y-36984577D01*
X91626000Y-36694605D01*
X90492000Y-35560605D01*
X89358000Y-36694605D01*
X83862541Y-36694605D01*
X83846008Y-36526746D01*
X83795472Y-36360150D01*
X83713405Y-36206614D01*
X83602962Y-36072038D01*
X83596406Y-36066658D01*
X83676185Y-36001185D01*
X83755537Y-35904494D01*
X83814502Y-35794180D01*
X83850812Y-35674482D01*
X83863072Y-35550000D01*
X83861889Y-35433706D01*
X88598611Y-35433706D01*
X88645275Y-35802075D01*
X88762906Y-36154262D01*
X88888423Y-36389086D01*
X89178395Y-36515000D01*
X90312395Y-35381000D01*
X89178395Y-34247000D01*
X88888423Y-34372914D01*
X88722567Y-34705126D01*
X88624710Y-35063312D01*
X88598611Y-35433706D01*
X83861889Y-35433706D01*
X83860000Y-35248250D01*
X83701250Y-35089500D01*
X82627000Y-35089500D01*
X82627000Y-35109500D01*
X82373000Y-35109500D01*
X82373000Y-35089500D01*
X82353000Y-35089500D01*
X82353000Y-34835500D01*
X82373000Y-34835500D01*
X82373000Y-33898750D01*
X82627000Y-33898750D01*
X82627000Y-34835500D01*
X83701250Y-34835500D01*
X83860000Y-34676750D01*
X83863072Y-34375000D01*
X83850812Y-34250518D01*
X83814502Y-34130820D01*
X83780601Y-34067395D01*
X89358000Y-34067395D01*
X90492000Y-35201395D01*
X91626000Y-34067395D01*
X91500086Y-33777423D01*
X91167874Y-33611567D01*
X90809688Y-33513710D01*
X90439294Y-33487611D01*
X90070925Y-33534275D01*
X89718738Y-33651906D01*
X89483914Y-33777423D01*
X89358000Y-34067395D01*
X83780601Y-34067395D01*
X83755537Y-34020506D01*
X83676185Y-33923815D01*
X83579494Y-33844463D01*
X83469180Y-33785498D01*
X83349482Y-33749188D01*
X83225000Y-33736928D01*
X82785750Y-33740000D01*
X82627000Y-33898750D01*
X82373000Y-33898750D01*
X82214250Y-33740000D01*
X81775000Y-33736928D01*
X81650518Y-33749188D01*
X81530820Y-33785498D01*
X81420506Y-33844463D01*
X81323815Y-33923815D01*
X81244463Y-34020506D01*
X81185498Y-34130820D01*
X81149188Y-34250518D01*
X81136928Y-34375000D01*
X81137392Y-34420535D01*
X81050000Y-34411928D01*
X80710750Y-34415000D01*
X80552000Y-34573750D01*
X80552000Y-35373000D01*
X80572000Y-35373000D01*
X80572000Y-35627000D01*
X80552000Y-35627000D01*
X80552000Y-36873000D01*
X80572000Y-36873000D01*
X80572000Y-37015001D01*
X80212324Y-37015001D01*
X80174999Y-37011325D01*
X80137674Y-37015001D01*
X80137666Y-37015001D01*
X80026013Y-37025998D01*
X79882752Y-37069455D01*
X79775094Y-37127000D01*
X79323750Y-37127000D01*
X79165000Y-37285750D01*
X79161928Y-37450000D01*
X79174188Y-37574482D01*
X79203637Y-37671562D01*
X78989002Y-37886197D01*
X78959999Y-37909999D01*
X78920772Y-37957798D01*
X78865026Y-38025724D01*
X78845674Y-38061928D01*
X78660000Y-38061928D01*
X78660000Y-35950000D01*
X79161928Y-35950000D01*
X79174188Y-36074482D01*
X79210498Y-36194180D01*
X79240335Y-36250000D01*
X79210498Y-36305820D01*
X79174188Y-36425518D01*
X79161928Y-36550000D01*
X79165000Y-36714250D01*
X79323750Y-36873000D01*
X80298000Y-36873000D01*
X80298000Y-35627000D01*
X79323750Y-35627000D01*
X79165000Y-35785750D01*
X79161928Y-35950000D01*
X78660000Y-35950000D01*
X78660000Y-35202331D01*
X78663677Y-35164998D01*
X78652351Y-35050000D01*
X79161928Y-35050000D01*
X79165000Y-35214250D01*
X79323750Y-35373000D01*
X80298000Y-35373000D01*
X80298000Y-34573750D01*
X80139250Y-34415000D01*
X79800000Y-34411928D01*
X79675518Y-34424188D01*
X79555820Y-34460498D01*
X79445506Y-34519463D01*
X79348815Y-34598815D01*
X79269463Y-34695506D01*
X79210498Y-34805820D01*
X79174188Y-34925518D01*
X79161928Y-35050000D01*
X78652351Y-35050000D01*
X78649003Y-35016012D01*
X78605546Y-34872751D01*
X78534974Y-34740722D01*
X78463799Y-34653995D01*
X78440001Y-34624997D01*
X78411003Y-34601199D01*
X77548805Y-33739002D01*
X77525003Y-33709999D01*
X77409278Y-33615026D01*
X77366734Y-33592285D01*
X76268247Y-32493799D01*
X76464269Y-32347588D01*
X76659178Y-32131355D01*
X76728805Y-32014466D01*
X76850525Y-32196632D01*
X77057368Y-32403475D01*
X77300589Y-32565990D01*
X77570842Y-32677932D01*
X77857740Y-32735000D01*
X78150260Y-32735000D01*
X78437158Y-32677932D01*
X78707411Y-32565990D01*
X78950632Y-32403475D01*
X79157475Y-32196632D01*
X79274000Y-32022240D01*
X79390525Y-32196632D01*
X79597368Y-32403475D01*
X79840589Y-32565990D01*
X80110842Y-32677932D01*
X80397740Y-32735000D01*
X80690260Y-32735000D01*
X80977158Y-32677932D01*
X81247411Y-32565990D01*
X81490632Y-32403475D01*
X81697475Y-32196632D01*
X81814000Y-32022240D01*
X81930525Y-32196632D01*
X82137368Y-32403475D01*
X82380589Y-32565990D01*
X82650842Y-32677932D01*
X82937740Y-32735000D01*
X83230260Y-32735000D01*
X83517158Y-32677932D01*
X83787411Y-32565990D01*
X84030632Y-32403475D01*
X84237475Y-32196632D01*
X84354000Y-32022240D01*
X84470525Y-32196632D01*
X84677368Y-32403475D01*
X84920589Y-32565990D01*
X85190842Y-32677932D01*
X85477740Y-32735000D01*
X85770260Y-32735000D01*
X86057158Y-32677932D01*
X86327411Y-32565990D01*
X86570632Y-32403475D01*
X86777475Y-32196632D01*
X86894000Y-32022240D01*
X87010525Y-32196632D01*
X87217368Y-32403475D01*
X87460589Y-32565990D01*
X87730842Y-32677932D01*
X88017740Y-32735000D01*
X88310260Y-32735000D01*
X88597158Y-32677932D01*
X88867411Y-32565990D01*
X89110632Y-32403475D01*
X89317475Y-32196632D01*
X89434000Y-32022240D01*
X89550525Y-32196632D01*
X89757368Y-32403475D01*
X90000589Y-32565990D01*
X90270842Y-32677932D01*
X90557740Y-32735000D01*
X90850260Y-32735000D01*
X91137158Y-32677932D01*
X91407411Y-32565990D01*
X91650632Y-32403475D01*
X91857475Y-32196632D01*
X92019990Y-31953411D01*
X92131932Y-31683158D01*
X92189000Y-31396260D01*
X92189000Y-31103740D01*
X92131932Y-30816842D01*
X92019990Y-30546589D01*
X91857475Y-30303368D01*
X91650632Y-30096525D01*
X91476240Y-29980000D01*
X91650632Y-29863475D01*
X91857475Y-29656632D01*
X92019990Y-29413411D01*
X92131932Y-29143158D01*
X92189000Y-28856260D01*
X92189000Y-28563740D01*
X92131932Y-28276842D01*
X92019990Y-28006589D01*
X91857475Y-27763368D01*
X91650632Y-27556525D01*
X91407411Y-27394010D01*
X91137158Y-27282068D01*
X90850260Y-27225000D01*
X90557740Y-27225000D01*
X90270842Y-27282068D01*
X90000589Y-27394010D01*
X89757368Y-27556525D01*
X89550525Y-27763368D01*
X89434000Y-27937760D01*
X89317475Y-27763368D01*
X89110632Y-27556525D01*
X88867411Y-27394010D01*
X88597158Y-27282068D01*
X88310260Y-27225000D01*
X88017740Y-27225000D01*
X87730842Y-27282068D01*
X87460589Y-27394010D01*
X87217368Y-27556525D01*
X87010525Y-27763368D01*
X86894000Y-27937760D01*
X86777475Y-27763368D01*
X86570632Y-27556525D01*
X86327411Y-27394010D01*
X86057158Y-27282068D01*
X85770260Y-27225000D01*
X85477740Y-27225000D01*
X85190842Y-27282068D01*
X84920589Y-27394010D01*
X84677368Y-27556525D01*
X84470525Y-27763368D01*
X84354000Y-27937760D01*
X84237475Y-27763368D01*
X84030632Y-27556525D01*
X83787411Y-27394010D01*
X83517158Y-27282068D01*
X83230260Y-27225000D01*
X82937740Y-27225000D01*
X82650842Y-27282068D01*
X82380589Y-27394010D01*
X82137368Y-27556525D01*
X81930525Y-27763368D01*
X81814000Y-27937760D01*
X81697475Y-27763368D01*
X81490632Y-27556525D01*
X81247411Y-27394010D01*
X80977158Y-27282068D01*
X80690260Y-27225000D01*
X80397740Y-27225000D01*
X80110842Y-27282068D01*
X79840589Y-27394010D01*
X79597368Y-27556525D01*
X79390525Y-27763368D01*
X79274000Y-27937760D01*
X79157475Y-27763368D01*
X78950632Y-27556525D01*
X78707411Y-27394010D01*
X78437158Y-27282068D01*
X78150260Y-27225000D01*
X77857740Y-27225000D01*
X77570842Y-27282068D01*
X77300589Y-27394010D01*
X77057368Y-27556525D01*
X76850525Y-27763368D01*
X76734000Y-27937760D01*
X76617475Y-27763368D01*
X76410632Y-27556525D01*
X76167411Y-27394010D01*
X75897158Y-27282068D01*
X75610260Y-27225000D01*
X75317740Y-27225000D01*
X75030842Y-27282068D01*
X74760589Y-27394010D01*
X74517368Y-27556525D01*
X74310525Y-27763368D01*
X74194000Y-27937760D01*
X74077475Y-27763368D01*
X73870632Y-27556525D01*
X73627411Y-27394010D01*
X73357158Y-27282068D01*
X73070260Y-27225000D01*
X72777740Y-27225000D01*
X72490842Y-27282068D01*
X72220589Y-27394010D01*
X71977368Y-27556525D01*
X71770525Y-27763368D01*
X71608010Y-28006589D01*
X71557761Y-28127901D01*
X71490256Y-28082795D01*
X71301898Y-28004774D01*
X71101939Y-27965000D01*
X70898061Y-27965000D01*
X70698102Y-28004774D01*
X70509744Y-28082795D01*
X70340226Y-28196063D01*
X70279589Y-28256700D01*
X70175990Y-28006589D01*
X70013475Y-27763368D01*
X69806632Y-27556525D01*
X69563411Y-27394010D01*
X69293158Y-27282068D01*
X69006260Y-27225000D01*
X68713740Y-27225000D01*
X68426842Y-27282068D01*
X68156589Y-27394010D01*
X67913368Y-27556525D01*
X67706525Y-27763368D01*
X67590000Y-27937760D01*
X67473475Y-27763368D01*
X67266632Y-27556525D01*
X67023411Y-27394010D01*
X66753158Y-27282068D01*
X66466260Y-27225000D01*
X66173740Y-27225000D01*
X65886842Y-27282068D01*
X65616589Y-27394010D01*
X65373368Y-27556525D01*
X65166525Y-27763368D01*
X65050000Y-27937760D01*
X64933475Y-27763368D01*
X64726632Y-27556525D01*
X64483411Y-27394010D01*
X64213158Y-27282068D01*
X63926260Y-27225000D01*
X63633740Y-27225000D01*
X63346842Y-27282068D01*
X63076589Y-27394010D01*
X62833368Y-27556525D01*
X62626525Y-27763368D01*
X62510000Y-27937760D01*
X62393475Y-27763368D01*
X62186632Y-27556525D01*
X61943411Y-27394010D01*
X61673158Y-27282068D01*
X61386260Y-27225000D01*
X61093740Y-27225000D01*
X60806842Y-27282068D01*
X60536589Y-27394010D01*
X60293368Y-27556525D01*
X60086525Y-27763368D01*
X59970000Y-27937760D01*
X59853475Y-27763368D01*
X59646632Y-27556525D01*
X59403411Y-27394010D01*
X59133158Y-27282068D01*
X58846260Y-27225000D01*
X58553740Y-27225000D01*
X58266842Y-27282068D01*
X57996589Y-27394010D01*
X57753368Y-27556525D01*
X57546525Y-27763368D01*
X57430000Y-27937760D01*
X57313475Y-27763368D01*
X57106632Y-27556525D01*
X56863411Y-27394010D01*
X56593158Y-27282068D01*
X56306260Y-27225000D01*
X56013740Y-27225000D01*
X55726842Y-27282068D01*
X55456589Y-27394010D01*
X55213368Y-27556525D01*
X55006525Y-27763368D01*
X54890000Y-27937760D01*
X54773475Y-27763368D01*
X54566632Y-27556525D01*
X54323411Y-27394010D01*
X54053158Y-27282068D01*
X53766260Y-27225000D01*
X53473740Y-27225000D01*
X53186842Y-27282068D01*
X52916589Y-27394010D01*
X52673368Y-27556525D01*
X52466525Y-27763368D01*
X52350000Y-27937760D01*
X52233475Y-27763368D01*
X52026632Y-27556525D01*
X51783411Y-27394010D01*
X51513158Y-27282068D01*
X51226260Y-27225000D01*
X50933740Y-27225000D01*
X50646842Y-27282068D01*
X50376589Y-27394010D01*
X50133368Y-27556525D01*
X49926525Y-27763368D01*
X49810000Y-27937760D01*
X49693475Y-27763368D01*
X49486632Y-27556525D01*
X49243411Y-27394010D01*
X48973158Y-27282068D01*
X48686260Y-27225000D01*
X48393740Y-27225000D01*
X48106842Y-27282068D01*
X47836589Y-27394010D01*
X47593368Y-27556525D01*
X47386525Y-27763368D01*
X47270000Y-27937760D01*
X47153475Y-27763368D01*
X46946632Y-27556525D01*
X46703411Y-27394010D01*
X46433158Y-27282068D01*
X46146260Y-27225000D01*
X45853740Y-27225000D01*
X45566842Y-27282068D01*
X45296589Y-27394010D01*
X45053368Y-27556525D01*
X44846525Y-27763368D01*
X44684010Y-28006589D01*
X44660000Y-28064555D01*
X44660000Y-27282281D01*
X44664819Y-27233133D01*
X44669718Y-27216908D01*
X44677672Y-27201947D01*
X44688386Y-27188811D01*
X44701441Y-27178012D01*
X44716349Y-27169951D01*
X44732541Y-27164938D01*
X44779525Y-27160000D01*
X92217719Y-27160000D01*
X92266867Y-27164819D01*
%TA.AperFunction,Conductor*%
D27*
G36*
X92266867Y-27164819D02*
G01*
X92283092Y-27169718D01*
X92298053Y-27177672D01*
X92311189Y-27188386D01*
X92321988Y-27201441D01*
X92330049Y-27216349D01*
X92335062Y-27232541D01*
X92340000Y-27279525D01*
X92340000Y-34969992D01*
X92338725Y-34959925D01*
X92221094Y-34607738D01*
X92095577Y-34372914D01*
X91805605Y-34247000D01*
X90671605Y-35381000D01*
X91805605Y-36515000D01*
X92095577Y-36389086D01*
X92261433Y-36056874D01*
X92340000Y-35769294D01*
X92340000Y-39009333D01*
X92304561Y-38831166D01*
X92162466Y-38488118D01*
X91956175Y-38179382D01*
X91693618Y-37916825D01*
X91384882Y-37710534D01*
X91041834Y-37568439D01*
X90677656Y-37496000D01*
X90306344Y-37496000D01*
X89942166Y-37568439D01*
X89599118Y-37710534D01*
X89290382Y-37916825D01*
X89027825Y-38179382D01*
X88821534Y-38488118D01*
X88679439Y-38831166D01*
X88607000Y-39195344D01*
X88607000Y-39566656D01*
X88679439Y-39930834D01*
X88821534Y-40273882D01*
X89027825Y-40582618D01*
X89290382Y-40845175D01*
X89599118Y-41051466D01*
X89942166Y-41193561D01*
X90306344Y-41266000D01*
X90677656Y-41266000D01*
X91041834Y-41193561D01*
X91384882Y-41051466D01*
X91693618Y-40845175D01*
X91956175Y-40582618D01*
X92162466Y-40273882D01*
X92304561Y-39930834D01*
X92340000Y-39752667D01*
X92340000Y-43009333D01*
X92304561Y-42831166D01*
X92162466Y-42488118D01*
X91956175Y-42179382D01*
X91693618Y-41916825D01*
X91384882Y-41710534D01*
X91041834Y-41568439D01*
X90677656Y-41496000D01*
X90306344Y-41496000D01*
X89942166Y-41568439D01*
X89599118Y-41710534D01*
X89290382Y-41916825D01*
X89027825Y-42179382D01*
X88821534Y-42488118D01*
X88679439Y-42831166D01*
X88607000Y-43195344D01*
X88607000Y-43566656D01*
X88679439Y-43930834D01*
X88821534Y-44273882D01*
X89027825Y-44582618D01*
X89290382Y-44845175D01*
X89599118Y-45051466D01*
X89942166Y-45193561D01*
X90306344Y-45266000D01*
X90677656Y-45266000D01*
X91041834Y-45193561D01*
X91384882Y-45051466D01*
X91693618Y-44845175D01*
X91956175Y-44582618D01*
X92162466Y-44273882D01*
X92304561Y-43930834D01*
X92340000Y-43752667D01*
X92340001Y-49509334D01*
X92304561Y-49331166D01*
X92162466Y-48988118D01*
X91956175Y-48679382D01*
X91693618Y-48416825D01*
X91384882Y-48210534D01*
X91227398Y-48145302D01*
X91230556Y-48113234D01*
X91216365Y-47969149D01*
X91174337Y-47830600D01*
X91106087Y-47702914D01*
X91078813Y-47669681D01*
X91014238Y-47590996D01*
X90986193Y-47567980D01*
X87188072Y-43769860D01*
X87188072Y-42340000D01*
X87175812Y-42215518D01*
X87139502Y-42095820D01*
X87080537Y-41985506D01*
X87067812Y-41970000D01*
X87080537Y-41954494D01*
X87139502Y-41844180D01*
X87175812Y-41724482D01*
X87188072Y-41600000D01*
X87185000Y-40985750D01*
X87026250Y-40827000D01*
X85427000Y-40827000D01*
X85427000Y-40847000D01*
X85173000Y-40847000D01*
X85173000Y-40827000D01*
X83573750Y-40827000D01*
X83415000Y-40985750D01*
X83411928Y-41600000D01*
X83424188Y-41724482D01*
X83460498Y-41844180D01*
X83519463Y-41954494D01*
X83532188Y-41970000D01*
X83519463Y-41985506D01*
X83460498Y-42095820D01*
X83424188Y-42215518D01*
X83411928Y-42340000D01*
X83411928Y-42726932D01*
X83351939Y-42715000D01*
X83188072Y-42715000D01*
X83188072Y-42275000D01*
X83175812Y-42150518D01*
X83175655Y-42150000D01*
X83175812Y-42149482D01*
X83188072Y-42025000D01*
X83188072Y-41475000D01*
X83175812Y-41350518D01*
X83175655Y-41350000D01*
X83175812Y-41349482D01*
X83188072Y-41225000D01*
X83188072Y-40675000D01*
X83175812Y-40550518D01*
X83139502Y-40430820D01*
X83080537Y-40320506D01*
X83001185Y-40223815D01*
X82904494Y-40144463D01*
X82794180Y-40085498D01*
X82738326Y-40068555D01*
X82745226Y-40051898D01*
X82785000Y-39851939D01*
X82785000Y-39800000D01*
X83411928Y-39800000D01*
X83415000Y-40414250D01*
X83573750Y-40573000D01*
X85173000Y-40573000D01*
X85173000Y-39323750D01*
X85427000Y-39323750D01*
X85427000Y-40573000D01*
X87026250Y-40573000D01*
X87185000Y-40414250D01*
X87188072Y-39800000D01*
X87175812Y-39675518D01*
X87139502Y-39555820D01*
X87080537Y-39445506D01*
X87001185Y-39348815D01*
X86904494Y-39269463D01*
X86794180Y-39210498D01*
X86674482Y-39174188D01*
X86550000Y-39161928D01*
X85585750Y-39165000D01*
X85427000Y-39323750D01*
X85173000Y-39323750D01*
X85014250Y-39165000D01*
X84050000Y-39161928D01*
X83925518Y-39174188D01*
X83805820Y-39210498D01*
X83695506Y-39269463D01*
X83598815Y-39348815D01*
X83519463Y-39445506D01*
X83460498Y-39555820D01*
X83424188Y-39675518D01*
X83411928Y-39800000D01*
X82785000Y-39800000D01*
X82785000Y-39648061D01*
X82745226Y-39448102D01*
X82667205Y-39259744D01*
X82553937Y-39090226D01*
X82409774Y-38946063D01*
X82240256Y-38832795D01*
X82054394Y-38755808D01*
X82085000Y-38601940D01*
X82085000Y-38464376D01*
X82186775Y-38409975D01*
X82302500Y-38315002D01*
X82326302Y-38285999D01*
X82349229Y-38263072D01*
X82975000Y-38263072D01*
X83148254Y-38246008D01*
X83314850Y-38195472D01*
X83468386Y-38113405D01*
X83602962Y-38002962D01*
X83713405Y-37868386D01*
X83795472Y-37714850D01*
X83846008Y-37548254D01*
X83863072Y-37375000D01*
X83863072Y-36700000D01*
X83862541Y-36694605D01*
X89358000Y-36694605D01*
X89483914Y-36984577D01*
X89816126Y-37150433D01*
X90174312Y-37248290D01*
X90544706Y-37274389D01*
X90913075Y-37227725D01*
X91265262Y-37110094D01*
X91500086Y-36984577D01*
X91626000Y-36694605D01*
X90492000Y-35560605D01*
X89358000Y-36694605D01*
X83862541Y-36694605D01*
X83846008Y-36526746D01*
X83795472Y-36360150D01*
X83713405Y-36206614D01*
X83602962Y-36072038D01*
X83596406Y-36066658D01*
X83676185Y-36001185D01*
X83755537Y-35904494D01*
X83814502Y-35794180D01*
X83850812Y-35674482D01*
X83863072Y-35550000D01*
X83861889Y-35433706D01*
X88598611Y-35433706D01*
X88645275Y-35802075D01*
X88762906Y-36154262D01*
X88888423Y-36389086D01*
X89178395Y-36515000D01*
X90312395Y-35381000D01*
X89178395Y-34247000D01*
X88888423Y-34372914D01*
X88722567Y-34705126D01*
X88624710Y-35063312D01*
X88598611Y-35433706D01*
X83861889Y-35433706D01*
X83860000Y-35248250D01*
X83701250Y-35089500D01*
X82627000Y-35089500D01*
X82627000Y-35109500D01*
X82373000Y-35109500D01*
X82373000Y-35089500D01*
X82353000Y-35089500D01*
X82353000Y-34835500D01*
X82373000Y-34835500D01*
X82373000Y-33898750D01*
X82627000Y-33898750D01*
X82627000Y-34835500D01*
X83701250Y-34835500D01*
X83860000Y-34676750D01*
X83863072Y-34375000D01*
X83850812Y-34250518D01*
X83814502Y-34130820D01*
X83780601Y-34067395D01*
X89358000Y-34067395D01*
X90492000Y-35201395D01*
X91626000Y-34067395D01*
X91500086Y-33777423D01*
X91167874Y-33611567D01*
X90809688Y-33513710D01*
X90439294Y-33487611D01*
X90070925Y-33534275D01*
X89718738Y-33651906D01*
X89483914Y-33777423D01*
X89358000Y-34067395D01*
X83780601Y-34067395D01*
X83755537Y-34020506D01*
X83676185Y-33923815D01*
X83579494Y-33844463D01*
X83469180Y-33785498D01*
X83349482Y-33749188D01*
X83225000Y-33736928D01*
X82785750Y-33740000D01*
X82627000Y-33898750D01*
X82373000Y-33898750D01*
X82214250Y-33740000D01*
X81775000Y-33736928D01*
X81650518Y-33749188D01*
X81530820Y-33785498D01*
X81420506Y-33844463D01*
X81323815Y-33923815D01*
X81244463Y-34020506D01*
X81185498Y-34130820D01*
X81149188Y-34250518D01*
X81136928Y-34375000D01*
X81137392Y-34420535D01*
X81050000Y-34411928D01*
X80710750Y-34415000D01*
X80552000Y-34573750D01*
X80552000Y-35373000D01*
X80572000Y-35373000D01*
X80572000Y-35627000D01*
X80552000Y-35627000D01*
X80552000Y-36873000D01*
X80572000Y-36873000D01*
X80572000Y-37015001D01*
X80212324Y-37015001D01*
X80174999Y-37011325D01*
X80137674Y-37015001D01*
X80137666Y-37015001D01*
X80026013Y-37025998D01*
X79882752Y-37069455D01*
X79775094Y-37127000D01*
X79323750Y-37127000D01*
X79165000Y-37285750D01*
X79161928Y-37450000D01*
X79174188Y-37574482D01*
X79203637Y-37671562D01*
X78989002Y-37886197D01*
X78959999Y-37909999D01*
X78920772Y-37957798D01*
X78865026Y-38025724D01*
X78845674Y-38061928D01*
X78660000Y-38061928D01*
X78660000Y-35950000D01*
X79161928Y-35950000D01*
X79174188Y-36074482D01*
X79210498Y-36194180D01*
X79240335Y-36250000D01*
X79210498Y-36305820D01*
X79174188Y-36425518D01*
X79161928Y-36550000D01*
X79165000Y-36714250D01*
X79323750Y-36873000D01*
X80298000Y-36873000D01*
X80298000Y-35627000D01*
X79323750Y-35627000D01*
X79165000Y-35785750D01*
X79161928Y-35950000D01*
X78660000Y-35950000D01*
X78660000Y-35202331D01*
X78663677Y-35164998D01*
X78652351Y-35050000D01*
X79161928Y-35050000D01*
X79165000Y-35214250D01*
X79323750Y-35373000D01*
X80298000Y-35373000D01*
X80298000Y-34573750D01*
X80139250Y-34415000D01*
X79800000Y-34411928D01*
X79675518Y-34424188D01*
X79555820Y-34460498D01*
X79445506Y-34519463D01*
X79348815Y-34598815D01*
X79269463Y-34695506D01*
X79210498Y-34805820D01*
X79174188Y-34925518D01*
X79161928Y-35050000D01*
X78652351Y-35050000D01*
X78649003Y-35016012D01*
X78605546Y-34872751D01*
X78534974Y-34740722D01*
X78463799Y-34653995D01*
X78440001Y-34624997D01*
X78411003Y-34601199D01*
X77548805Y-33739002D01*
X77525003Y-33709999D01*
X77409278Y-33615026D01*
X77366734Y-33592285D01*
X76268247Y-32493799D01*
X76464269Y-32347588D01*
X76659178Y-32131355D01*
X76728805Y-32014466D01*
X76850525Y-32196632D01*
X77057368Y-32403475D01*
X77300589Y-32565990D01*
X77570842Y-32677932D01*
X77857740Y-32735000D01*
X78150260Y-32735000D01*
X78437158Y-32677932D01*
X78707411Y-32565990D01*
X78950632Y-32403475D01*
X79157475Y-32196632D01*
X79274000Y-32022240D01*
X79390525Y-32196632D01*
X79597368Y-32403475D01*
X79840589Y-32565990D01*
X80110842Y-32677932D01*
X80397740Y-32735000D01*
X80690260Y-32735000D01*
X80977158Y-32677932D01*
X81247411Y-32565990D01*
X81490632Y-32403475D01*
X81697475Y-32196632D01*
X81814000Y-32022240D01*
X81930525Y-32196632D01*
X82137368Y-32403475D01*
X82380589Y-32565990D01*
X82650842Y-32677932D01*
X82937740Y-32735000D01*
X83230260Y-32735000D01*
X83517158Y-32677932D01*
X83787411Y-32565990D01*
X84030632Y-32403475D01*
X84237475Y-32196632D01*
X84354000Y-32022240D01*
X84470525Y-32196632D01*
X84677368Y-32403475D01*
X84920589Y-32565990D01*
X85190842Y-32677932D01*
X85477740Y-32735000D01*
X85770260Y-32735000D01*
X86057158Y-32677932D01*
X86327411Y-32565990D01*
X86570632Y-32403475D01*
X86777475Y-32196632D01*
X86894000Y-32022240D01*
X87010525Y-32196632D01*
X87217368Y-32403475D01*
X87460589Y-32565990D01*
X87730842Y-32677932D01*
X88017740Y-32735000D01*
X88310260Y-32735000D01*
X88597158Y-32677932D01*
X88867411Y-32565990D01*
X89110632Y-32403475D01*
X89317475Y-32196632D01*
X89434000Y-32022240D01*
X89550525Y-32196632D01*
X89757368Y-32403475D01*
X90000589Y-32565990D01*
X90270842Y-32677932D01*
X90557740Y-32735000D01*
X90850260Y-32735000D01*
X91137158Y-32677932D01*
X91407411Y-32565990D01*
X91650632Y-32403475D01*
X91857475Y-32196632D01*
X92019990Y-31953411D01*
X92131932Y-31683158D01*
X92189000Y-31396260D01*
X92189000Y-31103740D01*
X92131932Y-30816842D01*
X92019990Y-30546589D01*
X91857475Y-30303368D01*
X91650632Y-30096525D01*
X91476240Y-29980000D01*
X91650632Y-29863475D01*
X91857475Y-29656632D01*
X92019990Y-29413411D01*
X92131932Y-29143158D01*
X92189000Y-28856260D01*
X92189000Y-28563740D01*
X92131932Y-28276842D01*
X92019990Y-28006589D01*
X91857475Y-27763368D01*
X91650632Y-27556525D01*
X91407411Y-27394010D01*
X91137158Y-27282068D01*
X90850260Y-27225000D01*
X90557740Y-27225000D01*
X90270842Y-27282068D01*
X90000589Y-27394010D01*
X89757368Y-27556525D01*
X89550525Y-27763368D01*
X89434000Y-27937760D01*
X89317475Y-27763368D01*
X89110632Y-27556525D01*
X88867411Y-27394010D01*
X88597158Y-27282068D01*
X88310260Y-27225000D01*
X88017740Y-27225000D01*
X87730842Y-27282068D01*
X87460589Y-27394010D01*
X87217368Y-27556525D01*
X87010525Y-27763368D01*
X86894000Y-27937760D01*
X86777475Y-27763368D01*
X86570632Y-27556525D01*
X86327411Y-27394010D01*
X86057158Y-27282068D01*
X85770260Y-27225000D01*
X85477740Y-27225000D01*
X85190842Y-27282068D01*
X84920589Y-27394010D01*
X84677368Y-27556525D01*
X84470525Y-27763368D01*
X84354000Y-27937760D01*
X84237475Y-27763368D01*
X84030632Y-27556525D01*
X83787411Y-27394010D01*
X83517158Y-27282068D01*
X83230260Y-27225000D01*
X82937740Y-27225000D01*
X82650842Y-27282068D01*
X82380589Y-27394010D01*
X82137368Y-27556525D01*
X81930525Y-27763368D01*
X81814000Y-27937760D01*
X81697475Y-27763368D01*
X81490632Y-27556525D01*
X81247411Y-27394010D01*
X80977158Y-27282068D01*
X80690260Y-27225000D01*
X80397740Y-27225000D01*
X80110842Y-27282068D01*
X79840589Y-27394010D01*
X79597368Y-27556525D01*
X79390525Y-27763368D01*
X79274000Y-27937760D01*
X79157475Y-27763368D01*
X78950632Y-27556525D01*
X78707411Y-27394010D01*
X78437158Y-27282068D01*
X78150260Y-27225000D01*
X77857740Y-27225000D01*
X77570842Y-27282068D01*
X77300589Y-27394010D01*
X77057368Y-27556525D01*
X76850525Y-27763368D01*
X76734000Y-27937760D01*
X76617475Y-27763368D01*
X76410632Y-27556525D01*
X76167411Y-27394010D01*
X75897158Y-27282068D01*
X75610260Y-27225000D01*
X75317740Y-27225000D01*
X75030842Y-27282068D01*
X74760589Y-27394010D01*
X74517368Y-27556525D01*
X74310525Y-27763368D01*
X74194000Y-27937760D01*
X74077475Y-27763368D01*
X73870632Y-27556525D01*
X73627411Y-27394010D01*
X73357158Y-27282068D01*
X73070260Y-27225000D01*
X72777740Y-27225000D01*
X72490842Y-27282068D01*
X72220589Y-27394010D01*
X71977368Y-27556525D01*
X71770525Y-27763368D01*
X71608010Y-28006589D01*
X71557761Y-28127901D01*
X71490256Y-28082795D01*
X71301898Y-28004774D01*
X71101939Y-27965000D01*
X70898061Y-27965000D01*
X70698102Y-28004774D01*
X70509744Y-28082795D01*
X70340226Y-28196063D01*
X70279589Y-28256700D01*
X70175990Y-28006589D01*
X70013475Y-27763368D01*
X69806632Y-27556525D01*
X69563411Y-27394010D01*
X69293158Y-27282068D01*
X69006260Y-27225000D01*
X68713740Y-27225000D01*
X68426842Y-27282068D01*
X68156589Y-27394010D01*
X67913368Y-27556525D01*
X67706525Y-27763368D01*
X67590000Y-27937760D01*
X67473475Y-27763368D01*
X67266632Y-27556525D01*
X67023411Y-27394010D01*
X66753158Y-27282068D01*
X66466260Y-27225000D01*
X66173740Y-27225000D01*
X65886842Y-27282068D01*
X65616589Y-27394010D01*
X65373368Y-27556525D01*
X65166525Y-27763368D01*
X65050000Y-27937760D01*
X64933475Y-27763368D01*
X64726632Y-27556525D01*
X64483411Y-27394010D01*
X64213158Y-27282068D01*
X63926260Y-27225000D01*
X63633740Y-27225000D01*
X63346842Y-27282068D01*
X63076589Y-27394010D01*
X62833368Y-27556525D01*
X62626525Y-27763368D01*
X62510000Y-27937760D01*
X62393475Y-27763368D01*
X62186632Y-27556525D01*
X61943411Y-27394010D01*
X61673158Y-27282068D01*
X61386260Y-27225000D01*
X61093740Y-27225000D01*
X60806842Y-27282068D01*
X60536589Y-27394010D01*
X60293368Y-27556525D01*
X60086525Y-27763368D01*
X59970000Y-27937760D01*
X59853475Y-27763368D01*
X59646632Y-27556525D01*
X59403411Y-27394010D01*
X59133158Y-27282068D01*
X58846260Y-27225000D01*
X58553740Y-27225000D01*
X58266842Y-27282068D01*
X57996589Y-27394010D01*
X57753368Y-27556525D01*
X57546525Y-27763368D01*
X57430000Y-27937760D01*
X57313475Y-27763368D01*
X57106632Y-27556525D01*
X56863411Y-27394010D01*
X56593158Y-27282068D01*
X56306260Y-27225000D01*
X56013740Y-27225000D01*
X55726842Y-27282068D01*
X55456589Y-27394010D01*
X55213368Y-27556525D01*
X55006525Y-27763368D01*
X54890000Y-27937760D01*
X54773475Y-27763368D01*
X54566632Y-27556525D01*
X54323411Y-27394010D01*
X54053158Y-27282068D01*
X53766260Y-27225000D01*
X53473740Y-27225000D01*
X53186842Y-27282068D01*
X52916589Y-27394010D01*
X52673368Y-27556525D01*
X52466525Y-27763368D01*
X52350000Y-27937760D01*
X52233475Y-27763368D01*
X52026632Y-27556525D01*
X51783411Y-27394010D01*
X51513158Y-27282068D01*
X51226260Y-27225000D01*
X50933740Y-27225000D01*
X50646842Y-27282068D01*
X50376589Y-27394010D01*
X50133368Y-27556525D01*
X49926525Y-27763368D01*
X49810000Y-27937760D01*
X49693475Y-27763368D01*
X49486632Y-27556525D01*
X49243411Y-27394010D01*
X48973158Y-27282068D01*
X48686260Y-27225000D01*
X48393740Y-27225000D01*
X48106842Y-27282068D01*
X47836589Y-27394010D01*
X47593368Y-27556525D01*
X47386525Y-27763368D01*
X47270000Y-27937760D01*
X47153475Y-27763368D01*
X46946632Y-27556525D01*
X46703411Y-27394010D01*
X46433158Y-27282068D01*
X46146260Y-27225000D01*
X45853740Y-27225000D01*
X45566842Y-27282068D01*
X45296589Y-27394010D01*
X45053368Y-27556525D01*
X44846525Y-27763368D01*
X44684010Y-28006589D01*
X44660000Y-28064555D01*
X44660000Y-27282281D01*
X44664819Y-27233133D01*
X44669718Y-27216908D01*
X44677672Y-27201947D01*
X44688386Y-27188811D01*
X44701441Y-27178012D01*
X44716349Y-27169951D01*
X44732541Y-27164938D01*
X44779525Y-27160000D01*
X92217719Y-27160000D01*
X92266867Y-27164819D01*
G37*
%TD.AperFunction*%
D26*
X77896063Y-45859774D02*
X77940001Y-45903712D01*
X77940000Y-46790018D01*
X77900000Y-46838759D01*
X77860000Y-46790019D01*
X77860000Y-45805802D01*
X77896063Y-45859774D01*
%TA.AperFunction,Conductor*%
D27*
G36*
X77896063Y-45859774D02*
G01*
X77940001Y-45903712D01*
X77940000Y-46790018D01*
X77900000Y-46838759D01*
X77860000Y-46790019D01*
X77860000Y-45805802D01*
X77896063Y-45859774D01*
G37*
%TD.AperFunction*%
D26*
X77140001Y-43285197D02*
X76589002Y-43836197D01*
X76559999Y-43859999D01*
X76508840Y-43922337D01*
X76465026Y-43975724D01*
X76421825Y-44056547D01*
X76394454Y-44107754D01*
X76350997Y-44251015D01*
X76340000Y-44362668D01*
X76340000Y-44362678D01*
X76336324Y-44400000D01*
X76340000Y-44437323D01*
X76340000Y-45276289D01*
X76259774Y-45196063D01*
X76090256Y-45082795D01*
X75901898Y-45004774D01*
X75701939Y-44965000D01*
X75498061Y-44965000D01*
X75435000Y-44977544D01*
X75435000Y-44570144D01*
X75688004Y-44317141D01*
X75755671Y-44303681D01*
X75944029Y-44225660D01*
X76113547Y-44112392D01*
X76257710Y-43968229D01*
X76370978Y-43798711D01*
X76448999Y-43610353D01*
X76488773Y-43410394D01*
X76488773Y-43206516D01*
X76448999Y-43006557D01*
X76370978Y-42818199D01*
X76257710Y-42648681D01*
X76113547Y-42504518D01*
X75944029Y-42391250D01*
X75769171Y-42318821D01*
X75748999Y-42217408D01*
X75692685Y-42081455D01*
X75821019Y-42167205D01*
X76009377Y-42245226D01*
X76209336Y-42285000D01*
X76413214Y-42285000D01*
X76613173Y-42245226D01*
X76801531Y-42167205D01*
X76971049Y-42053937D01*
X77115212Y-41909774D01*
X77140001Y-41872675D01*
X77140001Y-43285197D01*
%TA.AperFunction,Conductor*%
D27*
G36*
X77140001Y-43285197D02*
G01*
X76589002Y-43836197D01*
X76559999Y-43859999D01*
X76508840Y-43922337D01*
X76465026Y-43975724D01*
X76421825Y-44056547D01*
X76394454Y-44107754D01*
X76350997Y-44251015D01*
X76340000Y-44362668D01*
X76340000Y-44362678D01*
X76336324Y-44400000D01*
X76340000Y-44437323D01*
X76340000Y-45276289D01*
X76259774Y-45196063D01*
X76090256Y-45082795D01*
X75901898Y-45004774D01*
X75701939Y-44965000D01*
X75498061Y-44965000D01*
X75435000Y-44977544D01*
X75435000Y-44570144D01*
X75688004Y-44317141D01*
X75755671Y-44303681D01*
X75944029Y-44225660D01*
X76113547Y-44112392D01*
X76257710Y-43968229D01*
X76370978Y-43798711D01*
X76448999Y-43610353D01*
X76488773Y-43410394D01*
X76488773Y-43206516D01*
X76448999Y-43006557D01*
X76370978Y-42818199D01*
X76257710Y-42648681D01*
X76113547Y-42504518D01*
X75944029Y-42391250D01*
X75769171Y-42318821D01*
X75748999Y-42217408D01*
X75692685Y-42081455D01*
X75821019Y-42167205D01*
X76009377Y-42245226D01*
X76209336Y-42285000D01*
X76413214Y-42285000D01*
X76613173Y-42245226D01*
X76801531Y-42167205D01*
X76971049Y-42053937D01*
X77115212Y-41909774D01*
X77140001Y-41872675D01*
X77140001Y-43285197D01*
G37*
%TD.AperFunction*%
D26*
X76972998Y-38205166D02*
X76929494Y-38169463D01*
X76906333Y-38157083D01*
X76837322Y-38088072D01*
X76972998Y-38088072D01*
X76972998Y-38205166D01*
%TA.AperFunction,Conductor*%
D27*
G36*
X76972998Y-38205166D02*
G01*
X76929494Y-38169463D01*
X76906333Y-38157083D01*
X76837322Y-38088072D01*
X76972998Y-38088072D01*
X76972998Y-38205166D01*
G37*
%TD.AperFunction*%
D26*
X75591000Y-31123000D02*
X75611000Y-31123000D01*
X75611000Y-31377000D01*
X75591000Y-31377000D01*
X75591000Y-31397000D01*
X75337000Y-31397000D01*
X75337000Y-31377000D01*
X75317000Y-31377000D01*
X75317000Y-31123000D01*
X75337000Y-31123000D01*
X75337000Y-31103000D01*
X75591000Y-31103000D01*
X75591000Y-31123000D01*
%TA.AperFunction,Conductor*%
D27*
G36*
X75591000Y-31123000D02*
G01*
X75611000Y-31123000D01*
X75611000Y-31377000D01*
X75591000Y-31377000D01*
X75591000Y-31397000D01*
X75337000Y-31397000D01*
X75337000Y-31377000D01*
X75317000Y-31377000D01*
X75317000Y-31123000D01*
X75337000Y-31123000D01*
X75337000Y-31103000D01*
X75591000Y-31103000D01*
X75591000Y-31123000D01*
G37*
%TD.AperFunction*%
%TD*%
M02*
