%TF.GenerationSoftware,KiCad,Pcbnew,(5.1.8)-1*%
%TF.CreationDate,2021-03-21T14:54:03+01:00*%
%TF.ProjectId,GBAHD_Shield,47424148-445f-4536-9869-656c642e6b69,rev?*%
%TF.SameCoordinates,Original*%
%TF.FileFunction,Soldermask,Top*%
%TF.FilePolarity,Negative*%
%FSLAX46Y46*%
G04 Gerber Fmt 4.6, Leading zero omitted, Abs format (unit mm)*
G04 Created by KiCad (PCBNEW (5.1.8)-1) date 2021-03-21 14:54:03*
%MOMM*%
%LPD*%
G01*
G04 APERTURE LIST*
%ADD10R,1.500000X1.500000*%
%ADD11R,0.900000X1.000000*%
%ADD12C,0.100000*%
%ADD13R,0.900000X1.300000*%
%ADD14R,1.500000X1.000000*%
%ADD15R,2.300000X3.100000*%
%ADD16R,0.300000X1.100000*%
%ADD17R,0.550000X1.600000*%
%ADD18R,1.600000X0.550000*%
%ADD19C,2.500000*%
%ADD20R,0.800000X0.900000*%
%ADD21O,1.700000X1.700000*%
%ADD22R,1.700000X1.700000*%
G04 APERTURE END LIST*
D10*
%TO.C,BAT-*%
X41529000Y-77470000D03*
%TD*%
%TO.C,BAT+*%
X45085000Y-77470000D03*
%TD*%
D11*
%TO.C,SW1*%
X77325000Y-37973000D03*
X77325000Y-39573000D03*
X81425000Y-37973000D03*
X81425000Y-39573000D03*
%TD*%
%TO.C,R4*%
G36*
G01*
X76838000Y-42233001D02*
X76838000Y-41332999D01*
G75*
G02*
X77087999Y-41083000I249999J0D01*
G01*
X77788001Y-41083000D01*
G75*
G02*
X78038000Y-41332999I0J-249999D01*
G01*
X78038000Y-42233001D01*
G75*
G02*
X77788001Y-42483000I-249999J0D01*
G01*
X77087999Y-42483000D01*
G75*
G02*
X76838000Y-42233001I0J249999D01*
G01*
G37*
G36*
G01*
X74838000Y-42233001D02*
X74838000Y-41332999D01*
G75*
G02*
X75087999Y-41083000I249999J0D01*
G01*
X75788001Y-41083000D01*
G75*
G02*
X76038000Y-41332999I0J-249999D01*
G01*
X76038000Y-42233001D01*
G75*
G02*
X75788001Y-42483000I-249999J0D01*
G01*
X75087999Y-42483000D01*
G75*
G02*
X74838000Y-42233001I0J249999D01*
G01*
G37*
%TD*%
D12*
%TO.C,U1*%
G36*
X68983500Y-43956000D02*
G01*
X68983500Y-40831000D01*
X69400000Y-40831000D01*
X69400000Y-39356000D01*
X70300000Y-39356000D01*
X70300000Y-40831000D01*
X70716500Y-40831000D01*
X70716500Y-43956000D01*
X68983500Y-43956000D01*
G37*
D13*
X68350000Y-40006000D03*
X71350000Y-40006000D03*
%TD*%
%TO.C,R1*%
G36*
G01*
X73888001Y-38446000D02*
X72987999Y-38446000D01*
G75*
G02*
X72738000Y-38196001I0J249999D01*
G01*
X72738000Y-37495999D01*
G75*
G02*
X72987999Y-37246000I249999J0D01*
G01*
X73888001Y-37246000D01*
G75*
G02*
X74138000Y-37495999I0J-249999D01*
G01*
X74138000Y-38196001D01*
G75*
G02*
X73888001Y-38446000I-249999J0D01*
G01*
G37*
G36*
G01*
X73888001Y-40446000D02*
X72987999Y-40446000D01*
G75*
G02*
X72738000Y-40196001I0J249999D01*
G01*
X72738000Y-39495999D01*
G75*
G02*
X72987999Y-39246000I249999J0D01*
G01*
X73888001Y-39246000D01*
G75*
G02*
X74138000Y-39495999I0J-249999D01*
G01*
X74138000Y-40196001D01*
G75*
G02*
X73888001Y-40446000I-249999J0D01*
G01*
G37*
%TD*%
%TO.C,C1*%
G36*
G01*
X66769000Y-42200500D02*
X65819000Y-42200500D01*
G75*
G02*
X65569000Y-41950500I0J250000D01*
G01*
X65569000Y-41275500D01*
G75*
G02*
X65819000Y-41025500I250000J0D01*
G01*
X66769000Y-41025500D01*
G75*
G02*
X67019000Y-41275500I0J-250000D01*
G01*
X67019000Y-41950500D01*
G75*
G02*
X66769000Y-42200500I-250000J0D01*
G01*
G37*
G36*
G01*
X66769000Y-44275500D02*
X65819000Y-44275500D01*
G75*
G02*
X65569000Y-44025500I0J250000D01*
G01*
X65569000Y-43350500D01*
G75*
G02*
X65819000Y-43100500I250000J0D01*
G01*
X66769000Y-43100500D01*
G75*
G02*
X67019000Y-43350500I0J-250000D01*
G01*
X67019000Y-44025500D01*
G75*
G02*
X66769000Y-44275500I-250000J0D01*
G01*
G37*
%TD*%
D14*
%TO.C,JP1*%
X65532000Y-49784000D03*
X65532000Y-48484000D03*
X65532000Y-47184000D03*
%TD*%
%TO.C,R2*%
G36*
G01*
X69942000Y-37395999D02*
X69942000Y-38296001D01*
G75*
G02*
X69692001Y-38546000I-249999J0D01*
G01*
X68991999Y-38546000D01*
G75*
G02*
X68742000Y-38296001I0J249999D01*
G01*
X68742000Y-37395999D01*
G75*
G02*
X68991999Y-37146000I249999J0D01*
G01*
X69692001Y-37146000D01*
G75*
G02*
X69942000Y-37395999I0J-249999D01*
G01*
G37*
G36*
G01*
X71942000Y-37395999D02*
X71942000Y-38296001D01*
G75*
G02*
X71692001Y-38546000I-249999J0D01*
G01*
X70991999Y-38546000D01*
G75*
G02*
X70742000Y-38296001I0J249999D01*
G01*
X70742000Y-37395999D01*
G75*
G02*
X70991999Y-37146000I249999J0D01*
G01*
X71692001Y-37146000D01*
G75*
G02*
X71942000Y-37395999I0J-249999D01*
G01*
G37*
%TD*%
D12*
%TO.C,SJ1*%
G36*
X69596000Y-70394000D02*
G01*
X68846000Y-69894000D01*
X68846000Y-68894000D01*
X70346000Y-68894000D01*
X70346000Y-69894000D01*
X69596000Y-70394000D01*
G37*
G36*
X68846000Y-71344000D02*
G01*
X68846000Y-70194000D01*
X69596000Y-70694000D01*
X70346000Y-70194000D01*
X70346000Y-71344000D01*
X68846000Y-71344000D01*
G37*
%TD*%
D15*
%TO.C,J4*%
X83840000Y-70200000D03*
X73000000Y-70200000D03*
D16*
X82170000Y-68500000D03*
X81670000Y-68500000D03*
X81170000Y-68500000D03*
X80670000Y-68500000D03*
X80170000Y-68500000D03*
X79670000Y-68500000D03*
X79170000Y-68500000D03*
X78670000Y-68500000D03*
X78170000Y-68500000D03*
X77670000Y-68500000D03*
X77170000Y-68500000D03*
X76670000Y-68500000D03*
X76170000Y-68500000D03*
X75670000Y-68500000D03*
X75170000Y-68500000D03*
X74670000Y-68500000D03*
%TD*%
D10*
%TO.C,T3*%
X85852000Y-36703000D03*
%TD*%
%TO.C,T1*%
X85852000Y-41275000D03*
%TD*%
%TO.C,T2*%
X85852000Y-38989000D03*
%TD*%
%TO.C,T4*%
X85852000Y-34417000D03*
%TD*%
%TO.C,T8*%
X80645000Y-55372000D03*
%TD*%
%TO.C,T7*%
X78359000Y-55372000D03*
%TD*%
%TO.C,T6*%
X76073000Y-55372000D03*
%TD*%
%TO.C,T5*%
X76073000Y-53213000D03*
%TD*%
D17*
%TO.C,U5*%
X78600000Y-44550000D03*
X79400000Y-44550000D03*
X80200000Y-44550000D03*
X81000000Y-44550000D03*
X81800000Y-44550000D03*
X82600000Y-44550000D03*
X83400000Y-44550000D03*
X84200000Y-44550000D03*
D18*
X85650000Y-46000000D03*
X85650000Y-46800000D03*
X85650000Y-47600000D03*
X85650000Y-48400000D03*
X85650000Y-49200000D03*
X85650000Y-50000000D03*
X85650000Y-50800000D03*
X85650000Y-51600000D03*
D17*
X84200000Y-53050000D03*
X83400000Y-53050000D03*
X82600000Y-53050000D03*
X81800000Y-53050000D03*
X81000000Y-53050000D03*
X80200000Y-53050000D03*
X79400000Y-53050000D03*
X78600000Y-53050000D03*
D18*
X77150000Y-51600000D03*
X77150000Y-50800000D03*
X77150000Y-50000000D03*
X77150000Y-49200000D03*
X77150000Y-48400000D03*
X77150000Y-47600000D03*
X77150000Y-46800000D03*
X77150000Y-46000000D03*
%TD*%
D15*
%TO.C,J5*%
X66170000Y-70200000D03*
X43330000Y-70200000D03*
D16*
X64500000Y-68500000D03*
X64000000Y-68500000D03*
X63500000Y-68500000D03*
X63000000Y-68500000D03*
X62500000Y-68500000D03*
X62000000Y-68500000D03*
X61500000Y-68500000D03*
X61000000Y-68500000D03*
X60500000Y-68500000D03*
X60000000Y-68500000D03*
X59500000Y-68500000D03*
X59000000Y-68500000D03*
X58500000Y-68500000D03*
X58000000Y-68500000D03*
X57500000Y-68500000D03*
X57000000Y-68500000D03*
X56500000Y-68500000D03*
X56000000Y-68500000D03*
X55500000Y-68500000D03*
X55000000Y-68500000D03*
X54500000Y-68500000D03*
X54000000Y-68500000D03*
X53500000Y-68500000D03*
X53000000Y-68500000D03*
X52500000Y-68500000D03*
X52000000Y-68500000D03*
X51500000Y-68500000D03*
X51000000Y-68500000D03*
X50500000Y-68500000D03*
X50000000Y-68500000D03*
X49500000Y-68500000D03*
X49000000Y-68500000D03*
X48500000Y-68500000D03*
X48000000Y-68500000D03*
X47500000Y-68500000D03*
X47000000Y-68500000D03*
X46500000Y-68500000D03*
X46000000Y-68500000D03*
X45500000Y-68500000D03*
X45000000Y-68500000D03*
%TD*%
D19*
%TO.C,U4*%
X90492000Y-61881000D03*
X90492000Y-57881000D03*
X90492000Y-53881000D03*
X90492000Y-49881000D03*
X90492000Y-43381000D03*
X90492000Y-39381000D03*
X90492000Y-35381000D03*
%TD*%
%TO.C,C3*%
G36*
G01*
X75151000Y-48593500D02*
X74201000Y-48593500D01*
G75*
G02*
X73951000Y-48343500I0J250000D01*
G01*
X73951000Y-47668500D01*
G75*
G02*
X74201000Y-47418500I250000J0D01*
G01*
X75151000Y-47418500D01*
G75*
G02*
X75401000Y-47668500I0J-250000D01*
G01*
X75401000Y-48343500D01*
G75*
G02*
X75151000Y-48593500I-250000J0D01*
G01*
G37*
G36*
G01*
X75151000Y-50668500D02*
X74201000Y-50668500D01*
G75*
G02*
X73951000Y-50418500I0J250000D01*
G01*
X73951000Y-49743500D01*
G75*
G02*
X74201000Y-49493500I250000J0D01*
G01*
X75151000Y-49493500D01*
G75*
G02*
X75401000Y-49743500I0J-250000D01*
G01*
X75401000Y-50418500D01*
G75*
G02*
X75151000Y-50668500I-250000J0D01*
G01*
G37*
%TD*%
D20*
%TO.C,Q1*%
X89154000Y-70723000D03*
X88204000Y-68723000D03*
X90104000Y-68723000D03*
%TD*%
%TO.C,R3*%
G36*
G01*
X88770000Y-66478999D02*
X88770000Y-67379001D01*
G75*
G02*
X88520001Y-67629000I-249999J0D01*
G01*
X87819999Y-67629000D01*
G75*
G02*
X87570000Y-67379001I0J249999D01*
G01*
X87570000Y-66478999D01*
G75*
G02*
X87819999Y-66229000I249999J0D01*
G01*
X88520001Y-66229000D01*
G75*
G02*
X88770000Y-66478999I0J-249999D01*
G01*
G37*
G36*
G01*
X90770000Y-66478999D02*
X90770000Y-67379001D01*
G75*
G02*
X90520001Y-67629000I-249999J0D01*
G01*
X89819999Y-67629000D01*
G75*
G02*
X89570000Y-67379001I0J249999D01*
G01*
X89570000Y-66478999D01*
G75*
G02*
X89819999Y-66229000I249999J0D01*
G01*
X90520001Y-66229000D01*
G75*
G02*
X90770000Y-66478999I0J-249999D01*
G01*
G37*
%TD*%
D16*
%TO.C,J3*%
X45500000Y-54000000D03*
X46000000Y-54000000D03*
X46500000Y-54000000D03*
X47000000Y-54000000D03*
X47500000Y-54000000D03*
X48000000Y-54000000D03*
X48500000Y-54000000D03*
X49000000Y-54000000D03*
X49500000Y-54000000D03*
X50000000Y-54000000D03*
X50500000Y-54000000D03*
X51000000Y-54000000D03*
X51500000Y-54000000D03*
X52000000Y-54000000D03*
X52500000Y-54000000D03*
X53000000Y-54000000D03*
X53500000Y-54000000D03*
X54000000Y-54000000D03*
X54500000Y-54000000D03*
X55000000Y-54000000D03*
X55500000Y-54000000D03*
X56000000Y-54000000D03*
X56500000Y-54000000D03*
X57000000Y-54000000D03*
X57500000Y-54000000D03*
X58000000Y-54000000D03*
X58500000Y-54000000D03*
X59000000Y-54000000D03*
X59500000Y-54000000D03*
X60000000Y-54000000D03*
X60500000Y-54000000D03*
X61000000Y-54000000D03*
X61500000Y-54000000D03*
X62000000Y-54000000D03*
D15*
X43830000Y-55700000D03*
X63670000Y-55700000D03*
%TD*%
D10*
%TO.C,J1*%
X90678000Y-73914000D03*
%TD*%
D21*
%TO.C,J11*%
X71374000Y-52197000D03*
X68834000Y-52197000D03*
X71374000Y-49657000D03*
X68834000Y-49657000D03*
X71374000Y-47117000D03*
D22*
X68834000Y-47117000D03*
%TD*%
%TO.C,C2*%
G36*
G01*
X73881000Y-42243500D02*
X72931000Y-42243500D01*
G75*
G02*
X72681000Y-41993500I0J250000D01*
G01*
X72681000Y-41318500D01*
G75*
G02*
X72931000Y-41068500I250000J0D01*
G01*
X73881000Y-41068500D01*
G75*
G02*
X74131000Y-41318500I0J-250000D01*
G01*
X74131000Y-41993500D01*
G75*
G02*
X73881000Y-42243500I-250000J0D01*
G01*
G37*
G36*
G01*
X73881000Y-44318500D02*
X72931000Y-44318500D01*
G75*
G02*
X72681000Y-44068500I0J250000D01*
G01*
X72681000Y-43393500D01*
G75*
G02*
X72931000Y-43143500I250000J0D01*
G01*
X73881000Y-43143500D01*
G75*
G02*
X74131000Y-43393500I0J-250000D01*
G01*
X74131000Y-44068500D01*
G75*
G02*
X73881000Y-44318500I-250000J0D01*
G01*
G37*
%TD*%
D15*
%TO.C,J2*%
X62670000Y-41200000D03*
X43830000Y-41200000D03*
D16*
X61000000Y-39500000D03*
X60500000Y-39500000D03*
X60000000Y-39500000D03*
X59500000Y-39500000D03*
X59000000Y-39500000D03*
X58500000Y-39500000D03*
X58000000Y-39500000D03*
X57500000Y-39500000D03*
X57000000Y-39500000D03*
X56500000Y-39500000D03*
X56000000Y-39500000D03*
X55500000Y-39500000D03*
X55000000Y-39500000D03*
X54500000Y-39500000D03*
X54000000Y-39500000D03*
X53500000Y-39500000D03*
X53000000Y-39500000D03*
X52500000Y-39500000D03*
X52000000Y-39500000D03*
X51500000Y-39500000D03*
X51000000Y-39500000D03*
X50500000Y-39500000D03*
X50000000Y-39500000D03*
X49500000Y-39500000D03*
X49000000Y-39500000D03*
X48500000Y-39500000D03*
X48000000Y-39500000D03*
X47500000Y-39500000D03*
X47000000Y-39500000D03*
X46500000Y-39500000D03*
X46000000Y-39500000D03*
X45500000Y-39500000D03*
%TD*%
%TO.C,U2*%
G36*
G01*
X67333000Y-59141000D02*
X67033000Y-59141000D01*
G75*
G02*
X66883000Y-58991000I0J150000D01*
G01*
X66883000Y-57341000D01*
G75*
G02*
X67033000Y-57191000I150000J0D01*
G01*
X67333000Y-57191000D01*
G75*
G02*
X67483000Y-57341000I0J-150000D01*
G01*
X67483000Y-58991000D01*
G75*
G02*
X67333000Y-59141000I-150000J0D01*
G01*
G37*
G36*
G01*
X68603000Y-59141000D02*
X68303000Y-59141000D01*
G75*
G02*
X68153000Y-58991000I0J150000D01*
G01*
X68153000Y-57341000D01*
G75*
G02*
X68303000Y-57191000I150000J0D01*
G01*
X68603000Y-57191000D01*
G75*
G02*
X68753000Y-57341000I0J-150000D01*
G01*
X68753000Y-58991000D01*
G75*
G02*
X68603000Y-59141000I-150000J0D01*
G01*
G37*
G36*
G01*
X69873000Y-59141000D02*
X69573000Y-59141000D01*
G75*
G02*
X69423000Y-58991000I0J150000D01*
G01*
X69423000Y-57341000D01*
G75*
G02*
X69573000Y-57191000I150000J0D01*
G01*
X69873000Y-57191000D01*
G75*
G02*
X70023000Y-57341000I0J-150000D01*
G01*
X70023000Y-58991000D01*
G75*
G02*
X69873000Y-59141000I-150000J0D01*
G01*
G37*
G36*
G01*
X71143000Y-59141000D02*
X70843000Y-59141000D01*
G75*
G02*
X70693000Y-58991000I0J150000D01*
G01*
X70693000Y-57341000D01*
G75*
G02*
X70843000Y-57191000I150000J0D01*
G01*
X71143000Y-57191000D01*
G75*
G02*
X71293000Y-57341000I0J-150000D01*
G01*
X71293000Y-58991000D01*
G75*
G02*
X71143000Y-59141000I-150000J0D01*
G01*
G37*
G36*
G01*
X72413000Y-59141000D02*
X72113000Y-59141000D01*
G75*
G02*
X71963000Y-58991000I0J150000D01*
G01*
X71963000Y-57341000D01*
G75*
G02*
X72113000Y-57191000I150000J0D01*
G01*
X72413000Y-57191000D01*
G75*
G02*
X72563000Y-57341000I0J-150000D01*
G01*
X72563000Y-58991000D01*
G75*
G02*
X72413000Y-59141000I-150000J0D01*
G01*
G37*
G36*
G01*
X73683000Y-59141000D02*
X73383000Y-59141000D01*
G75*
G02*
X73233000Y-58991000I0J150000D01*
G01*
X73233000Y-57341000D01*
G75*
G02*
X73383000Y-57191000I150000J0D01*
G01*
X73683000Y-57191000D01*
G75*
G02*
X73833000Y-57341000I0J-150000D01*
G01*
X73833000Y-58991000D01*
G75*
G02*
X73683000Y-59141000I-150000J0D01*
G01*
G37*
G36*
G01*
X74953000Y-59141000D02*
X74653000Y-59141000D01*
G75*
G02*
X74503000Y-58991000I0J150000D01*
G01*
X74503000Y-57341000D01*
G75*
G02*
X74653000Y-57191000I150000J0D01*
G01*
X74953000Y-57191000D01*
G75*
G02*
X75103000Y-57341000I0J-150000D01*
G01*
X75103000Y-58991000D01*
G75*
G02*
X74953000Y-59141000I-150000J0D01*
G01*
G37*
G36*
G01*
X76223000Y-59141000D02*
X75923000Y-59141000D01*
G75*
G02*
X75773000Y-58991000I0J150000D01*
G01*
X75773000Y-57341000D01*
G75*
G02*
X75923000Y-57191000I150000J0D01*
G01*
X76223000Y-57191000D01*
G75*
G02*
X76373000Y-57341000I0J-150000D01*
G01*
X76373000Y-58991000D01*
G75*
G02*
X76223000Y-59141000I-150000J0D01*
G01*
G37*
G36*
G01*
X76223000Y-64091000D02*
X75923000Y-64091000D01*
G75*
G02*
X75773000Y-63941000I0J150000D01*
G01*
X75773000Y-62291000D01*
G75*
G02*
X75923000Y-62141000I150000J0D01*
G01*
X76223000Y-62141000D01*
G75*
G02*
X76373000Y-62291000I0J-150000D01*
G01*
X76373000Y-63941000D01*
G75*
G02*
X76223000Y-64091000I-150000J0D01*
G01*
G37*
G36*
G01*
X74953000Y-64091000D02*
X74653000Y-64091000D01*
G75*
G02*
X74503000Y-63941000I0J150000D01*
G01*
X74503000Y-62291000D01*
G75*
G02*
X74653000Y-62141000I150000J0D01*
G01*
X74953000Y-62141000D01*
G75*
G02*
X75103000Y-62291000I0J-150000D01*
G01*
X75103000Y-63941000D01*
G75*
G02*
X74953000Y-64091000I-150000J0D01*
G01*
G37*
G36*
G01*
X73683000Y-64091000D02*
X73383000Y-64091000D01*
G75*
G02*
X73233000Y-63941000I0J150000D01*
G01*
X73233000Y-62291000D01*
G75*
G02*
X73383000Y-62141000I150000J0D01*
G01*
X73683000Y-62141000D01*
G75*
G02*
X73833000Y-62291000I0J-150000D01*
G01*
X73833000Y-63941000D01*
G75*
G02*
X73683000Y-64091000I-150000J0D01*
G01*
G37*
G36*
G01*
X72413000Y-64091000D02*
X72113000Y-64091000D01*
G75*
G02*
X71963000Y-63941000I0J150000D01*
G01*
X71963000Y-62291000D01*
G75*
G02*
X72113000Y-62141000I150000J0D01*
G01*
X72413000Y-62141000D01*
G75*
G02*
X72563000Y-62291000I0J-150000D01*
G01*
X72563000Y-63941000D01*
G75*
G02*
X72413000Y-64091000I-150000J0D01*
G01*
G37*
G36*
G01*
X71143000Y-64091000D02*
X70843000Y-64091000D01*
G75*
G02*
X70693000Y-63941000I0J150000D01*
G01*
X70693000Y-62291000D01*
G75*
G02*
X70843000Y-62141000I150000J0D01*
G01*
X71143000Y-62141000D01*
G75*
G02*
X71293000Y-62291000I0J-150000D01*
G01*
X71293000Y-63941000D01*
G75*
G02*
X71143000Y-64091000I-150000J0D01*
G01*
G37*
G36*
G01*
X69873000Y-64091000D02*
X69573000Y-64091000D01*
G75*
G02*
X69423000Y-63941000I0J150000D01*
G01*
X69423000Y-62291000D01*
G75*
G02*
X69573000Y-62141000I150000J0D01*
G01*
X69873000Y-62141000D01*
G75*
G02*
X70023000Y-62291000I0J-150000D01*
G01*
X70023000Y-63941000D01*
G75*
G02*
X69873000Y-64091000I-150000J0D01*
G01*
G37*
G36*
G01*
X68603000Y-64091000D02*
X68303000Y-64091000D01*
G75*
G02*
X68153000Y-63941000I0J150000D01*
G01*
X68153000Y-62291000D01*
G75*
G02*
X68303000Y-62141000I150000J0D01*
G01*
X68603000Y-62141000D01*
G75*
G02*
X68753000Y-62291000I0J-150000D01*
G01*
X68753000Y-63941000D01*
G75*
G02*
X68603000Y-64091000I-150000J0D01*
G01*
G37*
G36*
G01*
X67333000Y-64091000D02*
X67033000Y-64091000D01*
G75*
G02*
X66883000Y-63941000I0J150000D01*
G01*
X66883000Y-62291000D01*
G75*
G02*
X67033000Y-62141000I150000J0D01*
G01*
X67333000Y-62141000D01*
G75*
G02*
X67483000Y-62291000I0J-150000D01*
G01*
X67483000Y-63941000D01*
G75*
G02*
X67333000Y-64091000I-150000J0D01*
G01*
G37*
%TD*%
D21*
%TO.C,J8*%
X45974000Y-31250000D03*
X48514000Y-31250000D03*
X51054000Y-31250000D03*
X53594000Y-31250000D03*
X56134000Y-31250000D03*
X58674000Y-31250000D03*
X61214000Y-31250000D03*
X63754000Y-31250000D03*
X66294000Y-31250000D03*
D22*
X68834000Y-31250000D03*
%TD*%
%TO.C,U3*%
G36*
G01*
X78382000Y-59141000D02*
X78082000Y-59141000D01*
G75*
G02*
X77932000Y-58991000I0J150000D01*
G01*
X77932000Y-57341000D01*
G75*
G02*
X78082000Y-57191000I150000J0D01*
G01*
X78382000Y-57191000D01*
G75*
G02*
X78532000Y-57341000I0J-150000D01*
G01*
X78532000Y-58991000D01*
G75*
G02*
X78382000Y-59141000I-150000J0D01*
G01*
G37*
G36*
G01*
X79652000Y-59141000D02*
X79352000Y-59141000D01*
G75*
G02*
X79202000Y-58991000I0J150000D01*
G01*
X79202000Y-57341000D01*
G75*
G02*
X79352000Y-57191000I150000J0D01*
G01*
X79652000Y-57191000D01*
G75*
G02*
X79802000Y-57341000I0J-150000D01*
G01*
X79802000Y-58991000D01*
G75*
G02*
X79652000Y-59141000I-150000J0D01*
G01*
G37*
G36*
G01*
X80922000Y-59141000D02*
X80622000Y-59141000D01*
G75*
G02*
X80472000Y-58991000I0J150000D01*
G01*
X80472000Y-57341000D01*
G75*
G02*
X80622000Y-57191000I150000J0D01*
G01*
X80922000Y-57191000D01*
G75*
G02*
X81072000Y-57341000I0J-150000D01*
G01*
X81072000Y-58991000D01*
G75*
G02*
X80922000Y-59141000I-150000J0D01*
G01*
G37*
G36*
G01*
X82192000Y-59141000D02*
X81892000Y-59141000D01*
G75*
G02*
X81742000Y-58991000I0J150000D01*
G01*
X81742000Y-57341000D01*
G75*
G02*
X81892000Y-57191000I150000J0D01*
G01*
X82192000Y-57191000D01*
G75*
G02*
X82342000Y-57341000I0J-150000D01*
G01*
X82342000Y-58991000D01*
G75*
G02*
X82192000Y-59141000I-150000J0D01*
G01*
G37*
G36*
G01*
X83462000Y-59141000D02*
X83162000Y-59141000D01*
G75*
G02*
X83012000Y-58991000I0J150000D01*
G01*
X83012000Y-57341000D01*
G75*
G02*
X83162000Y-57191000I150000J0D01*
G01*
X83462000Y-57191000D01*
G75*
G02*
X83612000Y-57341000I0J-150000D01*
G01*
X83612000Y-58991000D01*
G75*
G02*
X83462000Y-59141000I-150000J0D01*
G01*
G37*
G36*
G01*
X84732000Y-59141000D02*
X84432000Y-59141000D01*
G75*
G02*
X84282000Y-58991000I0J150000D01*
G01*
X84282000Y-57341000D01*
G75*
G02*
X84432000Y-57191000I150000J0D01*
G01*
X84732000Y-57191000D01*
G75*
G02*
X84882000Y-57341000I0J-150000D01*
G01*
X84882000Y-58991000D01*
G75*
G02*
X84732000Y-59141000I-150000J0D01*
G01*
G37*
G36*
G01*
X86002000Y-59141000D02*
X85702000Y-59141000D01*
G75*
G02*
X85552000Y-58991000I0J150000D01*
G01*
X85552000Y-57341000D01*
G75*
G02*
X85702000Y-57191000I150000J0D01*
G01*
X86002000Y-57191000D01*
G75*
G02*
X86152000Y-57341000I0J-150000D01*
G01*
X86152000Y-58991000D01*
G75*
G02*
X86002000Y-59141000I-150000J0D01*
G01*
G37*
G36*
G01*
X87272000Y-59141000D02*
X86972000Y-59141000D01*
G75*
G02*
X86822000Y-58991000I0J150000D01*
G01*
X86822000Y-57341000D01*
G75*
G02*
X86972000Y-57191000I150000J0D01*
G01*
X87272000Y-57191000D01*
G75*
G02*
X87422000Y-57341000I0J-150000D01*
G01*
X87422000Y-58991000D01*
G75*
G02*
X87272000Y-59141000I-150000J0D01*
G01*
G37*
G36*
G01*
X87272000Y-64091000D02*
X86972000Y-64091000D01*
G75*
G02*
X86822000Y-63941000I0J150000D01*
G01*
X86822000Y-62291000D01*
G75*
G02*
X86972000Y-62141000I150000J0D01*
G01*
X87272000Y-62141000D01*
G75*
G02*
X87422000Y-62291000I0J-150000D01*
G01*
X87422000Y-63941000D01*
G75*
G02*
X87272000Y-64091000I-150000J0D01*
G01*
G37*
G36*
G01*
X86002000Y-64091000D02*
X85702000Y-64091000D01*
G75*
G02*
X85552000Y-63941000I0J150000D01*
G01*
X85552000Y-62291000D01*
G75*
G02*
X85702000Y-62141000I150000J0D01*
G01*
X86002000Y-62141000D01*
G75*
G02*
X86152000Y-62291000I0J-150000D01*
G01*
X86152000Y-63941000D01*
G75*
G02*
X86002000Y-64091000I-150000J0D01*
G01*
G37*
G36*
G01*
X84732000Y-64091000D02*
X84432000Y-64091000D01*
G75*
G02*
X84282000Y-63941000I0J150000D01*
G01*
X84282000Y-62291000D01*
G75*
G02*
X84432000Y-62141000I150000J0D01*
G01*
X84732000Y-62141000D01*
G75*
G02*
X84882000Y-62291000I0J-150000D01*
G01*
X84882000Y-63941000D01*
G75*
G02*
X84732000Y-64091000I-150000J0D01*
G01*
G37*
G36*
G01*
X83462000Y-64091000D02*
X83162000Y-64091000D01*
G75*
G02*
X83012000Y-63941000I0J150000D01*
G01*
X83012000Y-62291000D01*
G75*
G02*
X83162000Y-62141000I150000J0D01*
G01*
X83462000Y-62141000D01*
G75*
G02*
X83612000Y-62291000I0J-150000D01*
G01*
X83612000Y-63941000D01*
G75*
G02*
X83462000Y-64091000I-150000J0D01*
G01*
G37*
G36*
G01*
X82192000Y-64091000D02*
X81892000Y-64091000D01*
G75*
G02*
X81742000Y-63941000I0J150000D01*
G01*
X81742000Y-62291000D01*
G75*
G02*
X81892000Y-62141000I150000J0D01*
G01*
X82192000Y-62141000D01*
G75*
G02*
X82342000Y-62291000I0J-150000D01*
G01*
X82342000Y-63941000D01*
G75*
G02*
X82192000Y-64091000I-150000J0D01*
G01*
G37*
G36*
G01*
X80922000Y-64091000D02*
X80622000Y-64091000D01*
G75*
G02*
X80472000Y-63941000I0J150000D01*
G01*
X80472000Y-62291000D01*
G75*
G02*
X80622000Y-62141000I150000J0D01*
G01*
X80922000Y-62141000D01*
G75*
G02*
X81072000Y-62291000I0J-150000D01*
G01*
X81072000Y-63941000D01*
G75*
G02*
X80922000Y-64091000I-150000J0D01*
G01*
G37*
G36*
G01*
X79652000Y-64091000D02*
X79352000Y-64091000D01*
G75*
G02*
X79202000Y-63941000I0J150000D01*
G01*
X79202000Y-62291000D01*
G75*
G02*
X79352000Y-62141000I150000J0D01*
G01*
X79652000Y-62141000D01*
G75*
G02*
X79802000Y-62291000I0J-150000D01*
G01*
X79802000Y-63941000D01*
G75*
G02*
X79652000Y-64091000I-150000J0D01*
G01*
G37*
G36*
G01*
X78382000Y-64091000D02*
X78082000Y-64091000D01*
G75*
G02*
X77932000Y-63941000I0J150000D01*
G01*
X77932000Y-62291000D01*
G75*
G02*
X78082000Y-62141000I150000J0D01*
G01*
X78382000Y-62141000D01*
G75*
G02*
X78532000Y-62291000I0J-150000D01*
G01*
X78532000Y-63941000D01*
G75*
G02*
X78382000Y-64091000I-150000J0D01*
G01*
G37*
%TD*%
D21*
%TO.C,J10*%
X45974000Y-28702000D03*
X48514000Y-28702000D03*
X51054000Y-28702000D03*
X53594000Y-28702000D03*
X56134000Y-28702000D03*
X58674000Y-28702000D03*
X61214000Y-28702000D03*
X63754000Y-28702000D03*
X66294000Y-28702000D03*
D22*
X68834000Y-28702000D03*
%TD*%
D21*
%TO.C,J9*%
X72898000Y-28702000D03*
X75438000Y-28702000D03*
X77978000Y-28702000D03*
X80518000Y-28702000D03*
X83058000Y-28702000D03*
X85598000Y-28702000D03*
X88138000Y-28702000D03*
D22*
X90678000Y-28702000D03*
%TD*%
D21*
%TO.C,J6*%
X90678000Y-76962000D03*
X88138000Y-76962000D03*
X85598000Y-76962000D03*
X83058000Y-76962000D03*
X80518000Y-76962000D03*
D22*
X77978000Y-76962000D03*
%TD*%
D21*
%TO.C,J7*%
X55118000Y-76962000D03*
X57658000Y-76962000D03*
X60198000Y-76962000D03*
X62738000Y-76962000D03*
X65278000Y-76962000D03*
X67818000Y-76962000D03*
X70358000Y-76962000D03*
D22*
X72898000Y-76962000D03*
%TD*%
M02*
