M48
; DRILL file {KiCad (5.1.8)-1} date 03/18/21 21:28:07
; FORMAT={-:-/ absolute / inch / decimal}
; #@! TF.CreationDate,2021-03-18T21:28:07+01:00
; #@! TF.GenerationSoftware,Kicad,Pcbnew,(5.1.8)-1
; #@! TF.FileFunction,Plated,1,2,PTH
FMAT,2
INCH
T1C0.0079
T2C0.0394
T3C0.0492
%
G90
G05
T1
X1.76Y-1.075
X1.76Y-2.135
X1.76Y-2.255
X1.76Y-2.55
X1.77Y-1.3
X1.87Y-1.28
X1.8819Y-2.0866
X1.885Y-1.345
X1.885Y-2.345
X1.8898Y-1.495
X1.945Y-1.495
X1.945Y-1.59
X1.945Y-2.17
X1.955Y-2.345
X1.985Y-2.345
X1.995Y-1.495
X1.995Y-1.59
X1.995Y-2.17
X2.0183Y-1.46
X2.038Y-1.48
X2.0775Y-1.48
X2.1169Y-1.48
X2.1562Y-1.48
X2.196Y-1.48
X2.2546Y-1.48
X2.294Y-1.48
X2.3425Y-1.58
X2.3425Y-2.1654
X2.3425Y-2.355
X2.345Y-1.495
X2.4Y-1.49
X2.4Y-1.59
X2.436Y-2.2006
X2.55Y-1.59
X2.56Y-2.03
X2.68Y-1.83
X2.685Y-2.255
X2.765Y-1.395
X2.7713Y-2.05
X2.775Y-1.075
X2.795Y-2.405
X2.795Y-2.53
X2.82Y-1.65
X2.82Y-1.8
X2.85Y-1.3
X2.85Y-1.375
X2.89Y-1.9
X2.93Y-1.75
X2.9602Y-2.0264
X2.965Y-2.125
X2.965Y-2.22
X2.97Y-1.35
X2.97Y-1.42
X2.9705Y-1.6693
X2.9705Y-1.7008
X2.9705Y-1.7323
X3.02Y-1.635
X3.02Y-1.92
X3.037Y-2.0264
X3.05Y-1.665
X3.05Y-1.805
X3.0511Y-1.9703
X3.0512Y-1.5886
X3.1138Y-2.0264
X3.1142Y-1.9701
X3.12Y-2.1
X3.125Y-1.66
X3.125Y-1.805
X3.13Y-2.555
X3.135Y-2.15
X3.135Y-2.22
X3.14Y-2.12
X3.1461Y-1.589
X3.1461Y-1.9701
X3.16Y-2.525
X3.1772Y-1.9701
X3.1776Y-1.589
X3.18Y-2.12
X3.18Y-2.49
X3.1803Y-2.0264
X3.185Y-2.15
X3.185Y-2.22
X3.1988Y-2.46
X3.2Y-1.66
X3.2Y-1.805
X3.2087Y-1.9701
X3.22Y-1.525
X3.24Y-2.35
X3.2402Y-1.589
X3.2571Y-2.0264
X3.26Y-1.83
X3.28Y-1.86
X3.3Y-1.92
X3.3025Y-2.1
X3.31Y-1.64
X3.32Y-1.44
X3.32Y-1.545
X3.33Y-1.62
X3.3339Y-2.0264
X3.3524Y-1.6693
X3.3524Y-1.7323
X3.3524Y-1.7953
X3.3524Y-1.8268
X3.3524Y-1.8583
X3.3524Y-1.8898
X3.36Y-2.21
X3.36Y-2.34
X3.365Y-1.37
X3.38Y-1.555
X3.38Y-1.645
X3.395Y-2.27
X3.43Y-1.62
X3.45Y-1.645
X3.515Y-2.015
X3.56Y-1.78
X3.56Y-1.835
X3.56Y-1.89
X3.635Y-2.555
T2
X2.871Y-1.1303
X2.871Y-1.2303
X2.971Y-1.1303
X2.971Y-1.2303
X3.071Y-1.1303
X3.071Y-1.2303
X3.171Y-1.1303
X3.171Y-1.2303
X3.271Y-1.1303
X3.271Y-1.2303
X3.371Y-1.1303
X3.371Y-1.2303
X3.471Y-1.1303
X3.471Y-1.2303
X3.571Y-1.1303
X3.571Y-1.2303
X1.811Y-1.1303
X1.811Y-1.2303
X1.911Y-1.1303
X1.911Y-1.2303
X2.011Y-1.1303
X2.011Y-1.2303
X2.111Y-1.1303
X2.111Y-1.2303
X2.211Y-1.1303
X2.211Y-1.2303
X2.311Y-1.1303
X2.311Y-1.2303
X2.411Y-1.1303
X2.411Y-1.2303
X2.511Y-1.1303
X2.511Y-1.2303
X2.611Y-1.1303
X2.611Y-1.2303
X2.711Y-1.1303
X2.711Y-1.2303
X3.07Y-1.385
X3.07Y-1.485
X3.17Y-1.385
X3.17Y-1.485
X3.27Y-1.385
X3.27Y-1.485
T3
X3.5627Y-1.393
X3.5627Y-1.5504
X3.5627Y-1.7079
X3.5627Y-1.9638
X3.5627Y-2.1213
X3.5627Y-2.2788
X3.5627Y-2.4363
T0
M30
