%TF.GenerationSoftware,KiCad,Pcbnew,(5.1.8)-1*%
%TF.CreationDate,2021-03-18T21:41:09+01:00*%
%TF.ProjectId,GBAHD_Shield,47424148-445f-4536-9869-656c642e6b69,rev?*%
%TF.SameCoordinates,Original*%
%TF.FileFunction,Copper,L2,Bot*%
%TF.FilePolarity,Positive*%
%FSLAX46Y46*%
G04 Gerber Fmt 4.6, Leading zero omitted, Abs format (unit mm)*
G04 Created by KiCad (PCBNEW (5.1.8)-1) date 2021-03-18 21:41:09*
%MOMM*%
%LPD*%
G01*
G04 APERTURE LIST*
%TA.AperFunction,SMDPad,CuDef*%
%ADD10R,1.500000X1.500000*%
%TD*%
%TA.AperFunction,ComponentPad*%
%ADD11O,1.700000X1.700000*%
%TD*%
%TA.AperFunction,ComponentPad*%
%ADD12R,1.700000X1.700000*%
%TD*%
%TA.AperFunction,ComponentPad*%
%ADD13C,2.500000*%
%TD*%
%TA.AperFunction,ViaPad*%
%ADD14C,0.400000*%
%TD*%
%TA.AperFunction,Conductor*%
%ADD15C,0.200000*%
%TD*%
%TA.AperFunction,Conductor*%
%ADD16C,0.400000*%
%TD*%
%TA.AperFunction,Conductor*%
%ADD17C,0.254000*%
%TD*%
%TA.AperFunction,Conductor*%
%ADD18C,0.100000*%
%TD*%
G04 APERTURE END LIST*
D10*
%TO.P,J5,1*%
%TO.N,Net-(J5-Pad1)*%
X86868000Y-45466000D03*
%TD*%
%TO.P,J12,1*%
%TO.N,Net-(J12-Pad1)*%
X86868000Y-52070000D03*
%TD*%
%TO.P,J18,1*%
%TO.N,Net-(J18-Pad1)*%
X86868000Y-49784000D03*
%TD*%
%TO.P,J16,1*%
%TO.N,Net-(J16-Pad1)*%
X73152000Y-43434000D03*
%TD*%
%TO.P,J15,1*%
%TO.N,Net-(J15-Pad1)*%
X73152000Y-38862000D03*
%TD*%
%TO.P,J13,1*%
%TO.N,Net-(J13-Pad1)*%
X86868000Y-47498000D03*
%TD*%
%TO.P,J11,1*%
%TO.N,Net-(J11-Pad1)*%
X73152000Y-45720000D03*
%TD*%
%TO.P,J10,1*%
%TO.N,Net-(J10-Pad1)*%
X73152000Y-41148000D03*
%TD*%
D11*
%TO.P,J4,20*%
%TO.N,GB_G3*%
X68860000Y-28710000D03*
%TO.P,J4,19*%
%TO.N,GB_SPS*%
X68860000Y-31250000D03*
%TO.P,J4,18*%
%TO.N,GB_G5*%
X66320000Y-28710000D03*
%TO.P,J4,17*%
%TO.N,GB_B1*%
X66320000Y-31250000D03*
%TO.P,J4,16*%
%TO.N,GB_R2*%
X63780000Y-28710000D03*
%TO.P,J4,15*%
%TO.N,GB_B3*%
X63780000Y-31250000D03*
%TO.P,J4,14*%
%TO.N,GB_R4*%
X61240000Y-28710000D03*
%TO.P,J4,13*%
%TO.N,GB_B5*%
X61240000Y-31250000D03*
%TO.P,J4,12*%
%TO.N,N/C*%
X58700000Y-28710000D03*
%TO.P,J4,11*%
%TO.N,GB_G2*%
X58700000Y-31250000D03*
%TO.P,J4,10*%
%TO.N,GB_R5*%
X56160000Y-28710000D03*
%TO.P,J4,9*%
%TO.N,GB_G4*%
X56160000Y-31250000D03*
%TO.P,J4,8*%
%TO.N,N/C*%
X53620000Y-28710000D03*
%TO.P,J4,7*%
%TO.N,GB_R1*%
X53620000Y-31250000D03*
%TO.P,J4,6*%
%TO.N,+5V*%
X51080000Y-28710000D03*
%TO.P,J4,5*%
%TO.N,GB_R3*%
X51080000Y-31250000D03*
%TO.P,J4,4*%
%TO.N,N/C*%
X48540000Y-28710000D03*
%TO.P,J4,3*%
%TO.N,GBA_CLK*%
X48540000Y-31250000D03*
%TO.P,J4,2*%
%TO.N,N/C*%
X46000000Y-28710000D03*
D12*
%TO.P,J4,1*%
%TO.N,GB_DCLK*%
X46000000Y-31250000D03*
%TD*%
D11*
%TO.P,J2,16*%
%TO.N,RX*%
X90704000Y-28710000D03*
%TO.P,J2,15*%
%TO.N,N/C*%
X90704000Y-31250000D03*
%TO.P,J2,14*%
%TO.N,SP_ARD1*%
X88164000Y-28710000D03*
%TO.P,J2,13*%
%TO.N,N/C*%
X88164000Y-31250000D03*
%TO.P,J2,12*%
%TO.N,GBA_AUD1*%
X85624000Y-28710000D03*
%TO.P,J2,11*%
%TO.N,N/C*%
X85624000Y-31250000D03*
%TO.P,J2,10*%
%TO.N,GBA_AUD2*%
X83084000Y-28710000D03*
%TO.P,J2,9*%
%TO.N,N/C*%
X83084000Y-31250000D03*
%TO.P,J2,8*%
%TO.N,PIXEL_GRID*%
X80544000Y-28710000D03*
%TO.P,J2,7*%
%TO.N,N/C*%
X80544000Y-31250000D03*
%TO.P,J2,6*%
%TO.N,GB_B2*%
X78004000Y-28710000D03*
%TO.P,J2,5*%
%TO.N,N/C*%
X78004000Y-31250000D03*
%TO.P,J2,4*%
%TO.N,GB_B4*%
X75464000Y-28710000D03*
%TO.P,J2,3*%
%TO.N,GND*%
X75464000Y-31250000D03*
%TO.P,J2,2*%
%TO.N,GB_G1*%
X72924000Y-28710000D03*
D12*
%TO.P,J2,1*%
%TO.N,N/C*%
X72924000Y-31250000D03*
%TD*%
D11*
%TO.P,J6,6*%
%TO.N,GND*%
X77978000Y-37719000D03*
%TO.P,J6,5*%
%TO.N,AT_RST*%
X77978000Y-35179000D03*
%TO.P,J6,4*%
%TO.N,ICSP_MOSI*%
X80518000Y-37719000D03*
%TO.P,J6,3*%
%TO.N,ICSP_SCK*%
X80518000Y-35179000D03*
%TO.P,J6,2*%
%TO.N,VCC*%
X83058000Y-37719000D03*
D12*
%TO.P,J6,1*%
%TO.N,ICSP_MISO*%
X83058000Y-35179000D03*
%TD*%
D13*
%TO.P,U1,1*%
%TO.N,VCC*%
X90492000Y-61881000D03*
%TO.P,U1,2*%
%TO.N,ICSP_SCK*%
X90492000Y-57881000D03*
%TO.P,U1,3*%
%TO.N,SNS_LATCH*%
X90492000Y-53881000D03*
%TO.P,U1,4*%
%TO.N,ICSP_MISO*%
X90492000Y-49881000D03*
%TO.P,U1,5*%
%TO.N,N/C*%
X90492000Y-43381000D03*
%TO.P,U1,6*%
X90492000Y-39381000D03*
%TO.P,U1,7*%
%TO.N,GND*%
X90492000Y-35381000D03*
%TD*%
D14*
%TO.N,Net-(J11-Pad1)*%
X75450000Y-44000000D03*
%TO.N,Net-(J16-Pad1)*%
X75450000Y-43200000D03*
%TO.N,Net-(J10-Pad1)*%
X75450000Y-42400000D03*
%TO.N,Net-(J15-Pad1)*%
X77500000Y-40350000D03*
%TO.N,Net-(J18-Pad1)*%
X85150000Y-47200000D03*
%TO.N,Net-(J13-Pad1)*%
X85150000Y-46400000D03*
%TO.N,GND*%
X68072000Y-46482000D03*
%TO.N,PIXEL_GRID*%
X77497940Y-50045620D03*
%TO.N,SNS_LATCH*%
X85150000Y-44000000D03*
%TO.N,ICSP_MISO*%
X85150000Y-42400000D03*
%TO.N,GND*%
X71628000Y-41910000D03*
X71628000Y-45720000D03*
X73406000Y-48260000D03*
%TO.N,VCC*%
X82300000Y-40360000D03*
%TO.N,GND*%
X79910000Y-40360000D03*
%TO.N,VCC*%
X80710000Y-40360000D03*
X81500000Y-50040000D03*
%TO.N,GND*%
X80700000Y-50040000D03*
%TO.N,VCC*%
X79910000Y-50040000D03*
%TO.N,GND*%
X79100000Y-50040000D03*
%TO.N,VCC*%
X84680000Y-51470000D03*
%TO.N,GND*%
X82730000Y-51470000D03*
%TO.N,VCC*%
X80780000Y-51470000D03*
X79090000Y-51470000D03*
%TO.N,GND*%
X77140000Y-51470000D03*
X75438000Y-34290000D03*
X75438000Y-36068000D03*
X47498000Y-32512000D03*
X47879000Y-34163000D03*
X44958000Y-33020000D03*
X59563000Y-37973000D03*
X59500000Y-40132000D03*
X59500000Y-55000000D03*
X59500000Y-59817000D03*
X49657000Y-59563000D03*
X50419000Y-59563000D03*
X50673000Y-55118000D03*
X49403000Y-55118000D03*
X49403000Y-40386000D03*
X50673000Y-40386000D03*
X87630000Y-41783000D03*
X90424000Y-45212000D03*
X90424000Y-48006000D03*
X90424000Y-46609000D03*
X89281000Y-51181000D03*
X83820000Y-48768000D03*
X76708000Y-48768000D03*
X76708000Y-41529000D03*
X84074000Y-41656000D03*
X81280000Y-45847000D03*
X79375000Y-45847000D03*
X81280000Y-42164000D03*
X79375000Y-42164000D03*
X81788000Y-38735000D03*
X84328000Y-39243000D03*
X84328000Y-36576000D03*
X85471000Y-34798000D03*
X79629000Y-56388000D03*
X79629000Y-54610000D03*
X75311000Y-53975000D03*
X75311000Y-56388000D03*
X82296000Y-59690000D03*
X80899000Y-56388000D03*
X80899000Y-54610000D03*
X85344000Y-56134000D03*
X86233000Y-57658000D03*
X85344000Y-59436000D03*
X85852000Y-39497000D03*
X85852000Y-41783000D03*
X74422000Y-44450000D03*
X72390000Y-34925000D03*
X72390000Y-33020000D03*
X70231000Y-35433000D03*
X70485000Y-27305000D03*
X44704000Y-27305000D03*
X44704000Y-64770000D03*
X79502000Y-64897000D03*
X92329000Y-64897000D03*
X60960000Y-37846000D03*
X50673000Y-37973000D03*
X49403000Y-37973000D03*
X48000000Y-37973000D03*
X47800000Y-53000000D03*
X47879000Y-59563000D03*
X44704000Y-54229000D03*
X44704000Y-57277000D03*
X68199000Y-57277000D03*
X70993000Y-61087000D03*
X70993000Y-64262000D03*
X77470000Y-42291000D03*
X77470000Y-45847000D03*
X65024000Y-51562000D03*
X60960000Y-40386000D03*
X64770000Y-40386000D03*
%TO.N,VCC*%
X75190000Y-51470000D03*
%TO.N,GB_R5*%
X51265190Y-37084000D03*
%TO.N,GB_B2*%
X58268000Y-37592000D03*
%TO.N,GB_G1*%
X55778400Y-37592000D03*
%TO.N,GB_G5*%
X53768000Y-37592000D03*
%TO.N,GB_R2*%
X52768000Y-37592000D03*
%TO.N,GB_G3*%
X54768000Y-37592000D03*
%TO.N,GB_B4*%
X57268000Y-37592000D03*
%TO.N,GB_R4*%
X51765200Y-37592000D03*
%TO.N,SP_ARD1*%
X82804000Y-46482000D03*
%TO.N,GBA_AUD1*%
X80772000Y-63246000D03*
%TO.N,GBA_AUD2*%
X80264000Y-64135000D03*
%TO.N,GBA_CLK*%
X81250001Y-62484000D03*
%TO.N,ICSP_SCK*%
X83883000Y-53340000D03*
X79248000Y-53340000D03*
X84582000Y-41148000D03*
X87122000Y-41148000D03*
%TO.N,SNS_LATCH*%
X80772000Y-53848000D03*
X79756000Y-53848000D03*
%TO.N,VCC*%
X70390000Y-52070000D03*
%TO.N,RX*%
X83312000Y-47244000D03*
%TO.N,+5V*%
X61874000Y-55894000D03*
%TO.N,Net-(J5-Pad1)*%
X85150000Y-45600000D03*
%TO.N,Net-(J12-Pad1)*%
X85150000Y-48000000D03*
%TD*%
D15*
%TO.N,GB_R5*%
X55110000Y-28710000D02*
X56160000Y-28710000D01*
X54864000Y-28956000D02*
X55110000Y-28710000D01*
X54864000Y-33274000D02*
X54864000Y-28956000D01*
X54610000Y-33528000D02*
X54864000Y-33274000D01*
X51562000Y-33528000D02*
X54610000Y-33528000D01*
X51265190Y-33824810D02*
X51562000Y-33528000D01*
X51265190Y-37084000D02*
X51265190Y-33824810D01*
%TO.N,GB_B2*%
X76962000Y-28710000D02*
X78004000Y-28710000D01*
X58268000Y-37490000D02*
X58674000Y-37084000D01*
X58268000Y-37592000D02*
X58268000Y-37490000D01*
X58674000Y-37084000D02*
X76454000Y-37084000D01*
X76454000Y-37084000D02*
X76708000Y-36830000D01*
X76708000Y-36830000D02*
X76708000Y-28964000D01*
X76708000Y-28964000D02*
X76962000Y-28710000D01*
%TO.N,GB_G1*%
X71120000Y-28710000D02*
X72924000Y-28710000D01*
X55778400Y-37592000D02*
X55778400Y-36423600D01*
X56134000Y-36068000D02*
X70612000Y-36068000D01*
X55778400Y-36423600D02*
X56134000Y-36068000D01*
X70612000Y-36068000D02*
X70866000Y-35814000D01*
X70866000Y-35814000D02*
X70866000Y-28964000D01*
X70866000Y-28964000D02*
X71120000Y-28710000D01*
%TO.N,GB_G5*%
X53768000Y-37592000D02*
X53768000Y-35386000D01*
X64770000Y-35052000D02*
X65024000Y-34798000D01*
X65270000Y-28710000D02*
X66320000Y-28710000D01*
X65024000Y-34798000D02*
X65024000Y-28956000D01*
X53768000Y-35386000D02*
X54102000Y-35052000D01*
X65024000Y-28956000D02*
X65270000Y-28710000D01*
X54102000Y-35052000D02*
X64770000Y-35052000D01*
%TO.N,GB_R2*%
X52768000Y-37592000D02*
X52768000Y-34862000D01*
X52768000Y-34862000D02*
X53086000Y-34544000D01*
X53086000Y-34544000D02*
X62230000Y-34544000D01*
X62484000Y-34290000D02*
X62484000Y-28956000D01*
X62230000Y-34544000D02*
X62484000Y-34290000D01*
X62484000Y-28956000D02*
X62730000Y-28710000D01*
X62730000Y-28710000D02*
X63780000Y-28710000D01*
%TO.N,GB_G3*%
X67564000Y-35306000D02*
X67564000Y-28956000D01*
X67564000Y-28956000D02*
X67810000Y-28710000D01*
X67810000Y-28710000D02*
X68860000Y-28710000D01*
X55118000Y-35560000D02*
X67310000Y-35560000D01*
X67310000Y-35560000D02*
X67564000Y-35306000D01*
X54768000Y-37592000D02*
X54768000Y-35910000D01*
X54768000Y-35910000D02*
X55118000Y-35560000D01*
%TO.N,GB_B4*%
X74414000Y-28710000D02*
X75464000Y-28710000D01*
X74168000Y-36322000D02*
X74168000Y-28956000D01*
X74168000Y-28956000D02*
X74414000Y-28710000D01*
X57658000Y-36576000D02*
X73914000Y-36576000D01*
X73914000Y-36576000D02*
X74168000Y-36322000D01*
X57268000Y-37592000D02*
X57268000Y-36966000D01*
X57268000Y-36966000D02*
X57658000Y-36576000D01*
%TO.N,GB_R4*%
X60190000Y-28710000D02*
X61240000Y-28710000D01*
X59944000Y-33782000D02*
X59944000Y-28956000D01*
X52070000Y-34036000D02*
X59690000Y-34036000D01*
X59690000Y-34036000D02*
X59944000Y-33782000D01*
X51765200Y-34340800D02*
X52070000Y-34036000D01*
X59944000Y-28956000D02*
X60190000Y-28710000D01*
X51765200Y-37592000D02*
X51765200Y-34340800D01*
%TO.N,SP_ARD1*%
X87131000Y-28710000D02*
X88164000Y-28710000D01*
X86868000Y-28973000D02*
X87131000Y-28710000D01*
X86868000Y-39878000D02*
X86868000Y-28973000D01*
X86614000Y-40132000D02*
X86868000Y-39878000D01*
X83058000Y-40132000D02*
X86614000Y-40132000D01*
X82804000Y-40386000D02*
X83058000Y-40132000D01*
X82804000Y-46482000D02*
X82804000Y-40386000D01*
%TO.N,GBA_AUD1*%
X85624000Y-28710000D02*
X86902000Y-27432000D01*
X92202000Y-63500000D02*
X91948000Y-63754000D01*
X86902000Y-27432000D02*
X91948000Y-27432000D01*
X81280000Y-63754000D02*
X80772000Y-63246000D01*
X92202000Y-27686000D02*
X92202000Y-63500000D01*
X91948000Y-63754000D02*
X81280000Y-63754000D01*
X91948000Y-27432000D02*
X92202000Y-27686000D01*
%TO.N,GBA_AUD2*%
X80463999Y-64334999D02*
X80264000Y-64135000D01*
X92674990Y-64043010D02*
X92383001Y-64334999D01*
X92113689Y-27031990D02*
X92674990Y-27593291D01*
X84762010Y-27031990D02*
X92113689Y-27031990D01*
X83084000Y-28710000D02*
X84762010Y-27031990D01*
X92383001Y-64334999D02*
X80463999Y-64334999D01*
X92674990Y-27593291D02*
X92674990Y-64043010D01*
%TO.N,GBA_CLK*%
X48540000Y-37639998D02*
X48540000Y-31250000D01*
X48540000Y-62230000D02*
X48540000Y-37639998D01*
X48794000Y-62484000D02*
X48540000Y-62230000D01*
X81250001Y-62484000D02*
X48794000Y-62484000D01*
%TO.N,ICSP_SCK*%
X83883000Y-53340000D02*
X79248000Y-53340000D01*
X84582000Y-41148000D02*
X87122000Y-41148000D01*
%TO.N,ICSP_MISO*%
X88743000Y-49881000D02*
X90492000Y-49881000D01*
X88519000Y-49657000D02*
X88743000Y-49881000D01*
X88519000Y-42672000D02*
X88519000Y-49657000D01*
X88247000Y-42400000D02*
X88519000Y-42672000D01*
X88247000Y-42400000D02*
X85150000Y-42400000D01*
%TO.N,SNS_LATCH*%
X80772000Y-53848000D02*
X79756000Y-53848000D01*
X88425000Y-53881000D02*
X90492000Y-53881000D01*
X88118990Y-53574990D02*
X88425000Y-53881000D01*
X88118990Y-44176990D02*
X88118990Y-53574990D01*
X87942000Y-44000000D02*
X88118990Y-44176990D01*
X85150000Y-44000000D02*
X87942000Y-44000000D01*
D16*
%TO.N,VCC*%
X82296000Y-40356000D02*
X82300000Y-40360000D01*
X80710000Y-39940000D02*
X80710000Y-40360000D01*
X81048000Y-39602000D02*
X80710000Y-39940000D01*
X82300000Y-39830000D02*
X82528000Y-39602000D01*
X82300000Y-40360000D02*
X82300000Y-39830000D01*
X82528000Y-39602000D02*
X81048000Y-39602000D01*
X82804000Y-39602000D02*
X82528000Y-39602000D01*
X83058000Y-39348000D02*
X82804000Y-39602000D01*
X83058000Y-37719000D02*
X83058000Y-39348000D01*
X81500000Y-48294000D02*
X81500000Y-50040000D01*
X81500000Y-48294000D02*
X80230000Y-48294000D01*
X79910000Y-48614000D02*
X79910000Y-50040000D01*
X80230000Y-48294000D02*
X79910000Y-48614000D01*
X84680000Y-51152000D02*
X84680000Y-51470000D01*
X84294000Y-50766000D02*
X84680000Y-51152000D01*
X81500000Y-50766000D02*
X84294000Y-50766000D01*
X81500000Y-50040000D02*
X81500000Y-50766000D01*
X81500000Y-50766000D02*
X81060000Y-50766000D01*
X80780000Y-51046000D02*
X80780000Y-51470000D01*
X81060000Y-50766000D02*
X80780000Y-51046000D01*
X79090000Y-50960000D02*
X79090000Y-51470000D01*
X79284000Y-50766000D02*
X79090000Y-50960000D01*
X81060000Y-50766000D02*
X79284000Y-50766000D01*
X75190000Y-51132000D02*
X75190000Y-51470000D01*
X75556000Y-50766000D02*
X75190000Y-51132000D01*
X79284000Y-50766000D02*
X75556000Y-50766000D01*
X85122000Y-61881000D02*
X90492000Y-61881000D01*
X84680000Y-61439000D02*
X85122000Y-61881000D01*
X84680000Y-51470000D02*
X84680000Y-61439000D01*
X82042000Y-47752000D02*
X81500000Y-48294000D01*
X82300000Y-41906000D02*
X82042000Y-42164000D01*
X82300000Y-40360000D02*
X82300000Y-41906000D01*
X82042000Y-42164000D02*
X82042000Y-47752000D01*
X75556000Y-50766000D02*
X70900000Y-50766000D01*
X70390000Y-51276000D02*
X70390000Y-52070000D01*
X70900000Y-50766000D02*
X70390000Y-51276000D01*
D15*
%TO.N,RX*%
X89408000Y-28956000D02*
X89654000Y-28710000D01*
X89408000Y-32766000D02*
X89408000Y-28956000D01*
X89154000Y-33020000D02*
X89408000Y-32766000D01*
X87630000Y-33020000D02*
X89154000Y-33020000D01*
X87376000Y-40386000D02*
X87376000Y-33274000D01*
X87376000Y-33274000D02*
X87630000Y-33020000D01*
X87122000Y-40640000D02*
X87376000Y-40386000D01*
X83820000Y-40640000D02*
X87122000Y-40640000D01*
X89654000Y-28710000D02*
X90704000Y-28710000D01*
X83312000Y-41148000D02*
X83820000Y-40640000D01*
X83312000Y-47244000D02*
X83312000Y-41148000D01*
%TO.N,PIXEL_GRID*%
X79494000Y-28710000D02*
X80544000Y-28710000D01*
X79248000Y-28956000D02*
X79494000Y-28710000D01*
X79248000Y-39370000D02*
X79248000Y-28956000D01*
X78740000Y-39878000D02*
X79248000Y-39370000D01*
X77497940Y-48740060D02*
X78740000Y-47498000D01*
X78740000Y-47498000D02*
X78740000Y-39878000D01*
X77497940Y-50045620D02*
X77497940Y-48740060D01*
D16*
%TO.N,+5V*%
X50306000Y-55894000D02*
X61874000Y-55894000D01*
X50072999Y-55660999D02*
X50306000Y-55894000D01*
X50072999Y-36830000D02*
X50072999Y-55660999D01*
X49790001Y-36547002D02*
X50072999Y-36830000D01*
X49790001Y-29999999D02*
X49790001Y-36547002D01*
X51080000Y-28710000D02*
X49790001Y-29999999D01*
D15*
%TO.N,Net-(J11-Pad1)*%
X75450000Y-44000000D02*
X75450000Y-45454000D01*
X75184000Y-45720000D02*
X73152000Y-45720000D01*
X75450000Y-45454000D02*
X75184000Y-45720000D01*
%TO.N,Net-(J16-Pad1)*%
X73386000Y-43200000D02*
X73152000Y-43434000D01*
X75450000Y-43200000D02*
X73386000Y-43200000D01*
%TO.N,Net-(J10-Pad1)*%
X75450000Y-42400000D02*
X75450000Y-41414000D01*
X75184000Y-41148000D02*
X73152000Y-41148000D01*
X75450000Y-41414000D02*
X75184000Y-41148000D01*
%TO.N,Net-(J15-Pad1)*%
X77500000Y-40350000D02*
X77500000Y-39146000D01*
X77216000Y-38862000D02*
X73152000Y-38862000D01*
X77500000Y-39146000D02*
X77216000Y-38862000D01*
%TO.N,Net-(J5-Pad1)*%
X86734000Y-45600000D02*
X86868000Y-45466000D01*
X85150000Y-45600000D02*
X86734000Y-45600000D01*
%TO.N,Net-(J13-Pad1)*%
X86248000Y-47498000D02*
X85150000Y-46400000D01*
X86868000Y-47498000D02*
X86248000Y-47498000D01*
%TO.N,Net-(J18-Pad1)*%
X85817999Y-47867999D02*
X85150000Y-47200000D01*
X85817999Y-48733999D02*
X85817999Y-47867999D01*
X86868000Y-49784000D02*
X85817999Y-48733999D01*
%TO.N,Net-(J12-Pad1)*%
X85150000Y-48000000D02*
X85349999Y-48199999D01*
X85349999Y-48199999D02*
X85349999Y-51821999D01*
X85598000Y-52070000D02*
X86868000Y-52070000D01*
X85349999Y-51821999D02*
X85598000Y-52070000D01*
%TD*%
D17*
%TO.N,GND*%
X83545167Y-27568597D02*
X83443069Y-27526307D01*
X83205243Y-27479000D01*
X82962757Y-27479000D01*
X82724931Y-27526307D01*
X82500903Y-27619102D01*
X82299283Y-27753820D01*
X82127820Y-27925283D01*
X81993102Y-28126903D01*
X81900307Y-28350931D01*
X81853000Y-28588757D01*
X81853000Y-28831243D01*
X81900307Y-29069069D01*
X81993102Y-29293097D01*
X82127820Y-29494717D01*
X82299283Y-29666180D01*
X82500903Y-29800898D01*
X82724931Y-29893693D01*
X82962757Y-29941000D01*
X83205243Y-29941000D01*
X83443069Y-29893693D01*
X83667097Y-29800898D01*
X83868717Y-29666180D01*
X84040180Y-29494717D01*
X84174898Y-29293097D01*
X84267693Y-29069069D01*
X84315000Y-28831243D01*
X84315000Y-28588757D01*
X84267693Y-28350931D01*
X84225403Y-28248833D01*
X84961247Y-27512990D01*
X85331879Y-27512990D01*
X85264931Y-27526307D01*
X85040903Y-27619102D01*
X84839283Y-27753820D01*
X84667820Y-27925283D01*
X84533102Y-28126903D01*
X84440307Y-28350931D01*
X84393000Y-28588757D01*
X84393000Y-28831243D01*
X84440307Y-29069069D01*
X84533102Y-29293097D01*
X84667820Y-29494717D01*
X84839283Y-29666180D01*
X85040903Y-29800898D01*
X85264931Y-29893693D01*
X85502757Y-29941000D01*
X85745243Y-29941000D01*
X85983069Y-29893693D01*
X86207097Y-29800898D01*
X86387001Y-29680690D01*
X86387001Y-30279310D01*
X86207097Y-30159102D01*
X85983069Y-30066307D01*
X85745243Y-30019000D01*
X85502757Y-30019000D01*
X85264931Y-30066307D01*
X85040903Y-30159102D01*
X84839283Y-30293820D01*
X84667820Y-30465283D01*
X84533102Y-30666903D01*
X84440307Y-30890931D01*
X84393000Y-31128757D01*
X84393000Y-31371243D01*
X84440307Y-31609069D01*
X84533102Y-31833097D01*
X84667820Y-32034717D01*
X84839283Y-32206180D01*
X85040903Y-32340898D01*
X85264931Y-32433693D01*
X85502757Y-32481000D01*
X85745243Y-32481000D01*
X85983069Y-32433693D01*
X86207097Y-32340898D01*
X86387001Y-32220690D01*
X86387000Y-39651000D01*
X83554832Y-39651000D01*
X83597371Y-39571415D01*
X83630593Y-39461896D01*
X83639000Y-39376540D01*
X83639000Y-39376538D01*
X83641811Y-39348001D01*
X83639000Y-39319464D01*
X83639000Y-38810767D01*
X83641097Y-38809898D01*
X83842717Y-38675180D01*
X84014180Y-38503717D01*
X84148898Y-38302097D01*
X84241693Y-38078069D01*
X84289000Y-37840243D01*
X84289000Y-37597757D01*
X84241693Y-37359931D01*
X84148898Y-37135903D01*
X84014180Y-36934283D01*
X83842717Y-36762820D01*
X83641097Y-36628102D01*
X83417069Y-36535307D01*
X83179243Y-36488000D01*
X82936757Y-36488000D01*
X82698931Y-36535307D01*
X82474903Y-36628102D01*
X82273283Y-36762820D01*
X82101820Y-36934283D01*
X81967102Y-37135903D01*
X81874307Y-37359931D01*
X81827000Y-37597757D01*
X81827000Y-37840243D01*
X81874307Y-38078069D01*
X81967102Y-38302097D01*
X82101820Y-38503717D01*
X82273283Y-38675180D01*
X82474903Y-38809898D01*
X82477001Y-38810767D01*
X82477001Y-39021000D01*
X81076539Y-39021000D01*
X81047999Y-39018189D01*
X80992524Y-39023653D01*
X80934104Y-39029407D01*
X80824585Y-39062629D01*
X80723652Y-39116579D01*
X80635183Y-39189183D01*
X80616983Y-39211360D01*
X80319360Y-39508983D01*
X80297183Y-39527183D01*
X80235784Y-39602000D01*
X80224579Y-39615653D01*
X80170629Y-39716586D01*
X80137407Y-39826105D01*
X80126189Y-39940000D01*
X80129000Y-39968540D01*
X80129000Y-40417223D01*
X80134596Y-40445355D01*
X80137407Y-40473896D01*
X80145733Y-40501343D01*
X80151328Y-40529471D01*
X80162302Y-40555966D01*
X80170629Y-40583415D01*
X80184149Y-40608709D01*
X80195125Y-40635207D01*
X80211063Y-40659060D01*
X80224580Y-40684348D01*
X80242769Y-40706512D01*
X80258708Y-40730366D01*
X80278993Y-40750651D01*
X80297184Y-40772817D01*
X80319350Y-40791008D01*
X80339634Y-40811292D01*
X80363487Y-40827230D01*
X80385653Y-40845421D01*
X80410942Y-40858938D01*
X80434793Y-40874875D01*
X80461293Y-40885852D01*
X80486586Y-40899371D01*
X80514031Y-40907696D01*
X80540529Y-40918672D01*
X80568660Y-40924268D01*
X80596105Y-40932593D01*
X80624644Y-40935404D01*
X80652777Y-40941000D01*
X80681460Y-40941000D01*
X80710000Y-40943811D01*
X80738540Y-40941000D01*
X80767223Y-40941000D01*
X80795355Y-40935404D01*
X80823896Y-40932593D01*
X80851343Y-40924267D01*
X80879471Y-40918672D01*
X80905966Y-40907698D01*
X80933415Y-40899371D01*
X80958711Y-40885850D01*
X80985207Y-40874875D01*
X81009054Y-40858941D01*
X81034348Y-40845421D01*
X81056518Y-40827227D01*
X81080366Y-40811292D01*
X81100645Y-40791013D01*
X81122817Y-40772817D01*
X81141013Y-40750645D01*
X81161292Y-40730366D01*
X81177227Y-40706518D01*
X81195421Y-40684348D01*
X81208941Y-40659054D01*
X81224875Y-40635207D01*
X81235850Y-40608711D01*
X81249371Y-40583415D01*
X81257698Y-40555966D01*
X81268672Y-40529471D01*
X81274267Y-40501343D01*
X81282593Y-40473896D01*
X81285404Y-40445355D01*
X81291000Y-40417223D01*
X81291000Y-40183000D01*
X81719000Y-40183000D01*
X81719000Y-40286849D01*
X81712189Y-40356000D01*
X81719000Y-40425152D01*
X81719001Y-41665342D01*
X81651360Y-41732983D01*
X81629183Y-41751183D01*
X81556580Y-41839652D01*
X81556579Y-41839653D01*
X81502629Y-41940586D01*
X81469407Y-42050105D01*
X81458189Y-42164000D01*
X81461000Y-42192540D01*
X81461001Y-47511341D01*
X81259342Y-47713000D01*
X80258536Y-47713000D01*
X80229999Y-47710189D01*
X80201462Y-47713000D01*
X80201460Y-47713000D01*
X80116104Y-47721407D01*
X80006585Y-47754629D01*
X79905652Y-47808579D01*
X79817183Y-47881183D01*
X79798983Y-47903360D01*
X79519360Y-48182983D01*
X79497183Y-48201183D01*
X79426375Y-48287464D01*
X79424579Y-48289653D01*
X79370629Y-48390586D01*
X79337407Y-48500105D01*
X79326189Y-48614000D01*
X79329000Y-48642540D01*
X79329001Y-49982772D01*
X79329000Y-49982777D01*
X79329000Y-50097223D01*
X79334598Y-50125365D01*
X79337408Y-50153896D01*
X79345731Y-50181333D01*
X79346460Y-50185000D01*
X79312536Y-50185000D01*
X79283999Y-50182189D01*
X79255462Y-50185000D01*
X78062598Y-50185000D01*
X78078940Y-50102843D01*
X78078940Y-49988397D01*
X78056612Y-49876149D01*
X78012815Y-49770413D01*
X77978940Y-49719715D01*
X77978940Y-48939296D01*
X79063413Y-47854824D01*
X79081764Y-47839764D01*
X79141872Y-47766522D01*
X79186536Y-47682961D01*
X79207344Y-47614366D01*
X79214040Y-47592293D01*
X79223327Y-47498001D01*
X79221000Y-47474374D01*
X79221000Y-40077236D01*
X79571411Y-39726826D01*
X79589764Y-39711764D01*
X79649872Y-39638522D01*
X79694536Y-39554961D01*
X79722040Y-39464292D01*
X79729000Y-39393626D01*
X79729000Y-39393617D01*
X79731326Y-39370001D01*
X79729000Y-39346385D01*
X79729000Y-38670897D01*
X79733283Y-38675180D01*
X79934903Y-38809898D01*
X80158931Y-38902693D01*
X80396757Y-38950000D01*
X80639243Y-38950000D01*
X80877069Y-38902693D01*
X81101097Y-38809898D01*
X81302717Y-38675180D01*
X81474180Y-38503717D01*
X81608898Y-38302097D01*
X81701693Y-38078069D01*
X81749000Y-37840243D01*
X81749000Y-37597757D01*
X81701693Y-37359931D01*
X81608898Y-37135903D01*
X81474180Y-36934283D01*
X81302717Y-36762820D01*
X81101097Y-36628102D01*
X80877069Y-36535307D01*
X80639243Y-36488000D01*
X80396757Y-36488000D01*
X80158931Y-36535307D01*
X79934903Y-36628102D01*
X79733283Y-36762820D01*
X79729000Y-36767103D01*
X79729000Y-36130897D01*
X79733283Y-36135180D01*
X79934903Y-36269898D01*
X80158931Y-36362693D01*
X80396757Y-36410000D01*
X80639243Y-36410000D01*
X80877069Y-36362693D01*
X81101097Y-36269898D01*
X81302717Y-36135180D01*
X81474180Y-35963717D01*
X81608898Y-35762097D01*
X81701693Y-35538069D01*
X81749000Y-35300243D01*
X81749000Y-35057757D01*
X81701693Y-34819931D01*
X81608898Y-34595903D01*
X81474180Y-34394283D01*
X81408897Y-34329000D01*
X81825157Y-34329000D01*
X81825157Y-36029000D01*
X81832513Y-36103689D01*
X81854299Y-36175508D01*
X81889678Y-36241696D01*
X81937289Y-36299711D01*
X81995304Y-36347322D01*
X82061492Y-36382701D01*
X82133311Y-36404487D01*
X82208000Y-36411843D01*
X83908000Y-36411843D01*
X83982689Y-36404487D01*
X84054508Y-36382701D01*
X84120696Y-36347322D01*
X84178711Y-36299711D01*
X84226322Y-36241696D01*
X84261701Y-36175508D01*
X84283487Y-36103689D01*
X84290843Y-36029000D01*
X84290843Y-34329000D01*
X84283487Y-34254311D01*
X84261701Y-34182492D01*
X84226322Y-34116304D01*
X84178711Y-34058289D01*
X84120696Y-34010678D01*
X84054508Y-33975299D01*
X83982689Y-33953513D01*
X83908000Y-33946157D01*
X82208000Y-33946157D01*
X82133311Y-33953513D01*
X82061492Y-33975299D01*
X81995304Y-34010678D01*
X81937289Y-34058289D01*
X81889678Y-34116304D01*
X81854299Y-34182492D01*
X81832513Y-34254311D01*
X81825157Y-34329000D01*
X81408897Y-34329000D01*
X81302717Y-34222820D01*
X81101097Y-34088102D01*
X80877069Y-33995307D01*
X80639243Y-33948000D01*
X80396757Y-33948000D01*
X80158931Y-33995307D01*
X79934903Y-34088102D01*
X79733283Y-34222820D01*
X79729000Y-34227103D01*
X79729000Y-32175897D01*
X79759283Y-32206180D01*
X79960903Y-32340898D01*
X80184931Y-32433693D01*
X80422757Y-32481000D01*
X80665243Y-32481000D01*
X80903069Y-32433693D01*
X81127097Y-32340898D01*
X81328717Y-32206180D01*
X81500180Y-32034717D01*
X81634898Y-31833097D01*
X81727693Y-31609069D01*
X81775000Y-31371243D01*
X81775000Y-31128757D01*
X81853000Y-31128757D01*
X81853000Y-31371243D01*
X81900307Y-31609069D01*
X81993102Y-31833097D01*
X82127820Y-32034717D01*
X82299283Y-32206180D01*
X82500903Y-32340898D01*
X82724931Y-32433693D01*
X82962757Y-32481000D01*
X83205243Y-32481000D01*
X83443069Y-32433693D01*
X83667097Y-32340898D01*
X83868717Y-32206180D01*
X84040180Y-32034717D01*
X84174898Y-31833097D01*
X84267693Y-31609069D01*
X84315000Y-31371243D01*
X84315000Y-31128757D01*
X84267693Y-30890931D01*
X84174898Y-30666903D01*
X84040180Y-30465283D01*
X83868717Y-30293820D01*
X83667097Y-30159102D01*
X83443069Y-30066307D01*
X83205243Y-30019000D01*
X82962757Y-30019000D01*
X82724931Y-30066307D01*
X82500903Y-30159102D01*
X82299283Y-30293820D01*
X82127820Y-30465283D01*
X81993102Y-30666903D01*
X81900307Y-30890931D01*
X81853000Y-31128757D01*
X81775000Y-31128757D01*
X81727693Y-30890931D01*
X81634898Y-30666903D01*
X81500180Y-30465283D01*
X81328717Y-30293820D01*
X81127097Y-30159102D01*
X80903069Y-30066307D01*
X80665243Y-30019000D01*
X80422757Y-30019000D01*
X80184931Y-30066307D01*
X79960903Y-30159102D01*
X79759283Y-30293820D01*
X79729000Y-30324103D01*
X79729000Y-29635897D01*
X79759283Y-29666180D01*
X79960903Y-29800898D01*
X80184931Y-29893693D01*
X80422757Y-29941000D01*
X80665243Y-29941000D01*
X80903069Y-29893693D01*
X81127097Y-29800898D01*
X81328717Y-29666180D01*
X81500180Y-29494717D01*
X81634898Y-29293097D01*
X81727693Y-29069069D01*
X81775000Y-28831243D01*
X81775000Y-28588757D01*
X81727693Y-28350931D01*
X81634898Y-28126903D01*
X81500180Y-27925283D01*
X81328717Y-27753820D01*
X81127097Y-27619102D01*
X80903069Y-27526307D01*
X80665243Y-27479000D01*
X80422757Y-27479000D01*
X80184931Y-27526307D01*
X79960903Y-27619102D01*
X79759283Y-27753820D01*
X79587820Y-27925283D01*
X79453102Y-28126903D01*
X79408279Y-28235116D01*
X79399707Y-28235960D01*
X79309038Y-28263464D01*
X79279990Y-28278991D01*
X79225478Y-28308128D01*
X79184047Y-28342129D01*
X79094898Y-28126903D01*
X78960180Y-27925283D01*
X78788717Y-27753820D01*
X78587097Y-27619102D01*
X78363069Y-27526307D01*
X78125243Y-27479000D01*
X77882757Y-27479000D01*
X77644931Y-27526307D01*
X77420903Y-27619102D01*
X77219283Y-27753820D01*
X77047820Y-27925283D01*
X76913102Y-28126903D01*
X76867939Y-28235937D01*
X76867708Y-28235960D01*
X76777039Y-28263464D01*
X76693478Y-28308128D01*
X76646077Y-28347029D01*
X76554898Y-28126903D01*
X76420180Y-27925283D01*
X76248717Y-27753820D01*
X76047097Y-27619102D01*
X75823069Y-27526307D01*
X75585243Y-27479000D01*
X75342757Y-27479000D01*
X75104931Y-27526307D01*
X74880903Y-27619102D01*
X74679283Y-27753820D01*
X74507820Y-27925283D01*
X74373102Y-28126903D01*
X74328279Y-28235116D01*
X74319707Y-28235960D01*
X74229038Y-28263464D01*
X74199990Y-28278991D01*
X74145478Y-28308128D01*
X74104047Y-28342129D01*
X74014898Y-28126903D01*
X73880180Y-27925283D01*
X73708717Y-27753820D01*
X73507097Y-27619102D01*
X73283069Y-27526307D01*
X73045243Y-27479000D01*
X72802757Y-27479000D01*
X72564931Y-27526307D01*
X72340903Y-27619102D01*
X72139283Y-27753820D01*
X71967820Y-27925283D01*
X71833102Y-28126903D01*
X71790812Y-28229000D01*
X71143623Y-28229000D01*
X71119999Y-28226673D01*
X71096375Y-28229000D01*
X71096374Y-28229000D01*
X71025708Y-28235960D01*
X70935039Y-28263464D01*
X70851478Y-28308128D01*
X70778236Y-28368236D01*
X70763170Y-28386594D01*
X70542589Y-28607175D01*
X70524237Y-28622236D01*
X70509176Y-28640588D01*
X70464129Y-28695478D01*
X70419465Y-28779039D01*
X70391960Y-28869708D01*
X70382673Y-28964000D01*
X70385001Y-28987636D01*
X70385000Y-35587000D01*
X67955632Y-35587000D01*
X67965872Y-35574522D01*
X68010536Y-35490961D01*
X68038040Y-35400292D01*
X68045000Y-35329626D01*
X68045000Y-35329625D01*
X68047327Y-35306001D01*
X68045000Y-35282377D01*
X68045000Y-32175897D01*
X68075283Y-32206180D01*
X68276903Y-32340898D01*
X68500931Y-32433693D01*
X68738757Y-32481000D01*
X68981243Y-32481000D01*
X69219069Y-32433693D01*
X69443097Y-32340898D01*
X69644717Y-32206180D01*
X69816180Y-32034717D01*
X69950898Y-31833097D01*
X70043693Y-31609069D01*
X70091000Y-31371243D01*
X70091000Y-31128757D01*
X70043693Y-30890931D01*
X69950898Y-30666903D01*
X69816180Y-30465283D01*
X69644717Y-30293820D01*
X69443097Y-30159102D01*
X69219069Y-30066307D01*
X68981243Y-30019000D01*
X68738757Y-30019000D01*
X68500931Y-30066307D01*
X68276903Y-30159102D01*
X68075283Y-30293820D01*
X68045000Y-30324103D01*
X68045000Y-29635897D01*
X68075283Y-29666180D01*
X68276903Y-29800898D01*
X68500931Y-29893693D01*
X68738757Y-29941000D01*
X68981243Y-29941000D01*
X69219069Y-29893693D01*
X69443097Y-29800898D01*
X69644717Y-29666180D01*
X69816180Y-29494717D01*
X69950898Y-29293097D01*
X70043693Y-29069069D01*
X70091000Y-28831243D01*
X70091000Y-28588757D01*
X70043693Y-28350931D01*
X69950898Y-28126903D01*
X69816180Y-27925283D01*
X69644717Y-27753820D01*
X69443097Y-27619102D01*
X69219069Y-27526307D01*
X68981243Y-27479000D01*
X68738757Y-27479000D01*
X68500931Y-27526307D01*
X68276903Y-27619102D01*
X68075283Y-27753820D01*
X67903820Y-27925283D01*
X67769102Y-28126903D01*
X67724279Y-28235116D01*
X67715707Y-28235960D01*
X67625038Y-28263464D01*
X67595990Y-28278991D01*
X67541478Y-28308128D01*
X67500047Y-28342129D01*
X67410898Y-28126903D01*
X67276180Y-27925283D01*
X67104717Y-27753820D01*
X66903097Y-27619102D01*
X66679069Y-27526307D01*
X66441243Y-27479000D01*
X66198757Y-27479000D01*
X65960931Y-27526307D01*
X65736903Y-27619102D01*
X65535283Y-27753820D01*
X65363820Y-27925283D01*
X65229102Y-28126903D01*
X65184279Y-28235116D01*
X65175707Y-28235960D01*
X65085038Y-28263464D01*
X65055990Y-28278991D01*
X65001478Y-28308128D01*
X64960047Y-28342129D01*
X64870898Y-28126903D01*
X64736180Y-27925283D01*
X64564717Y-27753820D01*
X64363097Y-27619102D01*
X64139069Y-27526307D01*
X63901243Y-27479000D01*
X63658757Y-27479000D01*
X63420931Y-27526307D01*
X63196903Y-27619102D01*
X62995283Y-27753820D01*
X62823820Y-27925283D01*
X62689102Y-28126903D01*
X62644279Y-28235116D01*
X62635707Y-28235960D01*
X62545038Y-28263464D01*
X62515990Y-28278991D01*
X62461478Y-28308128D01*
X62420047Y-28342129D01*
X62330898Y-28126903D01*
X62196180Y-27925283D01*
X62024717Y-27753820D01*
X61823097Y-27619102D01*
X61599069Y-27526307D01*
X61361243Y-27479000D01*
X61118757Y-27479000D01*
X60880931Y-27526307D01*
X60656903Y-27619102D01*
X60455283Y-27753820D01*
X60283820Y-27925283D01*
X60149102Y-28126903D01*
X60104279Y-28235116D01*
X60095707Y-28235960D01*
X60005038Y-28263464D01*
X59975990Y-28278991D01*
X59921478Y-28308128D01*
X59880047Y-28342129D01*
X59790898Y-28126903D01*
X59656180Y-27925283D01*
X59484717Y-27753820D01*
X59283097Y-27619102D01*
X59059069Y-27526307D01*
X58821243Y-27479000D01*
X58578757Y-27479000D01*
X58340931Y-27526307D01*
X58116903Y-27619102D01*
X57915283Y-27753820D01*
X57743820Y-27925283D01*
X57609102Y-28126903D01*
X57516307Y-28350931D01*
X57469000Y-28588757D01*
X57469000Y-28831243D01*
X57516307Y-29069069D01*
X57609102Y-29293097D01*
X57743820Y-29494717D01*
X57915283Y-29666180D01*
X58116903Y-29800898D01*
X58340931Y-29893693D01*
X58578757Y-29941000D01*
X58821243Y-29941000D01*
X59059069Y-29893693D01*
X59283097Y-29800898D01*
X59463001Y-29680690D01*
X59463001Y-30279310D01*
X59283097Y-30159102D01*
X59059069Y-30066307D01*
X58821243Y-30019000D01*
X58578757Y-30019000D01*
X58340931Y-30066307D01*
X58116903Y-30159102D01*
X57915283Y-30293820D01*
X57743820Y-30465283D01*
X57609102Y-30666903D01*
X57516307Y-30890931D01*
X57469000Y-31128757D01*
X57469000Y-31371243D01*
X57516307Y-31609069D01*
X57609102Y-31833097D01*
X57743820Y-32034717D01*
X57915283Y-32206180D01*
X58116903Y-32340898D01*
X58340931Y-32433693D01*
X58578757Y-32481000D01*
X58821243Y-32481000D01*
X59059069Y-32433693D01*
X59283097Y-32340898D01*
X59463000Y-32220691D01*
X59463000Y-33555000D01*
X55255632Y-33555000D01*
X55265872Y-33542522D01*
X55310536Y-33458961D01*
X55338040Y-33368292D01*
X55345000Y-33297626D01*
X55345000Y-33297625D01*
X55347327Y-33274001D01*
X55345000Y-33250374D01*
X55345000Y-32175897D01*
X55375283Y-32206180D01*
X55576903Y-32340898D01*
X55800931Y-32433693D01*
X56038757Y-32481000D01*
X56281243Y-32481000D01*
X56519069Y-32433693D01*
X56743097Y-32340898D01*
X56944717Y-32206180D01*
X57116180Y-32034717D01*
X57250898Y-31833097D01*
X57343693Y-31609069D01*
X57391000Y-31371243D01*
X57391000Y-31128757D01*
X57343693Y-30890931D01*
X57250898Y-30666903D01*
X57116180Y-30465283D01*
X56944717Y-30293820D01*
X56743097Y-30159102D01*
X56519069Y-30066307D01*
X56281243Y-30019000D01*
X56038757Y-30019000D01*
X55800931Y-30066307D01*
X55576903Y-30159102D01*
X55375283Y-30293820D01*
X55345000Y-30324103D01*
X55345000Y-29635897D01*
X55375283Y-29666180D01*
X55576903Y-29800898D01*
X55800931Y-29893693D01*
X56038757Y-29941000D01*
X56281243Y-29941000D01*
X56519069Y-29893693D01*
X56743097Y-29800898D01*
X56944717Y-29666180D01*
X57116180Y-29494717D01*
X57250898Y-29293097D01*
X57343693Y-29069069D01*
X57391000Y-28831243D01*
X57391000Y-28588757D01*
X57343693Y-28350931D01*
X57250898Y-28126903D01*
X57116180Y-27925283D01*
X56944717Y-27753820D01*
X56743097Y-27619102D01*
X56519069Y-27526307D01*
X56281243Y-27479000D01*
X56038757Y-27479000D01*
X55800931Y-27526307D01*
X55576903Y-27619102D01*
X55375283Y-27753820D01*
X55203820Y-27925283D01*
X55069102Y-28126903D01*
X55024279Y-28235116D01*
X55015707Y-28235960D01*
X54925038Y-28263464D01*
X54895990Y-28278991D01*
X54841478Y-28308128D01*
X54800047Y-28342129D01*
X54710898Y-28126903D01*
X54576180Y-27925283D01*
X54404717Y-27753820D01*
X54203097Y-27619102D01*
X53979069Y-27526307D01*
X53741243Y-27479000D01*
X53498757Y-27479000D01*
X53260931Y-27526307D01*
X53036903Y-27619102D01*
X52835283Y-27753820D01*
X52663820Y-27925283D01*
X52529102Y-28126903D01*
X52436307Y-28350931D01*
X52389000Y-28588757D01*
X52389000Y-28831243D01*
X52436307Y-29069069D01*
X52529102Y-29293097D01*
X52663820Y-29494717D01*
X52835283Y-29666180D01*
X53036903Y-29800898D01*
X53260931Y-29893693D01*
X53498757Y-29941000D01*
X53741243Y-29941000D01*
X53979069Y-29893693D01*
X54203097Y-29800898D01*
X54383001Y-29680690D01*
X54383001Y-30279310D01*
X54203097Y-30159102D01*
X53979069Y-30066307D01*
X53741243Y-30019000D01*
X53498757Y-30019000D01*
X53260931Y-30066307D01*
X53036903Y-30159102D01*
X52835283Y-30293820D01*
X52663820Y-30465283D01*
X52529102Y-30666903D01*
X52436307Y-30890931D01*
X52389000Y-31128757D01*
X52389000Y-31371243D01*
X52436307Y-31609069D01*
X52529102Y-31833097D01*
X52663820Y-32034717D01*
X52835283Y-32206180D01*
X53036903Y-32340898D01*
X53260931Y-32433693D01*
X53498757Y-32481000D01*
X53741243Y-32481000D01*
X53979069Y-32433693D01*
X54203097Y-32340898D01*
X54383000Y-32220691D01*
X54383000Y-33047000D01*
X51585626Y-33047000D01*
X51562000Y-33044673D01*
X51467707Y-33053960D01*
X51377038Y-33081464D01*
X51362169Y-33089412D01*
X51293478Y-33126128D01*
X51220236Y-33186236D01*
X51205170Y-33204594D01*
X50941779Y-33467985D01*
X50923427Y-33483046D01*
X50908366Y-33501398D01*
X50863319Y-33556288D01*
X50818655Y-33639849D01*
X50791150Y-33730518D01*
X50781863Y-33824810D01*
X50784191Y-33848446D01*
X50784190Y-36758095D01*
X50750315Y-36808793D01*
X50706518Y-36914529D01*
X50684190Y-37026777D01*
X50684190Y-37141223D01*
X50706518Y-37253471D01*
X50750315Y-37359207D01*
X50813898Y-37454366D01*
X50894824Y-37535292D01*
X50989983Y-37598875D01*
X51095719Y-37642672D01*
X51186488Y-37660728D01*
X51206528Y-37761471D01*
X51250325Y-37867207D01*
X51313908Y-37962366D01*
X51394834Y-38043292D01*
X51489993Y-38106875D01*
X51595729Y-38150672D01*
X51707977Y-38173000D01*
X51822423Y-38173000D01*
X51934671Y-38150672D01*
X52040407Y-38106875D01*
X52135566Y-38043292D01*
X52216492Y-37962366D01*
X52266600Y-37887374D01*
X52316708Y-37962366D01*
X52397634Y-38043292D01*
X52492793Y-38106875D01*
X52598529Y-38150672D01*
X52710777Y-38173000D01*
X52825223Y-38173000D01*
X52937471Y-38150672D01*
X53043207Y-38106875D01*
X53138366Y-38043292D01*
X53219292Y-37962366D01*
X53268000Y-37889469D01*
X53316708Y-37962366D01*
X53397634Y-38043292D01*
X53492793Y-38106875D01*
X53598529Y-38150672D01*
X53710777Y-38173000D01*
X53825223Y-38173000D01*
X53937471Y-38150672D01*
X54043207Y-38106875D01*
X54138366Y-38043292D01*
X54219292Y-37962366D01*
X54268000Y-37889469D01*
X54316708Y-37962366D01*
X54397634Y-38043292D01*
X54492793Y-38106875D01*
X54598529Y-38150672D01*
X54710777Y-38173000D01*
X54825223Y-38173000D01*
X54937471Y-38150672D01*
X55043207Y-38106875D01*
X55138366Y-38043292D01*
X55219292Y-37962366D01*
X55273200Y-37881687D01*
X55327108Y-37962366D01*
X55408034Y-38043292D01*
X55503193Y-38106875D01*
X55608929Y-38150672D01*
X55721177Y-38173000D01*
X55835623Y-38173000D01*
X55947871Y-38150672D01*
X56053607Y-38106875D01*
X56148766Y-38043292D01*
X56229692Y-37962366D01*
X56293275Y-37867207D01*
X56337072Y-37761471D01*
X56359400Y-37649223D01*
X56359400Y-37534777D01*
X56337072Y-37422529D01*
X56293275Y-37316793D01*
X56259400Y-37266095D01*
X56259400Y-36622836D01*
X56333237Y-36549000D01*
X57004764Y-36549000D01*
X56944589Y-36609175D01*
X56926237Y-36624236D01*
X56908858Y-36645412D01*
X56866129Y-36697478D01*
X56821465Y-36781039D01*
X56793960Y-36871708D01*
X56784673Y-36966000D01*
X56787001Y-36989636D01*
X56787001Y-37266095D01*
X56753125Y-37316793D01*
X56709328Y-37422529D01*
X56687000Y-37534777D01*
X56687000Y-37649223D01*
X56709328Y-37761471D01*
X56753125Y-37867207D01*
X56816708Y-37962366D01*
X56897634Y-38043292D01*
X56992793Y-38106875D01*
X57098529Y-38150672D01*
X57210777Y-38173000D01*
X57325223Y-38173000D01*
X57437471Y-38150672D01*
X57543207Y-38106875D01*
X57638366Y-38043292D01*
X57719292Y-37962366D01*
X57768000Y-37889469D01*
X57816708Y-37962366D01*
X57897634Y-38043292D01*
X57992793Y-38106875D01*
X58098529Y-38150672D01*
X58210777Y-38173000D01*
X58325223Y-38173000D01*
X58437471Y-38150672D01*
X58530834Y-38112000D01*
X72019157Y-38112000D01*
X72019157Y-39612000D01*
X72026513Y-39686689D01*
X72048299Y-39758508D01*
X72083678Y-39824696D01*
X72131289Y-39882711D01*
X72189304Y-39930322D01*
X72255492Y-39965701D01*
X72327311Y-39987487D01*
X72402000Y-39994843D01*
X73902000Y-39994843D01*
X73976689Y-39987487D01*
X74048508Y-39965701D01*
X74114696Y-39930322D01*
X74172711Y-39882711D01*
X74220322Y-39824696D01*
X74255701Y-39758508D01*
X74277487Y-39686689D01*
X74284843Y-39612000D01*
X74284843Y-39343000D01*
X77016764Y-39343000D01*
X77019001Y-39345237D01*
X77019000Y-40024095D01*
X76985125Y-40074793D01*
X76941328Y-40180529D01*
X76919000Y-40292777D01*
X76919000Y-40407223D01*
X76941328Y-40519471D01*
X76985125Y-40625207D01*
X77048708Y-40720366D01*
X77129634Y-40801292D01*
X77224793Y-40864875D01*
X77330529Y-40908672D01*
X77442777Y-40931000D01*
X77557223Y-40931000D01*
X77669471Y-40908672D01*
X77775207Y-40864875D01*
X77870366Y-40801292D01*
X77951292Y-40720366D01*
X78014875Y-40625207D01*
X78058672Y-40519471D01*
X78081000Y-40407223D01*
X78081000Y-40292777D01*
X78058672Y-40180529D01*
X78014875Y-40074793D01*
X77981000Y-40024095D01*
X77981000Y-39169626D01*
X77983327Y-39146000D01*
X77974040Y-39051707D01*
X77946536Y-38961038D01*
X77916719Y-38905255D01*
X77901872Y-38877478D01*
X77851000Y-38815490D01*
X77851000Y-37846000D01*
X76752946Y-37846000D01*
X76662459Y-38055944D01*
X76753471Y-38306119D01*
X76798894Y-38381000D01*
X74284843Y-38381000D01*
X74284843Y-38112000D01*
X74277487Y-38037311D01*
X74255701Y-37965492D01*
X74220322Y-37899304D01*
X74172711Y-37841289D01*
X74114696Y-37793678D01*
X74048508Y-37758299D01*
X73976689Y-37736513D01*
X73902000Y-37729157D01*
X72402000Y-37729157D01*
X72327311Y-37736513D01*
X72255492Y-37758299D01*
X72189304Y-37793678D01*
X72131289Y-37841289D01*
X72083678Y-37899304D01*
X72048299Y-37965492D01*
X72026513Y-38037311D01*
X72019157Y-38112000D01*
X58530834Y-38112000D01*
X58543207Y-38106875D01*
X58638366Y-38043292D01*
X58719292Y-37962366D01*
X58782875Y-37867207D01*
X58826672Y-37761471D01*
X58849000Y-37649223D01*
X58849000Y-37589237D01*
X58873237Y-37565000D01*
X76430374Y-37565000D01*
X76454000Y-37567327D01*
X76477626Y-37565000D01*
X76548292Y-37558040D01*
X76638961Y-37530536D01*
X76710072Y-37492526D01*
X76752946Y-37592000D01*
X77851000Y-37592000D01*
X77851000Y-37572000D01*
X78105000Y-37572000D01*
X78105000Y-37592000D01*
X78125000Y-37592000D01*
X78125000Y-37846000D01*
X78105000Y-37846000D01*
X78105000Y-38943431D01*
X78314943Y-39034535D01*
X78428717Y-39000028D01*
X78669973Y-38887483D01*
X78767000Y-38816317D01*
X78767000Y-39170763D01*
X78416589Y-39521175D01*
X78398237Y-39536236D01*
X78383176Y-39554588D01*
X78338129Y-39609478D01*
X78293465Y-39693039D01*
X78265960Y-39783708D01*
X78256673Y-39878000D01*
X78259001Y-39901636D01*
X78259000Y-47298763D01*
X77174529Y-48383235D01*
X77156177Y-48398296D01*
X77141116Y-48416648D01*
X77096069Y-48471538D01*
X77051405Y-48555099D01*
X77023900Y-48645768D01*
X77014613Y-48740060D01*
X77016941Y-48763696D01*
X77016940Y-49719715D01*
X76983065Y-49770413D01*
X76939268Y-49876149D01*
X76916940Y-49988397D01*
X76916940Y-50102843D01*
X76933282Y-50185000D01*
X75584539Y-50185000D01*
X75555999Y-50182189D01*
X75527459Y-50185000D01*
X70928540Y-50185000D01*
X70900000Y-50182189D01*
X70871460Y-50185000D01*
X70786104Y-50193407D01*
X70676585Y-50226629D01*
X70575652Y-50280579D01*
X70487183Y-50353183D01*
X70468987Y-50375355D01*
X69999360Y-50844983D01*
X69977183Y-50863183D01*
X69910439Y-50944513D01*
X69904579Y-50951653D01*
X69850629Y-51052586D01*
X69817407Y-51162105D01*
X69806189Y-51276000D01*
X69809000Y-51304540D01*
X69809000Y-52127223D01*
X69814596Y-52155355D01*
X69817407Y-52183896D01*
X69825732Y-52211340D01*
X69831328Y-52239471D01*
X69842305Y-52265973D01*
X69850630Y-52293415D01*
X69864147Y-52318703D01*
X69875125Y-52345207D01*
X69891064Y-52369062D01*
X69904580Y-52394348D01*
X69922769Y-52416512D01*
X69938708Y-52440366D01*
X69958993Y-52460651D01*
X69977184Y-52482817D01*
X69999350Y-52501008D01*
X70019634Y-52521292D01*
X70043487Y-52537230D01*
X70065653Y-52555421D01*
X70090942Y-52568938D01*
X70114793Y-52584875D01*
X70141293Y-52595852D01*
X70166586Y-52609371D01*
X70194031Y-52617696D01*
X70220529Y-52628672D01*
X70248660Y-52634268D01*
X70276105Y-52642593D01*
X70304644Y-52645404D01*
X70332777Y-52651000D01*
X70361460Y-52651000D01*
X70390000Y-52653811D01*
X70418540Y-52651000D01*
X70447223Y-52651000D01*
X70475355Y-52645404D01*
X70503896Y-52642593D01*
X70531343Y-52634267D01*
X70559471Y-52628672D01*
X70585966Y-52617698D01*
X70613415Y-52609371D01*
X70638711Y-52595850D01*
X70665207Y-52584875D01*
X70689054Y-52568941D01*
X70714348Y-52555421D01*
X70736518Y-52537227D01*
X70760366Y-52521292D01*
X70780645Y-52501013D01*
X70802817Y-52482817D01*
X70821013Y-52460645D01*
X70841292Y-52440366D01*
X70857227Y-52416518D01*
X70875421Y-52394348D01*
X70888941Y-52369054D01*
X70904875Y-52345207D01*
X70915850Y-52318711D01*
X70929371Y-52293415D01*
X70937698Y-52265966D01*
X70948672Y-52239471D01*
X70954267Y-52211343D01*
X70962593Y-52183896D01*
X70965404Y-52155355D01*
X70971000Y-52127223D01*
X70971000Y-51516657D01*
X71140658Y-51347000D01*
X74609000Y-51347000D01*
X74609000Y-51527223D01*
X74614596Y-51555355D01*
X74617407Y-51583896D01*
X74625733Y-51611343D01*
X74631328Y-51639471D01*
X74642302Y-51665966D01*
X74650629Y-51693415D01*
X74664149Y-51718709D01*
X74675125Y-51745207D01*
X74691063Y-51769060D01*
X74704580Y-51794348D01*
X74722769Y-51816512D01*
X74738708Y-51840366D01*
X74758993Y-51860651D01*
X74777184Y-51882817D01*
X74799350Y-51901008D01*
X74819634Y-51921292D01*
X74843487Y-51937230D01*
X74865653Y-51955421D01*
X74890942Y-51968938D01*
X74914793Y-51984875D01*
X74941293Y-51995852D01*
X74966586Y-52009371D01*
X74994031Y-52017696D01*
X75020529Y-52028672D01*
X75048660Y-52034268D01*
X75076105Y-52042593D01*
X75104644Y-52045404D01*
X75132777Y-52051000D01*
X75161460Y-52051000D01*
X75190000Y-52053811D01*
X75218540Y-52051000D01*
X75247223Y-52051000D01*
X75275355Y-52045404D01*
X75303896Y-52042593D01*
X75331343Y-52034267D01*
X75359471Y-52028672D01*
X75385966Y-52017698D01*
X75413415Y-52009371D01*
X75438711Y-51995850D01*
X75465207Y-51984875D01*
X75489054Y-51968941D01*
X75514348Y-51955421D01*
X75536518Y-51937227D01*
X75560366Y-51921292D01*
X75580645Y-51901013D01*
X75602817Y-51882817D01*
X75621013Y-51860645D01*
X75641292Y-51840366D01*
X75657227Y-51816518D01*
X75675421Y-51794348D01*
X75688941Y-51769054D01*
X75704875Y-51745207D01*
X75715850Y-51718711D01*
X75729371Y-51693415D01*
X75737697Y-51665966D01*
X75748672Y-51639471D01*
X75754268Y-51611341D01*
X75762593Y-51583895D01*
X75765404Y-51555356D01*
X75771000Y-51527223D01*
X75771000Y-51372657D01*
X75796657Y-51347000D01*
X78509000Y-51347000D01*
X78509000Y-51527223D01*
X78514596Y-51555355D01*
X78517407Y-51583896D01*
X78525733Y-51611343D01*
X78531328Y-51639471D01*
X78542302Y-51665966D01*
X78550629Y-51693415D01*
X78564149Y-51718709D01*
X78575125Y-51745207D01*
X78591063Y-51769060D01*
X78604580Y-51794348D01*
X78622769Y-51816512D01*
X78638708Y-51840366D01*
X78658993Y-51860651D01*
X78677184Y-51882817D01*
X78699350Y-51901008D01*
X78719634Y-51921292D01*
X78743487Y-51937230D01*
X78765653Y-51955421D01*
X78790942Y-51968938D01*
X78814793Y-51984875D01*
X78841293Y-51995852D01*
X78866586Y-52009371D01*
X78894031Y-52017696D01*
X78920529Y-52028672D01*
X78948660Y-52034268D01*
X78976105Y-52042593D01*
X79004644Y-52045404D01*
X79032777Y-52051000D01*
X79061460Y-52051000D01*
X79090000Y-52053811D01*
X79118540Y-52051000D01*
X79147223Y-52051000D01*
X79175355Y-52045404D01*
X79203896Y-52042593D01*
X79231343Y-52034267D01*
X79259471Y-52028672D01*
X79285966Y-52017698D01*
X79313415Y-52009371D01*
X79338711Y-51995850D01*
X79365207Y-51984875D01*
X79389054Y-51968941D01*
X79414348Y-51955421D01*
X79436518Y-51937227D01*
X79460366Y-51921292D01*
X79480645Y-51901013D01*
X79502817Y-51882817D01*
X79521013Y-51860645D01*
X79541292Y-51840366D01*
X79557227Y-51816518D01*
X79575421Y-51794348D01*
X79588941Y-51769054D01*
X79604875Y-51745207D01*
X79615850Y-51718711D01*
X79629371Y-51693415D01*
X79637698Y-51665966D01*
X79648672Y-51639471D01*
X79654267Y-51611343D01*
X79662593Y-51583896D01*
X79665404Y-51555355D01*
X79671000Y-51527223D01*
X79671000Y-51347000D01*
X80199000Y-51347000D01*
X80199000Y-51527223D01*
X80204596Y-51555355D01*
X80207407Y-51583896D01*
X80215733Y-51611343D01*
X80221328Y-51639471D01*
X80232302Y-51665966D01*
X80240629Y-51693415D01*
X80254149Y-51718709D01*
X80265125Y-51745207D01*
X80281063Y-51769060D01*
X80294580Y-51794348D01*
X80312769Y-51816512D01*
X80328708Y-51840366D01*
X80348993Y-51860651D01*
X80367184Y-51882817D01*
X80389350Y-51901008D01*
X80409634Y-51921292D01*
X80433487Y-51937230D01*
X80455653Y-51955421D01*
X80480942Y-51968938D01*
X80504793Y-51984875D01*
X80531293Y-51995852D01*
X80556586Y-52009371D01*
X80584031Y-52017696D01*
X80610529Y-52028672D01*
X80638660Y-52034268D01*
X80666105Y-52042593D01*
X80694644Y-52045404D01*
X80722777Y-52051000D01*
X80751460Y-52051000D01*
X80780000Y-52053811D01*
X80808540Y-52051000D01*
X80837223Y-52051000D01*
X80865355Y-52045404D01*
X80893896Y-52042593D01*
X80921343Y-52034267D01*
X80949471Y-52028672D01*
X80975966Y-52017698D01*
X81003415Y-52009371D01*
X81028711Y-51995850D01*
X81055207Y-51984875D01*
X81079054Y-51968941D01*
X81104348Y-51955421D01*
X81126518Y-51937227D01*
X81150366Y-51921292D01*
X81170645Y-51901013D01*
X81192817Y-51882817D01*
X81211013Y-51860645D01*
X81231292Y-51840366D01*
X81247227Y-51816518D01*
X81265421Y-51794348D01*
X81278941Y-51769054D01*
X81294875Y-51745207D01*
X81305850Y-51718711D01*
X81319371Y-51693415D01*
X81327698Y-51665966D01*
X81338672Y-51639471D01*
X81344267Y-51611343D01*
X81352593Y-51583896D01*
X81355404Y-51555355D01*
X81361000Y-51527223D01*
X81361000Y-51347000D01*
X81471460Y-51347000D01*
X81500000Y-51349811D01*
X81528540Y-51347000D01*
X84053343Y-51347000D01*
X84099000Y-51392657D01*
X84099000Y-52800601D01*
X84052471Y-52781328D01*
X83940223Y-52759000D01*
X83825777Y-52759000D01*
X83713529Y-52781328D01*
X83607793Y-52825125D01*
X83557095Y-52859000D01*
X79573905Y-52859000D01*
X79523207Y-52825125D01*
X79417471Y-52781328D01*
X79305223Y-52759000D01*
X79190777Y-52759000D01*
X79078529Y-52781328D01*
X78972793Y-52825125D01*
X78877634Y-52888708D01*
X78796708Y-52969634D01*
X78733125Y-53064793D01*
X78689328Y-53170529D01*
X78667000Y-53282777D01*
X78667000Y-53397223D01*
X78689328Y-53509471D01*
X78733125Y-53615207D01*
X78796708Y-53710366D01*
X78877634Y-53791292D01*
X78972793Y-53854875D01*
X79078529Y-53898672D01*
X79177618Y-53918382D01*
X79197328Y-54017471D01*
X79241125Y-54123207D01*
X79304708Y-54218366D01*
X79385634Y-54299292D01*
X79480793Y-54362875D01*
X79586529Y-54406672D01*
X79698777Y-54429000D01*
X79813223Y-54429000D01*
X79925471Y-54406672D01*
X80031207Y-54362875D01*
X80081905Y-54329000D01*
X80446095Y-54329000D01*
X80496793Y-54362875D01*
X80602529Y-54406672D01*
X80714777Y-54429000D01*
X80829223Y-54429000D01*
X80941471Y-54406672D01*
X81047207Y-54362875D01*
X81142366Y-54299292D01*
X81223292Y-54218366D01*
X81286875Y-54123207D01*
X81330672Y-54017471D01*
X81353000Y-53905223D01*
X81353000Y-53821000D01*
X83557095Y-53821000D01*
X83607793Y-53854875D01*
X83713529Y-53898672D01*
X83825777Y-53921000D01*
X83940223Y-53921000D01*
X84052471Y-53898672D01*
X84099000Y-53879399D01*
X84099001Y-61410450D01*
X84096189Y-61439000D01*
X84107407Y-61552895D01*
X84140629Y-61662414D01*
X84194579Y-61763347D01*
X84197662Y-61767104D01*
X84267184Y-61851817D01*
X84289355Y-61870012D01*
X84690987Y-62271645D01*
X84709183Y-62293817D01*
X84797652Y-62366421D01*
X84898585Y-62420371D01*
X85008104Y-62453593D01*
X85093460Y-62462000D01*
X85093462Y-62462000D01*
X85121999Y-62464811D01*
X85150536Y-62462000D01*
X88967276Y-62462000D01*
X89046626Y-62653568D01*
X89225119Y-62920702D01*
X89452298Y-63147881D01*
X89639552Y-63273000D01*
X81479237Y-63273000D01*
X81342568Y-63136331D01*
X81330672Y-63076529D01*
X81324475Y-63061568D01*
X81419472Y-63042672D01*
X81525208Y-62998875D01*
X81620367Y-62935292D01*
X81701293Y-62854366D01*
X81764876Y-62759207D01*
X81808673Y-62653471D01*
X81831001Y-62541223D01*
X81831001Y-62426777D01*
X81808673Y-62314529D01*
X81764876Y-62208793D01*
X81701293Y-62113634D01*
X81620367Y-62032708D01*
X81525208Y-61969125D01*
X81419472Y-61925328D01*
X81307224Y-61903000D01*
X81192778Y-61903000D01*
X81080530Y-61925328D01*
X80974794Y-61969125D01*
X80924096Y-62003000D01*
X49021000Y-62003000D01*
X49021000Y-32383188D01*
X49123097Y-32340898D01*
X49209001Y-32283499D01*
X49209002Y-36518452D01*
X49206190Y-36547002D01*
X49217408Y-36660897D01*
X49250630Y-36770416D01*
X49304580Y-36871349D01*
X49304581Y-36871350D01*
X49377185Y-36959819D01*
X49399357Y-36978015D01*
X49491999Y-37070657D01*
X49492000Y-55632449D01*
X49489188Y-55660999D01*
X49500406Y-55774894D01*
X49533628Y-55884413D01*
X49569339Y-55951223D01*
X49587579Y-55985347D01*
X49660183Y-56073816D01*
X49682355Y-56092012D01*
X49874983Y-56284640D01*
X49893183Y-56306817D01*
X49981652Y-56379421D01*
X50082585Y-56433371D01*
X50192104Y-56466593D01*
X50305999Y-56477811D01*
X50334539Y-56475000D01*
X61931223Y-56475000D01*
X61959355Y-56469404D01*
X61987896Y-56466593D01*
X62015343Y-56458267D01*
X62043471Y-56452672D01*
X62069966Y-56441698D01*
X62097415Y-56433371D01*
X62122711Y-56419850D01*
X62149207Y-56408875D01*
X62173054Y-56392941D01*
X62198348Y-56379421D01*
X62220518Y-56361227D01*
X62244366Y-56345292D01*
X62264645Y-56325013D01*
X62286817Y-56306817D01*
X62305013Y-56284645D01*
X62325292Y-56264366D01*
X62341227Y-56240518D01*
X62359421Y-56218348D01*
X62372941Y-56193054D01*
X62388875Y-56169207D01*
X62399850Y-56142711D01*
X62413371Y-56117415D01*
X62421698Y-56089966D01*
X62432672Y-56063471D01*
X62438267Y-56035343D01*
X62446593Y-56007896D01*
X62449404Y-55979355D01*
X62455000Y-55951223D01*
X62455000Y-55922540D01*
X62457811Y-55894000D01*
X62455000Y-55865460D01*
X62455000Y-55836777D01*
X62449404Y-55808645D01*
X62446593Y-55780104D01*
X62438267Y-55752657D01*
X62432672Y-55724529D01*
X62421698Y-55698034D01*
X62413371Y-55670585D01*
X62399850Y-55645289D01*
X62388875Y-55618793D01*
X62372941Y-55594946D01*
X62359421Y-55569652D01*
X62341227Y-55547482D01*
X62325292Y-55523634D01*
X62305010Y-55503352D01*
X62286817Y-55481183D01*
X62264645Y-55462987D01*
X62244366Y-55442708D01*
X62220518Y-55426773D01*
X62198348Y-55408579D01*
X62173054Y-55395059D01*
X62149207Y-55379125D01*
X62122711Y-55368150D01*
X62097415Y-55354629D01*
X62069966Y-55346302D01*
X62043471Y-55335328D01*
X62015343Y-55329733D01*
X61987896Y-55321407D01*
X61959355Y-55318596D01*
X61931223Y-55313000D01*
X50653999Y-55313000D01*
X50653999Y-40398000D01*
X72019157Y-40398000D01*
X72019157Y-41898000D01*
X72026513Y-41972689D01*
X72048299Y-42044508D01*
X72083678Y-42110696D01*
X72131289Y-42168711D01*
X72189304Y-42216322D01*
X72255492Y-42251701D01*
X72327311Y-42273487D01*
X72402000Y-42280843D01*
X73902000Y-42280843D01*
X73976689Y-42273487D01*
X74048508Y-42251701D01*
X74114696Y-42216322D01*
X74172711Y-42168711D01*
X74220322Y-42110696D01*
X74255701Y-42044508D01*
X74277487Y-41972689D01*
X74284843Y-41898000D01*
X74284843Y-41629000D01*
X74969001Y-41629000D01*
X74969000Y-42074095D01*
X74935125Y-42124793D01*
X74891328Y-42230529D01*
X74869000Y-42342777D01*
X74869000Y-42457223D01*
X74891328Y-42569471D01*
X74935125Y-42675207D01*
X74964386Y-42719000D01*
X74284843Y-42719000D01*
X74284843Y-42684000D01*
X74277487Y-42609311D01*
X74255701Y-42537492D01*
X74220322Y-42471304D01*
X74172711Y-42413289D01*
X74114696Y-42365678D01*
X74048508Y-42330299D01*
X73976689Y-42308513D01*
X73902000Y-42301157D01*
X72402000Y-42301157D01*
X72327311Y-42308513D01*
X72255492Y-42330299D01*
X72189304Y-42365678D01*
X72131289Y-42413289D01*
X72083678Y-42471304D01*
X72048299Y-42537492D01*
X72026513Y-42609311D01*
X72019157Y-42684000D01*
X72019157Y-44184000D01*
X72026513Y-44258689D01*
X72048299Y-44330508D01*
X72083678Y-44396696D01*
X72131289Y-44454711D01*
X72189304Y-44502322D01*
X72255492Y-44537701D01*
X72327311Y-44559487D01*
X72402000Y-44566843D01*
X73902000Y-44566843D01*
X73976689Y-44559487D01*
X74048508Y-44537701D01*
X74114696Y-44502322D01*
X74172711Y-44454711D01*
X74220322Y-44396696D01*
X74255701Y-44330508D01*
X74277487Y-44258689D01*
X74284843Y-44184000D01*
X74284843Y-43681000D01*
X74964386Y-43681000D01*
X74935125Y-43724793D01*
X74891328Y-43830529D01*
X74869000Y-43942777D01*
X74869000Y-44057223D01*
X74891328Y-44169471D01*
X74935125Y-44275207D01*
X74969000Y-44325905D01*
X74969001Y-45239000D01*
X74284843Y-45239000D01*
X74284843Y-44970000D01*
X74277487Y-44895311D01*
X74255701Y-44823492D01*
X74220322Y-44757304D01*
X74172711Y-44699289D01*
X74114696Y-44651678D01*
X74048508Y-44616299D01*
X73976689Y-44594513D01*
X73902000Y-44587157D01*
X72402000Y-44587157D01*
X72327311Y-44594513D01*
X72255492Y-44616299D01*
X72189304Y-44651678D01*
X72131289Y-44699289D01*
X72083678Y-44757304D01*
X72048299Y-44823492D01*
X72026513Y-44895311D01*
X72019157Y-44970000D01*
X72019157Y-46470000D01*
X72026513Y-46544689D01*
X72048299Y-46616508D01*
X72083678Y-46682696D01*
X72131289Y-46740711D01*
X72189304Y-46788322D01*
X72255492Y-46823701D01*
X72327311Y-46845487D01*
X72402000Y-46852843D01*
X73902000Y-46852843D01*
X73976689Y-46845487D01*
X74048508Y-46823701D01*
X74114696Y-46788322D01*
X74172711Y-46740711D01*
X74220322Y-46682696D01*
X74255701Y-46616508D01*
X74277487Y-46544689D01*
X74284843Y-46470000D01*
X74284843Y-46201000D01*
X75160374Y-46201000D01*
X75184000Y-46203327D01*
X75207626Y-46201000D01*
X75278292Y-46194040D01*
X75368961Y-46166536D01*
X75452522Y-46121872D01*
X75525764Y-46061764D01*
X75540830Y-46043406D01*
X75773406Y-45810830D01*
X75791764Y-45795764D01*
X75851872Y-45722522D01*
X75896536Y-45638961D01*
X75924040Y-45548292D01*
X75931000Y-45477626D01*
X75933327Y-45454000D01*
X75931000Y-45430374D01*
X75931000Y-44325905D01*
X75964875Y-44275207D01*
X76008672Y-44169471D01*
X76031000Y-44057223D01*
X76031000Y-43942777D01*
X76008672Y-43830529D01*
X75964875Y-43724793D01*
X75901292Y-43629634D01*
X75871658Y-43600000D01*
X75901292Y-43570366D01*
X75964875Y-43475207D01*
X76008672Y-43369471D01*
X76031000Y-43257223D01*
X76031000Y-43142777D01*
X76008672Y-43030529D01*
X75964875Y-42924793D01*
X75901292Y-42829634D01*
X75871658Y-42800000D01*
X75901292Y-42770366D01*
X75964875Y-42675207D01*
X76008672Y-42569471D01*
X76031000Y-42457223D01*
X76031000Y-42342777D01*
X76008672Y-42230529D01*
X75964875Y-42124793D01*
X75931000Y-42074095D01*
X75931000Y-41437626D01*
X75933327Y-41414000D01*
X75924040Y-41319707D01*
X75900556Y-41242292D01*
X75896536Y-41229039D01*
X75851872Y-41145478D01*
X75791764Y-41072236D01*
X75773406Y-41057170D01*
X75540830Y-40824594D01*
X75525764Y-40806236D01*
X75452522Y-40746128D01*
X75368961Y-40701464D01*
X75278292Y-40673960D01*
X75207626Y-40667000D01*
X75184000Y-40664673D01*
X75160374Y-40667000D01*
X74284843Y-40667000D01*
X74284843Y-40398000D01*
X74277487Y-40323311D01*
X74255701Y-40251492D01*
X74220322Y-40185304D01*
X74172711Y-40127289D01*
X74114696Y-40079678D01*
X74048508Y-40044299D01*
X73976689Y-40022513D01*
X73902000Y-40015157D01*
X72402000Y-40015157D01*
X72327311Y-40022513D01*
X72255492Y-40044299D01*
X72189304Y-40079678D01*
X72131289Y-40127289D01*
X72083678Y-40185304D01*
X72048299Y-40251492D01*
X72026513Y-40323311D01*
X72019157Y-40398000D01*
X50653999Y-40398000D01*
X50653999Y-36858540D01*
X50656810Y-36830000D01*
X50645592Y-36716104D01*
X50612370Y-36606585D01*
X50589676Y-36564128D01*
X50558420Y-36505652D01*
X50485816Y-36417183D01*
X50463640Y-36398984D01*
X50371001Y-36306345D01*
X50371001Y-32256773D01*
X50496903Y-32340898D01*
X50720931Y-32433693D01*
X50958757Y-32481000D01*
X51201243Y-32481000D01*
X51439069Y-32433693D01*
X51663097Y-32340898D01*
X51864717Y-32206180D01*
X52036180Y-32034717D01*
X52170898Y-31833097D01*
X52263693Y-31609069D01*
X52311000Y-31371243D01*
X52311000Y-31128757D01*
X52263693Y-30890931D01*
X52170898Y-30666903D01*
X52036180Y-30465283D01*
X51864717Y-30293820D01*
X51663097Y-30159102D01*
X51439069Y-30066307D01*
X51201243Y-30019000D01*
X50958757Y-30019000D01*
X50720931Y-30066307D01*
X50496903Y-30159102D01*
X50371001Y-30243227D01*
X50371001Y-30240656D01*
X50718833Y-29892824D01*
X50720931Y-29893693D01*
X50958757Y-29941000D01*
X51201243Y-29941000D01*
X51439069Y-29893693D01*
X51663097Y-29800898D01*
X51864717Y-29666180D01*
X52036180Y-29494717D01*
X52170898Y-29293097D01*
X52263693Y-29069069D01*
X52311000Y-28831243D01*
X52311000Y-28588757D01*
X52263693Y-28350931D01*
X52170898Y-28126903D01*
X52036180Y-27925283D01*
X51864717Y-27753820D01*
X51663097Y-27619102D01*
X51439069Y-27526307D01*
X51201243Y-27479000D01*
X50958757Y-27479000D01*
X50720931Y-27526307D01*
X50496903Y-27619102D01*
X50295283Y-27753820D01*
X50123820Y-27925283D01*
X49989102Y-28126903D01*
X49896307Y-28350931D01*
X49849000Y-28588757D01*
X49849000Y-28831243D01*
X49896307Y-29069069D01*
X49897176Y-29071167D01*
X49541596Y-29426746D01*
X49630898Y-29293097D01*
X49723693Y-29069069D01*
X49771000Y-28831243D01*
X49771000Y-28588757D01*
X49723693Y-28350931D01*
X49630898Y-28126903D01*
X49496180Y-27925283D01*
X49324717Y-27753820D01*
X49123097Y-27619102D01*
X48899069Y-27526307D01*
X48661243Y-27479000D01*
X48418757Y-27479000D01*
X48180931Y-27526307D01*
X47956903Y-27619102D01*
X47755283Y-27753820D01*
X47583820Y-27925283D01*
X47449102Y-28126903D01*
X47356307Y-28350931D01*
X47309000Y-28588757D01*
X47309000Y-28831243D01*
X47356307Y-29069069D01*
X47449102Y-29293097D01*
X47583820Y-29494717D01*
X47755283Y-29666180D01*
X47956903Y-29800898D01*
X48180931Y-29893693D01*
X48418757Y-29941000D01*
X48661243Y-29941000D01*
X48899069Y-29893693D01*
X49123097Y-29800898D01*
X49301268Y-29681848D01*
X49250630Y-29776585D01*
X49217408Y-29886104D01*
X49206190Y-29999999D01*
X49209001Y-30028539D01*
X49209001Y-30216501D01*
X49123097Y-30159102D01*
X48899069Y-30066307D01*
X48661243Y-30019000D01*
X48418757Y-30019000D01*
X48180931Y-30066307D01*
X47956903Y-30159102D01*
X47755283Y-30293820D01*
X47583820Y-30465283D01*
X47449102Y-30666903D01*
X47356307Y-30890931D01*
X47309000Y-31128757D01*
X47309000Y-31371243D01*
X47356307Y-31609069D01*
X47449102Y-31833097D01*
X47583820Y-32034717D01*
X47755283Y-32206180D01*
X47956903Y-32340898D01*
X48059001Y-32383188D01*
X48059000Y-37663623D01*
X48059001Y-37663633D01*
X48059000Y-62206374D01*
X48056673Y-62230000D01*
X48065960Y-62324291D01*
X48093464Y-62414960D01*
X48138128Y-62498522D01*
X48198236Y-62571764D01*
X48216594Y-62586830D01*
X48437170Y-62807406D01*
X48452236Y-62825764D01*
X48525478Y-62885872D01*
X48609039Y-62930536D01*
X48699708Y-62958040D01*
X48770374Y-62965000D01*
X48770375Y-62965000D01*
X48793999Y-62967327D01*
X48817623Y-62965000D01*
X80260996Y-62965000D01*
X80257125Y-62970793D01*
X80213328Y-63076529D01*
X80191000Y-63188777D01*
X80191000Y-63303223D01*
X80213328Y-63415471D01*
X80257125Y-63521207D01*
X80279037Y-63554000D01*
X80206777Y-63554000D01*
X80094529Y-63576328D01*
X79988793Y-63620125D01*
X79893634Y-63683708D01*
X79812708Y-63764634D01*
X79749125Y-63859793D01*
X79705328Y-63965529D01*
X79683000Y-64077777D01*
X79683000Y-64192223D01*
X79705328Y-64304471D01*
X79749125Y-64410207D01*
X79812708Y-64505366D01*
X79893634Y-64586292D01*
X79988793Y-64649875D01*
X80094529Y-64693672D01*
X80158294Y-64706356D01*
X80195477Y-64736871D01*
X80279038Y-64781535D01*
X80369707Y-64809039D01*
X80440373Y-64815999D01*
X80440374Y-64815999D01*
X80463998Y-64818326D01*
X80487622Y-64815999D01*
X92359375Y-64815999D01*
X92383001Y-64818326D01*
X92406627Y-64815999D01*
X92477293Y-64809039D01*
X92567962Y-64781535D01*
X92590122Y-64769690D01*
X92585538Y-64816440D01*
X92566244Y-64880346D01*
X92534905Y-64939287D01*
X92492713Y-64991021D01*
X92441272Y-65033576D01*
X92382550Y-65065326D01*
X92318781Y-65085066D01*
X92233783Y-65094000D01*
X44769855Y-65094000D01*
X44683560Y-65085538D01*
X44619654Y-65066244D01*
X44560713Y-65034905D01*
X44508979Y-64992713D01*
X44466424Y-64941272D01*
X44434674Y-64882550D01*
X44414934Y-64818781D01*
X44406000Y-64733783D01*
X44406000Y-30400000D01*
X44767157Y-30400000D01*
X44767157Y-32100000D01*
X44774513Y-32174689D01*
X44796299Y-32246508D01*
X44831678Y-32312696D01*
X44879289Y-32370711D01*
X44937304Y-32418322D01*
X45003492Y-32453701D01*
X45075311Y-32475487D01*
X45150000Y-32482843D01*
X46850000Y-32482843D01*
X46924689Y-32475487D01*
X46996508Y-32453701D01*
X47062696Y-32418322D01*
X47120711Y-32370711D01*
X47168322Y-32312696D01*
X47203701Y-32246508D01*
X47225487Y-32174689D01*
X47232843Y-32100000D01*
X47232843Y-30400000D01*
X47225487Y-30325311D01*
X47203701Y-30253492D01*
X47168322Y-30187304D01*
X47120711Y-30129289D01*
X47062696Y-30081678D01*
X46996508Y-30046299D01*
X46924689Y-30024513D01*
X46850000Y-30017157D01*
X45150000Y-30017157D01*
X45075311Y-30024513D01*
X45003492Y-30046299D01*
X44937304Y-30081678D01*
X44879289Y-30129289D01*
X44831678Y-30187304D01*
X44796299Y-30253492D01*
X44774513Y-30325311D01*
X44767157Y-30400000D01*
X44406000Y-30400000D01*
X44406000Y-28588757D01*
X44769000Y-28588757D01*
X44769000Y-28831243D01*
X44816307Y-29069069D01*
X44909102Y-29293097D01*
X45043820Y-29494717D01*
X45215283Y-29666180D01*
X45416903Y-29800898D01*
X45640931Y-29893693D01*
X45878757Y-29941000D01*
X46121243Y-29941000D01*
X46359069Y-29893693D01*
X46583097Y-29800898D01*
X46784717Y-29666180D01*
X46956180Y-29494717D01*
X47090898Y-29293097D01*
X47183693Y-29069069D01*
X47231000Y-28831243D01*
X47231000Y-28588757D01*
X47183693Y-28350931D01*
X47090898Y-28126903D01*
X46956180Y-27925283D01*
X46784717Y-27753820D01*
X46583097Y-27619102D01*
X46359069Y-27526307D01*
X46121243Y-27479000D01*
X45878757Y-27479000D01*
X45640931Y-27526307D01*
X45416903Y-27619102D01*
X45215283Y-27753820D01*
X45043820Y-27925283D01*
X44909102Y-28126903D01*
X44816307Y-28350931D01*
X44769000Y-28588757D01*
X44406000Y-28588757D01*
X44406000Y-27269855D01*
X44414461Y-27183561D01*
X44433756Y-27119652D01*
X44465096Y-27060711D01*
X44507287Y-27008979D01*
X44558723Y-26966427D01*
X44617451Y-26934674D01*
X44681219Y-26914934D01*
X44766217Y-26906000D01*
X84207763Y-26906000D01*
X83545167Y-27568597D01*
%TA.AperFunction,Conductor*%
D18*
G36*
X83545167Y-27568597D02*
G01*
X83443069Y-27526307D01*
X83205243Y-27479000D01*
X82962757Y-27479000D01*
X82724931Y-27526307D01*
X82500903Y-27619102D01*
X82299283Y-27753820D01*
X82127820Y-27925283D01*
X81993102Y-28126903D01*
X81900307Y-28350931D01*
X81853000Y-28588757D01*
X81853000Y-28831243D01*
X81900307Y-29069069D01*
X81993102Y-29293097D01*
X82127820Y-29494717D01*
X82299283Y-29666180D01*
X82500903Y-29800898D01*
X82724931Y-29893693D01*
X82962757Y-29941000D01*
X83205243Y-29941000D01*
X83443069Y-29893693D01*
X83667097Y-29800898D01*
X83868717Y-29666180D01*
X84040180Y-29494717D01*
X84174898Y-29293097D01*
X84267693Y-29069069D01*
X84315000Y-28831243D01*
X84315000Y-28588757D01*
X84267693Y-28350931D01*
X84225403Y-28248833D01*
X84961247Y-27512990D01*
X85331879Y-27512990D01*
X85264931Y-27526307D01*
X85040903Y-27619102D01*
X84839283Y-27753820D01*
X84667820Y-27925283D01*
X84533102Y-28126903D01*
X84440307Y-28350931D01*
X84393000Y-28588757D01*
X84393000Y-28831243D01*
X84440307Y-29069069D01*
X84533102Y-29293097D01*
X84667820Y-29494717D01*
X84839283Y-29666180D01*
X85040903Y-29800898D01*
X85264931Y-29893693D01*
X85502757Y-29941000D01*
X85745243Y-29941000D01*
X85983069Y-29893693D01*
X86207097Y-29800898D01*
X86387001Y-29680690D01*
X86387001Y-30279310D01*
X86207097Y-30159102D01*
X85983069Y-30066307D01*
X85745243Y-30019000D01*
X85502757Y-30019000D01*
X85264931Y-30066307D01*
X85040903Y-30159102D01*
X84839283Y-30293820D01*
X84667820Y-30465283D01*
X84533102Y-30666903D01*
X84440307Y-30890931D01*
X84393000Y-31128757D01*
X84393000Y-31371243D01*
X84440307Y-31609069D01*
X84533102Y-31833097D01*
X84667820Y-32034717D01*
X84839283Y-32206180D01*
X85040903Y-32340898D01*
X85264931Y-32433693D01*
X85502757Y-32481000D01*
X85745243Y-32481000D01*
X85983069Y-32433693D01*
X86207097Y-32340898D01*
X86387001Y-32220690D01*
X86387000Y-39651000D01*
X83554832Y-39651000D01*
X83597371Y-39571415D01*
X83630593Y-39461896D01*
X83639000Y-39376540D01*
X83639000Y-39376538D01*
X83641811Y-39348001D01*
X83639000Y-39319464D01*
X83639000Y-38810767D01*
X83641097Y-38809898D01*
X83842717Y-38675180D01*
X84014180Y-38503717D01*
X84148898Y-38302097D01*
X84241693Y-38078069D01*
X84289000Y-37840243D01*
X84289000Y-37597757D01*
X84241693Y-37359931D01*
X84148898Y-37135903D01*
X84014180Y-36934283D01*
X83842717Y-36762820D01*
X83641097Y-36628102D01*
X83417069Y-36535307D01*
X83179243Y-36488000D01*
X82936757Y-36488000D01*
X82698931Y-36535307D01*
X82474903Y-36628102D01*
X82273283Y-36762820D01*
X82101820Y-36934283D01*
X81967102Y-37135903D01*
X81874307Y-37359931D01*
X81827000Y-37597757D01*
X81827000Y-37840243D01*
X81874307Y-38078069D01*
X81967102Y-38302097D01*
X82101820Y-38503717D01*
X82273283Y-38675180D01*
X82474903Y-38809898D01*
X82477001Y-38810767D01*
X82477001Y-39021000D01*
X81076539Y-39021000D01*
X81047999Y-39018189D01*
X80992524Y-39023653D01*
X80934104Y-39029407D01*
X80824585Y-39062629D01*
X80723652Y-39116579D01*
X80635183Y-39189183D01*
X80616983Y-39211360D01*
X80319360Y-39508983D01*
X80297183Y-39527183D01*
X80235784Y-39602000D01*
X80224579Y-39615653D01*
X80170629Y-39716586D01*
X80137407Y-39826105D01*
X80126189Y-39940000D01*
X80129000Y-39968540D01*
X80129000Y-40417223D01*
X80134596Y-40445355D01*
X80137407Y-40473896D01*
X80145733Y-40501343D01*
X80151328Y-40529471D01*
X80162302Y-40555966D01*
X80170629Y-40583415D01*
X80184149Y-40608709D01*
X80195125Y-40635207D01*
X80211063Y-40659060D01*
X80224580Y-40684348D01*
X80242769Y-40706512D01*
X80258708Y-40730366D01*
X80278993Y-40750651D01*
X80297184Y-40772817D01*
X80319350Y-40791008D01*
X80339634Y-40811292D01*
X80363487Y-40827230D01*
X80385653Y-40845421D01*
X80410942Y-40858938D01*
X80434793Y-40874875D01*
X80461293Y-40885852D01*
X80486586Y-40899371D01*
X80514031Y-40907696D01*
X80540529Y-40918672D01*
X80568660Y-40924268D01*
X80596105Y-40932593D01*
X80624644Y-40935404D01*
X80652777Y-40941000D01*
X80681460Y-40941000D01*
X80710000Y-40943811D01*
X80738540Y-40941000D01*
X80767223Y-40941000D01*
X80795355Y-40935404D01*
X80823896Y-40932593D01*
X80851343Y-40924267D01*
X80879471Y-40918672D01*
X80905966Y-40907698D01*
X80933415Y-40899371D01*
X80958711Y-40885850D01*
X80985207Y-40874875D01*
X81009054Y-40858941D01*
X81034348Y-40845421D01*
X81056518Y-40827227D01*
X81080366Y-40811292D01*
X81100645Y-40791013D01*
X81122817Y-40772817D01*
X81141013Y-40750645D01*
X81161292Y-40730366D01*
X81177227Y-40706518D01*
X81195421Y-40684348D01*
X81208941Y-40659054D01*
X81224875Y-40635207D01*
X81235850Y-40608711D01*
X81249371Y-40583415D01*
X81257698Y-40555966D01*
X81268672Y-40529471D01*
X81274267Y-40501343D01*
X81282593Y-40473896D01*
X81285404Y-40445355D01*
X81291000Y-40417223D01*
X81291000Y-40183000D01*
X81719000Y-40183000D01*
X81719000Y-40286849D01*
X81712189Y-40356000D01*
X81719000Y-40425152D01*
X81719001Y-41665342D01*
X81651360Y-41732983D01*
X81629183Y-41751183D01*
X81556580Y-41839652D01*
X81556579Y-41839653D01*
X81502629Y-41940586D01*
X81469407Y-42050105D01*
X81458189Y-42164000D01*
X81461000Y-42192540D01*
X81461001Y-47511341D01*
X81259342Y-47713000D01*
X80258536Y-47713000D01*
X80229999Y-47710189D01*
X80201462Y-47713000D01*
X80201460Y-47713000D01*
X80116104Y-47721407D01*
X80006585Y-47754629D01*
X79905652Y-47808579D01*
X79817183Y-47881183D01*
X79798983Y-47903360D01*
X79519360Y-48182983D01*
X79497183Y-48201183D01*
X79426375Y-48287464D01*
X79424579Y-48289653D01*
X79370629Y-48390586D01*
X79337407Y-48500105D01*
X79326189Y-48614000D01*
X79329000Y-48642540D01*
X79329001Y-49982772D01*
X79329000Y-49982777D01*
X79329000Y-50097223D01*
X79334598Y-50125365D01*
X79337408Y-50153896D01*
X79345731Y-50181333D01*
X79346460Y-50185000D01*
X79312536Y-50185000D01*
X79283999Y-50182189D01*
X79255462Y-50185000D01*
X78062598Y-50185000D01*
X78078940Y-50102843D01*
X78078940Y-49988397D01*
X78056612Y-49876149D01*
X78012815Y-49770413D01*
X77978940Y-49719715D01*
X77978940Y-48939296D01*
X79063413Y-47854824D01*
X79081764Y-47839764D01*
X79141872Y-47766522D01*
X79186536Y-47682961D01*
X79207344Y-47614366D01*
X79214040Y-47592293D01*
X79223327Y-47498001D01*
X79221000Y-47474374D01*
X79221000Y-40077236D01*
X79571411Y-39726826D01*
X79589764Y-39711764D01*
X79649872Y-39638522D01*
X79694536Y-39554961D01*
X79722040Y-39464292D01*
X79729000Y-39393626D01*
X79729000Y-39393617D01*
X79731326Y-39370001D01*
X79729000Y-39346385D01*
X79729000Y-38670897D01*
X79733283Y-38675180D01*
X79934903Y-38809898D01*
X80158931Y-38902693D01*
X80396757Y-38950000D01*
X80639243Y-38950000D01*
X80877069Y-38902693D01*
X81101097Y-38809898D01*
X81302717Y-38675180D01*
X81474180Y-38503717D01*
X81608898Y-38302097D01*
X81701693Y-38078069D01*
X81749000Y-37840243D01*
X81749000Y-37597757D01*
X81701693Y-37359931D01*
X81608898Y-37135903D01*
X81474180Y-36934283D01*
X81302717Y-36762820D01*
X81101097Y-36628102D01*
X80877069Y-36535307D01*
X80639243Y-36488000D01*
X80396757Y-36488000D01*
X80158931Y-36535307D01*
X79934903Y-36628102D01*
X79733283Y-36762820D01*
X79729000Y-36767103D01*
X79729000Y-36130897D01*
X79733283Y-36135180D01*
X79934903Y-36269898D01*
X80158931Y-36362693D01*
X80396757Y-36410000D01*
X80639243Y-36410000D01*
X80877069Y-36362693D01*
X81101097Y-36269898D01*
X81302717Y-36135180D01*
X81474180Y-35963717D01*
X81608898Y-35762097D01*
X81701693Y-35538069D01*
X81749000Y-35300243D01*
X81749000Y-35057757D01*
X81701693Y-34819931D01*
X81608898Y-34595903D01*
X81474180Y-34394283D01*
X81408897Y-34329000D01*
X81825157Y-34329000D01*
X81825157Y-36029000D01*
X81832513Y-36103689D01*
X81854299Y-36175508D01*
X81889678Y-36241696D01*
X81937289Y-36299711D01*
X81995304Y-36347322D01*
X82061492Y-36382701D01*
X82133311Y-36404487D01*
X82208000Y-36411843D01*
X83908000Y-36411843D01*
X83982689Y-36404487D01*
X84054508Y-36382701D01*
X84120696Y-36347322D01*
X84178711Y-36299711D01*
X84226322Y-36241696D01*
X84261701Y-36175508D01*
X84283487Y-36103689D01*
X84290843Y-36029000D01*
X84290843Y-34329000D01*
X84283487Y-34254311D01*
X84261701Y-34182492D01*
X84226322Y-34116304D01*
X84178711Y-34058289D01*
X84120696Y-34010678D01*
X84054508Y-33975299D01*
X83982689Y-33953513D01*
X83908000Y-33946157D01*
X82208000Y-33946157D01*
X82133311Y-33953513D01*
X82061492Y-33975299D01*
X81995304Y-34010678D01*
X81937289Y-34058289D01*
X81889678Y-34116304D01*
X81854299Y-34182492D01*
X81832513Y-34254311D01*
X81825157Y-34329000D01*
X81408897Y-34329000D01*
X81302717Y-34222820D01*
X81101097Y-34088102D01*
X80877069Y-33995307D01*
X80639243Y-33948000D01*
X80396757Y-33948000D01*
X80158931Y-33995307D01*
X79934903Y-34088102D01*
X79733283Y-34222820D01*
X79729000Y-34227103D01*
X79729000Y-32175897D01*
X79759283Y-32206180D01*
X79960903Y-32340898D01*
X80184931Y-32433693D01*
X80422757Y-32481000D01*
X80665243Y-32481000D01*
X80903069Y-32433693D01*
X81127097Y-32340898D01*
X81328717Y-32206180D01*
X81500180Y-32034717D01*
X81634898Y-31833097D01*
X81727693Y-31609069D01*
X81775000Y-31371243D01*
X81775000Y-31128757D01*
X81853000Y-31128757D01*
X81853000Y-31371243D01*
X81900307Y-31609069D01*
X81993102Y-31833097D01*
X82127820Y-32034717D01*
X82299283Y-32206180D01*
X82500903Y-32340898D01*
X82724931Y-32433693D01*
X82962757Y-32481000D01*
X83205243Y-32481000D01*
X83443069Y-32433693D01*
X83667097Y-32340898D01*
X83868717Y-32206180D01*
X84040180Y-32034717D01*
X84174898Y-31833097D01*
X84267693Y-31609069D01*
X84315000Y-31371243D01*
X84315000Y-31128757D01*
X84267693Y-30890931D01*
X84174898Y-30666903D01*
X84040180Y-30465283D01*
X83868717Y-30293820D01*
X83667097Y-30159102D01*
X83443069Y-30066307D01*
X83205243Y-30019000D01*
X82962757Y-30019000D01*
X82724931Y-30066307D01*
X82500903Y-30159102D01*
X82299283Y-30293820D01*
X82127820Y-30465283D01*
X81993102Y-30666903D01*
X81900307Y-30890931D01*
X81853000Y-31128757D01*
X81775000Y-31128757D01*
X81727693Y-30890931D01*
X81634898Y-30666903D01*
X81500180Y-30465283D01*
X81328717Y-30293820D01*
X81127097Y-30159102D01*
X80903069Y-30066307D01*
X80665243Y-30019000D01*
X80422757Y-30019000D01*
X80184931Y-30066307D01*
X79960903Y-30159102D01*
X79759283Y-30293820D01*
X79729000Y-30324103D01*
X79729000Y-29635897D01*
X79759283Y-29666180D01*
X79960903Y-29800898D01*
X80184931Y-29893693D01*
X80422757Y-29941000D01*
X80665243Y-29941000D01*
X80903069Y-29893693D01*
X81127097Y-29800898D01*
X81328717Y-29666180D01*
X81500180Y-29494717D01*
X81634898Y-29293097D01*
X81727693Y-29069069D01*
X81775000Y-28831243D01*
X81775000Y-28588757D01*
X81727693Y-28350931D01*
X81634898Y-28126903D01*
X81500180Y-27925283D01*
X81328717Y-27753820D01*
X81127097Y-27619102D01*
X80903069Y-27526307D01*
X80665243Y-27479000D01*
X80422757Y-27479000D01*
X80184931Y-27526307D01*
X79960903Y-27619102D01*
X79759283Y-27753820D01*
X79587820Y-27925283D01*
X79453102Y-28126903D01*
X79408279Y-28235116D01*
X79399707Y-28235960D01*
X79309038Y-28263464D01*
X79279990Y-28278991D01*
X79225478Y-28308128D01*
X79184047Y-28342129D01*
X79094898Y-28126903D01*
X78960180Y-27925283D01*
X78788717Y-27753820D01*
X78587097Y-27619102D01*
X78363069Y-27526307D01*
X78125243Y-27479000D01*
X77882757Y-27479000D01*
X77644931Y-27526307D01*
X77420903Y-27619102D01*
X77219283Y-27753820D01*
X77047820Y-27925283D01*
X76913102Y-28126903D01*
X76867939Y-28235937D01*
X76867708Y-28235960D01*
X76777039Y-28263464D01*
X76693478Y-28308128D01*
X76646077Y-28347029D01*
X76554898Y-28126903D01*
X76420180Y-27925283D01*
X76248717Y-27753820D01*
X76047097Y-27619102D01*
X75823069Y-27526307D01*
X75585243Y-27479000D01*
X75342757Y-27479000D01*
X75104931Y-27526307D01*
X74880903Y-27619102D01*
X74679283Y-27753820D01*
X74507820Y-27925283D01*
X74373102Y-28126903D01*
X74328279Y-28235116D01*
X74319707Y-28235960D01*
X74229038Y-28263464D01*
X74199990Y-28278991D01*
X74145478Y-28308128D01*
X74104047Y-28342129D01*
X74014898Y-28126903D01*
X73880180Y-27925283D01*
X73708717Y-27753820D01*
X73507097Y-27619102D01*
X73283069Y-27526307D01*
X73045243Y-27479000D01*
X72802757Y-27479000D01*
X72564931Y-27526307D01*
X72340903Y-27619102D01*
X72139283Y-27753820D01*
X71967820Y-27925283D01*
X71833102Y-28126903D01*
X71790812Y-28229000D01*
X71143623Y-28229000D01*
X71119999Y-28226673D01*
X71096375Y-28229000D01*
X71096374Y-28229000D01*
X71025708Y-28235960D01*
X70935039Y-28263464D01*
X70851478Y-28308128D01*
X70778236Y-28368236D01*
X70763170Y-28386594D01*
X70542589Y-28607175D01*
X70524237Y-28622236D01*
X70509176Y-28640588D01*
X70464129Y-28695478D01*
X70419465Y-28779039D01*
X70391960Y-28869708D01*
X70382673Y-28964000D01*
X70385001Y-28987636D01*
X70385000Y-35587000D01*
X67955632Y-35587000D01*
X67965872Y-35574522D01*
X68010536Y-35490961D01*
X68038040Y-35400292D01*
X68045000Y-35329626D01*
X68045000Y-35329625D01*
X68047327Y-35306001D01*
X68045000Y-35282377D01*
X68045000Y-32175897D01*
X68075283Y-32206180D01*
X68276903Y-32340898D01*
X68500931Y-32433693D01*
X68738757Y-32481000D01*
X68981243Y-32481000D01*
X69219069Y-32433693D01*
X69443097Y-32340898D01*
X69644717Y-32206180D01*
X69816180Y-32034717D01*
X69950898Y-31833097D01*
X70043693Y-31609069D01*
X70091000Y-31371243D01*
X70091000Y-31128757D01*
X70043693Y-30890931D01*
X69950898Y-30666903D01*
X69816180Y-30465283D01*
X69644717Y-30293820D01*
X69443097Y-30159102D01*
X69219069Y-30066307D01*
X68981243Y-30019000D01*
X68738757Y-30019000D01*
X68500931Y-30066307D01*
X68276903Y-30159102D01*
X68075283Y-30293820D01*
X68045000Y-30324103D01*
X68045000Y-29635897D01*
X68075283Y-29666180D01*
X68276903Y-29800898D01*
X68500931Y-29893693D01*
X68738757Y-29941000D01*
X68981243Y-29941000D01*
X69219069Y-29893693D01*
X69443097Y-29800898D01*
X69644717Y-29666180D01*
X69816180Y-29494717D01*
X69950898Y-29293097D01*
X70043693Y-29069069D01*
X70091000Y-28831243D01*
X70091000Y-28588757D01*
X70043693Y-28350931D01*
X69950898Y-28126903D01*
X69816180Y-27925283D01*
X69644717Y-27753820D01*
X69443097Y-27619102D01*
X69219069Y-27526307D01*
X68981243Y-27479000D01*
X68738757Y-27479000D01*
X68500931Y-27526307D01*
X68276903Y-27619102D01*
X68075283Y-27753820D01*
X67903820Y-27925283D01*
X67769102Y-28126903D01*
X67724279Y-28235116D01*
X67715707Y-28235960D01*
X67625038Y-28263464D01*
X67595990Y-28278991D01*
X67541478Y-28308128D01*
X67500047Y-28342129D01*
X67410898Y-28126903D01*
X67276180Y-27925283D01*
X67104717Y-27753820D01*
X66903097Y-27619102D01*
X66679069Y-27526307D01*
X66441243Y-27479000D01*
X66198757Y-27479000D01*
X65960931Y-27526307D01*
X65736903Y-27619102D01*
X65535283Y-27753820D01*
X65363820Y-27925283D01*
X65229102Y-28126903D01*
X65184279Y-28235116D01*
X65175707Y-28235960D01*
X65085038Y-28263464D01*
X65055990Y-28278991D01*
X65001478Y-28308128D01*
X64960047Y-28342129D01*
X64870898Y-28126903D01*
X64736180Y-27925283D01*
X64564717Y-27753820D01*
X64363097Y-27619102D01*
X64139069Y-27526307D01*
X63901243Y-27479000D01*
X63658757Y-27479000D01*
X63420931Y-27526307D01*
X63196903Y-27619102D01*
X62995283Y-27753820D01*
X62823820Y-27925283D01*
X62689102Y-28126903D01*
X62644279Y-28235116D01*
X62635707Y-28235960D01*
X62545038Y-28263464D01*
X62515990Y-28278991D01*
X62461478Y-28308128D01*
X62420047Y-28342129D01*
X62330898Y-28126903D01*
X62196180Y-27925283D01*
X62024717Y-27753820D01*
X61823097Y-27619102D01*
X61599069Y-27526307D01*
X61361243Y-27479000D01*
X61118757Y-27479000D01*
X60880931Y-27526307D01*
X60656903Y-27619102D01*
X60455283Y-27753820D01*
X60283820Y-27925283D01*
X60149102Y-28126903D01*
X60104279Y-28235116D01*
X60095707Y-28235960D01*
X60005038Y-28263464D01*
X59975990Y-28278991D01*
X59921478Y-28308128D01*
X59880047Y-28342129D01*
X59790898Y-28126903D01*
X59656180Y-27925283D01*
X59484717Y-27753820D01*
X59283097Y-27619102D01*
X59059069Y-27526307D01*
X58821243Y-27479000D01*
X58578757Y-27479000D01*
X58340931Y-27526307D01*
X58116903Y-27619102D01*
X57915283Y-27753820D01*
X57743820Y-27925283D01*
X57609102Y-28126903D01*
X57516307Y-28350931D01*
X57469000Y-28588757D01*
X57469000Y-28831243D01*
X57516307Y-29069069D01*
X57609102Y-29293097D01*
X57743820Y-29494717D01*
X57915283Y-29666180D01*
X58116903Y-29800898D01*
X58340931Y-29893693D01*
X58578757Y-29941000D01*
X58821243Y-29941000D01*
X59059069Y-29893693D01*
X59283097Y-29800898D01*
X59463001Y-29680690D01*
X59463001Y-30279310D01*
X59283097Y-30159102D01*
X59059069Y-30066307D01*
X58821243Y-30019000D01*
X58578757Y-30019000D01*
X58340931Y-30066307D01*
X58116903Y-30159102D01*
X57915283Y-30293820D01*
X57743820Y-30465283D01*
X57609102Y-30666903D01*
X57516307Y-30890931D01*
X57469000Y-31128757D01*
X57469000Y-31371243D01*
X57516307Y-31609069D01*
X57609102Y-31833097D01*
X57743820Y-32034717D01*
X57915283Y-32206180D01*
X58116903Y-32340898D01*
X58340931Y-32433693D01*
X58578757Y-32481000D01*
X58821243Y-32481000D01*
X59059069Y-32433693D01*
X59283097Y-32340898D01*
X59463000Y-32220691D01*
X59463000Y-33555000D01*
X55255632Y-33555000D01*
X55265872Y-33542522D01*
X55310536Y-33458961D01*
X55338040Y-33368292D01*
X55345000Y-33297626D01*
X55345000Y-33297625D01*
X55347327Y-33274001D01*
X55345000Y-33250374D01*
X55345000Y-32175897D01*
X55375283Y-32206180D01*
X55576903Y-32340898D01*
X55800931Y-32433693D01*
X56038757Y-32481000D01*
X56281243Y-32481000D01*
X56519069Y-32433693D01*
X56743097Y-32340898D01*
X56944717Y-32206180D01*
X57116180Y-32034717D01*
X57250898Y-31833097D01*
X57343693Y-31609069D01*
X57391000Y-31371243D01*
X57391000Y-31128757D01*
X57343693Y-30890931D01*
X57250898Y-30666903D01*
X57116180Y-30465283D01*
X56944717Y-30293820D01*
X56743097Y-30159102D01*
X56519069Y-30066307D01*
X56281243Y-30019000D01*
X56038757Y-30019000D01*
X55800931Y-30066307D01*
X55576903Y-30159102D01*
X55375283Y-30293820D01*
X55345000Y-30324103D01*
X55345000Y-29635897D01*
X55375283Y-29666180D01*
X55576903Y-29800898D01*
X55800931Y-29893693D01*
X56038757Y-29941000D01*
X56281243Y-29941000D01*
X56519069Y-29893693D01*
X56743097Y-29800898D01*
X56944717Y-29666180D01*
X57116180Y-29494717D01*
X57250898Y-29293097D01*
X57343693Y-29069069D01*
X57391000Y-28831243D01*
X57391000Y-28588757D01*
X57343693Y-28350931D01*
X57250898Y-28126903D01*
X57116180Y-27925283D01*
X56944717Y-27753820D01*
X56743097Y-27619102D01*
X56519069Y-27526307D01*
X56281243Y-27479000D01*
X56038757Y-27479000D01*
X55800931Y-27526307D01*
X55576903Y-27619102D01*
X55375283Y-27753820D01*
X55203820Y-27925283D01*
X55069102Y-28126903D01*
X55024279Y-28235116D01*
X55015707Y-28235960D01*
X54925038Y-28263464D01*
X54895990Y-28278991D01*
X54841478Y-28308128D01*
X54800047Y-28342129D01*
X54710898Y-28126903D01*
X54576180Y-27925283D01*
X54404717Y-27753820D01*
X54203097Y-27619102D01*
X53979069Y-27526307D01*
X53741243Y-27479000D01*
X53498757Y-27479000D01*
X53260931Y-27526307D01*
X53036903Y-27619102D01*
X52835283Y-27753820D01*
X52663820Y-27925283D01*
X52529102Y-28126903D01*
X52436307Y-28350931D01*
X52389000Y-28588757D01*
X52389000Y-28831243D01*
X52436307Y-29069069D01*
X52529102Y-29293097D01*
X52663820Y-29494717D01*
X52835283Y-29666180D01*
X53036903Y-29800898D01*
X53260931Y-29893693D01*
X53498757Y-29941000D01*
X53741243Y-29941000D01*
X53979069Y-29893693D01*
X54203097Y-29800898D01*
X54383001Y-29680690D01*
X54383001Y-30279310D01*
X54203097Y-30159102D01*
X53979069Y-30066307D01*
X53741243Y-30019000D01*
X53498757Y-30019000D01*
X53260931Y-30066307D01*
X53036903Y-30159102D01*
X52835283Y-30293820D01*
X52663820Y-30465283D01*
X52529102Y-30666903D01*
X52436307Y-30890931D01*
X52389000Y-31128757D01*
X52389000Y-31371243D01*
X52436307Y-31609069D01*
X52529102Y-31833097D01*
X52663820Y-32034717D01*
X52835283Y-32206180D01*
X53036903Y-32340898D01*
X53260931Y-32433693D01*
X53498757Y-32481000D01*
X53741243Y-32481000D01*
X53979069Y-32433693D01*
X54203097Y-32340898D01*
X54383000Y-32220691D01*
X54383000Y-33047000D01*
X51585626Y-33047000D01*
X51562000Y-33044673D01*
X51467707Y-33053960D01*
X51377038Y-33081464D01*
X51362169Y-33089412D01*
X51293478Y-33126128D01*
X51220236Y-33186236D01*
X51205170Y-33204594D01*
X50941779Y-33467985D01*
X50923427Y-33483046D01*
X50908366Y-33501398D01*
X50863319Y-33556288D01*
X50818655Y-33639849D01*
X50791150Y-33730518D01*
X50781863Y-33824810D01*
X50784191Y-33848446D01*
X50784190Y-36758095D01*
X50750315Y-36808793D01*
X50706518Y-36914529D01*
X50684190Y-37026777D01*
X50684190Y-37141223D01*
X50706518Y-37253471D01*
X50750315Y-37359207D01*
X50813898Y-37454366D01*
X50894824Y-37535292D01*
X50989983Y-37598875D01*
X51095719Y-37642672D01*
X51186488Y-37660728D01*
X51206528Y-37761471D01*
X51250325Y-37867207D01*
X51313908Y-37962366D01*
X51394834Y-38043292D01*
X51489993Y-38106875D01*
X51595729Y-38150672D01*
X51707977Y-38173000D01*
X51822423Y-38173000D01*
X51934671Y-38150672D01*
X52040407Y-38106875D01*
X52135566Y-38043292D01*
X52216492Y-37962366D01*
X52266600Y-37887374D01*
X52316708Y-37962366D01*
X52397634Y-38043292D01*
X52492793Y-38106875D01*
X52598529Y-38150672D01*
X52710777Y-38173000D01*
X52825223Y-38173000D01*
X52937471Y-38150672D01*
X53043207Y-38106875D01*
X53138366Y-38043292D01*
X53219292Y-37962366D01*
X53268000Y-37889469D01*
X53316708Y-37962366D01*
X53397634Y-38043292D01*
X53492793Y-38106875D01*
X53598529Y-38150672D01*
X53710777Y-38173000D01*
X53825223Y-38173000D01*
X53937471Y-38150672D01*
X54043207Y-38106875D01*
X54138366Y-38043292D01*
X54219292Y-37962366D01*
X54268000Y-37889469D01*
X54316708Y-37962366D01*
X54397634Y-38043292D01*
X54492793Y-38106875D01*
X54598529Y-38150672D01*
X54710777Y-38173000D01*
X54825223Y-38173000D01*
X54937471Y-38150672D01*
X55043207Y-38106875D01*
X55138366Y-38043292D01*
X55219292Y-37962366D01*
X55273200Y-37881687D01*
X55327108Y-37962366D01*
X55408034Y-38043292D01*
X55503193Y-38106875D01*
X55608929Y-38150672D01*
X55721177Y-38173000D01*
X55835623Y-38173000D01*
X55947871Y-38150672D01*
X56053607Y-38106875D01*
X56148766Y-38043292D01*
X56229692Y-37962366D01*
X56293275Y-37867207D01*
X56337072Y-37761471D01*
X56359400Y-37649223D01*
X56359400Y-37534777D01*
X56337072Y-37422529D01*
X56293275Y-37316793D01*
X56259400Y-37266095D01*
X56259400Y-36622836D01*
X56333237Y-36549000D01*
X57004764Y-36549000D01*
X56944589Y-36609175D01*
X56926237Y-36624236D01*
X56908858Y-36645412D01*
X56866129Y-36697478D01*
X56821465Y-36781039D01*
X56793960Y-36871708D01*
X56784673Y-36966000D01*
X56787001Y-36989636D01*
X56787001Y-37266095D01*
X56753125Y-37316793D01*
X56709328Y-37422529D01*
X56687000Y-37534777D01*
X56687000Y-37649223D01*
X56709328Y-37761471D01*
X56753125Y-37867207D01*
X56816708Y-37962366D01*
X56897634Y-38043292D01*
X56992793Y-38106875D01*
X57098529Y-38150672D01*
X57210777Y-38173000D01*
X57325223Y-38173000D01*
X57437471Y-38150672D01*
X57543207Y-38106875D01*
X57638366Y-38043292D01*
X57719292Y-37962366D01*
X57768000Y-37889469D01*
X57816708Y-37962366D01*
X57897634Y-38043292D01*
X57992793Y-38106875D01*
X58098529Y-38150672D01*
X58210777Y-38173000D01*
X58325223Y-38173000D01*
X58437471Y-38150672D01*
X58530834Y-38112000D01*
X72019157Y-38112000D01*
X72019157Y-39612000D01*
X72026513Y-39686689D01*
X72048299Y-39758508D01*
X72083678Y-39824696D01*
X72131289Y-39882711D01*
X72189304Y-39930322D01*
X72255492Y-39965701D01*
X72327311Y-39987487D01*
X72402000Y-39994843D01*
X73902000Y-39994843D01*
X73976689Y-39987487D01*
X74048508Y-39965701D01*
X74114696Y-39930322D01*
X74172711Y-39882711D01*
X74220322Y-39824696D01*
X74255701Y-39758508D01*
X74277487Y-39686689D01*
X74284843Y-39612000D01*
X74284843Y-39343000D01*
X77016764Y-39343000D01*
X77019001Y-39345237D01*
X77019000Y-40024095D01*
X76985125Y-40074793D01*
X76941328Y-40180529D01*
X76919000Y-40292777D01*
X76919000Y-40407223D01*
X76941328Y-40519471D01*
X76985125Y-40625207D01*
X77048708Y-40720366D01*
X77129634Y-40801292D01*
X77224793Y-40864875D01*
X77330529Y-40908672D01*
X77442777Y-40931000D01*
X77557223Y-40931000D01*
X77669471Y-40908672D01*
X77775207Y-40864875D01*
X77870366Y-40801292D01*
X77951292Y-40720366D01*
X78014875Y-40625207D01*
X78058672Y-40519471D01*
X78081000Y-40407223D01*
X78081000Y-40292777D01*
X78058672Y-40180529D01*
X78014875Y-40074793D01*
X77981000Y-40024095D01*
X77981000Y-39169626D01*
X77983327Y-39146000D01*
X77974040Y-39051707D01*
X77946536Y-38961038D01*
X77916719Y-38905255D01*
X77901872Y-38877478D01*
X77851000Y-38815490D01*
X77851000Y-37846000D01*
X76752946Y-37846000D01*
X76662459Y-38055944D01*
X76753471Y-38306119D01*
X76798894Y-38381000D01*
X74284843Y-38381000D01*
X74284843Y-38112000D01*
X74277487Y-38037311D01*
X74255701Y-37965492D01*
X74220322Y-37899304D01*
X74172711Y-37841289D01*
X74114696Y-37793678D01*
X74048508Y-37758299D01*
X73976689Y-37736513D01*
X73902000Y-37729157D01*
X72402000Y-37729157D01*
X72327311Y-37736513D01*
X72255492Y-37758299D01*
X72189304Y-37793678D01*
X72131289Y-37841289D01*
X72083678Y-37899304D01*
X72048299Y-37965492D01*
X72026513Y-38037311D01*
X72019157Y-38112000D01*
X58530834Y-38112000D01*
X58543207Y-38106875D01*
X58638366Y-38043292D01*
X58719292Y-37962366D01*
X58782875Y-37867207D01*
X58826672Y-37761471D01*
X58849000Y-37649223D01*
X58849000Y-37589237D01*
X58873237Y-37565000D01*
X76430374Y-37565000D01*
X76454000Y-37567327D01*
X76477626Y-37565000D01*
X76548292Y-37558040D01*
X76638961Y-37530536D01*
X76710072Y-37492526D01*
X76752946Y-37592000D01*
X77851000Y-37592000D01*
X77851000Y-37572000D01*
X78105000Y-37572000D01*
X78105000Y-37592000D01*
X78125000Y-37592000D01*
X78125000Y-37846000D01*
X78105000Y-37846000D01*
X78105000Y-38943431D01*
X78314943Y-39034535D01*
X78428717Y-39000028D01*
X78669973Y-38887483D01*
X78767000Y-38816317D01*
X78767000Y-39170763D01*
X78416589Y-39521175D01*
X78398237Y-39536236D01*
X78383176Y-39554588D01*
X78338129Y-39609478D01*
X78293465Y-39693039D01*
X78265960Y-39783708D01*
X78256673Y-39878000D01*
X78259001Y-39901636D01*
X78259000Y-47298763D01*
X77174529Y-48383235D01*
X77156177Y-48398296D01*
X77141116Y-48416648D01*
X77096069Y-48471538D01*
X77051405Y-48555099D01*
X77023900Y-48645768D01*
X77014613Y-48740060D01*
X77016941Y-48763696D01*
X77016940Y-49719715D01*
X76983065Y-49770413D01*
X76939268Y-49876149D01*
X76916940Y-49988397D01*
X76916940Y-50102843D01*
X76933282Y-50185000D01*
X75584539Y-50185000D01*
X75555999Y-50182189D01*
X75527459Y-50185000D01*
X70928540Y-50185000D01*
X70900000Y-50182189D01*
X70871460Y-50185000D01*
X70786104Y-50193407D01*
X70676585Y-50226629D01*
X70575652Y-50280579D01*
X70487183Y-50353183D01*
X70468987Y-50375355D01*
X69999360Y-50844983D01*
X69977183Y-50863183D01*
X69910439Y-50944513D01*
X69904579Y-50951653D01*
X69850629Y-51052586D01*
X69817407Y-51162105D01*
X69806189Y-51276000D01*
X69809000Y-51304540D01*
X69809000Y-52127223D01*
X69814596Y-52155355D01*
X69817407Y-52183896D01*
X69825732Y-52211340D01*
X69831328Y-52239471D01*
X69842305Y-52265973D01*
X69850630Y-52293415D01*
X69864147Y-52318703D01*
X69875125Y-52345207D01*
X69891064Y-52369062D01*
X69904580Y-52394348D01*
X69922769Y-52416512D01*
X69938708Y-52440366D01*
X69958993Y-52460651D01*
X69977184Y-52482817D01*
X69999350Y-52501008D01*
X70019634Y-52521292D01*
X70043487Y-52537230D01*
X70065653Y-52555421D01*
X70090942Y-52568938D01*
X70114793Y-52584875D01*
X70141293Y-52595852D01*
X70166586Y-52609371D01*
X70194031Y-52617696D01*
X70220529Y-52628672D01*
X70248660Y-52634268D01*
X70276105Y-52642593D01*
X70304644Y-52645404D01*
X70332777Y-52651000D01*
X70361460Y-52651000D01*
X70390000Y-52653811D01*
X70418540Y-52651000D01*
X70447223Y-52651000D01*
X70475355Y-52645404D01*
X70503896Y-52642593D01*
X70531343Y-52634267D01*
X70559471Y-52628672D01*
X70585966Y-52617698D01*
X70613415Y-52609371D01*
X70638711Y-52595850D01*
X70665207Y-52584875D01*
X70689054Y-52568941D01*
X70714348Y-52555421D01*
X70736518Y-52537227D01*
X70760366Y-52521292D01*
X70780645Y-52501013D01*
X70802817Y-52482817D01*
X70821013Y-52460645D01*
X70841292Y-52440366D01*
X70857227Y-52416518D01*
X70875421Y-52394348D01*
X70888941Y-52369054D01*
X70904875Y-52345207D01*
X70915850Y-52318711D01*
X70929371Y-52293415D01*
X70937698Y-52265966D01*
X70948672Y-52239471D01*
X70954267Y-52211343D01*
X70962593Y-52183896D01*
X70965404Y-52155355D01*
X70971000Y-52127223D01*
X70971000Y-51516657D01*
X71140658Y-51347000D01*
X74609000Y-51347000D01*
X74609000Y-51527223D01*
X74614596Y-51555355D01*
X74617407Y-51583896D01*
X74625733Y-51611343D01*
X74631328Y-51639471D01*
X74642302Y-51665966D01*
X74650629Y-51693415D01*
X74664149Y-51718709D01*
X74675125Y-51745207D01*
X74691063Y-51769060D01*
X74704580Y-51794348D01*
X74722769Y-51816512D01*
X74738708Y-51840366D01*
X74758993Y-51860651D01*
X74777184Y-51882817D01*
X74799350Y-51901008D01*
X74819634Y-51921292D01*
X74843487Y-51937230D01*
X74865653Y-51955421D01*
X74890942Y-51968938D01*
X74914793Y-51984875D01*
X74941293Y-51995852D01*
X74966586Y-52009371D01*
X74994031Y-52017696D01*
X75020529Y-52028672D01*
X75048660Y-52034268D01*
X75076105Y-52042593D01*
X75104644Y-52045404D01*
X75132777Y-52051000D01*
X75161460Y-52051000D01*
X75190000Y-52053811D01*
X75218540Y-52051000D01*
X75247223Y-52051000D01*
X75275355Y-52045404D01*
X75303896Y-52042593D01*
X75331343Y-52034267D01*
X75359471Y-52028672D01*
X75385966Y-52017698D01*
X75413415Y-52009371D01*
X75438711Y-51995850D01*
X75465207Y-51984875D01*
X75489054Y-51968941D01*
X75514348Y-51955421D01*
X75536518Y-51937227D01*
X75560366Y-51921292D01*
X75580645Y-51901013D01*
X75602817Y-51882817D01*
X75621013Y-51860645D01*
X75641292Y-51840366D01*
X75657227Y-51816518D01*
X75675421Y-51794348D01*
X75688941Y-51769054D01*
X75704875Y-51745207D01*
X75715850Y-51718711D01*
X75729371Y-51693415D01*
X75737697Y-51665966D01*
X75748672Y-51639471D01*
X75754268Y-51611341D01*
X75762593Y-51583895D01*
X75765404Y-51555356D01*
X75771000Y-51527223D01*
X75771000Y-51372657D01*
X75796657Y-51347000D01*
X78509000Y-51347000D01*
X78509000Y-51527223D01*
X78514596Y-51555355D01*
X78517407Y-51583896D01*
X78525733Y-51611343D01*
X78531328Y-51639471D01*
X78542302Y-51665966D01*
X78550629Y-51693415D01*
X78564149Y-51718709D01*
X78575125Y-51745207D01*
X78591063Y-51769060D01*
X78604580Y-51794348D01*
X78622769Y-51816512D01*
X78638708Y-51840366D01*
X78658993Y-51860651D01*
X78677184Y-51882817D01*
X78699350Y-51901008D01*
X78719634Y-51921292D01*
X78743487Y-51937230D01*
X78765653Y-51955421D01*
X78790942Y-51968938D01*
X78814793Y-51984875D01*
X78841293Y-51995852D01*
X78866586Y-52009371D01*
X78894031Y-52017696D01*
X78920529Y-52028672D01*
X78948660Y-52034268D01*
X78976105Y-52042593D01*
X79004644Y-52045404D01*
X79032777Y-52051000D01*
X79061460Y-52051000D01*
X79090000Y-52053811D01*
X79118540Y-52051000D01*
X79147223Y-52051000D01*
X79175355Y-52045404D01*
X79203896Y-52042593D01*
X79231343Y-52034267D01*
X79259471Y-52028672D01*
X79285966Y-52017698D01*
X79313415Y-52009371D01*
X79338711Y-51995850D01*
X79365207Y-51984875D01*
X79389054Y-51968941D01*
X79414348Y-51955421D01*
X79436518Y-51937227D01*
X79460366Y-51921292D01*
X79480645Y-51901013D01*
X79502817Y-51882817D01*
X79521013Y-51860645D01*
X79541292Y-51840366D01*
X79557227Y-51816518D01*
X79575421Y-51794348D01*
X79588941Y-51769054D01*
X79604875Y-51745207D01*
X79615850Y-51718711D01*
X79629371Y-51693415D01*
X79637698Y-51665966D01*
X79648672Y-51639471D01*
X79654267Y-51611343D01*
X79662593Y-51583896D01*
X79665404Y-51555355D01*
X79671000Y-51527223D01*
X79671000Y-51347000D01*
X80199000Y-51347000D01*
X80199000Y-51527223D01*
X80204596Y-51555355D01*
X80207407Y-51583896D01*
X80215733Y-51611343D01*
X80221328Y-51639471D01*
X80232302Y-51665966D01*
X80240629Y-51693415D01*
X80254149Y-51718709D01*
X80265125Y-51745207D01*
X80281063Y-51769060D01*
X80294580Y-51794348D01*
X80312769Y-51816512D01*
X80328708Y-51840366D01*
X80348993Y-51860651D01*
X80367184Y-51882817D01*
X80389350Y-51901008D01*
X80409634Y-51921292D01*
X80433487Y-51937230D01*
X80455653Y-51955421D01*
X80480942Y-51968938D01*
X80504793Y-51984875D01*
X80531293Y-51995852D01*
X80556586Y-52009371D01*
X80584031Y-52017696D01*
X80610529Y-52028672D01*
X80638660Y-52034268D01*
X80666105Y-52042593D01*
X80694644Y-52045404D01*
X80722777Y-52051000D01*
X80751460Y-52051000D01*
X80780000Y-52053811D01*
X80808540Y-52051000D01*
X80837223Y-52051000D01*
X80865355Y-52045404D01*
X80893896Y-52042593D01*
X80921343Y-52034267D01*
X80949471Y-52028672D01*
X80975966Y-52017698D01*
X81003415Y-52009371D01*
X81028711Y-51995850D01*
X81055207Y-51984875D01*
X81079054Y-51968941D01*
X81104348Y-51955421D01*
X81126518Y-51937227D01*
X81150366Y-51921292D01*
X81170645Y-51901013D01*
X81192817Y-51882817D01*
X81211013Y-51860645D01*
X81231292Y-51840366D01*
X81247227Y-51816518D01*
X81265421Y-51794348D01*
X81278941Y-51769054D01*
X81294875Y-51745207D01*
X81305850Y-51718711D01*
X81319371Y-51693415D01*
X81327698Y-51665966D01*
X81338672Y-51639471D01*
X81344267Y-51611343D01*
X81352593Y-51583896D01*
X81355404Y-51555355D01*
X81361000Y-51527223D01*
X81361000Y-51347000D01*
X81471460Y-51347000D01*
X81500000Y-51349811D01*
X81528540Y-51347000D01*
X84053343Y-51347000D01*
X84099000Y-51392657D01*
X84099000Y-52800601D01*
X84052471Y-52781328D01*
X83940223Y-52759000D01*
X83825777Y-52759000D01*
X83713529Y-52781328D01*
X83607793Y-52825125D01*
X83557095Y-52859000D01*
X79573905Y-52859000D01*
X79523207Y-52825125D01*
X79417471Y-52781328D01*
X79305223Y-52759000D01*
X79190777Y-52759000D01*
X79078529Y-52781328D01*
X78972793Y-52825125D01*
X78877634Y-52888708D01*
X78796708Y-52969634D01*
X78733125Y-53064793D01*
X78689328Y-53170529D01*
X78667000Y-53282777D01*
X78667000Y-53397223D01*
X78689328Y-53509471D01*
X78733125Y-53615207D01*
X78796708Y-53710366D01*
X78877634Y-53791292D01*
X78972793Y-53854875D01*
X79078529Y-53898672D01*
X79177618Y-53918382D01*
X79197328Y-54017471D01*
X79241125Y-54123207D01*
X79304708Y-54218366D01*
X79385634Y-54299292D01*
X79480793Y-54362875D01*
X79586529Y-54406672D01*
X79698777Y-54429000D01*
X79813223Y-54429000D01*
X79925471Y-54406672D01*
X80031207Y-54362875D01*
X80081905Y-54329000D01*
X80446095Y-54329000D01*
X80496793Y-54362875D01*
X80602529Y-54406672D01*
X80714777Y-54429000D01*
X80829223Y-54429000D01*
X80941471Y-54406672D01*
X81047207Y-54362875D01*
X81142366Y-54299292D01*
X81223292Y-54218366D01*
X81286875Y-54123207D01*
X81330672Y-54017471D01*
X81353000Y-53905223D01*
X81353000Y-53821000D01*
X83557095Y-53821000D01*
X83607793Y-53854875D01*
X83713529Y-53898672D01*
X83825777Y-53921000D01*
X83940223Y-53921000D01*
X84052471Y-53898672D01*
X84099000Y-53879399D01*
X84099001Y-61410450D01*
X84096189Y-61439000D01*
X84107407Y-61552895D01*
X84140629Y-61662414D01*
X84194579Y-61763347D01*
X84197662Y-61767104D01*
X84267184Y-61851817D01*
X84289355Y-61870012D01*
X84690987Y-62271645D01*
X84709183Y-62293817D01*
X84797652Y-62366421D01*
X84898585Y-62420371D01*
X85008104Y-62453593D01*
X85093460Y-62462000D01*
X85093462Y-62462000D01*
X85121999Y-62464811D01*
X85150536Y-62462000D01*
X88967276Y-62462000D01*
X89046626Y-62653568D01*
X89225119Y-62920702D01*
X89452298Y-63147881D01*
X89639552Y-63273000D01*
X81479237Y-63273000D01*
X81342568Y-63136331D01*
X81330672Y-63076529D01*
X81324475Y-63061568D01*
X81419472Y-63042672D01*
X81525208Y-62998875D01*
X81620367Y-62935292D01*
X81701293Y-62854366D01*
X81764876Y-62759207D01*
X81808673Y-62653471D01*
X81831001Y-62541223D01*
X81831001Y-62426777D01*
X81808673Y-62314529D01*
X81764876Y-62208793D01*
X81701293Y-62113634D01*
X81620367Y-62032708D01*
X81525208Y-61969125D01*
X81419472Y-61925328D01*
X81307224Y-61903000D01*
X81192778Y-61903000D01*
X81080530Y-61925328D01*
X80974794Y-61969125D01*
X80924096Y-62003000D01*
X49021000Y-62003000D01*
X49021000Y-32383188D01*
X49123097Y-32340898D01*
X49209001Y-32283499D01*
X49209002Y-36518452D01*
X49206190Y-36547002D01*
X49217408Y-36660897D01*
X49250630Y-36770416D01*
X49304580Y-36871349D01*
X49304581Y-36871350D01*
X49377185Y-36959819D01*
X49399357Y-36978015D01*
X49491999Y-37070657D01*
X49492000Y-55632449D01*
X49489188Y-55660999D01*
X49500406Y-55774894D01*
X49533628Y-55884413D01*
X49569339Y-55951223D01*
X49587579Y-55985347D01*
X49660183Y-56073816D01*
X49682355Y-56092012D01*
X49874983Y-56284640D01*
X49893183Y-56306817D01*
X49981652Y-56379421D01*
X50082585Y-56433371D01*
X50192104Y-56466593D01*
X50305999Y-56477811D01*
X50334539Y-56475000D01*
X61931223Y-56475000D01*
X61959355Y-56469404D01*
X61987896Y-56466593D01*
X62015343Y-56458267D01*
X62043471Y-56452672D01*
X62069966Y-56441698D01*
X62097415Y-56433371D01*
X62122711Y-56419850D01*
X62149207Y-56408875D01*
X62173054Y-56392941D01*
X62198348Y-56379421D01*
X62220518Y-56361227D01*
X62244366Y-56345292D01*
X62264645Y-56325013D01*
X62286817Y-56306817D01*
X62305013Y-56284645D01*
X62325292Y-56264366D01*
X62341227Y-56240518D01*
X62359421Y-56218348D01*
X62372941Y-56193054D01*
X62388875Y-56169207D01*
X62399850Y-56142711D01*
X62413371Y-56117415D01*
X62421698Y-56089966D01*
X62432672Y-56063471D01*
X62438267Y-56035343D01*
X62446593Y-56007896D01*
X62449404Y-55979355D01*
X62455000Y-55951223D01*
X62455000Y-55922540D01*
X62457811Y-55894000D01*
X62455000Y-55865460D01*
X62455000Y-55836777D01*
X62449404Y-55808645D01*
X62446593Y-55780104D01*
X62438267Y-55752657D01*
X62432672Y-55724529D01*
X62421698Y-55698034D01*
X62413371Y-55670585D01*
X62399850Y-55645289D01*
X62388875Y-55618793D01*
X62372941Y-55594946D01*
X62359421Y-55569652D01*
X62341227Y-55547482D01*
X62325292Y-55523634D01*
X62305010Y-55503352D01*
X62286817Y-55481183D01*
X62264645Y-55462987D01*
X62244366Y-55442708D01*
X62220518Y-55426773D01*
X62198348Y-55408579D01*
X62173054Y-55395059D01*
X62149207Y-55379125D01*
X62122711Y-55368150D01*
X62097415Y-55354629D01*
X62069966Y-55346302D01*
X62043471Y-55335328D01*
X62015343Y-55329733D01*
X61987896Y-55321407D01*
X61959355Y-55318596D01*
X61931223Y-55313000D01*
X50653999Y-55313000D01*
X50653999Y-40398000D01*
X72019157Y-40398000D01*
X72019157Y-41898000D01*
X72026513Y-41972689D01*
X72048299Y-42044508D01*
X72083678Y-42110696D01*
X72131289Y-42168711D01*
X72189304Y-42216322D01*
X72255492Y-42251701D01*
X72327311Y-42273487D01*
X72402000Y-42280843D01*
X73902000Y-42280843D01*
X73976689Y-42273487D01*
X74048508Y-42251701D01*
X74114696Y-42216322D01*
X74172711Y-42168711D01*
X74220322Y-42110696D01*
X74255701Y-42044508D01*
X74277487Y-41972689D01*
X74284843Y-41898000D01*
X74284843Y-41629000D01*
X74969001Y-41629000D01*
X74969000Y-42074095D01*
X74935125Y-42124793D01*
X74891328Y-42230529D01*
X74869000Y-42342777D01*
X74869000Y-42457223D01*
X74891328Y-42569471D01*
X74935125Y-42675207D01*
X74964386Y-42719000D01*
X74284843Y-42719000D01*
X74284843Y-42684000D01*
X74277487Y-42609311D01*
X74255701Y-42537492D01*
X74220322Y-42471304D01*
X74172711Y-42413289D01*
X74114696Y-42365678D01*
X74048508Y-42330299D01*
X73976689Y-42308513D01*
X73902000Y-42301157D01*
X72402000Y-42301157D01*
X72327311Y-42308513D01*
X72255492Y-42330299D01*
X72189304Y-42365678D01*
X72131289Y-42413289D01*
X72083678Y-42471304D01*
X72048299Y-42537492D01*
X72026513Y-42609311D01*
X72019157Y-42684000D01*
X72019157Y-44184000D01*
X72026513Y-44258689D01*
X72048299Y-44330508D01*
X72083678Y-44396696D01*
X72131289Y-44454711D01*
X72189304Y-44502322D01*
X72255492Y-44537701D01*
X72327311Y-44559487D01*
X72402000Y-44566843D01*
X73902000Y-44566843D01*
X73976689Y-44559487D01*
X74048508Y-44537701D01*
X74114696Y-44502322D01*
X74172711Y-44454711D01*
X74220322Y-44396696D01*
X74255701Y-44330508D01*
X74277487Y-44258689D01*
X74284843Y-44184000D01*
X74284843Y-43681000D01*
X74964386Y-43681000D01*
X74935125Y-43724793D01*
X74891328Y-43830529D01*
X74869000Y-43942777D01*
X74869000Y-44057223D01*
X74891328Y-44169471D01*
X74935125Y-44275207D01*
X74969000Y-44325905D01*
X74969001Y-45239000D01*
X74284843Y-45239000D01*
X74284843Y-44970000D01*
X74277487Y-44895311D01*
X74255701Y-44823492D01*
X74220322Y-44757304D01*
X74172711Y-44699289D01*
X74114696Y-44651678D01*
X74048508Y-44616299D01*
X73976689Y-44594513D01*
X73902000Y-44587157D01*
X72402000Y-44587157D01*
X72327311Y-44594513D01*
X72255492Y-44616299D01*
X72189304Y-44651678D01*
X72131289Y-44699289D01*
X72083678Y-44757304D01*
X72048299Y-44823492D01*
X72026513Y-44895311D01*
X72019157Y-44970000D01*
X72019157Y-46470000D01*
X72026513Y-46544689D01*
X72048299Y-46616508D01*
X72083678Y-46682696D01*
X72131289Y-46740711D01*
X72189304Y-46788322D01*
X72255492Y-46823701D01*
X72327311Y-46845487D01*
X72402000Y-46852843D01*
X73902000Y-46852843D01*
X73976689Y-46845487D01*
X74048508Y-46823701D01*
X74114696Y-46788322D01*
X74172711Y-46740711D01*
X74220322Y-46682696D01*
X74255701Y-46616508D01*
X74277487Y-46544689D01*
X74284843Y-46470000D01*
X74284843Y-46201000D01*
X75160374Y-46201000D01*
X75184000Y-46203327D01*
X75207626Y-46201000D01*
X75278292Y-46194040D01*
X75368961Y-46166536D01*
X75452522Y-46121872D01*
X75525764Y-46061764D01*
X75540830Y-46043406D01*
X75773406Y-45810830D01*
X75791764Y-45795764D01*
X75851872Y-45722522D01*
X75896536Y-45638961D01*
X75924040Y-45548292D01*
X75931000Y-45477626D01*
X75933327Y-45454000D01*
X75931000Y-45430374D01*
X75931000Y-44325905D01*
X75964875Y-44275207D01*
X76008672Y-44169471D01*
X76031000Y-44057223D01*
X76031000Y-43942777D01*
X76008672Y-43830529D01*
X75964875Y-43724793D01*
X75901292Y-43629634D01*
X75871658Y-43600000D01*
X75901292Y-43570366D01*
X75964875Y-43475207D01*
X76008672Y-43369471D01*
X76031000Y-43257223D01*
X76031000Y-43142777D01*
X76008672Y-43030529D01*
X75964875Y-42924793D01*
X75901292Y-42829634D01*
X75871658Y-42800000D01*
X75901292Y-42770366D01*
X75964875Y-42675207D01*
X76008672Y-42569471D01*
X76031000Y-42457223D01*
X76031000Y-42342777D01*
X76008672Y-42230529D01*
X75964875Y-42124793D01*
X75931000Y-42074095D01*
X75931000Y-41437626D01*
X75933327Y-41414000D01*
X75924040Y-41319707D01*
X75900556Y-41242292D01*
X75896536Y-41229039D01*
X75851872Y-41145478D01*
X75791764Y-41072236D01*
X75773406Y-41057170D01*
X75540830Y-40824594D01*
X75525764Y-40806236D01*
X75452522Y-40746128D01*
X75368961Y-40701464D01*
X75278292Y-40673960D01*
X75207626Y-40667000D01*
X75184000Y-40664673D01*
X75160374Y-40667000D01*
X74284843Y-40667000D01*
X74284843Y-40398000D01*
X74277487Y-40323311D01*
X74255701Y-40251492D01*
X74220322Y-40185304D01*
X74172711Y-40127289D01*
X74114696Y-40079678D01*
X74048508Y-40044299D01*
X73976689Y-40022513D01*
X73902000Y-40015157D01*
X72402000Y-40015157D01*
X72327311Y-40022513D01*
X72255492Y-40044299D01*
X72189304Y-40079678D01*
X72131289Y-40127289D01*
X72083678Y-40185304D01*
X72048299Y-40251492D01*
X72026513Y-40323311D01*
X72019157Y-40398000D01*
X50653999Y-40398000D01*
X50653999Y-36858540D01*
X50656810Y-36830000D01*
X50645592Y-36716104D01*
X50612370Y-36606585D01*
X50589676Y-36564128D01*
X50558420Y-36505652D01*
X50485816Y-36417183D01*
X50463640Y-36398984D01*
X50371001Y-36306345D01*
X50371001Y-32256773D01*
X50496903Y-32340898D01*
X50720931Y-32433693D01*
X50958757Y-32481000D01*
X51201243Y-32481000D01*
X51439069Y-32433693D01*
X51663097Y-32340898D01*
X51864717Y-32206180D01*
X52036180Y-32034717D01*
X52170898Y-31833097D01*
X52263693Y-31609069D01*
X52311000Y-31371243D01*
X52311000Y-31128757D01*
X52263693Y-30890931D01*
X52170898Y-30666903D01*
X52036180Y-30465283D01*
X51864717Y-30293820D01*
X51663097Y-30159102D01*
X51439069Y-30066307D01*
X51201243Y-30019000D01*
X50958757Y-30019000D01*
X50720931Y-30066307D01*
X50496903Y-30159102D01*
X50371001Y-30243227D01*
X50371001Y-30240656D01*
X50718833Y-29892824D01*
X50720931Y-29893693D01*
X50958757Y-29941000D01*
X51201243Y-29941000D01*
X51439069Y-29893693D01*
X51663097Y-29800898D01*
X51864717Y-29666180D01*
X52036180Y-29494717D01*
X52170898Y-29293097D01*
X52263693Y-29069069D01*
X52311000Y-28831243D01*
X52311000Y-28588757D01*
X52263693Y-28350931D01*
X52170898Y-28126903D01*
X52036180Y-27925283D01*
X51864717Y-27753820D01*
X51663097Y-27619102D01*
X51439069Y-27526307D01*
X51201243Y-27479000D01*
X50958757Y-27479000D01*
X50720931Y-27526307D01*
X50496903Y-27619102D01*
X50295283Y-27753820D01*
X50123820Y-27925283D01*
X49989102Y-28126903D01*
X49896307Y-28350931D01*
X49849000Y-28588757D01*
X49849000Y-28831243D01*
X49896307Y-29069069D01*
X49897176Y-29071167D01*
X49541596Y-29426746D01*
X49630898Y-29293097D01*
X49723693Y-29069069D01*
X49771000Y-28831243D01*
X49771000Y-28588757D01*
X49723693Y-28350931D01*
X49630898Y-28126903D01*
X49496180Y-27925283D01*
X49324717Y-27753820D01*
X49123097Y-27619102D01*
X48899069Y-27526307D01*
X48661243Y-27479000D01*
X48418757Y-27479000D01*
X48180931Y-27526307D01*
X47956903Y-27619102D01*
X47755283Y-27753820D01*
X47583820Y-27925283D01*
X47449102Y-28126903D01*
X47356307Y-28350931D01*
X47309000Y-28588757D01*
X47309000Y-28831243D01*
X47356307Y-29069069D01*
X47449102Y-29293097D01*
X47583820Y-29494717D01*
X47755283Y-29666180D01*
X47956903Y-29800898D01*
X48180931Y-29893693D01*
X48418757Y-29941000D01*
X48661243Y-29941000D01*
X48899069Y-29893693D01*
X49123097Y-29800898D01*
X49301268Y-29681848D01*
X49250630Y-29776585D01*
X49217408Y-29886104D01*
X49206190Y-29999999D01*
X49209001Y-30028539D01*
X49209001Y-30216501D01*
X49123097Y-30159102D01*
X48899069Y-30066307D01*
X48661243Y-30019000D01*
X48418757Y-30019000D01*
X48180931Y-30066307D01*
X47956903Y-30159102D01*
X47755283Y-30293820D01*
X47583820Y-30465283D01*
X47449102Y-30666903D01*
X47356307Y-30890931D01*
X47309000Y-31128757D01*
X47309000Y-31371243D01*
X47356307Y-31609069D01*
X47449102Y-31833097D01*
X47583820Y-32034717D01*
X47755283Y-32206180D01*
X47956903Y-32340898D01*
X48059001Y-32383188D01*
X48059000Y-37663623D01*
X48059001Y-37663633D01*
X48059000Y-62206374D01*
X48056673Y-62230000D01*
X48065960Y-62324291D01*
X48093464Y-62414960D01*
X48138128Y-62498522D01*
X48198236Y-62571764D01*
X48216594Y-62586830D01*
X48437170Y-62807406D01*
X48452236Y-62825764D01*
X48525478Y-62885872D01*
X48609039Y-62930536D01*
X48699708Y-62958040D01*
X48770374Y-62965000D01*
X48770375Y-62965000D01*
X48793999Y-62967327D01*
X48817623Y-62965000D01*
X80260996Y-62965000D01*
X80257125Y-62970793D01*
X80213328Y-63076529D01*
X80191000Y-63188777D01*
X80191000Y-63303223D01*
X80213328Y-63415471D01*
X80257125Y-63521207D01*
X80279037Y-63554000D01*
X80206777Y-63554000D01*
X80094529Y-63576328D01*
X79988793Y-63620125D01*
X79893634Y-63683708D01*
X79812708Y-63764634D01*
X79749125Y-63859793D01*
X79705328Y-63965529D01*
X79683000Y-64077777D01*
X79683000Y-64192223D01*
X79705328Y-64304471D01*
X79749125Y-64410207D01*
X79812708Y-64505366D01*
X79893634Y-64586292D01*
X79988793Y-64649875D01*
X80094529Y-64693672D01*
X80158294Y-64706356D01*
X80195477Y-64736871D01*
X80279038Y-64781535D01*
X80369707Y-64809039D01*
X80440373Y-64815999D01*
X80440374Y-64815999D01*
X80463998Y-64818326D01*
X80487622Y-64815999D01*
X92359375Y-64815999D01*
X92383001Y-64818326D01*
X92406627Y-64815999D01*
X92477293Y-64809039D01*
X92567962Y-64781535D01*
X92590122Y-64769690D01*
X92585538Y-64816440D01*
X92566244Y-64880346D01*
X92534905Y-64939287D01*
X92492713Y-64991021D01*
X92441272Y-65033576D01*
X92382550Y-65065326D01*
X92318781Y-65085066D01*
X92233783Y-65094000D01*
X44769855Y-65094000D01*
X44683560Y-65085538D01*
X44619654Y-65066244D01*
X44560713Y-65034905D01*
X44508979Y-64992713D01*
X44466424Y-64941272D01*
X44434674Y-64882550D01*
X44414934Y-64818781D01*
X44406000Y-64733783D01*
X44406000Y-30400000D01*
X44767157Y-30400000D01*
X44767157Y-32100000D01*
X44774513Y-32174689D01*
X44796299Y-32246508D01*
X44831678Y-32312696D01*
X44879289Y-32370711D01*
X44937304Y-32418322D01*
X45003492Y-32453701D01*
X45075311Y-32475487D01*
X45150000Y-32482843D01*
X46850000Y-32482843D01*
X46924689Y-32475487D01*
X46996508Y-32453701D01*
X47062696Y-32418322D01*
X47120711Y-32370711D01*
X47168322Y-32312696D01*
X47203701Y-32246508D01*
X47225487Y-32174689D01*
X47232843Y-32100000D01*
X47232843Y-30400000D01*
X47225487Y-30325311D01*
X47203701Y-30253492D01*
X47168322Y-30187304D01*
X47120711Y-30129289D01*
X47062696Y-30081678D01*
X46996508Y-30046299D01*
X46924689Y-30024513D01*
X46850000Y-30017157D01*
X45150000Y-30017157D01*
X45075311Y-30024513D01*
X45003492Y-30046299D01*
X44937304Y-30081678D01*
X44879289Y-30129289D01*
X44831678Y-30187304D01*
X44796299Y-30253492D01*
X44774513Y-30325311D01*
X44767157Y-30400000D01*
X44406000Y-30400000D01*
X44406000Y-28588757D01*
X44769000Y-28588757D01*
X44769000Y-28831243D01*
X44816307Y-29069069D01*
X44909102Y-29293097D01*
X45043820Y-29494717D01*
X45215283Y-29666180D01*
X45416903Y-29800898D01*
X45640931Y-29893693D01*
X45878757Y-29941000D01*
X46121243Y-29941000D01*
X46359069Y-29893693D01*
X46583097Y-29800898D01*
X46784717Y-29666180D01*
X46956180Y-29494717D01*
X47090898Y-29293097D01*
X47183693Y-29069069D01*
X47231000Y-28831243D01*
X47231000Y-28588757D01*
X47183693Y-28350931D01*
X47090898Y-28126903D01*
X46956180Y-27925283D01*
X46784717Y-27753820D01*
X46583097Y-27619102D01*
X46359069Y-27526307D01*
X46121243Y-27479000D01*
X45878757Y-27479000D01*
X45640931Y-27526307D01*
X45416903Y-27619102D01*
X45215283Y-27753820D01*
X45043820Y-27925283D01*
X44909102Y-28126903D01*
X44816307Y-28350931D01*
X44769000Y-28588757D01*
X44406000Y-28588757D01*
X44406000Y-27269855D01*
X44414461Y-27183561D01*
X44433756Y-27119652D01*
X44465096Y-27060711D01*
X44507287Y-27008979D01*
X44558723Y-26966427D01*
X44617451Y-26934674D01*
X44681219Y-26914934D01*
X44766217Y-26906000D01*
X84207763Y-26906000D01*
X83545167Y-27568597D01*
G37*
%TD.AperFunction*%
D17*
X85329478Y-52471872D02*
X85413039Y-52516536D01*
X85503708Y-52544040D01*
X85574374Y-52551000D01*
X85574375Y-52551000D01*
X85597999Y-52553327D01*
X85621623Y-52551000D01*
X85735157Y-52551000D01*
X85735157Y-52820000D01*
X85742513Y-52894689D01*
X85764299Y-52966508D01*
X85799678Y-53032696D01*
X85847289Y-53090711D01*
X85905304Y-53138322D01*
X85971492Y-53173701D01*
X86043311Y-53195487D01*
X86118000Y-53202843D01*
X87618000Y-53202843D01*
X87637991Y-53200874D01*
X87637991Y-53551354D01*
X87635663Y-53574990D01*
X87644950Y-53669282D01*
X87660445Y-53720360D01*
X87672455Y-53759951D01*
X87717119Y-53843512D01*
X87777227Y-53916754D01*
X87795579Y-53931815D01*
X88068170Y-54204406D01*
X88083236Y-54222764D01*
X88156478Y-54282872D01*
X88240039Y-54327536D01*
X88330708Y-54355040D01*
X88401374Y-54362000D01*
X88401383Y-54362000D01*
X88424999Y-54364326D01*
X88448615Y-54362000D01*
X88925855Y-54362000D01*
X89046626Y-54653568D01*
X89225119Y-54920702D01*
X89452298Y-55147881D01*
X89719432Y-55326374D01*
X90016255Y-55449322D01*
X90331360Y-55512000D01*
X90652640Y-55512000D01*
X90967745Y-55449322D01*
X91264568Y-55326374D01*
X91531702Y-55147881D01*
X91721001Y-54958582D01*
X91721001Y-56803418D01*
X91531702Y-56614119D01*
X91264568Y-56435626D01*
X90967745Y-56312678D01*
X90652640Y-56250000D01*
X90331360Y-56250000D01*
X90016255Y-56312678D01*
X89719432Y-56435626D01*
X89452298Y-56614119D01*
X89225119Y-56841298D01*
X89046626Y-57108432D01*
X88923678Y-57405255D01*
X88861000Y-57720360D01*
X88861000Y-58041640D01*
X88923678Y-58356745D01*
X89046626Y-58653568D01*
X89225119Y-58920702D01*
X89452298Y-59147881D01*
X89719432Y-59326374D01*
X90016255Y-59449322D01*
X90331360Y-59512000D01*
X90652640Y-59512000D01*
X90967745Y-59449322D01*
X91264568Y-59326374D01*
X91531702Y-59147881D01*
X91721001Y-58958582D01*
X91721001Y-60803418D01*
X91531702Y-60614119D01*
X91264568Y-60435626D01*
X90967745Y-60312678D01*
X90652640Y-60250000D01*
X90331360Y-60250000D01*
X90016255Y-60312678D01*
X89719432Y-60435626D01*
X89452298Y-60614119D01*
X89225119Y-60841298D01*
X89046626Y-61108432D01*
X88967276Y-61300000D01*
X85362658Y-61300000D01*
X85261000Y-61198343D01*
X85261000Y-52415674D01*
X85329478Y-52471872D01*
%TA.AperFunction,Conductor*%
D18*
G36*
X85329478Y-52471872D02*
G01*
X85413039Y-52516536D01*
X85503708Y-52544040D01*
X85574374Y-52551000D01*
X85574375Y-52551000D01*
X85597999Y-52553327D01*
X85621623Y-52551000D01*
X85735157Y-52551000D01*
X85735157Y-52820000D01*
X85742513Y-52894689D01*
X85764299Y-52966508D01*
X85799678Y-53032696D01*
X85847289Y-53090711D01*
X85905304Y-53138322D01*
X85971492Y-53173701D01*
X86043311Y-53195487D01*
X86118000Y-53202843D01*
X87618000Y-53202843D01*
X87637991Y-53200874D01*
X87637991Y-53551354D01*
X87635663Y-53574990D01*
X87644950Y-53669282D01*
X87660445Y-53720360D01*
X87672455Y-53759951D01*
X87717119Y-53843512D01*
X87777227Y-53916754D01*
X87795579Y-53931815D01*
X88068170Y-54204406D01*
X88083236Y-54222764D01*
X88156478Y-54282872D01*
X88240039Y-54327536D01*
X88330708Y-54355040D01*
X88401374Y-54362000D01*
X88401383Y-54362000D01*
X88424999Y-54364326D01*
X88448615Y-54362000D01*
X88925855Y-54362000D01*
X89046626Y-54653568D01*
X89225119Y-54920702D01*
X89452298Y-55147881D01*
X89719432Y-55326374D01*
X90016255Y-55449322D01*
X90331360Y-55512000D01*
X90652640Y-55512000D01*
X90967745Y-55449322D01*
X91264568Y-55326374D01*
X91531702Y-55147881D01*
X91721001Y-54958582D01*
X91721001Y-56803418D01*
X91531702Y-56614119D01*
X91264568Y-56435626D01*
X90967745Y-56312678D01*
X90652640Y-56250000D01*
X90331360Y-56250000D01*
X90016255Y-56312678D01*
X89719432Y-56435626D01*
X89452298Y-56614119D01*
X89225119Y-56841298D01*
X89046626Y-57108432D01*
X88923678Y-57405255D01*
X88861000Y-57720360D01*
X88861000Y-58041640D01*
X88923678Y-58356745D01*
X89046626Y-58653568D01*
X89225119Y-58920702D01*
X89452298Y-59147881D01*
X89719432Y-59326374D01*
X90016255Y-59449322D01*
X90331360Y-59512000D01*
X90652640Y-59512000D01*
X90967745Y-59449322D01*
X91264568Y-59326374D01*
X91531702Y-59147881D01*
X91721001Y-58958582D01*
X91721001Y-60803418D01*
X91531702Y-60614119D01*
X91264568Y-60435626D01*
X90967745Y-60312678D01*
X90652640Y-60250000D01*
X90331360Y-60250000D01*
X90016255Y-60312678D01*
X89719432Y-60435626D01*
X89452298Y-60614119D01*
X89225119Y-60841298D01*
X89046626Y-61108432D01*
X88967276Y-61300000D01*
X85362658Y-61300000D01*
X85261000Y-61198343D01*
X85261000Y-52415674D01*
X85329478Y-52471872D01*
G37*
%TD.AperFunction*%
D17*
X88621203Y-50346696D02*
X88648707Y-50355040D01*
X88743000Y-50364327D01*
X88766626Y-50362000D01*
X88925855Y-50362000D01*
X89046626Y-50653568D01*
X89225119Y-50920702D01*
X89452298Y-51147881D01*
X89719432Y-51326374D01*
X90016255Y-51449322D01*
X90331360Y-51512000D01*
X90652640Y-51512000D01*
X90967745Y-51449322D01*
X91264568Y-51326374D01*
X91531702Y-51147881D01*
X91721001Y-50958582D01*
X91721001Y-52803418D01*
X91531702Y-52614119D01*
X91264568Y-52435626D01*
X90967745Y-52312678D01*
X90652640Y-52250000D01*
X90331360Y-52250000D01*
X90016255Y-52312678D01*
X89719432Y-52435626D01*
X89452298Y-52614119D01*
X89225119Y-52841298D01*
X89046626Y-53108432D01*
X88925855Y-53400000D01*
X88624236Y-53400000D01*
X88599990Y-53375754D01*
X88599990Y-50340262D01*
X88621203Y-50346696D01*
%TA.AperFunction,Conductor*%
D18*
G36*
X88621203Y-50346696D02*
G01*
X88648707Y-50355040D01*
X88743000Y-50364327D01*
X88766626Y-50362000D01*
X88925855Y-50362000D01*
X89046626Y-50653568D01*
X89225119Y-50920702D01*
X89452298Y-51147881D01*
X89719432Y-51326374D01*
X90016255Y-51449322D01*
X90331360Y-51512000D01*
X90652640Y-51512000D01*
X90967745Y-51449322D01*
X91264568Y-51326374D01*
X91531702Y-51147881D01*
X91721001Y-50958582D01*
X91721001Y-52803418D01*
X91531702Y-52614119D01*
X91264568Y-52435626D01*
X90967745Y-52312678D01*
X90652640Y-52250000D01*
X90331360Y-52250000D01*
X90016255Y-52312678D01*
X89719432Y-52435626D01*
X89452298Y-52614119D01*
X89225119Y-52841298D01*
X89046626Y-53108432D01*
X88925855Y-53400000D01*
X88624236Y-53400000D01*
X88599990Y-53375754D01*
X88599990Y-50340262D01*
X88621203Y-50346696D01*
G37*
%TD.AperFunction*%
D17*
X91721000Y-34112652D02*
X91650870Y-34042522D01*
X91558019Y-34135373D01*
X91424894Y-33880916D01*
X91114317Y-33727741D01*
X90779824Y-33638100D01*
X90434271Y-33615437D01*
X90090936Y-33660625D01*
X89763014Y-33771925D01*
X89559106Y-33880916D01*
X89425980Y-34135375D01*
X90492000Y-35201395D01*
X90506143Y-35187253D01*
X90685748Y-35366858D01*
X90671605Y-35381000D01*
X90685748Y-35395143D01*
X90506143Y-35574748D01*
X90492000Y-35560605D01*
X89425980Y-36626625D01*
X89559106Y-36881084D01*
X89869683Y-37034259D01*
X90204176Y-37123900D01*
X90549729Y-37146563D01*
X90893064Y-37101375D01*
X91220986Y-36990075D01*
X91424894Y-36881084D01*
X91558019Y-36626627D01*
X91650870Y-36719478D01*
X91721000Y-36649348D01*
X91721000Y-38303417D01*
X91531702Y-38114119D01*
X91264568Y-37935626D01*
X90967745Y-37812678D01*
X90652640Y-37750000D01*
X90331360Y-37750000D01*
X90016255Y-37812678D01*
X89719432Y-37935626D01*
X89452298Y-38114119D01*
X89225119Y-38341298D01*
X89046626Y-38608432D01*
X88923678Y-38905255D01*
X88861000Y-39220360D01*
X88861000Y-39541640D01*
X88923678Y-39856745D01*
X89046626Y-40153568D01*
X89225119Y-40420702D01*
X89452298Y-40647881D01*
X89719432Y-40826374D01*
X90016255Y-40949322D01*
X90331360Y-41012000D01*
X90652640Y-41012000D01*
X90967745Y-40949322D01*
X91264568Y-40826374D01*
X91531702Y-40647881D01*
X91721000Y-40458583D01*
X91721000Y-42303417D01*
X91531702Y-42114119D01*
X91264568Y-41935626D01*
X90967745Y-41812678D01*
X90652640Y-41750000D01*
X90331360Y-41750000D01*
X90016255Y-41812678D01*
X89719432Y-41935626D01*
X89452298Y-42114119D01*
X89225119Y-42341298D01*
X89046626Y-42608432D01*
X89000000Y-42720997D01*
X89000000Y-42695626D01*
X89002327Y-42671999D01*
X88993040Y-42577707D01*
X88967736Y-42494292D01*
X88965536Y-42487039D01*
X88920872Y-42403478D01*
X88860764Y-42330236D01*
X88842406Y-42315170D01*
X88603830Y-42076594D01*
X88588764Y-42058236D01*
X88515522Y-41998128D01*
X88431961Y-41953464D01*
X88341292Y-41925960D01*
X88270626Y-41919000D01*
X88247000Y-41916673D01*
X88223374Y-41919000D01*
X85475905Y-41919000D01*
X85425207Y-41885125D01*
X85319471Y-41841328D01*
X85207223Y-41819000D01*
X85092777Y-41819000D01*
X84980529Y-41841328D01*
X84874793Y-41885125D01*
X84779634Y-41948708D01*
X84698708Y-42029634D01*
X84635125Y-42124793D01*
X84591328Y-42230529D01*
X84569000Y-42342777D01*
X84569000Y-42457223D01*
X84591328Y-42569471D01*
X84635125Y-42675207D01*
X84698708Y-42770366D01*
X84779634Y-42851292D01*
X84874793Y-42914875D01*
X84980529Y-42958672D01*
X85092777Y-42981000D01*
X85207223Y-42981000D01*
X85319471Y-42958672D01*
X85425207Y-42914875D01*
X85475905Y-42881000D01*
X88038000Y-42881000D01*
X88038000Y-43526478D01*
X88036292Y-43525960D01*
X87965626Y-43519000D01*
X87942000Y-43516673D01*
X87918374Y-43519000D01*
X85475905Y-43519000D01*
X85425207Y-43485125D01*
X85319471Y-43441328D01*
X85207223Y-43419000D01*
X85092777Y-43419000D01*
X84980529Y-43441328D01*
X84874793Y-43485125D01*
X84779634Y-43548708D01*
X84698708Y-43629634D01*
X84635125Y-43724793D01*
X84591328Y-43830529D01*
X84569000Y-43942777D01*
X84569000Y-44057223D01*
X84591328Y-44169471D01*
X84635125Y-44275207D01*
X84698708Y-44370366D01*
X84779634Y-44451292D01*
X84874793Y-44514875D01*
X84980529Y-44558672D01*
X85092777Y-44581000D01*
X85207223Y-44581000D01*
X85319471Y-44558672D01*
X85425207Y-44514875D01*
X85475905Y-44481000D01*
X85817982Y-44481000D01*
X85799678Y-44503304D01*
X85764299Y-44569492D01*
X85742513Y-44641311D01*
X85735157Y-44716000D01*
X85735157Y-45119000D01*
X85475905Y-45119000D01*
X85425207Y-45085125D01*
X85319471Y-45041328D01*
X85207223Y-45019000D01*
X85092777Y-45019000D01*
X84980529Y-45041328D01*
X84874793Y-45085125D01*
X84779634Y-45148708D01*
X84698708Y-45229634D01*
X84635125Y-45324793D01*
X84591328Y-45430529D01*
X84569000Y-45542777D01*
X84569000Y-45657223D01*
X84591328Y-45769471D01*
X84635125Y-45875207D01*
X84698708Y-45970366D01*
X84728342Y-46000000D01*
X84698708Y-46029634D01*
X84635125Y-46124793D01*
X84591328Y-46230529D01*
X84569000Y-46342777D01*
X84569000Y-46457223D01*
X84591328Y-46569471D01*
X84635125Y-46675207D01*
X84698708Y-46770366D01*
X84728342Y-46800000D01*
X84698708Y-46829634D01*
X84635125Y-46924793D01*
X84591328Y-47030529D01*
X84569000Y-47142777D01*
X84569000Y-47257223D01*
X84591328Y-47369471D01*
X84635125Y-47475207D01*
X84698708Y-47570366D01*
X84728342Y-47600000D01*
X84698708Y-47629634D01*
X84635125Y-47724793D01*
X84591328Y-47830529D01*
X84569000Y-47942777D01*
X84569000Y-48057223D01*
X84591328Y-48169471D01*
X84635125Y-48275207D01*
X84698708Y-48370366D01*
X84779634Y-48451292D01*
X84868999Y-48511004D01*
X84869000Y-50519343D01*
X84725017Y-50375360D01*
X84706817Y-50353183D01*
X84618348Y-50280579D01*
X84517415Y-50226629D01*
X84407896Y-50193407D01*
X84322540Y-50185000D01*
X84294000Y-50182189D01*
X84265460Y-50185000D01*
X82081000Y-50185000D01*
X82081000Y-48534658D01*
X82432650Y-48183009D01*
X82454817Y-48164817D01*
X82484557Y-48128579D01*
X82527421Y-48076348D01*
X82581371Y-47975415D01*
X82614593Y-47865896D01*
X82625811Y-47752000D01*
X82623000Y-47723460D01*
X82623000Y-47035897D01*
X82634529Y-47040672D01*
X82746777Y-47063000D01*
X82758103Y-47063000D01*
X82753328Y-47074529D01*
X82731000Y-47186777D01*
X82731000Y-47301223D01*
X82753328Y-47413471D01*
X82797125Y-47519207D01*
X82860708Y-47614366D01*
X82941634Y-47695292D01*
X83036793Y-47758875D01*
X83142529Y-47802672D01*
X83254777Y-47825000D01*
X83369223Y-47825000D01*
X83481471Y-47802672D01*
X83587207Y-47758875D01*
X83682366Y-47695292D01*
X83763292Y-47614366D01*
X83826875Y-47519207D01*
X83870672Y-47413471D01*
X83893000Y-47301223D01*
X83893000Y-47186777D01*
X83870672Y-47074529D01*
X83826875Y-46968793D01*
X83793000Y-46918095D01*
X83793000Y-41347236D01*
X84001000Y-41139237D01*
X84001000Y-41205223D01*
X84023328Y-41317471D01*
X84067125Y-41423207D01*
X84130708Y-41518366D01*
X84211634Y-41599292D01*
X84306793Y-41662875D01*
X84412529Y-41706672D01*
X84524777Y-41729000D01*
X84639223Y-41729000D01*
X84751471Y-41706672D01*
X84857207Y-41662875D01*
X84907905Y-41629000D01*
X86796095Y-41629000D01*
X86846793Y-41662875D01*
X86952529Y-41706672D01*
X87064777Y-41729000D01*
X87179223Y-41729000D01*
X87291471Y-41706672D01*
X87397207Y-41662875D01*
X87492366Y-41599292D01*
X87573292Y-41518366D01*
X87636875Y-41423207D01*
X87680672Y-41317471D01*
X87703000Y-41205223D01*
X87703000Y-41090777D01*
X87680672Y-40978529D01*
X87636875Y-40872793D01*
X87609866Y-40832370D01*
X87699406Y-40742830D01*
X87717764Y-40727764D01*
X87777872Y-40654522D01*
X87822536Y-40570961D01*
X87850040Y-40480292D01*
X87857000Y-40409626D01*
X87857000Y-40409625D01*
X87859327Y-40386001D01*
X87857000Y-40362374D01*
X87857000Y-35438729D01*
X88726437Y-35438729D01*
X88771625Y-35782064D01*
X88882925Y-36109986D01*
X88991916Y-36313894D01*
X89246375Y-36447020D01*
X90312395Y-35381000D01*
X89246375Y-34314980D01*
X88991916Y-34448106D01*
X88838741Y-34758683D01*
X88749100Y-35093176D01*
X88726437Y-35438729D01*
X87857000Y-35438729D01*
X87857000Y-33501000D01*
X89130374Y-33501000D01*
X89154000Y-33503327D01*
X89177626Y-33501000D01*
X89248292Y-33494040D01*
X89338961Y-33466536D01*
X89422522Y-33421872D01*
X89495764Y-33361764D01*
X89510830Y-33343406D01*
X89731406Y-33122830D01*
X89749764Y-33107764D01*
X89809872Y-33034522D01*
X89854536Y-32950961D01*
X89882040Y-32860292D01*
X89889000Y-32789626D01*
X89889000Y-32789625D01*
X89891327Y-32766001D01*
X89889000Y-32742377D01*
X89889000Y-32175897D01*
X89919283Y-32206180D01*
X90120903Y-32340898D01*
X90344931Y-32433693D01*
X90582757Y-32481000D01*
X90825243Y-32481000D01*
X91063069Y-32433693D01*
X91287097Y-32340898D01*
X91488717Y-32206180D01*
X91660180Y-32034717D01*
X91721000Y-31943693D01*
X91721000Y-34112652D01*
%TA.AperFunction,Conductor*%
D18*
G36*
X91721000Y-34112652D02*
G01*
X91650870Y-34042522D01*
X91558019Y-34135373D01*
X91424894Y-33880916D01*
X91114317Y-33727741D01*
X90779824Y-33638100D01*
X90434271Y-33615437D01*
X90090936Y-33660625D01*
X89763014Y-33771925D01*
X89559106Y-33880916D01*
X89425980Y-34135375D01*
X90492000Y-35201395D01*
X90506143Y-35187253D01*
X90685748Y-35366858D01*
X90671605Y-35381000D01*
X90685748Y-35395143D01*
X90506143Y-35574748D01*
X90492000Y-35560605D01*
X89425980Y-36626625D01*
X89559106Y-36881084D01*
X89869683Y-37034259D01*
X90204176Y-37123900D01*
X90549729Y-37146563D01*
X90893064Y-37101375D01*
X91220986Y-36990075D01*
X91424894Y-36881084D01*
X91558019Y-36626627D01*
X91650870Y-36719478D01*
X91721000Y-36649348D01*
X91721000Y-38303417D01*
X91531702Y-38114119D01*
X91264568Y-37935626D01*
X90967745Y-37812678D01*
X90652640Y-37750000D01*
X90331360Y-37750000D01*
X90016255Y-37812678D01*
X89719432Y-37935626D01*
X89452298Y-38114119D01*
X89225119Y-38341298D01*
X89046626Y-38608432D01*
X88923678Y-38905255D01*
X88861000Y-39220360D01*
X88861000Y-39541640D01*
X88923678Y-39856745D01*
X89046626Y-40153568D01*
X89225119Y-40420702D01*
X89452298Y-40647881D01*
X89719432Y-40826374D01*
X90016255Y-40949322D01*
X90331360Y-41012000D01*
X90652640Y-41012000D01*
X90967745Y-40949322D01*
X91264568Y-40826374D01*
X91531702Y-40647881D01*
X91721000Y-40458583D01*
X91721000Y-42303417D01*
X91531702Y-42114119D01*
X91264568Y-41935626D01*
X90967745Y-41812678D01*
X90652640Y-41750000D01*
X90331360Y-41750000D01*
X90016255Y-41812678D01*
X89719432Y-41935626D01*
X89452298Y-42114119D01*
X89225119Y-42341298D01*
X89046626Y-42608432D01*
X89000000Y-42720997D01*
X89000000Y-42695626D01*
X89002327Y-42671999D01*
X88993040Y-42577707D01*
X88967736Y-42494292D01*
X88965536Y-42487039D01*
X88920872Y-42403478D01*
X88860764Y-42330236D01*
X88842406Y-42315170D01*
X88603830Y-42076594D01*
X88588764Y-42058236D01*
X88515522Y-41998128D01*
X88431961Y-41953464D01*
X88341292Y-41925960D01*
X88270626Y-41919000D01*
X88247000Y-41916673D01*
X88223374Y-41919000D01*
X85475905Y-41919000D01*
X85425207Y-41885125D01*
X85319471Y-41841328D01*
X85207223Y-41819000D01*
X85092777Y-41819000D01*
X84980529Y-41841328D01*
X84874793Y-41885125D01*
X84779634Y-41948708D01*
X84698708Y-42029634D01*
X84635125Y-42124793D01*
X84591328Y-42230529D01*
X84569000Y-42342777D01*
X84569000Y-42457223D01*
X84591328Y-42569471D01*
X84635125Y-42675207D01*
X84698708Y-42770366D01*
X84779634Y-42851292D01*
X84874793Y-42914875D01*
X84980529Y-42958672D01*
X85092777Y-42981000D01*
X85207223Y-42981000D01*
X85319471Y-42958672D01*
X85425207Y-42914875D01*
X85475905Y-42881000D01*
X88038000Y-42881000D01*
X88038000Y-43526478D01*
X88036292Y-43525960D01*
X87965626Y-43519000D01*
X87942000Y-43516673D01*
X87918374Y-43519000D01*
X85475905Y-43519000D01*
X85425207Y-43485125D01*
X85319471Y-43441328D01*
X85207223Y-43419000D01*
X85092777Y-43419000D01*
X84980529Y-43441328D01*
X84874793Y-43485125D01*
X84779634Y-43548708D01*
X84698708Y-43629634D01*
X84635125Y-43724793D01*
X84591328Y-43830529D01*
X84569000Y-43942777D01*
X84569000Y-44057223D01*
X84591328Y-44169471D01*
X84635125Y-44275207D01*
X84698708Y-44370366D01*
X84779634Y-44451292D01*
X84874793Y-44514875D01*
X84980529Y-44558672D01*
X85092777Y-44581000D01*
X85207223Y-44581000D01*
X85319471Y-44558672D01*
X85425207Y-44514875D01*
X85475905Y-44481000D01*
X85817982Y-44481000D01*
X85799678Y-44503304D01*
X85764299Y-44569492D01*
X85742513Y-44641311D01*
X85735157Y-44716000D01*
X85735157Y-45119000D01*
X85475905Y-45119000D01*
X85425207Y-45085125D01*
X85319471Y-45041328D01*
X85207223Y-45019000D01*
X85092777Y-45019000D01*
X84980529Y-45041328D01*
X84874793Y-45085125D01*
X84779634Y-45148708D01*
X84698708Y-45229634D01*
X84635125Y-45324793D01*
X84591328Y-45430529D01*
X84569000Y-45542777D01*
X84569000Y-45657223D01*
X84591328Y-45769471D01*
X84635125Y-45875207D01*
X84698708Y-45970366D01*
X84728342Y-46000000D01*
X84698708Y-46029634D01*
X84635125Y-46124793D01*
X84591328Y-46230529D01*
X84569000Y-46342777D01*
X84569000Y-46457223D01*
X84591328Y-46569471D01*
X84635125Y-46675207D01*
X84698708Y-46770366D01*
X84728342Y-46800000D01*
X84698708Y-46829634D01*
X84635125Y-46924793D01*
X84591328Y-47030529D01*
X84569000Y-47142777D01*
X84569000Y-47257223D01*
X84591328Y-47369471D01*
X84635125Y-47475207D01*
X84698708Y-47570366D01*
X84728342Y-47600000D01*
X84698708Y-47629634D01*
X84635125Y-47724793D01*
X84591328Y-47830529D01*
X84569000Y-47942777D01*
X84569000Y-48057223D01*
X84591328Y-48169471D01*
X84635125Y-48275207D01*
X84698708Y-48370366D01*
X84779634Y-48451292D01*
X84868999Y-48511004D01*
X84869000Y-50519343D01*
X84725017Y-50375360D01*
X84706817Y-50353183D01*
X84618348Y-50280579D01*
X84517415Y-50226629D01*
X84407896Y-50193407D01*
X84322540Y-50185000D01*
X84294000Y-50182189D01*
X84265460Y-50185000D01*
X82081000Y-50185000D01*
X82081000Y-48534658D01*
X82432650Y-48183009D01*
X82454817Y-48164817D01*
X82484557Y-48128579D01*
X82527421Y-48076348D01*
X82581371Y-47975415D01*
X82614593Y-47865896D01*
X82625811Y-47752000D01*
X82623000Y-47723460D01*
X82623000Y-47035897D01*
X82634529Y-47040672D01*
X82746777Y-47063000D01*
X82758103Y-47063000D01*
X82753328Y-47074529D01*
X82731000Y-47186777D01*
X82731000Y-47301223D01*
X82753328Y-47413471D01*
X82797125Y-47519207D01*
X82860708Y-47614366D01*
X82941634Y-47695292D01*
X83036793Y-47758875D01*
X83142529Y-47802672D01*
X83254777Y-47825000D01*
X83369223Y-47825000D01*
X83481471Y-47802672D01*
X83587207Y-47758875D01*
X83682366Y-47695292D01*
X83763292Y-47614366D01*
X83826875Y-47519207D01*
X83870672Y-47413471D01*
X83893000Y-47301223D01*
X83893000Y-47186777D01*
X83870672Y-47074529D01*
X83826875Y-46968793D01*
X83793000Y-46918095D01*
X83793000Y-41347236D01*
X84001000Y-41139237D01*
X84001000Y-41205223D01*
X84023328Y-41317471D01*
X84067125Y-41423207D01*
X84130708Y-41518366D01*
X84211634Y-41599292D01*
X84306793Y-41662875D01*
X84412529Y-41706672D01*
X84524777Y-41729000D01*
X84639223Y-41729000D01*
X84751471Y-41706672D01*
X84857207Y-41662875D01*
X84907905Y-41629000D01*
X86796095Y-41629000D01*
X86846793Y-41662875D01*
X86952529Y-41706672D01*
X87064777Y-41729000D01*
X87179223Y-41729000D01*
X87291471Y-41706672D01*
X87397207Y-41662875D01*
X87492366Y-41599292D01*
X87573292Y-41518366D01*
X87636875Y-41423207D01*
X87680672Y-41317471D01*
X87703000Y-41205223D01*
X87703000Y-41090777D01*
X87680672Y-40978529D01*
X87636875Y-40872793D01*
X87609866Y-40832370D01*
X87699406Y-40742830D01*
X87717764Y-40727764D01*
X87777872Y-40654522D01*
X87822536Y-40570961D01*
X87850040Y-40480292D01*
X87857000Y-40409626D01*
X87857000Y-40409625D01*
X87859327Y-40386001D01*
X87857000Y-40362374D01*
X87857000Y-35438729D01*
X88726437Y-35438729D01*
X88771625Y-35782064D01*
X88882925Y-36109986D01*
X88991916Y-36313894D01*
X89246375Y-36447020D01*
X90312395Y-35381000D01*
X89246375Y-34314980D01*
X88991916Y-34448106D01*
X88838741Y-34758683D01*
X88749100Y-35093176D01*
X88726437Y-35438729D01*
X87857000Y-35438729D01*
X87857000Y-33501000D01*
X89130374Y-33501000D01*
X89154000Y-33503327D01*
X89177626Y-33501000D01*
X89248292Y-33494040D01*
X89338961Y-33466536D01*
X89422522Y-33421872D01*
X89495764Y-33361764D01*
X89510830Y-33343406D01*
X89731406Y-33122830D01*
X89749764Y-33107764D01*
X89809872Y-33034522D01*
X89854536Y-32950961D01*
X89882040Y-32860292D01*
X89889000Y-32789626D01*
X89889000Y-32789625D01*
X89891327Y-32766001D01*
X89889000Y-32742377D01*
X89889000Y-32175897D01*
X89919283Y-32206180D01*
X90120903Y-32340898D01*
X90344931Y-32433693D01*
X90582757Y-32481000D01*
X90825243Y-32481000D01*
X91063069Y-32433693D01*
X91287097Y-32340898D01*
X91488717Y-32206180D01*
X91660180Y-32034717D01*
X91721000Y-31943693D01*
X91721000Y-34112652D01*
G37*
%TD.AperFunction*%
D17*
X80919001Y-49982772D02*
X80919000Y-49982777D01*
X80919000Y-50185000D01*
X80473540Y-50185000D01*
X80474267Y-50181343D01*
X80482593Y-50153896D01*
X80485404Y-50125355D01*
X80491000Y-50097223D01*
X80491000Y-48875000D01*
X80919000Y-48875000D01*
X80919001Y-49982772D01*
%TA.AperFunction,Conductor*%
D18*
G36*
X80919001Y-49982772D02*
G01*
X80919000Y-49982777D01*
X80919000Y-50185000D01*
X80473540Y-50185000D01*
X80474267Y-50181343D01*
X80482593Y-50153896D01*
X80485404Y-50125355D01*
X80491000Y-50097223D01*
X80491000Y-48875000D01*
X80919000Y-48875000D01*
X80919001Y-49982772D01*
G37*
%TD.AperFunction*%
D17*
X89046626Y-44153568D02*
X89225119Y-44420702D01*
X89452298Y-44647881D01*
X89719432Y-44826374D01*
X90016255Y-44949322D01*
X90331360Y-45012000D01*
X90652640Y-45012000D01*
X90967745Y-44949322D01*
X91264568Y-44826374D01*
X91531702Y-44647881D01*
X91721000Y-44458583D01*
X91721001Y-48803418D01*
X91531702Y-48614119D01*
X91264568Y-48435626D01*
X90967745Y-48312678D01*
X90652640Y-48250000D01*
X90331360Y-48250000D01*
X90016255Y-48312678D01*
X89719432Y-48435626D01*
X89452298Y-48614119D01*
X89225119Y-48841298D01*
X89046626Y-49108432D01*
X89000000Y-49220997D01*
X89000000Y-44041003D01*
X89046626Y-44153568D01*
%TA.AperFunction,Conductor*%
D18*
G36*
X89046626Y-44153568D02*
G01*
X89225119Y-44420702D01*
X89452298Y-44647881D01*
X89719432Y-44826374D01*
X90016255Y-44949322D01*
X90331360Y-45012000D01*
X90652640Y-45012000D01*
X90967745Y-44949322D01*
X91264568Y-44826374D01*
X91531702Y-44647881D01*
X91721000Y-44458583D01*
X91721001Y-48803418D01*
X91531702Y-48614119D01*
X91264568Y-48435626D01*
X90967745Y-48312678D01*
X90652640Y-48250000D01*
X90331360Y-48250000D01*
X90016255Y-48312678D01*
X89719432Y-48435626D01*
X89452298Y-48614119D01*
X89225119Y-48841298D01*
X89046626Y-49108432D01*
X89000000Y-49220997D01*
X89000000Y-44041003D01*
X89046626Y-44153568D01*
G37*
%TD.AperFunction*%
D17*
X75591000Y-31123000D02*
X75611000Y-31123000D01*
X75611000Y-31377000D01*
X75591000Y-31377000D01*
X75591000Y-32474431D01*
X75800943Y-32565535D01*
X75914717Y-32531028D01*
X76155973Y-32418483D01*
X76227001Y-32366387D01*
X76227000Y-36603000D01*
X74559632Y-36603000D01*
X74569872Y-36590522D01*
X74614536Y-36506961D01*
X74642040Y-36416292D01*
X74649000Y-36345626D01*
X74649000Y-36345625D01*
X74651327Y-36322001D01*
X74649000Y-36298377D01*
X74649000Y-32328247D01*
X74772027Y-32418483D01*
X75013283Y-32531028D01*
X75127057Y-32565535D01*
X75337000Y-32474431D01*
X75337000Y-31377000D01*
X75317000Y-31377000D01*
X75317000Y-31123000D01*
X75337000Y-31123000D01*
X75337000Y-31103000D01*
X75591000Y-31103000D01*
X75591000Y-31123000D01*
%TA.AperFunction,Conductor*%
D18*
G36*
X75591000Y-31123000D02*
G01*
X75611000Y-31123000D01*
X75611000Y-31377000D01*
X75591000Y-31377000D01*
X75591000Y-32474431D01*
X75800943Y-32565535D01*
X75914717Y-32531028D01*
X76155973Y-32418483D01*
X76227001Y-32366387D01*
X76227000Y-36603000D01*
X74559632Y-36603000D01*
X74569872Y-36590522D01*
X74614536Y-36506961D01*
X74642040Y-36416292D01*
X74649000Y-36345626D01*
X74649000Y-36345625D01*
X74651327Y-36322001D01*
X74649000Y-36298377D01*
X74649000Y-32328247D01*
X74772027Y-32418483D01*
X75013283Y-32531028D01*
X75127057Y-32565535D01*
X75337000Y-32474431D01*
X75337000Y-31377000D01*
X75317000Y-31377000D01*
X75317000Y-31123000D01*
X75337000Y-31123000D01*
X75337000Y-31103000D01*
X75591000Y-31103000D01*
X75591000Y-31123000D01*
G37*
%TD.AperFunction*%
D17*
X71833102Y-29293097D02*
X71967820Y-29494717D01*
X72139283Y-29666180D01*
X72340903Y-29800898D01*
X72564931Y-29893693D01*
X72802757Y-29941000D01*
X73045243Y-29941000D01*
X73283069Y-29893693D01*
X73507097Y-29800898D01*
X73687001Y-29680690D01*
X73687001Y-30017157D01*
X72074000Y-30017157D01*
X71999311Y-30024513D01*
X71927492Y-30046299D01*
X71861304Y-30081678D01*
X71803289Y-30129289D01*
X71755678Y-30187304D01*
X71720299Y-30253492D01*
X71698513Y-30325311D01*
X71691157Y-30400000D01*
X71691157Y-32100000D01*
X71698513Y-32174689D01*
X71720299Y-32246508D01*
X71755678Y-32312696D01*
X71803289Y-32370711D01*
X71861304Y-32418322D01*
X71927492Y-32453701D01*
X71999311Y-32475487D01*
X72074000Y-32482843D01*
X73687001Y-32482843D01*
X73687000Y-36095000D01*
X71257632Y-36095000D01*
X71267872Y-36082522D01*
X71312536Y-35998961D01*
X71340040Y-35908292D01*
X71347000Y-35837626D01*
X71347000Y-35837625D01*
X71349327Y-35814001D01*
X71347000Y-35790377D01*
X71347000Y-29191000D01*
X71790812Y-29191000D01*
X71833102Y-29293097D01*
%TA.AperFunction,Conductor*%
D18*
G36*
X71833102Y-29293097D02*
G01*
X71967820Y-29494717D01*
X72139283Y-29666180D01*
X72340903Y-29800898D01*
X72564931Y-29893693D01*
X72802757Y-29941000D01*
X73045243Y-29941000D01*
X73283069Y-29893693D01*
X73507097Y-29800898D01*
X73687001Y-29680690D01*
X73687001Y-30017157D01*
X72074000Y-30017157D01*
X71999311Y-30024513D01*
X71927492Y-30046299D01*
X71861304Y-30081678D01*
X71803289Y-30129289D01*
X71755678Y-30187304D01*
X71720299Y-30253492D01*
X71698513Y-30325311D01*
X71691157Y-30400000D01*
X71691157Y-32100000D01*
X71698513Y-32174689D01*
X71720299Y-32246508D01*
X71755678Y-32312696D01*
X71803289Y-32370711D01*
X71861304Y-32418322D01*
X71927492Y-32453701D01*
X71999311Y-32475487D01*
X72074000Y-32482843D01*
X73687001Y-32482843D01*
X73687000Y-36095000D01*
X71257632Y-36095000D01*
X71267872Y-36082522D01*
X71312536Y-35998961D01*
X71340040Y-35908292D01*
X71347000Y-35837626D01*
X71347000Y-35837625D01*
X71349327Y-35814001D01*
X71347000Y-35790377D01*
X71347000Y-29191000D01*
X71790812Y-29191000D01*
X71833102Y-29293097D01*
G37*
%TD.AperFunction*%
%TD*%
M02*
