M48
; DRILL file {KiCad (6.0.0)} date Wed Mar 16 08:28:41 2022
; FORMAT={-:-/ absolute / metric / decimal}
; #@! TF.CreationDate,2022-03-16T08:28:41+01:00
; #@! TF.GenerationSoftware,Kicad,Pcbnew,(6.0.0)
; #@! TF.FileFunction,Plated,1,2,PTH
FMAT,2
METRIC
; #@! TA.AperFunction,Plated,PTH,ViaDrill
T1C0.300
; #@! TA.AperFunction,Plated,PTH,ComponentDrill
T2C1.000
; #@! TA.AperFunction,Plated,PTH,ComponentDrill
T3C1.250
%
G90
G05
T1
X44.831Y-27.559
X44.958Y-77.978
X46.736Y-44.323
X48.006Y-44.323
X50.038Y-75.565
X50.144Y-69.407
X50.927Y-36.957
X51.61Y-37.719
X52.697Y-36.949
X53.61Y-37.772
X54.537Y-36.919
X55.737Y-37.846
X56.134Y-69.469
X57.03Y-36.996
X58.503Y-37.684
X64.644Y-69.407
X69.088Y-66.167
X69.088Y-72.39
X69.469Y-43.053
X69.469Y-44.323
X69.504Y-42.212
X70.287Y-68.268
X70.358Y-66.167
X70.739Y-41.148
X71.12Y-53.086
X71.156Y-68.167
X71.628Y-66.167
X72.263Y-47.371
X72.898Y-63.881
X73.787Y-45.212
X74.168Y-63.881
X75.438Y-63.881
X75.819Y-55.753
X76.708Y-63.881
X76.708Y-71.409
X76.998Y-38.898
X77.428Y-50.962
X77.851Y-44.323
X77.978Y-46.355
X79.248Y-48.006
X79.756Y-63.881
X80.264Y-43.307
X80.518Y-44.739
X80.645Y-45.939
X81.026Y-71.12
X81.153Y-61.214
X81.17Y-67.472
X82.677Y-36.957
X82.931Y-61.214
X83.439Y-36.322
X84.836Y-67.945
X85.09Y-49.53
X85.217Y-54.61
X85.344Y-59.69
X85.598Y-62.357
X86.524Y-67.421
X87.376Y-71.155
X88.138Y-59.817
X88.342Y-44.069
X88.344Y-62.356
X88.519Y-67.437
X88.646Y-63.246
X91.821Y-78.105
X91.931Y-72.517
X91.948Y-27.432
T2
X45.974Y-28.702
X45.974Y-31.25
X48.514Y-28.702
X48.514Y-31.25
X51.054Y-28.702
X51.054Y-31.25
X53.594Y-28.702
X53.594Y-31.25
X55.118Y-76.962
X56.134Y-28.702
X56.134Y-31.25
X57.658Y-76.962
X58.674Y-28.702
X58.674Y-31.25
X60.198Y-76.962
X61.214Y-28.702
X61.214Y-31.25
X62.738Y-76.962
X63.754Y-28.702
X63.754Y-31.25
X65.278Y-76.962
X66.294Y-28.702
X66.294Y-31.25
X67.818Y-76.962
X68.834Y-28.702
X68.834Y-31.25
X70.358Y-76.962
X72.898Y-28.702
X72.898Y-76.962
X75.438Y-28.702
X77.978Y-28.702
X77.978Y-76.962
X80.518Y-28.702
X80.518Y-76.962
X82.804Y-41.529
X82.804Y-44.069
X82.804Y-46.609
X83.058Y-28.702
X83.058Y-76.962
X85.344Y-41.529
X85.344Y-44.069
X85.344Y-46.609
X85.598Y-28.702
X85.598Y-76.962
X88.138Y-28.702
X88.138Y-76.962
X90.678Y-28.702
X90.678Y-76.962
T3
X90.492Y-35.381
X90.492Y-39.381
X90.492Y-43.381
X90.492Y-49.881
X90.492Y-53.881
X90.492Y-57.881
X90.492Y-61.881
T0
M30
