%TF.GenerationSoftware,KiCad,Pcbnew,(5.1.8)-1*%
%TF.CreationDate,2021-04-16T15:21:13+02:00*%
%TF.ProjectId,GBAHD_Shield,47424148-445f-4536-9869-656c642e6b69,rev?*%
%TF.SameCoordinates,Original*%
%TF.FileFunction,Copper,L2,Bot*%
%TF.FilePolarity,Positive*%
%FSLAX46Y46*%
G04 Gerber Fmt 4.6, Leading zero omitted, Abs format (unit mm)*
G04 Created by KiCad (PCBNEW (5.1.8)-1) date 2021-04-16 15:21:13*
%MOMM*%
%LPD*%
G01*
G04 APERTURE LIST*
%TA.AperFunction,ComponentPad*%
%ADD10O,1.700000X1.700000*%
%TD*%
%TA.AperFunction,ComponentPad*%
%ADD11R,1.700000X1.700000*%
%TD*%
%TA.AperFunction,ComponentPad*%
%ADD12C,2.500000*%
%TD*%
%TA.AperFunction,ViaPad*%
%ADD13C,0.600000*%
%TD*%
%TA.AperFunction,Conductor*%
%ADD14C,0.200000*%
%TD*%
%TA.AperFunction,Conductor*%
%ADD15C,0.400000*%
%TD*%
%TA.AperFunction,Conductor*%
%ADD16C,0.254000*%
%TD*%
%TA.AperFunction,Conductor*%
%ADD17C,0.100000*%
%TD*%
G04 APERTURE END LIST*
D10*
%TO.P,J11,6*%
%TO.N,GND*%
X71374000Y-52197000D03*
%TO.P,J11,5*%
%TO.N,AT_RST*%
X68834000Y-52197000D03*
%TO.P,J11,4*%
%TO.N,ICSP_MOSI*%
X71374000Y-49657000D03*
%TO.P,J11,3*%
%TO.N,ICSP_SCK*%
X68834000Y-49657000D03*
%TO.P,J11,2*%
%TO.N,+3V3*%
X71374000Y-47117000D03*
D11*
%TO.P,J11,1*%
%TO.N,ICSP_MISO*%
X68834000Y-47117000D03*
%TD*%
D10*
%TO.P,J8,10*%
%TO.N,GB_DCLK*%
X45974000Y-31250000D03*
%TO.P,J8,9*%
%TO.N,GBA_CLK*%
X48514000Y-31250000D03*
%TO.P,J8,8*%
%TO.N,GB_R3*%
X51054000Y-31250000D03*
%TO.P,J8,7*%
%TO.N,GB_R1*%
X53594000Y-31250000D03*
%TO.P,J8,6*%
%TO.N,GB_G4*%
X56134000Y-31250000D03*
%TO.P,J8,5*%
%TO.N,GB_G2*%
X58674000Y-31250000D03*
%TO.P,J8,4*%
%TO.N,GB_B5*%
X61214000Y-31250000D03*
%TO.P,J8,3*%
%TO.N,GB_B3*%
X63754000Y-31250000D03*
%TO.P,J8,2*%
%TO.N,GB_B1*%
X66294000Y-31250000D03*
D11*
%TO.P,J8,1*%
%TO.N,GB_SPS*%
X68834000Y-31250000D03*
%TD*%
D10*
%TO.P,J10,10*%
%TO.N,N/C*%
X45974000Y-28702000D03*
%TO.P,J10,9*%
X48514000Y-28702000D03*
%TO.P,J10,8*%
X51054000Y-28702000D03*
%TO.P,J10,7*%
%TO.N,GND*%
X53594000Y-28702000D03*
%TO.P,J10,6*%
%TO.N,GB_R5*%
X56134000Y-28702000D03*
%TO.P,J10,5*%
%TO.N,N/C*%
X58674000Y-28702000D03*
%TO.P,J10,4*%
%TO.N,GB_R4*%
X61214000Y-28702000D03*
%TO.P,J10,3*%
%TO.N,GB_R2*%
X63754000Y-28702000D03*
%TO.P,J10,2*%
%TO.N,GB_G5*%
X66294000Y-28702000D03*
D11*
%TO.P,J10,1*%
%TO.N,GB_G3*%
X68834000Y-28702000D03*
%TD*%
D10*
%TO.P,J9,8*%
%TO.N,GB_G1*%
X72898000Y-28702000D03*
%TO.P,J9,7*%
%TO.N,GB_B4*%
X75438000Y-28702000D03*
%TO.P,J9,6*%
%TO.N,GB_B2*%
X77978000Y-28702000D03*
%TO.P,J9,5*%
%TO.N,PIXEL_GRID*%
X80518000Y-28702000D03*
%TO.P,J9,4*%
%TO.N,GBA_AUD2*%
X83058000Y-28702000D03*
%TO.P,J9,3*%
%TO.N,GBA_AUD1*%
X85598000Y-28702000D03*
%TO.P,J9,2*%
%TO.N,SP_ARD1*%
X88138000Y-28702000D03*
D11*
%TO.P,J9,1*%
%TO.N,RX*%
X90678000Y-28702000D03*
%TD*%
D10*
%TO.P,J6,6*%
%TO.N,N/C*%
X90678000Y-76962000D03*
%TO.P,J6,5*%
X88138000Y-76962000D03*
%TO.P,J6,4*%
X85598000Y-76962000D03*
%TO.P,J6,3*%
X83058000Y-76962000D03*
%TO.P,J6,2*%
X80518000Y-76962000D03*
D11*
%TO.P,J6,1*%
X77978000Y-76962000D03*
%TD*%
D10*
%TO.P,J7,8*%
%TO.N,N/C*%
X55118000Y-76962000D03*
%TO.P,J7,7*%
X57658000Y-76962000D03*
%TO.P,J7,6*%
X60198000Y-76962000D03*
%TO.P,J7,5*%
%TO.N,+3V3*%
X62738000Y-76962000D03*
%TO.P,J7,4*%
%TO.N,+5V*%
X65278000Y-76962000D03*
%TO.P,J7,3*%
%TO.N,GND*%
X67818000Y-76962000D03*
%TO.P,J7,2*%
X70358000Y-76962000D03*
D11*
%TO.P,J7,1*%
%TO.N,N/C*%
X72898000Y-76962000D03*
%TD*%
D12*
%TO.P,U4,1*%
%TO.N,+3V3*%
X90492000Y-61881000D03*
%TO.P,U4,2*%
%TO.N,ICSP_SCK*%
X90492000Y-57881000D03*
%TO.P,U4,3*%
%TO.N,SNS_LATCH*%
X90492000Y-53881000D03*
%TO.P,U4,4*%
%TO.N,ICSP_MISO*%
X90492000Y-49881000D03*
%TO.P,U4,5*%
%TO.N,N/C*%
X90492000Y-43381000D03*
%TO.P,U4,6*%
X90492000Y-39381000D03*
%TO.P,U4,7*%
%TO.N,GND*%
X90492000Y-35381000D03*
%TD*%
D13*
%TO.N,GND*%
X78613000Y-40640000D03*
X70739000Y-56007000D03*
X72898000Y-56007000D03*
X84201000Y-45974000D03*
X78613000Y-45974000D03*
X78486000Y-51689000D03*
X79248000Y-50038000D03*
X83566000Y-50038000D03*
X84328000Y-51689000D03*
X78613000Y-47625000D03*
X79375000Y-48387000D03*
X84201000Y-48387000D03*
X74676000Y-51435000D03*
X74168000Y-46355000D03*
X71374000Y-53721000D03*
X90424000Y-55880000D03*
X90424000Y-59944000D03*
X83820000Y-56134000D03*
X90424000Y-64008000D03*
X75438000Y-69596000D03*
X80518000Y-69596000D03*
X78105000Y-71882000D03*
X79756000Y-73533000D03*
X68072000Y-68707000D03*
X64516000Y-69596000D03*
X81407000Y-56642000D03*
X74422000Y-54102000D03*
X77216000Y-31877000D03*
X78740000Y-31877000D03*
X77216000Y-43942000D03*
X81788000Y-42291000D03*
X67818000Y-60960000D03*
X67818000Y-64516000D03*
X69088000Y-64516000D03*
X70358000Y-64516000D03*
X71628000Y-64516000D03*
X72898000Y-64516000D03*
X73914000Y-68072000D03*
X70358000Y-68072000D03*
X70866000Y-71882000D03*
X56769000Y-67183000D03*
X56769000Y-40894000D03*
X40386000Y-78740000D03*
X40386000Y-27178000D03*
X92202000Y-27178000D03*
X92202000Y-78740000D03*
X67056000Y-46482000D03*
X65024000Y-51054000D03*
X69723000Y-59817000D03*
X68199000Y-54991000D03*
X56769000Y-52578000D03*
X61468000Y-73660000D03*
X46228000Y-73787000D03*
%TO.N,GB_R5*%
X48387000Y-36500000D03*
%TO.N,GB_B2*%
X55500000Y-37500000D03*
%TO.N,GB_G1*%
X53000034Y-37500006D03*
%TO.N,GB_G5*%
X51000000Y-37500000D03*
%TO.N,GB_R2*%
X50000000Y-36500000D03*
%TO.N,GB_G3*%
X52000000Y-36499982D03*
%TO.N,GB_B4*%
X54500000Y-36500000D03*
%TO.N,GB_R4*%
X48999929Y-37500000D03*
%TO.N,GBA_AUD1*%
X81076999Y-66832612D03*
%TO.N,GBA_AUD2*%
X80391000Y-66294000D03*
%TO.N,GBA_START*%
X79502000Y-57404000D03*
X79169979Y-66929000D03*
%TO.N,GBA_CLK*%
X47625000Y-74676000D03*
X80772000Y-73914000D03*
X80772000Y-71882000D03*
%TO.N,AT_RST*%
X81000000Y-43968000D03*
%TO.N,ICSP_MOSI*%
X83390822Y-52999990D03*
%TO.N,ICSP_MISO*%
X84200000Y-53600000D03*
%TO.N,SNS_LATCH*%
X83312000Y-57404000D03*
X82600005Y-55803005D03*
%TO.N,GBA_POWER_SEL*%
X90170000Y-66929000D03*
X78613000Y-43180000D03*
X86198010Y-43053000D03*
X84498345Y-42987804D03*
%TO.N,+5V*%
X66294000Y-41656000D03*
%TO.N,VCC*%
X69596000Y-69850000D03*
X88204000Y-68723000D03*
%TO.N,Net-(J1-Pad1)*%
X81661000Y-73533000D03*
X81670000Y-71247000D03*
%TO.N,+3V3*%
X65532000Y-49784000D03*
X78232000Y-56769000D03*
X67183000Y-56769000D03*
X62738000Y-49784000D03*
X87300011Y-50800000D03*
X78232002Y-61241050D03*
%TO.N,~GBA_BUTTONS_EN~*%
X82042000Y-58166000D03*
X84074000Y-60579000D03*
%TD*%
D14*
%TO.N,GB_R5*%
X48387000Y-33528000D02*
X48387000Y-36500000D01*
X54610000Y-33020000D02*
X48895000Y-33020000D01*
X54864000Y-32766000D02*
X54610000Y-33020000D01*
X54864000Y-29972000D02*
X54864000Y-32766000D01*
X56134000Y-28702000D02*
X54864000Y-29972000D01*
X48895000Y-33020000D02*
X48387000Y-33528000D01*
%TO.N,GB_B2*%
X77689000Y-37500000D02*
X55500000Y-37500000D01*
X77978000Y-37211000D02*
X77689000Y-37500000D01*
X77978000Y-28702000D02*
X77978000Y-37211000D01*
%TO.N,GB_G1*%
X53000034Y-35233016D02*
X53000034Y-37500006D01*
X53213000Y-35020050D02*
X53000034Y-35233016D01*
X72675950Y-35020050D02*
X53213000Y-35020050D01*
X72898000Y-34798000D02*
X72675950Y-35020050D01*
X72898000Y-28702000D02*
X72898000Y-34798000D01*
%TO.N,GB_G5*%
X51000000Y-34401030D02*
X51000000Y-37500000D01*
X64839970Y-34220030D02*
X51181000Y-34220030D01*
X51181000Y-34220030D02*
X51000000Y-34401030D01*
X65024000Y-34036000D02*
X64839970Y-34220030D01*
X65024000Y-29972000D02*
X65024000Y-34036000D01*
X66294000Y-28702000D02*
X65024000Y-29972000D01*
%TO.N,GB_R2*%
X50000000Y-36500000D02*
X50000000Y-34112020D01*
X50000000Y-34112020D02*
X50292000Y-33820020D01*
X50292000Y-33820020D02*
X62191980Y-33820020D01*
X62484000Y-33528000D02*
X62484000Y-29972000D01*
X62484000Y-29972000D02*
X63754000Y-28702000D01*
X62191980Y-33820020D02*
X62484000Y-33528000D01*
%TO.N,GB_G3*%
X52000000Y-34741000D02*
X52000000Y-36499982D01*
X67360960Y-34620040D02*
X52120960Y-34620040D01*
X67564000Y-34417000D02*
X67360960Y-34620040D01*
X68834000Y-28702000D02*
X67564000Y-29972000D01*
X52120960Y-34620040D02*
X52000000Y-34741000D01*
X67564000Y-29972000D02*
X67564000Y-34417000D01*
%TO.N,GB_B4*%
X75260000Y-36500000D02*
X54500000Y-36500000D01*
X75438000Y-36322000D02*
X75260000Y-36500000D01*
X75438000Y-28702000D02*
X75438000Y-36322000D01*
%TO.N,GB_R4*%
X59944000Y-33274000D02*
X59797990Y-33420010D01*
X59944000Y-29972000D02*
X59944000Y-33274000D01*
X59797990Y-33420010D02*
X49276000Y-33420010D01*
X48999929Y-33696081D02*
X48999929Y-37500000D01*
X61214000Y-28702000D02*
X59944000Y-29972000D01*
X49276000Y-33420010D02*
X48999929Y-33696081D01*
%TO.N,GBA_AUD1*%
X85567388Y-66832612D02*
X81076999Y-66832612D01*
X85598000Y-66802000D02*
X85567388Y-66832612D01*
X85598000Y-28702000D02*
X85598000Y-66802000D01*
%TO.N,GBA_AUD2*%
X80690999Y-65994001D02*
X80391000Y-66294000D01*
X85008999Y-65994001D02*
X80690999Y-65994001D01*
X85098346Y-65904654D02*
X85008999Y-65994001D01*
X85098346Y-30107346D02*
X85098346Y-65904654D01*
X84963000Y-29972000D02*
X85098346Y-30107346D01*
X83058000Y-29845000D02*
X83185000Y-29972000D01*
X83185000Y-29972000D02*
X84963000Y-29972000D01*
X83058000Y-28702000D02*
X83058000Y-29845000D01*
%TO.N,GBA_START*%
X79502000Y-57404000D02*
X79502000Y-66596979D01*
X79502000Y-66596979D02*
X79169979Y-66929000D01*
%TO.N,GBA_CLK*%
X80772000Y-73914000D02*
X80772000Y-71882000D01*
X47371000Y-74422000D02*
X47625000Y-74676000D01*
X47371000Y-32393000D02*
X47371000Y-74422000D01*
X48514000Y-31250000D02*
X47371000Y-32393000D01*
%TO.N,AT_RST*%
X64643000Y-52197000D02*
X67310000Y-52197000D01*
X64262000Y-51816000D02*
X64643000Y-52197000D01*
X64262000Y-44958000D02*
X64262000Y-51816000D01*
X64516000Y-44704000D02*
X64262000Y-44958000D01*
X77470000Y-44704000D02*
X64516000Y-44704000D01*
X67310000Y-52197000D02*
X68834000Y-52197000D01*
X78206000Y-43968000D02*
X77470000Y-44704000D01*
X81000000Y-43968000D02*
X78206000Y-43968000D01*
%TO.N,ICSP_MOSI*%
X81874010Y-52999990D02*
X83390822Y-52999990D01*
X81759150Y-53114850D02*
X81874010Y-52999990D01*
X81759150Y-54638850D02*
X81759150Y-53114850D01*
X81534000Y-54864000D02*
X81759150Y-54638850D01*
X73152000Y-54610000D02*
X73406000Y-54864000D01*
X73406000Y-54864000D02*
X81534000Y-54864000D01*
X73025000Y-49657000D02*
X73152000Y-49784000D01*
X73152000Y-49784000D02*
X73152000Y-54610000D01*
X71374000Y-49657000D02*
X73025000Y-49657000D01*
%TO.N,ICSP_MISO*%
X82290000Y-53600000D02*
X84200000Y-53600000D01*
X82169000Y-53721000D02*
X82290000Y-53600000D01*
X82169000Y-55118000D02*
X82169000Y-53721000D01*
X81915000Y-55372000D02*
X82169000Y-55118000D01*
X70238001Y-55372000D02*
X81915000Y-55372000D01*
X69984001Y-55118000D02*
X70238001Y-55372000D01*
X69984001Y-47217001D02*
X69984001Y-55118000D01*
X69884000Y-47117000D02*
X69984001Y-47217001D01*
X68834000Y-47117000D02*
X69884000Y-47117000D01*
%TO.N,SNS_LATCH*%
X82600005Y-56692005D02*
X82600005Y-55803005D01*
X83312000Y-57404000D02*
X82600005Y-56692005D01*
%TO.N,GBA_POWER_SEL*%
X78613000Y-43180000D02*
X84306149Y-43180000D01*
X84306149Y-43180000D02*
X84498345Y-42987804D01*
X86198010Y-66640010D02*
X86198010Y-43053000D01*
X86487000Y-66929000D02*
X86198010Y-66640010D01*
X90170000Y-66929000D02*
X86487000Y-66929000D01*
D15*
%TO.N,+5V*%
X65278000Y-73406000D02*
X65278000Y-76962000D01*
X64008000Y-73152000D02*
X65024000Y-73152000D01*
X63761990Y-72905990D02*
X64008000Y-73152000D01*
X63761990Y-41902010D02*
X63761990Y-72905990D01*
X65024000Y-73152000D02*
X65278000Y-73406000D01*
X64008000Y-41656000D02*
X63761990Y-41902010D01*
X66294000Y-41656000D02*
X64008000Y-41656000D01*
%TO.N,VCC*%
X88204000Y-70038000D02*
X88204000Y-68723000D01*
X87884000Y-70358000D02*
X88204000Y-70038000D01*
X70104000Y-70358000D02*
X87884000Y-70358000D01*
X69596000Y-69850000D02*
X70104000Y-70358000D01*
D14*
%TO.N,Net-(J1-Pad1)*%
X81661000Y-71256000D02*
X81670000Y-71247000D01*
X81661000Y-73533000D02*
X81661000Y-71256000D01*
D15*
%TO.N,+3V3*%
X78232000Y-56769000D02*
X67183000Y-56769000D01*
X62738000Y-49784000D02*
X62738000Y-76962000D01*
X71374000Y-45720000D02*
X71374000Y-47117000D01*
X71120000Y-45466000D02*
X71374000Y-45720000D01*
X65786000Y-45466000D02*
X71120000Y-45466000D01*
X65532000Y-45720000D02*
X65786000Y-45466000D01*
X65532000Y-49784000D02*
X65532000Y-45720000D01*
X78232000Y-61241048D02*
X78232002Y-61241050D01*
X78232000Y-56769000D02*
X78232000Y-61241048D01*
X87300011Y-61646011D02*
X87300011Y-50800000D01*
X87535000Y-61881000D02*
X87300011Y-61646011D01*
X90492000Y-61881000D02*
X87535000Y-61881000D01*
D14*
%TO.N,~GBA_BUTTONS_EN~*%
X82296000Y-60579000D02*
X84074000Y-60579000D01*
X82042000Y-60325000D02*
X82296000Y-60579000D01*
X82042000Y-58166000D02*
X82042000Y-60325000D01*
%TD*%
D16*
%TO.N,GND*%
X92316439Y-26830461D02*
X92380348Y-26849756D01*
X92439289Y-26881096D01*
X92491021Y-26923287D01*
X92533573Y-26974723D01*
X92565326Y-27033451D01*
X92585066Y-27097219D01*
X92594000Y-27182217D01*
X92594001Y-78732135D01*
X92585538Y-78818440D01*
X92566244Y-78882346D01*
X92534905Y-78941287D01*
X92492713Y-78993021D01*
X92441272Y-79035576D01*
X92382550Y-79067326D01*
X92318781Y-79087066D01*
X92233773Y-79096001D01*
X40312970Y-79097397D01*
X40260179Y-79083043D01*
X40198273Y-79052298D01*
X40143520Y-79010116D01*
X40098004Y-78958103D01*
X40063456Y-78898237D01*
X40041195Y-78832804D01*
X40030110Y-78749606D01*
X40030000Y-78738042D01*
X40030000Y-76840757D01*
X53887000Y-76840757D01*
X53887000Y-77083243D01*
X53934307Y-77321069D01*
X54027102Y-77545097D01*
X54161820Y-77746717D01*
X54333283Y-77918180D01*
X54534903Y-78052898D01*
X54758931Y-78145693D01*
X54996757Y-78193000D01*
X55239243Y-78193000D01*
X55477069Y-78145693D01*
X55701097Y-78052898D01*
X55902717Y-77918180D01*
X56074180Y-77746717D01*
X56208898Y-77545097D01*
X56301693Y-77321069D01*
X56349000Y-77083243D01*
X56349000Y-76840757D01*
X56427000Y-76840757D01*
X56427000Y-77083243D01*
X56474307Y-77321069D01*
X56567102Y-77545097D01*
X56701820Y-77746717D01*
X56873283Y-77918180D01*
X57074903Y-78052898D01*
X57298931Y-78145693D01*
X57536757Y-78193000D01*
X57779243Y-78193000D01*
X58017069Y-78145693D01*
X58241097Y-78052898D01*
X58442717Y-77918180D01*
X58614180Y-77746717D01*
X58748898Y-77545097D01*
X58841693Y-77321069D01*
X58889000Y-77083243D01*
X58889000Y-76840757D01*
X58967000Y-76840757D01*
X58967000Y-77083243D01*
X59014307Y-77321069D01*
X59107102Y-77545097D01*
X59241820Y-77746717D01*
X59413283Y-77918180D01*
X59614903Y-78052898D01*
X59838931Y-78145693D01*
X60076757Y-78193000D01*
X60319243Y-78193000D01*
X60557069Y-78145693D01*
X60781097Y-78052898D01*
X60982717Y-77918180D01*
X61154180Y-77746717D01*
X61288898Y-77545097D01*
X61381693Y-77321069D01*
X61429000Y-77083243D01*
X61429000Y-76840757D01*
X61507000Y-76840757D01*
X61507000Y-77083243D01*
X61554307Y-77321069D01*
X61647102Y-77545097D01*
X61781820Y-77746717D01*
X61953283Y-77918180D01*
X62154903Y-78052898D01*
X62378931Y-78145693D01*
X62616757Y-78193000D01*
X62859243Y-78193000D01*
X63097069Y-78145693D01*
X63321097Y-78052898D01*
X63522717Y-77918180D01*
X63694180Y-77746717D01*
X63828898Y-77545097D01*
X63921693Y-77321069D01*
X63969000Y-77083243D01*
X63969000Y-76840757D01*
X63921693Y-76602931D01*
X63828898Y-76378903D01*
X63694180Y-76177283D01*
X63522717Y-76005820D01*
X63321097Y-75871102D01*
X63319000Y-75870233D01*
X63319000Y-73282040D01*
X63349174Y-73318807D01*
X63371346Y-73337003D01*
X63576983Y-73542640D01*
X63595183Y-73564817D01*
X63683652Y-73637421D01*
X63784585Y-73691371D01*
X63894104Y-73724593D01*
X64008000Y-73735811D01*
X64036540Y-73733000D01*
X64697000Y-73733000D01*
X64697001Y-75870233D01*
X64694903Y-75871102D01*
X64493283Y-76005820D01*
X64321820Y-76177283D01*
X64187102Y-76378903D01*
X64094307Y-76602931D01*
X64047000Y-76840757D01*
X64047000Y-77083243D01*
X64094307Y-77321069D01*
X64187102Y-77545097D01*
X64321820Y-77746717D01*
X64493283Y-77918180D01*
X64694903Y-78052898D01*
X64918931Y-78145693D01*
X65156757Y-78193000D01*
X65399243Y-78193000D01*
X65637069Y-78145693D01*
X65861097Y-78052898D01*
X66062717Y-77918180D01*
X66234180Y-77746717D01*
X66368898Y-77545097D01*
X66461693Y-77321069D01*
X66482387Y-77217033D01*
X66613705Y-77217033D01*
X66686600Y-77447079D01*
X66802974Y-77658484D01*
X66958355Y-77843123D01*
X67146771Y-77993901D01*
X67360982Y-78105024D01*
X67562967Y-78166292D01*
X67754500Y-78095973D01*
X67754500Y-77025500D01*
X67881500Y-77025500D01*
X67881500Y-78095973D01*
X68073033Y-78166292D01*
X68275018Y-78105024D01*
X68489229Y-77993901D01*
X68677645Y-77843123D01*
X68833026Y-77658484D01*
X68949400Y-77447079D01*
X69022295Y-77217033D01*
X69153705Y-77217033D01*
X69226600Y-77447079D01*
X69342974Y-77658484D01*
X69498355Y-77843123D01*
X69686771Y-77993901D01*
X69900982Y-78105024D01*
X70102967Y-78166292D01*
X70294500Y-78095973D01*
X70294500Y-77025500D01*
X70421500Y-77025500D01*
X70421500Y-78095973D01*
X70613033Y-78166292D01*
X70815018Y-78105024D01*
X71029229Y-77993901D01*
X71217645Y-77843123D01*
X71373026Y-77658484D01*
X71489400Y-77447079D01*
X71562295Y-77217033D01*
X71492114Y-77025500D01*
X70421500Y-77025500D01*
X70294500Y-77025500D01*
X69223886Y-77025500D01*
X69153705Y-77217033D01*
X69022295Y-77217033D01*
X68952114Y-77025500D01*
X67881500Y-77025500D01*
X67754500Y-77025500D01*
X66683886Y-77025500D01*
X66613705Y-77217033D01*
X66482387Y-77217033D01*
X66509000Y-77083243D01*
X66509000Y-76840757D01*
X66482388Y-76706967D01*
X66613705Y-76706967D01*
X66683886Y-76898500D01*
X67754500Y-76898500D01*
X67754500Y-75828027D01*
X67881500Y-75828027D01*
X67881500Y-76898500D01*
X68952114Y-76898500D01*
X69022295Y-76706967D01*
X69153705Y-76706967D01*
X69223886Y-76898500D01*
X70294500Y-76898500D01*
X70294500Y-75828027D01*
X70421500Y-75828027D01*
X70421500Y-76898500D01*
X71492114Y-76898500D01*
X71562295Y-76706967D01*
X71489400Y-76476921D01*
X71373026Y-76265516D01*
X71243837Y-76112000D01*
X71665157Y-76112000D01*
X71665157Y-77812000D01*
X71672513Y-77886689D01*
X71694299Y-77958508D01*
X71729678Y-78024696D01*
X71777289Y-78082711D01*
X71835304Y-78130322D01*
X71901492Y-78165701D01*
X71973311Y-78187487D01*
X72048000Y-78194843D01*
X73748000Y-78194843D01*
X73822689Y-78187487D01*
X73894508Y-78165701D01*
X73960696Y-78130322D01*
X74018711Y-78082711D01*
X74066322Y-78024696D01*
X74101701Y-77958508D01*
X74123487Y-77886689D01*
X74130843Y-77812000D01*
X74130843Y-76112000D01*
X76745157Y-76112000D01*
X76745157Y-77812000D01*
X76752513Y-77886689D01*
X76774299Y-77958508D01*
X76809678Y-78024696D01*
X76857289Y-78082711D01*
X76915304Y-78130322D01*
X76981492Y-78165701D01*
X77053311Y-78187487D01*
X77128000Y-78194843D01*
X78828000Y-78194843D01*
X78902689Y-78187487D01*
X78974508Y-78165701D01*
X79040696Y-78130322D01*
X79098711Y-78082711D01*
X79146322Y-78024696D01*
X79181701Y-77958508D01*
X79203487Y-77886689D01*
X79210843Y-77812000D01*
X79210843Y-76840757D01*
X79287000Y-76840757D01*
X79287000Y-77083243D01*
X79334307Y-77321069D01*
X79427102Y-77545097D01*
X79561820Y-77746717D01*
X79733283Y-77918180D01*
X79934903Y-78052898D01*
X80158931Y-78145693D01*
X80396757Y-78193000D01*
X80639243Y-78193000D01*
X80877069Y-78145693D01*
X81101097Y-78052898D01*
X81302717Y-77918180D01*
X81474180Y-77746717D01*
X81608898Y-77545097D01*
X81701693Y-77321069D01*
X81749000Y-77083243D01*
X81749000Y-76840757D01*
X81827000Y-76840757D01*
X81827000Y-77083243D01*
X81874307Y-77321069D01*
X81967102Y-77545097D01*
X82101820Y-77746717D01*
X82273283Y-77918180D01*
X82474903Y-78052898D01*
X82698931Y-78145693D01*
X82936757Y-78193000D01*
X83179243Y-78193000D01*
X83417069Y-78145693D01*
X83641097Y-78052898D01*
X83842717Y-77918180D01*
X84014180Y-77746717D01*
X84148898Y-77545097D01*
X84241693Y-77321069D01*
X84289000Y-77083243D01*
X84289000Y-76840757D01*
X84367000Y-76840757D01*
X84367000Y-77083243D01*
X84414307Y-77321069D01*
X84507102Y-77545097D01*
X84641820Y-77746717D01*
X84813283Y-77918180D01*
X85014903Y-78052898D01*
X85238931Y-78145693D01*
X85476757Y-78193000D01*
X85719243Y-78193000D01*
X85957069Y-78145693D01*
X86181097Y-78052898D01*
X86382717Y-77918180D01*
X86554180Y-77746717D01*
X86688898Y-77545097D01*
X86781693Y-77321069D01*
X86829000Y-77083243D01*
X86829000Y-76840757D01*
X86907000Y-76840757D01*
X86907000Y-77083243D01*
X86954307Y-77321069D01*
X87047102Y-77545097D01*
X87181820Y-77746717D01*
X87353283Y-77918180D01*
X87554903Y-78052898D01*
X87778931Y-78145693D01*
X88016757Y-78193000D01*
X88259243Y-78193000D01*
X88497069Y-78145693D01*
X88721097Y-78052898D01*
X88922717Y-77918180D01*
X89094180Y-77746717D01*
X89228898Y-77545097D01*
X89321693Y-77321069D01*
X89369000Y-77083243D01*
X89369000Y-76840757D01*
X89447000Y-76840757D01*
X89447000Y-77083243D01*
X89494307Y-77321069D01*
X89587102Y-77545097D01*
X89721820Y-77746717D01*
X89893283Y-77918180D01*
X90094903Y-78052898D01*
X90318931Y-78145693D01*
X90556757Y-78193000D01*
X90799243Y-78193000D01*
X91037069Y-78145693D01*
X91261097Y-78052898D01*
X91462717Y-77918180D01*
X91634180Y-77746717D01*
X91768898Y-77545097D01*
X91861693Y-77321069D01*
X91909000Y-77083243D01*
X91909000Y-76840757D01*
X91861693Y-76602931D01*
X91768898Y-76378903D01*
X91634180Y-76177283D01*
X91462717Y-76005820D01*
X91261097Y-75871102D01*
X91037069Y-75778307D01*
X90799243Y-75731000D01*
X90556757Y-75731000D01*
X90318931Y-75778307D01*
X90094903Y-75871102D01*
X89893283Y-76005820D01*
X89721820Y-76177283D01*
X89587102Y-76378903D01*
X89494307Y-76602931D01*
X89447000Y-76840757D01*
X89369000Y-76840757D01*
X89321693Y-76602931D01*
X89228898Y-76378903D01*
X89094180Y-76177283D01*
X88922717Y-76005820D01*
X88721097Y-75871102D01*
X88497069Y-75778307D01*
X88259243Y-75731000D01*
X88016757Y-75731000D01*
X87778931Y-75778307D01*
X87554903Y-75871102D01*
X87353283Y-76005820D01*
X87181820Y-76177283D01*
X87047102Y-76378903D01*
X86954307Y-76602931D01*
X86907000Y-76840757D01*
X86829000Y-76840757D01*
X86781693Y-76602931D01*
X86688898Y-76378903D01*
X86554180Y-76177283D01*
X86382717Y-76005820D01*
X86181097Y-75871102D01*
X85957069Y-75778307D01*
X85719243Y-75731000D01*
X85476757Y-75731000D01*
X85238931Y-75778307D01*
X85014903Y-75871102D01*
X84813283Y-76005820D01*
X84641820Y-76177283D01*
X84507102Y-76378903D01*
X84414307Y-76602931D01*
X84367000Y-76840757D01*
X84289000Y-76840757D01*
X84241693Y-76602931D01*
X84148898Y-76378903D01*
X84014180Y-76177283D01*
X83842717Y-76005820D01*
X83641097Y-75871102D01*
X83417069Y-75778307D01*
X83179243Y-75731000D01*
X82936757Y-75731000D01*
X82698931Y-75778307D01*
X82474903Y-75871102D01*
X82273283Y-76005820D01*
X82101820Y-76177283D01*
X81967102Y-76378903D01*
X81874307Y-76602931D01*
X81827000Y-76840757D01*
X81749000Y-76840757D01*
X81701693Y-76602931D01*
X81608898Y-76378903D01*
X81474180Y-76177283D01*
X81302717Y-76005820D01*
X81101097Y-75871102D01*
X80877069Y-75778307D01*
X80639243Y-75731000D01*
X80396757Y-75731000D01*
X80158931Y-75778307D01*
X79934903Y-75871102D01*
X79733283Y-76005820D01*
X79561820Y-76177283D01*
X79427102Y-76378903D01*
X79334307Y-76602931D01*
X79287000Y-76840757D01*
X79210843Y-76840757D01*
X79210843Y-76112000D01*
X79203487Y-76037311D01*
X79181701Y-75965492D01*
X79146322Y-75899304D01*
X79098711Y-75841289D01*
X79040696Y-75793678D01*
X78974508Y-75758299D01*
X78902689Y-75736513D01*
X78828000Y-75729157D01*
X77128000Y-75729157D01*
X77053311Y-75736513D01*
X76981492Y-75758299D01*
X76915304Y-75793678D01*
X76857289Y-75841289D01*
X76809678Y-75899304D01*
X76774299Y-75965492D01*
X76752513Y-76037311D01*
X76745157Y-76112000D01*
X74130843Y-76112000D01*
X74123487Y-76037311D01*
X74101701Y-75965492D01*
X74066322Y-75899304D01*
X74018711Y-75841289D01*
X73960696Y-75793678D01*
X73894508Y-75758299D01*
X73822689Y-75736513D01*
X73748000Y-75729157D01*
X72048000Y-75729157D01*
X71973311Y-75736513D01*
X71901492Y-75758299D01*
X71835304Y-75793678D01*
X71777289Y-75841289D01*
X71729678Y-75899304D01*
X71694299Y-75965492D01*
X71672513Y-76037311D01*
X71665157Y-76112000D01*
X71243837Y-76112000D01*
X71217645Y-76080877D01*
X71029229Y-75930099D01*
X70815018Y-75818976D01*
X70613033Y-75757708D01*
X70421500Y-75828027D01*
X70294500Y-75828027D01*
X70102967Y-75757708D01*
X69900982Y-75818976D01*
X69686771Y-75930099D01*
X69498355Y-76080877D01*
X69342974Y-76265516D01*
X69226600Y-76476921D01*
X69153705Y-76706967D01*
X69022295Y-76706967D01*
X68949400Y-76476921D01*
X68833026Y-76265516D01*
X68677645Y-76080877D01*
X68489229Y-75930099D01*
X68275018Y-75818976D01*
X68073033Y-75757708D01*
X67881500Y-75828027D01*
X67754500Y-75828027D01*
X67562967Y-75757708D01*
X67360982Y-75818976D01*
X67146771Y-75930099D01*
X66958355Y-76080877D01*
X66802974Y-76265516D01*
X66686600Y-76476921D01*
X66613705Y-76706967D01*
X66482388Y-76706967D01*
X66461693Y-76602931D01*
X66368898Y-76378903D01*
X66234180Y-76177283D01*
X66062717Y-76005820D01*
X65861097Y-75871102D01*
X65859000Y-75870233D01*
X65859000Y-73434536D01*
X65861811Y-73405999D01*
X65859000Y-73377460D01*
X65850593Y-73292104D01*
X65817371Y-73182585D01*
X65763421Y-73081652D01*
X65690817Y-72993183D01*
X65668641Y-72974984D01*
X65455017Y-72761360D01*
X65436817Y-72739183D01*
X65348348Y-72666579D01*
X65247415Y-72612629D01*
X65137896Y-72579407D01*
X65052540Y-72571000D01*
X65024000Y-72568189D01*
X64995460Y-72571000D01*
X64342990Y-72571000D01*
X64342990Y-69782927D01*
X68915000Y-69782927D01*
X68915000Y-69917073D01*
X68941171Y-70048640D01*
X68992506Y-70172574D01*
X69067033Y-70284112D01*
X69161888Y-70378967D01*
X69273426Y-70453494D01*
X69397360Y-70504829D01*
X69437071Y-70512728D01*
X69672987Y-70748645D01*
X69691183Y-70770817D01*
X69779652Y-70843421D01*
X69880585Y-70897371D01*
X69990104Y-70930593D01*
X70075460Y-70939000D01*
X70075462Y-70939000D01*
X70103999Y-70941811D01*
X70132536Y-70939000D01*
X81060469Y-70939000D01*
X81015171Y-71048360D01*
X80989000Y-71179927D01*
X80989000Y-71234776D01*
X80970640Y-71227171D01*
X80839073Y-71201000D01*
X80704927Y-71201000D01*
X80573360Y-71227171D01*
X80449426Y-71278506D01*
X80337888Y-71353033D01*
X80243033Y-71447888D01*
X80168506Y-71559426D01*
X80117171Y-71683360D01*
X80091000Y-71814927D01*
X80091000Y-71949073D01*
X80117171Y-72080640D01*
X80168506Y-72204574D01*
X80243033Y-72316112D01*
X80291001Y-72364080D01*
X80291000Y-73431921D01*
X80243033Y-73479888D01*
X80168506Y-73591426D01*
X80117171Y-73715360D01*
X80091000Y-73846927D01*
X80091000Y-73981073D01*
X80117171Y-74112640D01*
X80168506Y-74236574D01*
X80243033Y-74348112D01*
X80337888Y-74442967D01*
X80449426Y-74517494D01*
X80573360Y-74568829D01*
X80704927Y-74595000D01*
X80839073Y-74595000D01*
X80970640Y-74568829D01*
X81094574Y-74517494D01*
X81206112Y-74442967D01*
X81300967Y-74348112D01*
X81375494Y-74236574D01*
X81405449Y-74164256D01*
X81462360Y-74187829D01*
X81593927Y-74214000D01*
X81728073Y-74214000D01*
X81859640Y-74187829D01*
X81983574Y-74136494D01*
X82095112Y-74061967D01*
X82189967Y-73967112D01*
X82264494Y-73855574D01*
X82315829Y-73731640D01*
X82342000Y-73600073D01*
X82342000Y-73465927D01*
X82315829Y-73334360D01*
X82264494Y-73210426D01*
X82189967Y-73098888D01*
X82142000Y-73050921D01*
X82142000Y-71738079D01*
X82198967Y-71681112D01*
X82273494Y-71569574D01*
X82324829Y-71445640D01*
X82351000Y-71314073D01*
X82351000Y-71179927D01*
X82324829Y-71048360D01*
X82279531Y-70939000D01*
X87855460Y-70939000D01*
X87884000Y-70941811D01*
X87912540Y-70939000D01*
X87997896Y-70930593D01*
X88107415Y-70897371D01*
X88208348Y-70843421D01*
X88296817Y-70770817D01*
X88315017Y-70748640D01*
X88594641Y-70469016D01*
X88616817Y-70450817D01*
X88689421Y-70362348D01*
X88743371Y-70261415D01*
X88776593Y-70151896D01*
X88785000Y-70066540D01*
X88785000Y-70066538D01*
X88787811Y-70038001D01*
X88785000Y-70009464D01*
X88785000Y-69079239D01*
X88807494Y-69045574D01*
X88858829Y-68921640D01*
X88885000Y-68790073D01*
X88885000Y-68655927D01*
X88858829Y-68524360D01*
X88807494Y-68400426D01*
X88732967Y-68288888D01*
X88638112Y-68194033D01*
X88526574Y-68119506D01*
X88402640Y-68068171D01*
X88271073Y-68042000D01*
X88136927Y-68042000D01*
X88005360Y-68068171D01*
X87881426Y-68119506D01*
X87769888Y-68194033D01*
X87675033Y-68288888D01*
X87600506Y-68400426D01*
X87549171Y-68524360D01*
X87523000Y-68655927D01*
X87523000Y-68790073D01*
X87549171Y-68921640D01*
X87600506Y-69045574D01*
X87623001Y-69079240D01*
X87623000Y-69777000D01*
X70344658Y-69777000D01*
X70258728Y-69691071D01*
X70250829Y-69651360D01*
X70199494Y-69527426D01*
X70124967Y-69415888D01*
X70030112Y-69321033D01*
X69918574Y-69246506D01*
X69794640Y-69195171D01*
X69663073Y-69169000D01*
X69528927Y-69169000D01*
X69397360Y-69195171D01*
X69273426Y-69246506D01*
X69161888Y-69321033D01*
X69067033Y-69415888D01*
X68992506Y-69527426D01*
X68941171Y-69651360D01*
X68915000Y-69782927D01*
X64342990Y-69782927D01*
X64342990Y-56701927D01*
X66502000Y-56701927D01*
X66502000Y-56836073D01*
X66528171Y-56967640D01*
X66579506Y-57091574D01*
X66654033Y-57203112D01*
X66748888Y-57297967D01*
X66860426Y-57372494D01*
X66984360Y-57423829D01*
X67115927Y-57450000D01*
X67250073Y-57450000D01*
X67381640Y-57423829D01*
X67505574Y-57372494D01*
X67539239Y-57350000D01*
X77651000Y-57350000D01*
X77651001Y-60884813D01*
X77628508Y-60918476D01*
X77577173Y-61042410D01*
X77551002Y-61173977D01*
X77551002Y-61308123D01*
X77577173Y-61439690D01*
X77628508Y-61563624D01*
X77703035Y-61675162D01*
X77797890Y-61770017D01*
X77909428Y-61844544D01*
X78033362Y-61895879D01*
X78164929Y-61922050D01*
X78299075Y-61922050D01*
X78430642Y-61895879D01*
X78554576Y-61844544D01*
X78666114Y-61770017D01*
X78760969Y-61675162D01*
X78835496Y-61563624D01*
X78886831Y-61439690D01*
X78913002Y-61308123D01*
X78913002Y-61173977D01*
X78886831Y-61042410D01*
X78835496Y-60918476D01*
X78813000Y-60884808D01*
X78813000Y-57125239D01*
X78835494Y-57091574D01*
X78886829Y-56967640D01*
X78913000Y-56836073D01*
X78913000Y-56701927D01*
X78886829Y-56570360D01*
X78835494Y-56446426D01*
X78760967Y-56334888D01*
X78666112Y-56240033D01*
X78554574Y-56165506D01*
X78430640Y-56114171D01*
X78299073Y-56088000D01*
X78164927Y-56088000D01*
X78033360Y-56114171D01*
X77909426Y-56165506D01*
X77875761Y-56188000D01*
X67539239Y-56188000D01*
X67505574Y-56165506D01*
X67381640Y-56114171D01*
X67250073Y-56088000D01*
X67115927Y-56088000D01*
X66984360Y-56114171D01*
X66860426Y-56165506D01*
X66748888Y-56240033D01*
X66654033Y-56334888D01*
X66579506Y-56446426D01*
X66528171Y-56570360D01*
X66502000Y-56701927D01*
X64342990Y-56701927D01*
X64342990Y-52573031D01*
X64374478Y-52598872D01*
X64458039Y-52643536D01*
X64548708Y-52671040D01*
X64619374Y-52678000D01*
X64619375Y-52678000D01*
X64642999Y-52680327D01*
X64666623Y-52678000D01*
X67700812Y-52678000D01*
X67743102Y-52780097D01*
X67877820Y-52981717D01*
X68049283Y-53153180D01*
X68250903Y-53287898D01*
X68474931Y-53380693D01*
X68712757Y-53428000D01*
X68955243Y-53428000D01*
X69193069Y-53380693D01*
X69417097Y-53287898D01*
X69503002Y-53230498D01*
X69503002Y-55094364D01*
X69500674Y-55118000D01*
X69509961Y-55212292D01*
X69537466Y-55302960D01*
X69537466Y-55302961D01*
X69582130Y-55386522D01*
X69642238Y-55459764D01*
X69660590Y-55474825D01*
X69881171Y-55695406D01*
X69896237Y-55713764D01*
X69969479Y-55773872D01*
X70053040Y-55818536D01*
X70143709Y-55846040D01*
X70214375Y-55853000D01*
X70214376Y-55853000D01*
X70238000Y-55855327D01*
X70261624Y-55853000D01*
X81891374Y-55853000D01*
X81915000Y-55855327D01*
X81919005Y-55854933D01*
X81919005Y-55870078D01*
X81945176Y-56001645D01*
X81996511Y-56125579D01*
X82071038Y-56237117D01*
X82119005Y-56285084D01*
X82119005Y-56668378D01*
X82116678Y-56692005D01*
X82125965Y-56786297D01*
X82134309Y-56813801D01*
X82153469Y-56876965D01*
X82198133Y-56960527D01*
X82258241Y-57033769D01*
X82276599Y-57048835D01*
X82631000Y-57403237D01*
X82631000Y-57471073D01*
X82657171Y-57602640D01*
X82708506Y-57726574D01*
X82783033Y-57838112D01*
X82877888Y-57932967D01*
X82989426Y-58007494D01*
X83113360Y-58058829D01*
X83244927Y-58085000D01*
X83379073Y-58085000D01*
X83510640Y-58058829D01*
X83634574Y-58007494D01*
X83746112Y-57932967D01*
X83840967Y-57838112D01*
X83915494Y-57726574D01*
X83966829Y-57602640D01*
X83993000Y-57471073D01*
X83993000Y-57336927D01*
X83966829Y-57205360D01*
X83915494Y-57081426D01*
X83840967Y-56969888D01*
X83746112Y-56875033D01*
X83634574Y-56800506D01*
X83510640Y-56749171D01*
X83379073Y-56723000D01*
X83311237Y-56723000D01*
X83081005Y-56492769D01*
X83081005Y-56285084D01*
X83128972Y-56237117D01*
X83203499Y-56125579D01*
X83254834Y-56001645D01*
X83281005Y-55870078D01*
X83281005Y-55735932D01*
X83254834Y-55604365D01*
X83203499Y-55480431D01*
X83128972Y-55368893D01*
X83034117Y-55274038D01*
X82922579Y-55199511D01*
X82798645Y-55148176D01*
X82667078Y-55122005D01*
X82651933Y-55122005D01*
X82652327Y-55118001D01*
X82650000Y-55094377D01*
X82650000Y-54081000D01*
X83717921Y-54081000D01*
X83765888Y-54128967D01*
X83877426Y-54203494D01*
X84001360Y-54254829D01*
X84132927Y-54281000D01*
X84267073Y-54281000D01*
X84398640Y-54254829D01*
X84522574Y-54203494D01*
X84617347Y-54140169D01*
X84617347Y-60166409D01*
X84602967Y-60144888D01*
X84508112Y-60050033D01*
X84396574Y-59975506D01*
X84272640Y-59924171D01*
X84141073Y-59898000D01*
X84006927Y-59898000D01*
X83875360Y-59924171D01*
X83751426Y-59975506D01*
X83639888Y-60050033D01*
X83591921Y-60098000D01*
X82523000Y-60098000D01*
X82523000Y-58648079D01*
X82570967Y-58600112D01*
X82645494Y-58488574D01*
X82696829Y-58364640D01*
X82723000Y-58233073D01*
X82723000Y-58098927D01*
X82696829Y-57967360D01*
X82645494Y-57843426D01*
X82570967Y-57731888D01*
X82476112Y-57637033D01*
X82364574Y-57562506D01*
X82240640Y-57511171D01*
X82109073Y-57485000D01*
X81974927Y-57485000D01*
X81843360Y-57511171D01*
X81719426Y-57562506D01*
X81607888Y-57637033D01*
X81513033Y-57731888D01*
X81438506Y-57843426D01*
X81387171Y-57967360D01*
X81361000Y-58098927D01*
X81361000Y-58233073D01*
X81387171Y-58364640D01*
X81438506Y-58488574D01*
X81513033Y-58600112D01*
X81561000Y-58648079D01*
X81561001Y-60301364D01*
X81558673Y-60325000D01*
X81567960Y-60419292D01*
X81595465Y-60509961D01*
X81640129Y-60593522D01*
X81700237Y-60666764D01*
X81718589Y-60681825D01*
X81939170Y-60902406D01*
X81954236Y-60920764D01*
X82027478Y-60980872D01*
X82111039Y-61025536D01*
X82201708Y-61053040D01*
X82272374Y-61060000D01*
X82272375Y-61060000D01*
X82295999Y-61062327D01*
X82319623Y-61060000D01*
X83591921Y-61060000D01*
X83639888Y-61107967D01*
X83751426Y-61182494D01*
X83875360Y-61233829D01*
X84006927Y-61260000D01*
X84141073Y-61260000D01*
X84272640Y-61233829D01*
X84396574Y-61182494D01*
X84508112Y-61107967D01*
X84602967Y-61013112D01*
X84617347Y-60991591D01*
X84617347Y-65513001D01*
X80714625Y-65513001D01*
X80690999Y-65510674D01*
X80596706Y-65519961D01*
X80506037Y-65547465D01*
X80461373Y-65571339D01*
X80422477Y-65592129D01*
X80397046Y-65613000D01*
X80323927Y-65613000D01*
X80192360Y-65639171D01*
X80068426Y-65690506D01*
X79983000Y-65747586D01*
X79983000Y-57886079D01*
X80030967Y-57838112D01*
X80105494Y-57726574D01*
X80156829Y-57602640D01*
X80183000Y-57471073D01*
X80183000Y-57336927D01*
X80156829Y-57205360D01*
X80105494Y-57081426D01*
X80030967Y-56969888D01*
X79936112Y-56875033D01*
X79824574Y-56800506D01*
X79700640Y-56749171D01*
X79569073Y-56723000D01*
X79434927Y-56723000D01*
X79303360Y-56749171D01*
X79179426Y-56800506D01*
X79067888Y-56875033D01*
X78973033Y-56969888D01*
X78898506Y-57081426D01*
X78847171Y-57205360D01*
X78821000Y-57336927D01*
X78821000Y-57471073D01*
X78847171Y-57602640D01*
X78898506Y-57726574D01*
X78973033Y-57838112D01*
X79021000Y-57886079D01*
X79021001Y-66264292D01*
X78971339Y-66274171D01*
X78847405Y-66325506D01*
X78735867Y-66400033D01*
X78641012Y-66494888D01*
X78566485Y-66606426D01*
X78515150Y-66730360D01*
X78488979Y-66861927D01*
X78488979Y-66996073D01*
X78515150Y-67127640D01*
X78566485Y-67251574D01*
X78641012Y-67363112D01*
X78735867Y-67457967D01*
X78847405Y-67532494D01*
X78971339Y-67583829D01*
X79102906Y-67610000D01*
X79237052Y-67610000D01*
X79368619Y-67583829D01*
X79492553Y-67532494D01*
X79604091Y-67457967D01*
X79698946Y-67363112D01*
X79773473Y-67251574D01*
X79824808Y-67127640D01*
X79850979Y-66996073D01*
X79850979Y-66929951D01*
X79903872Y-66865501D01*
X79924662Y-66826605D01*
X79937155Y-66803234D01*
X79956888Y-66822967D01*
X80068426Y-66897494D01*
X80192360Y-66948829D01*
X80323927Y-66975000D01*
X80410980Y-66975000D01*
X80422170Y-67031252D01*
X80473505Y-67155186D01*
X80548032Y-67266724D01*
X80642887Y-67361579D01*
X80754425Y-67436106D01*
X80878359Y-67487441D01*
X81009926Y-67513612D01*
X81144072Y-67513612D01*
X81275639Y-67487441D01*
X81399573Y-67436106D01*
X81511111Y-67361579D01*
X81559078Y-67313612D01*
X85543762Y-67313612D01*
X85567388Y-67315939D01*
X85591014Y-67313612D01*
X85661680Y-67306652D01*
X85752349Y-67279148D01*
X85835910Y-67234484D01*
X85909152Y-67174376D01*
X85922950Y-67157562D01*
X85939764Y-67143764D01*
X85976620Y-67098855D01*
X86130166Y-67252401D01*
X86145236Y-67270764D01*
X86218478Y-67330872D01*
X86257374Y-67351662D01*
X86302038Y-67375536D01*
X86392707Y-67403040D01*
X86487000Y-67412327D01*
X86510626Y-67410000D01*
X89687921Y-67410000D01*
X89735888Y-67457967D01*
X89847426Y-67532494D01*
X89971360Y-67583829D01*
X90102927Y-67610000D01*
X90237073Y-67610000D01*
X90368640Y-67583829D01*
X90492574Y-67532494D01*
X90604112Y-67457967D01*
X90698967Y-67363112D01*
X90773494Y-67251574D01*
X90824829Y-67127640D01*
X90851000Y-66996073D01*
X90851000Y-66861927D01*
X90824829Y-66730360D01*
X90773494Y-66606426D01*
X90698967Y-66494888D01*
X90604112Y-66400033D01*
X90492574Y-66325506D01*
X90368640Y-66274171D01*
X90237073Y-66248000D01*
X90102927Y-66248000D01*
X89971360Y-66274171D01*
X89847426Y-66325506D01*
X89735888Y-66400033D01*
X89687921Y-66448000D01*
X86686235Y-66448000D01*
X86679010Y-66440774D01*
X86679010Y-51080308D01*
X86696517Y-51122574D01*
X86719012Y-51156240D01*
X86719011Y-61617471D01*
X86716200Y-61646011D01*
X86719011Y-61674550D01*
X86727418Y-61759906D01*
X86760640Y-61869425D01*
X86814590Y-61970358D01*
X86887194Y-62058828D01*
X86909371Y-62077028D01*
X87103983Y-62271640D01*
X87122183Y-62293817D01*
X87210652Y-62366421D01*
X87311585Y-62420371D01*
X87421104Y-62453593D01*
X87535000Y-62464811D01*
X87563540Y-62462000D01*
X88967276Y-62462000D01*
X89046626Y-62653568D01*
X89225119Y-62920702D01*
X89452298Y-63147881D01*
X89719432Y-63326374D01*
X90016255Y-63449322D01*
X90331360Y-63512000D01*
X90652640Y-63512000D01*
X90967745Y-63449322D01*
X91264568Y-63326374D01*
X91531702Y-63147881D01*
X91758881Y-62920702D01*
X91937374Y-62653568D01*
X92060322Y-62356745D01*
X92123000Y-62041640D01*
X92123000Y-61720360D01*
X92060322Y-61405255D01*
X91937374Y-61108432D01*
X91758881Y-60841298D01*
X91531702Y-60614119D01*
X91264568Y-60435626D01*
X90967745Y-60312678D01*
X90652640Y-60250000D01*
X90331360Y-60250000D01*
X90016255Y-60312678D01*
X89719432Y-60435626D01*
X89452298Y-60614119D01*
X89225119Y-60841298D01*
X89046626Y-61108432D01*
X88967276Y-61300000D01*
X87881011Y-61300000D01*
X87881011Y-57720360D01*
X88861000Y-57720360D01*
X88861000Y-58041640D01*
X88923678Y-58356745D01*
X89046626Y-58653568D01*
X89225119Y-58920702D01*
X89452298Y-59147881D01*
X89719432Y-59326374D01*
X90016255Y-59449322D01*
X90331360Y-59512000D01*
X90652640Y-59512000D01*
X90967745Y-59449322D01*
X91264568Y-59326374D01*
X91531702Y-59147881D01*
X91758881Y-58920702D01*
X91937374Y-58653568D01*
X92060322Y-58356745D01*
X92123000Y-58041640D01*
X92123000Y-57720360D01*
X92060322Y-57405255D01*
X91937374Y-57108432D01*
X91758881Y-56841298D01*
X91531702Y-56614119D01*
X91264568Y-56435626D01*
X90967745Y-56312678D01*
X90652640Y-56250000D01*
X90331360Y-56250000D01*
X90016255Y-56312678D01*
X89719432Y-56435626D01*
X89452298Y-56614119D01*
X89225119Y-56841298D01*
X89046626Y-57108432D01*
X88923678Y-57405255D01*
X88861000Y-57720360D01*
X87881011Y-57720360D01*
X87881011Y-53720360D01*
X88861000Y-53720360D01*
X88861000Y-54041640D01*
X88923678Y-54356745D01*
X89046626Y-54653568D01*
X89225119Y-54920702D01*
X89452298Y-55147881D01*
X89719432Y-55326374D01*
X90016255Y-55449322D01*
X90331360Y-55512000D01*
X90652640Y-55512000D01*
X90967745Y-55449322D01*
X91264568Y-55326374D01*
X91531702Y-55147881D01*
X91758881Y-54920702D01*
X91937374Y-54653568D01*
X92060322Y-54356745D01*
X92123000Y-54041640D01*
X92123000Y-53720360D01*
X92060322Y-53405255D01*
X91937374Y-53108432D01*
X91758881Y-52841298D01*
X91531702Y-52614119D01*
X91264568Y-52435626D01*
X90967745Y-52312678D01*
X90652640Y-52250000D01*
X90331360Y-52250000D01*
X90016255Y-52312678D01*
X89719432Y-52435626D01*
X89452298Y-52614119D01*
X89225119Y-52841298D01*
X89046626Y-53108432D01*
X88923678Y-53405255D01*
X88861000Y-53720360D01*
X87881011Y-53720360D01*
X87881011Y-51156239D01*
X87903505Y-51122574D01*
X87954840Y-50998640D01*
X87981011Y-50867073D01*
X87981011Y-50732927D01*
X87954840Y-50601360D01*
X87903505Y-50477426D01*
X87828978Y-50365888D01*
X87734123Y-50271033D01*
X87622585Y-50196506D01*
X87498651Y-50145171D01*
X87367084Y-50119000D01*
X87232938Y-50119000D01*
X87101371Y-50145171D01*
X86977437Y-50196506D01*
X86865899Y-50271033D01*
X86771044Y-50365888D01*
X86696517Y-50477426D01*
X86679010Y-50519692D01*
X86679010Y-49720360D01*
X88861000Y-49720360D01*
X88861000Y-50041640D01*
X88923678Y-50356745D01*
X89046626Y-50653568D01*
X89225119Y-50920702D01*
X89452298Y-51147881D01*
X89719432Y-51326374D01*
X90016255Y-51449322D01*
X90331360Y-51512000D01*
X90652640Y-51512000D01*
X90967745Y-51449322D01*
X91264568Y-51326374D01*
X91531702Y-51147881D01*
X91758881Y-50920702D01*
X91937374Y-50653568D01*
X92060322Y-50356745D01*
X92123000Y-50041640D01*
X92123000Y-49720360D01*
X92060322Y-49405255D01*
X91937374Y-49108432D01*
X91758881Y-48841298D01*
X91531702Y-48614119D01*
X91264568Y-48435626D01*
X90967745Y-48312678D01*
X90652640Y-48250000D01*
X90331360Y-48250000D01*
X90016255Y-48312678D01*
X89719432Y-48435626D01*
X89452298Y-48614119D01*
X89225119Y-48841298D01*
X89046626Y-49108432D01*
X88923678Y-49405255D01*
X88861000Y-49720360D01*
X86679010Y-49720360D01*
X86679010Y-43535079D01*
X86726977Y-43487112D01*
X86801504Y-43375574D01*
X86852839Y-43251640D01*
X86859061Y-43220360D01*
X88861000Y-43220360D01*
X88861000Y-43541640D01*
X88923678Y-43856745D01*
X89046626Y-44153568D01*
X89225119Y-44420702D01*
X89452298Y-44647881D01*
X89719432Y-44826374D01*
X90016255Y-44949322D01*
X90331360Y-45012000D01*
X90652640Y-45012000D01*
X90967745Y-44949322D01*
X91264568Y-44826374D01*
X91531702Y-44647881D01*
X91758881Y-44420702D01*
X91937374Y-44153568D01*
X92060322Y-43856745D01*
X92123000Y-43541640D01*
X92123000Y-43220360D01*
X92060322Y-42905255D01*
X91937374Y-42608432D01*
X91758881Y-42341298D01*
X91531702Y-42114119D01*
X91264568Y-41935626D01*
X90967745Y-41812678D01*
X90652640Y-41750000D01*
X90331360Y-41750000D01*
X90016255Y-41812678D01*
X89719432Y-41935626D01*
X89452298Y-42114119D01*
X89225119Y-42341298D01*
X89046626Y-42608432D01*
X88923678Y-42905255D01*
X88861000Y-43220360D01*
X86859061Y-43220360D01*
X86879010Y-43120073D01*
X86879010Y-42985927D01*
X86852839Y-42854360D01*
X86801504Y-42730426D01*
X86726977Y-42618888D01*
X86632122Y-42524033D01*
X86520584Y-42449506D01*
X86396650Y-42398171D01*
X86265083Y-42372000D01*
X86130937Y-42372000D01*
X86079000Y-42382331D01*
X86079000Y-39220360D01*
X88861000Y-39220360D01*
X88861000Y-39541640D01*
X88923678Y-39856745D01*
X89046626Y-40153568D01*
X89225119Y-40420702D01*
X89452298Y-40647881D01*
X89719432Y-40826374D01*
X90016255Y-40949322D01*
X90331360Y-41012000D01*
X90652640Y-41012000D01*
X90967745Y-40949322D01*
X91264568Y-40826374D01*
X91531702Y-40647881D01*
X91758881Y-40420702D01*
X91937374Y-40153568D01*
X92060322Y-39856745D01*
X92123000Y-39541640D01*
X92123000Y-39220360D01*
X92060322Y-38905255D01*
X91937374Y-38608432D01*
X91758881Y-38341298D01*
X91531702Y-38114119D01*
X91264568Y-37935626D01*
X90967745Y-37812678D01*
X90652640Y-37750000D01*
X90331360Y-37750000D01*
X90016255Y-37812678D01*
X89719432Y-37935626D01*
X89452298Y-38114119D01*
X89225119Y-38341298D01*
X89046626Y-38608432D01*
X88923678Y-38905255D01*
X88861000Y-39220360D01*
X86079000Y-39220360D01*
X86079000Y-36516497D01*
X89446306Y-36516497D01*
X89580780Y-36743220D01*
X89864045Y-36894816D01*
X90171442Y-36988237D01*
X90491158Y-37019892D01*
X90810906Y-36988566D01*
X91118399Y-36895462D01*
X91401819Y-36744157D01*
X91403220Y-36743220D01*
X91537694Y-36516497D01*
X90492000Y-35470803D01*
X89446306Y-36516497D01*
X86079000Y-36516497D01*
X86079000Y-35380158D01*
X88853108Y-35380158D01*
X88884434Y-35699906D01*
X88977538Y-36007399D01*
X89128843Y-36290819D01*
X89129780Y-36292220D01*
X89356503Y-36426694D01*
X90402197Y-35381000D01*
X90581803Y-35381000D01*
X91627497Y-36426694D01*
X91854220Y-36292220D01*
X92005816Y-36008955D01*
X92099237Y-35701558D01*
X92130892Y-35381842D01*
X92099566Y-35062094D01*
X92006462Y-34754601D01*
X91855157Y-34471181D01*
X91854220Y-34469780D01*
X91627497Y-34335306D01*
X90581803Y-35381000D01*
X90402197Y-35381000D01*
X89356503Y-34335306D01*
X89129780Y-34469780D01*
X88978184Y-34753045D01*
X88884763Y-35060442D01*
X88853108Y-35380158D01*
X86079000Y-35380158D01*
X86079000Y-34245503D01*
X89446306Y-34245503D01*
X90492000Y-35291197D01*
X91537694Y-34245503D01*
X91403220Y-34018780D01*
X91119955Y-33867184D01*
X90812558Y-33773763D01*
X90492842Y-33742108D01*
X90173094Y-33773434D01*
X89865601Y-33866538D01*
X89582181Y-34017843D01*
X89580780Y-34018780D01*
X89446306Y-34245503D01*
X86079000Y-34245503D01*
X86079000Y-29835188D01*
X86181097Y-29792898D01*
X86382717Y-29658180D01*
X86554180Y-29486717D01*
X86688898Y-29285097D01*
X86781693Y-29061069D01*
X86829000Y-28823243D01*
X86829000Y-28580757D01*
X86907000Y-28580757D01*
X86907000Y-28823243D01*
X86954307Y-29061069D01*
X87047102Y-29285097D01*
X87181820Y-29486717D01*
X87353283Y-29658180D01*
X87554903Y-29792898D01*
X87778931Y-29885693D01*
X88016757Y-29933000D01*
X88259243Y-29933000D01*
X88497069Y-29885693D01*
X88721097Y-29792898D01*
X88922717Y-29658180D01*
X89094180Y-29486717D01*
X89228898Y-29285097D01*
X89321693Y-29061069D01*
X89369000Y-28823243D01*
X89369000Y-28580757D01*
X89321693Y-28342931D01*
X89228898Y-28118903D01*
X89094180Y-27917283D01*
X89028897Y-27852000D01*
X89445157Y-27852000D01*
X89445157Y-29552000D01*
X89452513Y-29626689D01*
X89474299Y-29698508D01*
X89509678Y-29764696D01*
X89557289Y-29822711D01*
X89615304Y-29870322D01*
X89681492Y-29905701D01*
X89753311Y-29927487D01*
X89828000Y-29934843D01*
X91528000Y-29934843D01*
X91602689Y-29927487D01*
X91674508Y-29905701D01*
X91740696Y-29870322D01*
X91798711Y-29822711D01*
X91846322Y-29764696D01*
X91881701Y-29698508D01*
X91903487Y-29626689D01*
X91910843Y-29552000D01*
X91910843Y-27852000D01*
X91903487Y-27777311D01*
X91881701Y-27705492D01*
X91846322Y-27639304D01*
X91798711Y-27581289D01*
X91740696Y-27533678D01*
X91674508Y-27498299D01*
X91602689Y-27476513D01*
X91528000Y-27469157D01*
X89828000Y-27469157D01*
X89753311Y-27476513D01*
X89681492Y-27498299D01*
X89615304Y-27533678D01*
X89557289Y-27581289D01*
X89509678Y-27639304D01*
X89474299Y-27705492D01*
X89452513Y-27777311D01*
X89445157Y-27852000D01*
X89028897Y-27852000D01*
X88922717Y-27745820D01*
X88721097Y-27611102D01*
X88497069Y-27518307D01*
X88259243Y-27471000D01*
X88016757Y-27471000D01*
X87778931Y-27518307D01*
X87554903Y-27611102D01*
X87353283Y-27745820D01*
X87181820Y-27917283D01*
X87047102Y-28118903D01*
X86954307Y-28342931D01*
X86907000Y-28580757D01*
X86829000Y-28580757D01*
X86781693Y-28342931D01*
X86688898Y-28118903D01*
X86554180Y-27917283D01*
X86382717Y-27745820D01*
X86181097Y-27611102D01*
X85957069Y-27518307D01*
X85719243Y-27471000D01*
X85476757Y-27471000D01*
X85238931Y-27518307D01*
X85014903Y-27611102D01*
X84813283Y-27745820D01*
X84641820Y-27917283D01*
X84507102Y-28118903D01*
X84414307Y-28342931D01*
X84367000Y-28580757D01*
X84367000Y-28823243D01*
X84414307Y-29061069D01*
X84507102Y-29285097D01*
X84641820Y-29486717D01*
X84646103Y-29491000D01*
X84009897Y-29491000D01*
X84014180Y-29486717D01*
X84148898Y-29285097D01*
X84241693Y-29061069D01*
X84289000Y-28823243D01*
X84289000Y-28580757D01*
X84241693Y-28342931D01*
X84148898Y-28118903D01*
X84014180Y-27917283D01*
X83842717Y-27745820D01*
X83641097Y-27611102D01*
X83417069Y-27518307D01*
X83179243Y-27471000D01*
X82936757Y-27471000D01*
X82698931Y-27518307D01*
X82474903Y-27611102D01*
X82273283Y-27745820D01*
X82101820Y-27917283D01*
X81967102Y-28118903D01*
X81874307Y-28342931D01*
X81827000Y-28580757D01*
X81827000Y-28823243D01*
X81874307Y-29061069D01*
X81967102Y-29285097D01*
X82101820Y-29486717D01*
X82273283Y-29658180D01*
X82474903Y-29792898D01*
X82575693Y-29834646D01*
X82574673Y-29845000D01*
X82583960Y-29939292D01*
X82607581Y-30017157D01*
X82611465Y-30029961D01*
X82656129Y-30113522D01*
X82716237Y-30186764D01*
X82734589Y-30201825D01*
X82828170Y-30295406D01*
X82843236Y-30313764D01*
X82916478Y-30373872D01*
X83000039Y-30418536D01*
X83069605Y-30439638D01*
X83090707Y-30446040D01*
X83184999Y-30455327D01*
X83208626Y-30453000D01*
X84617346Y-30453000D01*
X84617346Y-42317133D01*
X84565418Y-42306804D01*
X84431272Y-42306804D01*
X84299705Y-42332975D01*
X84175771Y-42384310D01*
X84064233Y-42458837D01*
X83969378Y-42553692D01*
X83894851Y-42665230D01*
X83880863Y-42699000D01*
X79095079Y-42699000D01*
X79047112Y-42651033D01*
X78935574Y-42576506D01*
X78811640Y-42525171D01*
X78680073Y-42499000D01*
X78545927Y-42499000D01*
X78414360Y-42525171D01*
X78290426Y-42576506D01*
X78178888Y-42651033D01*
X78084033Y-42745888D01*
X78009506Y-42857426D01*
X77958171Y-42981360D01*
X77932000Y-43112927D01*
X77932000Y-43247073D01*
X77958171Y-43378640D01*
X78009506Y-43502574D01*
X78021944Y-43521189D01*
X78021039Y-43521464D01*
X77937478Y-43566128D01*
X77864236Y-43626236D01*
X77849174Y-43644589D01*
X77270764Y-44223000D01*
X64539623Y-44223000D01*
X64515999Y-44220673D01*
X64492375Y-44223000D01*
X64492374Y-44223000D01*
X64421708Y-44229960D01*
X64342990Y-44253839D01*
X64342990Y-42237000D01*
X65937761Y-42237000D01*
X65971426Y-42259494D01*
X66095360Y-42310829D01*
X66226927Y-42337000D01*
X66361073Y-42337000D01*
X66492640Y-42310829D01*
X66616574Y-42259494D01*
X66728112Y-42184967D01*
X66822967Y-42090112D01*
X66897494Y-41978574D01*
X66948829Y-41854640D01*
X66975000Y-41723073D01*
X66975000Y-41588927D01*
X66948829Y-41457360D01*
X66897494Y-41333426D01*
X66822967Y-41221888D01*
X66728112Y-41127033D01*
X66616574Y-41052506D01*
X66492640Y-41001171D01*
X66361073Y-40975000D01*
X66226927Y-40975000D01*
X66095360Y-41001171D01*
X65971426Y-41052506D01*
X65937761Y-41075000D01*
X64036540Y-41075000D01*
X64008000Y-41072189D01*
X63979460Y-41075000D01*
X63894104Y-41083407D01*
X63784585Y-41116629D01*
X63683652Y-41170579D01*
X63595183Y-41243183D01*
X63576983Y-41265360D01*
X63371350Y-41470993D01*
X63349173Y-41489193D01*
X63276570Y-41577662D01*
X63276569Y-41577663D01*
X63222619Y-41678596D01*
X63189397Y-41788115D01*
X63178179Y-41902010D01*
X63180990Y-41930550D01*
X63180990Y-49263911D01*
X63172112Y-49255033D01*
X63060574Y-49180506D01*
X62936640Y-49129171D01*
X62805073Y-49103000D01*
X62670927Y-49103000D01*
X62539360Y-49129171D01*
X62415426Y-49180506D01*
X62303888Y-49255033D01*
X62209033Y-49349888D01*
X62134506Y-49461426D01*
X62083171Y-49585360D01*
X62057000Y-49716927D01*
X62057000Y-49851073D01*
X62083171Y-49982640D01*
X62134506Y-50106574D01*
X62157000Y-50140239D01*
X62157001Y-75870233D01*
X62154903Y-75871102D01*
X61953283Y-76005820D01*
X61781820Y-76177283D01*
X61647102Y-76378903D01*
X61554307Y-76602931D01*
X61507000Y-76840757D01*
X61429000Y-76840757D01*
X61381693Y-76602931D01*
X61288898Y-76378903D01*
X61154180Y-76177283D01*
X60982717Y-76005820D01*
X60781097Y-75871102D01*
X60557069Y-75778307D01*
X60319243Y-75731000D01*
X60076757Y-75731000D01*
X59838931Y-75778307D01*
X59614903Y-75871102D01*
X59413283Y-76005820D01*
X59241820Y-76177283D01*
X59107102Y-76378903D01*
X59014307Y-76602931D01*
X58967000Y-76840757D01*
X58889000Y-76840757D01*
X58841693Y-76602931D01*
X58748898Y-76378903D01*
X58614180Y-76177283D01*
X58442717Y-76005820D01*
X58241097Y-75871102D01*
X58017069Y-75778307D01*
X57779243Y-75731000D01*
X57536757Y-75731000D01*
X57298931Y-75778307D01*
X57074903Y-75871102D01*
X56873283Y-76005820D01*
X56701820Y-76177283D01*
X56567102Y-76378903D01*
X56474307Y-76602931D01*
X56427000Y-76840757D01*
X56349000Y-76840757D01*
X56301693Y-76602931D01*
X56208898Y-76378903D01*
X56074180Y-76177283D01*
X55902717Y-76005820D01*
X55701097Y-75871102D01*
X55477069Y-75778307D01*
X55239243Y-75731000D01*
X54996757Y-75731000D01*
X54758931Y-75778307D01*
X54534903Y-75871102D01*
X54333283Y-76005820D01*
X54161820Y-76177283D01*
X54027102Y-76378903D01*
X53934307Y-76602931D01*
X53887000Y-76840757D01*
X40030000Y-76840757D01*
X40030000Y-31128757D01*
X44743000Y-31128757D01*
X44743000Y-31371243D01*
X44790307Y-31609069D01*
X44883102Y-31833097D01*
X45017820Y-32034717D01*
X45189283Y-32206180D01*
X45390903Y-32340898D01*
X45614931Y-32433693D01*
X45852757Y-32481000D01*
X46095243Y-32481000D01*
X46333069Y-32433693D01*
X46431311Y-32393000D01*
X46887673Y-32393000D01*
X46890000Y-32416626D01*
X46890001Y-74398364D01*
X46887673Y-74422000D01*
X46896960Y-74516292D01*
X46916804Y-74581707D01*
X46924465Y-74606961D01*
X46944000Y-74643509D01*
X46944000Y-74743073D01*
X46970171Y-74874640D01*
X47021506Y-74998574D01*
X47096033Y-75110112D01*
X47190888Y-75204967D01*
X47302426Y-75279494D01*
X47426360Y-75330829D01*
X47557927Y-75357000D01*
X47692073Y-75357000D01*
X47823640Y-75330829D01*
X47947574Y-75279494D01*
X48059112Y-75204967D01*
X48153967Y-75110112D01*
X48228494Y-74998574D01*
X48279829Y-74874640D01*
X48306000Y-74743073D01*
X48306000Y-74608927D01*
X48279829Y-74477360D01*
X48228494Y-74353426D01*
X48153967Y-74241888D01*
X48059112Y-74147033D01*
X47947574Y-74072506D01*
X47852000Y-74032918D01*
X47852000Y-36925083D01*
X47858033Y-36934112D01*
X47952888Y-37028967D01*
X48064426Y-37103494D01*
X48188360Y-37154829D01*
X48319927Y-37181000D01*
X48394955Y-37181000D01*
X48345100Y-37301360D01*
X48318929Y-37432927D01*
X48318929Y-37567073D01*
X48345100Y-37698640D01*
X48396435Y-37822574D01*
X48470962Y-37934112D01*
X48565817Y-38028967D01*
X48677355Y-38103494D01*
X48801289Y-38154829D01*
X48932856Y-38181000D01*
X49067002Y-38181000D01*
X49198569Y-38154829D01*
X49322503Y-38103494D01*
X49434041Y-38028967D01*
X49528896Y-37934112D01*
X49603423Y-37822574D01*
X49654758Y-37698640D01*
X49680929Y-37567073D01*
X49680929Y-37432927D01*
X49654758Y-37301360D01*
X49603423Y-37177426D01*
X49528896Y-37065888D01*
X49480929Y-37017921D01*
X49480929Y-36944008D01*
X49565888Y-37028967D01*
X49677426Y-37103494D01*
X49801360Y-37154829D01*
X49932927Y-37181000D01*
X50067073Y-37181000D01*
X50198640Y-37154829D01*
X50322574Y-37103494D01*
X50434112Y-37028967D01*
X50519001Y-36944078D01*
X50519001Y-37017920D01*
X50471033Y-37065888D01*
X50396506Y-37177426D01*
X50345171Y-37301360D01*
X50319000Y-37432927D01*
X50319000Y-37567073D01*
X50345171Y-37698640D01*
X50396506Y-37822574D01*
X50471033Y-37934112D01*
X50565888Y-38028967D01*
X50677426Y-38103494D01*
X50801360Y-38154829D01*
X50932927Y-38181000D01*
X51067073Y-38181000D01*
X51198640Y-38154829D01*
X51322574Y-38103494D01*
X51434112Y-38028967D01*
X51528967Y-37934112D01*
X51603494Y-37822574D01*
X51654829Y-37698640D01*
X51681000Y-37567073D01*
X51681000Y-37432927D01*
X51654829Y-37301360D01*
X51603494Y-37177426D01*
X51528967Y-37065888D01*
X51481000Y-37017921D01*
X51481000Y-36944061D01*
X51565888Y-37028949D01*
X51677426Y-37103476D01*
X51801360Y-37154811D01*
X51932927Y-37180982D01*
X52067073Y-37180982D01*
X52198640Y-37154811D01*
X52322574Y-37103476D01*
X52434112Y-37028949D01*
X52519035Y-36944026D01*
X52519035Y-37017926D01*
X52471067Y-37065894D01*
X52396540Y-37177432D01*
X52345205Y-37301366D01*
X52319034Y-37432933D01*
X52319034Y-37567079D01*
X52345205Y-37698646D01*
X52396540Y-37822580D01*
X52471067Y-37934118D01*
X52565922Y-38028973D01*
X52677460Y-38103500D01*
X52801394Y-38154835D01*
X52932961Y-38181006D01*
X53067107Y-38181006D01*
X53198674Y-38154835D01*
X53322608Y-38103500D01*
X53434146Y-38028973D01*
X53529001Y-37934118D01*
X53603528Y-37822580D01*
X53654863Y-37698646D01*
X53681034Y-37567079D01*
X53681034Y-37432933D01*
X53654863Y-37301366D01*
X53603528Y-37177432D01*
X53529001Y-37065894D01*
X53481034Y-37017927D01*
X53481034Y-36432927D01*
X53819000Y-36432927D01*
X53819000Y-36567073D01*
X53845171Y-36698640D01*
X53896506Y-36822574D01*
X53971033Y-36934112D01*
X54065888Y-37028967D01*
X54177426Y-37103494D01*
X54301360Y-37154829D01*
X54432927Y-37181000D01*
X54567073Y-37181000D01*
X54698640Y-37154829D01*
X54822574Y-37103494D01*
X54934112Y-37028967D01*
X54982079Y-36981000D01*
X55055921Y-36981000D01*
X54971033Y-37065888D01*
X54896506Y-37177426D01*
X54845171Y-37301360D01*
X54819000Y-37432927D01*
X54819000Y-37567073D01*
X54845171Y-37698640D01*
X54896506Y-37822574D01*
X54971033Y-37934112D01*
X55065888Y-38028967D01*
X55177426Y-38103494D01*
X55301360Y-38154829D01*
X55432927Y-38181000D01*
X55567073Y-38181000D01*
X55698640Y-38154829D01*
X55822574Y-38103494D01*
X55934112Y-38028967D01*
X55982079Y-37981000D01*
X77665374Y-37981000D01*
X77689000Y-37983327D01*
X77712626Y-37981000D01*
X77783292Y-37974040D01*
X77873961Y-37946536D01*
X77957522Y-37901872D01*
X78030764Y-37841764D01*
X78045830Y-37823406D01*
X78301406Y-37567830D01*
X78319764Y-37552764D01*
X78379872Y-37479522D01*
X78404777Y-37432927D01*
X78424536Y-37395962D01*
X78452040Y-37305293D01*
X78461327Y-37211000D01*
X78459000Y-37187374D01*
X78459000Y-29835188D01*
X78561097Y-29792898D01*
X78762717Y-29658180D01*
X78934180Y-29486717D01*
X79068898Y-29285097D01*
X79161693Y-29061069D01*
X79209000Y-28823243D01*
X79209000Y-28580757D01*
X79287000Y-28580757D01*
X79287000Y-28823243D01*
X79334307Y-29061069D01*
X79427102Y-29285097D01*
X79561820Y-29486717D01*
X79733283Y-29658180D01*
X79934903Y-29792898D01*
X80158931Y-29885693D01*
X80396757Y-29933000D01*
X80639243Y-29933000D01*
X80877069Y-29885693D01*
X81101097Y-29792898D01*
X81302717Y-29658180D01*
X81474180Y-29486717D01*
X81608898Y-29285097D01*
X81701693Y-29061069D01*
X81749000Y-28823243D01*
X81749000Y-28580757D01*
X81701693Y-28342931D01*
X81608898Y-28118903D01*
X81474180Y-27917283D01*
X81302717Y-27745820D01*
X81101097Y-27611102D01*
X80877069Y-27518307D01*
X80639243Y-27471000D01*
X80396757Y-27471000D01*
X80158931Y-27518307D01*
X79934903Y-27611102D01*
X79733283Y-27745820D01*
X79561820Y-27917283D01*
X79427102Y-28118903D01*
X79334307Y-28342931D01*
X79287000Y-28580757D01*
X79209000Y-28580757D01*
X79161693Y-28342931D01*
X79068898Y-28118903D01*
X78934180Y-27917283D01*
X78762717Y-27745820D01*
X78561097Y-27611102D01*
X78337069Y-27518307D01*
X78099243Y-27471000D01*
X77856757Y-27471000D01*
X77618931Y-27518307D01*
X77394903Y-27611102D01*
X77193283Y-27745820D01*
X77021820Y-27917283D01*
X76887102Y-28118903D01*
X76794307Y-28342931D01*
X76747000Y-28580757D01*
X76747000Y-28823243D01*
X76794307Y-29061069D01*
X76887102Y-29285097D01*
X77021820Y-29486717D01*
X77193283Y-29658180D01*
X77394903Y-29792898D01*
X77497000Y-29835188D01*
X77497001Y-37011763D01*
X77489764Y-37019000D01*
X55982079Y-37019000D01*
X55944079Y-36981000D01*
X75236374Y-36981000D01*
X75260000Y-36983327D01*
X75283626Y-36981000D01*
X75354292Y-36974040D01*
X75444961Y-36946536D01*
X75528522Y-36901872D01*
X75601764Y-36841764D01*
X75616830Y-36823406D01*
X75761406Y-36678830D01*
X75779764Y-36663764D01*
X75839872Y-36590522D01*
X75884536Y-36506961D01*
X75912040Y-36416292D01*
X75921327Y-36322001D01*
X75919000Y-36298374D01*
X75919000Y-29835188D01*
X76021097Y-29792898D01*
X76222717Y-29658180D01*
X76394180Y-29486717D01*
X76528898Y-29285097D01*
X76621693Y-29061069D01*
X76669000Y-28823243D01*
X76669000Y-28580757D01*
X76621693Y-28342931D01*
X76528898Y-28118903D01*
X76394180Y-27917283D01*
X76222717Y-27745820D01*
X76021097Y-27611102D01*
X75797069Y-27518307D01*
X75559243Y-27471000D01*
X75316757Y-27471000D01*
X75078931Y-27518307D01*
X74854903Y-27611102D01*
X74653283Y-27745820D01*
X74481820Y-27917283D01*
X74347102Y-28118903D01*
X74254307Y-28342931D01*
X74207000Y-28580757D01*
X74207000Y-28823243D01*
X74254307Y-29061069D01*
X74347102Y-29285097D01*
X74481820Y-29486717D01*
X74653283Y-29658180D01*
X74854903Y-29792898D01*
X74957000Y-29835188D01*
X74957001Y-36019000D01*
X54982079Y-36019000D01*
X54934112Y-35971033D01*
X54822574Y-35896506D01*
X54698640Y-35845171D01*
X54567073Y-35819000D01*
X54432927Y-35819000D01*
X54301360Y-35845171D01*
X54177426Y-35896506D01*
X54065888Y-35971033D01*
X53971033Y-36065888D01*
X53896506Y-36177426D01*
X53845171Y-36301360D01*
X53819000Y-36432927D01*
X53481034Y-36432927D01*
X53481034Y-35501050D01*
X72652324Y-35501050D01*
X72675950Y-35503377D01*
X72699576Y-35501050D01*
X72770242Y-35494090D01*
X72860911Y-35466586D01*
X72944472Y-35421922D01*
X73017714Y-35361814D01*
X73032780Y-35343456D01*
X73221406Y-35154830D01*
X73239764Y-35139764D01*
X73299872Y-35066522D01*
X73344536Y-34982961D01*
X73363696Y-34919797D01*
X73372040Y-34892293D01*
X73381327Y-34798001D01*
X73379000Y-34774374D01*
X73379000Y-29835188D01*
X73481097Y-29792898D01*
X73682717Y-29658180D01*
X73854180Y-29486717D01*
X73988898Y-29285097D01*
X74081693Y-29061069D01*
X74129000Y-28823243D01*
X74129000Y-28580757D01*
X74081693Y-28342931D01*
X73988898Y-28118903D01*
X73854180Y-27917283D01*
X73682717Y-27745820D01*
X73481097Y-27611102D01*
X73257069Y-27518307D01*
X73019243Y-27471000D01*
X72776757Y-27471000D01*
X72538931Y-27518307D01*
X72314903Y-27611102D01*
X72113283Y-27745820D01*
X71941820Y-27917283D01*
X71807102Y-28118903D01*
X71714307Y-28342931D01*
X71667000Y-28580757D01*
X71667000Y-28823243D01*
X71714307Y-29061069D01*
X71807102Y-29285097D01*
X71941820Y-29486717D01*
X72113283Y-29658180D01*
X72314903Y-29792898D01*
X72417000Y-29835188D01*
X72417001Y-34539050D01*
X68029620Y-34539050D01*
X68038040Y-34511292D01*
X68043463Y-34456237D01*
X68047327Y-34417000D01*
X68045000Y-34393374D01*
X68045000Y-32482843D01*
X69684000Y-32482843D01*
X69758689Y-32475487D01*
X69830508Y-32453701D01*
X69896696Y-32418322D01*
X69954711Y-32370711D01*
X70002322Y-32312696D01*
X70037701Y-32246508D01*
X70059487Y-32174689D01*
X70066843Y-32100000D01*
X70066843Y-30400000D01*
X70059487Y-30325311D01*
X70037701Y-30253492D01*
X70002322Y-30187304D01*
X69954711Y-30129289D01*
X69896696Y-30081678D01*
X69830508Y-30046299D01*
X69758689Y-30024513D01*
X69684000Y-30017157D01*
X68199079Y-30017157D01*
X68281393Y-29934843D01*
X69684000Y-29934843D01*
X69758689Y-29927487D01*
X69830508Y-29905701D01*
X69896696Y-29870322D01*
X69954711Y-29822711D01*
X70002322Y-29764696D01*
X70037701Y-29698508D01*
X70059487Y-29626689D01*
X70066843Y-29552000D01*
X70066843Y-27852000D01*
X70059487Y-27777311D01*
X70037701Y-27705492D01*
X70002322Y-27639304D01*
X69954711Y-27581289D01*
X69896696Y-27533678D01*
X69830508Y-27498299D01*
X69758689Y-27476513D01*
X69684000Y-27469157D01*
X67984000Y-27469157D01*
X67909311Y-27476513D01*
X67837492Y-27498299D01*
X67771304Y-27533678D01*
X67713289Y-27581289D01*
X67665678Y-27639304D01*
X67630299Y-27705492D01*
X67608513Y-27777311D01*
X67601157Y-27852000D01*
X67601157Y-29254607D01*
X67240594Y-29615170D01*
X67222236Y-29630236D01*
X67162128Y-29703478D01*
X67117464Y-29787040D01*
X67101756Y-29838824D01*
X67089960Y-29877708D01*
X67080673Y-29972000D01*
X67083000Y-29995626D01*
X67083000Y-30298103D01*
X67078717Y-30293820D01*
X66877097Y-30159102D01*
X66653069Y-30066307D01*
X66415243Y-30019000D01*
X66172757Y-30019000D01*
X65934931Y-30066307D01*
X65710903Y-30159102D01*
X65509283Y-30293820D01*
X65505000Y-30298103D01*
X65505000Y-30171236D01*
X65832833Y-29843403D01*
X65934931Y-29885693D01*
X66172757Y-29933000D01*
X66415243Y-29933000D01*
X66653069Y-29885693D01*
X66877097Y-29792898D01*
X67078717Y-29658180D01*
X67250180Y-29486717D01*
X67384898Y-29285097D01*
X67477693Y-29061069D01*
X67525000Y-28823243D01*
X67525000Y-28580757D01*
X67477693Y-28342931D01*
X67384898Y-28118903D01*
X67250180Y-27917283D01*
X67078717Y-27745820D01*
X66877097Y-27611102D01*
X66653069Y-27518307D01*
X66415243Y-27471000D01*
X66172757Y-27471000D01*
X65934931Y-27518307D01*
X65710903Y-27611102D01*
X65509283Y-27745820D01*
X65337820Y-27917283D01*
X65203102Y-28118903D01*
X65110307Y-28342931D01*
X65063000Y-28580757D01*
X65063000Y-28823243D01*
X65110307Y-29061069D01*
X65152597Y-29163167D01*
X64700594Y-29615170D01*
X64682236Y-29630236D01*
X64622128Y-29703478D01*
X64577464Y-29787040D01*
X64561756Y-29838824D01*
X64549960Y-29877708D01*
X64540673Y-29972000D01*
X64543000Y-29995626D01*
X64543000Y-30298103D01*
X64538717Y-30293820D01*
X64337097Y-30159102D01*
X64113069Y-30066307D01*
X63875243Y-30019000D01*
X63632757Y-30019000D01*
X63394931Y-30066307D01*
X63170903Y-30159102D01*
X62969283Y-30293820D01*
X62965000Y-30298103D01*
X62965000Y-30171236D01*
X63292833Y-29843403D01*
X63394931Y-29885693D01*
X63632757Y-29933000D01*
X63875243Y-29933000D01*
X64113069Y-29885693D01*
X64337097Y-29792898D01*
X64538717Y-29658180D01*
X64710180Y-29486717D01*
X64844898Y-29285097D01*
X64937693Y-29061069D01*
X64985000Y-28823243D01*
X64985000Y-28580757D01*
X64937693Y-28342931D01*
X64844898Y-28118903D01*
X64710180Y-27917283D01*
X64538717Y-27745820D01*
X64337097Y-27611102D01*
X64113069Y-27518307D01*
X63875243Y-27471000D01*
X63632757Y-27471000D01*
X63394931Y-27518307D01*
X63170903Y-27611102D01*
X62969283Y-27745820D01*
X62797820Y-27917283D01*
X62663102Y-28118903D01*
X62570307Y-28342931D01*
X62523000Y-28580757D01*
X62523000Y-28823243D01*
X62570307Y-29061069D01*
X62612597Y-29163167D01*
X62160589Y-29615175D01*
X62142237Y-29630236D01*
X62127176Y-29648588D01*
X62082129Y-29703478D01*
X62037465Y-29787039D01*
X62009960Y-29877708D01*
X62000673Y-29972000D01*
X62003001Y-29995636D01*
X62003001Y-30298104D01*
X61998717Y-30293820D01*
X61797097Y-30159102D01*
X61573069Y-30066307D01*
X61335243Y-30019000D01*
X61092757Y-30019000D01*
X60854931Y-30066307D01*
X60630903Y-30159102D01*
X60429283Y-30293820D01*
X60425000Y-30298103D01*
X60425000Y-30171236D01*
X60752833Y-29843403D01*
X60854931Y-29885693D01*
X61092757Y-29933000D01*
X61335243Y-29933000D01*
X61573069Y-29885693D01*
X61797097Y-29792898D01*
X61998717Y-29658180D01*
X62170180Y-29486717D01*
X62304898Y-29285097D01*
X62397693Y-29061069D01*
X62445000Y-28823243D01*
X62445000Y-28580757D01*
X62397693Y-28342931D01*
X62304898Y-28118903D01*
X62170180Y-27917283D01*
X61998717Y-27745820D01*
X61797097Y-27611102D01*
X61573069Y-27518307D01*
X61335243Y-27471000D01*
X61092757Y-27471000D01*
X60854931Y-27518307D01*
X60630903Y-27611102D01*
X60429283Y-27745820D01*
X60257820Y-27917283D01*
X60123102Y-28118903D01*
X60030307Y-28342931D01*
X59983000Y-28580757D01*
X59983000Y-28823243D01*
X60030307Y-29061069D01*
X60072597Y-29163167D01*
X59620594Y-29615170D01*
X59602236Y-29630236D01*
X59542128Y-29703478D01*
X59497464Y-29787040D01*
X59481756Y-29838824D01*
X59469960Y-29877708D01*
X59460673Y-29972000D01*
X59463000Y-29995626D01*
X59463000Y-30298103D01*
X59458717Y-30293820D01*
X59257097Y-30159102D01*
X59033069Y-30066307D01*
X58795243Y-30019000D01*
X58552757Y-30019000D01*
X58314931Y-30066307D01*
X58090903Y-30159102D01*
X57889283Y-30293820D01*
X57717820Y-30465283D01*
X57583102Y-30666903D01*
X57490307Y-30890931D01*
X57443000Y-31128757D01*
X57443000Y-31371243D01*
X57490307Y-31609069D01*
X57583102Y-31833097D01*
X57717820Y-32034717D01*
X57889283Y-32206180D01*
X58090903Y-32340898D01*
X58314931Y-32433693D01*
X58552757Y-32481000D01*
X58795243Y-32481000D01*
X59033069Y-32433693D01*
X59257097Y-32340898D01*
X59458717Y-32206180D01*
X59463001Y-32201896D01*
X59463001Y-32939010D01*
X55314161Y-32939010D01*
X55338040Y-32860292D01*
X55345000Y-32789626D01*
X55345000Y-32789625D01*
X55347327Y-32766001D01*
X55345000Y-32742377D01*
X55345000Y-32201897D01*
X55349283Y-32206180D01*
X55550903Y-32340898D01*
X55774931Y-32433693D01*
X56012757Y-32481000D01*
X56255243Y-32481000D01*
X56493069Y-32433693D01*
X56717097Y-32340898D01*
X56918717Y-32206180D01*
X57090180Y-32034717D01*
X57224898Y-31833097D01*
X57317693Y-31609069D01*
X57365000Y-31371243D01*
X57365000Y-31128757D01*
X57317693Y-30890931D01*
X57224898Y-30666903D01*
X57090180Y-30465283D01*
X56918717Y-30293820D01*
X56717097Y-30159102D01*
X56493069Y-30066307D01*
X56255243Y-30019000D01*
X56012757Y-30019000D01*
X55774931Y-30066307D01*
X55550903Y-30159102D01*
X55349283Y-30293820D01*
X55345000Y-30298103D01*
X55345000Y-30171236D01*
X55672833Y-29843403D01*
X55774931Y-29885693D01*
X56012757Y-29933000D01*
X56255243Y-29933000D01*
X56493069Y-29885693D01*
X56717097Y-29792898D01*
X56918717Y-29658180D01*
X57090180Y-29486717D01*
X57224898Y-29285097D01*
X57317693Y-29061069D01*
X57365000Y-28823243D01*
X57365000Y-28580757D01*
X57443000Y-28580757D01*
X57443000Y-28823243D01*
X57490307Y-29061069D01*
X57583102Y-29285097D01*
X57717820Y-29486717D01*
X57889283Y-29658180D01*
X58090903Y-29792898D01*
X58314931Y-29885693D01*
X58552757Y-29933000D01*
X58795243Y-29933000D01*
X59033069Y-29885693D01*
X59257097Y-29792898D01*
X59458717Y-29658180D01*
X59630180Y-29486717D01*
X59764898Y-29285097D01*
X59857693Y-29061069D01*
X59905000Y-28823243D01*
X59905000Y-28580757D01*
X59857693Y-28342931D01*
X59764898Y-28118903D01*
X59630180Y-27917283D01*
X59458717Y-27745820D01*
X59257097Y-27611102D01*
X59033069Y-27518307D01*
X58795243Y-27471000D01*
X58552757Y-27471000D01*
X58314931Y-27518307D01*
X58090903Y-27611102D01*
X57889283Y-27745820D01*
X57717820Y-27917283D01*
X57583102Y-28118903D01*
X57490307Y-28342931D01*
X57443000Y-28580757D01*
X57365000Y-28580757D01*
X57317693Y-28342931D01*
X57224898Y-28118903D01*
X57090180Y-27917283D01*
X56918717Y-27745820D01*
X56717097Y-27611102D01*
X56493069Y-27518307D01*
X56255243Y-27471000D01*
X56012757Y-27471000D01*
X55774931Y-27518307D01*
X55550903Y-27611102D01*
X55349283Y-27745820D01*
X55177820Y-27917283D01*
X55043102Y-28118903D01*
X54950307Y-28342931D01*
X54903000Y-28580757D01*
X54903000Y-28823243D01*
X54950307Y-29061069D01*
X54992597Y-29163167D01*
X54540594Y-29615170D01*
X54522236Y-29630236D01*
X54462128Y-29703478D01*
X54417464Y-29787040D01*
X54401756Y-29838824D01*
X54389960Y-29877708D01*
X54380673Y-29972000D01*
X54383000Y-29995626D01*
X54383000Y-30298103D01*
X54378717Y-30293820D01*
X54177097Y-30159102D01*
X53953069Y-30066307D01*
X53715243Y-30019000D01*
X53472757Y-30019000D01*
X53234931Y-30066307D01*
X53010903Y-30159102D01*
X52809283Y-30293820D01*
X52637820Y-30465283D01*
X52503102Y-30666903D01*
X52410307Y-30890931D01*
X52363000Y-31128757D01*
X52363000Y-31371243D01*
X52410307Y-31609069D01*
X52503102Y-31833097D01*
X52637820Y-32034717D01*
X52809283Y-32206180D01*
X53010903Y-32340898D01*
X53234931Y-32433693D01*
X53472757Y-32481000D01*
X53715243Y-32481000D01*
X53953069Y-32433693D01*
X54177097Y-32340898D01*
X54378717Y-32206180D01*
X54383001Y-32201896D01*
X54383001Y-32539000D01*
X48918615Y-32539000D01*
X48894999Y-32536674D01*
X48871383Y-32539000D01*
X48871374Y-32539000D01*
X48800708Y-32545960D01*
X48710039Y-32573464D01*
X48626478Y-32618128D01*
X48553236Y-32678236D01*
X48538175Y-32696588D01*
X48063594Y-33171170D01*
X48045236Y-33186236D01*
X47985128Y-33259478D01*
X47940464Y-33343040D01*
X47931229Y-33373484D01*
X47912960Y-33433708D01*
X47903673Y-33528000D01*
X47906000Y-33551625D01*
X47906001Y-36017920D01*
X47858033Y-36065888D01*
X47852000Y-36074917D01*
X47852000Y-32592236D01*
X48052833Y-32391403D01*
X48154931Y-32433693D01*
X48392757Y-32481000D01*
X48635243Y-32481000D01*
X48873069Y-32433693D01*
X49097097Y-32340898D01*
X49298717Y-32206180D01*
X49470180Y-32034717D01*
X49604898Y-31833097D01*
X49697693Y-31609069D01*
X49745000Y-31371243D01*
X49745000Y-31128757D01*
X49823000Y-31128757D01*
X49823000Y-31371243D01*
X49870307Y-31609069D01*
X49963102Y-31833097D01*
X50097820Y-32034717D01*
X50269283Y-32206180D01*
X50470903Y-32340898D01*
X50694931Y-32433693D01*
X50932757Y-32481000D01*
X51175243Y-32481000D01*
X51413069Y-32433693D01*
X51637097Y-32340898D01*
X51838717Y-32206180D01*
X52010180Y-32034717D01*
X52144898Y-31833097D01*
X52237693Y-31609069D01*
X52285000Y-31371243D01*
X52285000Y-31128757D01*
X52237693Y-30890931D01*
X52144898Y-30666903D01*
X52010180Y-30465283D01*
X51838717Y-30293820D01*
X51637097Y-30159102D01*
X51413069Y-30066307D01*
X51175243Y-30019000D01*
X50932757Y-30019000D01*
X50694931Y-30066307D01*
X50470903Y-30159102D01*
X50269283Y-30293820D01*
X50097820Y-30465283D01*
X49963102Y-30666903D01*
X49870307Y-30890931D01*
X49823000Y-31128757D01*
X49745000Y-31128757D01*
X49697693Y-30890931D01*
X49604898Y-30666903D01*
X49470180Y-30465283D01*
X49298717Y-30293820D01*
X49097097Y-30159102D01*
X48873069Y-30066307D01*
X48635243Y-30019000D01*
X48392757Y-30019000D01*
X48154931Y-30066307D01*
X47930903Y-30159102D01*
X47729283Y-30293820D01*
X47557820Y-30465283D01*
X47423102Y-30666903D01*
X47330307Y-30890931D01*
X47283000Y-31128757D01*
X47283000Y-31371243D01*
X47330307Y-31609069D01*
X47372597Y-31711167D01*
X47047594Y-32036170D01*
X47029236Y-32051236D01*
X46969128Y-32124478D01*
X46924464Y-32208040D01*
X46912795Y-32246508D01*
X46896960Y-32298708D01*
X46887673Y-32393000D01*
X46431311Y-32393000D01*
X46557097Y-32340898D01*
X46758717Y-32206180D01*
X46930180Y-32034717D01*
X47064898Y-31833097D01*
X47157693Y-31609069D01*
X47205000Y-31371243D01*
X47205000Y-31128757D01*
X47157693Y-30890931D01*
X47064898Y-30666903D01*
X46930180Y-30465283D01*
X46758717Y-30293820D01*
X46557097Y-30159102D01*
X46333069Y-30066307D01*
X46095243Y-30019000D01*
X45852757Y-30019000D01*
X45614931Y-30066307D01*
X45390903Y-30159102D01*
X45189283Y-30293820D01*
X45017820Y-30465283D01*
X44883102Y-30666903D01*
X44790307Y-30890931D01*
X44743000Y-31128757D01*
X40030000Y-31128757D01*
X40030000Y-28580757D01*
X44743000Y-28580757D01*
X44743000Y-28823243D01*
X44790307Y-29061069D01*
X44883102Y-29285097D01*
X45017820Y-29486717D01*
X45189283Y-29658180D01*
X45390903Y-29792898D01*
X45614931Y-29885693D01*
X45852757Y-29933000D01*
X46095243Y-29933000D01*
X46333069Y-29885693D01*
X46557097Y-29792898D01*
X46758717Y-29658180D01*
X46930180Y-29486717D01*
X47064898Y-29285097D01*
X47157693Y-29061069D01*
X47205000Y-28823243D01*
X47205000Y-28580757D01*
X47283000Y-28580757D01*
X47283000Y-28823243D01*
X47330307Y-29061069D01*
X47423102Y-29285097D01*
X47557820Y-29486717D01*
X47729283Y-29658180D01*
X47930903Y-29792898D01*
X48154931Y-29885693D01*
X48392757Y-29933000D01*
X48635243Y-29933000D01*
X48873069Y-29885693D01*
X49097097Y-29792898D01*
X49298717Y-29658180D01*
X49470180Y-29486717D01*
X49604898Y-29285097D01*
X49697693Y-29061069D01*
X49745000Y-28823243D01*
X49745000Y-28580757D01*
X49823000Y-28580757D01*
X49823000Y-28823243D01*
X49870307Y-29061069D01*
X49963102Y-29285097D01*
X50097820Y-29486717D01*
X50269283Y-29658180D01*
X50470903Y-29792898D01*
X50694931Y-29885693D01*
X50932757Y-29933000D01*
X51175243Y-29933000D01*
X51413069Y-29885693D01*
X51637097Y-29792898D01*
X51838717Y-29658180D01*
X52010180Y-29486717D01*
X52144898Y-29285097D01*
X52237693Y-29061069D01*
X52258387Y-28957033D01*
X52389705Y-28957033D01*
X52462600Y-29187079D01*
X52578974Y-29398484D01*
X52734355Y-29583123D01*
X52922771Y-29733901D01*
X53136982Y-29845024D01*
X53338967Y-29906292D01*
X53530500Y-29835973D01*
X53530500Y-28765500D01*
X53657500Y-28765500D01*
X53657500Y-29835973D01*
X53849033Y-29906292D01*
X54051018Y-29845024D01*
X54265229Y-29733901D01*
X54453645Y-29583123D01*
X54609026Y-29398484D01*
X54725400Y-29187079D01*
X54798295Y-28957033D01*
X54728114Y-28765500D01*
X53657500Y-28765500D01*
X53530500Y-28765500D01*
X52459886Y-28765500D01*
X52389705Y-28957033D01*
X52258387Y-28957033D01*
X52285000Y-28823243D01*
X52285000Y-28580757D01*
X52258388Y-28446967D01*
X52389705Y-28446967D01*
X52459886Y-28638500D01*
X53530500Y-28638500D01*
X53530500Y-27568027D01*
X53657500Y-27568027D01*
X53657500Y-28638500D01*
X54728114Y-28638500D01*
X54798295Y-28446967D01*
X54725400Y-28216921D01*
X54609026Y-28005516D01*
X54453645Y-27820877D01*
X54265229Y-27670099D01*
X54051018Y-27558976D01*
X53849033Y-27497708D01*
X53657500Y-27568027D01*
X53530500Y-27568027D01*
X53338967Y-27497708D01*
X53136982Y-27558976D01*
X52922771Y-27670099D01*
X52734355Y-27820877D01*
X52578974Y-28005516D01*
X52462600Y-28216921D01*
X52389705Y-28446967D01*
X52258388Y-28446967D01*
X52237693Y-28342931D01*
X52144898Y-28118903D01*
X52010180Y-27917283D01*
X51838717Y-27745820D01*
X51637097Y-27611102D01*
X51413069Y-27518307D01*
X51175243Y-27471000D01*
X50932757Y-27471000D01*
X50694931Y-27518307D01*
X50470903Y-27611102D01*
X50269283Y-27745820D01*
X50097820Y-27917283D01*
X49963102Y-28118903D01*
X49870307Y-28342931D01*
X49823000Y-28580757D01*
X49745000Y-28580757D01*
X49697693Y-28342931D01*
X49604898Y-28118903D01*
X49470180Y-27917283D01*
X49298717Y-27745820D01*
X49097097Y-27611102D01*
X48873069Y-27518307D01*
X48635243Y-27471000D01*
X48392757Y-27471000D01*
X48154931Y-27518307D01*
X47930903Y-27611102D01*
X47729283Y-27745820D01*
X47557820Y-27917283D01*
X47423102Y-28118903D01*
X47330307Y-28342931D01*
X47283000Y-28580757D01*
X47205000Y-28580757D01*
X47157693Y-28342931D01*
X47064898Y-28118903D01*
X46930180Y-27917283D01*
X46758717Y-27745820D01*
X46557097Y-27611102D01*
X46333069Y-27518307D01*
X46095243Y-27471000D01*
X45852757Y-27471000D01*
X45614931Y-27518307D01*
X45390903Y-27611102D01*
X45189283Y-27745820D01*
X45017820Y-27917283D01*
X44883102Y-28118903D01*
X44790307Y-28342931D01*
X44743000Y-28580757D01*
X40030000Y-28580757D01*
X40030000Y-27197855D01*
X40038461Y-27111561D01*
X40057756Y-27047652D01*
X40089096Y-26988711D01*
X40131287Y-26936979D01*
X40182723Y-26894427D01*
X40241451Y-26862674D01*
X40305219Y-26842934D01*
X40390259Y-26833996D01*
X92230188Y-26822004D01*
X92316439Y-26830461D01*
%TA.AperFunction,Conductor*%
D17*
G36*
X92316439Y-26830461D02*
G01*
X92380348Y-26849756D01*
X92439289Y-26881096D01*
X92491021Y-26923287D01*
X92533573Y-26974723D01*
X92565326Y-27033451D01*
X92585066Y-27097219D01*
X92594000Y-27182217D01*
X92594001Y-78732135D01*
X92585538Y-78818440D01*
X92566244Y-78882346D01*
X92534905Y-78941287D01*
X92492713Y-78993021D01*
X92441272Y-79035576D01*
X92382550Y-79067326D01*
X92318781Y-79087066D01*
X92233773Y-79096001D01*
X40312970Y-79097397D01*
X40260179Y-79083043D01*
X40198273Y-79052298D01*
X40143520Y-79010116D01*
X40098004Y-78958103D01*
X40063456Y-78898237D01*
X40041195Y-78832804D01*
X40030110Y-78749606D01*
X40030000Y-78738042D01*
X40030000Y-76840757D01*
X53887000Y-76840757D01*
X53887000Y-77083243D01*
X53934307Y-77321069D01*
X54027102Y-77545097D01*
X54161820Y-77746717D01*
X54333283Y-77918180D01*
X54534903Y-78052898D01*
X54758931Y-78145693D01*
X54996757Y-78193000D01*
X55239243Y-78193000D01*
X55477069Y-78145693D01*
X55701097Y-78052898D01*
X55902717Y-77918180D01*
X56074180Y-77746717D01*
X56208898Y-77545097D01*
X56301693Y-77321069D01*
X56349000Y-77083243D01*
X56349000Y-76840757D01*
X56427000Y-76840757D01*
X56427000Y-77083243D01*
X56474307Y-77321069D01*
X56567102Y-77545097D01*
X56701820Y-77746717D01*
X56873283Y-77918180D01*
X57074903Y-78052898D01*
X57298931Y-78145693D01*
X57536757Y-78193000D01*
X57779243Y-78193000D01*
X58017069Y-78145693D01*
X58241097Y-78052898D01*
X58442717Y-77918180D01*
X58614180Y-77746717D01*
X58748898Y-77545097D01*
X58841693Y-77321069D01*
X58889000Y-77083243D01*
X58889000Y-76840757D01*
X58967000Y-76840757D01*
X58967000Y-77083243D01*
X59014307Y-77321069D01*
X59107102Y-77545097D01*
X59241820Y-77746717D01*
X59413283Y-77918180D01*
X59614903Y-78052898D01*
X59838931Y-78145693D01*
X60076757Y-78193000D01*
X60319243Y-78193000D01*
X60557069Y-78145693D01*
X60781097Y-78052898D01*
X60982717Y-77918180D01*
X61154180Y-77746717D01*
X61288898Y-77545097D01*
X61381693Y-77321069D01*
X61429000Y-77083243D01*
X61429000Y-76840757D01*
X61507000Y-76840757D01*
X61507000Y-77083243D01*
X61554307Y-77321069D01*
X61647102Y-77545097D01*
X61781820Y-77746717D01*
X61953283Y-77918180D01*
X62154903Y-78052898D01*
X62378931Y-78145693D01*
X62616757Y-78193000D01*
X62859243Y-78193000D01*
X63097069Y-78145693D01*
X63321097Y-78052898D01*
X63522717Y-77918180D01*
X63694180Y-77746717D01*
X63828898Y-77545097D01*
X63921693Y-77321069D01*
X63969000Y-77083243D01*
X63969000Y-76840757D01*
X63921693Y-76602931D01*
X63828898Y-76378903D01*
X63694180Y-76177283D01*
X63522717Y-76005820D01*
X63321097Y-75871102D01*
X63319000Y-75870233D01*
X63319000Y-73282040D01*
X63349174Y-73318807D01*
X63371346Y-73337003D01*
X63576983Y-73542640D01*
X63595183Y-73564817D01*
X63683652Y-73637421D01*
X63784585Y-73691371D01*
X63894104Y-73724593D01*
X64008000Y-73735811D01*
X64036540Y-73733000D01*
X64697000Y-73733000D01*
X64697001Y-75870233D01*
X64694903Y-75871102D01*
X64493283Y-76005820D01*
X64321820Y-76177283D01*
X64187102Y-76378903D01*
X64094307Y-76602931D01*
X64047000Y-76840757D01*
X64047000Y-77083243D01*
X64094307Y-77321069D01*
X64187102Y-77545097D01*
X64321820Y-77746717D01*
X64493283Y-77918180D01*
X64694903Y-78052898D01*
X64918931Y-78145693D01*
X65156757Y-78193000D01*
X65399243Y-78193000D01*
X65637069Y-78145693D01*
X65861097Y-78052898D01*
X66062717Y-77918180D01*
X66234180Y-77746717D01*
X66368898Y-77545097D01*
X66461693Y-77321069D01*
X66482387Y-77217033D01*
X66613705Y-77217033D01*
X66686600Y-77447079D01*
X66802974Y-77658484D01*
X66958355Y-77843123D01*
X67146771Y-77993901D01*
X67360982Y-78105024D01*
X67562967Y-78166292D01*
X67754500Y-78095973D01*
X67754500Y-77025500D01*
X67881500Y-77025500D01*
X67881500Y-78095973D01*
X68073033Y-78166292D01*
X68275018Y-78105024D01*
X68489229Y-77993901D01*
X68677645Y-77843123D01*
X68833026Y-77658484D01*
X68949400Y-77447079D01*
X69022295Y-77217033D01*
X69153705Y-77217033D01*
X69226600Y-77447079D01*
X69342974Y-77658484D01*
X69498355Y-77843123D01*
X69686771Y-77993901D01*
X69900982Y-78105024D01*
X70102967Y-78166292D01*
X70294500Y-78095973D01*
X70294500Y-77025500D01*
X70421500Y-77025500D01*
X70421500Y-78095973D01*
X70613033Y-78166292D01*
X70815018Y-78105024D01*
X71029229Y-77993901D01*
X71217645Y-77843123D01*
X71373026Y-77658484D01*
X71489400Y-77447079D01*
X71562295Y-77217033D01*
X71492114Y-77025500D01*
X70421500Y-77025500D01*
X70294500Y-77025500D01*
X69223886Y-77025500D01*
X69153705Y-77217033D01*
X69022295Y-77217033D01*
X68952114Y-77025500D01*
X67881500Y-77025500D01*
X67754500Y-77025500D01*
X66683886Y-77025500D01*
X66613705Y-77217033D01*
X66482387Y-77217033D01*
X66509000Y-77083243D01*
X66509000Y-76840757D01*
X66482388Y-76706967D01*
X66613705Y-76706967D01*
X66683886Y-76898500D01*
X67754500Y-76898500D01*
X67754500Y-75828027D01*
X67881500Y-75828027D01*
X67881500Y-76898500D01*
X68952114Y-76898500D01*
X69022295Y-76706967D01*
X69153705Y-76706967D01*
X69223886Y-76898500D01*
X70294500Y-76898500D01*
X70294500Y-75828027D01*
X70421500Y-75828027D01*
X70421500Y-76898500D01*
X71492114Y-76898500D01*
X71562295Y-76706967D01*
X71489400Y-76476921D01*
X71373026Y-76265516D01*
X71243837Y-76112000D01*
X71665157Y-76112000D01*
X71665157Y-77812000D01*
X71672513Y-77886689D01*
X71694299Y-77958508D01*
X71729678Y-78024696D01*
X71777289Y-78082711D01*
X71835304Y-78130322D01*
X71901492Y-78165701D01*
X71973311Y-78187487D01*
X72048000Y-78194843D01*
X73748000Y-78194843D01*
X73822689Y-78187487D01*
X73894508Y-78165701D01*
X73960696Y-78130322D01*
X74018711Y-78082711D01*
X74066322Y-78024696D01*
X74101701Y-77958508D01*
X74123487Y-77886689D01*
X74130843Y-77812000D01*
X74130843Y-76112000D01*
X76745157Y-76112000D01*
X76745157Y-77812000D01*
X76752513Y-77886689D01*
X76774299Y-77958508D01*
X76809678Y-78024696D01*
X76857289Y-78082711D01*
X76915304Y-78130322D01*
X76981492Y-78165701D01*
X77053311Y-78187487D01*
X77128000Y-78194843D01*
X78828000Y-78194843D01*
X78902689Y-78187487D01*
X78974508Y-78165701D01*
X79040696Y-78130322D01*
X79098711Y-78082711D01*
X79146322Y-78024696D01*
X79181701Y-77958508D01*
X79203487Y-77886689D01*
X79210843Y-77812000D01*
X79210843Y-76840757D01*
X79287000Y-76840757D01*
X79287000Y-77083243D01*
X79334307Y-77321069D01*
X79427102Y-77545097D01*
X79561820Y-77746717D01*
X79733283Y-77918180D01*
X79934903Y-78052898D01*
X80158931Y-78145693D01*
X80396757Y-78193000D01*
X80639243Y-78193000D01*
X80877069Y-78145693D01*
X81101097Y-78052898D01*
X81302717Y-77918180D01*
X81474180Y-77746717D01*
X81608898Y-77545097D01*
X81701693Y-77321069D01*
X81749000Y-77083243D01*
X81749000Y-76840757D01*
X81827000Y-76840757D01*
X81827000Y-77083243D01*
X81874307Y-77321069D01*
X81967102Y-77545097D01*
X82101820Y-77746717D01*
X82273283Y-77918180D01*
X82474903Y-78052898D01*
X82698931Y-78145693D01*
X82936757Y-78193000D01*
X83179243Y-78193000D01*
X83417069Y-78145693D01*
X83641097Y-78052898D01*
X83842717Y-77918180D01*
X84014180Y-77746717D01*
X84148898Y-77545097D01*
X84241693Y-77321069D01*
X84289000Y-77083243D01*
X84289000Y-76840757D01*
X84367000Y-76840757D01*
X84367000Y-77083243D01*
X84414307Y-77321069D01*
X84507102Y-77545097D01*
X84641820Y-77746717D01*
X84813283Y-77918180D01*
X85014903Y-78052898D01*
X85238931Y-78145693D01*
X85476757Y-78193000D01*
X85719243Y-78193000D01*
X85957069Y-78145693D01*
X86181097Y-78052898D01*
X86382717Y-77918180D01*
X86554180Y-77746717D01*
X86688898Y-77545097D01*
X86781693Y-77321069D01*
X86829000Y-77083243D01*
X86829000Y-76840757D01*
X86907000Y-76840757D01*
X86907000Y-77083243D01*
X86954307Y-77321069D01*
X87047102Y-77545097D01*
X87181820Y-77746717D01*
X87353283Y-77918180D01*
X87554903Y-78052898D01*
X87778931Y-78145693D01*
X88016757Y-78193000D01*
X88259243Y-78193000D01*
X88497069Y-78145693D01*
X88721097Y-78052898D01*
X88922717Y-77918180D01*
X89094180Y-77746717D01*
X89228898Y-77545097D01*
X89321693Y-77321069D01*
X89369000Y-77083243D01*
X89369000Y-76840757D01*
X89447000Y-76840757D01*
X89447000Y-77083243D01*
X89494307Y-77321069D01*
X89587102Y-77545097D01*
X89721820Y-77746717D01*
X89893283Y-77918180D01*
X90094903Y-78052898D01*
X90318931Y-78145693D01*
X90556757Y-78193000D01*
X90799243Y-78193000D01*
X91037069Y-78145693D01*
X91261097Y-78052898D01*
X91462717Y-77918180D01*
X91634180Y-77746717D01*
X91768898Y-77545097D01*
X91861693Y-77321069D01*
X91909000Y-77083243D01*
X91909000Y-76840757D01*
X91861693Y-76602931D01*
X91768898Y-76378903D01*
X91634180Y-76177283D01*
X91462717Y-76005820D01*
X91261097Y-75871102D01*
X91037069Y-75778307D01*
X90799243Y-75731000D01*
X90556757Y-75731000D01*
X90318931Y-75778307D01*
X90094903Y-75871102D01*
X89893283Y-76005820D01*
X89721820Y-76177283D01*
X89587102Y-76378903D01*
X89494307Y-76602931D01*
X89447000Y-76840757D01*
X89369000Y-76840757D01*
X89321693Y-76602931D01*
X89228898Y-76378903D01*
X89094180Y-76177283D01*
X88922717Y-76005820D01*
X88721097Y-75871102D01*
X88497069Y-75778307D01*
X88259243Y-75731000D01*
X88016757Y-75731000D01*
X87778931Y-75778307D01*
X87554903Y-75871102D01*
X87353283Y-76005820D01*
X87181820Y-76177283D01*
X87047102Y-76378903D01*
X86954307Y-76602931D01*
X86907000Y-76840757D01*
X86829000Y-76840757D01*
X86781693Y-76602931D01*
X86688898Y-76378903D01*
X86554180Y-76177283D01*
X86382717Y-76005820D01*
X86181097Y-75871102D01*
X85957069Y-75778307D01*
X85719243Y-75731000D01*
X85476757Y-75731000D01*
X85238931Y-75778307D01*
X85014903Y-75871102D01*
X84813283Y-76005820D01*
X84641820Y-76177283D01*
X84507102Y-76378903D01*
X84414307Y-76602931D01*
X84367000Y-76840757D01*
X84289000Y-76840757D01*
X84241693Y-76602931D01*
X84148898Y-76378903D01*
X84014180Y-76177283D01*
X83842717Y-76005820D01*
X83641097Y-75871102D01*
X83417069Y-75778307D01*
X83179243Y-75731000D01*
X82936757Y-75731000D01*
X82698931Y-75778307D01*
X82474903Y-75871102D01*
X82273283Y-76005820D01*
X82101820Y-76177283D01*
X81967102Y-76378903D01*
X81874307Y-76602931D01*
X81827000Y-76840757D01*
X81749000Y-76840757D01*
X81701693Y-76602931D01*
X81608898Y-76378903D01*
X81474180Y-76177283D01*
X81302717Y-76005820D01*
X81101097Y-75871102D01*
X80877069Y-75778307D01*
X80639243Y-75731000D01*
X80396757Y-75731000D01*
X80158931Y-75778307D01*
X79934903Y-75871102D01*
X79733283Y-76005820D01*
X79561820Y-76177283D01*
X79427102Y-76378903D01*
X79334307Y-76602931D01*
X79287000Y-76840757D01*
X79210843Y-76840757D01*
X79210843Y-76112000D01*
X79203487Y-76037311D01*
X79181701Y-75965492D01*
X79146322Y-75899304D01*
X79098711Y-75841289D01*
X79040696Y-75793678D01*
X78974508Y-75758299D01*
X78902689Y-75736513D01*
X78828000Y-75729157D01*
X77128000Y-75729157D01*
X77053311Y-75736513D01*
X76981492Y-75758299D01*
X76915304Y-75793678D01*
X76857289Y-75841289D01*
X76809678Y-75899304D01*
X76774299Y-75965492D01*
X76752513Y-76037311D01*
X76745157Y-76112000D01*
X74130843Y-76112000D01*
X74123487Y-76037311D01*
X74101701Y-75965492D01*
X74066322Y-75899304D01*
X74018711Y-75841289D01*
X73960696Y-75793678D01*
X73894508Y-75758299D01*
X73822689Y-75736513D01*
X73748000Y-75729157D01*
X72048000Y-75729157D01*
X71973311Y-75736513D01*
X71901492Y-75758299D01*
X71835304Y-75793678D01*
X71777289Y-75841289D01*
X71729678Y-75899304D01*
X71694299Y-75965492D01*
X71672513Y-76037311D01*
X71665157Y-76112000D01*
X71243837Y-76112000D01*
X71217645Y-76080877D01*
X71029229Y-75930099D01*
X70815018Y-75818976D01*
X70613033Y-75757708D01*
X70421500Y-75828027D01*
X70294500Y-75828027D01*
X70102967Y-75757708D01*
X69900982Y-75818976D01*
X69686771Y-75930099D01*
X69498355Y-76080877D01*
X69342974Y-76265516D01*
X69226600Y-76476921D01*
X69153705Y-76706967D01*
X69022295Y-76706967D01*
X68949400Y-76476921D01*
X68833026Y-76265516D01*
X68677645Y-76080877D01*
X68489229Y-75930099D01*
X68275018Y-75818976D01*
X68073033Y-75757708D01*
X67881500Y-75828027D01*
X67754500Y-75828027D01*
X67562967Y-75757708D01*
X67360982Y-75818976D01*
X67146771Y-75930099D01*
X66958355Y-76080877D01*
X66802974Y-76265516D01*
X66686600Y-76476921D01*
X66613705Y-76706967D01*
X66482388Y-76706967D01*
X66461693Y-76602931D01*
X66368898Y-76378903D01*
X66234180Y-76177283D01*
X66062717Y-76005820D01*
X65861097Y-75871102D01*
X65859000Y-75870233D01*
X65859000Y-73434536D01*
X65861811Y-73405999D01*
X65859000Y-73377460D01*
X65850593Y-73292104D01*
X65817371Y-73182585D01*
X65763421Y-73081652D01*
X65690817Y-72993183D01*
X65668641Y-72974984D01*
X65455017Y-72761360D01*
X65436817Y-72739183D01*
X65348348Y-72666579D01*
X65247415Y-72612629D01*
X65137896Y-72579407D01*
X65052540Y-72571000D01*
X65024000Y-72568189D01*
X64995460Y-72571000D01*
X64342990Y-72571000D01*
X64342990Y-69782927D01*
X68915000Y-69782927D01*
X68915000Y-69917073D01*
X68941171Y-70048640D01*
X68992506Y-70172574D01*
X69067033Y-70284112D01*
X69161888Y-70378967D01*
X69273426Y-70453494D01*
X69397360Y-70504829D01*
X69437071Y-70512728D01*
X69672987Y-70748645D01*
X69691183Y-70770817D01*
X69779652Y-70843421D01*
X69880585Y-70897371D01*
X69990104Y-70930593D01*
X70075460Y-70939000D01*
X70075462Y-70939000D01*
X70103999Y-70941811D01*
X70132536Y-70939000D01*
X81060469Y-70939000D01*
X81015171Y-71048360D01*
X80989000Y-71179927D01*
X80989000Y-71234776D01*
X80970640Y-71227171D01*
X80839073Y-71201000D01*
X80704927Y-71201000D01*
X80573360Y-71227171D01*
X80449426Y-71278506D01*
X80337888Y-71353033D01*
X80243033Y-71447888D01*
X80168506Y-71559426D01*
X80117171Y-71683360D01*
X80091000Y-71814927D01*
X80091000Y-71949073D01*
X80117171Y-72080640D01*
X80168506Y-72204574D01*
X80243033Y-72316112D01*
X80291001Y-72364080D01*
X80291000Y-73431921D01*
X80243033Y-73479888D01*
X80168506Y-73591426D01*
X80117171Y-73715360D01*
X80091000Y-73846927D01*
X80091000Y-73981073D01*
X80117171Y-74112640D01*
X80168506Y-74236574D01*
X80243033Y-74348112D01*
X80337888Y-74442967D01*
X80449426Y-74517494D01*
X80573360Y-74568829D01*
X80704927Y-74595000D01*
X80839073Y-74595000D01*
X80970640Y-74568829D01*
X81094574Y-74517494D01*
X81206112Y-74442967D01*
X81300967Y-74348112D01*
X81375494Y-74236574D01*
X81405449Y-74164256D01*
X81462360Y-74187829D01*
X81593927Y-74214000D01*
X81728073Y-74214000D01*
X81859640Y-74187829D01*
X81983574Y-74136494D01*
X82095112Y-74061967D01*
X82189967Y-73967112D01*
X82264494Y-73855574D01*
X82315829Y-73731640D01*
X82342000Y-73600073D01*
X82342000Y-73465927D01*
X82315829Y-73334360D01*
X82264494Y-73210426D01*
X82189967Y-73098888D01*
X82142000Y-73050921D01*
X82142000Y-71738079D01*
X82198967Y-71681112D01*
X82273494Y-71569574D01*
X82324829Y-71445640D01*
X82351000Y-71314073D01*
X82351000Y-71179927D01*
X82324829Y-71048360D01*
X82279531Y-70939000D01*
X87855460Y-70939000D01*
X87884000Y-70941811D01*
X87912540Y-70939000D01*
X87997896Y-70930593D01*
X88107415Y-70897371D01*
X88208348Y-70843421D01*
X88296817Y-70770817D01*
X88315017Y-70748640D01*
X88594641Y-70469016D01*
X88616817Y-70450817D01*
X88689421Y-70362348D01*
X88743371Y-70261415D01*
X88776593Y-70151896D01*
X88785000Y-70066540D01*
X88785000Y-70066538D01*
X88787811Y-70038001D01*
X88785000Y-70009464D01*
X88785000Y-69079239D01*
X88807494Y-69045574D01*
X88858829Y-68921640D01*
X88885000Y-68790073D01*
X88885000Y-68655927D01*
X88858829Y-68524360D01*
X88807494Y-68400426D01*
X88732967Y-68288888D01*
X88638112Y-68194033D01*
X88526574Y-68119506D01*
X88402640Y-68068171D01*
X88271073Y-68042000D01*
X88136927Y-68042000D01*
X88005360Y-68068171D01*
X87881426Y-68119506D01*
X87769888Y-68194033D01*
X87675033Y-68288888D01*
X87600506Y-68400426D01*
X87549171Y-68524360D01*
X87523000Y-68655927D01*
X87523000Y-68790073D01*
X87549171Y-68921640D01*
X87600506Y-69045574D01*
X87623001Y-69079240D01*
X87623000Y-69777000D01*
X70344658Y-69777000D01*
X70258728Y-69691071D01*
X70250829Y-69651360D01*
X70199494Y-69527426D01*
X70124967Y-69415888D01*
X70030112Y-69321033D01*
X69918574Y-69246506D01*
X69794640Y-69195171D01*
X69663073Y-69169000D01*
X69528927Y-69169000D01*
X69397360Y-69195171D01*
X69273426Y-69246506D01*
X69161888Y-69321033D01*
X69067033Y-69415888D01*
X68992506Y-69527426D01*
X68941171Y-69651360D01*
X68915000Y-69782927D01*
X64342990Y-69782927D01*
X64342990Y-56701927D01*
X66502000Y-56701927D01*
X66502000Y-56836073D01*
X66528171Y-56967640D01*
X66579506Y-57091574D01*
X66654033Y-57203112D01*
X66748888Y-57297967D01*
X66860426Y-57372494D01*
X66984360Y-57423829D01*
X67115927Y-57450000D01*
X67250073Y-57450000D01*
X67381640Y-57423829D01*
X67505574Y-57372494D01*
X67539239Y-57350000D01*
X77651000Y-57350000D01*
X77651001Y-60884813D01*
X77628508Y-60918476D01*
X77577173Y-61042410D01*
X77551002Y-61173977D01*
X77551002Y-61308123D01*
X77577173Y-61439690D01*
X77628508Y-61563624D01*
X77703035Y-61675162D01*
X77797890Y-61770017D01*
X77909428Y-61844544D01*
X78033362Y-61895879D01*
X78164929Y-61922050D01*
X78299075Y-61922050D01*
X78430642Y-61895879D01*
X78554576Y-61844544D01*
X78666114Y-61770017D01*
X78760969Y-61675162D01*
X78835496Y-61563624D01*
X78886831Y-61439690D01*
X78913002Y-61308123D01*
X78913002Y-61173977D01*
X78886831Y-61042410D01*
X78835496Y-60918476D01*
X78813000Y-60884808D01*
X78813000Y-57125239D01*
X78835494Y-57091574D01*
X78886829Y-56967640D01*
X78913000Y-56836073D01*
X78913000Y-56701927D01*
X78886829Y-56570360D01*
X78835494Y-56446426D01*
X78760967Y-56334888D01*
X78666112Y-56240033D01*
X78554574Y-56165506D01*
X78430640Y-56114171D01*
X78299073Y-56088000D01*
X78164927Y-56088000D01*
X78033360Y-56114171D01*
X77909426Y-56165506D01*
X77875761Y-56188000D01*
X67539239Y-56188000D01*
X67505574Y-56165506D01*
X67381640Y-56114171D01*
X67250073Y-56088000D01*
X67115927Y-56088000D01*
X66984360Y-56114171D01*
X66860426Y-56165506D01*
X66748888Y-56240033D01*
X66654033Y-56334888D01*
X66579506Y-56446426D01*
X66528171Y-56570360D01*
X66502000Y-56701927D01*
X64342990Y-56701927D01*
X64342990Y-52573031D01*
X64374478Y-52598872D01*
X64458039Y-52643536D01*
X64548708Y-52671040D01*
X64619374Y-52678000D01*
X64619375Y-52678000D01*
X64642999Y-52680327D01*
X64666623Y-52678000D01*
X67700812Y-52678000D01*
X67743102Y-52780097D01*
X67877820Y-52981717D01*
X68049283Y-53153180D01*
X68250903Y-53287898D01*
X68474931Y-53380693D01*
X68712757Y-53428000D01*
X68955243Y-53428000D01*
X69193069Y-53380693D01*
X69417097Y-53287898D01*
X69503002Y-53230498D01*
X69503002Y-55094364D01*
X69500674Y-55118000D01*
X69509961Y-55212292D01*
X69537466Y-55302960D01*
X69537466Y-55302961D01*
X69582130Y-55386522D01*
X69642238Y-55459764D01*
X69660590Y-55474825D01*
X69881171Y-55695406D01*
X69896237Y-55713764D01*
X69969479Y-55773872D01*
X70053040Y-55818536D01*
X70143709Y-55846040D01*
X70214375Y-55853000D01*
X70214376Y-55853000D01*
X70238000Y-55855327D01*
X70261624Y-55853000D01*
X81891374Y-55853000D01*
X81915000Y-55855327D01*
X81919005Y-55854933D01*
X81919005Y-55870078D01*
X81945176Y-56001645D01*
X81996511Y-56125579D01*
X82071038Y-56237117D01*
X82119005Y-56285084D01*
X82119005Y-56668378D01*
X82116678Y-56692005D01*
X82125965Y-56786297D01*
X82134309Y-56813801D01*
X82153469Y-56876965D01*
X82198133Y-56960527D01*
X82258241Y-57033769D01*
X82276599Y-57048835D01*
X82631000Y-57403237D01*
X82631000Y-57471073D01*
X82657171Y-57602640D01*
X82708506Y-57726574D01*
X82783033Y-57838112D01*
X82877888Y-57932967D01*
X82989426Y-58007494D01*
X83113360Y-58058829D01*
X83244927Y-58085000D01*
X83379073Y-58085000D01*
X83510640Y-58058829D01*
X83634574Y-58007494D01*
X83746112Y-57932967D01*
X83840967Y-57838112D01*
X83915494Y-57726574D01*
X83966829Y-57602640D01*
X83993000Y-57471073D01*
X83993000Y-57336927D01*
X83966829Y-57205360D01*
X83915494Y-57081426D01*
X83840967Y-56969888D01*
X83746112Y-56875033D01*
X83634574Y-56800506D01*
X83510640Y-56749171D01*
X83379073Y-56723000D01*
X83311237Y-56723000D01*
X83081005Y-56492769D01*
X83081005Y-56285084D01*
X83128972Y-56237117D01*
X83203499Y-56125579D01*
X83254834Y-56001645D01*
X83281005Y-55870078D01*
X83281005Y-55735932D01*
X83254834Y-55604365D01*
X83203499Y-55480431D01*
X83128972Y-55368893D01*
X83034117Y-55274038D01*
X82922579Y-55199511D01*
X82798645Y-55148176D01*
X82667078Y-55122005D01*
X82651933Y-55122005D01*
X82652327Y-55118001D01*
X82650000Y-55094377D01*
X82650000Y-54081000D01*
X83717921Y-54081000D01*
X83765888Y-54128967D01*
X83877426Y-54203494D01*
X84001360Y-54254829D01*
X84132927Y-54281000D01*
X84267073Y-54281000D01*
X84398640Y-54254829D01*
X84522574Y-54203494D01*
X84617347Y-54140169D01*
X84617347Y-60166409D01*
X84602967Y-60144888D01*
X84508112Y-60050033D01*
X84396574Y-59975506D01*
X84272640Y-59924171D01*
X84141073Y-59898000D01*
X84006927Y-59898000D01*
X83875360Y-59924171D01*
X83751426Y-59975506D01*
X83639888Y-60050033D01*
X83591921Y-60098000D01*
X82523000Y-60098000D01*
X82523000Y-58648079D01*
X82570967Y-58600112D01*
X82645494Y-58488574D01*
X82696829Y-58364640D01*
X82723000Y-58233073D01*
X82723000Y-58098927D01*
X82696829Y-57967360D01*
X82645494Y-57843426D01*
X82570967Y-57731888D01*
X82476112Y-57637033D01*
X82364574Y-57562506D01*
X82240640Y-57511171D01*
X82109073Y-57485000D01*
X81974927Y-57485000D01*
X81843360Y-57511171D01*
X81719426Y-57562506D01*
X81607888Y-57637033D01*
X81513033Y-57731888D01*
X81438506Y-57843426D01*
X81387171Y-57967360D01*
X81361000Y-58098927D01*
X81361000Y-58233073D01*
X81387171Y-58364640D01*
X81438506Y-58488574D01*
X81513033Y-58600112D01*
X81561000Y-58648079D01*
X81561001Y-60301364D01*
X81558673Y-60325000D01*
X81567960Y-60419292D01*
X81595465Y-60509961D01*
X81640129Y-60593522D01*
X81700237Y-60666764D01*
X81718589Y-60681825D01*
X81939170Y-60902406D01*
X81954236Y-60920764D01*
X82027478Y-60980872D01*
X82111039Y-61025536D01*
X82201708Y-61053040D01*
X82272374Y-61060000D01*
X82272375Y-61060000D01*
X82295999Y-61062327D01*
X82319623Y-61060000D01*
X83591921Y-61060000D01*
X83639888Y-61107967D01*
X83751426Y-61182494D01*
X83875360Y-61233829D01*
X84006927Y-61260000D01*
X84141073Y-61260000D01*
X84272640Y-61233829D01*
X84396574Y-61182494D01*
X84508112Y-61107967D01*
X84602967Y-61013112D01*
X84617347Y-60991591D01*
X84617347Y-65513001D01*
X80714625Y-65513001D01*
X80690999Y-65510674D01*
X80596706Y-65519961D01*
X80506037Y-65547465D01*
X80461373Y-65571339D01*
X80422477Y-65592129D01*
X80397046Y-65613000D01*
X80323927Y-65613000D01*
X80192360Y-65639171D01*
X80068426Y-65690506D01*
X79983000Y-65747586D01*
X79983000Y-57886079D01*
X80030967Y-57838112D01*
X80105494Y-57726574D01*
X80156829Y-57602640D01*
X80183000Y-57471073D01*
X80183000Y-57336927D01*
X80156829Y-57205360D01*
X80105494Y-57081426D01*
X80030967Y-56969888D01*
X79936112Y-56875033D01*
X79824574Y-56800506D01*
X79700640Y-56749171D01*
X79569073Y-56723000D01*
X79434927Y-56723000D01*
X79303360Y-56749171D01*
X79179426Y-56800506D01*
X79067888Y-56875033D01*
X78973033Y-56969888D01*
X78898506Y-57081426D01*
X78847171Y-57205360D01*
X78821000Y-57336927D01*
X78821000Y-57471073D01*
X78847171Y-57602640D01*
X78898506Y-57726574D01*
X78973033Y-57838112D01*
X79021000Y-57886079D01*
X79021001Y-66264292D01*
X78971339Y-66274171D01*
X78847405Y-66325506D01*
X78735867Y-66400033D01*
X78641012Y-66494888D01*
X78566485Y-66606426D01*
X78515150Y-66730360D01*
X78488979Y-66861927D01*
X78488979Y-66996073D01*
X78515150Y-67127640D01*
X78566485Y-67251574D01*
X78641012Y-67363112D01*
X78735867Y-67457967D01*
X78847405Y-67532494D01*
X78971339Y-67583829D01*
X79102906Y-67610000D01*
X79237052Y-67610000D01*
X79368619Y-67583829D01*
X79492553Y-67532494D01*
X79604091Y-67457967D01*
X79698946Y-67363112D01*
X79773473Y-67251574D01*
X79824808Y-67127640D01*
X79850979Y-66996073D01*
X79850979Y-66929951D01*
X79903872Y-66865501D01*
X79924662Y-66826605D01*
X79937155Y-66803234D01*
X79956888Y-66822967D01*
X80068426Y-66897494D01*
X80192360Y-66948829D01*
X80323927Y-66975000D01*
X80410980Y-66975000D01*
X80422170Y-67031252D01*
X80473505Y-67155186D01*
X80548032Y-67266724D01*
X80642887Y-67361579D01*
X80754425Y-67436106D01*
X80878359Y-67487441D01*
X81009926Y-67513612D01*
X81144072Y-67513612D01*
X81275639Y-67487441D01*
X81399573Y-67436106D01*
X81511111Y-67361579D01*
X81559078Y-67313612D01*
X85543762Y-67313612D01*
X85567388Y-67315939D01*
X85591014Y-67313612D01*
X85661680Y-67306652D01*
X85752349Y-67279148D01*
X85835910Y-67234484D01*
X85909152Y-67174376D01*
X85922950Y-67157562D01*
X85939764Y-67143764D01*
X85976620Y-67098855D01*
X86130166Y-67252401D01*
X86145236Y-67270764D01*
X86218478Y-67330872D01*
X86257374Y-67351662D01*
X86302038Y-67375536D01*
X86392707Y-67403040D01*
X86487000Y-67412327D01*
X86510626Y-67410000D01*
X89687921Y-67410000D01*
X89735888Y-67457967D01*
X89847426Y-67532494D01*
X89971360Y-67583829D01*
X90102927Y-67610000D01*
X90237073Y-67610000D01*
X90368640Y-67583829D01*
X90492574Y-67532494D01*
X90604112Y-67457967D01*
X90698967Y-67363112D01*
X90773494Y-67251574D01*
X90824829Y-67127640D01*
X90851000Y-66996073D01*
X90851000Y-66861927D01*
X90824829Y-66730360D01*
X90773494Y-66606426D01*
X90698967Y-66494888D01*
X90604112Y-66400033D01*
X90492574Y-66325506D01*
X90368640Y-66274171D01*
X90237073Y-66248000D01*
X90102927Y-66248000D01*
X89971360Y-66274171D01*
X89847426Y-66325506D01*
X89735888Y-66400033D01*
X89687921Y-66448000D01*
X86686235Y-66448000D01*
X86679010Y-66440774D01*
X86679010Y-51080308D01*
X86696517Y-51122574D01*
X86719012Y-51156240D01*
X86719011Y-61617471D01*
X86716200Y-61646011D01*
X86719011Y-61674550D01*
X86727418Y-61759906D01*
X86760640Y-61869425D01*
X86814590Y-61970358D01*
X86887194Y-62058828D01*
X86909371Y-62077028D01*
X87103983Y-62271640D01*
X87122183Y-62293817D01*
X87210652Y-62366421D01*
X87311585Y-62420371D01*
X87421104Y-62453593D01*
X87535000Y-62464811D01*
X87563540Y-62462000D01*
X88967276Y-62462000D01*
X89046626Y-62653568D01*
X89225119Y-62920702D01*
X89452298Y-63147881D01*
X89719432Y-63326374D01*
X90016255Y-63449322D01*
X90331360Y-63512000D01*
X90652640Y-63512000D01*
X90967745Y-63449322D01*
X91264568Y-63326374D01*
X91531702Y-63147881D01*
X91758881Y-62920702D01*
X91937374Y-62653568D01*
X92060322Y-62356745D01*
X92123000Y-62041640D01*
X92123000Y-61720360D01*
X92060322Y-61405255D01*
X91937374Y-61108432D01*
X91758881Y-60841298D01*
X91531702Y-60614119D01*
X91264568Y-60435626D01*
X90967745Y-60312678D01*
X90652640Y-60250000D01*
X90331360Y-60250000D01*
X90016255Y-60312678D01*
X89719432Y-60435626D01*
X89452298Y-60614119D01*
X89225119Y-60841298D01*
X89046626Y-61108432D01*
X88967276Y-61300000D01*
X87881011Y-61300000D01*
X87881011Y-57720360D01*
X88861000Y-57720360D01*
X88861000Y-58041640D01*
X88923678Y-58356745D01*
X89046626Y-58653568D01*
X89225119Y-58920702D01*
X89452298Y-59147881D01*
X89719432Y-59326374D01*
X90016255Y-59449322D01*
X90331360Y-59512000D01*
X90652640Y-59512000D01*
X90967745Y-59449322D01*
X91264568Y-59326374D01*
X91531702Y-59147881D01*
X91758881Y-58920702D01*
X91937374Y-58653568D01*
X92060322Y-58356745D01*
X92123000Y-58041640D01*
X92123000Y-57720360D01*
X92060322Y-57405255D01*
X91937374Y-57108432D01*
X91758881Y-56841298D01*
X91531702Y-56614119D01*
X91264568Y-56435626D01*
X90967745Y-56312678D01*
X90652640Y-56250000D01*
X90331360Y-56250000D01*
X90016255Y-56312678D01*
X89719432Y-56435626D01*
X89452298Y-56614119D01*
X89225119Y-56841298D01*
X89046626Y-57108432D01*
X88923678Y-57405255D01*
X88861000Y-57720360D01*
X87881011Y-57720360D01*
X87881011Y-53720360D01*
X88861000Y-53720360D01*
X88861000Y-54041640D01*
X88923678Y-54356745D01*
X89046626Y-54653568D01*
X89225119Y-54920702D01*
X89452298Y-55147881D01*
X89719432Y-55326374D01*
X90016255Y-55449322D01*
X90331360Y-55512000D01*
X90652640Y-55512000D01*
X90967745Y-55449322D01*
X91264568Y-55326374D01*
X91531702Y-55147881D01*
X91758881Y-54920702D01*
X91937374Y-54653568D01*
X92060322Y-54356745D01*
X92123000Y-54041640D01*
X92123000Y-53720360D01*
X92060322Y-53405255D01*
X91937374Y-53108432D01*
X91758881Y-52841298D01*
X91531702Y-52614119D01*
X91264568Y-52435626D01*
X90967745Y-52312678D01*
X90652640Y-52250000D01*
X90331360Y-52250000D01*
X90016255Y-52312678D01*
X89719432Y-52435626D01*
X89452298Y-52614119D01*
X89225119Y-52841298D01*
X89046626Y-53108432D01*
X88923678Y-53405255D01*
X88861000Y-53720360D01*
X87881011Y-53720360D01*
X87881011Y-51156239D01*
X87903505Y-51122574D01*
X87954840Y-50998640D01*
X87981011Y-50867073D01*
X87981011Y-50732927D01*
X87954840Y-50601360D01*
X87903505Y-50477426D01*
X87828978Y-50365888D01*
X87734123Y-50271033D01*
X87622585Y-50196506D01*
X87498651Y-50145171D01*
X87367084Y-50119000D01*
X87232938Y-50119000D01*
X87101371Y-50145171D01*
X86977437Y-50196506D01*
X86865899Y-50271033D01*
X86771044Y-50365888D01*
X86696517Y-50477426D01*
X86679010Y-50519692D01*
X86679010Y-49720360D01*
X88861000Y-49720360D01*
X88861000Y-50041640D01*
X88923678Y-50356745D01*
X89046626Y-50653568D01*
X89225119Y-50920702D01*
X89452298Y-51147881D01*
X89719432Y-51326374D01*
X90016255Y-51449322D01*
X90331360Y-51512000D01*
X90652640Y-51512000D01*
X90967745Y-51449322D01*
X91264568Y-51326374D01*
X91531702Y-51147881D01*
X91758881Y-50920702D01*
X91937374Y-50653568D01*
X92060322Y-50356745D01*
X92123000Y-50041640D01*
X92123000Y-49720360D01*
X92060322Y-49405255D01*
X91937374Y-49108432D01*
X91758881Y-48841298D01*
X91531702Y-48614119D01*
X91264568Y-48435626D01*
X90967745Y-48312678D01*
X90652640Y-48250000D01*
X90331360Y-48250000D01*
X90016255Y-48312678D01*
X89719432Y-48435626D01*
X89452298Y-48614119D01*
X89225119Y-48841298D01*
X89046626Y-49108432D01*
X88923678Y-49405255D01*
X88861000Y-49720360D01*
X86679010Y-49720360D01*
X86679010Y-43535079D01*
X86726977Y-43487112D01*
X86801504Y-43375574D01*
X86852839Y-43251640D01*
X86859061Y-43220360D01*
X88861000Y-43220360D01*
X88861000Y-43541640D01*
X88923678Y-43856745D01*
X89046626Y-44153568D01*
X89225119Y-44420702D01*
X89452298Y-44647881D01*
X89719432Y-44826374D01*
X90016255Y-44949322D01*
X90331360Y-45012000D01*
X90652640Y-45012000D01*
X90967745Y-44949322D01*
X91264568Y-44826374D01*
X91531702Y-44647881D01*
X91758881Y-44420702D01*
X91937374Y-44153568D01*
X92060322Y-43856745D01*
X92123000Y-43541640D01*
X92123000Y-43220360D01*
X92060322Y-42905255D01*
X91937374Y-42608432D01*
X91758881Y-42341298D01*
X91531702Y-42114119D01*
X91264568Y-41935626D01*
X90967745Y-41812678D01*
X90652640Y-41750000D01*
X90331360Y-41750000D01*
X90016255Y-41812678D01*
X89719432Y-41935626D01*
X89452298Y-42114119D01*
X89225119Y-42341298D01*
X89046626Y-42608432D01*
X88923678Y-42905255D01*
X88861000Y-43220360D01*
X86859061Y-43220360D01*
X86879010Y-43120073D01*
X86879010Y-42985927D01*
X86852839Y-42854360D01*
X86801504Y-42730426D01*
X86726977Y-42618888D01*
X86632122Y-42524033D01*
X86520584Y-42449506D01*
X86396650Y-42398171D01*
X86265083Y-42372000D01*
X86130937Y-42372000D01*
X86079000Y-42382331D01*
X86079000Y-39220360D01*
X88861000Y-39220360D01*
X88861000Y-39541640D01*
X88923678Y-39856745D01*
X89046626Y-40153568D01*
X89225119Y-40420702D01*
X89452298Y-40647881D01*
X89719432Y-40826374D01*
X90016255Y-40949322D01*
X90331360Y-41012000D01*
X90652640Y-41012000D01*
X90967745Y-40949322D01*
X91264568Y-40826374D01*
X91531702Y-40647881D01*
X91758881Y-40420702D01*
X91937374Y-40153568D01*
X92060322Y-39856745D01*
X92123000Y-39541640D01*
X92123000Y-39220360D01*
X92060322Y-38905255D01*
X91937374Y-38608432D01*
X91758881Y-38341298D01*
X91531702Y-38114119D01*
X91264568Y-37935626D01*
X90967745Y-37812678D01*
X90652640Y-37750000D01*
X90331360Y-37750000D01*
X90016255Y-37812678D01*
X89719432Y-37935626D01*
X89452298Y-38114119D01*
X89225119Y-38341298D01*
X89046626Y-38608432D01*
X88923678Y-38905255D01*
X88861000Y-39220360D01*
X86079000Y-39220360D01*
X86079000Y-36516497D01*
X89446306Y-36516497D01*
X89580780Y-36743220D01*
X89864045Y-36894816D01*
X90171442Y-36988237D01*
X90491158Y-37019892D01*
X90810906Y-36988566D01*
X91118399Y-36895462D01*
X91401819Y-36744157D01*
X91403220Y-36743220D01*
X91537694Y-36516497D01*
X90492000Y-35470803D01*
X89446306Y-36516497D01*
X86079000Y-36516497D01*
X86079000Y-35380158D01*
X88853108Y-35380158D01*
X88884434Y-35699906D01*
X88977538Y-36007399D01*
X89128843Y-36290819D01*
X89129780Y-36292220D01*
X89356503Y-36426694D01*
X90402197Y-35381000D01*
X90581803Y-35381000D01*
X91627497Y-36426694D01*
X91854220Y-36292220D01*
X92005816Y-36008955D01*
X92099237Y-35701558D01*
X92130892Y-35381842D01*
X92099566Y-35062094D01*
X92006462Y-34754601D01*
X91855157Y-34471181D01*
X91854220Y-34469780D01*
X91627497Y-34335306D01*
X90581803Y-35381000D01*
X90402197Y-35381000D01*
X89356503Y-34335306D01*
X89129780Y-34469780D01*
X88978184Y-34753045D01*
X88884763Y-35060442D01*
X88853108Y-35380158D01*
X86079000Y-35380158D01*
X86079000Y-34245503D01*
X89446306Y-34245503D01*
X90492000Y-35291197D01*
X91537694Y-34245503D01*
X91403220Y-34018780D01*
X91119955Y-33867184D01*
X90812558Y-33773763D01*
X90492842Y-33742108D01*
X90173094Y-33773434D01*
X89865601Y-33866538D01*
X89582181Y-34017843D01*
X89580780Y-34018780D01*
X89446306Y-34245503D01*
X86079000Y-34245503D01*
X86079000Y-29835188D01*
X86181097Y-29792898D01*
X86382717Y-29658180D01*
X86554180Y-29486717D01*
X86688898Y-29285097D01*
X86781693Y-29061069D01*
X86829000Y-28823243D01*
X86829000Y-28580757D01*
X86907000Y-28580757D01*
X86907000Y-28823243D01*
X86954307Y-29061069D01*
X87047102Y-29285097D01*
X87181820Y-29486717D01*
X87353283Y-29658180D01*
X87554903Y-29792898D01*
X87778931Y-29885693D01*
X88016757Y-29933000D01*
X88259243Y-29933000D01*
X88497069Y-29885693D01*
X88721097Y-29792898D01*
X88922717Y-29658180D01*
X89094180Y-29486717D01*
X89228898Y-29285097D01*
X89321693Y-29061069D01*
X89369000Y-28823243D01*
X89369000Y-28580757D01*
X89321693Y-28342931D01*
X89228898Y-28118903D01*
X89094180Y-27917283D01*
X89028897Y-27852000D01*
X89445157Y-27852000D01*
X89445157Y-29552000D01*
X89452513Y-29626689D01*
X89474299Y-29698508D01*
X89509678Y-29764696D01*
X89557289Y-29822711D01*
X89615304Y-29870322D01*
X89681492Y-29905701D01*
X89753311Y-29927487D01*
X89828000Y-29934843D01*
X91528000Y-29934843D01*
X91602689Y-29927487D01*
X91674508Y-29905701D01*
X91740696Y-29870322D01*
X91798711Y-29822711D01*
X91846322Y-29764696D01*
X91881701Y-29698508D01*
X91903487Y-29626689D01*
X91910843Y-29552000D01*
X91910843Y-27852000D01*
X91903487Y-27777311D01*
X91881701Y-27705492D01*
X91846322Y-27639304D01*
X91798711Y-27581289D01*
X91740696Y-27533678D01*
X91674508Y-27498299D01*
X91602689Y-27476513D01*
X91528000Y-27469157D01*
X89828000Y-27469157D01*
X89753311Y-27476513D01*
X89681492Y-27498299D01*
X89615304Y-27533678D01*
X89557289Y-27581289D01*
X89509678Y-27639304D01*
X89474299Y-27705492D01*
X89452513Y-27777311D01*
X89445157Y-27852000D01*
X89028897Y-27852000D01*
X88922717Y-27745820D01*
X88721097Y-27611102D01*
X88497069Y-27518307D01*
X88259243Y-27471000D01*
X88016757Y-27471000D01*
X87778931Y-27518307D01*
X87554903Y-27611102D01*
X87353283Y-27745820D01*
X87181820Y-27917283D01*
X87047102Y-28118903D01*
X86954307Y-28342931D01*
X86907000Y-28580757D01*
X86829000Y-28580757D01*
X86781693Y-28342931D01*
X86688898Y-28118903D01*
X86554180Y-27917283D01*
X86382717Y-27745820D01*
X86181097Y-27611102D01*
X85957069Y-27518307D01*
X85719243Y-27471000D01*
X85476757Y-27471000D01*
X85238931Y-27518307D01*
X85014903Y-27611102D01*
X84813283Y-27745820D01*
X84641820Y-27917283D01*
X84507102Y-28118903D01*
X84414307Y-28342931D01*
X84367000Y-28580757D01*
X84367000Y-28823243D01*
X84414307Y-29061069D01*
X84507102Y-29285097D01*
X84641820Y-29486717D01*
X84646103Y-29491000D01*
X84009897Y-29491000D01*
X84014180Y-29486717D01*
X84148898Y-29285097D01*
X84241693Y-29061069D01*
X84289000Y-28823243D01*
X84289000Y-28580757D01*
X84241693Y-28342931D01*
X84148898Y-28118903D01*
X84014180Y-27917283D01*
X83842717Y-27745820D01*
X83641097Y-27611102D01*
X83417069Y-27518307D01*
X83179243Y-27471000D01*
X82936757Y-27471000D01*
X82698931Y-27518307D01*
X82474903Y-27611102D01*
X82273283Y-27745820D01*
X82101820Y-27917283D01*
X81967102Y-28118903D01*
X81874307Y-28342931D01*
X81827000Y-28580757D01*
X81827000Y-28823243D01*
X81874307Y-29061069D01*
X81967102Y-29285097D01*
X82101820Y-29486717D01*
X82273283Y-29658180D01*
X82474903Y-29792898D01*
X82575693Y-29834646D01*
X82574673Y-29845000D01*
X82583960Y-29939292D01*
X82607581Y-30017157D01*
X82611465Y-30029961D01*
X82656129Y-30113522D01*
X82716237Y-30186764D01*
X82734589Y-30201825D01*
X82828170Y-30295406D01*
X82843236Y-30313764D01*
X82916478Y-30373872D01*
X83000039Y-30418536D01*
X83069605Y-30439638D01*
X83090707Y-30446040D01*
X83184999Y-30455327D01*
X83208626Y-30453000D01*
X84617346Y-30453000D01*
X84617346Y-42317133D01*
X84565418Y-42306804D01*
X84431272Y-42306804D01*
X84299705Y-42332975D01*
X84175771Y-42384310D01*
X84064233Y-42458837D01*
X83969378Y-42553692D01*
X83894851Y-42665230D01*
X83880863Y-42699000D01*
X79095079Y-42699000D01*
X79047112Y-42651033D01*
X78935574Y-42576506D01*
X78811640Y-42525171D01*
X78680073Y-42499000D01*
X78545927Y-42499000D01*
X78414360Y-42525171D01*
X78290426Y-42576506D01*
X78178888Y-42651033D01*
X78084033Y-42745888D01*
X78009506Y-42857426D01*
X77958171Y-42981360D01*
X77932000Y-43112927D01*
X77932000Y-43247073D01*
X77958171Y-43378640D01*
X78009506Y-43502574D01*
X78021944Y-43521189D01*
X78021039Y-43521464D01*
X77937478Y-43566128D01*
X77864236Y-43626236D01*
X77849174Y-43644589D01*
X77270764Y-44223000D01*
X64539623Y-44223000D01*
X64515999Y-44220673D01*
X64492375Y-44223000D01*
X64492374Y-44223000D01*
X64421708Y-44229960D01*
X64342990Y-44253839D01*
X64342990Y-42237000D01*
X65937761Y-42237000D01*
X65971426Y-42259494D01*
X66095360Y-42310829D01*
X66226927Y-42337000D01*
X66361073Y-42337000D01*
X66492640Y-42310829D01*
X66616574Y-42259494D01*
X66728112Y-42184967D01*
X66822967Y-42090112D01*
X66897494Y-41978574D01*
X66948829Y-41854640D01*
X66975000Y-41723073D01*
X66975000Y-41588927D01*
X66948829Y-41457360D01*
X66897494Y-41333426D01*
X66822967Y-41221888D01*
X66728112Y-41127033D01*
X66616574Y-41052506D01*
X66492640Y-41001171D01*
X66361073Y-40975000D01*
X66226927Y-40975000D01*
X66095360Y-41001171D01*
X65971426Y-41052506D01*
X65937761Y-41075000D01*
X64036540Y-41075000D01*
X64008000Y-41072189D01*
X63979460Y-41075000D01*
X63894104Y-41083407D01*
X63784585Y-41116629D01*
X63683652Y-41170579D01*
X63595183Y-41243183D01*
X63576983Y-41265360D01*
X63371350Y-41470993D01*
X63349173Y-41489193D01*
X63276570Y-41577662D01*
X63276569Y-41577663D01*
X63222619Y-41678596D01*
X63189397Y-41788115D01*
X63178179Y-41902010D01*
X63180990Y-41930550D01*
X63180990Y-49263911D01*
X63172112Y-49255033D01*
X63060574Y-49180506D01*
X62936640Y-49129171D01*
X62805073Y-49103000D01*
X62670927Y-49103000D01*
X62539360Y-49129171D01*
X62415426Y-49180506D01*
X62303888Y-49255033D01*
X62209033Y-49349888D01*
X62134506Y-49461426D01*
X62083171Y-49585360D01*
X62057000Y-49716927D01*
X62057000Y-49851073D01*
X62083171Y-49982640D01*
X62134506Y-50106574D01*
X62157000Y-50140239D01*
X62157001Y-75870233D01*
X62154903Y-75871102D01*
X61953283Y-76005820D01*
X61781820Y-76177283D01*
X61647102Y-76378903D01*
X61554307Y-76602931D01*
X61507000Y-76840757D01*
X61429000Y-76840757D01*
X61381693Y-76602931D01*
X61288898Y-76378903D01*
X61154180Y-76177283D01*
X60982717Y-76005820D01*
X60781097Y-75871102D01*
X60557069Y-75778307D01*
X60319243Y-75731000D01*
X60076757Y-75731000D01*
X59838931Y-75778307D01*
X59614903Y-75871102D01*
X59413283Y-76005820D01*
X59241820Y-76177283D01*
X59107102Y-76378903D01*
X59014307Y-76602931D01*
X58967000Y-76840757D01*
X58889000Y-76840757D01*
X58841693Y-76602931D01*
X58748898Y-76378903D01*
X58614180Y-76177283D01*
X58442717Y-76005820D01*
X58241097Y-75871102D01*
X58017069Y-75778307D01*
X57779243Y-75731000D01*
X57536757Y-75731000D01*
X57298931Y-75778307D01*
X57074903Y-75871102D01*
X56873283Y-76005820D01*
X56701820Y-76177283D01*
X56567102Y-76378903D01*
X56474307Y-76602931D01*
X56427000Y-76840757D01*
X56349000Y-76840757D01*
X56301693Y-76602931D01*
X56208898Y-76378903D01*
X56074180Y-76177283D01*
X55902717Y-76005820D01*
X55701097Y-75871102D01*
X55477069Y-75778307D01*
X55239243Y-75731000D01*
X54996757Y-75731000D01*
X54758931Y-75778307D01*
X54534903Y-75871102D01*
X54333283Y-76005820D01*
X54161820Y-76177283D01*
X54027102Y-76378903D01*
X53934307Y-76602931D01*
X53887000Y-76840757D01*
X40030000Y-76840757D01*
X40030000Y-31128757D01*
X44743000Y-31128757D01*
X44743000Y-31371243D01*
X44790307Y-31609069D01*
X44883102Y-31833097D01*
X45017820Y-32034717D01*
X45189283Y-32206180D01*
X45390903Y-32340898D01*
X45614931Y-32433693D01*
X45852757Y-32481000D01*
X46095243Y-32481000D01*
X46333069Y-32433693D01*
X46431311Y-32393000D01*
X46887673Y-32393000D01*
X46890000Y-32416626D01*
X46890001Y-74398364D01*
X46887673Y-74422000D01*
X46896960Y-74516292D01*
X46916804Y-74581707D01*
X46924465Y-74606961D01*
X46944000Y-74643509D01*
X46944000Y-74743073D01*
X46970171Y-74874640D01*
X47021506Y-74998574D01*
X47096033Y-75110112D01*
X47190888Y-75204967D01*
X47302426Y-75279494D01*
X47426360Y-75330829D01*
X47557927Y-75357000D01*
X47692073Y-75357000D01*
X47823640Y-75330829D01*
X47947574Y-75279494D01*
X48059112Y-75204967D01*
X48153967Y-75110112D01*
X48228494Y-74998574D01*
X48279829Y-74874640D01*
X48306000Y-74743073D01*
X48306000Y-74608927D01*
X48279829Y-74477360D01*
X48228494Y-74353426D01*
X48153967Y-74241888D01*
X48059112Y-74147033D01*
X47947574Y-74072506D01*
X47852000Y-74032918D01*
X47852000Y-36925083D01*
X47858033Y-36934112D01*
X47952888Y-37028967D01*
X48064426Y-37103494D01*
X48188360Y-37154829D01*
X48319927Y-37181000D01*
X48394955Y-37181000D01*
X48345100Y-37301360D01*
X48318929Y-37432927D01*
X48318929Y-37567073D01*
X48345100Y-37698640D01*
X48396435Y-37822574D01*
X48470962Y-37934112D01*
X48565817Y-38028967D01*
X48677355Y-38103494D01*
X48801289Y-38154829D01*
X48932856Y-38181000D01*
X49067002Y-38181000D01*
X49198569Y-38154829D01*
X49322503Y-38103494D01*
X49434041Y-38028967D01*
X49528896Y-37934112D01*
X49603423Y-37822574D01*
X49654758Y-37698640D01*
X49680929Y-37567073D01*
X49680929Y-37432927D01*
X49654758Y-37301360D01*
X49603423Y-37177426D01*
X49528896Y-37065888D01*
X49480929Y-37017921D01*
X49480929Y-36944008D01*
X49565888Y-37028967D01*
X49677426Y-37103494D01*
X49801360Y-37154829D01*
X49932927Y-37181000D01*
X50067073Y-37181000D01*
X50198640Y-37154829D01*
X50322574Y-37103494D01*
X50434112Y-37028967D01*
X50519001Y-36944078D01*
X50519001Y-37017920D01*
X50471033Y-37065888D01*
X50396506Y-37177426D01*
X50345171Y-37301360D01*
X50319000Y-37432927D01*
X50319000Y-37567073D01*
X50345171Y-37698640D01*
X50396506Y-37822574D01*
X50471033Y-37934112D01*
X50565888Y-38028967D01*
X50677426Y-38103494D01*
X50801360Y-38154829D01*
X50932927Y-38181000D01*
X51067073Y-38181000D01*
X51198640Y-38154829D01*
X51322574Y-38103494D01*
X51434112Y-38028967D01*
X51528967Y-37934112D01*
X51603494Y-37822574D01*
X51654829Y-37698640D01*
X51681000Y-37567073D01*
X51681000Y-37432927D01*
X51654829Y-37301360D01*
X51603494Y-37177426D01*
X51528967Y-37065888D01*
X51481000Y-37017921D01*
X51481000Y-36944061D01*
X51565888Y-37028949D01*
X51677426Y-37103476D01*
X51801360Y-37154811D01*
X51932927Y-37180982D01*
X52067073Y-37180982D01*
X52198640Y-37154811D01*
X52322574Y-37103476D01*
X52434112Y-37028949D01*
X52519035Y-36944026D01*
X52519035Y-37017926D01*
X52471067Y-37065894D01*
X52396540Y-37177432D01*
X52345205Y-37301366D01*
X52319034Y-37432933D01*
X52319034Y-37567079D01*
X52345205Y-37698646D01*
X52396540Y-37822580D01*
X52471067Y-37934118D01*
X52565922Y-38028973D01*
X52677460Y-38103500D01*
X52801394Y-38154835D01*
X52932961Y-38181006D01*
X53067107Y-38181006D01*
X53198674Y-38154835D01*
X53322608Y-38103500D01*
X53434146Y-38028973D01*
X53529001Y-37934118D01*
X53603528Y-37822580D01*
X53654863Y-37698646D01*
X53681034Y-37567079D01*
X53681034Y-37432933D01*
X53654863Y-37301366D01*
X53603528Y-37177432D01*
X53529001Y-37065894D01*
X53481034Y-37017927D01*
X53481034Y-36432927D01*
X53819000Y-36432927D01*
X53819000Y-36567073D01*
X53845171Y-36698640D01*
X53896506Y-36822574D01*
X53971033Y-36934112D01*
X54065888Y-37028967D01*
X54177426Y-37103494D01*
X54301360Y-37154829D01*
X54432927Y-37181000D01*
X54567073Y-37181000D01*
X54698640Y-37154829D01*
X54822574Y-37103494D01*
X54934112Y-37028967D01*
X54982079Y-36981000D01*
X55055921Y-36981000D01*
X54971033Y-37065888D01*
X54896506Y-37177426D01*
X54845171Y-37301360D01*
X54819000Y-37432927D01*
X54819000Y-37567073D01*
X54845171Y-37698640D01*
X54896506Y-37822574D01*
X54971033Y-37934112D01*
X55065888Y-38028967D01*
X55177426Y-38103494D01*
X55301360Y-38154829D01*
X55432927Y-38181000D01*
X55567073Y-38181000D01*
X55698640Y-38154829D01*
X55822574Y-38103494D01*
X55934112Y-38028967D01*
X55982079Y-37981000D01*
X77665374Y-37981000D01*
X77689000Y-37983327D01*
X77712626Y-37981000D01*
X77783292Y-37974040D01*
X77873961Y-37946536D01*
X77957522Y-37901872D01*
X78030764Y-37841764D01*
X78045830Y-37823406D01*
X78301406Y-37567830D01*
X78319764Y-37552764D01*
X78379872Y-37479522D01*
X78404777Y-37432927D01*
X78424536Y-37395962D01*
X78452040Y-37305293D01*
X78461327Y-37211000D01*
X78459000Y-37187374D01*
X78459000Y-29835188D01*
X78561097Y-29792898D01*
X78762717Y-29658180D01*
X78934180Y-29486717D01*
X79068898Y-29285097D01*
X79161693Y-29061069D01*
X79209000Y-28823243D01*
X79209000Y-28580757D01*
X79287000Y-28580757D01*
X79287000Y-28823243D01*
X79334307Y-29061069D01*
X79427102Y-29285097D01*
X79561820Y-29486717D01*
X79733283Y-29658180D01*
X79934903Y-29792898D01*
X80158931Y-29885693D01*
X80396757Y-29933000D01*
X80639243Y-29933000D01*
X80877069Y-29885693D01*
X81101097Y-29792898D01*
X81302717Y-29658180D01*
X81474180Y-29486717D01*
X81608898Y-29285097D01*
X81701693Y-29061069D01*
X81749000Y-28823243D01*
X81749000Y-28580757D01*
X81701693Y-28342931D01*
X81608898Y-28118903D01*
X81474180Y-27917283D01*
X81302717Y-27745820D01*
X81101097Y-27611102D01*
X80877069Y-27518307D01*
X80639243Y-27471000D01*
X80396757Y-27471000D01*
X80158931Y-27518307D01*
X79934903Y-27611102D01*
X79733283Y-27745820D01*
X79561820Y-27917283D01*
X79427102Y-28118903D01*
X79334307Y-28342931D01*
X79287000Y-28580757D01*
X79209000Y-28580757D01*
X79161693Y-28342931D01*
X79068898Y-28118903D01*
X78934180Y-27917283D01*
X78762717Y-27745820D01*
X78561097Y-27611102D01*
X78337069Y-27518307D01*
X78099243Y-27471000D01*
X77856757Y-27471000D01*
X77618931Y-27518307D01*
X77394903Y-27611102D01*
X77193283Y-27745820D01*
X77021820Y-27917283D01*
X76887102Y-28118903D01*
X76794307Y-28342931D01*
X76747000Y-28580757D01*
X76747000Y-28823243D01*
X76794307Y-29061069D01*
X76887102Y-29285097D01*
X77021820Y-29486717D01*
X77193283Y-29658180D01*
X77394903Y-29792898D01*
X77497000Y-29835188D01*
X77497001Y-37011763D01*
X77489764Y-37019000D01*
X55982079Y-37019000D01*
X55944079Y-36981000D01*
X75236374Y-36981000D01*
X75260000Y-36983327D01*
X75283626Y-36981000D01*
X75354292Y-36974040D01*
X75444961Y-36946536D01*
X75528522Y-36901872D01*
X75601764Y-36841764D01*
X75616830Y-36823406D01*
X75761406Y-36678830D01*
X75779764Y-36663764D01*
X75839872Y-36590522D01*
X75884536Y-36506961D01*
X75912040Y-36416292D01*
X75921327Y-36322001D01*
X75919000Y-36298374D01*
X75919000Y-29835188D01*
X76021097Y-29792898D01*
X76222717Y-29658180D01*
X76394180Y-29486717D01*
X76528898Y-29285097D01*
X76621693Y-29061069D01*
X76669000Y-28823243D01*
X76669000Y-28580757D01*
X76621693Y-28342931D01*
X76528898Y-28118903D01*
X76394180Y-27917283D01*
X76222717Y-27745820D01*
X76021097Y-27611102D01*
X75797069Y-27518307D01*
X75559243Y-27471000D01*
X75316757Y-27471000D01*
X75078931Y-27518307D01*
X74854903Y-27611102D01*
X74653283Y-27745820D01*
X74481820Y-27917283D01*
X74347102Y-28118903D01*
X74254307Y-28342931D01*
X74207000Y-28580757D01*
X74207000Y-28823243D01*
X74254307Y-29061069D01*
X74347102Y-29285097D01*
X74481820Y-29486717D01*
X74653283Y-29658180D01*
X74854903Y-29792898D01*
X74957000Y-29835188D01*
X74957001Y-36019000D01*
X54982079Y-36019000D01*
X54934112Y-35971033D01*
X54822574Y-35896506D01*
X54698640Y-35845171D01*
X54567073Y-35819000D01*
X54432927Y-35819000D01*
X54301360Y-35845171D01*
X54177426Y-35896506D01*
X54065888Y-35971033D01*
X53971033Y-36065888D01*
X53896506Y-36177426D01*
X53845171Y-36301360D01*
X53819000Y-36432927D01*
X53481034Y-36432927D01*
X53481034Y-35501050D01*
X72652324Y-35501050D01*
X72675950Y-35503377D01*
X72699576Y-35501050D01*
X72770242Y-35494090D01*
X72860911Y-35466586D01*
X72944472Y-35421922D01*
X73017714Y-35361814D01*
X73032780Y-35343456D01*
X73221406Y-35154830D01*
X73239764Y-35139764D01*
X73299872Y-35066522D01*
X73344536Y-34982961D01*
X73363696Y-34919797D01*
X73372040Y-34892293D01*
X73381327Y-34798001D01*
X73379000Y-34774374D01*
X73379000Y-29835188D01*
X73481097Y-29792898D01*
X73682717Y-29658180D01*
X73854180Y-29486717D01*
X73988898Y-29285097D01*
X74081693Y-29061069D01*
X74129000Y-28823243D01*
X74129000Y-28580757D01*
X74081693Y-28342931D01*
X73988898Y-28118903D01*
X73854180Y-27917283D01*
X73682717Y-27745820D01*
X73481097Y-27611102D01*
X73257069Y-27518307D01*
X73019243Y-27471000D01*
X72776757Y-27471000D01*
X72538931Y-27518307D01*
X72314903Y-27611102D01*
X72113283Y-27745820D01*
X71941820Y-27917283D01*
X71807102Y-28118903D01*
X71714307Y-28342931D01*
X71667000Y-28580757D01*
X71667000Y-28823243D01*
X71714307Y-29061069D01*
X71807102Y-29285097D01*
X71941820Y-29486717D01*
X72113283Y-29658180D01*
X72314903Y-29792898D01*
X72417000Y-29835188D01*
X72417001Y-34539050D01*
X68029620Y-34539050D01*
X68038040Y-34511292D01*
X68043463Y-34456237D01*
X68047327Y-34417000D01*
X68045000Y-34393374D01*
X68045000Y-32482843D01*
X69684000Y-32482843D01*
X69758689Y-32475487D01*
X69830508Y-32453701D01*
X69896696Y-32418322D01*
X69954711Y-32370711D01*
X70002322Y-32312696D01*
X70037701Y-32246508D01*
X70059487Y-32174689D01*
X70066843Y-32100000D01*
X70066843Y-30400000D01*
X70059487Y-30325311D01*
X70037701Y-30253492D01*
X70002322Y-30187304D01*
X69954711Y-30129289D01*
X69896696Y-30081678D01*
X69830508Y-30046299D01*
X69758689Y-30024513D01*
X69684000Y-30017157D01*
X68199079Y-30017157D01*
X68281393Y-29934843D01*
X69684000Y-29934843D01*
X69758689Y-29927487D01*
X69830508Y-29905701D01*
X69896696Y-29870322D01*
X69954711Y-29822711D01*
X70002322Y-29764696D01*
X70037701Y-29698508D01*
X70059487Y-29626689D01*
X70066843Y-29552000D01*
X70066843Y-27852000D01*
X70059487Y-27777311D01*
X70037701Y-27705492D01*
X70002322Y-27639304D01*
X69954711Y-27581289D01*
X69896696Y-27533678D01*
X69830508Y-27498299D01*
X69758689Y-27476513D01*
X69684000Y-27469157D01*
X67984000Y-27469157D01*
X67909311Y-27476513D01*
X67837492Y-27498299D01*
X67771304Y-27533678D01*
X67713289Y-27581289D01*
X67665678Y-27639304D01*
X67630299Y-27705492D01*
X67608513Y-27777311D01*
X67601157Y-27852000D01*
X67601157Y-29254607D01*
X67240594Y-29615170D01*
X67222236Y-29630236D01*
X67162128Y-29703478D01*
X67117464Y-29787040D01*
X67101756Y-29838824D01*
X67089960Y-29877708D01*
X67080673Y-29972000D01*
X67083000Y-29995626D01*
X67083000Y-30298103D01*
X67078717Y-30293820D01*
X66877097Y-30159102D01*
X66653069Y-30066307D01*
X66415243Y-30019000D01*
X66172757Y-30019000D01*
X65934931Y-30066307D01*
X65710903Y-30159102D01*
X65509283Y-30293820D01*
X65505000Y-30298103D01*
X65505000Y-30171236D01*
X65832833Y-29843403D01*
X65934931Y-29885693D01*
X66172757Y-29933000D01*
X66415243Y-29933000D01*
X66653069Y-29885693D01*
X66877097Y-29792898D01*
X67078717Y-29658180D01*
X67250180Y-29486717D01*
X67384898Y-29285097D01*
X67477693Y-29061069D01*
X67525000Y-28823243D01*
X67525000Y-28580757D01*
X67477693Y-28342931D01*
X67384898Y-28118903D01*
X67250180Y-27917283D01*
X67078717Y-27745820D01*
X66877097Y-27611102D01*
X66653069Y-27518307D01*
X66415243Y-27471000D01*
X66172757Y-27471000D01*
X65934931Y-27518307D01*
X65710903Y-27611102D01*
X65509283Y-27745820D01*
X65337820Y-27917283D01*
X65203102Y-28118903D01*
X65110307Y-28342931D01*
X65063000Y-28580757D01*
X65063000Y-28823243D01*
X65110307Y-29061069D01*
X65152597Y-29163167D01*
X64700594Y-29615170D01*
X64682236Y-29630236D01*
X64622128Y-29703478D01*
X64577464Y-29787040D01*
X64561756Y-29838824D01*
X64549960Y-29877708D01*
X64540673Y-29972000D01*
X64543000Y-29995626D01*
X64543000Y-30298103D01*
X64538717Y-30293820D01*
X64337097Y-30159102D01*
X64113069Y-30066307D01*
X63875243Y-30019000D01*
X63632757Y-30019000D01*
X63394931Y-30066307D01*
X63170903Y-30159102D01*
X62969283Y-30293820D01*
X62965000Y-30298103D01*
X62965000Y-30171236D01*
X63292833Y-29843403D01*
X63394931Y-29885693D01*
X63632757Y-29933000D01*
X63875243Y-29933000D01*
X64113069Y-29885693D01*
X64337097Y-29792898D01*
X64538717Y-29658180D01*
X64710180Y-29486717D01*
X64844898Y-29285097D01*
X64937693Y-29061069D01*
X64985000Y-28823243D01*
X64985000Y-28580757D01*
X64937693Y-28342931D01*
X64844898Y-28118903D01*
X64710180Y-27917283D01*
X64538717Y-27745820D01*
X64337097Y-27611102D01*
X64113069Y-27518307D01*
X63875243Y-27471000D01*
X63632757Y-27471000D01*
X63394931Y-27518307D01*
X63170903Y-27611102D01*
X62969283Y-27745820D01*
X62797820Y-27917283D01*
X62663102Y-28118903D01*
X62570307Y-28342931D01*
X62523000Y-28580757D01*
X62523000Y-28823243D01*
X62570307Y-29061069D01*
X62612597Y-29163167D01*
X62160589Y-29615175D01*
X62142237Y-29630236D01*
X62127176Y-29648588D01*
X62082129Y-29703478D01*
X62037465Y-29787039D01*
X62009960Y-29877708D01*
X62000673Y-29972000D01*
X62003001Y-29995636D01*
X62003001Y-30298104D01*
X61998717Y-30293820D01*
X61797097Y-30159102D01*
X61573069Y-30066307D01*
X61335243Y-30019000D01*
X61092757Y-30019000D01*
X60854931Y-30066307D01*
X60630903Y-30159102D01*
X60429283Y-30293820D01*
X60425000Y-30298103D01*
X60425000Y-30171236D01*
X60752833Y-29843403D01*
X60854931Y-29885693D01*
X61092757Y-29933000D01*
X61335243Y-29933000D01*
X61573069Y-29885693D01*
X61797097Y-29792898D01*
X61998717Y-29658180D01*
X62170180Y-29486717D01*
X62304898Y-29285097D01*
X62397693Y-29061069D01*
X62445000Y-28823243D01*
X62445000Y-28580757D01*
X62397693Y-28342931D01*
X62304898Y-28118903D01*
X62170180Y-27917283D01*
X61998717Y-27745820D01*
X61797097Y-27611102D01*
X61573069Y-27518307D01*
X61335243Y-27471000D01*
X61092757Y-27471000D01*
X60854931Y-27518307D01*
X60630903Y-27611102D01*
X60429283Y-27745820D01*
X60257820Y-27917283D01*
X60123102Y-28118903D01*
X60030307Y-28342931D01*
X59983000Y-28580757D01*
X59983000Y-28823243D01*
X60030307Y-29061069D01*
X60072597Y-29163167D01*
X59620594Y-29615170D01*
X59602236Y-29630236D01*
X59542128Y-29703478D01*
X59497464Y-29787040D01*
X59481756Y-29838824D01*
X59469960Y-29877708D01*
X59460673Y-29972000D01*
X59463000Y-29995626D01*
X59463000Y-30298103D01*
X59458717Y-30293820D01*
X59257097Y-30159102D01*
X59033069Y-30066307D01*
X58795243Y-30019000D01*
X58552757Y-30019000D01*
X58314931Y-30066307D01*
X58090903Y-30159102D01*
X57889283Y-30293820D01*
X57717820Y-30465283D01*
X57583102Y-30666903D01*
X57490307Y-30890931D01*
X57443000Y-31128757D01*
X57443000Y-31371243D01*
X57490307Y-31609069D01*
X57583102Y-31833097D01*
X57717820Y-32034717D01*
X57889283Y-32206180D01*
X58090903Y-32340898D01*
X58314931Y-32433693D01*
X58552757Y-32481000D01*
X58795243Y-32481000D01*
X59033069Y-32433693D01*
X59257097Y-32340898D01*
X59458717Y-32206180D01*
X59463001Y-32201896D01*
X59463001Y-32939010D01*
X55314161Y-32939010D01*
X55338040Y-32860292D01*
X55345000Y-32789626D01*
X55345000Y-32789625D01*
X55347327Y-32766001D01*
X55345000Y-32742377D01*
X55345000Y-32201897D01*
X55349283Y-32206180D01*
X55550903Y-32340898D01*
X55774931Y-32433693D01*
X56012757Y-32481000D01*
X56255243Y-32481000D01*
X56493069Y-32433693D01*
X56717097Y-32340898D01*
X56918717Y-32206180D01*
X57090180Y-32034717D01*
X57224898Y-31833097D01*
X57317693Y-31609069D01*
X57365000Y-31371243D01*
X57365000Y-31128757D01*
X57317693Y-30890931D01*
X57224898Y-30666903D01*
X57090180Y-30465283D01*
X56918717Y-30293820D01*
X56717097Y-30159102D01*
X56493069Y-30066307D01*
X56255243Y-30019000D01*
X56012757Y-30019000D01*
X55774931Y-30066307D01*
X55550903Y-30159102D01*
X55349283Y-30293820D01*
X55345000Y-30298103D01*
X55345000Y-30171236D01*
X55672833Y-29843403D01*
X55774931Y-29885693D01*
X56012757Y-29933000D01*
X56255243Y-29933000D01*
X56493069Y-29885693D01*
X56717097Y-29792898D01*
X56918717Y-29658180D01*
X57090180Y-29486717D01*
X57224898Y-29285097D01*
X57317693Y-29061069D01*
X57365000Y-28823243D01*
X57365000Y-28580757D01*
X57443000Y-28580757D01*
X57443000Y-28823243D01*
X57490307Y-29061069D01*
X57583102Y-29285097D01*
X57717820Y-29486717D01*
X57889283Y-29658180D01*
X58090903Y-29792898D01*
X58314931Y-29885693D01*
X58552757Y-29933000D01*
X58795243Y-29933000D01*
X59033069Y-29885693D01*
X59257097Y-29792898D01*
X59458717Y-29658180D01*
X59630180Y-29486717D01*
X59764898Y-29285097D01*
X59857693Y-29061069D01*
X59905000Y-28823243D01*
X59905000Y-28580757D01*
X59857693Y-28342931D01*
X59764898Y-28118903D01*
X59630180Y-27917283D01*
X59458717Y-27745820D01*
X59257097Y-27611102D01*
X59033069Y-27518307D01*
X58795243Y-27471000D01*
X58552757Y-27471000D01*
X58314931Y-27518307D01*
X58090903Y-27611102D01*
X57889283Y-27745820D01*
X57717820Y-27917283D01*
X57583102Y-28118903D01*
X57490307Y-28342931D01*
X57443000Y-28580757D01*
X57365000Y-28580757D01*
X57317693Y-28342931D01*
X57224898Y-28118903D01*
X57090180Y-27917283D01*
X56918717Y-27745820D01*
X56717097Y-27611102D01*
X56493069Y-27518307D01*
X56255243Y-27471000D01*
X56012757Y-27471000D01*
X55774931Y-27518307D01*
X55550903Y-27611102D01*
X55349283Y-27745820D01*
X55177820Y-27917283D01*
X55043102Y-28118903D01*
X54950307Y-28342931D01*
X54903000Y-28580757D01*
X54903000Y-28823243D01*
X54950307Y-29061069D01*
X54992597Y-29163167D01*
X54540594Y-29615170D01*
X54522236Y-29630236D01*
X54462128Y-29703478D01*
X54417464Y-29787040D01*
X54401756Y-29838824D01*
X54389960Y-29877708D01*
X54380673Y-29972000D01*
X54383000Y-29995626D01*
X54383000Y-30298103D01*
X54378717Y-30293820D01*
X54177097Y-30159102D01*
X53953069Y-30066307D01*
X53715243Y-30019000D01*
X53472757Y-30019000D01*
X53234931Y-30066307D01*
X53010903Y-30159102D01*
X52809283Y-30293820D01*
X52637820Y-30465283D01*
X52503102Y-30666903D01*
X52410307Y-30890931D01*
X52363000Y-31128757D01*
X52363000Y-31371243D01*
X52410307Y-31609069D01*
X52503102Y-31833097D01*
X52637820Y-32034717D01*
X52809283Y-32206180D01*
X53010903Y-32340898D01*
X53234931Y-32433693D01*
X53472757Y-32481000D01*
X53715243Y-32481000D01*
X53953069Y-32433693D01*
X54177097Y-32340898D01*
X54378717Y-32206180D01*
X54383001Y-32201896D01*
X54383001Y-32539000D01*
X48918615Y-32539000D01*
X48894999Y-32536674D01*
X48871383Y-32539000D01*
X48871374Y-32539000D01*
X48800708Y-32545960D01*
X48710039Y-32573464D01*
X48626478Y-32618128D01*
X48553236Y-32678236D01*
X48538175Y-32696588D01*
X48063594Y-33171170D01*
X48045236Y-33186236D01*
X47985128Y-33259478D01*
X47940464Y-33343040D01*
X47931229Y-33373484D01*
X47912960Y-33433708D01*
X47903673Y-33528000D01*
X47906000Y-33551625D01*
X47906001Y-36017920D01*
X47858033Y-36065888D01*
X47852000Y-36074917D01*
X47852000Y-32592236D01*
X48052833Y-32391403D01*
X48154931Y-32433693D01*
X48392757Y-32481000D01*
X48635243Y-32481000D01*
X48873069Y-32433693D01*
X49097097Y-32340898D01*
X49298717Y-32206180D01*
X49470180Y-32034717D01*
X49604898Y-31833097D01*
X49697693Y-31609069D01*
X49745000Y-31371243D01*
X49745000Y-31128757D01*
X49823000Y-31128757D01*
X49823000Y-31371243D01*
X49870307Y-31609069D01*
X49963102Y-31833097D01*
X50097820Y-32034717D01*
X50269283Y-32206180D01*
X50470903Y-32340898D01*
X50694931Y-32433693D01*
X50932757Y-32481000D01*
X51175243Y-32481000D01*
X51413069Y-32433693D01*
X51637097Y-32340898D01*
X51838717Y-32206180D01*
X52010180Y-32034717D01*
X52144898Y-31833097D01*
X52237693Y-31609069D01*
X52285000Y-31371243D01*
X52285000Y-31128757D01*
X52237693Y-30890931D01*
X52144898Y-30666903D01*
X52010180Y-30465283D01*
X51838717Y-30293820D01*
X51637097Y-30159102D01*
X51413069Y-30066307D01*
X51175243Y-30019000D01*
X50932757Y-30019000D01*
X50694931Y-30066307D01*
X50470903Y-30159102D01*
X50269283Y-30293820D01*
X50097820Y-30465283D01*
X49963102Y-30666903D01*
X49870307Y-30890931D01*
X49823000Y-31128757D01*
X49745000Y-31128757D01*
X49697693Y-30890931D01*
X49604898Y-30666903D01*
X49470180Y-30465283D01*
X49298717Y-30293820D01*
X49097097Y-30159102D01*
X48873069Y-30066307D01*
X48635243Y-30019000D01*
X48392757Y-30019000D01*
X48154931Y-30066307D01*
X47930903Y-30159102D01*
X47729283Y-30293820D01*
X47557820Y-30465283D01*
X47423102Y-30666903D01*
X47330307Y-30890931D01*
X47283000Y-31128757D01*
X47283000Y-31371243D01*
X47330307Y-31609069D01*
X47372597Y-31711167D01*
X47047594Y-32036170D01*
X47029236Y-32051236D01*
X46969128Y-32124478D01*
X46924464Y-32208040D01*
X46912795Y-32246508D01*
X46896960Y-32298708D01*
X46887673Y-32393000D01*
X46431311Y-32393000D01*
X46557097Y-32340898D01*
X46758717Y-32206180D01*
X46930180Y-32034717D01*
X47064898Y-31833097D01*
X47157693Y-31609069D01*
X47205000Y-31371243D01*
X47205000Y-31128757D01*
X47157693Y-30890931D01*
X47064898Y-30666903D01*
X46930180Y-30465283D01*
X46758717Y-30293820D01*
X46557097Y-30159102D01*
X46333069Y-30066307D01*
X46095243Y-30019000D01*
X45852757Y-30019000D01*
X45614931Y-30066307D01*
X45390903Y-30159102D01*
X45189283Y-30293820D01*
X45017820Y-30465283D01*
X44883102Y-30666903D01*
X44790307Y-30890931D01*
X44743000Y-31128757D01*
X40030000Y-31128757D01*
X40030000Y-28580757D01*
X44743000Y-28580757D01*
X44743000Y-28823243D01*
X44790307Y-29061069D01*
X44883102Y-29285097D01*
X45017820Y-29486717D01*
X45189283Y-29658180D01*
X45390903Y-29792898D01*
X45614931Y-29885693D01*
X45852757Y-29933000D01*
X46095243Y-29933000D01*
X46333069Y-29885693D01*
X46557097Y-29792898D01*
X46758717Y-29658180D01*
X46930180Y-29486717D01*
X47064898Y-29285097D01*
X47157693Y-29061069D01*
X47205000Y-28823243D01*
X47205000Y-28580757D01*
X47283000Y-28580757D01*
X47283000Y-28823243D01*
X47330307Y-29061069D01*
X47423102Y-29285097D01*
X47557820Y-29486717D01*
X47729283Y-29658180D01*
X47930903Y-29792898D01*
X48154931Y-29885693D01*
X48392757Y-29933000D01*
X48635243Y-29933000D01*
X48873069Y-29885693D01*
X49097097Y-29792898D01*
X49298717Y-29658180D01*
X49470180Y-29486717D01*
X49604898Y-29285097D01*
X49697693Y-29061069D01*
X49745000Y-28823243D01*
X49745000Y-28580757D01*
X49823000Y-28580757D01*
X49823000Y-28823243D01*
X49870307Y-29061069D01*
X49963102Y-29285097D01*
X50097820Y-29486717D01*
X50269283Y-29658180D01*
X50470903Y-29792898D01*
X50694931Y-29885693D01*
X50932757Y-29933000D01*
X51175243Y-29933000D01*
X51413069Y-29885693D01*
X51637097Y-29792898D01*
X51838717Y-29658180D01*
X52010180Y-29486717D01*
X52144898Y-29285097D01*
X52237693Y-29061069D01*
X52258387Y-28957033D01*
X52389705Y-28957033D01*
X52462600Y-29187079D01*
X52578974Y-29398484D01*
X52734355Y-29583123D01*
X52922771Y-29733901D01*
X53136982Y-29845024D01*
X53338967Y-29906292D01*
X53530500Y-29835973D01*
X53530500Y-28765500D01*
X53657500Y-28765500D01*
X53657500Y-29835973D01*
X53849033Y-29906292D01*
X54051018Y-29845024D01*
X54265229Y-29733901D01*
X54453645Y-29583123D01*
X54609026Y-29398484D01*
X54725400Y-29187079D01*
X54798295Y-28957033D01*
X54728114Y-28765500D01*
X53657500Y-28765500D01*
X53530500Y-28765500D01*
X52459886Y-28765500D01*
X52389705Y-28957033D01*
X52258387Y-28957033D01*
X52285000Y-28823243D01*
X52285000Y-28580757D01*
X52258388Y-28446967D01*
X52389705Y-28446967D01*
X52459886Y-28638500D01*
X53530500Y-28638500D01*
X53530500Y-27568027D01*
X53657500Y-27568027D01*
X53657500Y-28638500D01*
X54728114Y-28638500D01*
X54798295Y-28446967D01*
X54725400Y-28216921D01*
X54609026Y-28005516D01*
X54453645Y-27820877D01*
X54265229Y-27670099D01*
X54051018Y-27558976D01*
X53849033Y-27497708D01*
X53657500Y-27568027D01*
X53530500Y-27568027D01*
X53338967Y-27497708D01*
X53136982Y-27558976D01*
X52922771Y-27670099D01*
X52734355Y-27820877D01*
X52578974Y-28005516D01*
X52462600Y-28216921D01*
X52389705Y-28446967D01*
X52258388Y-28446967D01*
X52237693Y-28342931D01*
X52144898Y-28118903D01*
X52010180Y-27917283D01*
X51838717Y-27745820D01*
X51637097Y-27611102D01*
X51413069Y-27518307D01*
X51175243Y-27471000D01*
X50932757Y-27471000D01*
X50694931Y-27518307D01*
X50470903Y-27611102D01*
X50269283Y-27745820D01*
X50097820Y-27917283D01*
X49963102Y-28118903D01*
X49870307Y-28342931D01*
X49823000Y-28580757D01*
X49745000Y-28580757D01*
X49697693Y-28342931D01*
X49604898Y-28118903D01*
X49470180Y-27917283D01*
X49298717Y-27745820D01*
X49097097Y-27611102D01*
X48873069Y-27518307D01*
X48635243Y-27471000D01*
X48392757Y-27471000D01*
X48154931Y-27518307D01*
X47930903Y-27611102D01*
X47729283Y-27745820D01*
X47557820Y-27917283D01*
X47423102Y-28118903D01*
X47330307Y-28342931D01*
X47283000Y-28580757D01*
X47205000Y-28580757D01*
X47157693Y-28342931D01*
X47064898Y-28118903D01*
X46930180Y-27917283D01*
X46758717Y-27745820D01*
X46557097Y-27611102D01*
X46333069Y-27518307D01*
X46095243Y-27471000D01*
X45852757Y-27471000D01*
X45614931Y-27518307D01*
X45390903Y-27611102D01*
X45189283Y-27745820D01*
X45017820Y-27917283D01*
X44883102Y-28118903D01*
X44790307Y-28342931D01*
X44743000Y-28580757D01*
X40030000Y-28580757D01*
X40030000Y-27197855D01*
X40038461Y-27111561D01*
X40057756Y-27047652D01*
X40089096Y-26988711D01*
X40131287Y-26936979D01*
X40182723Y-26894427D01*
X40241451Y-26862674D01*
X40305219Y-26842934D01*
X40390259Y-26833996D01*
X92230188Y-26822004D01*
X92316439Y-26830461D01*
G37*
%TD.AperFunction*%
D16*
X72671001Y-54586364D02*
X72668673Y-54610000D01*
X72677960Y-54704292D01*
X72699785Y-54776237D01*
X72705465Y-54794961D01*
X72750129Y-54878522D01*
X72760369Y-54891000D01*
X70465001Y-54891000D01*
X70465001Y-53021810D01*
X70492877Y-53056645D01*
X70677516Y-53212026D01*
X70888921Y-53328400D01*
X71118967Y-53401295D01*
X71310500Y-53331114D01*
X71310500Y-52260500D01*
X71437500Y-52260500D01*
X71437500Y-53331114D01*
X71629033Y-53401295D01*
X71859079Y-53328400D01*
X72070484Y-53212026D01*
X72255123Y-53056645D01*
X72405901Y-52868229D01*
X72517024Y-52654018D01*
X72578292Y-52452033D01*
X72507973Y-52260500D01*
X71437500Y-52260500D01*
X71310500Y-52260500D01*
X71290500Y-52260500D01*
X71290500Y-52133500D01*
X71310500Y-52133500D01*
X71310500Y-51062886D01*
X71437500Y-51062886D01*
X71437500Y-52133500D01*
X72507973Y-52133500D01*
X72578292Y-51941967D01*
X72517024Y-51739982D01*
X72405901Y-51525771D01*
X72255123Y-51337355D01*
X72070484Y-51181974D01*
X71859079Y-51065600D01*
X71629033Y-50992705D01*
X71437500Y-51062886D01*
X71310500Y-51062886D01*
X71118967Y-50992705D01*
X70888921Y-51065600D01*
X70677516Y-51181974D01*
X70492877Y-51337355D01*
X70465001Y-51372190D01*
X70465001Y-50488898D01*
X70589283Y-50613180D01*
X70790903Y-50747898D01*
X71014931Y-50840693D01*
X71252757Y-50888000D01*
X71495243Y-50888000D01*
X71733069Y-50840693D01*
X71957097Y-50747898D01*
X72158717Y-50613180D01*
X72330180Y-50441717D01*
X72464898Y-50240097D01*
X72507188Y-50138000D01*
X72671000Y-50138000D01*
X72671001Y-54586364D01*
%TA.AperFunction,Conductor*%
D17*
G36*
X72671001Y-54586364D02*
G01*
X72668673Y-54610000D01*
X72677960Y-54704292D01*
X72699785Y-54776237D01*
X72705465Y-54794961D01*
X72750129Y-54878522D01*
X72760369Y-54891000D01*
X70465001Y-54891000D01*
X70465001Y-53021810D01*
X70492877Y-53056645D01*
X70677516Y-53212026D01*
X70888921Y-53328400D01*
X71118967Y-53401295D01*
X71310500Y-53331114D01*
X71310500Y-52260500D01*
X71437500Y-52260500D01*
X71437500Y-53331114D01*
X71629033Y-53401295D01*
X71859079Y-53328400D01*
X72070484Y-53212026D01*
X72255123Y-53056645D01*
X72405901Y-52868229D01*
X72517024Y-52654018D01*
X72578292Y-52452033D01*
X72507973Y-52260500D01*
X71437500Y-52260500D01*
X71310500Y-52260500D01*
X71290500Y-52260500D01*
X71290500Y-52133500D01*
X71310500Y-52133500D01*
X71310500Y-51062886D01*
X71437500Y-51062886D01*
X71437500Y-52133500D01*
X72507973Y-52133500D01*
X72578292Y-51941967D01*
X72517024Y-51739982D01*
X72405901Y-51525771D01*
X72255123Y-51337355D01*
X72070484Y-51181974D01*
X71859079Y-51065600D01*
X71629033Y-50992705D01*
X71437500Y-51062886D01*
X71310500Y-51062886D01*
X71118967Y-50992705D01*
X70888921Y-51065600D01*
X70677516Y-51181974D01*
X70492877Y-51337355D01*
X70465001Y-51372190D01*
X70465001Y-50488898D01*
X70589283Y-50613180D01*
X70790903Y-50747898D01*
X71014931Y-50840693D01*
X71252757Y-50888000D01*
X71495243Y-50888000D01*
X71733069Y-50840693D01*
X71957097Y-50747898D01*
X72158717Y-50613180D01*
X72330180Y-50441717D01*
X72464898Y-50240097D01*
X72507188Y-50138000D01*
X72671000Y-50138000D01*
X72671001Y-54586364D01*
G37*
%TD.AperFunction*%
D16*
X84431272Y-43668804D02*
X84565418Y-43668804D01*
X84617346Y-43658475D01*
X84617347Y-53059831D01*
X84522574Y-52996506D01*
X84398640Y-52945171D01*
X84267073Y-52919000D01*
X84132927Y-52919000D01*
X84071485Y-52931222D01*
X84045651Y-52801350D01*
X83994316Y-52677416D01*
X83919789Y-52565878D01*
X83824934Y-52471023D01*
X83713396Y-52396496D01*
X83589462Y-52345161D01*
X83457895Y-52318990D01*
X83323749Y-52318990D01*
X83192182Y-52345161D01*
X83068248Y-52396496D01*
X82956710Y-52471023D01*
X82908743Y-52518990D01*
X81897636Y-52518990D01*
X81874010Y-52516663D01*
X81779717Y-52525950D01*
X81689049Y-52553454D01*
X81605488Y-52598118D01*
X81532246Y-52658226D01*
X81517177Y-52676588D01*
X81435741Y-52758024D01*
X81417387Y-52773086D01*
X81402326Y-52791438D01*
X81357279Y-52846328D01*
X81312615Y-52929889D01*
X81285110Y-53020558D01*
X81275823Y-53114850D01*
X81278151Y-53138486D01*
X81278150Y-54383000D01*
X73633000Y-54383000D01*
X73633000Y-49807626D01*
X73635327Y-49783999D01*
X73626040Y-49689707D01*
X73616118Y-49657000D01*
X73598536Y-49599039D01*
X73553872Y-49515478D01*
X73493764Y-49442236D01*
X73475406Y-49427170D01*
X73381830Y-49333594D01*
X73366764Y-49315236D01*
X73293522Y-49255128D01*
X73209961Y-49210464D01*
X73119292Y-49182960D01*
X73048626Y-49176000D01*
X73025000Y-49173673D01*
X73001374Y-49176000D01*
X72507188Y-49176000D01*
X72464898Y-49073903D01*
X72330180Y-48872283D01*
X72158717Y-48700820D01*
X71957097Y-48566102D01*
X71733069Y-48473307D01*
X71495243Y-48426000D01*
X71252757Y-48426000D01*
X71014931Y-48473307D01*
X70790903Y-48566102D01*
X70589283Y-48700820D01*
X70465001Y-48825102D01*
X70465001Y-47948898D01*
X70589283Y-48073180D01*
X70790903Y-48207898D01*
X71014931Y-48300693D01*
X71252757Y-48348000D01*
X71495243Y-48348000D01*
X71733069Y-48300693D01*
X71957097Y-48207898D01*
X72158717Y-48073180D01*
X72330180Y-47901717D01*
X72464898Y-47700097D01*
X72557693Y-47476069D01*
X72605000Y-47238243D01*
X72605000Y-46995757D01*
X72557693Y-46757931D01*
X72464898Y-46533903D01*
X72330180Y-46332283D01*
X72158717Y-46160820D01*
X71957097Y-46026102D01*
X71955000Y-46025233D01*
X71955000Y-45748536D01*
X71957811Y-45719999D01*
X71955000Y-45691460D01*
X71946593Y-45606104D01*
X71913371Y-45496585D01*
X71859421Y-45395652D01*
X71786817Y-45307183D01*
X71764641Y-45288984D01*
X71660657Y-45185000D01*
X77446374Y-45185000D01*
X77470000Y-45187327D01*
X77493626Y-45185000D01*
X77538006Y-45180629D01*
X77564292Y-45178040D01*
X77654961Y-45150536D01*
X77738522Y-45105872D01*
X77811764Y-45045764D01*
X77826830Y-45027406D01*
X78405237Y-44449000D01*
X80517921Y-44449000D01*
X80565888Y-44496967D01*
X80677426Y-44571494D01*
X80801360Y-44622829D01*
X80932927Y-44649000D01*
X81067073Y-44649000D01*
X81198640Y-44622829D01*
X81322574Y-44571494D01*
X81434112Y-44496967D01*
X81528967Y-44402112D01*
X81603494Y-44290574D01*
X81654829Y-44166640D01*
X81681000Y-44035073D01*
X81681000Y-43900927D01*
X81654829Y-43769360D01*
X81609945Y-43661000D01*
X84282523Y-43661000D01*
X84306149Y-43663327D01*
X84329775Y-43661000D01*
X84371420Y-43656898D01*
X84431272Y-43668804D01*
%TA.AperFunction,Conductor*%
D17*
G36*
X84431272Y-43668804D02*
G01*
X84565418Y-43668804D01*
X84617346Y-43658475D01*
X84617347Y-53059831D01*
X84522574Y-52996506D01*
X84398640Y-52945171D01*
X84267073Y-52919000D01*
X84132927Y-52919000D01*
X84071485Y-52931222D01*
X84045651Y-52801350D01*
X83994316Y-52677416D01*
X83919789Y-52565878D01*
X83824934Y-52471023D01*
X83713396Y-52396496D01*
X83589462Y-52345161D01*
X83457895Y-52318990D01*
X83323749Y-52318990D01*
X83192182Y-52345161D01*
X83068248Y-52396496D01*
X82956710Y-52471023D01*
X82908743Y-52518990D01*
X81897636Y-52518990D01*
X81874010Y-52516663D01*
X81779717Y-52525950D01*
X81689049Y-52553454D01*
X81605488Y-52598118D01*
X81532246Y-52658226D01*
X81517177Y-52676588D01*
X81435741Y-52758024D01*
X81417387Y-52773086D01*
X81402326Y-52791438D01*
X81357279Y-52846328D01*
X81312615Y-52929889D01*
X81285110Y-53020558D01*
X81275823Y-53114850D01*
X81278151Y-53138486D01*
X81278150Y-54383000D01*
X73633000Y-54383000D01*
X73633000Y-49807626D01*
X73635327Y-49783999D01*
X73626040Y-49689707D01*
X73616118Y-49657000D01*
X73598536Y-49599039D01*
X73553872Y-49515478D01*
X73493764Y-49442236D01*
X73475406Y-49427170D01*
X73381830Y-49333594D01*
X73366764Y-49315236D01*
X73293522Y-49255128D01*
X73209961Y-49210464D01*
X73119292Y-49182960D01*
X73048626Y-49176000D01*
X73025000Y-49173673D01*
X73001374Y-49176000D01*
X72507188Y-49176000D01*
X72464898Y-49073903D01*
X72330180Y-48872283D01*
X72158717Y-48700820D01*
X71957097Y-48566102D01*
X71733069Y-48473307D01*
X71495243Y-48426000D01*
X71252757Y-48426000D01*
X71014931Y-48473307D01*
X70790903Y-48566102D01*
X70589283Y-48700820D01*
X70465001Y-48825102D01*
X70465001Y-47948898D01*
X70589283Y-48073180D01*
X70790903Y-48207898D01*
X71014931Y-48300693D01*
X71252757Y-48348000D01*
X71495243Y-48348000D01*
X71733069Y-48300693D01*
X71957097Y-48207898D01*
X72158717Y-48073180D01*
X72330180Y-47901717D01*
X72464898Y-47700097D01*
X72557693Y-47476069D01*
X72605000Y-47238243D01*
X72605000Y-46995757D01*
X72557693Y-46757931D01*
X72464898Y-46533903D01*
X72330180Y-46332283D01*
X72158717Y-46160820D01*
X71957097Y-46026102D01*
X71955000Y-46025233D01*
X71955000Y-45748536D01*
X71957811Y-45719999D01*
X71955000Y-45691460D01*
X71946593Y-45606104D01*
X71913371Y-45496585D01*
X71859421Y-45395652D01*
X71786817Y-45307183D01*
X71764641Y-45288984D01*
X71660657Y-45185000D01*
X77446374Y-45185000D01*
X77470000Y-45187327D01*
X77493626Y-45185000D01*
X77538006Y-45180629D01*
X77564292Y-45178040D01*
X77654961Y-45150536D01*
X77738522Y-45105872D01*
X77811764Y-45045764D01*
X77826830Y-45027406D01*
X78405237Y-44449000D01*
X80517921Y-44449000D01*
X80565888Y-44496967D01*
X80677426Y-44571494D01*
X80801360Y-44622829D01*
X80932927Y-44649000D01*
X81067073Y-44649000D01*
X81198640Y-44622829D01*
X81322574Y-44571494D01*
X81434112Y-44496967D01*
X81528967Y-44402112D01*
X81603494Y-44290574D01*
X81654829Y-44166640D01*
X81681000Y-44035073D01*
X81681000Y-43900927D01*
X81654829Y-43769360D01*
X81609945Y-43661000D01*
X84282523Y-43661000D01*
X84306149Y-43663327D01*
X84329775Y-43661000D01*
X84371420Y-43656898D01*
X84431272Y-43668804D01*
G37*
%TD.AperFunction*%
D16*
X65141356Y-45288987D02*
X65119184Y-45307183D01*
X65061612Y-45377335D01*
X65046579Y-45395653D01*
X64992629Y-45496586D01*
X64959407Y-45606105D01*
X64948189Y-45720000D01*
X64951001Y-45748550D01*
X64951000Y-49427761D01*
X64928506Y-49461426D01*
X64877171Y-49585360D01*
X64851000Y-49716927D01*
X64851000Y-49851073D01*
X64877171Y-49982640D01*
X64928506Y-50106574D01*
X65003033Y-50218112D01*
X65097888Y-50312967D01*
X65209426Y-50387494D01*
X65333360Y-50438829D01*
X65464927Y-50465000D01*
X65599073Y-50465000D01*
X65730640Y-50438829D01*
X65854574Y-50387494D01*
X65966112Y-50312967D01*
X66060967Y-50218112D01*
X66135494Y-50106574D01*
X66186829Y-49982640D01*
X66213000Y-49851073D01*
X66213000Y-49716927D01*
X66186829Y-49585360D01*
X66135494Y-49461426D01*
X66113000Y-49427761D01*
X66113000Y-46047000D01*
X67671672Y-46047000D01*
X67665678Y-46054304D01*
X67630299Y-46120492D01*
X67608513Y-46192311D01*
X67601157Y-46267000D01*
X67601157Y-47967000D01*
X67608513Y-48041689D01*
X67630299Y-48113508D01*
X67665678Y-48179696D01*
X67713289Y-48237711D01*
X67771304Y-48285322D01*
X67837492Y-48320701D01*
X67909311Y-48342487D01*
X67984000Y-48349843D01*
X69503001Y-48349843D01*
X69503001Y-48623501D01*
X69417097Y-48566102D01*
X69193069Y-48473307D01*
X68955243Y-48426000D01*
X68712757Y-48426000D01*
X68474931Y-48473307D01*
X68250903Y-48566102D01*
X68049283Y-48700820D01*
X67877820Y-48872283D01*
X67743102Y-49073903D01*
X67650307Y-49297931D01*
X67603000Y-49535757D01*
X67603000Y-49778243D01*
X67650307Y-50016069D01*
X67743102Y-50240097D01*
X67877820Y-50441717D01*
X68049283Y-50613180D01*
X68250903Y-50747898D01*
X68474931Y-50840693D01*
X68712757Y-50888000D01*
X68955243Y-50888000D01*
X69193069Y-50840693D01*
X69417097Y-50747898D01*
X69503001Y-50690499D01*
X69503001Y-51163501D01*
X69417097Y-51106102D01*
X69193069Y-51013307D01*
X68955243Y-50966000D01*
X68712757Y-50966000D01*
X68474931Y-51013307D01*
X68250903Y-51106102D01*
X68049283Y-51240820D01*
X67877820Y-51412283D01*
X67743102Y-51613903D01*
X67700812Y-51716000D01*
X64842237Y-51716000D01*
X64743000Y-51616764D01*
X64743000Y-45185000D01*
X65245343Y-45185000D01*
X65141356Y-45288987D01*
%TA.AperFunction,Conductor*%
D17*
G36*
X65141356Y-45288987D02*
G01*
X65119184Y-45307183D01*
X65061612Y-45377335D01*
X65046579Y-45395653D01*
X64992629Y-45496586D01*
X64959407Y-45606105D01*
X64948189Y-45720000D01*
X64951001Y-45748550D01*
X64951000Y-49427761D01*
X64928506Y-49461426D01*
X64877171Y-49585360D01*
X64851000Y-49716927D01*
X64851000Y-49851073D01*
X64877171Y-49982640D01*
X64928506Y-50106574D01*
X65003033Y-50218112D01*
X65097888Y-50312967D01*
X65209426Y-50387494D01*
X65333360Y-50438829D01*
X65464927Y-50465000D01*
X65599073Y-50465000D01*
X65730640Y-50438829D01*
X65854574Y-50387494D01*
X65966112Y-50312967D01*
X66060967Y-50218112D01*
X66135494Y-50106574D01*
X66186829Y-49982640D01*
X66213000Y-49851073D01*
X66213000Y-49716927D01*
X66186829Y-49585360D01*
X66135494Y-49461426D01*
X66113000Y-49427761D01*
X66113000Y-46047000D01*
X67671672Y-46047000D01*
X67665678Y-46054304D01*
X67630299Y-46120492D01*
X67608513Y-46192311D01*
X67601157Y-46267000D01*
X67601157Y-47967000D01*
X67608513Y-48041689D01*
X67630299Y-48113508D01*
X67665678Y-48179696D01*
X67713289Y-48237711D01*
X67771304Y-48285322D01*
X67837492Y-48320701D01*
X67909311Y-48342487D01*
X67984000Y-48349843D01*
X69503001Y-48349843D01*
X69503001Y-48623501D01*
X69417097Y-48566102D01*
X69193069Y-48473307D01*
X68955243Y-48426000D01*
X68712757Y-48426000D01*
X68474931Y-48473307D01*
X68250903Y-48566102D01*
X68049283Y-48700820D01*
X67877820Y-48872283D01*
X67743102Y-49073903D01*
X67650307Y-49297931D01*
X67603000Y-49535757D01*
X67603000Y-49778243D01*
X67650307Y-50016069D01*
X67743102Y-50240097D01*
X67877820Y-50441717D01*
X68049283Y-50613180D01*
X68250903Y-50747898D01*
X68474931Y-50840693D01*
X68712757Y-50888000D01*
X68955243Y-50888000D01*
X69193069Y-50840693D01*
X69417097Y-50747898D01*
X69503001Y-50690499D01*
X69503001Y-51163501D01*
X69417097Y-51106102D01*
X69193069Y-51013307D01*
X68955243Y-50966000D01*
X68712757Y-50966000D01*
X68474931Y-51013307D01*
X68250903Y-51106102D01*
X68049283Y-51240820D01*
X67877820Y-51412283D01*
X67743102Y-51613903D01*
X67700812Y-51716000D01*
X64842237Y-51716000D01*
X64743000Y-51616764D01*
X64743000Y-45185000D01*
X65245343Y-45185000D01*
X65141356Y-45288987D01*
G37*
%TD.AperFunction*%
%TD*%
M02*
