%TF.GenerationSoftware,KiCad,Pcbnew,(5.1.8)-1*%
%TF.CreationDate,2021-01-10T00:46:59-06:00*%
%TF.ProjectId,GBAHD_Shield,47424148-445f-4536-9869-656c642e6b69,rev?*%
%TF.SameCoordinates,Original*%
%TF.FileFunction,Soldermask,Bot*%
%TF.FilePolarity,Negative*%
%FSLAX46Y46*%
G04 Gerber Fmt 4.6, Leading zero omitted, Abs format (unit mm)*
G04 Created by KiCad (PCBNEW (5.1.8)-1) date 2021-01-10 00:46:59*
%MOMM*%
%LPD*%
G01*
G04 APERTURE LIST*
%ADD10C,2.500000*%
%ADD11O,1.700000X1.700000*%
%ADD12R,1.700000X1.700000*%
G04 APERTURE END LIST*
D10*
%TO.C,U1*%
X90492000Y-61881000D03*
X90492000Y-57881000D03*
X90492000Y-53881000D03*
X90492000Y-49881000D03*
X90492000Y-43381000D03*
X90492000Y-39381000D03*
X90492000Y-35381000D03*
%TD*%
D11*
%TO.C,J6*%
X66790000Y-57830000D03*
X64250000Y-57830000D03*
X66790000Y-55290000D03*
X64250000Y-55290000D03*
X66790000Y-52750000D03*
D12*
X64250000Y-52750000D03*
%TD*%
D11*
%TO.C,J4*%
X68860000Y-28710000D03*
X68860000Y-31250000D03*
X66320000Y-28710000D03*
X66320000Y-31250000D03*
X63780000Y-28710000D03*
X63780000Y-31250000D03*
X61240000Y-28710000D03*
X61240000Y-31250000D03*
X58700000Y-28710000D03*
X58700000Y-31250000D03*
X56160000Y-28710000D03*
X56160000Y-31250000D03*
X53620000Y-28710000D03*
X53620000Y-31250000D03*
X51080000Y-28710000D03*
X51080000Y-31250000D03*
X48540000Y-28710000D03*
X48540000Y-31250000D03*
X46000000Y-28710000D03*
D12*
X46000000Y-31250000D03*
%TD*%
D11*
%TO.C,J2*%
X90704000Y-28710000D03*
X90704000Y-31250000D03*
X88164000Y-28710000D03*
X88164000Y-31250000D03*
X85624000Y-28710000D03*
X85624000Y-31250000D03*
X83084000Y-28710000D03*
X83084000Y-31250000D03*
X80544000Y-28710000D03*
X80544000Y-31250000D03*
X78004000Y-28710000D03*
X78004000Y-31250000D03*
X75464000Y-28710000D03*
X75464000Y-31250000D03*
X72924000Y-28710000D03*
D12*
X72924000Y-31250000D03*
%TD*%
M02*
