%TF.GenerationSoftware,KiCad,Pcbnew,(5.1.8)-1*%
%TF.CreationDate,2021-01-10T00:46:59-06:00*%
%TF.ProjectId,GBAHD_Shield,47424148-445f-4536-9869-656c642e6b69,rev?*%
%TF.SameCoordinates,Original*%
%TF.FileFunction,Soldermask,Top*%
%TF.FilePolarity,Negative*%
%FSLAX46Y46*%
G04 Gerber Fmt 4.6, Leading zero omitted, Abs format (unit mm)*
G04 Created by KiCad (PCBNEW (5.1.8)-1) date 2021-01-10 00:46:59*
%MOMM*%
%LPD*%
G01*
G04 APERTURE LIST*
%ADD10C,0.010000*%
%ADD11C,0.100000*%
%ADD12C,2.500000*%
%ADD13R,2.000000X2.000000*%
%ADD14R,0.600000X0.420000*%
%ADD15R,2.500000X1.800000*%
%ADD16R,0.300000X1.300000*%
%ADD17R,2.000000X3.000000*%
%ADD18R,1.600000X0.550000*%
%ADD19R,0.550000X1.600000*%
%ADD20R,1.250000X0.900000*%
%ADD21O,1.700000X1.700000*%
%ADD22R,1.700000X1.700000*%
G04 APERTURE END LIST*
D10*
%TO.C,G\u002A\u002A\u002A*%
G36*
X47582769Y-38586462D02*
G01*
X47582769Y-40325385D01*
X49302154Y-40325385D01*
X49302154Y-41028769D01*
X47582769Y-41028769D01*
X47582769Y-42533231D01*
X47817231Y-42533231D01*
X47817231Y-43881385D01*
X48755077Y-43881385D01*
X48755077Y-42298769D01*
X49302154Y-42298769D01*
X49302154Y-44584769D01*
X47582769Y-44584769D01*
X47582769Y-45546026D01*
X47669440Y-45431744D01*
X47791212Y-45294429D01*
X47923555Y-45192152D01*
X48070770Y-45122956D01*
X48237158Y-45084886D01*
X48427019Y-45075984D01*
X48449878Y-45076715D01*
X48609439Y-45092542D01*
X48744566Y-45128901D01*
X48866180Y-45189679D01*
X48961489Y-45258831D01*
X49075004Y-45375905D01*
X49169038Y-45521974D01*
X49243007Y-45691829D01*
X49296330Y-45880264D01*
X49328424Y-46082071D01*
X49338706Y-46292042D01*
X49326594Y-46504968D01*
X49291506Y-46715643D01*
X49232858Y-46918859D01*
X49165136Y-47079630D01*
X49056386Y-47261301D01*
X48924338Y-47412410D01*
X48770491Y-47531869D01*
X48596338Y-47618587D01*
X48403378Y-47671475D01*
X48339438Y-47680895D01*
X48226646Y-47694308D01*
X48231977Y-47336269D01*
X48237308Y-46978231D01*
X48336433Y-46966131D01*
X48467815Y-46935147D01*
X48575634Y-46875571D01*
X48647603Y-46806872D01*
X48705790Y-46725996D01*
X48746166Y-46636415D01*
X48771015Y-46529896D01*
X48782616Y-46398204D01*
X48784176Y-46313923D01*
X48783410Y-46215717D01*
X48779646Y-46145488D01*
X48771023Y-46092153D01*
X48755678Y-46044628D01*
X48731751Y-45991831D01*
X48729204Y-45986628D01*
X48662182Y-45884081D01*
X48577960Y-45816237D01*
X48474544Y-45781796D01*
X48405925Y-45776615D01*
X48319366Y-45782661D01*
X48244052Y-45803029D01*
X48177266Y-45841066D01*
X48116289Y-45900119D01*
X48058405Y-45983535D01*
X48000897Y-46094661D01*
X47941046Y-46236844D01*
X47876135Y-46413431D01*
X47866547Y-46440923D01*
X47823538Y-46558813D01*
X47774118Y-46684716D01*
X47724397Y-46803548D01*
X47680557Y-46900077D01*
X47586082Y-47095462D01*
X47583449Y-46323692D01*
X47580816Y-45551923D01*
X47503053Y-45704039D01*
X47469081Y-45777105D01*
X47427567Y-45876516D01*
X47382826Y-45991381D01*
X47339174Y-46110811D01*
X47320610Y-46164395D01*
X47255936Y-46346765D01*
X47196868Y-46494751D01*
X47141193Y-46612255D01*
X47086698Y-46703178D01*
X47031170Y-46771424D01*
X46972397Y-46820895D01*
X46936070Y-46842460D01*
X46854287Y-46866125D01*
X46756502Y-46866244D01*
X46657522Y-46843309D01*
X46630514Y-46832328D01*
X46547020Y-46774101D01*
X46480835Y-46687597D01*
X46432657Y-46579909D01*
X46403182Y-46458129D01*
X46393107Y-46329351D01*
X46403130Y-46200666D01*
X46433946Y-46079169D01*
X46486253Y-45971951D01*
X46539476Y-45905704D01*
X46624269Y-45840773D01*
X46723085Y-45795548D01*
X46820102Y-45777142D01*
X46825654Y-45777045D01*
X46898923Y-45776615D01*
X46898923Y-45073231D01*
X46796346Y-45073643D01*
X46692187Y-45085753D01*
X46573520Y-45117890D01*
X46455695Y-45164870D01*
X46354061Y-45221510D01*
X46349764Y-45224445D01*
X46199377Y-45351550D01*
X46071354Y-45508319D01*
X45968478Y-45690596D01*
X45893531Y-45894229D01*
X45888271Y-45913385D01*
X45882923Y-45942204D01*
X45882923Y-44584769D01*
X47582769Y-44584769D01*
X47582769Y-42533231D01*
X47270154Y-42533231D01*
X47270154Y-43881385D01*
X46449539Y-43881385D01*
X46449539Y-42298769D01*
X45882923Y-42298769D01*
X45882923Y-42064308D01*
X46449539Y-42064308D01*
X46449539Y-41028769D01*
X47582769Y-41028769D01*
X47582769Y-40325385D01*
X46449539Y-40325385D01*
X46449539Y-39289846D01*
X45882923Y-39289846D01*
X45882923Y-42064308D01*
X45882923Y-42298769D01*
X45882923Y-44584769D01*
X45882923Y-45942204D01*
X45869128Y-46016545D01*
X45857503Y-46146714D01*
X45853267Y-46292580D01*
X45856294Y-46442830D01*
X45866454Y-46586151D01*
X45883620Y-46711231D01*
X45898017Y-46775727D01*
X45971070Y-46985180D01*
X46067351Y-47165295D01*
X46186025Y-47314938D01*
X46326253Y-47432975D01*
X46425966Y-47490936D01*
X46491280Y-47522495D01*
X46542350Y-47543367D01*
X46590350Y-47555712D01*
X46646453Y-47561689D01*
X46721830Y-47563461D01*
X46800285Y-47563317D01*
X46905429Y-47561660D01*
X46981836Y-47556890D01*
X47039810Y-47547570D01*
X47089654Y-47532259D01*
X47122945Y-47518244D01*
X47279994Y-47426777D01*
X47420903Y-47304374D01*
X47496542Y-47215641D01*
X47582769Y-47101359D01*
X47582769Y-48121231D01*
X47875846Y-48121231D01*
X47875846Y-49469385D01*
X49302154Y-49469385D01*
X49302154Y-50172769D01*
X47582769Y-50172769D01*
X47582769Y-50758923D01*
X47875846Y-50758923D01*
X47875846Y-52107077D01*
X49302154Y-52107077D01*
X49302154Y-52810462D01*
X47582769Y-52810462D01*
X47582769Y-53313011D01*
X47362962Y-53323658D01*
X47095591Y-53351725D01*
X46852813Y-53409293D01*
X46632718Y-53497141D01*
X46433400Y-53616052D01*
X46252952Y-53766804D01*
X46233755Y-53785783D01*
X46090333Y-53954333D01*
X45981088Y-54138358D01*
X45904887Y-54340512D01*
X45882923Y-54451079D01*
X45882923Y-52810462D01*
X47582769Y-52810462D01*
X47582769Y-50758923D01*
X47328769Y-50758923D01*
X47328769Y-52107077D01*
X46449539Y-52107077D01*
X46449539Y-50583077D01*
X45882923Y-50583077D01*
X45882923Y-50172769D01*
X47582769Y-50172769D01*
X47582769Y-48121231D01*
X47328769Y-48121231D01*
X47328769Y-49469385D01*
X46449539Y-49469385D01*
X46449539Y-47945385D01*
X45882923Y-47945385D01*
X45882923Y-50172769D01*
X45882923Y-50583077D01*
X45882923Y-52810462D01*
X45882923Y-54451079D01*
X45860601Y-54563449D01*
X45849931Y-54686154D01*
X45854515Y-54931243D01*
X45894309Y-55160583D01*
X45968029Y-55372404D01*
X46074394Y-55564935D01*
X46212122Y-55736406D01*
X46379930Y-55885046D01*
X46576538Y-56009084D01*
X46800662Y-56106752D01*
X46902306Y-56139371D01*
X47015116Y-56167034D01*
X47148789Y-56192110D01*
X47288295Y-56212379D01*
X47418603Y-56225619D01*
X47513615Y-56229692D01*
X47582769Y-56229692D01*
X47582769Y-55512576D01*
X47802577Y-55500913D01*
X48029123Y-55476549D01*
X48226543Y-55429320D01*
X48394063Y-55359677D01*
X48530908Y-55268071D01*
X48636302Y-55154955D01*
X48709470Y-55020779D01*
X48729727Y-54960658D01*
X48748251Y-54846914D01*
X48747691Y-54717560D01*
X48729432Y-54588933D01*
X48694858Y-54477370D01*
X48687370Y-54461098D01*
X48604955Y-54336056D01*
X48490306Y-54232149D01*
X48343226Y-54149283D01*
X48163521Y-54087364D01*
X47950996Y-54046299D01*
X47790611Y-54030436D01*
X47582769Y-54016513D01*
X47582769Y-53318462D01*
X47746287Y-53318462D01*
X47981509Y-53333899D01*
X48217338Y-53378336D01*
X48442524Y-53448956D01*
X48645817Y-53542947D01*
X48647615Y-53543948D01*
X48835477Y-53670323D01*
X48998177Y-53824541D01*
X49132608Y-54002643D01*
X49235659Y-54200668D01*
X49291542Y-54363769D01*
X49305120Y-54433474D01*
X49316922Y-54529674D01*
X49326266Y-54640830D01*
X49332468Y-54755407D01*
X49334844Y-54861868D01*
X49332710Y-54948674D01*
X49328596Y-54989000D01*
X49272797Y-55222319D01*
X49184353Y-55434942D01*
X49064285Y-55625436D01*
X48913614Y-55792367D01*
X48733364Y-55934302D01*
X48597805Y-56014051D01*
X48400411Y-56100488D01*
X48183175Y-56163649D01*
X47940203Y-56205104D01*
X47841654Y-56215338D01*
X47582769Y-56238072D01*
X47582769Y-56913538D01*
X45687539Y-56913538D01*
X45687539Y-38586462D01*
X47582769Y-38586462D01*
G37*
X47582769Y-38586462D02*
X47582769Y-40325385D01*
X49302154Y-40325385D01*
X49302154Y-41028769D01*
X47582769Y-41028769D01*
X47582769Y-42533231D01*
X47817231Y-42533231D01*
X47817231Y-43881385D01*
X48755077Y-43881385D01*
X48755077Y-42298769D01*
X49302154Y-42298769D01*
X49302154Y-44584769D01*
X47582769Y-44584769D01*
X47582769Y-45546026D01*
X47669440Y-45431744D01*
X47791212Y-45294429D01*
X47923555Y-45192152D01*
X48070770Y-45122956D01*
X48237158Y-45084886D01*
X48427019Y-45075984D01*
X48449878Y-45076715D01*
X48609439Y-45092542D01*
X48744566Y-45128901D01*
X48866180Y-45189679D01*
X48961489Y-45258831D01*
X49075004Y-45375905D01*
X49169038Y-45521974D01*
X49243007Y-45691829D01*
X49296330Y-45880264D01*
X49328424Y-46082071D01*
X49338706Y-46292042D01*
X49326594Y-46504968D01*
X49291506Y-46715643D01*
X49232858Y-46918859D01*
X49165136Y-47079630D01*
X49056386Y-47261301D01*
X48924338Y-47412410D01*
X48770491Y-47531869D01*
X48596338Y-47618587D01*
X48403378Y-47671475D01*
X48339438Y-47680895D01*
X48226646Y-47694308D01*
X48231977Y-47336269D01*
X48237308Y-46978231D01*
X48336433Y-46966131D01*
X48467815Y-46935147D01*
X48575634Y-46875571D01*
X48647603Y-46806872D01*
X48705790Y-46725996D01*
X48746166Y-46636415D01*
X48771015Y-46529896D01*
X48782616Y-46398204D01*
X48784176Y-46313923D01*
X48783410Y-46215717D01*
X48779646Y-46145488D01*
X48771023Y-46092153D01*
X48755678Y-46044628D01*
X48731751Y-45991831D01*
X48729204Y-45986628D01*
X48662182Y-45884081D01*
X48577960Y-45816237D01*
X48474544Y-45781796D01*
X48405925Y-45776615D01*
X48319366Y-45782661D01*
X48244052Y-45803029D01*
X48177266Y-45841066D01*
X48116289Y-45900119D01*
X48058405Y-45983535D01*
X48000897Y-46094661D01*
X47941046Y-46236844D01*
X47876135Y-46413431D01*
X47866547Y-46440923D01*
X47823538Y-46558813D01*
X47774118Y-46684716D01*
X47724397Y-46803548D01*
X47680557Y-46900077D01*
X47586082Y-47095462D01*
X47583449Y-46323692D01*
X47580816Y-45551923D01*
X47503053Y-45704039D01*
X47469081Y-45777105D01*
X47427567Y-45876516D01*
X47382826Y-45991381D01*
X47339174Y-46110811D01*
X47320610Y-46164395D01*
X47255936Y-46346765D01*
X47196868Y-46494751D01*
X47141193Y-46612255D01*
X47086698Y-46703178D01*
X47031170Y-46771424D01*
X46972397Y-46820895D01*
X46936070Y-46842460D01*
X46854287Y-46866125D01*
X46756502Y-46866244D01*
X46657522Y-46843309D01*
X46630514Y-46832328D01*
X46547020Y-46774101D01*
X46480835Y-46687597D01*
X46432657Y-46579909D01*
X46403182Y-46458129D01*
X46393107Y-46329351D01*
X46403130Y-46200666D01*
X46433946Y-46079169D01*
X46486253Y-45971951D01*
X46539476Y-45905704D01*
X46624269Y-45840773D01*
X46723085Y-45795548D01*
X46820102Y-45777142D01*
X46825654Y-45777045D01*
X46898923Y-45776615D01*
X46898923Y-45073231D01*
X46796346Y-45073643D01*
X46692187Y-45085753D01*
X46573520Y-45117890D01*
X46455695Y-45164870D01*
X46354061Y-45221510D01*
X46349764Y-45224445D01*
X46199377Y-45351550D01*
X46071354Y-45508319D01*
X45968478Y-45690596D01*
X45893531Y-45894229D01*
X45888271Y-45913385D01*
X45882923Y-45942204D01*
X45882923Y-44584769D01*
X47582769Y-44584769D01*
X47582769Y-42533231D01*
X47270154Y-42533231D01*
X47270154Y-43881385D01*
X46449539Y-43881385D01*
X46449539Y-42298769D01*
X45882923Y-42298769D01*
X45882923Y-42064308D01*
X46449539Y-42064308D01*
X46449539Y-41028769D01*
X47582769Y-41028769D01*
X47582769Y-40325385D01*
X46449539Y-40325385D01*
X46449539Y-39289846D01*
X45882923Y-39289846D01*
X45882923Y-42064308D01*
X45882923Y-42298769D01*
X45882923Y-44584769D01*
X45882923Y-45942204D01*
X45869128Y-46016545D01*
X45857503Y-46146714D01*
X45853267Y-46292580D01*
X45856294Y-46442830D01*
X45866454Y-46586151D01*
X45883620Y-46711231D01*
X45898017Y-46775727D01*
X45971070Y-46985180D01*
X46067351Y-47165295D01*
X46186025Y-47314938D01*
X46326253Y-47432975D01*
X46425966Y-47490936D01*
X46491280Y-47522495D01*
X46542350Y-47543367D01*
X46590350Y-47555712D01*
X46646453Y-47561689D01*
X46721830Y-47563461D01*
X46800285Y-47563317D01*
X46905429Y-47561660D01*
X46981836Y-47556890D01*
X47039810Y-47547570D01*
X47089654Y-47532259D01*
X47122945Y-47518244D01*
X47279994Y-47426777D01*
X47420903Y-47304374D01*
X47496542Y-47215641D01*
X47582769Y-47101359D01*
X47582769Y-48121231D01*
X47875846Y-48121231D01*
X47875846Y-49469385D01*
X49302154Y-49469385D01*
X49302154Y-50172769D01*
X47582769Y-50172769D01*
X47582769Y-50758923D01*
X47875846Y-50758923D01*
X47875846Y-52107077D01*
X49302154Y-52107077D01*
X49302154Y-52810462D01*
X47582769Y-52810462D01*
X47582769Y-53313011D01*
X47362962Y-53323658D01*
X47095591Y-53351725D01*
X46852813Y-53409293D01*
X46632718Y-53497141D01*
X46433400Y-53616052D01*
X46252952Y-53766804D01*
X46233755Y-53785783D01*
X46090333Y-53954333D01*
X45981088Y-54138358D01*
X45904887Y-54340512D01*
X45882923Y-54451079D01*
X45882923Y-52810462D01*
X47582769Y-52810462D01*
X47582769Y-50758923D01*
X47328769Y-50758923D01*
X47328769Y-52107077D01*
X46449539Y-52107077D01*
X46449539Y-50583077D01*
X45882923Y-50583077D01*
X45882923Y-50172769D01*
X47582769Y-50172769D01*
X47582769Y-48121231D01*
X47328769Y-48121231D01*
X47328769Y-49469385D01*
X46449539Y-49469385D01*
X46449539Y-47945385D01*
X45882923Y-47945385D01*
X45882923Y-50172769D01*
X45882923Y-50583077D01*
X45882923Y-52810462D01*
X45882923Y-54451079D01*
X45860601Y-54563449D01*
X45849931Y-54686154D01*
X45854515Y-54931243D01*
X45894309Y-55160583D01*
X45968029Y-55372404D01*
X46074394Y-55564935D01*
X46212122Y-55736406D01*
X46379930Y-55885046D01*
X46576538Y-56009084D01*
X46800662Y-56106752D01*
X46902306Y-56139371D01*
X47015116Y-56167034D01*
X47148789Y-56192110D01*
X47288295Y-56212379D01*
X47418603Y-56225619D01*
X47513615Y-56229692D01*
X47582769Y-56229692D01*
X47582769Y-55512576D01*
X47802577Y-55500913D01*
X48029123Y-55476549D01*
X48226543Y-55429320D01*
X48394063Y-55359677D01*
X48530908Y-55268071D01*
X48636302Y-55154955D01*
X48709470Y-55020779D01*
X48729727Y-54960658D01*
X48748251Y-54846914D01*
X48747691Y-54717560D01*
X48729432Y-54588933D01*
X48694858Y-54477370D01*
X48687370Y-54461098D01*
X48604955Y-54336056D01*
X48490306Y-54232149D01*
X48343226Y-54149283D01*
X48163521Y-54087364D01*
X47950996Y-54046299D01*
X47790611Y-54030436D01*
X47582769Y-54016513D01*
X47582769Y-53318462D01*
X47746287Y-53318462D01*
X47981509Y-53333899D01*
X48217338Y-53378336D01*
X48442524Y-53448956D01*
X48645817Y-53542947D01*
X48647615Y-53543948D01*
X48835477Y-53670323D01*
X48998177Y-53824541D01*
X49132608Y-54002643D01*
X49235659Y-54200668D01*
X49291542Y-54363769D01*
X49305120Y-54433474D01*
X49316922Y-54529674D01*
X49326266Y-54640830D01*
X49332468Y-54755407D01*
X49334844Y-54861868D01*
X49332710Y-54948674D01*
X49328596Y-54989000D01*
X49272797Y-55222319D01*
X49184353Y-55434942D01*
X49064285Y-55625436D01*
X48913614Y-55792367D01*
X48733364Y-55934302D01*
X48597805Y-56014051D01*
X48400411Y-56100488D01*
X48183175Y-56163649D01*
X47940203Y-56205104D01*
X47841654Y-56215338D01*
X47582769Y-56238072D01*
X47582769Y-56913538D01*
X45687539Y-56913538D01*
X45687539Y-38586462D01*
X47582769Y-38586462D01*
G36*
X46441456Y-54671483D02*
G01*
X46446855Y-54604682D01*
X46458998Y-54550902D01*
X46480239Y-54497145D01*
X46494082Y-54468094D01*
X46577384Y-54340971D01*
X46692006Y-54235483D01*
X46838331Y-54151440D01*
X47016745Y-54088654D01*
X47227633Y-54046934D01*
X47383238Y-54030958D01*
X47582769Y-54016812D01*
X47582769Y-55506769D01*
X47448559Y-55506769D01*
X47307939Y-55499364D01*
X47159193Y-55478904D01*
X47015943Y-55448027D01*
X46891806Y-55409368D01*
X46845713Y-55390090D01*
X46720569Y-55317053D01*
X46610609Y-55224429D01*
X46524828Y-55120687D01*
X46486512Y-55051792D01*
X46463228Y-54991253D01*
X46449181Y-54929318D01*
X46442277Y-54852911D01*
X46440449Y-54764308D01*
X46441456Y-54671483D01*
G37*
X46441456Y-54671483D02*
X46446855Y-54604682D01*
X46458998Y-54550902D01*
X46480239Y-54497145D01*
X46494082Y-54468094D01*
X46577384Y-54340971D01*
X46692006Y-54235483D01*
X46838331Y-54151440D01*
X47016745Y-54088654D01*
X47227633Y-54046934D01*
X47383238Y-54030958D01*
X47582769Y-54016812D01*
X47582769Y-55506769D01*
X47448559Y-55506769D01*
X47307939Y-55499364D01*
X47159193Y-55478904D01*
X47015943Y-55448027D01*
X46891806Y-55409368D01*
X46845713Y-55390090D01*
X46720569Y-55317053D01*
X46610609Y-55224429D01*
X46524828Y-55120687D01*
X46486512Y-55051792D01*
X46463228Y-54991253D01*
X46449181Y-54929318D01*
X46442277Y-54852911D01*
X46440449Y-54764308D01*
X46441456Y-54671483D01*
%TD*%
D11*
%TO.C,X1*%
G36*
X81868016Y-54281569D02*
G01*
X81019488Y-55130097D01*
X80029538Y-54140147D01*
X80878066Y-53291619D01*
X81868016Y-54281569D01*
G37*
G36*
X80312381Y-52725934D02*
G01*
X79463853Y-53574462D01*
X78473903Y-52584512D01*
X79322431Y-51735984D01*
X80312381Y-52725934D01*
G37*
G36*
X81514462Y-51523853D02*
G01*
X80665934Y-52372381D01*
X79675984Y-51382431D01*
X80524512Y-50533903D01*
X81514462Y-51523853D01*
G37*
G36*
X83070097Y-53079488D02*
G01*
X82221569Y-53928016D01*
X81231619Y-52938066D01*
X82080147Y-52089538D01*
X83070097Y-53079488D01*
G37*
%TD*%
D12*
%TO.C,U1*%
X90492000Y-61881000D03*
X90492000Y-57881000D03*
X90492000Y-53881000D03*
X90492000Y-49881000D03*
X90492000Y-43381000D03*
X90492000Y-39381000D03*
X90492000Y-35381000D03*
%TD*%
D13*
%TO.C,J7*%
X87122000Y-62380000D03*
%TD*%
D14*
%TO.C,U3*%
X64800000Y-48400000D03*
X64800000Y-47750000D03*
X64800000Y-47100000D03*
X66700000Y-48400000D03*
X66700000Y-47750000D03*
X66700000Y-47100000D03*
%TD*%
D11*
%TO.C,SJ1*%
G36*
X71100000Y-59750000D02*
G01*
X70600000Y-59750000D01*
X70600000Y-59749398D01*
X70575466Y-59749398D01*
X70526635Y-59744588D01*
X70478510Y-59735016D01*
X70431555Y-59720772D01*
X70386222Y-59701995D01*
X70342949Y-59678864D01*
X70302150Y-59651604D01*
X70264221Y-59620476D01*
X70229524Y-59585779D01*
X70198396Y-59547850D01*
X70171136Y-59507051D01*
X70148005Y-59463778D01*
X70129228Y-59418445D01*
X70114984Y-59371490D01*
X70105412Y-59323365D01*
X70100602Y-59274534D01*
X70100602Y-59250000D01*
X70100000Y-59250000D01*
X70100000Y-58750000D01*
X70100602Y-58750000D01*
X70100602Y-58725466D01*
X70105412Y-58676635D01*
X70114984Y-58628510D01*
X70129228Y-58581555D01*
X70148005Y-58536222D01*
X70171136Y-58492949D01*
X70198396Y-58452150D01*
X70229524Y-58414221D01*
X70264221Y-58379524D01*
X70302150Y-58348396D01*
X70342949Y-58321136D01*
X70386222Y-58298005D01*
X70431555Y-58279228D01*
X70478510Y-58264984D01*
X70526635Y-58255412D01*
X70575466Y-58250602D01*
X70600000Y-58250602D01*
X70600000Y-58250000D01*
X71100000Y-58250000D01*
X71100000Y-59750000D01*
G37*
G36*
X71900000Y-58250602D02*
G01*
X71924534Y-58250602D01*
X71973365Y-58255412D01*
X72021490Y-58264984D01*
X72068445Y-58279228D01*
X72113778Y-58298005D01*
X72157051Y-58321136D01*
X72197850Y-58348396D01*
X72235779Y-58379524D01*
X72270476Y-58414221D01*
X72301604Y-58452150D01*
X72328864Y-58492949D01*
X72351995Y-58536222D01*
X72370772Y-58581555D01*
X72385016Y-58628510D01*
X72394588Y-58676635D01*
X72399398Y-58725466D01*
X72399398Y-58750000D01*
X72400000Y-58750000D01*
X72400000Y-59250000D01*
X72399398Y-59250000D01*
X72399398Y-59274534D01*
X72394588Y-59323365D01*
X72385016Y-59371490D01*
X72370772Y-59418445D01*
X72351995Y-59463778D01*
X72328864Y-59507051D01*
X72301604Y-59547850D01*
X72270476Y-59585779D01*
X72235779Y-59620476D01*
X72197850Y-59651604D01*
X72157051Y-59678864D01*
X72113778Y-59701995D01*
X72068445Y-59720772D01*
X72021490Y-59735016D01*
X71973365Y-59744588D01*
X71924534Y-59749398D01*
X71900000Y-59749398D01*
X71900000Y-59750000D01*
X71400000Y-59750000D01*
X71400000Y-58250000D01*
X71900000Y-58250000D01*
X71900000Y-58250602D01*
G37*
%TD*%
D15*
%TO.C,J5*%
X85300000Y-50860000D03*
X85300000Y-48320000D03*
X85300000Y-40700000D03*
X85300000Y-45780000D03*
X85300000Y-43240000D03*
%TD*%
D16*
%TO.C,J1*%
X52750000Y-60500000D03*
X51250000Y-60500000D03*
X55250000Y-60500000D03*
X53250000Y-60500000D03*
X58250000Y-60500000D03*
D17*
X69750000Y-62850000D03*
D16*
X50250000Y-60500000D03*
X57750000Y-60500000D03*
X57250000Y-60500000D03*
X55750000Y-60500000D03*
X53750000Y-60500000D03*
X48750000Y-60500000D03*
X54250000Y-60500000D03*
X61750000Y-60500000D03*
X49750000Y-60500000D03*
X50750000Y-60500000D03*
X54750000Y-60500000D03*
X51750000Y-60500000D03*
X49250000Y-60500000D03*
X67750000Y-60500000D03*
X58750000Y-60500000D03*
X56750000Y-60500000D03*
X63750000Y-60500000D03*
X63250000Y-60500000D03*
X59750000Y-60500000D03*
X62750000Y-60500000D03*
X64250000Y-60500000D03*
X62250000Y-60500000D03*
X60250000Y-60500000D03*
X64750000Y-60500000D03*
X65250000Y-60500000D03*
X65750000Y-60500000D03*
X66250000Y-60500000D03*
X67250000Y-60500000D03*
X59250000Y-60500000D03*
X66750000Y-60500000D03*
X56250000Y-60500000D03*
X52250000Y-60500000D03*
D17*
X47250000Y-62850000D03*
D16*
X68250000Y-60500000D03*
X60750000Y-60500000D03*
X61250000Y-60500000D03*
%TD*%
D18*
%TO.C,U2*%
X73250000Y-46550000D03*
X73250000Y-45750000D03*
X73250000Y-44950000D03*
X73250000Y-44150000D03*
X73250000Y-43350000D03*
X73250000Y-42550000D03*
X73250000Y-41750000D03*
X73250000Y-40950000D03*
D19*
X74700000Y-39500000D03*
X75500000Y-39500000D03*
X76300000Y-39500000D03*
X77100000Y-39500000D03*
X77900000Y-39500000D03*
X78700000Y-39500000D03*
X79500000Y-39500000D03*
X80300000Y-39500000D03*
D18*
X81750000Y-40950000D03*
X81750000Y-41750000D03*
X81750000Y-42550000D03*
X81750000Y-43350000D03*
X81750000Y-44150000D03*
X81750000Y-44950000D03*
X81750000Y-45750000D03*
X81750000Y-46550000D03*
D19*
X80300000Y-48000000D03*
X79500000Y-48000000D03*
X78700000Y-48000000D03*
X77900000Y-48000000D03*
X77100000Y-48000000D03*
X76300000Y-48000000D03*
X75500000Y-48000000D03*
X74700000Y-48000000D03*
%TD*%
D20*
%TO.C,SW1*%
X80425000Y-37000000D03*
X80425000Y-35500000D03*
X76575000Y-37000000D03*
X76575000Y-35500000D03*
%TD*%
%TO.C,R1*%
G36*
G01*
X74049999Y-36400000D02*
X74950001Y-36400000D01*
G75*
G02*
X75200000Y-36649999I0J-249999D01*
G01*
X75200000Y-37350001D01*
G75*
G02*
X74950001Y-37600000I-249999J0D01*
G01*
X74049999Y-37600000D01*
G75*
G02*
X73800000Y-37350001I0J249999D01*
G01*
X73800000Y-36649999D01*
G75*
G02*
X74049999Y-36400000I249999J0D01*
G01*
G37*
G36*
G01*
X74049999Y-34400000D02*
X74950001Y-34400000D01*
G75*
G02*
X75200000Y-34649999I0J-249999D01*
G01*
X75200000Y-35350001D01*
G75*
G02*
X74950001Y-35600000I-249999J0D01*
G01*
X74049999Y-35600000D01*
G75*
G02*
X73800000Y-35350001I0J249999D01*
G01*
X73800000Y-34649999D01*
G75*
G02*
X74049999Y-34400000I249999J0D01*
G01*
G37*
%TD*%
D21*
%TO.C,J6*%
X66790000Y-57830000D03*
X64250000Y-57830000D03*
X66790000Y-55290000D03*
X64250000Y-55290000D03*
X66790000Y-52750000D03*
D22*
X64250000Y-52750000D03*
%TD*%
D21*
%TO.C,J4*%
X68860000Y-28710000D03*
X68860000Y-31250000D03*
X66320000Y-28710000D03*
X66320000Y-31250000D03*
X63780000Y-28710000D03*
X63780000Y-31250000D03*
X61240000Y-28710000D03*
X61240000Y-31250000D03*
X58700000Y-28710000D03*
X58700000Y-31250000D03*
X56160000Y-28710000D03*
X56160000Y-31250000D03*
X53620000Y-28710000D03*
X53620000Y-31250000D03*
X51080000Y-28710000D03*
X51080000Y-31250000D03*
X48540000Y-28710000D03*
X48540000Y-31250000D03*
X46000000Y-28710000D03*
D22*
X46000000Y-31250000D03*
%TD*%
D16*
%TO.C,J3*%
X77750000Y-60500000D03*
X78750000Y-60500000D03*
D17*
X73250000Y-62850000D03*
D16*
X76750000Y-60500000D03*
X74750000Y-60500000D03*
X76250000Y-60500000D03*
X81250000Y-60500000D03*
X78250000Y-60500000D03*
X82250000Y-60500000D03*
D17*
X83750000Y-62850000D03*
D16*
X79750000Y-60500000D03*
X77250000Y-60500000D03*
X80250000Y-60500000D03*
X75750000Y-60500000D03*
X79250000Y-60500000D03*
X81750000Y-60500000D03*
X75250000Y-60500000D03*
X80750000Y-60500000D03*
%TD*%
D21*
%TO.C,J2*%
X90704000Y-28710000D03*
X90704000Y-31250000D03*
X88164000Y-28710000D03*
X88164000Y-31250000D03*
X85624000Y-28710000D03*
X85624000Y-31250000D03*
X83084000Y-28710000D03*
X83084000Y-31250000D03*
X80544000Y-28710000D03*
X80544000Y-31250000D03*
X78004000Y-28710000D03*
X78004000Y-31250000D03*
X75464000Y-28710000D03*
X75464000Y-31250000D03*
X72924000Y-28710000D03*
D22*
X72924000Y-31250000D03*
%TD*%
%TO.C,C3*%
G36*
G01*
X82025000Y-36450000D02*
X82975000Y-36450000D01*
G75*
G02*
X83225000Y-36700000I0J-250000D01*
G01*
X83225000Y-37375000D01*
G75*
G02*
X82975000Y-37625000I-250000J0D01*
G01*
X82025000Y-37625000D01*
G75*
G02*
X81775000Y-37375000I0J250000D01*
G01*
X81775000Y-36700000D01*
G75*
G02*
X82025000Y-36450000I250000J0D01*
G01*
G37*
G36*
G01*
X82025000Y-34375000D02*
X82975000Y-34375000D01*
G75*
G02*
X83225000Y-34625000I0J-250000D01*
G01*
X83225000Y-35300000D01*
G75*
G02*
X82975000Y-35550000I-250000J0D01*
G01*
X82025000Y-35550000D01*
G75*
G02*
X81775000Y-35300000I0J250000D01*
G01*
X81775000Y-34625000D01*
G75*
G02*
X82025000Y-34375000I250000J0D01*
G01*
G37*
%TD*%
%TO.C,C2*%
G36*
G01*
X84982073Y-54881678D02*
X84310322Y-54209927D01*
G75*
G02*
X84310322Y-53856373I176777J176777D01*
G01*
X84787619Y-53379076D01*
G75*
G02*
X85141173Y-53379076I176777J-176777D01*
G01*
X85812924Y-54050827D01*
G75*
G02*
X85812924Y-54404381I-176777J-176777D01*
G01*
X85335627Y-54881678D01*
G75*
G02*
X84982073Y-54881678I-176777J176777D01*
G01*
G37*
G36*
G01*
X83514827Y-56348924D02*
X82843076Y-55677173D01*
G75*
G02*
X82843076Y-55323619I176777J176777D01*
G01*
X83320373Y-54846322D01*
G75*
G02*
X83673927Y-54846322I176777J-176777D01*
G01*
X84345678Y-55518073D01*
G75*
G02*
X84345678Y-55871627I-176777J-176777D01*
G01*
X83868381Y-56348924D01*
G75*
G02*
X83514827Y-56348924I-176777J176777D01*
G01*
G37*
%TD*%
%TO.C,C1*%
G36*
G01*
X78700924Y-55677173D02*
X78029173Y-56348924D01*
G75*
G02*
X77675619Y-56348924I-176777J176777D01*
G01*
X77198322Y-55871627D01*
G75*
G02*
X77198322Y-55518073I176777J176777D01*
G01*
X77870073Y-54846322D01*
G75*
G02*
X78223627Y-54846322I176777J-176777D01*
G01*
X78700924Y-55323619D01*
G75*
G02*
X78700924Y-55677173I-176777J-176777D01*
G01*
G37*
G36*
G01*
X77233678Y-54209927D02*
X76561927Y-54881678D01*
G75*
G02*
X76208373Y-54881678I-176777J176777D01*
G01*
X75731076Y-54404381D01*
G75*
G02*
X75731076Y-54050827I176777J176777D01*
G01*
X76402827Y-53379076D01*
G75*
G02*
X76756381Y-53379076I176777J-176777D01*
G01*
X77233678Y-53856373D01*
G75*
G02*
X77233678Y-54209927I-176777J-176777D01*
G01*
G37*
%TD*%
M02*
