M48
; DRILL file {KiCad (5.1.8)-1} date 01/10/21 00:46:56
; FORMAT={-:-/ absolute / inch / decimal}
; #@! TF.CreationDate,2021-01-10T00:46:56-06:00
; #@! TF.GenerationSoftware,Kicad,Pcbnew,(5.1.8)-1
; #@! TF.FileFunction,Plated,1,2,PTH
FMAT,2
INCH
T1C0.0157
T2C0.0394
T3C0.0492
%
G90
G05
T1
X1.8406Y-2.372
X2.0768Y-2.4311
X2.1161Y-2.4311
X2.1555Y-2.4311
X2.1949Y-2.4311
X2.2343Y-2.4311
X2.2933Y-2.4311
X2.3327Y-2.4311
X2.4902Y-1.9488
X2.628Y-1.5945
X2.628Y-1.7224
X2.6378Y-1.9685
X2.6378Y-2.4409
X2.6654Y-1.998
X2.716Y-2.1492
X2.7165Y-2.0965
X2.7953Y-1.1417
X2.8215Y-1.5354
X2.8778Y-2.0276
X2.8786Y-1.4764
X2.8937Y-2.3524
X2.9053Y-2.2719
X2.9331Y-2.0079
X2.9355Y-1.6353
X2.9431Y-1.674
X2.9626Y-1.9783
X2.9706Y-1.7051
X2.9764Y-1.811
X2.9768Y-1.4891
X2.9902Y-2.0374
X3.0044Y-1.624
X3.0315Y-1.498
X3.0699Y-1.8307
X3.0957Y-2.2488
X3.0984Y-1.7795
X3.1398Y-2.2539
X3.1594Y-1.6339
X3.17Y-2.2957
X3.1909Y-1.5157
X3.1988Y-2.5197
X3.21Y-2.2957
X3.2185Y-1.565
X3.2185Y-1.8898
X3.23Y-2.45
X3.248Y-1.3287
X3.2665Y-1.7705
X3.2776Y-1.7224
X3.29Y-2.35
X3.39Y-2.53
T2
X2.871Y-1.1303
X2.871Y-1.2303
X2.971Y-1.1303
X2.971Y-1.2303
X3.071Y-1.1303
X3.071Y-1.2303
X3.171Y-1.1303
X3.171Y-1.2303
X3.271Y-1.1303
X3.271Y-1.2303
X3.371Y-1.1303
X3.371Y-1.2303
X3.471Y-1.1303
X3.471Y-1.2303
X3.571Y-1.1303
X3.571Y-1.2303
X1.811Y-1.1303
X1.811Y-1.2303
X1.911Y-1.1303
X1.911Y-1.2303
X2.011Y-1.1303
X2.011Y-1.2303
X2.111Y-1.1303
X2.111Y-1.2303
X2.211Y-1.1303
X2.211Y-1.2303
X2.311Y-1.1303
X2.311Y-1.2303
X2.411Y-1.1303
X2.411Y-1.2303
X2.511Y-1.1303
X2.511Y-1.2303
X2.611Y-1.1303
X2.611Y-1.2303
X2.711Y-1.1303
X2.711Y-1.2303
X2.5295Y-2.0768
X2.5295Y-2.1768
X2.5295Y-2.2768
X2.6295Y-2.0768
X2.6295Y-2.1768
X2.6295Y-2.2768
T3
X3.5627Y-1.393
X3.5627Y-1.5504
X3.5627Y-1.7079
X3.5627Y-1.9638
X3.5627Y-2.1213
X3.5627Y-2.2788
X3.5627Y-2.4363
T0
M30
