%TF.GenerationSoftware,KiCad,Pcbnew,(5.1.8)-1*%
%TF.CreationDate,2021-01-10T00:46:59-06:00*%
%TF.ProjectId,GBAHD_Shield,47424148-445f-4536-9869-656c642e6b69,rev?*%
%TF.SameCoordinates,Original*%
%TF.FileFunction,Legend,Top*%
%TF.FilePolarity,Positive*%
%FSLAX46Y46*%
G04 Gerber Fmt 4.6, Leading zero omitted, Abs format (unit mm)*
G04 Created by KiCad (PCBNEW (5.1.8)-1) date 2021-01-10 00:46:59*
%MOMM*%
%LPD*%
G01*
G04 APERTURE LIST*
%ADD10C,0.125000*%
%ADD11C,0.250000*%
%ADD12C,0.120000*%
%ADD13C,0.100000*%
%ADD14C,0.150000*%
G04 APERTURE END LIST*
D10*
X86538666Y-60416285D02*
X86705333Y-60416285D01*
X86776761Y-60678190D02*
X86538666Y-60678190D01*
X86538666Y-60178190D01*
X86776761Y-60178190D01*
X86943428Y-60178190D02*
X87276761Y-60678190D01*
X87276761Y-60178190D02*
X86943428Y-60678190D01*
X87729142Y-60678190D02*
X87443428Y-60678190D01*
X87586285Y-60678190D02*
X87586285Y-60178190D01*
X87538666Y-60249619D01*
X87491047Y-60297238D01*
X87443428Y-60321047D01*
D11*
X53280952Y-63152380D02*
X53280952Y-63866666D01*
X53233333Y-64009523D01*
X53138095Y-64104761D01*
X52995238Y-64152380D01*
X52900000Y-64152380D01*
X54233333Y-64152380D02*
X53757142Y-64152380D01*
X53757142Y-63152380D01*
X55138095Y-64057142D02*
X55090476Y-64104761D01*
X54947619Y-64152380D01*
X54852380Y-64152380D01*
X54709523Y-64104761D01*
X54614285Y-64009523D01*
X54566666Y-63914285D01*
X54519047Y-63723809D01*
X54519047Y-63580952D01*
X54566666Y-63390476D01*
X54614285Y-63295238D01*
X54709523Y-63200000D01*
X54852380Y-63152380D01*
X54947619Y-63152380D01*
X55090476Y-63200000D01*
X55138095Y-63247619D01*
X55852380Y-63152380D02*
X55852380Y-63866666D01*
X55804761Y-64009523D01*
X55709523Y-64104761D01*
X55566666Y-64152380D01*
X55471428Y-64152380D01*
X56804761Y-64152380D02*
X56328571Y-64152380D01*
X56328571Y-63152380D01*
X57709523Y-64057142D02*
X57661904Y-64104761D01*
X57519047Y-64152380D01*
X57423809Y-64152380D01*
X57280952Y-64104761D01*
X57185714Y-64009523D01*
X57138095Y-63914285D01*
X57090476Y-63723809D01*
X57090476Y-63580952D01*
X57138095Y-63390476D01*
X57185714Y-63295238D01*
X57280952Y-63200000D01*
X57423809Y-63152380D01*
X57519047Y-63152380D01*
X57661904Y-63200000D01*
X57709523Y-63247619D01*
X58423809Y-63152380D02*
X58423809Y-63866666D01*
X58376190Y-64009523D01*
X58280952Y-64104761D01*
X58138095Y-64152380D01*
X58042857Y-64152380D01*
X59376190Y-64152380D02*
X58900000Y-64152380D01*
X58900000Y-63152380D01*
X60280952Y-64057142D02*
X60233333Y-64104761D01*
X60090476Y-64152380D01*
X59995238Y-64152380D01*
X59852380Y-64104761D01*
X59757142Y-64009523D01*
X59709523Y-63914285D01*
X59661904Y-63723809D01*
X59661904Y-63580952D01*
X59709523Y-63390476D01*
X59757142Y-63295238D01*
X59852380Y-63200000D01*
X59995238Y-63152380D01*
X60090476Y-63152380D01*
X60233333Y-63200000D01*
X60280952Y-63247619D01*
X60995238Y-63152380D02*
X60995238Y-63866666D01*
X60947619Y-64009523D01*
X60852380Y-64104761D01*
X60709523Y-64152380D01*
X60614285Y-64152380D01*
X61947619Y-64152380D02*
X61471428Y-64152380D01*
X61471428Y-63152380D01*
X62852380Y-64057142D02*
X62804761Y-64104761D01*
X62661904Y-64152380D01*
X62566666Y-64152380D01*
X62423809Y-64104761D01*
X62328571Y-64009523D01*
X62280952Y-63914285D01*
X62233333Y-63723809D01*
X62233333Y-63580952D01*
X62280952Y-63390476D01*
X62328571Y-63295238D01*
X62423809Y-63200000D01*
X62566666Y-63152380D01*
X62661904Y-63152380D01*
X62804761Y-63200000D01*
X62852380Y-63247619D01*
D10*
X86950000Y-40980952D02*
X86926190Y-41028571D01*
X86926190Y-41100000D01*
X86950000Y-41171428D01*
X86997619Y-41219047D01*
X87045238Y-41242857D01*
X87140476Y-41266666D01*
X87211904Y-41266666D01*
X87307142Y-41242857D01*
X87354761Y-41219047D01*
X87402380Y-41171428D01*
X87426190Y-41100000D01*
X87426190Y-41052380D01*
X87402380Y-40980952D01*
X87378571Y-40957142D01*
X87211904Y-40957142D01*
X87211904Y-41052380D01*
X87426190Y-40742857D02*
X86926190Y-40742857D01*
X87426190Y-40457142D01*
X86926190Y-40457142D01*
X87426190Y-40219047D02*
X86926190Y-40219047D01*
X86926190Y-40100000D01*
X86950000Y-40028571D01*
X86997619Y-39980952D01*
X87045238Y-39957142D01*
X87140476Y-39933333D01*
X87211904Y-39933333D01*
X87307142Y-39957142D01*
X87354761Y-39980952D01*
X87402380Y-40028571D01*
X87426190Y-40100000D01*
X87426190Y-40219047D01*
X87426190Y-43950000D02*
X86926190Y-43950000D01*
X86926190Y-43830952D01*
X86950000Y-43759523D01*
X86997619Y-43711904D01*
X87045238Y-43688095D01*
X87140476Y-43664285D01*
X87211904Y-43664285D01*
X87307142Y-43688095D01*
X87354761Y-43711904D01*
X87402380Y-43759523D01*
X87426190Y-43830952D01*
X87426190Y-43950000D01*
X87283333Y-43473809D02*
X87283333Y-43235714D01*
X87426190Y-43521428D02*
X86926190Y-43354761D01*
X87426190Y-43188095D01*
X86926190Y-43092857D02*
X86926190Y-42807142D01*
X87426190Y-42950000D02*
X86926190Y-42950000D01*
X87283333Y-42664285D02*
X87283333Y-42426190D01*
X87426190Y-42711904D02*
X86926190Y-42545238D01*
X87426190Y-42378571D01*
X87426190Y-46561904D02*
X87426190Y-46800000D01*
X86926190Y-46800000D01*
X87283333Y-46419047D02*
X87283333Y-46180952D01*
X87426190Y-46466666D02*
X86926190Y-46300000D01*
X87426190Y-46133333D01*
X86926190Y-46038095D02*
X86926190Y-45752380D01*
X87426190Y-45895238D02*
X86926190Y-45895238D01*
X87378571Y-45300000D02*
X87402380Y-45323809D01*
X87426190Y-45395238D01*
X87426190Y-45442857D01*
X87402380Y-45514285D01*
X87354761Y-45561904D01*
X87307142Y-45585714D01*
X87211904Y-45609523D01*
X87140476Y-45609523D01*
X87045238Y-45585714D01*
X86997619Y-45561904D01*
X86950000Y-45514285D01*
X86926190Y-45442857D01*
X86926190Y-45395238D01*
X86950000Y-45323809D01*
X86973809Y-45300000D01*
X87426190Y-45085714D02*
X86926190Y-45085714D01*
X87164285Y-45085714D02*
X87164285Y-44800000D01*
X87426190Y-44800000D02*
X86926190Y-44800000D01*
X87378571Y-48697619D02*
X87402380Y-48721428D01*
X87426190Y-48792857D01*
X87426190Y-48840476D01*
X87402380Y-48911904D01*
X87354761Y-48959523D01*
X87307142Y-48983333D01*
X87211904Y-49007142D01*
X87140476Y-49007142D01*
X87045238Y-48983333D01*
X86997619Y-48959523D01*
X86950000Y-48911904D01*
X86926190Y-48840476D01*
X86926190Y-48792857D01*
X86950000Y-48721428D01*
X86973809Y-48697619D01*
X87426190Y-48245238D02*
X87426190Y-48483333D01*
X86926190Y-48483333D01*
X87426190Y-48078571D02*
X86926190Y-48078571D01*
X87426190Y-47792857D02*
X87140476Y-48007142D01*
X86926190Y-47792857D02*
X87211904Y-48078571D01*
X86926190Y-51666666D02*
X87426190Y-51500000D01*
X86926190Y-51333333D01*
X87378571Y-50880952D02*
X87402380Y-50904761D01*
X87426190Y-50976190D01*
X87426190Y-51023809D01*
X87402380Y-51095238D01*
X87354761Y-51142857D01*
X87307142Y-51166666D01*
X87211904Y-51190476D01*
X87140476Y-51190476D01*
X87045238Y-51166666D01*
X86997619Y-51142857D01*
X86950000Y-51095238D01*
X86926190Y-51023809D01*
X86926190Y-50976190D01*
X86950000Y-50904761D01*
X86973809Y-50880952D01*
X87378571Y-50380952D02*
X87402380Y-50404761D01*
X87426190Y-50476190D01*
X87426190Y-50523809D01*
X87402380Y-50595238D01*
X87354761Y-50642857D01*
X87307142Y-50666666D01*
X87211904Y-50690476D01*
X87140476Y-50690476D01*
X87045238Y-50666666D01*
X86997619Y-50642857D01*
X86950000Y-50595238D01*
X86926190Y-50523809D01*
X86926190Y-50476190D01*
X86950000Y-50404761D01*
X86973809Y-50380952D01*
D12*
X75603553Y-46250000D02*
G75*
G03*
X75603553Y-46250000I-353553J0D01*
G01*
%TO.C,X1*%
X81019487Y-55412940D02*
X83352940Y-53079487D01*
X83352940Y-53079487D02*
X80524513Y-50251060D01*
D13*
%TO.C,U3*%
X65275000Y-46525000D02*
X64950000Y-46825000D01*
X64950000Y-46825000D02*
X64550000Y-46825000D01*
X66550000Y-46825000D02*
X66550000Y-46525000D01*
X66550000Y-46525000D02*
X66250000Y-46525000D01*
X64950000Y-48700000D02*
X64950000Y-48975000D01*
X64950000Y-48975000D02*
X65200000Y-48975000D01*
X66550000Y-48675000D02*
X66550000Y-48975000D01*
X66550000Y-48975000D02*
X66325000Y-48975000D01*
D12*
%TO.C,SJ1*%
X71950000Y-58000000D02*
G75*
G02*
X72650000Y-58700000I0J-700000D01*
G01*
X72650000Y-59300000D02*
G75*
G02*
X71950000Y-60000000I-700000J0D01*
G01*
X70550000Y-60000000D02*
G75*
G02*
X69850000Y-59300000I0J700000D01*
G01*
X69850000Y-58700000D02*
G75*
G02*
X70550000Y-58000000I700000J0D01*
G01*
X70550000Y-58000000D02*
X71950000Y-58000000D01*
X72650000Y-58700000D02*
X72650000Y-59300000D01*
X71950000Y-60000000D02*
X70550000Y-60000000D01*
X69850000Y-59300000D02*
X69850000Y-58700000D01*
%TO.C,J5*%
X86062000Y-39430000D02*
X86824000Y-39430000D01*
X86824000Y-39430000D02*
X86824000Y-40954000D01*
D14*
%TO.C,U2*%
X74100000Y-47375000D02*
X74100000Y-48800000D01*
X73875000Y-40125000D02*
X73875000Y-40450000D01*
X81125000Y-40125000D02*
X81125000Y-40450000D01*
X81125000Y-47375000D02*
X81125000Y-47050000D01*
X73875000Y-47375000D02*
X73875000Y-47050000D01*
X81125000Y-47375000D02*
X80800000Y-47375000D01*
X81125000Y-40125000D02*
X80800000Y-40125000D01*
X73875000Y-40125000D02*
X74200000Y-40125000D01*
X73875000Y-47375000D02*
X74100000Y-47375000D01*
D12*
%TO.C,SW1*%
X80325000Y-37750000D02*
X76675000Y-37750000D01*
X80325000Y-34750000D02*
X76675000Y-34750000D01*
%TO.C,R1*%
X73765000Y-35772936D02*
X73765000Y-36227064D01*
X75235000Y-35772936D02*
X75235000Y-36227064D01*
%TO.C,J6*%
X62920000Y-51420000D02*
X64250000Y-51420000D01*
X62920000Y-52750000D02*
X62920000Y-51420000D01*
X65520000Y-51420000D02*
X68120000Y-51420000D01*
X65520000Y-54020000D02*
X65520000Y-51420000D01*
X62920000Y-54020000D02*
X65520000Y-54020000D01*
X68120000Y-51420000D02*
X68120000Y-59160000D01*
X62920000Y-54020000D02*
X62920000Y-59160000D01*
X62920000Y-59160000D02*
X68120000Y-59160000D01*
%TO.C,J4*%
X44670000Y-32580000D02*
X44670000Y-31250000D01*
X46000000Y-32580000D02*
X44670000Y-32580000D01*
X44670000Y-29980000D02*
X44670000Y-27380000D01*
X47270000Y-29980000D02*
X44670000Y-29980000D01*
X47270000Y-32580000D02*
X47270000Y-29980000D01*
X44670000Y-27380000D02*
X70190000Y-27380000D01*
X47270000Y-32580000D02*
X70190000Y-32580000D01*
X70190000Y-32580000D02*
X70190000Y-27380000D01*
%TO.C,J2*%
X71594000Y-32580000D02*
X71594000Y-31250000D01*
X72924000Y-32580000D02*
X71594000Y-32580000D01*
X71594000Y-29980000D02*
X71594000Y-27380000D01*
X74194000Y-29980000D02*
X71594000Y-29980000D01*
X74194000Y-32580000D02*
X74194000Y-29980000D01*
X71594000Y-27380000D02*
X92034000Y-27380000D01*
X74194000Y-32580000D02*
X92034000Y-32580000D01*
X92034000Y-32580000D02*
X92034000Y-27380000D01*
%TO.C,C3*%
X81765000Y-35738748D02*
X81765000Y-36261252D01*
X83235000Y-35738748D02*
X83235000Y-36261252D01*
%TO.C,C2*%
X84662990Y-55568457D02*
X85032457Y-55198990D01*
X83623543Y-54529010D02*
X83993010Y-54159543D01*
%TO.C,C1*%
X76881010Y-55568457D02*
X76511543Y-55198990D01*
X77920457Y-54529010D02*
X77550990Y-54159543D01*
%TO.C,X1*%
D14*
X82364805Y-50094355D02*
X82129103Y-51272866D01*
X82836209Y-50565759D02*
X81657698Y-50801461D01*
X82768866Y-51912629D02*
X82364805Y-51508568D01*
X82566835Y-51710599D02*
X83273942Y-51003492D01*
X83105583Y-51037164D01*
X82970896Y-51037164D01*
X82869881Y-51003492D01*
%TO.C,U3*%
X63311904Y-48359523D02*
X63959523Y-48359523D01*
X64035714Y-48321428D01*
X64073809Y-48283333D01*
X64111904Y-48207142D01*
X64111904Y-48054761D01*
X64073809Y-47978571D01*
X64035714Y-47940476D01*
X63959523Y-47902380D01*
X63311904Y-47902380D01*
X63311904Y-47597619D02*
X63311904Y-47102380D01*
X63616666Y-47369047D01*
X63616666Y-47254761D01*
X63654761Y-47178571D01*
X63692857Y-47140476D01*
X63769047Y-47102380D01*
X63959523Y-47102380D01*
X64035714Y-47140476D01*
X64073809Y-47178571D01*
X64111904Y-47254761D01*
X64111904Y-47483333D01*
X64073809Y-47559523D01*
X64035714Y-47597619D01*
%TO.C,SJ1*%
X70564285Y-57442857D02*
X70650000Y-57471428D01*
X70792857Y-57471428D01*
X70850000Y-57442857D01*
X70878571Y-57414285D01*
X70907142Y-57357142D01*
X70907142Y-57300000D01*
X70878571Y-57242857D01*
X70850000Y-57214285D01*
X70792857Y-57185714D01*
X70678571Y-57157142D01*
X70621428Y-57128571D01*
X70592857Y-57100000D01*
X70564285Y-57042857D01*
X70564285Y-56985714D01*
X70592857Y-56928571D01*
X70621428Y-56900000D01*
X70678571Y-56871428D01*
X70821428Y-56871428D01*
X70907142Y-56900000D01*
X71335714Y-56871428D02*
X71335714Y-57300000D01*
X71307142Y-57385714D01*
X71250000Y-57442857D01*
X71164285Y-57471428D01*
X71107142Y-57471428D01*
X71935714Y-57471428D02*
X71592857Y-57471428D01*
X71764285Y-57471428D02*
X71764285Y-56871428D01*
X71707142Y-56957142D01*
X71650000Y-57014285D01*
X71592857Y-57042857D01*
%TO.C,J5*%
X84652380Y-38833333D02*
X85366666Y-38833333D01*
X85509523Y-38880952D01*
X85604761Y-38976190D01*
X85652380Y-39119047D01*
X85652380Y-39214285D01*
X84652380Y-37880952D02*
X84652380Y-38357142D01*
X85128571Y-38404761D01*
X85080952Y-38357142D01*
X85033333Y-38261904D01*
X85033333Y-38023809D01*
X85080952Y-37928571D01*
X85128571Y-37880952D01*
X85223809Y-37833333D01*
X85461904Y-37833333D01*
X85557142Y-37880952D01*
X85604761Y-37928571D01*
X85652380Y-38023809D01*
X85652380Y-38261904D01*
X85604761Y-38357142D01*
X85557142Y-38404761D01*
%TO.C,J1*%
X47233333Y-60061904D02*
X47233333Y-60633333D01*
X47195238Y-60747619D01*
X47119047Y-60823809D01*
X47004761Y-60861904D01*
X46928571Y-60861904D01*
X48033333Y-60861904D02*
X47576190Y-60861904D01*
X47804761Y-60861904D02*
X47804761Y-60061904D01*
X47728571Y-60176190D01*
X47652380Y-60252380D01*
X47576190Y-60290476D01*
%TO.C,U2*%
X72561904Y-48609523D02*
X73209523Y-48609523D01*
X73285714Y-48571428D01*
X73323809Y-48533333D01*
X73361904Y-48457142D01*
X73361904Y-48304761D01*
X73323809Y-48228571D01*
X73285714Y-48190476D01*
X73209523Y-48152380D01*
X72561904Y-48152380D01*
X72638095Y-47809523D02*
X72600000Y-47771428D01*
X72561904Y-47695238D01*
X72561904Y-47504761D01*
X72600000Y-47428571D01*
X72638095Y-47390476D01*
X72714285Y-47352380D01*
X72790476Y-47352380D01*
X72904761Y-47390476D01*
X73361904Y-47847619D01*
X73361904Y-47352380D01*
%TO.C,SW1*%
X78183333Y-34373809D02*
X78297619Y-34411904D01*
X78488095Y-34411904D01*
X78564285Y-34373809D01*
X78602380Y-34335714D01*
X78640476Y-34259523D01*
X78640476Y-34183333D01*
X78602380Y-34107142D01*
X78564285Y-34069047D01*
X78488095Y-34030952D01*
X78335714Y-33992857D01*
X78259523Y-33954761D01*
X78221428Y-33916666D01*
X78183333Y-33840476D01*
X78183333Y-33764285D01*
X78221428Y-33688095D01*
X78259523Y-33650000D01*
X78335714Y-33611904D01*
X78526190Y-33611904D01*
X78640476Y-33650000D01*
X78907142Y-33611904D02*
X79097619Y-34411904D01*
X79250000Y-33840476D01*
X79402380Y-34411904D01*
X79592857Y-33611904D01*
X80316666Y-34411904D02*
X79859523Y-34411904D01*
X80088095Y-34411904D02*
X80088095Y-33611904D01*
X80011904Y-33726190D01*
X79935714Y-33802380D01*
X79859523Y-33840476D01*
%TO.C,R1*%
X73361904Y-36133333D02*
X72980952Y-36400000D01*
X73361904Y-36590476D02*
X72561904Y-36590476D01*
X72561904Y-36285714D01*
X72600000Y-36209523D01*
X72638095Y-36171428D01*
X72714285Y-36133333D01*
X72828571Y-36133333D01*
X72904761Y-36171428D01*
X72942857Y-36209523D01*
X72980952Y-36285714D01*
X72980952Y-36590476D01*
X73361904Y-35371428D02*
X73361904Y-35828571D01*
X73361904Y-35600000D02*
X72561904Y-35600000D01*
X72676190Y-35676190D01*
X72752380Y-35752380D01*
X72790476Y-35828571D01*
%TO.C,J6*%
X65186666Y-49872380D02*
X65186666Y-50586666D01*
X65139047Y-50729523D01*
X65043809Y-50824761D01*
X64900952Y-50872380D01*
X64805714Y-50872380D01*
X66091428Y-49872380D02*
X65900952Y-49872380D01*
X65805714Y-49920000D01*
X65758095Y-49967619D01*
X65662857Y-50110476D01*
X65615238Y-50300952D01*
X65615238Y-50681904D01*
X65662857Y-50777142D01*
X65710476Y-50824761D01*
X65805714Y-50872380D01*
X65996190Y-50872380D01*
X66091428Y-50824761D01*
X66139047Y-50777142D01*
X66186666Y-50681904D01*
X66186666Y-50443809D01*
X66139047Y-50348571D01*
X66091428Y-50300952D01*
X65996190Y-50253333D01*
X65805714Y-50253333D01*
X65710476Y-50300952D01*
X65662857Y-50348571D01*
X65615238Y-50443809D01*
%TO.C,J4*%
X57166666Y-33202380D02*
X57166666Y-33916666D01*
X57119047Y-34059523D01*
X57023809Y-34154761D01*
X56880952Y-34202380D01*
X56785714Y-34202380D01*
X58071428Y-33535714D02*
X58071428Y-34202380D01*
X57833333Y-33154761D02*
X57595238Y-33869047D01*
X58214285Y-33869047D01*
%TO.C,J3*%
X73233333Y-60061904D02*
X73233333Y-60633333D01*
X73195238Y-60747619D01*
X73119047Y-60823809D01*
X73004761Y-60861904D01*
X72928571Y-60861904D01*
X73538095Y-60061904D02*
X74033333Y-60061904D01*
X73766666Y-60366666D01*
X73880952Y-60366666D01*
X73957142Y-60404761D01*
X73995238Y-60442857D01*
X74033333Y-60519047D01*
X74033333Y-60709523D01*
X73995238Y-60785714D01*
X73957142Y-60823809D01*
X73880952Y-60861904D01*
X73652380Y-60861904D01*
X73576190Y-60823809D01*
X73538095Y-60785714D01*
%TO.C,J2*%
X71666666Y-33202380D02*
X71666666Y-33916666D01*
X71619047Y-34059523D01*
X71523809Y-34154761D01*
X71380952Y-34202380D01*
X71285714Y-34202380D01*
X72095238Y-33297619D02*
X72142857Y-33250000D01*
X72238095Y-33202380D01*
X72476190Y-33202380D01*
X72571428Y-33250000D01*
X72619047Y-33297619D01*
X72666666Y-33392857D01*
X72666666Y-33488095D01*
X72619047Y-33630952D01*
X72047619Y-34202380D01*
X72666666Y-34202380D01*
%TO.C,C3*%
X84285714Y-36133333D02*
X84323809Y-36171428D01*
X84361904Y-36285714D01*
X84361904Y-36361904D01*
X84323809Y-36476190D01*
X84247619Y-36552380D01*
X84171428Y-36590476D01*
X84019047Y-36628571D01*
X83904761Y-36628571D01*
X83752380Y-36590476D01*
X83676190Y-36552380D01*
X83600000Y-36476190D01*
X83561904Y-36361904D01*
X83561904Y-36285714D01*
X83600000Y-36171428D01*
X83638095Y-36133333D01*
X83561904Y-35866666D02*
X83561904Y-35371428D01*
X83866666Y-35638095D01*
X83866666Y-35523809D01*
X83904761Y-35447619D01*
X83942857Y-35409523D01*
X84019047Y-35371428D01*
X84209523Y-35371428D01*
X84285714Y-35409523D01*
X84323809Y-35447619D01*
X84361904Y-35523809D01*
X84361904Y-35752380D01*
X84323809Y-35828571D01*
X84285714Y-35866666D01*
%TO.C,C2*%
X82355766Y-56478435D02*
X82315360Y-56478435D01*
X82234548Y-56438029D01*
X82194142Y-56397623D01*
X82153735Y-56316810D01*
X82153735Y-56235998D01*
X82173938Y-56175389D01*
X82234548Y-56074374D01*
X82295157Y-56013765D01*
X82396172Y-55953155D01*
X82456781Y-55932952D01*
X82537593Y-55932952D01*
X82618406Y-55973358D01*
X82658812Y-56013765D01*
X82699218Y-56094577D01*
X82699218Y-56134983D01*
X82860842Y-56296607D02*
X82901248Y-56296607D01*
X82961857Y-56316810D01*
X83062873Y-56417826D01*
X83083076Y-56478435D01*
X83083076Y-56518841D01*
X83062873Y-56579450D01*
X83022467Y-56619856D01*
X82941654Y-56660262D01*
X82456781Y-56660262D01*
X82719421Y-56922902D01*
%TO.C,C1*%
X75919688Y-55971749D02*
X75865813Y-55971749D01*
X75758064Y-55917874D01*
X75704189Y-55863999D01*
X75650314Y-55756250D01*
X75650314Y-55648500D01*
X75677251Y-55567688D01*
X75758064Y-55433001D01*
X75838876Y-55352189D01*
X75973563Y-55271377D01*
X76054375Y-55244439D01*
X76162125Y-55244439D01*
X76269874Y-55298314D01*
X76323749Y-55352189D01*
X76377624Y-55459938D01*
X76377624Y-55513813D01*
X76404561Y-56564372D02*
X76081312Y-56241123D01*
X76242937Y-56402748D02*
X76808622Y-55837062D01*
X76673935Y-55864000D01*
X76566186Y-55864000D01*
X76485374Y-55837062D01*
%TD*%
M02*
