<?xml version="1.0" encoding="utf-8"?>
<!-- Generator: Adobe Illustrator 26.0.0, SVG Export Plug-In . SVG Version: 6.00 Build 0)  -->
<svg version="1.1" id="Layer_1" xmlns="http://www.w3.org/2000/svg" xmlns:xlink="http://www.w3.org/1999/xlink" x="0px" y="0px"
	 viewBox="0 0 600 400" style="enable-background:new 0 0 600 400;" xml:space="preserve">
<style type="text/css">
	.st0{fill:none;stroke:#5692BD;stroke-width:30;stroke-miterlimit:10;}
	.st1{fill:#5692BD;}
</style>
<polygon class="st0" points="41.5,128 38.25,164.75 35.25,203.5 32,253.5 30.5,273 32.75,279.75 36.25,287.25 44,296 55.5,303.75 
	80,311.75 130.33,326.67 159.67,335.67 190,343.33 223.33,348 249.33,351 289,351 338.67,351 370,349.33 394,345.67 421.33,340 
	447,332.67 488.33,320.33 517,312.33 543.67,302.67 556,293.67 564.33,282.67 567.5,270 560.67,175 558.67,149 557,125.67 
	554.33,107.67 552.33,99 547.67,89 541.33,81 535.33,75.67 527,70.67 517.67,68 501.67,68 487.33,68 478.67,68 470,66.33 
	459.67,63.67 455,61.33 450.33,58.67 447.12,54.92 442.33,51.33 436,48.67 428,48.67 168.33,48.67 163.81,49 159.75,49.56 
	155.31,51.25 151.31,53.62 148.44,56 146.69,58.88 143.25,61.25 138.62,63 134.12,64.06 123.81,65.81 115.94,66.69 77.17,69.17 
	69,71.17 60.51,76.17 53.67,82.83 48.17,91.83 44.34,103.17 "/>
<g>
	<path class="st1" d="M211.28,152.28l0.13,47.97c0,9.36-6.07,14.39-18.2,15.08h-90.87c-9.36,0-14.39-5.03-15.08-15.08v-76.57
		c0-7.63,6.59-11.74,19.76-12.35h104.39v22.1h-98.8v60.19h73.32v-21.97h-37.96v-19.37H211.28z"/>
	<path class="st1" d="M360.26,174.07v27.72c0,8.42-3.68,12.93-11.05,13.54H238.32V111.2h110.77c6.92,0,10.65,4.69,11.17,14.06v26.29
		c0.61,6.86-3.12,10.54-11.18,11.06C356.01,162.27,359.74,166.09,360.26,174.07z M265.62,149.55h65c2.6,0,3.9-2.04,3.9-6.11v-4.29
		c0-3.99-1.3-5.98-3.9-5.98h-65V149.55z M265.62,192.32h65c2.6,0,3.9-2.04,3.9-6.11v-4.29c0-4.07-1.3-6.11-3.9-6.11h-65V192.32z"/>
</g>
<g>
	<path class="st1" d="M225.95,280.03v25.8h-17.2v-68.8h17.2v25.8h49.62v-25.8h17.11v68.8h-17.11v-25.8H225.95z"/>
	<path class="st1" d="M371.12,305.83h-58.48v-68.89h58.48c12.67,0,21.53,5.71,26.57,17.14c2.12,4.71,3.38,10.39,3.78,17.05
		c-0.4,6.77-1.66,12.54-3.78,17.31C392.65,300.04,383.79,305.83,371.12,305.83z M385.14,271.3c-0.29-3.91-1.03-7.27-2.24-10.08
		c-2.98-6.72-8.2-10.08-15.65-10.08h-37.58v40.59h37.5c7.45,0,12.7-3.39,15.74-10.17C384.11,278.69,384.85,275.27,385.14,271.3z"/>
</g>
<g>
	<path class="st1" d="M493.34,215.33l-42.51-75.53l-30.03,53.56h30.03v21.97h-76.7l9.36-15.36l53.04-88.77H465l59.15,104.13H493.34z
		"/>
</g>
<g>
</g>
<g>
</g>
<g>
</g>
<g>
</g>
<g>
</g>
<g>
</g>
</svg>
