<?xml version="1.0" encoding="utf-8"?>
<!-- Generator: Adobe Illustrator 16.0.0, SVG Export Plug-In . SVG Version: 6.00 Build 0)  -->
<!DOCTYPE svg PUBLIC "-//W3C//DTD SVG 1.1//EN" "http://www.w3.org/Graphics/SVG/1.1/DTD/svg11.dtd">
<svg version="1.1" id="Layer_1" xmlns="http://www.w3.org/2000/svg" xmlns:xlink="http://www.w3.org/1999/xlink" x="0px" y="0px"
	 width="600px" height="600px" viewBox="0 0 600 600" enable-background="new 0 0 600 600" xml:space="preserve">
<polygon fill="none" stroke="#5692BD" stroke-width="30" stroke-miterlimit="10" points="41.5,228 38.25,264.75 35.25,303.5 
	32,353.5 30.5,373 32.75,379.75 36.25,387.25 44,396 55.5,403.75 80,411.75 130.333,426.665 159.667,435.665 190,443.331 
	223.333,447.998 249.333,450.998 289,450.998 338.666,450.998 370,449.331 394,445.665 421.333,439.998 447,432.665 
	488.333,420.333 517,412.333 543.666,402.667 556,393.667 564.333,382.667 567.5,370 560.667,275 558.667,249 557,225.667 
	554.333,207.667 552.333,199 547.667,189 541.333,181 535.333,175.667 527,170.667 517.667,168 501.667,168 487.333,168 
	478.667,168 470,166.333 459.667,163.667 455,161.333 450.333,158.667 447.125,154.917 442.333,151.333 436,148.667 428,148.667 
	168.333,148.667 163.813,149 159.75,149.563 155.313,151.25 151.313,153.625 148.438,156 146.688,158.875 143.25,161.25 
	138.625,163 134.125,164.063 123.813,165.813 115.938,166.688 77.17,169.167 69.004,171.167 60.507,176.166 53.674,182.833 
	48.174,191.833 44.342,203.165 "/>
<g>
	<path fill="#5692BD" d="M211.278,252.284l0.13,47.97c0,9.36-6.067,14.387-18.2,15.081h-90.87c-9.36,0-14.387-5.025-15.08-15.081
		v-76.57c0-7.625,6.585-11.743,19.76-12.35h104.39v22.1h-98.8v60.19h73.32v-21.97h-37.96v-19.37H211.278z"/>
	<path fill="#5692BD" d="M360.257,274.073v27.724c0,8.418-3.685,12.93-11.051,13.537h-110.89v-104.13h110.772
		c6.925,0,10.647,4.686,11.168,14.058v26.292c0.605,6.855-3.12,10.544-11.181,11.064
		C356.009,262.271,359.736,266.09,360.257,274.073z M265.616,249.554h65c2.601,0,3.9-2.036,3.9-6.11v-4.29
		c0-3.985-1.3-5.98-3.9-5.98h-65V249.554z M265.616,292.324h65c2.601,0,3.9-2.036,3.9-6.11v-4.29c0-4.072-1.3-6.11-3.9-6.11h-65
		V292.324z"/>
</g>
<g>
	<path fill="#5692BD" d="M225.953,380.033v25.801h-17.2v-68.801h17.2v25.801h49.622v-25.801h17.114v68.801h-17.114v-25.801H225.953z
		"/>
	<path fill="#5692BD" d="M371.121,405.834h-58.48v-68.887h58.48c12.67,0,21.527,5.713,26.573,17.136
		c2.121,4.707,3.383,10.39,3.784,17.05c-0.401,6.773-1.663,12.543-3.784,17.307C392.648,400.037,383.791,405.834,371.121,405.834z
		 M385.139,371.305c-0.287-3.906-1.032-7.268-2.236-10.084c-2.981-6.721-8.199-10.083-15.651-10.083h-37.582v40.592h37.496
		c7.452,0,12.698-3.39,15.737-10.169C384.106,378.688,384.852,375.269,385.139,371.305z"/>
</g>
<g>
	<path fill="#5692BD" d="M493.34,315.334l-42.51-75.53l-30.03,53.56h30.03v21.97h-76.7l9.36-15.358l53.04-88.771H465l59.15,104.13
		H493.34z"/>
</g>
<g>
</g>
<g>
</g>
<g>
</g>
<g>
</g>
<g>
</g>
<g>
</g>
</svg>
